<?xml version="1.0" encoding="utf-8" standalone="no"?>
<!DOCTYPE svg PUBLIC "-//W3C//DTD SVG 1.1//EN"
  "http://www.w3.org/Graphics/SVG/1.1/DTD/svg11.dtd">
<svg xmlns:xlink="http://www.w3.org/1999/xlink"   viewBox="0 0 584.399528 368.39952" xmlns="http://www.w3.org/2000/svg" version="1.1" preserveAspectRatio="xMidYMid meet" style="width:100%;height:auto;aspect-ratio:8 / 5;display:block;">
 <metadata>
  <rdf:RDF xmlns:dc="http://purl.org/dc/elements/1.1/" xmlns:cc="http://creativecommons.org/ns#" xmlns:rdf="http://www.w3.org/1999/02/22-rdf-syntax-ns#">
   <cc:Work>
    <dc:type rdf:resource="http://purl.org/dc/dcmitype/StillImage"/>
    <dc:date>2025-10-22T13:49:58.399002</dc:date>
    <dc:format>image/svg+xml</dc:format>
    <dc:creator>
     <cc:Agent>
      <dc:title>Matplotlib v3.10.6, https://matplotlib.org/</dc:title>
     </cc:Agent>
    </dc:creator>
   </cc:Work>
  </rdf:RDF>
 </metadata>
 <defs>
  <style type="text/css">*{stroke-linejoin: round; stroke-linecap: butt}</style>
 </defs>
 <g id="figure_1">
  <g id="patch_1">
   <path d="M 0 368.39952 
L 584.399528 368.39952 
L 584.399528 0 
L 0 0 
z
" style="fill: #ffffff"/>
  </g>
  <g id="axes_1">
   <g id="patch_2">
    <path d="M 53.328125 108.021754 
L 573.652483 108.021754 
L 573.652483 7.2 
L 53.328125 7.2 
z
" style="fill: #ffffff"/>
   </g>
   <g id="matplotlib.axis_1">
    <g id="xtick_1">
     <g id="line2d_1">
      <defs>
       <path id="mac3356afdb" d="M 0 0 
L 0 3.5 
" style="stroke: #000000; stroke-width: 0.8"/>
      </defs>
      <g>
       <use xlink:href="#mac3356afdb" x="58.429344" y="108.021754" style="stroke: #000000; stroke-width: 0.8"/>
      </g>
     </g>
    </g>
    <g id="xtick_2">
     <g id="line2d_2">
      <g>
       <use xlink:href="#mac3356afdb" x="92.437669" y="108.021754" style="stroke: #000000; stroke-width: 0.8"/>
      </g>
     </g>
    </g>
    <g id="xtick_3">
     <g id="line2d_3">
      <g>
       <use xlink:href="#mac3356afdb" x="126.445994" y="108.021754" style="stroke: #000000; stroke-width: 0.8"/>
      </g>
     </g>
    </g>
    <g id="xtick_4">
     <g id="line2d_4">
      <g>
       <use xlink:href="#mac3356afdb" x="160.454319" y="108.021754" style="stroke: #000000; stroke-width: 0.8"/>
      </g>
     </g>
    </g>
    <g id="xtick_5">
     <g id="line2d_5">
      <g>
       <use xlink:href="#mac3356afdb" x="194.462643" y="108.021754" style="stroke: #000000; stroke-width: 0.8"/>
      </g>
     </g>
    </g>
    <g id="xtick_6">
     <g id="line2d_6">
      <g>
       <use xlink:href="#mac3356afdb" x="228.470968" y="108.021754" style="stroke: #000000; stroke-width: 0.8"/>
      </g>
     </g>
    </g>
    <g id="xtick_7">
     <g id="line2d_7">
      <g>
       <use xlink:href="#mac3356afdb" x="262.479293" y="108.021754" style="stroke: #000000; stroke-width: 0.8"/>
      </g>
     </g>
    </g>
    <g id="xtick_8">
     <g id="line2d_8">
      <g>
       <use xlink:href="#mac3356afdb" x="296.487618" y="108.021754" style="stroke: #000000; stroke-width: 0.8"/>
      </g>
     </g>
    </g>
    <g id="xtick_9">
     <g id="line2d_9">
      <g>
       <use xlink:href="#mac3356afdb" x="330.495942" y="108.021754" style="stroke: #000000; stroke-width: 0.8"/>
      </g>
     </g>
    </g>
    <g id="xtick_10">
     <g id="line2d_10">
      <g>
       <use xlink:href="#mac3356afdb" x="364.504267" y="108.021754" style="stroke: #000000; stroke-width: 0.8"/>
      </g>
     </g>
    </g>
    <g id="xtick_11">
     <g id="line2d_11">
      <g>
       <use xlink:href="#mac3356afdb" x="398.512592" y="108.021754" style="stroke: #000000; stroke-width: 0.8"/>
      </g>
     </g>
    </g>
    <g id="xtick_12">
     <g id="line2d_12">
      <g>
       <use xlink:href="#mac3356afdb" x="432.520917" y="108.021754" style="stroke: #000000; stroke-width: 0.8"/>
      </g>
     </g>
    </g>
    <g id="xtick_13">
     <g id="line2d_13">
      <g>
       <use xlink:href="#mac3356afdb" x="466.529241" y="108.021754" style="stroke: #000000; stroke-width: 0.8"/>
      </g>
     </g>
    </g>
    <g id="xtick_14">
     <g id="line2d_14">
      <g>
       <use xlink:href="#mac3356afdb" x="500.537566" y="108.021754" style="stroke: #000000; stroke-width: 0.8"/>
      </g>
     </g>
    </g>
    <g id="xtick_15">
     <g id="line2d_15">
      <g>
       <use xlink:href="#mac3356afdb" x="534.545891" y="108.021754" style="stroke: #000000; stroke-width: 0.8"/>
      </g>
     </g>
    </g>
    <g id="xtick_16">
     <g id="line2d_16">
      <g>
       <use xlink:href="#mac3356afdb" x="568.554216" y="108.021754" style="stroke: #000000; stroke-width: 0.8"/>
      </g>
     </g>
    </g>
   </g>
   <g id="matplotlib.axis_2">
    <g id="ytick_1">
     <g id="line2d_17">
      <defs>
       <path id="m5513a10ac9" d="M 0 0 
L -3.5 0 
" style="stroke: #000000; stroke-width: 0.8"/>
      </defs>
      <g>
       <use xlink:href="#m5513a10ac9" x="53.328125" y="94.185585" style="stroke: #000000; stroke-width: 0.8"/>
      </g>
     </g>
     <g id="text_1">
      <!-- 0.65 -->
      <g transform="translate(24.0625 97.984804) scale(0.1 -0.1)">
       <defs>
        <path id="DejaVuSans-30" d="M 2034 4250 
Q 1547 4250 1301 3770 
Q 1056 3291 1056 2328 
Q 1056 1369 1301 889 
Q 1547 409 2034 409 
Q 2525 409 2770 889 
Q 3016 1369 3016 2328 
Q 3016 3291 2770 3770 
Q 2525 4250 2034 4250 
z
M 2034 4750 
Q 2819 4750 3233 4129 
Q 3647 3509 3647 2328 
Q 3647 1150 3233 529 
Q 2819 -91 2034 -91 
Q 1250 -91 836 529 
Q 422 1150 422 2328 
Q 422 3509 836 4129 
Q 1250 4750 2034 4750 
z
" transform="scale(0.015625)"/>
        <path id="DejaVuSans-2e" d="M 684 794 
L 1344 794 
L 1344 0 
L 684 0 
L 684 794 
z
" transform="scale(0.015625)"/>
        <path id="DejaVuSans-36" d="M 2113 2584 
Q 1688 2584 1439 2293 
Q 1191 2003 1191 1497 
Q 1191 994 1439 701 
Q 1688 409 2113 409 
Q 2538 409 2786 701 
Q 3034 994 3034 1497 
Q 3034 2003 2786 2293 
Q 2538 2584 2113 2584 
z
M 3366 4563 
L 3366 3988 
Q 3128 4100 2886 4159 
Q 2644 4219 2406 4219 
Q 1781 4219 1451 3797 
Q 1122 3375 1075 2522 
Q 1259 2794 1537 2939 
Q 1816 3084 2150 3084 
Q 2853 3084 3261 2657 
Q 3669 2231 3669 1497 
Q 3669 778 3244 343 
Q 2819 -91 2113 -91 
Q 1303 -91 875 529 
Q 447 1150 447 2328 
Q 447 3434 972 4092 
Q 1497 4750 2381 4750 
Q 2619 4750 2861 4703 
Q 3103 4656 3366 4563 
z
" transform="scale(0.015625)"/>
        <path id="DejaVuSans-35" d="M 691 4666 
L 3169 4666 
L 3169 4134 
L 1269 4134 
L 1269 2991 
Q 1406 3038 1543 3061 
Q 1681 3084 1819 3084 
Q 2600 3084 3056 2656 
Q 3513 2228 3513 1497 
Q 3513 744 3044 326 
Q 2575 -91 1722 -91 
Q 1428 -91 1123 -41 
Q 819 9 494 109 
L 494 744 
Q 775 591 1075 516 
Q 1375 441 1709 441 
Q 2250 441 2565 725 
Q 2881 1009 2881 1497 
Q 2881 1984 2565 2268 
Q 2250 2553 1709 2553 
Q 1456 2553 1204 2497 
Q 953 2441 691 2322 
L 691 4666 
z
" transform="scale(0.015625)"/>
       </defs>
       <use xlink:href="#DejaVuSans-30"/>
       <use xlink:href="#DejaVuSans-2e" transform="translate(63.623047 0)"/>
       <use xlink:href="#DejaVuSans-36" transform="translate(95.410156 0)"/>
       <use xlink:href="#DejaVuSans-35" transform="translate(159.033203 0)"/>
      </g>
     </g>
    </g>
    <g id="ytick_2">
     <g id="line2d_18">
      <g>
       <use xlink:href="#m5513a10ac9" x="53.328125" y="54.300407" style="stroke: #000000; stroke-width: 0.8"/>
      </g>
     </g>
     <g id="text_2">
      <!-- 0.66 -->
      <g transform="translate(24.0625 58.099626) scale(0.1 -0.1)">
       <use xlink:href="#DejaVuSans-30"/>
       <use xlink:href="#DejaVuSans-2e" transform="translate(63.623047 0)"/>
       <use xlink:href="#DejaVuSans-36" transform="translate(95.410156 0)"/>
       <use xlink:href="#DejaVuSans-36" transform="translate(159.033203 0)"/>
      </g>
     </g>
    </g>
    <g id="ytick_3">
     <g id="line2d_19">
      <g>
       <use xlink:href="#m5513a10ac9" x="53.328125" y="14.415229" style="stroke: #000000; stroke-width: 0.8"/>
      </g>
     </g>
     <g id="text_3">
      <!-- 0.67 -->
      <g transform="translate(24.0625 18.214448) scale(0.1 -0.1)">
       <defs>
        <path id="DejaVuSans-37" d="M 525 4666 
L 3525 4666 
L 3525 4397 
L 1831 0 
L 1172 0 
L 2766 4134 
L 525 4134 
L 525 4666 
z
" transform="scale(0.015625)"/>
       </defs>
       <use xlink:href="#DejaVuSans-30"/>
       <use xlink:href="#DejaVuSans-2e" transform="translate(63.623047 0)"/>
       <use xlink:href="#DejaVuSans-36" transform="translate(95.410156 0)"/>
       <use xlink:href="#DejaVuSans-37" transform="translate(159.033203 0)"/>
      </g>
     </g>
    </g>
    <g id="text_4">
     <!-- Price -->
     <g transform="translate(14.798438 69.808533) rotate(-90) scale(0.1 -0.1)">
      <defs>
       <path id="DejaVuSans-50" d="M 1259 4147 
L 1259 2394 
L 2053 2394 
Q 2494 2394 2734 2622 
Q 2975 2850 2975 3272 
Q 2975 3691 2734 3919 
Q 2494 4147 2053 4147 
L 1259 4147 
z
M 628 4666 
L 2053 4666 
Q 2838 4666 3239 4311 
Q 3641 3956 3641 3272 
Q 3641 2581 3239 2228 
Q 2838 1875 2053 1875 
L 1259 1875 
L 1259 0 
L 628 0 
L 628 4666 
z
" transform="scale(0.015625)"/>
       <path id="DejaVuSans-72" d="M 2631 2963 
Q 2534 3019 2420 3045 
Q 2306 3072 2169 3072 
Q 1681 3072 1420 2755 
Q 1159 2438 1159 1844 
L 1159 0 
L 581 0 
L 581 3500 
L 1159 3500 
L 1159 2956 
Q 1341 3275 1631 3429 
Q 1922 3584 2338 3584 
Q 2397 3584 2469 3576 
Q 2541 3569 2628 3553 
L 2631 2963 
z
" transform="scale(0.015625)"/>
       <path id="DejaVuSans-69" d="M 603 3500 
L 1178 3500 
L 1178 0 
L 603 0 
L 603 3500 
z
M 603 4863 
L 1178 4863 
L 1178 4134 
L 603 4134 
L 603 4863 
z
" transform="scale(0.015625)"/>
       <path id="DejaVuSans-63" d="M 3122 3366 
L 3122 2828 
Q 2878 2963 2633 3030 
Q 2388 3097 2138 3097 
Q 1578 3097 1268 2742 
Q 959 2388 959 1747 
Q 959 1106 1268 751 
Q 1578 397 2138 397 
Q 2388 397 2633 464 
Q 2878 531 3122 666 
L 3122 134 
Q 2881 22 2623 -34 
Q 2366 -91 2075 -91 
Q 1284 -91 818 406 
Q 353 903 353 1747 
Q 353 2603 823 3093 
Q 1294 3584 2113 3584 
Q 2378 3584 2631 3529 
Q 2884 3475 3122 3366 
z
" transform="scale(0.015625)"/>
       <path id="DejaVuSans-65" d="M 3597 1894 
L 3597 1613 
L 953 1613 
Q 991 1019 1311 708 
Q 1631 397 2203 397 
Q 2534 397 2845 478 
Q 3156 559 3463 722 
L 3463 178 
Q 3153 47 2828 -22 
Q 2503 -91 2169 -91 
Q 1331 -91 842 396 
Q 353 884 353 1716 
Q 353 2575 817 3079 
Q 1281 3584 2069 3584 
Q 2775 3584 3186 3129 
Q 3597 2675 3597 1894 
z
M 3022 2063 
Q 3016 2534 2758 2815 
Q 2500 3097 2075 3097 
Q 1594 3097 1305 2825 
Q 1016 2553 972 2059 
L 3022 2063 
z
" transform="scale(0.015625)"/>
      </defs>
      <use xlink:href="#DejaVuSans-50"/>
      <use xlink:href="#DejaVuSans-72" transform="translate(58.552734 0)"/>
      <use xlink:href="#DejaVuSans-69" transform="translate(99.666016 0)"/>
      <use xlink:href="#DejaVuSans-63" transform="translate(127.449219 0)"/>
      <use xlink:href="#DejaVuSans-65" transform="translate(182.429688 0)"/>
     </g>
    </g>
   </g>
   <g id="line2d_20">
    <path d="M 58.429344 76.436681 
L 59.013272 74.641848 
L 59.57004 80.185888 
L 60.095122 78.51071 
L 60.805794 74.562078 
L 62.453466 75.359781 
L 62.919703 78.311284 
L 63.598688 80.146003 
L 64.562848 73.285752 
L 64.585481 73.564948 
L 65.613012 70.134823 
L 66.273892 71.012297 
L 67.301423 74.801389 
L 67.654496 74.123341 
L 68.840458 70.892641 
L 69.19353 71.889771 
L 69.9721 74.641848 
L 70.850255 74.003685 
L 71.09469 72.488048 
L 73.31271 80.863936 
L 73.317236 67.861368 
L 73.815159 74.242996 
L 73.846845 71.291493 
L 75.449251 70.892641 
L 76.820802 75.958059 
L 76.843435 75.399666 
L 78.310044 79.228644 
L 79.328523 80.225773 
L 79.867184 78.151744 
L 80.469218 76.755762 
L 81.030513 93.786734 
L 81.659707 86.647287 
L 82.148576 92.350867 
L 83.271166 88.681431 
L 84.656297 100.367788 
L 85.837732 84.254176 
L 86.068587 84.772683 
L 86.53935 89.120168 
L 87.770577 85.331076 
L 88.748317 89.399364 
L 90.31451 99.330773 
L 90.373356 78.630366 
L 90.893911 88.123038 
L 91.283197 85.610272 
L 92.84939 89.239823 
L 93.587221 84.094635 
L 93.81355 84.214291 
L 94.985932 87.44499 
L 96.072309 85.21142 
L 96.565705 90.83523 
L 97.652082 93.347997 
L 98.312961 82.658769 
L 98.548343 85.530502 
L 99.775044 80.146003 
L 100.055691 84.214291 
L 101.114909 78.311284 
L 101.481561 82.020606 
L 102.563412 74.601963 
L 102.94817 78.111859 
L 104.686373 72.408278 
L 105.197876 77.154614 
L 107.325364 74.123341 
L 107.329891 82.738539 
L 107.796128 79.069103 
L 108.022456 74.681733 
L 109.226524 77.752892 
L 110.068466 74.282881 
L 110.602602 76.636107 
L 112.123529 81.342558 
L 112.286486 80.146003 
L 113.028844 84.932224 
L 114.305337 83.177276 
L 114.423028 85.729928 
L 115.817211 82.97785 
L 116.437352 87.28545 
L 116.962434 85.331076 
L 117.867748 88.242694 
L 119.148768 83.576128 
L 119.777961 93.308111 
L 119.96355 93.467652 
L 120.660642 89.279708 
L 122.177044 90.595919 
L 122.64328 87.963498 
L 124.322638 76.636107 
L 124.327165 103.438947 
L 124.422223 84.254176 
L 126.097054 87.046138 
L 127.156272 82.81831 
L 127.622509 83.935095 
L 127.821678 81.74141 
L 129.908427 83.616013 
L 130.533094 80.624625 
L 130.940485 81.90095 
L 132.330142 75.319896 
L 133.280722 77.513581 
L 134.892182 78.111859 
L 135.123037 75.080585 
L 135.272414 77.553466 
L 136.358791 58.767547 
L 136.829554 73.564948 
L 137.965723 66.146305 
L 138.314269 68.020908 
L 139.803511 74.242996 
L 141.134323 71.331378 
L 141.315386 72.687474 
L 141.319912 69.855627 
L 175.05192 69.855627 
L 176.514002 75.878289 
L 176.704118 75.718748 
L 178.111882 71.65046 
L 178.532853 73.365522 
L 178.858766 67.622057 
L 180.443066 72.328508 
L 181.126578 68.459645 
L 181.275955 69.257349 
L 182.670139 61.080887 
L 183.172588 59.006858 
L 184.195593 62.197672 
L 184.580352 61.758935 
L 185.74368 56.733403 
L 186.24613 59.964102 
L 186.834584 54.898685 
L 187.34156 57.890073 
L 187.63126 61.240428 
L 188.91228 58.687777 
L 189.568633 61.878591 
L 190.396995 60.003988 
L 191.587483 55.855929 
L 192.338894 44.010031 
L 192.343421 69.177579 
L 193.610861 56.733403 
L 194.837561 54.300407 
L 195.484861 57.730532 
L 196.290591 52.505574 
L 197.010316 56.135125 
L 198.010688 50.830397 
L 198.662514 48.23786 
L 199.30076 53.303278 
L 199.979746 54.699259 
L 201.052543 46.921649 
L 201.781321 46.243601 
L 202.564418 50.112463 
L 202.81338 49.474301 
L 203.763959 55.975585 
L 204.3841 50.47143 
L 205.275834 60.323069 
L 206.276206 55.776159 
L 207.240366 60.56238 
L 207.330897 59.40571 
L 208.743188 61.360084 
L 209.345222 68.020908 
L 209.349748 46.363257 
L 211.210169 61.439854 
L 211.830309 58.887203 
L 212.531928 62.117902 
L 213.396503 55.177881 
L 213.455348 55.895814 
L 214.94459 49.952923 
L 215.827271 48.357516 
L 216.438358 55.696388 
L 216.863856 51.149478 
L 217.556421 56.01547 
L 218.420996 49.873152 
L 219.271992 53.86167 
L 219.724649 53.821785 
L 220.376475 45.366127 
L 221.141466 46.682338 
L 221.820451 40.141169 
L 222.671447 42.973016 
L 223.47265 46.921649 
L 224.432283 44.249342 
L 225.419075 49.593956 
L 226.351549 37.628403 
L 226.451133 53.742015 
L 228.021853 45.725094 
L 229.185182 51.109593 
L 229.696685 46.522797 
L 230.353038 48.556941 
L 231.620477 51.029822 
L 231.869439 49.793382 
L 232.747594 53.702129 
L 233.811338 51.70787 
L 234.16441 48.716482 
L 235.323213 54.739144 
L 236.423169 50.232119 
L 237.323957 56.693518 
L 237.749455 42.813476 
L 238.011996 46.203716 
L 239.455972 32.243903 
L 239.555556 33.520229 
L 240.261701 28.694123 
L 241.126277 31.52597 
L 242.945958 28.2155 
L 243.357876 32.842181 
L 245.440099 27.657108 
L 246.19151 26.739749 
L 246.852389 32.004592 
L 247.630959 30.927693 
L 248.056457 28.574467 
L 248.721863 29.252515 
L 250.084361 33.520229 
L 250.713554 28.05596 
L 251.768245 36.790814 
L 251.777298 36.711043 
L 252.673559 32.722526 
L 253.316332 33.799425 
L 254.461555 42.015772 
L 255.674676 34.995981 
L 256.362715 40.220939 
L 256.905903 41.45738 
L 257.793111 35.075751 
L 258.318193 36.232421 
L 258.983599 32.921952 
L 260.314411 29.651367 
L 260.323464 37.987369 
L 260.984344 34.637014 
L 293.204476 34.637014 
L 294.471916 28.654237 
L 294.512655 38.027254 
L 294.802356 38.585647 
L 295.010578 32.283789 
L 296.839312 36.352077 
L 297.798946 31.725396 
L 298.20181 32.921952 
L 299.238395 28.2155 
L 299.595994 27.976189 
L 300.695951 31.127118 
L 301.094289 33.520229 
L 301.945285 27.617223 
L 302.429628 28.175615 
L 303.461686 32.762411 
L 304.244783 32.044478 
L 305.390005 26.97906 
L 305.729498 27.696993 
L 306.42659 32.762411 
L 307.037677 31.52597 
L 307.861513 25.503308 
L 308.78946 28.534582 
L 309.658562 24.466294 
L 311.365079 19.919383 
L 311.383185 32.323674 
L 311.989746 28.694123 
L 312.093857 23.389394 
L 313.52878 24.426409 
L 314.551785 28.2155 
L 315.660795 29.21263 
L 315.995761 24.905031 
L 316.928235 30.329415 
L 318.639278 25.503308 
L 319.186994 30.169874 
L 319.639651 29.970448 
L 320.1421 25.543194 
L 321.952728 23.628705 
L 322.34654 29.332285 
L 322.3737 28.853663 
L 323.13869 23.788246 
L 324.283913 28.175615 
L 325.379343 20.158694 
L 325.64641 21.634446 
L 325.800314 19.321106 
L 328.380459 12.101888 
L 328.452884 31.765281 
L 328.516256 16.090406 
L 328.538889 30.129989 
L 330.707117 18.483517 
L 331.567165 23.349509 
L 331.888552 22.033298 
L 332.323103 25.503308 
L 333.133359 22.950657 
L 333.866663 24.66572 
L 334.79461 23.309624 
L 336.342698 27.976189 
L 337.451708 24.546064 
L 337.759514 27.657108 
L 338.90021 22.950657 
L 340.063539 24.346638 
L 340.64294 21.634446 
L 340.78779 22.232724 
L 341.706684 28.614352 
L 343.358883 11.782807 
L 343.888492 37.548632 
L 345.377733 23.868016 
L 345.38226 44.648194 
L 345.69912 23.429279 
L 346.916768 31.4462 
L 348.39243 37.548632 
L 348.541807 33.400574 
L 348.587072 40.659676 
L 350.058208 35.195407 
L 351.316595 44.528538 
L 351.918628 47.998549 
L 353.005006 35.99311 
L 353.439556 40.061398 
L 354.942378 30.3693 
L 356.11476 35.753799 
L 356.24603 34.597129 
L 357.237349 50.989937 
L 357.794118 43.651064 
L 358.296567 50.5512 
L 359.206408 49.035564 
L 359.930659 45.246472 
L 360.908399 47.16096 
L 361.673389 50.351774 
L 362.420273 44.448768 
L 362.74166 52.385919 
L 364.552288 46.482912 
L 364.823882 51.588215 
L 365.987211 54.300407 
L 366.987583 47.599697 
L 367.815946 53.821785 
L 369.178444 59.086628 
L 369.907222 49.434415 
L 370.255768 55.895814 
L 371.206348 49.833267 
L 371.858174 50.830397 
L 372.98529 57.331681 
L 373.609957 59.964102 
L 373.92229 54.260522 
L 375.130885 54.699259 
L 375.583542 58.368695 
L 376.122204 57.411451 
L 376.606547 55.337422 
L 378.104842 55.137996 
L 379.105214 58.368695 
L 379.372282 55.177881 
L 379.381335 66.784468 
L 412.900593 66.784468 
L 413.615791 45.445897 
L 415.512425 59.206284 
L 415.688961 55.417192 
L 416.589748 61.71905 
L 417.409058 57.411451 
L 417.508642 58.807432 
L 418.260053 55.576733 
L 419.495807 55.536848 
L 420.500706 60.243299 
L 420.686295 64.231816 
L 422.021634 55.536848 
L 422.913368 54.499833 
L 423.587827 57.212025 
L 424.307552 57.371566 
L 424.678731 54.340292 
L 425.176654 57.09237 
L 425.65647 63.154917 
L 426.760954 59.32594 
L 428.209456 55.098111 
L 428.331674 55.656503 
L 429.531215 53.422933 
L 430.39579 63.194802 
L 430.454635 52.465689 
L 432.518752 53.742015 
L 432.822032 55.696388 
L 432.858245 54.818914 
L 434.35654 61.838706 
L 434.768458 61.200543 
L 435.008366 58.568121 
L 436.099269 61.758935 
L 437.35313 55.536848 
L 437.593038 60.682036 
L 439.797478 49.793382 
L 441.033232 52.78477 
L 441.77559 48.23786 
L 442.056237 50.112463 
L 443.559059 55.496962 
L 444.287836 56.494092 
L 444.496059 51.508445 
L 445.546223 56.932829 
L 446.528489 54.180752 
L 447.402117 51.069708 
L 447.41117 62.995376 
L 448.239533 52.505574 
L 449.692562 57.17214 
L 450.489239 58.847317 
L 451.190857 45.964405 
L 451.607302 45.047046 
L 452.231969 48.477171 
L 453.159916 47.480042 
L 453.802689 43.212328 
L 454.612945 45.086931 
L 455.762694 51.069708 
L 456.532211 48.31763 
L 457.120665 52.385919 
L 458.265888 49.474301 
L 458.917714 58.089499 
L 459.687231 60.881462 
L 460.05841 55.656503 
L 460.529173 57.730532 
L 461.534072 64.112161 
L 462.217584 61.320198 
L 464.408445 67.941138 
L 464.77057 57.291795 
L 465.078377 64.94975 
L 466.549513 58.528236 
L 466.730575 60.522495 
L 467.264711 56.454207 
L 468.174552 58.448466 
L 469.387673 53.981326 
L 470.478576 58.169269 
L 471.193774 54.021211 
L 472.194147 60.203413 
L 472.560799 54.180752 
L 473.031562 52.864541 
L 474.267316 58.169269 
L 474.280896 57.610877 
L 475.68866 72.089197 
L 475.96478 69.137693 
L 477.254853 76.875418 
L 477.666771 73.764374 
L 479.395921 83.815439 
L 480.360081 79.467955 
L 481.410245 97.855022 
L 481.604888 64.471128 
L 482.089231 64.94975 
L 482.102811 92.231212 
L 483.628265 81.82118 
L 484.252932 78.35117 
L 485.12656 79.467955 
L 485.389101 76.317026 
L 487.389846 76.715877 
L 488.082411 78.710136 
L 488.539595 77.952318 
L 489.100889 83.735669 
L 489.684817 79.787036 
L 491.097107 85.929354 
L 491.241957 85.889468 
L 492.409813 78.51071 
L 493.066166 80.943706 
L 494.062011 75.359781 
L 494.333605 78.43094 
L 495.596519 74.123341 
L 496.438461 75.678863 
L 496.977123 73.644719 
L 497.710427 73.564948 
L 498.398466 79.348299 
L 498.833017 76.755762 
L 531.053149 76.755762 
L 532.501652 78.670251 
L 532.519758 70.134823 
L 532.75514 72.527934 
L 532.91357 77.713007 
L 535.190435 71.131952 
L 535.543508 75.12047 
L 535.973532 73.245867 
L 536.915059 68.300105 
L 537.195706 69.097808 
L 538.019542 64.869979 
L 539.522364 68.619186 
L 540.16061 64.989635 
L 540.391465 65.149176 
L 540.540842 68.698956 
L 541.821862 66.983894 
L 542.727176 70.294364 
L 543.433321 70.174708 
L 543.673229 65.388487 
L 544.872771 67.861368 
L 545.501964 62.237558 
L 547.317119 64.590783 
L 547.932733 61.918476 
L 549.421975 66.465386 
L 549.449134 57.890073 
L 549.48082 66.345731 
L 552.128864 65.747453 
L 552.359719 59.006858 
L 552.975333 63.992505 
L 554.039077 56.334551 
L 554.727116 60.243299 
L 555.333676 50.710741 
L 555.668643 50.989937 
L 556.999454 62.476869 
L 557.166938 55.098111 
L 557.768972 48.915908 
L 558.751237 48.995678 
L 559.475489 52.705 
L 561.086948 51.029822 
L 561.63919 45.086931 
L 562.051108 42.933131 
L 562.698407 50.47143 
L 564.101644 45.605438 
L 564.712731 48.796252 
L 564.948113 47.16096 
L 565.835321 49.673726 
L 566.432828 58.32881 
L 566.437355 38.06714 
L 568.524104 50.39166 
L 568.551264 49.952923 
" clip-path="url(#p30e8164c53)" style="fill: none; stroke: #4169e1; stroke-width: 1.5; stroke-linecap: square"/>
   </g>
   <g id="patch_3">
    <path d="M 53.328125 108.021754 
L 53.328125 7.2 
" style="fill: none; stroke: #000000; stroke-width: 0.8; stroke-linejoin: miter; stroke-linecap: square"/>
   </g>
   <g id="patch_4">
    <path d="M 573.652483 108.021754 
L 573.652483 7.2 
" style="fill: none; stroke: #000000; stroke-width: 0.8; stroke-linejoin: miter; stroke-linecap: square"/>
   </g>
   <g id="patch_5">
    <path d="M 53.328125 108.021754 
L 573.652483 108.021754 
" style="fill: none; stroke: #000000; stroke-width: 0.8; stroke-linejoin: miter; stroke-linecap: square"/>
   </g>
   <g id="patch_6">
    <path d="M 53.328125 7.2 
L 573.652483 7.2 
" style="fill: none; stroke: #000000; stroke-width: 0.8; stroke-linejoin: miter; stroke-linecap: square"/>
   </g>
  </g>
  <g id="axes_2">
   <g id="patch_7">
    <path d="M 53.328125 218.343988 
L 573.652483 218.343988 
L 573.652483 117.522234 
L 53.328125 117.522234 
z
" style="fill: #ffffff"/>
   </g>
   <g id="matplotlib.axis_3">
    <g id="xtick_17">
     <g id="line2d_21">
      <g>
       <use xlink:href="#mac3356afdb" x="58.429344" y="218.343988" style="stroke: #000000; stroke-width: 0.8"/>
      </g>
     </g>
    </g>
    <g id="xtick_18">
     <g id="line2d_22">
      <g>
       <use xlink:href="#mac3356afdb" x="92.437669" y="218.343988" style="stroke: #000000; stroke-width: 0.8"/>
      </g>
     </g>
    </g>
    <g id="xtick_19">
     <g id="line2d_23">
      <g>
       <use xlink:href="#mac3356afdb" x="126.445994" y="218.343988" style="stroke: #000000; stroke-width: 0.8"/>
      </g>
     </g>
    </g>
    <g id="xtick_20">
     <g id="line2d_24">
      <g>
       <use xlink:href="#mac3356afdb" x="160.454319" y="218.343988" style="stroke: #000000; stroke-width: 0.8"/>
      </g>
     </g>
    </g>
    <g id="xtick_21">
     <g id="line2d_25">
      <g>
       <use xlink:href="#mac3356afdb" x="194.462643" y="218.343988" style="stroke: #000000; stroke-width: 0.8"/>
      </g>
     </g>
    </g>
    <g id="xtick_22">
     <g id="line2d_26">
      <g>
       <use xlink:href="#mac3356afdb" x="228.470968" y="218.343988" style="stroke: #000000; stroke-width: 0.8"/>
      </g>
     </g>
    </g>
    <g id="xtick_23">
     <g id="line2d_27">
      <g>
       <use xlink:href="#mac3356afdb" x="262.479293" y="218.343988" style="stroke: #000000; stroke-width: 0.8"/>
      </g>
     </g>
    </g>
    <g id="xtick_24">
     <g id="line2d_28">
      <g>
       <use xlink:href="#mac3356afdb" x="296.487618" y="218.343988" style="stroke: #000000; stroke-width: 0.8"/>
      </g>
     </g>
    </g>
    <g id="xtick_25">
     <g id="line2d_29">
      <g>
       <use xlink:href="#mac3356afdb" x="330.495942" y="218.343988" style="stroke: #000000; stroke-width: 0.8"/>
      </g>
     </g>
    </g>
    <g id="xtick_26">
     <g id="line2d_30">
      <g>
       <use xlink:href="#mac3356afdb" x="364.504267" y="218.343988" style="stroke: #000000; stroke-width: 0.8"/>
      </g>
     </g>
    </g>
    <g id="xtick_27">
     <g id="line2d_31">
      <g>
       <use xlink:href="#mac3356afdb" x="398.512592" y="218.343988" style="stroke: #000000; stroke-width: 0.8"/>
      </g>
     </g>
    </g>
    <g id="xtick_28">
     <g id="line2d_32">
      <g>
       <use xlink:href="#mac3356afdb" x="432.520917" y="218.343988" style="stroke: #000000; stroke-width: 0.8"/>
      </g>
     </g>
    </g>
    <g id="xtick_29">
     <g id="line2d_33">
      <g>
       <use xlink:href="#mac3356afdb" x="466.529241" y="218.343988" style="stroke: #000000; stroke-width: 0.8"/>
      </g>
     </g>
    </g>
    <g id="xtick_30">
     <g id="line2d_34">
      <g>
       <use xlink:href="#mac3356afdb" x="500.537566" y="218.343988" style="stroke: #000000; stroke-width: 0.8"/>
      </g>
     </g>
    </g>
    <g id="xtick_31">
     <g id="line2d_35">
      <g>
       <use xlink:href="#mac3356afdb" x="534.545891" y="218.343988" style="stroke: #000000; stroke-width: 0.8"/>
      </g>
     </g>
    </g>
    <g id="xtick_32">
     <g id="line2d_36">
      <g>
       <use xlink:href="#mac3356afdb" x="568.554216" y="218.343988" style="stroke: #000000; stroke-width: 0.8"/>
      </g>
     </g>
    </g>
   </g>
   <g id="matplotlib.axis_4">
    <g id="ytick_4">
     <g id="line2d_37">
      <g>
       <use xlink:href="#m5513a10ac9" x="53.328125" y="218.14213" style="stroke: #000000; stroke-width: 0.8"/>
      </g>
     </g>
     <g id="text_5">
      <!-- 995 -->
      <g transform="translate(27.240625 221.941349) scale(0.1 -0.1)">
       <defs>
        <path id="DejaVuSans-39" d="M 703 97 
L 703 672 
Q 941 559 1184 500 
Q 1428 441 1663 441 
Q 2288 441 2617 861 
Q 2947 1281 2994 2138 
Q 2813 1869 2534 1725 
Q 2256 1581 1919 1581 
Q 1219 1581 811 2004 
Q 403 2428 403 3163 
Q 403 3881 828 4315 
Q 1253 4750 1959 4750 
Q 2769 4750 3195 4129 
Q 3622 3509 3622 2328 
Q 3622 1225 3098 567 
Q 2575 -91 1691 -91 
Q 1453 -91 1209 -44 
Q 966 3 703 97 
z
M 1959 2075 
Q 2384 2075 2632 2365 
Q 2881 2656 2881 3163 
Q 2881 3666 2632 3958 
Q 2384 4250 1959 4250 
Q 1534 4250 1286 3958 
Q 1038 3666 1038 3163 
Q 1038 2656 1286 2365 
Q 1534 2075 1959 2075 
z
" transform="scale(0.015625)"/>
       </defs>
       <use xlink:href="#DejaVuSans-39"/>
       <use xlink:href="#DejaVuSans-39" transform="translate(63.623047 0)"/>
       <use xlink:href="#DejaVuSans-35" transform="translate(127.246094 0)"/>
      </g>
     </g>
    </g>
    <g id="ytick_5">
     <g id="line2d_38">
      <g>
       <use xlink:href="#m5513a10ac9" x="53.328125" y="194.637977" style="stroke: #000000; stroke-width: 0.8"/>
      </g>
     </g>
     <g id="text_6">
      <!-- 1000 -->
      <g transform="translate(20.878125 198.437196) scale(0.1 -0.1)">
       <defs>
        <path id="DejaVuSans-31" d="M 794 531 
L 1825 531 
L 1825 4091 
L 703 3866 
L 703 4441 
L 1819 4666 
L 2450 4666 
L 2450 531 
L 3481 531 
L 3481 0 
L 794 0 
L 794 531 
z
" transform="scale(0.015625)"/>
       </defs>
       <use xlink:href="#DejaVuSans-31"/>
       <use xlink:href="#DejaVuSans-30" transform="translate(63.623047 0)"/>
       <use xlink:href="#DejaVuSans-30" transform="translate(127.246094 0)"/>
       <use xlink:href="#DejaVuSans-30" transform="translate(190.869141 0)"/>
      </g>
     </g>
    </g>
    <g id="ytick_6">
     <g id="line2d_39">
      <g>
       <use xlink:href="#m5513a10ac9" x="53.328125" y="171.133823" style="stroke: #000000; stroke-width: 0.8"/>
      </g>
     </g>
     <g id="text_7">
      <!-- 1005 -->
      <g transform="translate(20.878125 174.933042) scale(0.1 -0.1)">
       <use xlink:href="#DejaVuSans-31"/>
       <use xlink:href="#DejaVuSans-30" transform="translate(63.623047 0)"/>
       <use xlink:href="#DejaVuSans-30" transform="translate(127.246094 0)"/>
       <use xlink:href="#DejaVuSans-35" transform="translate(190.869141 0)"/>
      </g>
     </g>
    </g>
    <g id="ytick_7">
     <g id="line2d_40">
      <g>
       <use xlink:href="#m5513a10ac9" x="53.328125" y="147.62967" style="stroke: #000000; stroke-width: 0.8"/>
      </g>
     </g>
     <g id="text_8">
      <!-- 1010 -->
      <g transform="translate(20.878125 151.428889) scale(0.1 -0.1)">
       <use xlink:href="#DejaVuSans-31"/>
       <use xlink:href="#DejaVuSans-30" transform="translate(63.623047 0)"/>
       <use xlink:href="#DejaVuSans-31" transform="translate(127.246094 0)"/>
       <use xlink:href="#DejaVuSans-30" transform="translate(190.869141 0)"/>
      </g>
     </g>
    </g>
    <g id="ytick_8">
     <g id="line2d_41">
      <g>
       <use xlink:href="#m5513a10ac9" x="53.328125" y="124.125517" style="stroke: #000000; stroke-width: 0.8"/>
      </g>
     </g>
     <g id="text_9">
      <!-- 1015 -->
      <g transform="translate(20.878125 127.924736) scale(0.1 -0.1)">
       <use xlink:href="#DejaVuSans-31"/>
       <use xlink:href="#DejaVuSans-30" transform="translate(63.623047 0)"/>
       <use xlink:href="#DejaVuSans-31" transform="translate(127.246094 0)"/>
       <use xlink:href="#DejaVuSans-35" transform="translate(190.869141 0)"/>
      </g>
     </g>
    </g>
    <g id="text_10">
     <!-- Equity -->
     <g transform="translate(14.798438 183.744048) rotate(-90) scale(0.1 -0.1)">
      <defs>
       <path id="DejaVuSans-45" d="M 628 4666 
L 3578 4666 
L 3578 4134 
L 1259 4134 
L 1259 2753 
L 3481 2753 
L 3481 2222 
L 1259 2222 
L 1259 531 
L 3634 531 
L 3634 0 
L 628 0 
L 628 4666 
z
" transform="scale(0.015625)"/>
       <path id="DejaVuSans-71" d="M 947 1747 
Q 947 1113 1208 752 
Q 1469 391 1925 391 
Q 2381 391 2643 752 
Q 2906 1113 2906 1747 
Q 2906 2381 2643 2742 
Q 2381 3103 1925 3103 
Q 1469 3103 1208 2742 
Q 947 2381 947 1747 
z
M 2906 525 
Q 2725 213 2448 61 
Q 2172 -91 1784 -91 
Q 1150 -91 751 415 
Q 353 922 353 1747 
Q 353 2572 751 3078 
Q 1150 3584 1784 3584 
Q 2172 3584 2448 3432 
Q 2725 3281 2906 2969 
L 2906 3500 
L 3481 3500 
L 3481 -1331 
L 2906 -1331 
L 2906 525 
z
" transform="scale(0.015625)"/>
       <path id="DejaVuSans-75" d="M 544 1381 
L 544 3500 
L 1119 3500 
L 1119 1403 
Q 1119 906 1312 657 
Q 1506 409 1894 409 
Q 2359 409 2629 706 
Q 2900 1003 2900 1516 
L 2900 3500 
L 3475 3500 
L 3475 0 
L 2900 0 
L 2900 538 
Q 2691 219 2414 64 
Q 2138 -91 1772 -91 
Q 1169 -91 856 284 
Q 544 659 544 1381 
z
M 1991 3584 
L 1991 3584 
z
" transform="scale(0.015625)"/>
       <path id="DejaVuSans-74" d="M 1172 4494 
L 1172 3500 
L 2356 3500 
L 2356 3053 
L 1172 3053 
L 1172 1153 
Q 1172 725 1289 603 
Q 1406 481 1766 481 
L 2356 481 
L 2356 0 
L 1766 0 
Q 1100 0 847 248 
Q 594 497 594 1153 
L 594 3053 
L 172 3053 
L 172 3500 
L 594 3500 
L 594 4494 
L 1172 4494 
z
" transform="scale(0.015625)"/>
       <path id="DejaVuSans-79" d="M 2059 -325 
Q 1816 -950 1584 -1140 
Q 1353 -1331 966 -1331 
L 506 -1331 
L 506 -850 
L 844 -850 
Q 1081 -850 1212 -737 
Q 1344 -625 1503 -206 
L 1606 56 
L 191 3500 
L 800 3500 
L 1894 763 
L 2988 3500 
L 3597 3500 
L 2059 -325 
z
" transform="scale(0.015625)"/>
      </defs>
      <use xlink:href="#DejaVuSans-45"/>
      <use xlink:href="#DejaVuSans-71" transform="translate(63.183594 0)"/>
      <use xlink:href="#DejaVuSans-75" transform="translate(126.660156 0)"/>
      <use xlink:href="#DejaVuSans-69" transform="translate(190.039062 0)"/>
      <use xlink:href="#DejaVuSans-74" transform="translate(217.822266 0)"/>
      <use xlink:href="#DejaVuSans-79" transform="translate(257.03125 0)"/>
     </g>
    </g>
   </g>
   <g id="line2d_42">
    <path d="M 58.429344 194.637977 
L 81.442431 194.637977 
L 82.352272 198.39158 
L 82.655552 192.691117 
L 83.271166 192.61896 
L 84.656297 213.761181 
L 85.837732 184.609449 
L 86.068587 185.5475 
L 86.53935 193.412695 
L 87.770577 186.557709 
L 88.748317 193.917799 
L 89.2055 190.382069 
L 90.504626 181.571395 
L 90.893911 188.074054 
L 91.283197 183.522192 
L 92.441999 184.967228 
L 92.84939 190.097103 
L 93.723018 188.652068 
L 118.270613 188.652068 
L 119.710062 187.134545 
L 119.777961 191.761667 
L 119.96355 192.050862 
L 120.660642 184.459491 
L 122.177044 186.84535 
L 122.64328 182.073631 
L 124.322638 161.540779 
L 124.327165 210.125556 
L 125.04689 194.448755 
L 126.097054 196.322413 
L 126.486339 191.494142 
L 127.482185 193.079545 
L 136.684704 193.079545 
L 137.196206 194.593043 
L 137.499487 184.986896 
L 138.314269 185.425449 
L 139.803511 196.616059 
L 140.183743 192.814121 
L 141.292753 194.464018 
L 191.926976 194.464018 
L 193.035986 196.330928 
L 193.144624 190.768623 
L 193.610861 192.480101 
L 194.068044 189.485014 
L 195.724769 191.068086 
L 196.005417 183.075922 
L 196.535026 183.860867 
L 208.80656 183.860867 
L 210.155478 184.58831 
L 210.187164 183.228924 
L 210.390859 184.516763 
L 210.69414 181.941084 
L 211.880101 184.37367 
L 216.479097 184.37367 
L 217.556421 187.242058 
L 218.07245 180.391631 
L 218.081504 181.390652 
L 219.552639 180.748424 
L 225.686143 180.748424 
L 227.007902 181.975686 
L 227.179911 178.483721 
L 227.256863 179.338896 
L 227.523931 177.058429 
L 229.343612 176.860105 
L 229.416037 178.357648 
L 230.828328 180.156512 
L 230.941492 177.304048 
L 231.8287 178.159787 
L 234.893188 178.159787 
L 235.323213 181.173361 
L 235.581227 176.246374 
L 236.432222 176.889024 
L 237.962203 176.889024 
L 238.12516 177.832145 
L 239.455972 153.689383 
L 239.555556 155.968346 
L 240.261701 147.351018 
L 241.126277 152.407467 
L 242.543093 147.778324 
L 242.642678 148.77537 
L 244.091181 144.309481 
L 244.403514 144.594539 
L 244.466886 146.518683 
L 245.639268 145.520979 
L 302.411521 145.520979 
L 303.461686 149.964961 
L 303.941502 143.404294 
L 304.244783 148.681352 
L 305.390005 139.624779 
L 305.485063 140.837076 
L 311.618567 140.837076 
L 312.025958 144.282007 
L 312.093857 136.442902 
L 313.157601 141.0751 
L 330.037184 141.0751 
L 331.567165 143.803414 
L 331.612431 146.221616 
L 331.888552 141.456337 
L 333.106199 143.305549 
L 343.843226 143.305549 
L 343.888492 147.39927 
L 345.377733 122.89102 
L 345.38226 160.117838 
L 345.69912 122.105041 
L 347.364898 136.274689 
L 348.39243 146.427637 
L 348.541807 138.991675 
L 348.587072 152.004608 
L 350.053681 142.495157 
L 351.316595 151.821834 
L 351.918628 158.050481 
L 353.005006 136.500792 
L 353.439556 143.803345 
L 354.942378 126.406088 
L 356.11476 136.07123 
L 356.24603 133.995015 
L 357.237349 163.420005 
L 357.794118 150.246773 
L 358.296567 162.632475 
L 359.206408 159.911916 
L 359.930659 153.110519 
L 360.908399 156.547015 
L 361.673389 162.274507 
L 362.420273 151.678646 
L 362.74166 165.925783 
L 364.552288 155.329923 
L 364.823882 164.49391 
L 365.987211 169.362278 
L 366.987583 157.334545 
L 367.815946 168.503154 
L 369.178444 177.953516 
L 369.689946 164.923472 
L 429.77565 164.923472 
L 430.902766 166.729456 
L 431.142674 162.499884 
L 431.468587 164.435451 
L 431.513853 163.360136 
L 432.849192 164.435451 
L 458.931294 164.435451 
L 459.687231 172.339636 
L 460.05841 162.942394 
L 460.529173 166.672597 
L 461.534072 178.150145 
L 462.217584 173.128718 
L 464.408445 185.036674 
L 464.77057 165.883516 
L 465.078377 179.656573 
L 466.549513 168.107291 
L 466.730575 171.694024 
L 467.264711 164.377087 
L 468.174552 167.963821 
L 469.387673 159.929538 
L 469.690953 160.359946 
L 469.767905 162.798925 
L 471.87276 161.520742 
L 472.071929 165.468735 
L 472.746388 165.109827 
L 480.4144 165.109827 
L 481.81311 185.431523 
L 481.944381 147.474666 
L 482.089231 141.763063 
L 482.102811 191.215425 
L 483.628265 172.345445 
L 484.252932 166.055451 
L 485.12656 168.079817 
L 485.389101 162.368214 
L 487.389846 163.091201 
L 488.082411 166.70614 
L 488.539595 165.332464 
L 489.100889 175.815786 
L 489.684817 168.658207 
L 491.097107 179.792219 
L 491.241957 179.71992 
L 492.409813 166.344646 
L 492.694987 168.585908 
L 492.84889 163.018903 
L 494.229494 163.308098 
L 549.471767 163.308098 
L 550.241284 165.54872 
L 551.006274 164.541802 
L 555.605271 164.541802 
L 557.013034 166.348705 
L 557.248416 150.269608 
L 558.678812 153.212657 
L 568.551264 153.212657 
L 568.551264 153.212657 
" clip-path="url(#p2ee7dc1077)" style="fill: none; stroke: #2e8b57; stroke-width: 1.5; stroke-linecap: square"/>
   </g>
   <g id="patch_8">
    <path d="M 53.328125 218.343988 
L 53.328125 117.522234 
" style="fill: none; stroke: #000000; stroke-width: 0.8; stroke-linejoin: miter; stroke-linecap: square"/>
   </g>
   <g id="patch_9">
    <path d="M 573.652483 218.343988 
L 573.652483 117.522234 
" style="fill: none; stroke: #000000; stroke-width: 0.8; stroke-linejoin: miter; stroke-linecap: square"/>
   </g>
   <g id="patch_10">
    <path d="M 53.328125 218.343988 
L 573.652483 218.343988 
" style="fill: none; stroke: #000000; stroke-width: 0.8; stroke-linejoin: miter; stroke-linecap: square"/>
   </g>
   <g id="patch_11">
    <path d="M 53.328125 117.522234 
L 573.652483 117.522234 
" style="fill: none; stroke: #000000; stroke-width: 0.8; stroke-linejoin: miter; stroke-linecap: square"/>
   </g>
  </g>
  <g id="axes_3">
   <g id="patch_12">
    <path d="M 53.328125 330.84327 
L 573.652483 330.84327 
L 573.652483 230.021516 
L 53.328125 230.021516 
z
" style="fill: #ffffff"/>
   </g>
   <g id="matplotlib.axis_5">
    <g id="xtick_33">
     <g id="line2d_43">
      <g>
       <use xlink:href="#mac3356afdb" x="58.429344" y="330.84327" style="stroke: #000000; stroke-width: 0.8"/>
      </g>
     </g>
     <g id="text_11">
      <!-- Sep -->
      <g transform="translate(49.004344 345.441707) scale(0.1 -0.1)">
       <defs>
        <path id="DejaVuSans-53" d="M 3425 4513 
L 3425 3897 
Q 3066 4069 2747 4153 
Q 2428 4238 2131 4238 
Q 1616 4238 1336 4038 
Q 1056 3838 1056 3469 
Q 1056 3159 1242 3001 
Q 1428 2844 1947 2747 
L 2328 2669 
Q 3034 2534 3370 2195 
Q 3706 1856 3706 1288 
Q 3706 609 3251 259 
Q 2797 -91 1919 -91 
Q 1588 -91 1214 -16 
Q 841 59 441 206 
L 441 856 
Q 825 641 1194 531 
Q 1563 422 1919 422 
Q 2459 422 2753 634 
Q 3047 847 3047 1241 
Q 3047 1584 2836 1778 
Q 2625 1972 2144 2069 
L 1759 2144 
Q 1053 2284 737 2584 
Q 422 2884 422 3419 
Q 422 4038 858 4394 
Q 1294 4750 2059 4750 
Q 2388 4750 2728 4690 
Q 3069 4631 3425 4513 
z
" transform="scale(0.015625)"/>
        <path id="DejaVuSans-70" d="M 1159 525 
L 1159 -1331 
L 581 -1331 
L 581 3500 
L 1159 3500 
L 1159 2969 
Q 1341 3281 1617 3432 
Q 1894 3584 2278 3584 
Q 2916 3584 3314 3078 
Q 3713 2572 3713 1747 
Q 3713 922 3314 415 
Q 2916 -91 2278 -91 
Q 1894 -91 1617 61 
Q 1341 213 1159 525 
z
M 3116 1747 
Q 3116 2381 2855 2742 
Q 2594 3103 2138 3103 
Q 1681 3103 1420 2742 
Q 1159 2381 1159 1747 
Q 1159 1113 1420 752 
Q 1681 391 2138 391 
Q 2594 391 2855 752 
Q 3116 1113 3116 1747 
z
" transform="scale(0.015625)"/>
       </defs>
       <use xlink:href="#DejaVuSans-53"/>
       <use xlink:href="#DejaVuSans-65" transform="translate(63.476562 0)"/>
       <use xlink:href="#DejaVuSans-70" transform="translate(125 0)"/>
      </g>
     </g>
    </g>
    <g id="xtick_34">
     <g id="line2d_44">
      <g>
       <use xlink:href="#mac3356afdb" x="92.437669" y="330.84327" style="stroke: #000000; stroke-width: 0.8"/>
      </g>
     </g>
     <g id="text_12">
      <!-- 03 -->
      <g transform="translate(86.075169 345.441707) scale(0.1 -0.1)">
       <defs>
        <path id="DejaVuSans-33" d="M 2597 2516 
Q 3050 2419 3304 2112 
Q 3559 1806 3559 1356 
Q 3559 666 3084 287 
Q 2609 -91 1734 -91 
Q 1441 -91 1130 -33 
Q 819 25 488 141 
L 488 750 
Q 750 597 1062 519 
Q 1375 441 1716 441 
Q 2309 441 2620 675 
Q 2931 909 2931 1356 
Q 2931 1769 2642 2001 
Q 2353 2234 1838 2234 
L 1294 2234 
L 1294 2753 
L 1863 2753 
Q 2328 2753 2575 2939 
Q 2822 3125 2822 3475 
Q 2822 3834 2567 4026 
Q 2313 4219 1838 4219 
Q 1578 4219 1281 4162 
Q 984 4106 628 3988 
L 628 4550 
Q 988 4650 1302 4700 
Q 1616 4750 1894 4750 
Q 2613 4750 3031 4423 
Q 3450 4097 3450 3541 
Q 3450 3153 3228 2886 
Q 3006 2619 2597 2516 
z
" transform="scale(0.015625)"/>
       </defs>
       <use xlink:href="#DejaVuSans-30"/>
       <use xlink:href="#DejaVuSans-33" transform="translate(63.623047 0)"/>
      </g>
     </g>
    </g>
    <g id="xtick_35">
     <g id="line2d_45">
      <g>
       <use xlink:href="#mac3356afdb" x="126.445994" y="330.84327" style="stroke: #000000; stroke-width: 0.8"/>
      </g>
     </g>
     <g id="text_13">
      <!-- 05 -->
      <g transform="translate(120.083494 345.441707) scale(0.1 -0.1)">
       <use xlink:href="#DejaVuSans-30"/>
       <use xlink:href="#DejaVuSans-35" transform="translate(63.623047 0)"/>
      </g>
     </g>
    </g>
    <g id="xtick_36">
     <g id="line2d_46">
      <g>
       <use xlink:href="#mac3356afdb" x="160.454319" y="330.84327" style="stroke: #000000; stroke-width: 0.8"/>
      </g>
     </g>
     <g id="text_14">
      <!-- 07 -->
      <g transform="translate(154.091819 345.441707) scale(0.1 -0.1)">
       <use xlink:href="#DejaVuSans-30"/>
       <use xlink:href="#DejaVuSans-37" transform="translate(63.623047 0)"/>
      </g>
     </g>
    </g>
    <g id="xtick_37">
     <g id="line2d_47">
      <g>
       <use xlink:href="#mac3356afdb" x="194.462643" y="330.84327" style="stroke: #000000; stroke-width: 0.8"/>
      </g>
     </g>
     <g id="text_15">
      <!-- 09 -->
      <g transform="translate(188.100143 345.441707) scale(0.1 -0.1)">
       <use xlink:href="#DejaVuSans-30"/>
       <use xlink:href="#DejaVuSans-39" transform="translate(63.623047 0)"/>
      </g>
     </g>
    </g>
    <g id="xtick_38">
     <g id="line2d_48">
      <g>
       <use xlink:href="#mac3356afdb" x="228.470968" y="330.84327" style="stroke: #000000; stroke-width: 0.8"/>
      </g>
     </g>
     <g id="text_16">
      <!-- 11 -->
      <g transform="translate(222.108468 345.441707) scale(0.1 -0.1)">
       <use xlink:href="#DejaVuSans-31"/>
       <use xlink:href="#DejaVuSans-31" transform="translate(63.623047 0)"/>
      </g>
     </g>
    </g>
    <g id="xtick_39">
     <g id="line2d_49">
      <g>
       <use xlink:href="#mac3356afdb" x="262.479293" y="330.84327" style="stroke: #000000; stroke-width: 0.8"/>
      </g>
     </g>
     <g id="text_17">
      <!-- 13 -->
      <g transform="translate(256.116793 345.441707) scale(0.1 -0.1)">
       <use xlink:href="#DejaVuSans-31"/>
       <use xlink:href="#DejaVuSans-33" transform="translate(63.623047 0)"/>
      </g>
     </g>
    </g>
    <g id="xtick_40">
     <g id="line2d_50">
      <g>
       <use xlink:href="#mac3356afdb" x="296.487618" y="330.84327" style="stroke: #000000; stroke-width: 0.8"/>
      </g>
     </g>
     <g id="text_18">
      <!-- 15 -->
      <g transform="translate(290.125118 345.441707) scale(0.1 -0.1)">
       <use xlink:href="#DejaVuSans-31"/>
       <use xlink:href="#DejaVuSans-35" transform="translate(63.623047 0)"/>
      </g>
     </g>
    </g>
    <g id="xtick_41">
     <g id="line2d_51">
      <g>
       <use xlink:href="#mac3356afdb" x="330.495942" y="330.84327" style="stroke: #000000; stroke-width: 0.8"/>
      </g>
     </g>
     <g id="text_19">
      <!-- 17 -->
      <g transform="translate(324.133442 345.441707) scale(0.1 -0.1)">
       <use xlink:href="#DejaVuSans-31"/>
       <use xlink:href="#DejaVuSans-37" transform="translate(63.623047 0)"/>
      </g>
     </g>
    </g>
    <g id="xtick_42">
     <g id="line2d_52">
      <g>
       <use xlink:href="#mac3356afdb" x="364.504267" y="330.84327" style="stroke: #000000; stroke-width: 0.8"/>
      </g>
     </g>
     <g id="text_20">
      <!-- 19 -->
      <g transform="translate(358.141767 345.441707) scale(0.1 -0.1)">
       <use xlink:href="#DejaVuSans-31"/>
       <use xlink:href="#DejaVuSans-39" transform="translate(63.623047 0)"/>
      </g>
     </g>
    </g>
    <g id="xtick_43">
     <g id="line2d_53">
      <g>
       <use xlink:href="#mac3356afdb" x="398.512592" y="330.84327" style="stroke: #000000; stroke-width: 0.8"/>
      </g>
     </g>
     <g id="text_21">
      <!-- 21 -->
      <g transform="translate(392.150092 345.441707) scale(0.1 -0.1)">
       <defs>
        <path id="DejaVuSans-32" d="M 1228 531 
L 3431 531 
L 3431 0 
L 469 0 
L 469 531 
Q 828 903 1448 1529 
Q 2069 2156 2228 2338 
Q 2531 2678 2651 2914 
Q 2772 3150 2772 3378 
Q 2772 3750 2511 3984 
Q 2250 4219 1831 4219 
Q 1534 4219 1204 4116 
Q 875 4013 500 3803 
L 500 4441 
Q 881 4594 1212 4672 
Q 1544 4750 1819 4750 
Q 2544 4750 2975 4387 
Q 3406 4025 3406 3419 
Q 3406 3131 3298 2873 
Q 3191 2616 2906 2266 
Q 2828 2175 2409 1742 
Q 1991 1309 1228 531 
z
" transform="scale(0.015625)"/>
       </defs>
       <use xlink:href="#DejaVuSans-32"/>
       <use xlink:href="#DejaVuSans-31" transform="translate(63.623047 0)"/>
      </g>
     </g>
    </g>
    <g id="xtick_44">
     <g id="line2d_54">
      <g>
       <use xlink:href="#mac3356afdb" x="432.520917" y="330.84327" style="stroke: #000000; stroke-width: 0.8"/>
      </g>
     </g>
     <g id="text_22">
      <!-- 23 -->
      <g transform="translate(426.158417 345.441707) scale(0.1 -0.1)">
       <use xlink:href="#DejaVuSans-32"/>
       <use xlink:href="#DejaVuSans-33" transform="translate(63.623047 0)"/>
      </g>
     </g>
    </g>
    <g id="xtick_45">
     <g id="line2d_55">
      <g>
       <use xlink:href="#mac3356afdb" x="466.529241" y="330.84327" style="stroke: #000000; stroke-width: 0.8"/>
      </g>
     </g>
     <g id="text_23">
      <!-- 25 -->
      <g transform="translate(460.166741 345.441707) scale(0.1 -0.1)">
       <use xlink:href="#DejaVuSans-32"/>
       <use xlink:href="#DejaVuSans-35" transform="translate(63.623047 0)"/>
      </g>
     </g>
    </g>
    <g id="xtick_46">
     <g id="line2d_56">
      <g>
       <use xlink:href="#mac3356afdb" x="500.537566" y="330.84327" style="stroke: #000000; stroke-width: 0.8"/>
      </g>
     </g>
     <g id="text_24">
      <!-- 27 -->
      <g transform="translate(494.175066 345.441707) scale(0.1 -0.1)">
       <use xlink:href="#DejaVuSans-32"/>
       <use xlink:href="#DejaVuSans-37" transform="translate(63.623047 0)"/>
      </g>
     </g>
    </g>
    <g id="xtick_47">
     <g id="line2d_57">
      <g>
       <use xlink:href="#mac3356afdb" x="534.545891" y="330.84327" style="stroke: #000000; stroke-width: 0.8"/>
      </g>
     </g>
     <g id="text_25">
      <!-- 29 -->
      <g transform="translate(528.183391 345.441707) scale(0.1 -0.1)">
       <use xlink:href="#DejaVuSans-32"/>
       <use xlink:href="#DejaVuSans-39" transform="translate(63.623047 0)"/>
      </g>
     </g>
    </g>
    <g id="xtick_48">
     <g id="line2d_58">
      <g>
       <use xlink:href="#mac3356afdb" x="568.554216" y="330.84327" style="stroke: #000000; stroke-width: 0.8"/>
      </g>
     </g>
     <g id="text_26">
      <!-- Oct -->
      <g transform="translate(559.908903 345.441707) scale(0.1 -0.1)">
       <defs>
        <path id="DejaVuSans-4f" d="M 2522 4238 
Q 1834 4238 1429 3725 
Q 1025 3213 1025 2328 
Q 1025 1447 1429 934 
Q 1834 422 2522 422 
Q 3209 422 3611 934 
Q 4013 1447 4013 2328 
Q 4013 3213 3611 3725 
Q 3209 4238 2522 4238 
z
M 2522 4750 
Q 3503 4750 4090 4092 
Q 4678 3434 4678 2328 
Q 4678 1225 4090 567 
Q 3503 -91 2522 -91 
Q 1538 -91 948 565 
Q 359 1222 359 2328 
Q 359 3434 948 4092 
Q 1538 4750 2522 4750 
z
" transform="scale(0.015625)"/>
       </defs>
       <use xlink:href="#DejaVuSans-4f"/>
       <use xlink:href="#DejaVuSans-63" transform="translate(78.710938 0)"/>
       <use xlink:href="#DejaVuSans-74" transform="translate(133.691406 0)"/>
      </g>
     </g>
    </g>
    <g id="text_27">
     <!-- Time -->
     <g transform="translate(301.25671 359.119832) scale(0.1 -0.1)">
      <defs>
       <path id="DejaVuSans-54" d="M -19 4666 
L 3928 4666 
L 3928 4134 
L 2272 4134 
L 2272 0 
L 1638 0 
L 1638 4134 
L -19 4134 
L -19 4666 
z
" transform="scale(0.015625)"/>
       <path id="DejaVuSans-6d" d="M 3328 2828 
Q 3544 3216 3844 3400 
Q 4144 3584 4550 3584 
Q 5097 3584 5394 3201 
Q 5691 2819 5691 2113 
L 5691 0 
L 5113 0 
L 5113 2094 
Q 5113 2597 4934 2840 
Q 4756 3084 4391 3084 
Q 3944 3084 3684 2787 
Q 3425 2491 3425 1978 
L 3425 0 
L 2847 0 
L 2847 2094 
Q 2847 2600 2669 2842 
Q 2491 3084 2119 3084 
Q 1678 3084 1418 2786 
Q 1159 2488 1159 1978 
L 1159 0 
L 581 0 
L 581 3500 
L 1159 3500 
L 1159 2956 
Q 1356 3278 1631 3431 
Q 1906 3584 2284 3584 
Q 2666 3584 2933 3390 
Q 3200 3197 3328 2828 
z
" transform="scale(0.015625)"/>
      </defs>
      <use xlink:href="#DejaVuSans-54"/>
      <use xlink:href="#DejaVuSans-69" transform="translate(57.958984 0)"/>
      <use xlink:href="#DejaVuSans-6d" transform="translate(85.742188 0)"/>
      <use xlink:href="#DejaVuSans-65" transform="translate(183.154297 0)"/>
     </g>
    </g>
    <g id="text_28">
     <!-- 2025-Oct -->
     <g transform="translate(527.029045 358.119832) scale(0.1 -0.1)">
      <defs>
       <path id="DejaVuSans-2d" d="M 313 2009 
L 1997 2009 
L 1997 1497 
L 313 1497 
L 313 2009 
z
" transform="scale(0.015625)"/>
      </defs>
      <use xlink:href="#DejaVuSans-32"/>
      <use xlink:href="#DejaVuSans-30" transform="translate(63.623047 0)"/>
      <use xlink:href="#DejaVuSans-32" transform="translate(127.246094 0)"/>
      <use xlink:href="#DejaVuSans-35" transform="translate(190.869141 0)"/>
      <use xlink:href="#DejaVuSans-2d" transform="translate(254.492188 0)"/>
      <use xlink:href="#DejaVuSans-4f" transform="translate(293.326172 0)"/>
      <use xlink:href="#DejaVuSans-63" transform="translate(372.037109 0)"/>
      <use xlink:href="#DejaVuSans-74" transform="translate(427.017578 0)"/>
     </g>
    </g>
   </g>
   <g id="matplotlib.axis_6">
    <g id="ytick_9">
     <g id="line2d_59">
      <g>
       <use xlink:href="#m5513a10ac9" x="53.328125" y="329.562863" style="stroke: #000000; stroke-width: 0.8"/>
      </g>
     </g>
     <g id="text_29">
      <!-- 1.5 -->
      <g transform="translate(22.045313 333.362082) scale(0.1 -0.1)">
       <defs>
        <path id="DejaVuSans-2212" d="M 678 2272 
L 4684 2272 
L 4684 1741 
L 678 1741 
L 678 2272 
z
" transform="scale(0.015625)"/>
       </defs>
       <use xlink:href="#DejaVuSans-2212"/>
       <use xlink:href="#DejaVuSans-31" transform="translate(83.789062 0)"/>
       <use xlink:href="#DejaVuSans-2e" transform="translate(147.412109 0)"/>
       <use xlink:href="#DejaVuSans-35" transform="translate(179.199219 0)"/>
      </g>
     </g>
    </g>
    <g id="ytick_10">
     <g id="line2d_60">
      <g>
       <use xlink:href="#m5513a10ac9" x="53.328125" y="297.910017" style="stroke: #000000; stroke-width: 0.8"/>
      </g>
     </g>
     <g id="text_30">
      <!-- 1.0 -->
      <g transform="translate(22.045313 301.709235) scale(0.1 -0.1)">
       <use xlink:href="#DejaVuSans-2212"/>
       <use xlink:href="#DejaVuSans-31" transform="translate(83.789062 0)"/>
       <use xlink:href="#DejaVuSans-2e" transform="translate(147.412109 0)"/>
       <use xlink:href="#DejaVuSans-30" transform="translate(179.199219 0)"/>
      </g>
     </g>
    </g>
    <g id="ytick_11">
     <g id="line2d_61">
      <g>
       <use xlink:href="#m5513a10ac9" x="53.328125" y="266.25717" style="stroke: #000000; stroke-width: 0.8"/>
      </g>
     </g>
     <g id="text_31">
      <!-- 0.5 -->
      <g transform="translate(22.045313 270.056389) scale(0.1 -0.1)">
       <use xlink:href="#DejaVuSans-2212"/>
       <use xlink:href="#DejaVuSans-30" transform="translate(83.789062 0)"/>
       <use xlink:href="#DejaVuSans-2e" transform="translate(147.412109 0)"/>
       <use xlink:href="#DejaVuSans-35" transform="translate(179.199219 0)"/>
      </g>
     </g>
    </g>
    <g id="ytick_12">
     <g id="line2d_62">
      <g>
       <use xlink:href="#m5513a10ac9" x="53.328125" y="234.604323" style="stroke: #000000; stroke-width: 0.8"/>
      </g>
     </g>
     <g id="text_32">
      <!-- 0.0 -->
      <g transform="translate(30.425 238.403542) scale(0.1 -0.1)">
       <use xlink:href="#DejaVuSans-30"/>
       <use xlink:href="#DejaVuSans-2e" transform="translate(63.623047 0)"/>
       <use xlink:href="#DejaVuSans-30" transform="translate(95.410156 0)"/>
      </g>
     </g>
    </g>
    <g id="text_33">
     <!-- Drawdown, % -->
     <g transform="translate(14.798438 314.911299) rotate(-90) scale(0.1 -0.1)">
      <defs>
       <path id="DejaVuSans-44" d="M 1259 4147 
L 1259 519 
L 2022 519 
Q 2988 519 3436 956 
Q 3884 1394 3884 2338 
Q 3884 3275 3436 3711 
Q 2988 4147 2022 4147 
L 1259 4147 
z
M 628 4666 
L 1925 4666 
Q 3281 4666 3915 4102 
Q 4550 3538 4550 2338 
Q 4550 1131 3912 565 
Q 3275 0 1925 0 
L 628 0 
L 628 4666 
z
" transform="scale(0.015625)"/>
       <path id="DejaVuSans-61" d="M 2194 1759 
Q 1497 1759 1228 1600 
Q 959 1441 959 1056 
Q 959 750 1161 570 
Q 1363 391 1709 391 
Q 2188 391 2477 730 
Q 2766 1069 2766 1631 
L 2766 1759 
L 2194 1759 
z
M 3341 1997 
L 3341 0 
L 2766 0 
L 2766 531 
Q 2569 213 2275 61 
Q 1981 -91 1556 -91 
Q 1019 -91 701 211 
Q 384 513 384 1019 
Q 384 1609 779 1909 
Q 1175 2209 1959 2209 
L 2766 2209 
L 2766 2266 
Q 2766 2663 2505 2880 
Q 2244 3097 1772 3097 
Q 1472 3097 1187 3025 
Q 903 2953 641 2809 
L 641 3341 
Q 956 3463 1253 3523 
Q 1550 3584 1831 3584 
Q 2591 3584 2966 3190 
Q 3341 2797 3341 1997 
z
" transform="scale(0.015625)"/>
       <path id="DejaVuSans-77" d="M 269 3500 
L 844 3500 
L 1563 769 
L 2278 3500 
L 2956 3500 
L 3675 769 
L 4391 3500 
L 4966 3500 
L 4050 0 
L 3372 0 
L 2619 2869 
L 1863 0 
L 1184 0 
L 269 3500 
z
" transform="scale(0.015625)"/>
       <path id="DejaVuSans-64" d="M 2906 2969 
L 2906 4863 
L 3481 4863 
L 3481 0 
L 2906 0 
L 2906 525 
Q 2725 213 2448 61 
Q 2172 -91 1784 -91 
Q 1150 -91 751 415 
Q 353 922 353 1747 
Q 353 2572 751 3078 
Q 1150 3584 1784 3584 
Q 2172 3584 2448 3432 
Q 2725 3281 2906 2969 
z
M 947 1747 
Q 947 1113 1208 752 
Q 1469 391 1925 391 
Q 2381 391 2643 752 
Q 2906 1113 2906 1747 
Q 2906 2381 2643 2742 
Q 2381 3103 1925 3103 
Q 1469 3103 1208 2742 
Q 947 2381 947 1747 
z
" transform="scale(0.015625)"/>
       <path id="DejaVuSans-6f" d="M 1959 3097 
Q 1497 3097 1228 2736 
Q 959 2375 959 1747 
Q 959 1119 1226 758 
Q 1494 397 1959 397 
Q 2419 397 2687 759 
Q 2956 1122 2956 1747 
Q 2956 2369 2687 2733 
Q 2419 3097 1959 3097 
z
M 1959 3584 
Q 2709 3584 3137 3096 
Q 3566 2609 3566 1747 
Q 3566 888 3137 398 
Q 2709 -91 1959 -91 
Q 1206 -91 779 398 
Q 353 888 353 1747 
Q 353 2609 779 3096 
Q 1206 3584 1959 3584 
z
" transform="scale(0.015625)"/>
       <path id="DejaVuSans-6e" d="M 3513 2113 
L 3513 0 
L 2938 0 
L 2938 2094 
Q 2938 2591 2744 2837 
Q 2550 3084 2163 3084 
Q 1697 3084 1428 2787 
Q 1159 2491 1159 1978 
L 1159 0 
L 581 0 
L 581 3500 
L 1159 3500 
L 1159 2956 
Q 1366 3272 1645 3428 
Q 1925 3584 2291 3584 
Q 2894 3584 3203 3211 
Q 3513 2838 3513 2113 
z
" transform="scale(0.015625)"/>
       <path id="DejaVuSans-2c" d="M 750 794 
L 1409 794 
L 1409 256 
L 897 -744 
L 494 -744 
L 750 256 
L 750 794 
z
" transform="scale(0.015625)"/>
       <path id="DejaVuSans-20" transform="scale(0.015625)"/>
       <path id="DejaVuSans-25" d="M 4653 2053 
Q 4381 2053 4226 1822 
Q 4072 1591 4072 1178 
Q 4072 772 4226 539 
Q 4381 306 4653 306 
Q 4919 306 5073 539 
Q 5228 772 5228 1178 
Q 5228 1588 5073 1820 
Q 4919 2053 4653 2053 
z
M 4653 2450 
Q 5147 2450 5437 2106 
Q 5728 1763 5728 1178 
Q 5728 594 5436 251 
Q 5144 -91 4653 -91 
Q 4153 -91 3862 251 
Q 3572 594 3572 1178 
Q 3572 1766 3864 2108 
Q 4156 2450 4653 2450 
z
M 1428 4353 
Q 1159 4353 1004 4120 
Q 850 3888 850 3481 
Q 850 3069 1003 2837 
Q 1156 2606 1428 2606 
Q 1700 2606 1854 2837 
Q 2009 3069 2009 3481 
Q 2009 3884 1853 4118 
Q 1697 4353 1428 4353 
z
M 4250 4750 
L 4750 4750 
L 1831 -91 
L 1331 -91 
L 4250 4750 
z
M 1428 4750 
Q 1922 4750 2215 4408 
Q 2509 4066 2509 3481 
Q 2509 2891 2217 2550 
Q 1925 2209 1428 2209 
Q 931 2209 642 2551 
Q 353 2894 353 3481 
Q 353 4063 643 4406 
Q 934 4750 1428 4750 
z
" transform="scale(0.015625)"/>
      </defs>
      <use xlink:href="#DejaVuSans-44"/>
      <use xlink:href="#DejaVuSans-72" transform="translate(77.001953 0)"/>
      <use xlink:href="#DejaVuSans-61" transform="translate(118.115234 0)"/>
      <use xlink:href="#DejaVuSans-77" transform="translate(179.394531 0)"/>
      <use xlink:href="#DejaVuSans-64" transform="translate(261.181641 0)"/>
      <use xlink:href="#DejaVuSans-6f" transform="translate(324.658203 0)"/>
      <use xlink:href="#DejaVuSans-77" transform="translate(385.839844 0)"/>
      <use xlink:href="#DejaVuSans-6e" transform="translate(467.626953 0)"/>
      <use xlink:href="#DejaVuSans-2c" transform="translate(531.005859 0)"/>
      <use xlink:href="#DejaVuSans-20" transform="translate(562.792969 0)"/>
      <use xlink:href="#DejaVuSans-25" transform="translate(594.580078 0)"/>
     </g>
    </g>
   </g>
   <g id="line2d_63">
    <path d="M 58.429344 234.604323 
L 81.446958 234.604323 
L 82.782296 241.889374 
L 83.271166 234.604323 
L 84.656297 263.064152 
L 85.353389 234.604323 
L 86.068587 235.864899 
L 86.53935 246.434343 
L 87.770577 237.222442 
L 88.748317 247.113114 
L 90.504626 234.604323 
L 90.572525 244.501499 
L 90.893911 243.337126 
L 91.283197 237.224164 
L 92.441999 239.164787 
L 92.84939 246.053998 
L 93.723018 244.113375 
L 118.270613 244.113375 
L 119.710062 242.075405 
L 119.777961 248.289438 
L 119.96355 248.677815 
L 120.660642 238.482917 
L 122.177044 241.687028 
L 122.64328 235.278806 
L 123.028039 234.604323 
L 124.327165 299.575592 
L 125.04689 278.611379 
L 126.097054 281.116976 
L 126.486339 274.660245 
L 127.482185 276.780366 
L 136.684704 276.780366 
L 137.196206 278.804332 
L 137.499487 265.958259 
L 138.314269 266.544726 
L 139.803511 281.509662 
L 140.183743 276.425421 
L 141.292753 278.63179 
L 191.926976 278.63179 
L 193.035986 281.128363 
L 193.144624 273.690025 
L 193.610861 275.978744 
L 194.068044 271.973485 
L 195.724769 274.09049 
L 196.005417 263.402759 
L 196.535026 264.452447 
L 208.80656 264.452447 
L 210.155478 265.425239 
L 210.187164 263.607364 
L 210.390859 265.329562 
L 210.69414 261.885167 
L 211.880101 265.138206 
L 216.479097 265.138206 
L 217.556421 268.974033 
L 218.07245 259.813121 
L 218.081504 261.149087 
L 219.552639 260.290251 
L 225.686143 260.290251 
L 227.007902 261.93144 
L 227.179911 257.261718 
L 227.256863 258.405323 
L 227.523931 255.355709 
L 229.343612 255.090494 
L 229.416037 257.093124 
L 230.828328 259.498701 
L 230.941492 255.684169 
L 231.8287 256.828529 
L 234.893188 256.828529 
L 235.323213 260.85851 
L 235.581227 254.269766 
L 236.432222 255.129167 
L 237.962203 255.129167 
L 238.12516 256.39038 
L 238.591397 234.604323 
L 239.578189 234.604323 
L 240.854682 241.251031 
L 241.126277 241.345984 
L 242.606465 234.604323 
L 244.050441 236.723986 
L 244.403514 234.984142 
L 244.466886 237.547923 
L 245.639268 236.218555 
L 302.411521 236.218555 
L 303.461686 242.139834 
L 303.89171 234.604323 
L 304.244783 241.634275 
L 305.009773 234.604323 
L 305.485063 236.218029 
L 311.618567 236.218029 
L 312.093857 234.604323 
L 312.216074 242.093354 
L 313.157601 240.766184 
L 330.037184 240.766184 
L 331.567165 244.395453 
L 331.612431 247.612202 
L 331.888552 241.273314 
L 333.106199 243.733181 
L 343.843226 243.733181 
L 343.95639 234.604323 
L 344.943183 255.937059 
L 345.38226 283.98371 
L 345.69912 234.604323 
L 347.364898 253.39651 
L 348.39243 266.861636 
L 348.541807 256.999853 
L 348.587072 274.257972 
L 350.053681 261.64627 
L 351.316595 274.015572 
L 351.918628 282.27618 
L 353.005006 253.696375 
L 353.439556 263.381226 
L 354.942378 240.308493 
L 356.11476 253.126678 
L 356.24603 250.373142 
L 357.237349 289.397393 
L 357.794118 271.926682 
L 358.296567 288.352949 
L 359.206408 284.744867 
L 359.930659 275.724663 
L 360.908399 280.28224 
L 361.673389 287.878201 
L 362.420273 273.825672 
L 362.74166 292.720627 
L 364.552288 278.668098 
L 364.823882 290.821636 
L 365.987211 297.278203 
L 366.987583 281.326684 
L 367.815946 296.138809 
L 369.178444 308.672146 
L 369.689946 291.391333 
L 429.77565 291.391333 
L 430.902766 293.786481 
L 431.142674 288.177103 
L 431.468587 290.744106 
L 431.513853 289.317993 
L 432.849192 290.744106 
L 458.931294 290.744106 
L 459.687231 301.22686 
L 460.05841 288.763972 
L 460.529173 293.711073 
L 461.534072 308.93292 
L 462.217584 302.273362 
L 464.408445 318.066029 
L 464.77057 292.664571 
L 465.078377 310.930788 
L 466.549513 295.613804 
L 466.730575 300.370631 
L 467.264711 290.666703 
L 468.174552 295.423531 
L 469.387673 284.768237 
L 469.690953 285.339056 
L 469.767905 288.573699 
L 471.87276 286.878538 
L 472.071929 292.114477 
L 472.746388 291.638482 
L 480.4144 291.638482 
L 481.81311 318.589689 
L 481.944381 268.250235 
L 482.089231 260.675346 
L 482.102811 326.260463 
L 483.628265 301.234563 
L 484.252932 292.892596 
L 485.12656 295.577367 
L 485.389101 288.002478 
L 487.389846 288.961325 
L 488.082411 293.755559 
L 488.539595 291.93375 
L 489.100889 305.837027 
L 489.684817 296.344445 
L 491.097107 311.110685 
L 491.241957 311.0148 
L 492.409813 293.276135 
L 492.694987 296.24856 
L 492.84889 288.86544 
L 494.229494 289.248979 
L 549.471767 289.248979 
L 550.241284 292.220556 
L 551.006274 290.885153 
L 555.605271 290.885153 
L 557.013034 293.281518 
L 557.248416 271.956966 
L 558.678812 275.860121 
L 568.551264 275.860121 
L 568.551264 275.860121 
" clip-path="url(#pdc440b4071)" style="fill: none; stroke: #7a738c; stroke-width: 1.5; stroke-linecap: square"/>
   </g>
   <g id="patch_13">
    <path d="M 53.328125 330.84327 
L 53.328125 230.021516 
" style="fill: none; stroke: #000000; stroke-width: 0.8; stroke-linejoin: miter; stroke-linecap: square"/>
   </g>
   <g id="patch_14">
    <path d="M 573.652483 330.84327 
L 573.652483 230.021516 
" style="fill: none; stroke: #000000; stroke-width: 0.8; stroke-linejoin: miter; stroke-linecap: square"/>
   </g>
   <g id="patch_15">
    <path d="M 53.328125 330.84327 
L 573.652483 330.84327 
" style="fill: none; stroke: #000000; stroke-width: 0.8; stroke-linejoin: miter; stroke-linecap: square"/>
   </g>
   <g id="patch_16">
    <path d="M 53.328125 230.021516 
L 573.652483 230.021516 
" style="fill: none; stroke: #000000; stroke-width: 0.8; stroke-linejoin: miter; stroke-linecap: square"/>
   </g>
  </g>
 </g>
 <defs>
  <clipPath id="p30e8164c53">
   <rect x="53.328125" y="7.2" width="520.324358" height="100.821754"/>
  </clipPath>
  <clipPath id="p2ee7dc1077">
   <rect x="53.328125" y="117.522234" width="520.324358" height="100.821754"/>
  </clipPath>
  <clipPath id="pdc440b4071">
   <rect x="53.328125" y="230.021516" width="520.324358" height="100.821754"/>
  </clipPath>
 </defs>
</svg>
