<?xml version="1.0" encoding="utf-8" standalone="no"?>
<!DOCTYPE svg PUBLIC "-//W3C//DTD SVG 1.1//EN"
  "http://www.w3.org/Graphics/SVG/1.1/DTD/svg11.dtd">
<svg xmlns:xlink="http://www.w3.org/1999/xlink"   viewBox="0 0 584.399528 368.39952" xmlns="http://www.w3.org/2000/svg" version="1.1" preserveAspectRatio="xMidYMid meet" style="width:100%;height:auto;aspect-ratio:8 / 5;display:block;">
 <metadata>
  <rdf:RDF xmlns:dc="http://purl.org/dc/elements/1.1/" xmlns:cc="http://creativecommons.org/ns#" xmlns:rdf="http://www.w3.org/1999/02/22-rdf-syntax-ns#">
   <cc:Work>
    <dc:type rdf:resource="http://purl.org/dc/dcmitype/StillImage"/>
    <dc:date>2025-10-22T13:50:09.832681</dc:date>
    <dc:format>image/svg+xml</dc:format>
    <dc:creator>
     <cc:Agent>
      <dc:title>Matplotlib v3.10.6, https://matplotlib.org/</dc:title>
     </cc:Agent>
    </dc:creator>
   </cc:Work>
  </rdf:RDF>
 </metadata>
 <defs>
  <style type="text/css">*{stroke-linejoin: round; stroke-linecap: butt}</style>
 </defs>
 <g id="figure_1">
  <g id="patch_1">
   <path d="M 0 368.39952 
L 584.399528 368.39952 
L 584.399528 0 
L 0 0 
z
" style="fill: #ffffff"/>
  </g>
  <g id="axes_1">
   <g id="patch_2">
    <path d="M 53.328125 108.589313 
L 573.652483 108.589313 
L 573.652483 7.2 
L 53.328125 7.2 
z
" style="fill: #ffffff"/>
   </g>
   <g id="matplotlib.axis_1">
    <g id="xtick_1">
     <g id="line2d_1">
      <defs>
       <path id="m30e124ae1f" d="M 0 0 
L 0 3.5 
" style="stroke: #000000; stroke-width: 0.8"/>
      </defs>
      <g>
       <use xlink:href="#m30e124ae1f" x="58.429344" y="108.589313" style="stroke: #000000; stroke-width: 0.8"/>
      </g>
     </g>
    </g>
    <g id="xtick_2">
     <g id="line2d_2">
      <g>
       <use xlink:href="#m30e124ae1f" x="92.437669" y="108.589313" style="stroke: #000000; stroke-width: 0.8"/>
      </g>
     </g>
    </g>
    <g id="xtick_3">
     <g id="line2d_3">
      <g>
       <use xlink:href="#m30e124ae1f" x="126.445994" y="108.589313" style="stroke: #000000; stroke-width: 0.8"/>
      </g>
     </g>
    </g>
    <g id="xtick_4">
     <g id="line2d_4">
      <g>
       <use xlink:href="#m30e124ae1f" x="160.454319" y="108.589313" style="stroke: #000000; stroke-width: 0.8"/>
      </g>
     </g>
    </g>
    <g id="xtick_5">
     <g id="line2d_5">
      <g>
       <use xlink:href="#m30e124ae1f" x="194.462643" y="108.589313" style="stroke: #000000; stroke-width: 0.8"/>
      </g>
     </g>
    </g>
    <g id="xtick_6">
     <g id="line2d_6">
      <g>
       <use xlink:href="#m30e124ae1f" x="228.470968" y="108.589313" style="stroke: #000000; stroke-width: 0.8"/>
      </g>
     </g>
    </g>
    <g id="xtick_7">
     <g id="line2d_7">
      <g>
       <use xlink:href="#m30e124ae1f" x="262.479293" y="108.589313" style="stroke: #000000; stroke-width: 0.8"/>
      </g>
     </g>
    </g>
    <g id="xtick_8">
     <g id="line2d_8">
      <g>
       <use xlink:href="#m30e124ae1f" x="296.487618" y="108.589313" style="stroke: #000000; stroke-width: 0.8"/>
      </g>
     </g>
    </g>
    <g id="xtick_9">
     <g id="line2d_9">
      <g>
       <use xlink:href="#m30e124ae1f" x="330.495942" y="108.589313" style="stroke: #000000; stroke-width: 0.8"/>
      </g>
     </g>
    </g>
    <g id="xtick_10">
     <g id="line2d_10">
      <g>
       <use xlink:href="#m30e124ae1f" x="364.504267" y="108.589313" style="stroke: #000000; stroke-width: 0.8"/>
      </g>
     </g>
    </g>
    <g id="xtick_11">
     <g id="line2d_11">
      <g>
       <use xlink:href="#m30e124ae1f" x="398.512592" y="108.589313" style="stroke: #000000; stroke-width: 0.8"/>
      </g>
     </g>
    </g>
    <g id="xtick_12">
     <g id="line2d_12">
      <g>
       <use xlink:href="#m30e124ae1f" x="432.520917" y="108.589313" style="stroke: #000000; stroke-width: 0.8"/>
      </g>
     </g>
    </g>
    <g id="xtick_13">
     <g id="line2d_13">
      <g>
       <use xlink:href="#m30e124ae1f" x="466.529241" y="108.589313" style="stroke: #000000; stroke-width: 0.8"/>
      </g>
     </g>
    </g>
    <g id="xtick_14">
     <g id="line2d_14">
      <g>
       <use xlink:href="#m30e124ae1f" x="500.537566" y="108.589313" style="stroke: #000000; stroke-width: 0.8"/>
      </g>
     </g>
    </g>
    <g id="xtick_15">
     <g id="line2d_15">
      <g>
       <use xlink:href="#m30e124ae1f" x="534.545891" y="108.589313" style="stroke: #000000; stroke-width: 0.8"/>
      </g>
     </g>
    </g>
    <g id="xtick_16">
     <g id="line2d_16">
      <g>
       <use xlink:href="#m30e124ae1f" x="568.554216" y="108.589313" style="stroke: #000000; stroke-width: 0.8"/>
      </g>
     </g>
    </g>
   </g>
   <g id="matplotlib.axis_2">
    <g id="ytick_1">
     <g id="line2d_17">
      <defs>
       <path id="m5df2493a0c" d="M 0 0 
L -3.5 0 
" style="stroke: #000000; stroke-width: 0.8"/>
      </defs>
      <g>
       <use xlink:href="#m5df2493a0c" x="53.328125" y="94.675256" style="stroke: #000000; stroke-width: 0.8"/>
      </g>
     </g>
     <g id="text_1">
      <!-- 0.65 -->
      <g transform="translate(24.0625 98.474475) scale(0.1 -0.1)">
       <defs>
        <path id="DejaVuSans-30" d="M 2034 4250 
Q 1547 4250 1301 3770 
Q 1056 3291 1056 2328 
Q 1056 1369 1301 889 
Q 1547 409 2034 409 
Q 2525 409 2770 889 
Q 3016 1369 3016 2328 
Q 3016 3291 2770 3770 
Q 2525 4250 2034 4250 
z
M 2034 4750 
Q 2819 4750 3233 4129 
Q 3647 3509 3647 2328 
Q 3647 1150 3233 529 
Q 2819 -91 2034 -91 
Q 1250 -91 836 529 
Q 422 1150 422 2328 
Q 422 3509 836 4129 
Q 1250 4750 2034 4750 
z
" transform="scale(0.015625)"/>
        <path id="DejaVuSans-2e" d="M 684 794 
L 1344 794 
L 1344 0 
L 684 0 
L 684 794 
z
" transform="scale(0.015625)"/>
        <path id="DejaVuSans-36" d="M 2113 2584 
Q 1688 2584 1439 2293 
Q 1191 2003 1191 1497 
Q 1191 994 1439 701 
Q 1688 409 2113 409 
Q 2538 409 2786 701 
Q 3034 994 3034 1497 
Q 3034 2003 2786 2293 
Q 2538 2584 2113 2584 
z
M 3366 4563 
L 3366 3988 
Q 3128 4100 2886 4159 
Q 2644 4219 2406 4219 
Q 1781 4219 1451 3797 
Q 1122 3375 1075 2522 
Q 1259 2794 1537 2939 
Q 1816 3084 2150 3084 
Q 2853 3084 3261 2657 
Q 3669 2231 3669 1497 
Q 3669 778 3244 343 
Q 2819 -91 2113 -91 
Q 1303 -91 875 529 
Q 447 1150 447 2328 
Q 447 3434 972 4092 
Q 1497 4750 2381 4750 
Q 2619 4750 2861 4703 
Q 3103 4656 3366 4563 
z
" transform="scale(0.015625)"/>
        <path id="DejaVuSans-35" d="M 691 4666 
L 3169 4666 
L 3169 4134 
L 1269 4134 
L 1269 2991 
Q 1406 3038 1543 3061 
Q 1681 3084 1819 3084 
Q 2600 3084 3056 2656 
Q 3513 2228 3513 1497 
Q 3513 744 3044 326 
Q 2575 -91 1722 -91 
Q 1428 -91 1123 -41 
Q 819 9 494 109 
L 494 744 
Q 775 591 1075 516 
Q 1375 441 1709 441 
Q 2250 441 2565 725 
Q 2881 1009 2881 1497 
Q 2881 1984 2565 2268 
Q 2250 2553 1709 2553 
Q 1456 2553 1204 2497 
Q 953 2441 691 2322 
L 691 4666 
z
" transform="scale(0.015625)"/>
       </defs>
       <use xlink:href="#DejaVuSans-30"/>
       <use xlink:href="#DejaVuSans-2e" transform="translate(63.623047 0)"/>
       <use xlink:href="#DejaVuSans-36" transform="translate(95.410156 0)"/>
       <use xlink:href="#DejaVuSans-35" transform="translate(159.033203 0)"/>
      </g>
     </g>
    </g>
    <g id="ytick_2">
     <g id="line2d_18">
      <g>
       <use xlink:href="#m5df2493a0c" x="53.328125" y="54.565551" style="stroke: #000000; stroke-width: 0.8"/>
      </g>
     </g>
     <g id="text_2">
      <!-- 0.66 -->
      <g transform="translate(24.0625 58.36477) scale(0.1 -0.1)">
       <use xlink:href="#DejaVuSans-30"/>
       <use xlink:href="#DejaVuSans-2e" transform="translate(63.623047 0)"/>
       <use xlink:href="#DejaVuSans-36" transform="translate(95.410156 0)"/>
       <use xlink:href="#DejaVuSans-36" transform="translate(159.033203 0)"/>
      </g>
     </g>
    </g>
    <g id="ytick_3">
     <g id="line2d_19">
      <g>
       <use xlink:href="#m5df2493a0c" x="53.328125" y="14.455846" style="stroke: #000000; stroke-width: 0.8"/>
      </g>
     </g>
     <g id="text_3">
      <!-- 0.67 -->
      <g transform="translate(24.0625 18.255064) scale(0.1 -0.1)">
       <defs>
        <path id="DejaVuSans-37" d="M 525 4666 
L 3525 4666 
L 3525 4397 
L 1831 0 
L 1172 0 
L 2766 4134 
L 525 4134 
L 525 4666 
z
" transform="scale(0.015625)"/>
       </defs>
       <use xlink:href="#DejaVuSans-30"/>
       <use xlink:href="#DejaVuSans-2e" transform="translate(63.623047 0)"/>
       <use xlink:href="#DejaVuSans-36" transform="translate(95.410156 0)"/>
       <use xlink:href="#DejaVuSans-37" transform="translate(159.033203 0)"/>
      </g>
     </g>
    </g>
    <g id="text_4">
     <!-- Price -->
     <g transform="translate(14.798438 70.092313) rotate(-90) scale(0.1 -0.1)">
      <defs>
       <path id="DejaVuSans-50" d="M 1259 4147 
L 1259 2394 
L 2053 2394 
Q 2494 2394 2734 2622 
Q 2975 2850 2975 3272 
Q 2975 3691 2734 3919 
Q 2494 4147 2053 4147 
L 1259 4147 
z
M 628 4666 
L 2053 4666 
Q 2838 4666 3239 4311 
Q 3641 3956 3641 3272 
Q 3641 2581 3239 2228 
Q 2838 1875 2053 1875 
L 1259 1875 
L 1259 0 
L 628 0 
L 628 4666 
z
" transform="scale(0.015625)"/>
       <path id="DejaVuSans-72" d="M 2631 2963 
Q 2534 3019 2420 3045 
Q 2306 3072 2169 3072 
Q 1681 3072 1420 2755 
Q 1159 2438 1159 1844 
L 1159 0 
L 581 0 
L 581 3500 
L 1159 3500 
L 1159 2956 
Q 1341 3275 1631 3429 
Q 1922 3584 2338 3584 
Q 2397 3584 2469 3576 
Q 2541 3569 2628 3553 
L 2631 2963 
z
" transform="scale(0.015625)"/>
       <path id="DejaVuSans-69" d="M 603 3500 
L 1178 3500 
L 1178 0 
L 603 0 
L 603 3500 
z
M 603 4863 
L 1178 4863 
L 1178 4134 
L 603 4134 
L 603 4863 
z
" transform="scale(0.015625)"/>
       <path id="DejaVuSans-63" d="M 3122 3366 
L 3122 2828 
Q 2878 2963 2633 3030 
Q 2388 3097 2138 3097 
Q 1578 3097 1268 2742 
Q 959 2388 959 1747 
Q 959 1106 1268 751 
Q 1578 397 2138 397 
Q 2388 397 2633 464 
Q 2878 531 3122 666 
L 3122 134 
Q 2881 22 2623 -34 
Q 2366 -91 2075 -91 
Q 1284 -91 818 406 
Q 353 903 353 1747 
Q 353 2603 823 3093 
Q 1294 3584 2113 3584 
Q 2378 3584 2631 3529 
Q 2884 3475 3122 3366 
z
" transform="scale(0.015625)"/>
       <path id="DejaVuSans-65" d="M 3597 1894 
L 3597 1613 
L 953 1613 
Q 991 1019 1311 708 
Q 1631 397 2203 397 
Q 2534 397 2845 478 
Q 3156 559 3463 722 
L 3463 178 
Q 3153 47 2828 -22 
Q 2503 -91 2169 -91 
Q 1331 -91 842 396 
Q 353 884 353 1716 
Q 353 2575 817 3079 
Q 1281 3584 2069 3584 
Q 2775 3584 3186 3129 
Q 3597 2675 3597 1894 
z
M 3022 2063 
Q 3016 2534 2758 2815 
Q 2500 3097 2075 3097 
Q 1594 3097 1305 2825 
Q 1016 2553 972 2059 
L 3022 2063 
z
" transform="scale(0.015625)"/>
      </defs>
      <use xlink:href="#DejaVuSans-50"/>
      <use xlink:href="#DejaVuSans-72" transform="translate(58.552734 0)"/>
      <use xlink:href="#DejaVuSans-69" transform="translate(99.666016 0)"/>
      <use xlink:href="#DejaVuSans-63" transform="translate(127.449219 0)"/>
      <use xlink:href="#DejaVuSans-65" transform="translate(182.429688 0)"/>
     </g>
    </g>
   </g>
   <g id="line2d_20">
    <path d="M 58.429344 76.826437 
L 59.013272 75.0215 
L 59.57004 80.596749 
L 60.095122 78.912142 
L 60.805794 74.941281 
L 62.453466 75.743475 
L 62.919703 78.711593 
L 63.598688 80.55664 
L 64.562848 73.65777 
L 64.585481 73.938538 
L 65.613012 70.489104 
L 66.273892 71.371517 
L 67.301423 75.181939 
L 67.654496 74.500074 
L 68.840458 71.251188 
L 69.19353 72.253931 
L 69.9721 75.0215 
L 70.850255 74.379745 
L 71.09469 72.855576 
L 73.31271 81.278614 
L 73.317236 68.20285 
L 73.815159 74.620403 
L 73.846845 71.652285 
L 75.449251 71.251188 
L 76.820802 76.345121 
L 76.843435 75.783585 
L 78.310044 79.634116 
L 79.328523 80.636859 
L 79.867184 78.551154 
L 80.469218 77.147315 
L 81.030513 94.274159 
L 81.659707 87.094522 
L 82.148576 92.830209 
L 83.271166 89.140117 
L 84.656297 100.89226 
L 85.837732 84.687939 
L 86.068587 85.209365 
L 86.53935 89.581323 
L 87.770577 85.770901 
L 88.748317 89.862091 
L 90.31451 99.849408 
L 90.373356 79.032471 
L 90.893911 88.578581 
L 91.283197 86.051669 
L 92.84939 89.701652 
L 93.587221 84.5275 
L 93.81355 84.64783 
L 94.985932 87.896716 
L 96.072309 85.650572 
L 96.565705 91.306041 
L 97.652082 93.832952 
L 98.312961 83.083551 
L 98.548343 85.97145 
L 99.775044 80.55664 
L 100.055691 84.64783 
L 101.114909 78.711593 
L 101.481561 82.441796 
L 102.563412 74.981391 
L 102.94817 78.511045 
L 104.686373 72.775357 
L 105.197876 77.548412 
L 107.325364 74.500074 
L 107.329891 83.16377 
L 107.796128 79.473678 
L 108.022456 75.06161 
L 109.226524 78.150057 
L 110.068466 74.660513 
L 110.602602 77.026986 
L 112.123529 81.759931 
L 112.286486 80.55664 
L 113.028844 85.369804 
L 114.305337 83.604977 
L 114.423028 86.171998 
L 115.817211 83.404429 
L 116.437352 87.736277 
L 116.962434 85.770901 
L 117.867748 88.69891 
L 119.148768 84.006074 
L 119.777961 93.792842 
L 119.96355 93.953281 
L 120.660642 89.741762 
L 122.177044 91.065382 
L 122.64328 88.418142 
L 124.322638 77.026986 
L 124.327165 103.980707 
L 124.422223 84.687939 
L 126.097054 87.495619 
L 127.156272 83.24399 
L 127.622509 84.367062 
L 127.821678 82.161028 
L 129.908427 84.046184 
L 130.533094 81.037956 
L 130.940485 82.321467 
L 132.330142 75.703365 
L 133.280722 77.909399 
L 134.892182 78.511045 
L 135.123037 75.462707 
L 135.272414 77.949509 
L 136.358791 59.057838 
L 136.829554 73.938538 
L 137.965723 66.478133 
L 138.314269 68.363289 
L 139.803511 74.620403 
L 141.134323 71.692395 
L 141.315386 73.056125 
L 141.319912 70.208336 
L 175.05192 70.208336 
L 176.514002 76.264901 
L 176.704118 76.104462 
L 178.111882 72.013272 
L 178.532853 73.73799 
L 178.858766 67.962192 
L 180.443066 72.695137 
L 181.126578 68.804496 
L 181.275955 69.60669 
L 182.670139 61.384201 
L 183.172588 59.298496 
L 184.195593 62.507272 
L 184.580352 62.066066 
L 185.74368 57.012243 
L 186.24613 60.261129 
L 186.834584 55.167196 
L 187.34156 58.175424 
L 187.63126 61.544639 
L 188.91228 58.977618 
L 189.568633 62.186395 
L 190.396995 60.301239 
L 191.587483 56.129829 
L 192.338894 44.217247 
L 192.343421 69.526471 
L 193.610861 57.012243 
L 194.837561 54.565551 
L 195.484861 58.014985 
L 196.290591 52.760614 
L 197.010316 56.410597 
L 198.010688 51.076006 
L 198.662514 48.468876 
L 199.30076 53.562808 
L 199.979746 54.966648 
L 201.052543 47.145255 
L 201.781321 46.46339 
L 202.564418 50.354032 
L 202.81338 49.712276 
L 203.763959 56.250158 
L 204.3841 50.715019 
L 205.275834 60.622116 
L 206.276206 56.04961 
L 207.240366 60.862774 
L 207.330897 59.699593 
L 208.743188 61.664969 
L 209.345222 68.363289 
L 209.349748 46.583719 
L 211.210169 61.745188 
L 211.830309 59.178167 
L 212.531928 62.427053 
L 213.396503 55.447964 
L 213.455348 56.169939 
L 214.94459 50.193593 
L 215.827271 48.589205 
L 216.438358 55.96939 
L 216.863856 51.396884 
L 217.556421 56.290268 
L 218.420996 50.113373 
L 219.271992 54.124344 
L 219.724649 54.084234 
L 220.376475 45.580977 
L 221.141466 46.904597 
L 221.820451 40.326605 
L 222.671447 43.174395 
L 223.47265 47.145255 
L 224.432283 44.457905 
L 225.419075 49.832606 
L 226.351549 37.799694 
L 226.451133 54.004015 
L 228.021853 45.941964 
L 229.185182 51.356774 
L 229.696685 46.744158 
L 230.353038 48.789753 
L 231.620477 51.276555 
L 231.869439 50.033154 
L 232.747594 53.963905 
L 233.811338 51.95842 
L 234.16441 48.950192 
L 235.323213 55.006758 
L 236.423169 50.474361 
L 237.323957 56.972133 
L 237.749455 43.013956 
L 238.011996 46.423281 
L 239.455972 32.384884 
L 239.555556 33.668394 
L 240.261701 28.81512 
L 241.126277 31.662909 
L 242.945958 28.333804 
L 243.357876 32.986529 
L 245.440099 27.772268 
L 246.19151 26.849745 
L 246.852389 32.144226 
L 247.630959 31.061264 
L 248.056457 28.694791 
L 248.721863 29.376656 
L 250.084361 33.668394 
L 250.713554 28.173365 
L 251.768245 36.95739 
L 251.777298 36.877171 
L 252.673559 32.8662 
L 253.316332 33.949162 
L 254.461555 42.211762 
L 255.674676 35.152453 
L 256.362715 40.406825 
L 256.905903 41.650226 
L 257.793111 35.232673 
L 258.318193 36.395854 
L 258.983599 33.066749 
L 260.314411 29.777753 
L 260.323464 38.160681 
L 260.984344 34.791466 
L 293.204476 34.791466 
L 294.471916 28.77501 
L 294.512655 38.200791 
L 294.802356 38.762327 
L 295.010578 32.424994 
L 296.839312 36.516183 
L 297.798946 31.863458 
L 298.20181 33.066749 
L 299.238395 28.333804 
L 299.595994 28.093145 
L 300.695951 31.261812 
L 301.094289 33.668394 
L 301.945285 27.732158 
L 302.429628 28.293694 
L 303.461686 32.90631 
L 304.244783 32.184335 
L 305.390005 27.090403 
L 305.729498 27.812377 
L 306.42659 32.90631 
L 307.037677 31.662909 
L 307.861513 25.606344 
L 308.78946 28.654681 
L 309.658562 24.563491 
L 311.365079 19.990985 
L 311.383185 32.465103 
L 311.989746 28.81512 
L 312.093857 23.480529 
L 313.52878 24.523382 
L 314.551785 28.333804 
L 315.660795 29.336546 
L 315.995761 25.004698 
L 316.928235 30.459618 
L 318.639278 25.606344 
L 319.186994 30.299179 
L 319.639651 30.098631 
L 320.1421 25.646453 
L 321.952728 23.721188 
L 322.34654 29.456875 
L 322.3737 28.975559 
L 323.13869 23.881626 
L 324.283913 28.293694 
L 325.379343 20.231643 
L 325.64641 21.715702 
L 325.800314 19.389339 
L 328.380459 12.129483 
L 328.452884 31.903567 
L 328.516256 16.140453 
L 328.538889 30.259069 
L 330.707117 18.547036 
L 331.567165 23.44042 
L 331.888552 22.116799 
L 332.323103 25.606344 
L 333.133359 23.039323 
L 333.866663 24.76404 
L 334.79461 23.40031 
L 336.342698 28.093145 
L 337.451708 24.643711 
L 337.759514 27.772268 
L 338.90021 23.039323 
L 340.063539 24.443162 
L 340.64294 21.715702 
L 340.78779 22.317348 
L 341.706684 28.734901 
L 343.358883 11.808605 
L 343.888492 37.719475 
L 345.377733 23.961846 
L 345.38226 44.859002 
L 345.69912 23.520639 
L 346.916768 31.58269 
L 348.39243 37.719475 
L 348.541807 33.548065 
L 348.587072 40.848032 
L 350.058208 35.353002 
L 351.316595 44.738673 
L 351.918628 48.228217 
L 353.005006 36.155196 
L 353.439556 40.246386 
L 354.942378 30.499728 
L 356.11476 35.914538 
L 356.24603 34.751356 
L 357.237349 51.236445 
L 357.794118 43.856259 
L 358.296567 50.795238 
L 359.206408 49.27107 
L 359.930659 45.460648 
L 360.908399 47.385914 
L 361.673389 50.59469 
L 362.420273 44.658454 
L 362.74166 52.640285 
L 364.552288 46.704049 
L 364.823882 51.838091 
L 365.987211 54.565551 
L 366.987583 47.82712 
L 367.815946 54.084234 
L 369.178444 59.378715 
L 369.907222 49.672167 
L 370.255768 56.169939 
L 371.206348 50.073264 
L 371.858174 51.076006 
L 372.98529 57.613888 
L 373.609957 60.261129 
L 373.92229 54.525441 
L 375.130885 54.966648 
L 375.583542 58.656741 
L 376.122204 57.694108 
L 376.606547 55.608403 
L 378.104842 55.407855 
L 379.105214 58.656741 
L 379.372282 55.447964 
L 379.381335 67.119888 
L 412.900593 67.119888 
L 413.615791 45.661196 
L 415.512425 59.499044 
L 415.688961 55.688622 
L 416.589748 62.025956 
L 417.409058 57.694108 
L 417.508642 59.097947 
L 418.260053 55.849061 
L 419.495807 55.808952 
L 420.500706 60.541897 
L 420.686295 64.552867 
L 422.021634 55.808952 
L 422.913368 54.766099 
L 423.587827 57.493559 
L 424.307552 57.653998 
L 424.678731 54.60566 
L 425.176654 57.37323 
L 425.65647 63.469905 
L 426.760954 59.619374 
L 428.209456 55.367745 
L 428.331674 55.929281 
L 429.531215 53.683137 
L 430.39579 63.510015 
L 430.454635 52.720504 
L 432.518752 54.004015 
L 432.822032 55.96939 
L 432.858245 55.086977 
L 434.35654 62.146285 
L 434.768458 61.50453 
L 435.008366 58.857289 
L 436.099269 62.066066 
L 437.35313 55.808952 
L 437.593038 60.983104 
L 439.797478 50.033154 
L 441.033232 53.041382 
L 441.77559 48.468876 
L 442.056237 50.354032 
L 443.559059 55.768842 
L 444.287836 56.771585 
L 444.496059 51.757871 
L 445.546223 57.212791 
L 446.528489 54.445222 
L 447.402117 51.316665 
L 447.41117 63.309466 
L 448.239533 52.760614 
L 449.692562 57.45345 
L 450.489239 59.138057 
L 451.190857 46.182622 
L 451.607302 45.260099 
L 452.231969 48.709534 
L 453.159916 47.706791 
L 453.802689 43.415053 
L 454.612945 45.300209 
L 455.762694 51.316665 
L 456.532211 48.549095 
L 457.120665 52.640285 
L 458.265888 49.712276 
L 458.917714 58.375973 
L 459.687231 61.183652 
L 460.05841 55.929281 
L 460.529173 58.014985 
L 461.534072 64.432538 
L 462.217584 61.624859 
L 464.408445 68.28307 
L 464.77057 57.573779 
L 465.078377 65.274842 
L 466.549513 58.817179 
L 466.730575 60.822665 
L 467.264711 56.731475 
L 468.174552 58.73696 
L 469.387673 54.244673 
L 470.478576 58.456192 
L 471.193774 54.284783 
L 472.194147 60.501787 
L 472.560799 54.445222 
L 473.031562 53.121601 
L 474.267316 58.456192 
L 474.280896 57.894656 
L 475.68866 72.454479 
L 475.96478 69.486361 
L 477.254853 77.267644 
L 477.666771 74.139087 
L 479.395921 84.246733 
L 480.360081 79.874775 
L 481.410245 98.365349 
L 481.604888 64.793526 
L 482.089231 65.274842 
L 482.102811 92.70988 
L 483.628265 82.241247 
L 484.252932 78.751703 
L 485.12656 79.874775 
L 485.389101 76.706108 
L 487.389846 77.107205 
L 488.082411 79.11269 
L 488.539595 78.350606 
L 489.100889 84.166513 
L 489.684817 80.195652 
L 491.097107 86.372547 
L 491.241957 86.332437 
L 492.409813 78.912142 
L 493.066166 81.358834 
L 494.062011 75.743475 
L 494.333605 78.831922 
L 495.596519 74.500074 
L 496.438461 76.064353 
L 496.977123 74.018758 
L 497.710427 73.938538 
L 498.398466 79.754446 
L 498.833017 77.147315 
L 531.053149 77.147315 
L 532.501652 79.072581 
L 532.519758 70.489104 
L 532.75514 72.895686 
L 532.91357 78.109948 
L 535.190435 71.491846 
L 535.543508 75.502817 
L 535.973532 73.617661 
L 536.915059 68.644057 
L 537.195706 69.446251 
L 538.019542 65.194623 
L 539.522364 68.964935 
L 540.16061 65.314952 
L 540.391465 65.475391 
L 540.540842 69.045154 
L 541.821862 67.320437 
L 542.727176 70.649542 
L 543.433321 70.529213 
L 543.673229 65.716049 
L 544.872771 68.20285 
L 545.501964 62.547382 
L 547.317119 64.913855 
L 547.932733 62.226504 
L 549.421975 66.799011 
L 549.449134 58.175424 
L 549.48082 66.678682 
L 552.128864 66.077036 
L 552.359719 59.298496 
L 552.975333 64.312209 
L 554.039077 56.611146 
L 554.727116 60.541897 
L 555.333676 50.955677 
L 555.668643 51.236445 
L 556.999454 62.78804 
L 557.166938 55.367745 
L 557.768972 49.150741 
L 558.751237 49.23096 
L 559.475489 52.961163 
L 561.086948 51.276555 
L 561.63919 45.300209 
L 562.051108 43.134285 
L 562.698407 50.715019 
L 564.101644 45.821635 
L 564.712731 49.030411 
L 564.948113 47.385914 
L 565.835321 49.912825 
L 566.432828 58.616631 
L 566.437355 38.240901 
L 568.524104 50.6348 
L 568.551264 50.193593 
" clip-path="url(#pa870e55408)" style="fill: none; stroke: #4169e1; stroke-width: 1.5; stroke-linecap: square"/>
   </g>
   <g id="patch_3">
    <path d="M 53.328125 108.589313 
L 53.328125 7.2 
" style="fill: none; stroke: #000000; stroke-width: 0.8; stroke-linejoin: miter; stroke-linecap: square"/>
   </g>
   <g id="patch_4">
    <path d="M 573.652483 108.589313 
L 573.652483 7.2 
" style="fill: none; stroke: #000000; stroke-width: 0.8; stroke-linejoin: miter; stroke-linecap: square"/>
   </g>
   <g id="patch_5">
    <path d="M 53.328125 108.589313 
L 573.652483 108.589313 
" style="fill: none; stroke: #000000; stroke-width: 0.8; stroke-linejoin: miter; stroke-linecap: square"/>
   </g>
   <g id="patch_6">
    <path d="M 53.328125 7.2 
L 573.652483 7.2 
" style="fill: none; stroke: #000000; stroke-width: 0.8; stroke-linejoin: miter; stroke-linecap: square"/>
   </g>
  </g>
  <g id="axes_2">
   <g id="patch_7">
    <path d="M 53.328125 219.953477 
L 573.652483 219.953477 
L 573.652483 118.564165 
L 53.328125 118.564165 
z
" style="fill: #ffffff"/>
   </g>
   <g id="matplotlib.axis_3">
    <g id="xtick_17">
     <g id="line2d_21">
      <g>
       <use xlink:href="#m30e124ae1f" x="58.429344" y="219.953477" style="stroke: #000000; stroke-width: 0.8"/>
      </g>
     </g>
    </g>
    <g id="xtick_18">
     <g id="line2d_22">
      <g>
       <use xlink:href="#m30e124ae1f" x="92.437669" y="219.953477" style="stroke: #000000; stroke-width: 0.8"/>
      </g>
     </g>
    </g>
    <g id="xtick_19">
     <g id="line2d_23">
      <g>
       <use xlink:href="#m30e124ae1f" x="126.445994" y="219.953477" style="stroke: #000000; stroke-width: 0.8"/>
      </g>
     </g>
    </g>
    <g id="xtick_20">
     <g id="line2d_24">
      <g>
       <use xlink:href="#m30e124ae1f" x="160.454319" y="219.953477" style="stroke: #000000; stroke-width: 0.8"/>
      </g>
     </g>
    </g>
    <g id="xtick_21">
     <g id="line2d_25">
      <g>
       <use xlink:href="#m30e124ae1f" x="194.462643" y="219.953477" style="stroke: #000000; stroke-width: 0.8"/>
      </g>
     </g>
    </g>
    <g id="xtick_22">
     <g id="line2d_26">
      <g>
       <use xlink:href="#m30e124ae1f" x="228.470968" y="219.953477" style="stroke: #000000; stroke-width: 0.8"/>
      </g>
     </g>
    </g>
    <g id="xtick_23">
     <g id="line2d_27">
      <g>
       <use xlink:href="#m30e124ae1f" x="262.479293" y="219.953477" style="stroke: #000000; stroke-width: 0.8"/>
      </g>
     </g>
    </g>
    <g id="xtick_24">
     <g id="line2d_28">
      <g>
       <use xlink:href="#m30e124ae1f" x="296.487618" y="219.953477" style="stroke: #000000; stroke-width: 0.8"/>
      </g>
     </g>
    </g>
    <g id="xtick_25">
     <g id="line2d_29">
      <g>
       <use xlink:href="#m30e124ae1f" x="330.495942" y="219.953477" style="stroke: #000000; stroke-width: 0.8"/>
      </g>
     </g>
    </g>
    <g id="xtick_26">
     <g id="line2d_30">
      <g>
       <use xlink:href="#m30e124ae1f" x="364.504267" y="219.953477" style="stroke: #000000; stroke-width: 0.8"/>
      </g>
     </g>
    </g>
    <g id="xtick_27">
     <g id="line2d_31">
      <g>
       <use xlink:href="#m30e124ae1f" x="398.512592" y="219.953477" style="stroke: #000000; stroke-width: 0.8"/>
      </g>
     </g>
    </g>
    <g id="xtick_28">
     <g id="line2d_32">
      <g>
       <use xlink:href="#m30e124ae1f" x="432.520917" y="219.953477" style="stroke: #000000; stroke-width: 0.8"/>
      </g>
     </g>
    </g>
    <g id="xtick_29">
     <g id="line2d_33">
      <g>
       <use xlink:href="#m30e124ae1f" x="466.529241" y="219.953477" style="stroke: #000000; stroke-width: 0.8"/>
      </g>
     </g>
    </g>
    <g id="xtick_30">
     <g id="line2d_34">
      <g>
       <use xlink:href="#m30e124ae1f" x="500.537566" y="219.953477" style="stroke: #000000; stroke-width: 0.8"/>
      </g>
     </g>
    </g>
    <g id="xtick_31">
     <g id="line2d_35">
      <g>
       <use xlink:href="#m30e124ae1f" x="534.545891" y="219.953477" style="stroke: #000000; stroke-width: 0.8"/>
      </g>
     </g>
    </g>
    <g id="xtick_32">
     <g id="line2d_36">
      <g>
       <use xlink:href="#m30e124ae1f" x="568.554216" y="219.953477" style="stroke: #000000; stroke-width: 0.8"/>
      </g>
     </g>
    </g>
   </g>
   <g id="matplotlib.axis_4">
    <g id="ytick_4">
     <g id="line2d_37">
      <g>
       <use xlink:href="#m5df2493a0c" x="53.328125" y="216.595513" style="stroke: #000000; stroke-width: 0.8"/>
      </g>
     </g>
     <g id="text_5">
      <!-- 990 -->
      <g transform="translate(27.240625 220.394731) scale(0.1 -0.1)">
       <defs>
        <path id="DejaVuSans-39" d="M 703 97 
L 703 672 
Q 941 559 1184 500 
Q 1428 441 1663 441 
Q 2288 441 2617 861 
Q 2947 1281 2994 2138 
Q 2813 1869 2534 1725 
Q 2256 1581 1919 1581 
Q 1219 1581 811 2004 
Q 403 2428 403 3163 
Q 403 3881 828 4315 
Q 1253 4750 1959 4750 
Q 2769 4750 3195 4129 
Q 3622 3509 3622 2328 
Q 3622 1225 3098 567 
Q 2575 -91 1691 -91 
Q 1453 -91 1209 -44 
Q 966 3 703 97 
z
M 1959 2075 
Q 2384 2075 2632 2365 
Q 2881 2656 2881 3163 
Q 2881 3666 2632 3958 
Q 2384 4250 1959 4250 
Q 1534 4250 1286 3958 
Q 1038 3666 1038 3163 
Q 1038 2656 1286 2365 
Q 1534 2075 1959 2075 
z
" transform="scale(0.015625)"/>
       </defs>
       <use xlink:href="#DejaVuSans-39"/>
       <use xlink:href="#DejaVuSans-39" transform="translate(63.623047 0)"/>
       <use xlink:href="#DejaVuSans-30" transform="translate(127.246094 0)"/>
      </g>
     </g>
    </g>
    <g id="ytick_5">
     <g id="line2d_38">
      <g>
       <use xlink:href="#m5df2493a0c" x="53.328125" y="185.026675" style="stroke: #000000; stroke-width: 0.8"/>
      </g>
     </g>
     <g id="text_6">
      <!-- 1000 -->
      <g transform="translate(20.878125 188.825893) scale(0.1 -0.1)">
       <defs>
        <path id="DejaVuSans-31" d="M 794 531 
L 1825 531 
L 1825 4091 
L 703 3866 
L 703 4441 
L 1819 4666 
L 2450 4666 
L 2450 531 
L 3481 531 
L 3481 0 
L 794 0 
L 794 531 
z
" transform="scale(0.015625)"/>
       </defs>
       <use xlink:href="#DejaVuSans-31"/>
       <use xlink:href="#DejaVuSans-30" transform="translate(63.623047 0)"/>
       <use xlink:href="#DejaVuSans-30" transform="translate(127.246094 0)"/>
       <use xlink:href="#DejaVuSans-30" transform="translate(190.869141 0)"/>
      </g>
     </g>
    </g>
    <g id="ytick_6">
     <g id="line2d_39">
      <g>
       <use xlink:href="#m5df2493a0c" x="53.328125" y="153.457837" style="stroke: #000000; stroke-width: 0.8"/>
      </g>
     </g>
     <g id="text_7">
      <!-- 1010 -->
      <g transform="translate(20.878125 157.257055) scale(0.1 -0.1)">
       <use xlink:href="#DejaVuSans-31"/>
       <use xlink:href="#DejaVuSans-30" transform="translate(63.623047 0)"/>
       <use xlink:href="#DejaVuSans-31" transform="translate(127.246094 0)"/>
       <use xlink:href="#DejaVuSans-30" transform="translate(190.869141 0)"/>
      </g>
     </g>
    </g>
    <g id="ytick_7">
     <g id="line2d_40">
      <g>
       <use xlink:href="#m5df2493a0c" x="53.328125" y="121.888999" style="stroke: #000000; stroke-width: 0.8"/>
      </g>
     </g>
     <g id="text_8">
      <!-- 1020 -->
      <g transform="translate(20.878125 125.688217) scale(0.1 -0.1)">
       <defs>
        <path id="DejaVuSans-32" d="M 1228 531 
L 3431 531 
L 3431 0 
L 469 0 
L 469 531 
Q 828 903 1448 1529 
Q 2069 2156 2228 2338 
Q 2531 2678 2651 2914 
Q 2772 3150 2772 3378 
Q 2772 3750 2511 3984 
Q 2250 4219 1831 4219 
Q 1534 4219 1204 4116 
Q 875 4013 500 3803 
L 500 4441 
Q 881 4594 1212 4672 
Q 1544 4750 1819 4750 
Q 2544 4750 2975 4387 
Q 3406 4025 3406 3419 
Q 3406 3131 3298 2873 
Q 3191 2616 2906 2266 
Q 2828 2175 2409 1742 
Q 1991 1309 1228 531 
z
" transform="scale(0.015625)"/>
       </defs>
       <use xlink:href="#DejaVuSans-31"/>
       <use xlink:href="#DejaVuSans-30" transform="translate(63.623047 0)"/>
       <use xlink:href="#DejaVuSans-32" transform="translate(127.246094 0)"/>
       <use xlink:href="#DejaVuSans-30" transform="translate(190.869141 0)"/>
      </g>
     </g>
    </g>
    <g id="text_9">
     <!-- Equity -->
     <g transform="translate(14.798438 185.069759) rotate(-90) scale(0.1 -0.1)">
      <defs>
       <path id="DejaVuSans-45" d="M 628 4666 
L 3578 4666 
L 3578 4134 
L 1259 4134 
L 1259 2753 
L 3481 2753 
L 3481 2222 
L 1259 2222 
L 1259 531 
L 3634 531 
L 3634 0 
L 628 0 
L 628 4666 
z
" transform="scale(0.015625)"/>
       <path id="DejaVuSans-71" d="M 947 1747 
Q 947 1113 1208 752 
Q 1469 391 1925 391 
Q 2381 391 2643 752 
Q 2906 1113 2906 1747 
Q 2906 2381 2643 2742 
Q 2381 3103 1925 3103 
Q 1469 3103 1208 2742 
Q 947 2381 947 1747 
z
M 2906 525 
Q 2725 213 2448 61 
Q 2172 -91 1784 -91 
Q 1150 -91 751 415 
Q 353 922 353 1747 
Q 353 2572 751 3078 
Q 1150 3584 1784 3584 
Q 2172 3584 2448 3432 
Q 2725 3281 2906 2969 
L 2906 3500 
L 3481 3500 
L 3481 -1331 
L 2906 -1331 
L 2906 525 
z
" transform="scale(0.015625)"/>
       <path id="DejaVuSans-75" d="M 544 1381 
L 544 3500 
L 1119 3500 
L 1119 1403 
Q 1119 906 1312 657 
Q 1506 409 1894 409 
Q 2359 409 2629 706 
Q 2900 1003 2900 1516 
L 2900 3500 
L 3475 3500 
L 3475 0 
L 2900 0 
L 2900 538 
Q 2691 219 2414 64 
Q 2138 -91 1772 -91 
Q 1169 -91 856 284 
Q 544 659 544 1381 
z
M 1991 3584 
L 1991 3584 
z
" transform="scale(0.015625)"/>
       <path id="DejaVuSans-74" d="M 1172 4494 
L 1172 3500 
L 2356 3500 
L 2356 3053 
L 1172 3053 
L 1172 1153 
Q 1172 725 1289 603 
Q 1406 481 1766 481 
L 2356 481 
L 2356 0 
L 1766 0 
Q 1100 0 847 248 
Q 594 497 594 1153 
L 594 3053 
L 172 3053 
L 172 3500 
L 594 3500 
L 594 4494 
L 1172 4494 
z
" transform="scale(0.015625)"/>
       <path id="DejaVuSans-79" d="M 2059 -325 
Q 1816 -950 1584 -1140 
Q 1353 -1331 966 -1331 
L 506 -1331 
L 506 -850 
L 844 -850 
Q 1081 -850 1212 -737 
Q 1344 -625 1503 -206 
L 1606 56 
L 191 3500 
L 800 3500 
L 1894 763 
L 2988 3500 
L 3597 3500 
L 2059 -325 
z
" transform="scale(0.015625)"/>
      </defs>
      <use xlink:href="#DejaVuSans-45"/>
      <use xlink:href="#DejaVuSans-71" transform="translate(63.183594 0)"/>
      <use xlink:href="#DejaVuSans-75" transform="translate(126.660156 0)"/>
      <use xlink:href="#DejaVuSans-69" transform="translate(190.039062 0)"/>
      <use xlink:href="#DejaVuSans-74" transform="translate(217.822266 0)"/>
      <use xlink:href="#DejaVuSans-79" transform="translate(257.03125 0)"/>
     </g>
    </g>
   </g>
   <g id="line2d_41">
    <path d="M 58.429344 185.026675 
L 59.013272 187.249994 
L 59.57004 180.545025 
L 60.095122 182.570987 
L 60.805794 187.346468 
L 62.453466 186.381725 
L 62.919703 182.812173 
L 63.073606 183.873391 
L 64.562848 190.242291 
L 64.585481 189.904852 
L 65.613012 194.050535 
L 66.273892 192.990012 
L 67.301423 188.410478 
L 67.654496 189.229974 
L 68.840458 193.134628 
L 69.19353 191.929488 
L 69.9721 188.603301 
L 70.850255 189.37459 
L 71.09469 191.206404 
L 73.31271 181.083224 
L 73.317236 196.798255 
L 73.815159 189.085357 
L 73.846845 192.652572 
L 75.449251 193.134628 
L 76.820802 187.012515 
L 76.843435 187.687394 
L 78.310044 183.059655 
L 78.749121 182.481187 
L 79.858131 186.49262 
L 80.469218 187.4612 
L 81.030513 166.863922 
L 81.474117 170.674659 
L 81.532963 173.375942 
L 93.718492 173.375942 
L 93.81355 174.397902 
L 94.985932 170.465119 
L 96.072309 173.18408 
L 96.565705 166.338125 
L 97.652082 163.279294 
L 98.312961 176.291464 
L 98.548343 172.795657 
L 99.775044 179.350295 
L 100.055691 174.397902 
L 101.114909 181.583727 
L 101.481561 177.06831 
L 102.563412 186.099144 
L 102.94817 181.826491 
L 103.337455 186.827437 
L 105.197876 185.093769 
L 105.501156 187.937901 
L 107.325364 188.757396 
L 107.329891 178.344983 
L 107.773495 186.877377 
L 107.796128 182.7799 
L 109.226524 184.953951 
L 110.068466 189.153332 
L 110.602602 186.305476 
L 112.123529 180.609763 
L 112.286486 182.057825 
L 113.028844 176.265575 
L 114.305337 178.3894 
L 114.423028 175.3002 
L 115.817211 178.630744 
L 116.437352 173.417718 
L 116.962434 175.782887 
L 117.867748 172.259268 
L 119.148768 177.906713 
L 119.479207 168.832187 
L 119.809647 171.149087 
L 130.546673 171.149087 
L 130.940485 170.278993 
L 132.330142 178.285008 
L 133.280722 175.616337 
L 134.892182 174.888517 
L 135.123037 178.576136 
L 135.272414 175.567815 
L 136.358791 198.42135 
L 136.68923 186.53363 
L 138.219211 178.898909 
L 138.223738 179.091352 
L 138.232791 179.813016 
L 139.758245 179.52435 
L 176.581901 179.52435 
L 177.709017 178.27447 
L 178.111882 181.894626 
L 178.532853 179.81907 
L 178.858766 186.76977 
L 180.443066 181.074057 
L 181.126578 185.756126 
L 181.275955 184.790751 
L 182.670139 194.685846 
L 183.172588 197.195821 
L 184.195593 193.334321 
L 184.580352 193.865277 
L 185.74368 199.94714 
L 186.24613 196.037371 
L 186.834584 202.167503 
L 187.34156 198.547346 
L 187.63126 194.492771 
L 188.91228 197.581971 
L 189.568633 193.720471 
L 190.396995 195.989102 
L 191.587483 201.009053 
L 192.338894 215.344872 
L 192.343421 184.887289 
L 193.46601 195.265071 
L 197.974475 195.227599 
L 198.010688 196.84727 
L 198.662514 199.9437 
L 198.943161 195.513424 
L 200.396191 195.42888 
L 201.052543 202.093693 
L 201.781321 202.902992 
L 202.564418 198.285228 
L 202.81338 199.046921 
L 203.763959 191.287174 
L 204.3841 197.856776 
L 205.275834 186.098141 
L 205.986506 190.43027 
L 206.058931 187.526316 
L 207.276579 190.097029 
L 208.80656 190.097029 
L 209.358801 192.870963 
L 209.417647 170.433759 
L 210.345594 176.054969 
L 211.875575 176.054969 
L 212.192435 178.609794 
L 212.522874 174.189399 
L 218.013605 174.189399 
L 219.271992 173.719785 
L 219.49832 176.836734 
L 219.724649 173.767738 
L 220.376475 183.933788 
L 221.141466 182.351337 
L 221.820451 190.21564 
L 222.671447 186.810972 
L 222.771031 185.468286 
L 227.22065 185.468286 
L 228.021853 187.243392 
L 228.737052 183.143863 
L 228.836636 184.287917 
L 230.181028 178.812925 
L 230.353038 180.865405 
L 230.597472 178.90839 
L 232.928656 178.102056 
L 233.358681 182.505025 
L 233.811338 180.207824 
L 234.16441 183.797201 
L 234.897715 180.159966 
L 235.124043 178.29349 
L 237.387329 179.404276 
L 237.486913 173.05171 
L 237.96673 175.296602 
L 242.570253 175.296602 
L 243.683789 179.973758 
L 244.10476 177.832917 
L 245.440099 180.317322 
L 246.19151 181.409351 
L 246.852389 175.142053 
L 247.630959 176.424 
L 248.056457 179.225293 
L 248.721863 178.418141 
L 250.084361 173.337831 
L 250.713554 179.842527 
L 251.768245 169.444509 
L 251.777298 169.539468 
L 252.673559 174.287421 
L 253.316332 173.005474 
L 254.461555 163.22469 
L 255.104328 165.788585 
L 255.674676 171.581088 
L 256.380821 167.497848 
L 296.273491 167.497848 
L 297.373448 166.701536 
L 297.798946 169.84977 
L 298.20181 168.418754 
L 299.238395 174.047415 
L 299.595994 174.333618 
L 299.772531 171.853191 
L 300.88154 172.998004 
L 313.153074 172.998004 
L 313.569519 173.252038 
L 314.551785 168.97888 
L 315.660795 167.791892 
L 315.995761 172.919681 
L 316.928235 166.462465 
L 318.639278 172.207488 
L 319.186994 166.652383 
L 319.390689 170.403266 
L 319.639651 166.889781 
L 321.952728 172.569655 
L 322.34654 165.762024 
L 322.3737 166.333294 
L 323.13869 172.379232 
L 324.08927 173.331348 
L 324.283913 167.142593 
L 325.433662 168.047103 
L 331.567165 168.047103 
L 332.870818 169.109366 
L 333.083567 167.589011 
L 333.133359 168.44421 
L 333.866663 166.401233 
L 334.640707 167.161411 
L 337.705196 167.161411 
L 338.26649 166.701929 
L 338.90021 171.459353 
L 339.597302 172.839006 
L 340.063539 169.794255 
L 340.778737 172.315689 
L 342.308718 172.315689 
L 343.358883 181.668336 
L 343.793434 154.943294 
L 343.847752 159.634392 
L 368.399874 159.634392 
L 369.907222 161.6669 
L 370.255768 153.867818 
L 371.206348 161.185475 
L 371.858174 159.981913 
L 372.98529 152.134689 
L 373.609957 148.957286 
L 373.92229 155.84166 
L 375.583542 150.738705 
L 375.82345 154.027421 
L 376.122204 151.899428 
L 376.606547 154.414328 
L 377.629552 152.237973 
L 378.104842 154.656146 
L 379.141427 153.88233 
L 434.379173 153.88233 
L 435.189429 154.519674 
L 436.099269 150.747324 
L 437.35313 158.292023 
L 437.593038 152.053137 
L 439.797478 165.256362 
L 441.033232 161.629102 
L 441.77559 167.142537 
L 442.056237 164.869454 
L 443.590744 159.084864 
L 444.496059 164.207431 
L 445.546223 157.647174 
L 446.528489 160.97554 
L 447.402117 164.73804 
L 447.41117 150.315122 
L 449.285171 161.755942 
L 449.692562 157.899493 
L 450.489239 155.874857 
L 451.190857 171.445271 
L 451.607302 172.554 
L 452.231969 168.408317 
L 453.159916 169.613457 
L 453.802689 174.771458 
L 454.612945 172.505794 
L 455.762694 165.274952 
L 456.532211 168.60114 
L 457.120665 163.684167 
L 458.265888 167.203177 
L 458.917714 156.790764 
L 458.985612 158.429755 
L 459.144042 154.910745 
L 460.470328 158.188727 
L 471.211881 158.188727 
L 473.031562 163.507354 
L 474.267316 157.08761 
L 474.280896 157.763373 
L 475.68866 140.241815 
L 475.96478 143.813703 
L 477.254853 134.858966 
L 477.666771 138.675638 
L 478.866312 129.819001 
L 479.137907 130.797635 
L 479.395921 126.34485 
L 480.418926 128.791435 
L 540.260195 128.791435 
L 540.540842 125.71772 
L 541.016132 129.336329 
L 541.821862 127.820425 
L 542.727176 123.761714 
L 543.433321 123.908415 
L 543.673229 129.77643 
L 544.872771 126.744622 
L 545.501964 133.639541 
L 547.317119 130.754433 
L 547.932733 134.030742 
L 549.421975 128.456127 
L 549.449134 138.969655 
L 549.48082 128.602827 
L 552.128864 128.175663 
L 552.359719 136.42378 
L 552.658473 136.570196 
L 552.975333 130.323102 
L 554.07529 134.569173 
L 557.139778 134.569173 
L 557.434005 135.84072 
L 557.7056 132.300969 
L 558.678812 135.598271 
L 566.346824 135.598271 
L 566.473568 136.239428 
L 566.704423 123.17277 
L 567.962809 133.626096 
L 568.524104 129.270544 
L 568.551264 129.802889 
" clip-path="url(#p35a772f838)" style="fill: none; stroke: #2e8b57; stroke-width: 1.5; stroke-linecap: square"/>
   </g>
   <g id="patch_8">
    <path d="M 53.328125 219.953477 
L 53.328125 118.564165 
" style="fill: none; stroke: #000000; stroke-width: 0.8; stroke-linejoin: miter; stroke-linecap: square"/>
   </g>
   <g id="patch_9">
    <path d="M 573.652483 219.953477 
L 573.652483 118.564165 
" style="fill: none; stroke: #000000; stroke-width: 0.8; stroke-linejoin: miter; stroke-linecap: square"/>
   </g>
   <g id="patch_10">
    <path d="M 53.328125 219.953477 
L 573.652483 219.953477 
" style="fill: none; stroke: #000000; stroke-width: 0.8; stroke-linejoin: miter; stroke-linecap: square"/>
   </g>
   <g id="patch_11">
    <path d="M 53.328125 118.564165 
L 573.652483 118.564165 
" style="fill: none; stroke: #000000; stroke-width: 0.8; stroke-linejoin: miter; stroke-linecap: square"/>
   </g>
  </g>
  <g id="axes_3">
   <g id="patch_12">
    <path d="M 53.328125 330.84327 
L 573.652483 330.84327 
L 573.652483 229.453957 
L 53.328125 229.453957 
z
" style="fill: #ffffff"/>
   </g>
   <g id="matplotlib.axis_5">
    <g id="xtick_33">
     <g id="line2d_42">
      <g>
       <use xlink:href="#m30e124ae1f" x="58.429344" y="330.84327" style="stroke: #000000; stroke-width: 0.8"/>
      </g>
     </g>
     <g id="text_10">
      <!-- Sep -->
      <g transform="translate(49.004344 345.441708) scale(0.1 -0.1)">
       <defs>
        <path id="DejaVuSans-53" d="M 3425 4513 
L 3425 3897 
Q 3066 4069 2747 4153 
Q 2428 4238 2131 4238 
Q 1616 4238 1336 4038 
Q 1056 3838 1056 3469 
Q 1056 3159 1242 3001 
Q 1428 2844 1947 2747 
L 2328 2669 
Q 3034 2534 3370 2195 
Q 3706 1856 3706 1288 
Q 3706 609 3251 259 
Q 2797 -91 1919 -91 
Q 1588 -91 1214 -16 
Q 841 59 441 206 
L 441 856 
Q 825 641 1194 531 
Q 1563 422 1919 422 
Q 2459 422 2753 634 
Q 3047 847 3047 1241 
Q 3047 1584 2836 1778 
Q 2625 1972 2144 2069 
L 1759 2144 
Q 1053 2284 737 2584 
Q 422 2884 422 3419 
Q 422 4038 858 4394 
Q 1294 4750 2059 4750 
Q 2388 4750 2728 4690 
Q 3069 4631 3425 4513 
z
" transform="scale(0.015625)"/>
        <path id="DejaVuSans-70" d="M 1159 525 
L 1159 -1331 
L 581 -1331 
L 581 3500 
L 1159 3500 
L 1159 2969 
Q 1341 3281 1617 3432 
Q 1894 3584 2278 3584 
Q 2916 3584 3314 3078 
Q 3713 2572 3713 1747 
Q 3713 922 3314 415 
Q 2916 -91 2278 -91 
Q 1894 -91 1617 61 
Q 1341 213 1159 525 
z
M 3116 1747 
Q 3116 2381 2855 2742 
Q 2594 3103 2138 3103 
Q 1681 3103 1420 2742 
Q 1159 2381 1159 1747 
Q 1159 1113 1420 752 
Q 1681 391 2138 391 
Q 2594 391 2855 752 
Q 3116 1113 3116 1747 
z
" transform="scale(0.015625)"/>
       </defs>
       <use xlink:href="#DejaVuSans-53"/>
       <use xlink:href="#DejaVuSans-65" transform="translate(63.476562 0)"/>
       <use xlink:href="#DejaVuSans-70" transform="translate(125 0)"/>
      </g>
     </g>
    </g>
    <g id="xtick_34">
     <g id="line2d_43">
      <g>
       <use xlink:href="#m30e124ae1f" x="92.437669" y="330.84327" style="stroke: #000000; stroke-width: 0.8"/>
      </g>
     </g>
     <g id="text_11">
      <!-- 03 -->
      <g transform="translate(86.075169 345.441708) scale(0.1 -0.1)">
       <defs>
        <path id="DejaVuSans-33" d="M 2597 2516 
Q 3050 2419 3304 2112 
Q 3559 1806 3559 1356 
Q 3559 666 3084 287 
Q 2609 -91 1734 -91 
Q 1441 -91 1130 -33 
Q 819 25 488 141 
L 488 750 
Q 750 597 1062 519 
Q 1375 441 1716 441 
Q 2309 441 2620 675 
Q 2931 909 2931 1356 
Q 2931 1769 2642 2001 
Q 2353 2234 1838 2234 
L 1294 2234 
L 1294 2753 
L 1863 2753 
Q 2328 2753 2575 2939 
Q 2822 3125 2822 3475 
Q 2822 3834 2567 4026 
Q 2313 4219 1838 4219 
Q 1578 4219 1281 4162 
Q 984 4106 628 3988 
L 628 4550 
Q 988 4650 1302 4700 
Q 1616 4750 1894 4750 
Q 2613 4750 3031 4423 
Q 3450 4097 3450 3541 
Q 3450 3153 3228 2886 
Q 3006 2619 2597 2516 
z
" transform="scale(0.015625)"/>
       </defs>
       <use xlink:href="#DejaVuSans-30"/>
       <use xlink:href="#DejaVuSans-33" transform="translate(63.623047 0)"/>
      </g>
     </g>
    </g>
    <g id="xtick_35">
     <g id="line2d_44">
      <g>
       <use xlink:href="#m30e124ae1f" x="126.445994" y="330.84327" style="stroke: #000000; stroke-width: 0.8"/>
      </g>
     </g>
     <g id="text_12">
      <!-- 05 -->
      <g transform="translate(120.083494 345.441708) scale(0.1 -0.1)">
       <use xlink:href="#DejaVuSans-30"/>
       <use xlink:href="#DejaVuSans-35" transform="translate(63.623047 0)"/>
      </g>
     </g>
    </g>
    <g id="xtick_36">
     <g id="line2d_45">
      <g>
       <use xlink:href="#m30e124ae1f" x="160.454319" y="330.84327" style="stroke: #000000; stroke-width: 0.8"/>
      </g>
     </g>
     <g id="text_13">
      <!-- 07 -->
      <g transform="translate(154.091819 345.441708) scale(0.1 -0.1)">
       <use xlink:href="#DejaVuSans-30"/>
       <use xlink:href="#DejaVuSans-37" transform="translate(63.623047 0)"/>
      </g>
     </g>
    </g>
    <g id="xtick_37">
     <g id="line2d_46">
      <g>
       <use xlink:href="#m30e124ae1f" x="194.462643" y="330.84327" style="stroke: #000000; stroke-width: 0.8"/>
      </g>
     </g>
     <g id="text_14">
      <!-- 09 -->
      <g transform="translate(188.100143 345.441708) scale(0.1 -0.1)">
       <use xlink:href="#DejaVuSans-30"/>
       <use xlink:href="#DejaVuSans-39" transform="translate(63.623047 0)"/>
      </g>
     </g>
    </g>
    <g id="xtick_38">
     <g id="line2d_47">
      <g>
       <use xlink:href="#m30e124ae1f" x="228.470968" y="330.84327" style="stroke: #000000; stroke-width: 0.8"/>
      </g>
     </g>
     <g id="text_15">
      <!-- 11 -->
      <g transform="translate(222.108468 345.441708) scale(0.1 -0.1)">
       <use xlink:href="#DejaVuSans-31"/>
       <use xlink:href="#DejaVuSans-31" transform="translate(63.623047 0)"/>
      </g>
     </g>
    </g>
    <g id="xtick_39">
     <g id="line2d_48">
      <g>
       <use xlink:href="#m30e124ae1f" x="262.479293" y="330.84327" style="stroke: #000000; stroke-width: 0.8"/>
      </g>
     </g>
     <g id="text_16">
      <!-- 13 -->
      <g transform="translate(256.116793 345.441708) scale(0.1 -0.1)">
       <use xlink:href="#DejaVuSans-31"/>
       <use xlink:href="#DejaVuSans-33" transform="translate(63.623047 0)"/>
      </g>
     </g>
    </g>
    <g id="xtick_40">
     <g id="line2d_49">
      <g>
       <use xlink:href="#m30e124ae1f" x="296.487618" y="330.84327" style="stroke: #000000; stroke-width: 0.8"/>
      </g>
     </g>
     <g id="text_17">
      <!-- 15 -->
      <g transform="translate(290.125118 345.441708) scale(0.1 -0.1)">
       <use xlink:href="#DejaVuSans-31"/>
       <use xlink:href="#DejaVuSans-35" transform="translate(63.623047 0)"/>
      </g>
     </g>
    </g>
    <g id="xtick_41">
     <g id="line2d_50">
      <g>
       <use xlink:href="#m30e124ae1f" x="330.495942" y="330.84327" style="stroke: #000000; stroke-width: 0.8"/>
      </g>
     </g>
     <g id="text_18">
      <!-- 17 -->
      <g transform="translate(324.133442 345.441708) scale(0.1 -0.1)">
       <use xlink:href="#DejaVuSans-31"/>
       <use xlink:href="#DejaVuSans-37" transform="translate(63.623047 0)"/>
      </g>
     </g>
    </g>
    <g id="xtick_42">
     <g id="line2d_51">
      <g>
       <use xlink:href="#m30e124ae1f" x="364.504267" y="330.84327" style="stroke: #000000; stroke-width: 0.8"/>
      </g>
     </g>
     <g id="text_19">
      <!-- 19 -->
      <g transform="translate(358.141767 345.441708) scale(0.1 -0.1)">
       <use xlink:href="#DejaVuSans-31"/>
       <use xlink:href="#DejaVuSans-39" transform="translate(63.623047 0)"/>
      </g>
     </g>
    </g>
    <g id="xtick_43">
     <g id="line2d_52">
      <g>
       <use xlink:href="#m30e124ae1f" x="398.512592" y="330.84327" style="stroke: #000000; stroke-width: 0.8"/>
      </g>
     </g>
     <g id="text_20">
      <!-- 21 -->
      <g transform="translate(392.150092 345.441708) scale(0.1 -0.1)">
       <use xlink:href="#DejaVuSans-32"/>
       <use xlink:href="#DejaVuSans-31" transform="translate(63.623047 0)"/>
      </g>
     </g>
    </g>
    <g id="xtick_44">
     <g id="line2d_53">
      <g>
       <use xlink:href="#m30e124ae1f" x="432.520917" y="330.84327" style="stroke: #000000; stroke-width: 0.8"/>
      </g>
     </g>
     <g id="text_21">
      <!-- 23 -->
      <g transform="translate(426.158417 345.441708) scale(0.1 -0.1)">
       <use xlink:href="#DejaVuSans-32"/>
       <use xlink:href="#DejaVuSans-33" transform="translate(63.623047 0)"/>
      </g>
     </g>
    </g>
    <g id="xtick_45">
     <g id="line2d_54">
      <g>
       <use xlink:href="#m30e124ae1f" x="466.529241" y="330.84327" style="stroke: #000000; stroke-width: 0.8"/>
      </g>
     </g>
     <g id="text_22">
      <!-- 25 -->
      <g transform="translate(460.166741 345.441708) scale(0.1 -0.1)">
       <use xlink:href="#DejaVuSans-32"/>
       <use xlink:href="#DejaVuSans-35" transform="translate(63.623047 0)"/>
      </g>
     </g>
    </g>
    <g id="xtick_46">
     <g id="line2d_55">
      <g>
       <use xlink:href="#m30e124ae1f" x="500.537566" y="330.84327" style="stroke: #000000; stroke-width: 0.8"/>
      </g>
     </g>
     <g id="text_23">
      <!-- 27 -->
      <g transform="translate(494.175066 345.441708) scale(0.1 -0.1)">
       <use xlink:href="#DejaVuSans-32"/>
       <use xlink:href="#DejaVuSans-37" transform="translate(63.623047 0)"/>
      </g>
     </g>
    </g>
    <g id="xtick_47">
     <g id="line2d_56">
      <g>
       <use xlink:href="#m30e124ae1f" x="534.545891" y="330.84327" style="stroke: #000000; stroke-width: 0.8"/>
      </g>
     </g>
     <g id="text_24">
      <!-- 29 -->
      <g transform="translate(528.183391 345.441708) scale(0.1 -0.1)">
       <use xlink:href="#DejaVuSans-32"/>
       <use xlink:href="#DejaVuSans-39" transform="translate(63.623047 0)"/>
      </g>
     </g>
    </g>
    <g id="xtick_48">
     <g id="line2d_57">
      <g>
       <use xlink:href="#m30e124ae1f" x="568.554216" y="330.84327" style="stroke: #000000; stroke-width: 0.8"/>
      </g>
     </g>
     <g id="text_25">
      <!-- Oct -->
      <g transform="translate(559.908903 345.441708) scale(0.1 -0.1)">
       <defs>
        <path id="DejaVuSans-4f" d="M 2522 4238 
Q 1834 4238 1429 3725 
Q 1025 3213 1025 2328 
Q 1025 1447 1429 934 
Q 1834 422 2522 422 
Q 3209 422 3611 934 
Q 4013 1447 4013 2328 
Q 4013 3213 3611 3725 
Q 3209 4238 2522 4238 
z
M 2522 4750 
Q 3503 4750 4090 4092 
Q 4678 3434 4678 2328 
Q 4678 1225 4090 567 
Q 3503 -91 2522 -91 
Q 1538 -91 948 565 
Q 359 1222 359 2328 
Q 359 3434 948 4092 
Q 1538 4750 2522 4750 
z
" transform="scale(0.015625)"/>
       </defs>
       <use xlink:href="#DejaVuSans-4f"/>
       <use xlink:href="#DejaVuSans-63" transform="translate(78.710938 0)"/>
       <use xlink:href="#DejaVuSans-74" transform="translate(133.691406 0)"/>
      </g>
     </g>
    </g>
    <g id="text_26">
     <!-- Time -->
     <g transform="translate(301.25671 359.119833) scale(0.1 -0.1)">
      <defs>
       <path id="DejaVuSans-54" d="M -19 4666 
L 3928 4666 
L 3928 4134 
L 2272 4134 
L 2272 0 
L 1638 0 
L 1638 4134 
L -19 4134 
L -19 4666 
z
" transform="scale(0.015625)"/>
       <path id="DejaVuSans-6d" d="M 3328 2828 
Q 3544 3216 3844 3400 
Q 4144 3584 4550 3584 
Q 5097 3584 5394 3201 
Q 5691 2819 5691 2113 
L 5691 0 
L 5113 0 
L 5113 2094 
Q 5113 2597 4934 2840 
Q 4756 3084 4391 3084 
Q 3944 3084 3684 2787 
Q 3425 2491 3425 1978 
L 3425 0 
L 2847 0 
L 2847 2094 
Q 2847 2600 2669 2842 
Q 2491 3084 2119 3084 
Q 1678 3084 1418 2786 
Q 1159 2488 1159 1978 
L 1159 0 
L 581 0 
L 581 3500 
L 1159 3500 
L 1159 2956 
Q 1356 3278 1631 3431 
Q 1906 3584 2284 3584 
Q 2666 3584 2933 3390 
Q 3200 3197 3328 2828 
z
" transform="scale(0.015625)"/>
      </defs>
      <use xlink:href="#DejaVuSans-54"/>
      <use xlink:href="#DejaVuSans-69" transform="translate(57.958984 0)"/>
      <use xlink:href="#DejaVuSans-6d" transform="translate(85.742188 0)"/>
      <use xlink:href="#DejaVuSans-65" transform="translate(183.154297 0)"/>
     </g>
    </g>
    <g id="text_27">
     <!-- 2025-Oct -->
     <g transform="translate(527.029045 358.119833) scale(0.1 -0.1)">
      <defs>
       <path id="DejaVuSans-2d" d="M 313 2009 
L 1997 2009 
L 1997 1497 
L 313 1497 
L 313 2009 
z
" transform="scale(0.015625)"/>
      </defs>
      <use xlink:href="#DejaVuSans-32"/>
      <use xlink:href="#DejaVuSans-30" transform="translate(63.623047 0)"/>
      <use xlink:href="#DejaVuSans-32" transform="translate(127.246094 0)"/>
      <use xlink:href="#DejaVuSans-35" transform="translate(190.869141 0)"/>
      <use xlink:href="#DejaVuSans-2d" transform="translate(254.492188 0)"/>
      <use xlink:href="#DejaVuSans-4f" transform="translate(293.326172 0)"/>
      <use xlink:href="#DejaVuSans-63" transform="translate(372.037109 0)"/>
      <use xlink:href="#DejaVuSans-74" transform="translate(427.017578 0)"/>
     </g>
    </g>
   </g>
   <g id="matplotlib.axis_6">
    <g id="ytick_8">
     <g id="line2d_58">
      <g>
       <use xlink:href="#m5df2493a0c" x="53.328125" y="318.469899" style="stroke: #000000; stroke-width: 0.8"/>
      </g>
     </g>
     <g id="text_28">
      <!-- 1.5 -->
      <g transform="translate(22.045313 322.269118) scale(0.1 -0.1)">
       <defs>
        <path id="DejaVuSans-2212" d="M 678 2272 
L 4684 2272 
L 4684 1741 
L 678 1741 
L 678 2272 
z
" transform="scale(0.015625)"/>
       </defs>
       <use xlink:href="#DejaVuSans-2212"/>
       <use xlink:href="#DejaVuSans-31" transform="translate(83.789062 0)"/>
       <use xlink:href="#DejaVuSans-2e" transform="translate(147.412109 0)"/>
       <use xlink:href="#DejaVuSans-35" transform="translate(179.199219 0)"/>
      </g>
     </g>
    </g>
    <g id="ytick_9">
     <g id="line2d_59">
      <g>
       <use xlink:href="#m5df2493a0c" x="53.328125" y="290.33412" style="stroke: #000000; stroke-width: 0.8"/>
      </g>
     </g>
     <g id="text_29">
      <!-- 1.0 -->
      <g transform="translate(22.045313 294.133339) scale(0.1 -0.1)">
       <use xlink:href="#DejaVuSans-2212"/>
       <use xlink:href="#DejaVuSans-31" transform="translate(83.789062 0)"/>
       <use xlink:href="#DejaVuSans-2e" transform="translate(147.412109 0)"/>
       <use xlink:href="#DejaVuSans-30" transform="translate(179.199219 0)"/>
      </g>
     </g>
    </g>
    <g id="ytick_10">
     <g id="line2d_60">
      <g>
       <use xlink:href="#m5df2493a0c" x="53.328125" y="262.198341" style="stroke: #000000; stroke-width: 0.8"/>
      </g>
     </g>
     <g id="text_30">
      <!-- 0.5 -->
      <g transform="translate(22.045313 265.99756) scale(0.1 -0.1)">
       <use xlink:href="#DejaVuSans-2212"/>
       <use xlink:href="#DejaVuSans-30" transform="translate(83.789062 0)"/>
       <use xlink:href="#DejaVuSans-2e" transform="translate(147.412109 0)"/>
       <use xlink:href="#DejaVuSans-35" transform="translate(179.199219 0)"/>
      </g>
     </g>
    </g>
    <g id="ytick_11">
     <g id="line2d_61">
      <g>
       <use xlink:href="#m5df2493a0c" x="53.328125" y="234.062563" style="stroke: #000000; stroke-width: 0.8"/>
      </g>
     </g>
     <g id="text_31">
      <!-- 0.0 -->
      <g transform="translate(30.425 237.861781) scale(0.1 -0.1)">
       <use xlink:href="#DejaVuSans-30"/>
       <use xlink:href="#DejaVuSans-2e" transform="translate(63.623047 0)"/>
       <use xlink:href="#DejaVuSans-30" transform="translate(95.410156 0)"/>
      </g>
     </g>
    </g>
    <g id="text_32">
     <!-- Drawdown, % -->
     <g transform="translate(14.798438 314.62752) rotate(-90) scale(0.1 -0.1)">
      <defs>
       <path id="DejaVuSans-44" d="M 1259 4147 
L 1259 519 
L 2022 519 
Q 2988 519 3436 956 
Q 3884 1394 3884 2338 
Q 3884 3275 3436 3711 
Q 2988 4147 2022 4147 
L 1259 4147 
z
M 628 4666 
L 1925 4666 
Q 3281 4666 3915 4102 
Q 4550 3538 4550 2338 
Q 4550 1131 3912 565 
Q 3275 0 1925 0 
L 628 0 
L 628 4666 
z
" transform="scale(0.015625)"/>
       <path id="DejaVuSans-61" d="M 2194 1759 
Q 1497 1759 1228 1600 
Q 959 1441 959 1056 
Q 959 750 1161 570 
Q 1363 391 1709 391 
Q 2188 391 2477 730 
Q 2766 1069 2766 1631 
L 2766 1759 
L 2194 1759 
z
M 3341 1997 
L 3341 0 
L 2766 0 
L 2766 531 
Q 2569 213 2275 61 
Q 1981 -91 1556 -91 
Q 1019 -91 701 211 
Q 384 513 384 1019 
Q 384 1609 779 1909 
Q 1175 2209 1959 2209 
L 2766 2209 
L 2766 2266 
Q 2766 2663 2505 2880 
Q 2244 3097 1772 3097 
Q 1472 3097 1187 3025 
Q 903 2953 641 2809 
L 641 3341 
Q 956 3463 1253 3523 
Q 1550 3584 1831 3584 
Q 2591 3584 2966 3190 
Q 3341 2797 3341 1997 
z
" transform="scale(0.015625)"/>
       <path id="DejaVuSans-77" d="M 269 3500 
L 844 3500 
L 1563 769 
L 2278 3500 
L 2956 3500 
L 3675 769 
L 4391 3500 
L 4966 3500 
L 4050 0 
L 3372 0 
L 2619 2869 
L 1863 0 
L 1184 0 
L 269 3500 
z
" transform="scale(0.015625)"/>
       <path id="DejaVuSans-64" d="M 2906 2969 
L 2906 4863 
L 3481 4863 
L 3481 0 
L 2906 0 
L 2906 525 
Q 2725 213 2448 61 
Q 2172 -91 1784 -91 
Q 1150 -91 751 415 
Q 353 922 353 1747 
Q 353 2572 751 3078 
Q 1150 3584 1784 3584 
Q 2172 3584 2448 3432 
Q 2725 3281 2906 2969 
z
M 947 1747 
Q 947 1113 1208 752 
Q 1469 391 1925 391 
Q 2381 391 2643 752 
Q 2906 1113 2906 1747 
Q 2906 2381 2643 2742 
Q 2381 3103 1925 3103 
Q 1469 3103 1208 2742 
Q 947 2381 947 1747 
z
" transform="scale(0.015625)"/>
       <path id="DejaVuSans-6f" d="M 1959 3097 
Q 1497 3097 1228 2736 
Q 959 2375 959 1747 
Q 959 1119 1226 758 
Q 1494 397 1959 397 
Q 2419 397 2687 759 
Q 2956 1122 2956 1747 
Q 2956 2369 2687 2733 
Q 2419 3097 1959 3097 
z
M 1959 3584 
Q 2709 3584 3137 3096 
Q 3566 2609 3566 1747 
Q 3566 888 3137 398 
Q 2709 -91 1959 -91 
Q 1206 -91 779 398 
Q 353 888 353 1747 
Q 353 2609 779 3096 
Q 1206 3584 1959 3584 
z
" transform="scale(0.015625)"/>
       <path id="DejaVuSans-6e" d="M 3513 2113 
L 3513 0 
L 2938 0 
L 2938 2094 
Q 2938 2591 2744 2837 
Q 2550 3084 2163 3084 
Q 1697 3084 1428 2787 
Q 1159 2491 1159 1978 
L 1159 0 
L 581 0 
L 581 3500 
L 1159 3500 
L 1159 2956 
Q 1366 3272 1645 3428 
Q 1925 3584 2291 3584 
Q 2894 3584 3203 3211 
Q 3513 2838 3513 2113 
z
" transform="scale(0.015625)"/>
       <path id="DejaVuSans-2c" d="M 750 794 
L 1409 794 
L 1409 256 
L 897 -744 
L 494 -744 
L 750 256 
L 750 794 
z
" transform="scale(0.015625)"/>
       <path id="DejaVuSans-20" transform="scale(0.015625)"/>
       <path id="DejaVuSans-25" d="M 4653 2053 
Q 4381 2053 4226 1822 
Q 4072 1591 4072 1178 
Q 4072 772 4226 539 
Q 4381 306 4653 306 
Q 4919 306 5073 539 
Q 5228 772 5228 1178 
Q 5228 1588 5073 1820 
Q 4919 2053 4653 2053 
z
M 4653 2450 
Q 5147 2450 5437 2106 
Q 5728 1763 5728 1178 
Q 5728 594 5436 251 
Q 5144 -91 4653 -91 
Q 4153 -91 3862 251 
Q 3572 594 3572 1178 
Q 3572 1766 3864 2108 
Q 4156 2450 4653 2450 
z
M 1428 4353 
Q 1159 4353 1004 4120 
Q 850 3888 850 3481 
Q 850 3069 1003 2837 
Q 1156 2606 1428 2606 
Q 1700 2606 1854 2837 
Q 2009 3069 2009 3481 
Q 2009 3884 1853 4118 
Q 1697 4353 1428 4353 
z
M 4250 4750 
L 4750 4750 
L 1831 -91 
L 1331 -91 
L 4250 4750 
z
M 1428 4750 
Q 1922 4750 2215 4408 
Q 2509 4066 2509 3481 
Q 2509 2891 2217 2550 
Q 1925 2209 1428 2209 
Q 931 2209 642 2551 
Q 353 2894 353 3481 
Q 353 4063 643 4406 
Q 934 4750 1428 4750 
z
" transform="scale(0.015625)"/>
      </defs>
      <use xlink:href="#DejaVuSans-44"/>
      <use xlink:href="#DejaVuSans-72" transform="translate(77.001953 0)"/>
      <use xlink:href="#DejaVuSans-61" transform="translate(118.115234 0)"/>
      <use xlink:href="#DejaVuSans-77" transform="translate(179.394531 0)"/>
      <use xlink:href="#DejaVuSans-64" transform="translate(261.181641 0)"/>
      <use xlink:href="#DejaVuSans-6f" transform="translate(324.658203 0)"/>
      <use xlink:href="#DejaVuSans-77" transform="translate(385.839844 0)"/>
      <use xlink:href="#DejaVuSans-6e" transform="translate(467.626953 0)"/>
      <use xlink:href="#DejaVuSans-2c" transform="translate(531.005859 0)"/>
      <use xlink:href="#DejaVuSans-20" transform="translate(562.792969 0)"/>
      <use xlink:href="#DejaVuSans-25" transform="translate(594.580078 0)"/>
     </g>
    </g>
   </g>
   <g id="line2d_62">
    <path d="M 58.429344 234.062563 
L 59.954799 241.961779 
L 60.095122 237.668727 
L 60.805794 246.16897 
L 62.453466 244.451749 
L 62.919703 238.098032 
L 63.073606 239.986975 
L 64.562848 251.323467 
L 64.585481 250.722833 
L 65.613012 258.102051 
L 66.273892 256.214344 
L 67.301423 248.062882 
L 67.654496 249.521565 
L 68.840458 256.471758 
L 69.19353 254.326637 
L 69.9721 248.406102 
L 70.850255 249.77898 
L 71.09469 253.039564 
L 73.31271 235.020544 
L 73.317236 262.992927 
L 73.815159 249.26415 
L 73.846845 255.61371 
L 75.449251 256.471758 
L 76.820802 245.574542 
L 76.843435 246.77581 
L 78.310044 238.538543 
L 78.749121 237.508885 
L 79.858131 244.649141 
L 80.469218 246.373189 
L 80.654808 234.062563 
L 81.474117 240.816358 
L 81.532963 245.603858 
L 93.718492 245.603858 
L 93.81355 247.415085 
L 94.985932 240.444988 
L 96.072309 245.263821 
L 96.552125 234.062563 
L 97.60229 234.062563 
L 98.312961 257.098109 
L 98.548343 250.909455 
L 99.775044 262.513182 
L 100.055691 253.745921 
L 101.114909 266.467044 
L 101.481561 258.473366 
L 102.563412 274.460723 
L 102.94817 266.896812 
L 103.337455 275.750026 
L 105.197876 272.680899 
L 105.501156 277.715887 
L 107.325364 279.166647 
L 107.329891 260.73347 
L 107.773495 275.838434 
L 107.796128 268.584638 
L 109.226524 272.433377 
L 110.068466 279.867575 
L 110.602602 274.825993 
L 112.123529 264.742827 
L 112.286486 267.306344 
L 113.028844 257.052278 
L 114.305337 260.812102 
L 114.423028 255.343267 
L 115.817211 261.239355 
L 116.437352 252.010695 
L 116.962434 256.197772 
L 117.867748 249.959882 
L 119.148768 259.957596 
L 119.479207 243.892892 
L 119.809647 247.994519 
L 130.546673 247.994519 
L 130.940485 246.454185 
L 132.330142 260.627297 
L 133.280722 255.902926 
L 134.892182 254.614462 
L 135.123037 261.142683 
L 135.272414 255.817029 
L 136.358791 296.27482 
L 136.68923 275.229897 
L 138.219211 261.714089 
L 138.223738 262.054774 
L 138.232791 263.33234 
L 139.758245 262.821314 
L 176.581901 262.821314 
L 177.709017 260.60864 
L 178.111882 267.017431 
L 178.532853 263.343058 
L 178.858766 275.647937 
L 180.443066 265.564772 
L 181.126578 273.853476 
L 181.275955 272.144465 
L 182.670139 289.661828 
L 183.172588 294.105257 
L 184.195593 287.269213 
L 184.580352 288.209169 
L 185.74368 298.975938 
L 186.24613 292.054444 
L 186.834584 302.906664 
L 187.34156 296.497872 
L 187.63126 289.320026 
L 188.91228 294.788861 
L 189.568633 287.952817 
L 190.396995 291.968993 
L 191.587483 300.855851 
L 192.338894 326.234665 
L 192.343421 272.315366 
L 193.46601 290.687235 
L 197.974475 290.620898 
L 198.010688 293.488214 
L 198.662514 298.969848 
L 198.943161 291.126895 
L 200.396191 290.977227 
L 201.052543 302.775998 
L 201.781321 304.208706 
L 202.564418 296.033843 
L 202.81338 297.382274 
L 203.763959 283.645133 
L 204.3841 295.27535 
L 205.275834 274.458947 
L 205.986506 282.128148 
L 206.058931 276.987255 
L 207.276579 281.53821 
L 208.80656 281.53821 
L 209.358801 286.448927 
L 209.417647 246.728168 
L 210.345594 256.679441 
L 211.875575 256.679441 
L 212.192435 261.202267 
L 212.522874 253.376807 
L 218.013605 253.376807 
L 219.271992 252.545446 
L 219.49832 258.063406 
L 219.724649 252.630338 
L 220.376475 270.627376 
L 221.141466 267.82595 
L 221.820451 281.748187 
L 222.671447 275.720877 
L 222.771031 273.34391 
L 227.22065 273.34391 
L 228.021853 276.486393 
L 228.737052 269.228964 
L 228.836636 271.254293 
L 230.181028 261.561872 
L 230.353038 265.195393 
L 230.597472 261.730873 
L 232.928656 260.303415 
L 233.358681 268.098026 
L 233.811338 264.031273 
L 234.16441 270.385575 
L 234.897715 263.946549 
L 235.124043 260.642311 
L 237.387329 262.608744 
L 237.486913 251.362747 
L 237.96673 255.336897 
L 242.570253 255.336897 
L 243.683789 263.616904 
L 244.10476 259.826956 
L 245.440099 264.225117 
L 246.19151 266.158345 
L 246.852389 255.063298 
L 247.630959 257.332739 
L 248.056457 262.291889 
L 248.721863 260.862982 
L 250.084361 251.869269 
L 250.713554 263.384583 
L 251.768245 244.976891 
L 251.777298 245.144998 
L 252.673559 253.550337 
L 253.316332 251.280895 
L 254.461555 234.062563 
L 255.104328 238.601368 
L 255.674676 248.855705 
L 256.380821 241.627238 
L 296.273491 241.627238 
L 297.373448 240.217544 
L 297.798946 245.790791 
L 298.20181 243.257497 
L 299.238395 253.221788 
L 299.595994 253.728447 
L 299.772531 249.337403 
L 300.88154 251.364039 
L 313.153074 251.364039 
L 313.569519 251.81375 
L 314.551785 244.249075 
L 315.660795 242.147777 
L 315.995761 251.225387 
L 316.928235 239.794322 
L 318.639278 249.964608 
L 319.186994 240.13053 
L 319.390689 246.770634 
L 319.639651 240.55079 
L 321.952728 250.605743 
L 322.34654 238.554348 
L 322.3737 239.565654 
L 323.13869 250.268641 
L 324.08927 251.95415 
L 324.283913 240.998337 
L 325.433662 242.599571 
L 331.567165 242.599571 
L 332.870818 244.480071 
L 333.083567 241.78862 
L 333.133359 243.302561 
L 333.866663 239.685925 
L 334.640707 241.03165 
L 337.705196 241.03165 
L 338.26649 240.21824 
L 338.90021 248.6402 
L 339.597302 251.082569 
L 340.063539 245.692514 
L 340.778737 250.156153 
L 342.308718 250.156153 
L 343.358883 266.712932 
L 343.743641 234.062563 
L 343.847752 242.345528 
L 368.399874 242.345528 
L 369.907222 245.934281 
L 370.228608 234.062563 
L 371.206348 246.978824 
L 371.858174 244.854439 
L 373.007923 234.062563 
L 373.92229 246.195358 
L 375.583542 237.202078 
L 375.82345 242.998002 
L 376.122204 239.247698 
L 376.606547 243.679875 
L 377.629552 239.844338 
L 378.104842 244.106046 
L 379.141427 242.7423 
L 434.379173 242.7423 
L 435.189429 243.865532 
L 436.099269 237.217267 
L 437.35313 250.513798 
L 437.593038 239.51859 
L 439.797478 262.787519 
L 441.033232 256.394956 
L 441.77559 266.111651 
L 442.056237 262.105645 
L 443.590744 251.911074 
L 444.496059 260.938918 
L 445.546223 249.377337 
L 446.528489 255.243139 
L 447.402117 261.874046 
L 447.41117 236.455569 
L 449.285171 256.618494 
L 449.692562 249.822015 
L 450.489239 246.253863 
L 451.190857 273.694649 
L 451.607302 275.648637 
L 452.231969 268.342421 
L 453.159916 270.466321 
L 453.802689 279.556612 
L 454.612945 275.563681 
L 455.762694 262.820282 
L 456.532211 268.682245 
L 457.120665 260.016734 
L 458.265888 266.218521 
L 458.917714 247.868027 
L 458.985612 250.756531 
L 459.144042 244.554743 
L 460.470328 250.331751 
L 471.211881 250.331751 
L 473.031562 259.705126 
L 474.267316 248.391179 
L 474.280896 249.582121 
L 475.385379 234.062563 
L 475.874249 234.062563 
L 475.96478 240.764077 
L 477.666771 240.759371 
L 478.404602 234.062563 
L 478.97495 234.062563 
L 479.527192 239.62846 
L 480.418926 238.344022 
L 540.260195 238.344022 
L 540.522736 234.062563 
L 541.016132 240.3938 
L 542.147775 234.062563 
L 543.044036 240.731973 
L 543.433321 234.319078 
L 543.673229 244.57971 
L 544.872771 239.278383 
L 545.501964 251.334625 
L 547.317119 246.289815 
L 547.932733 252.018667 
L 549.421975 242.271068 
L 549.449134 260.654699 
L 549.48082 242.527583 
L 552.128864 241.780657 
L 552.359719 256.203059 
L 552.658473 256.459078 
L 552.975333 245.535602 
L 554.07529 252.960152 
L 557.139778 252.960152 
L 557.434005 255.183539 
L 557.7056 248.99404 
L 558.678812 254.759601 
L 566.346824 254.759601 
L 566.473568 255.880708 
L 566.704423 234.062563 
L 567.962809 252.337582 
L 568.524104 244.722991 
L 568.551264 245.653663 
" clip-path="url(#pabc72a41e3)" style="fill: none; stroke: #7a738c; stroke-width: 1.5; stroke-linecap: square"/>
   </g>
   <g id="patch_13">
    <path d="M 53.328125 330.84327 
L 53.328125 229.453957 
" style="fill: none; stroke: #000000; stroke-width: 0.8; stroke-linejoin: miter; stroke-linecap: square"/>
   </g>
   <g id="patch_14">
    <path d="M 573.652483 330.84327 
L 573.652483 229.453957 
" style="fill: none; stroke: #000000; stroke-width: 0.8; stroke-linejoin: miter; stroke-linecap: square"/>
   </g>
   <g id="patch_15">
    <path d="M 53.328125 330.84327 
L 573.652483 330.84327 
" style="fill: none; stroke: #000000; stroke-width: 0.8; stroke-linejoin: miter; stroke-linecap: square"/>
   </g>
   <g id="patch_16">
    <path d="M 53.328125 229.453957 
L 573.652483 229.453957 
" style="fill: none; stroke: #000000; stroke-width: 0.8; stroke-linejoin: miter; stroke-linecap: square"/>
   </g>
  </g>
 </g>
 <defs>
  <clipPath id="pa870e55408">
   <rect x="53.328125" y="7.2" width="520.324358" height="101.389313"/>
  </clipPath>
  <clipPath id="p35a772f838">
   <rect x="53.328125" y="118.564165" width="520.324358" height="101.389313"/>
  </clipPath>
  <clipPath id="pabc72a41e3">
   <rect x="53.328125" y="229.453957" width="520.324358" height="101.389313"/>
  </clipPath>
 </defs>
</svg>
