<?xml version="1.0" encoding="utf-8" standalone="no"?>
<!DOCTYPE svg PUBLIC "-//W3C//DTD SVG 1.1//EN"
  "http://www.w3.org/Graphics/SVG/1.1/DTD/svg11.dtd">
<svg xmlns:xlink="http://www.w3.org/1999/xlink"   viewBox="0 0 584.399528 368.39952" xmlns="http://www.w3.org/2000/svg" version="1.1" preserveAspectRatio="xMidYMid meet" style="width:100%;height:auto;aspect-ratio:8 / 5;display:block;">
 <metadata>
  <rdf:RDF xmlns:dc="http://purl.org/dc/elements/1.1/" xmlns:cc="http://creativecommons.org/ns#" xmlns:rdf="http://www.w3.org/1999/02/22-rdf-syntax-ns#">
   <cc:Work>
    <dc:type rdf:resource="http://purl.org/dc/dcmitype/StillImage"/>
    <dc:date>2025-10-22T13:49:48.448084</dc:date>
    <dc:format>image/svg+xml</dc:format>
    <dc:creator>
     <cc:Agent>
      <dc:title>Matplotlib v3.10.6, https://matplotlib.org/</dc:title>
     </cc:Agent>
    </dc:creator>
   </cc:Work>
  </rdf:RDF>
 </metadata>
 <defs>
  <style type="text/css">*{stroke-linejoin: round; stroke-linecap: butt}</style>
 </defs>
 <g id="figure_1">
  <g id="patch_1">
   <path d="M 0 368.39952 
L 584.399528 368.39952 
L 584.399528 -0 
L 0 -0 
z
" style="fill: #ffffff"/>
  </g>
  <g id="axes_1">
   <g id="patch_2">
    <path d="M 53.328125 108.433759 
L 573.652483 108.433759 
L 573.652483 7.2 
L 53.328125 7.2 
z
" style="fill: #ffffff"/>
   </g>
   <g id="matplotlib.axis_1">
    <g id="xtick_1">
     <g id="line2d_1">
      <defs>
       <path id="m7a61527ded" d="M 0 0 
L 0 3.5 
" style="stroke: #000000; stroke-width: 0.8"/>
      </defs>
      <g>
       <use xlink:href="#m7a61527ded" x="58.429344" y="108.433759" style="stroke: #000000; stroke-width: 0.8"/>
      </g>
     </g>
    </g>
    <g id="xtick_2">
     <g id="line2d_2">
      <g>
       <use xlink:href="#m7a61527ded" x="92.437669" y="108.433759" style="stroke: #000000; stroke-width: 0.8"/>
      </g>
     </g>
    </g>
    <g id="xtick_3">
     <g id="line2d_3">
      <g>
       <use xlink:href="#m7a61527ded" x="126.445994" y="108.433759" style="stroke: #000000; stroke-width: 0.8"/>
      </g>
     </g>
    </g>
    <g id="xtick_4">
     <g id="line2d_4">
      <g>
       <use xlink:href="#m7a61527ded" x="160.454319" y="108.433759" style="stroke: #000000; stroke-width: 0.8"/>
      </g>
     </g>
    </g>
    <g id="xtick_5">
     <g id="line2d_5">
      <g>
       <use xlink:href="#m7a61527ded" x="194.462643" y="108.433759" style="stroke: #000000; stroke-width: 0.8"/>
      </g>
     </g>
    </g>
    <g id="xtick_6">
     <g id="line2d_6">
      <g>
       <use xlink:href="#m7a61527ded" x="228.470968" y="108.433759" style="stroke: #000000; stroke-width: 0.8"/>
      </g>
     </g>
    </g>
    <g id="xtick_7">
     <g id="line2d_7">
      <g>
       <use xlink:href="#m7a61527ded" x="262.479293" y="108.433759" style="stroke: #000000; stroke-width: 0.8"/>
      </g>
     </g>
    </g>
    <g id="xtick_8">
     <g id="line2d_8">
      <g>
       <use xlink:href="#m7a61527ded" x="296.487618" y="108.433759" style="stroke: #000000; stroke-width: 0.8"/>
      </g>
     </g>
    </g>
    <g id="xtick_9">
     <g id="line2d_9">
      <g>
       <use xlink:href="#m7a61527ded" x="330.495942" y="108.433759" style="stroke: #000000; stroke-width: 0.8"/>
      </g>
     </g>
    </g>
    <g id="xtick_10">
     <g id="line2d_10">
      <g>
       <use xlink:href="#m7a61527ded" x="364.504267" y="108.433759" style="stroke: #000000; stroke-width: 0.8"/>
      </g>
     </g>
    </g>
    <g id="xtick_11">
     <g id="line2d_11">
      <g>
       <use xlink:href="#m7a61527ded" x="398.512592" y="108.433759" style="stroke: #000000; stroke-width: 0.8"/>
      </g>
     </g>
    </g>
    <g id="xtick_12">
     <g id="line2d_12">
      <g>
       <use xlink:href="#m7a61527ded" x="432.520917" y="108.433759" style="stroke: #000000; stroke-width: 0.8"/>
      </g>
     </g>
    </g>
    <g id="xtick_13">
     <g id="line2d_13">
      <g>
       <use xlink:href="#m7a61527ded" x="466.529241" y="108.433759" style="stroke: #000000; stroke-width: 0.8"/>
      </g>
     </g>
    </g>
    <g id="xtick_14">
     <g id="line2d_14">
      <g>
       <use xlink:href="#m7a61527ded" x="500.537566" y="108.433759" style="stroke: #000000; stroke-width: 0.8"/>
      </g>
     </g>
    </g>
    <g id="xtick_15">
     <g id="line2d_15">
      <g>
       <use xlink:href="#m7a61527ded" x="534.545891" y="108.433759" style="stroke: #000000; stroke-width: 0.8"/>
      </g>
     </g>
    </g>
    <g id="xtick_16">
     <g id="line2d_16">
      <g>
       <use xlink:href="#m7a61527ded" x="568.554216" y="108.433759" style="stroke: #000000; stroke-width: 0.8"/>
      </g>
     </g>
    </g>
   </g>
   <g id="matplotlib.axis_2">
    <g id="ytick_1">
     <g id="line2d_17">
      <defs>
       <path id="m1eab3fb48d" d="M 0 0 
L -3.5 0 
" style="stroke: #000000; stroke-width: 0.8"/>
      </defs>
      <g>
       <use xlink:href="#m1eab3fb48d" x="53.328125" y="94.54105" style="stroke: #000000; stroke-width: 0.8"/>
      </g>
     </g>
     <g id="text_1">
      <!-- 0.65 -->
      <g transform="translate(24.0625 98.340268) scale(0.1 -0.1)">
       <defs>
        <path id="DejaVuSans-30" d="M 2034 4250 
Q 1547 4250 1301 3770 
Q 1056 3291 1056 2328 
Q 1056 1369 1301 889 
Q 1547 409 2034 409 
Q 2525 409 2770 889 
Q 3016 1369 3016 2328 
Q 3016 3291 2770 3770 
Q 2525 4250 2034 4250 
z
M 2034 4750 
Q 2819 4750 3233 4129 
Q 3647 3509 3647 2328 
Q 3647 1150 3233 529 
Q 2819 -91 2034 -91 
Q 1250 -91 836 529 
Q 422 1150 422 2328 
Q 422 3509 836 4129 
Q 1250 4750 2034 4750 
z
" transform="scale(0.015625)"/>
        <path id="DejaVuSans-2e" d="M 684 794 
L 1344 794 
L 1344 0 
L 684 0 
L 684 794 
z
" transform="scale(0.015625)"/>
        <path id="DejaVuSans-36" d="M 2113 2584 
Q 1688 2584 1439 2293 
Q 1191 2003 1191 1497 
Q 1191 994 1439 701 
Q 1688 409 2113 409 
Q 2538 409 2786 701 
Q 3034 994 3034 1497 
Q 3034 2003 2786 2293 
Q 2538 2584 2113 2584 
z
M 3366 4563 
L 3366 3988 
Q 3128 4100 2886 4159 
Q 2644 4219 2406 4219 
Q 1781 4219 1451 3797 
Q 1122 3375 1075 2522 
Q 1259 2794 1537 2939 
Q 1816 3084 2150 3084 
Q 2853 3084 3261 2657 
Q 3669 2231 3669 1497 
Q 3669 778 3244 343 
Q 2819 -91 2113 -91 
Q 1303 -91 875 529 
Q 447 1150 447 2328 
Q 447 3434 972 4092 
Q 1497 4750 2381 4750 
Q 2619 4750 2861 4703 
Q 3103 4656 3366 4563 
z
" transform="scale(0.015625)"/>
        <path id="DejaVuSans-35" d="M 691 4666 
L 3169 4666 
L 3169 4134 
L 1269 4134 
L 1269 2991 
Q 1406 3038 1543 3061 
Q 1681 3084 1819 3084 
Q 2600 3084 3056 2656 
Q 3513 2228 3513 1497 
Q 3513 744 3044 326 
Q 2575 -91 1722 -91 
Q 1428 -91 1123 -41 
Q 819 9 494 109 
L 494 744 
Q 775 591 1075 516 
Q 1375 441 1709 441 
Q 2250 441 2565 725 
Q 2881 1009 2881 1497 
Q 2881 1984 2565 2268 
Q 2250 2553 1709 2553 
Q 1456 2553 1204 2497 
Q 953 2441 691 2322 
L 691 4666 
z
" transform="scale(0.015625)"/>
       </defs>
       <use xlink:href="#DejaVuSans-30"/>
       <use xlink:href="#DejaVuSans-2e" transform="translate(63.623047 0)"/>
       <use xlink:href="#DejaVuSans-36" transform="translate(95.410156 0)"/>
       <use xlink:href="#DejaVuSans-35" transform="translate(159.033203 0)"/>
      </g>
     </g>
    </g>
    <g id="ytick_2">
     <g id="line2d_18">
      <g>
       <use xlink:href="#m1eab3fb48d" x="53.328125" y="54.492882" style="stroke: #000000; stroke-width: 0.8"/>
      </g>
     </g>
     <g id="text_2">
      <!-- 0.66 -->
      <g transform="translate(24.0625 58.2921) scale(0.1 -0.1)">
       <use xlink:href="#DejaVuSans-30"/>
       <use xlink:href="#DejaVuSans-2e" transform="translate(63.623047 0)"/>
       <use xlink:href="#DejaVuSans-36" transform="translate(95.410156 0)"/>
       <use xlink:href="#DejaVuSans-36" transform="translate(159.033203 0)"/>
      </g>
     </g>
    </g>
    <g id="ytick_3">
     <g id="line2d_19">
      <g>
       <use xlink:href="#m1eab3fb48d" x="53.328125" y="14.444714" style="stroke: #000000; stroke-width: 0.8"/>
      </g>
     </g>
     <g id="text_3">
      <!-- 0.67 -->
      <g transform="translate(24.0625 18.243932) scale(0.1 -0.1)">
       <defs>
        <path id="DejaVuSans-37" d="M 525 4666 
L 3525 4666 
L 3525 4397 
L 1831 0 
L 1172 0 
L 2766 4134 
L 525 4134 
L 525 4666 
z
" transform="scale(0.015625)"/>
       </defs>
       <use xlink:href="#DejaVuSans-30"/>
       <use xlink:href="#DejaVuSans-2e" transform="translate(63.623047 0)"/>
       <use xlink:href="#DejaVuSans-36" transform="translate(95.410156 0)"/>
       <use xlink:href="#DejaVuSans-37" transform="translate(159.033203 0)"/>
      </g>
     </g>
    </g>
    <g id="text_4">
     <!-- Price -->
     <g transform="translate(14.798438 70.014536) rotate(-90) scale(0.1 -0.1)">
      <defs>
       <path id="DejaVuSans-50" d="M 1259 4147 
L 1259 2394 
L 2053 2394 
Q 2494 2394 2734 2622 
Q 2975 2850 2975 3272 
Q 2975 3691 2734 3919 
Q 2494 4147 2053 4147 
L 1259 4147 
z
M 628 4666 
L 2053 4666 
Q 2838 4666 3239 4311 
Q 3641 3956 3641 3272 
Q 3641 2581 3239 2228 
Q 2838 1875 2053 1875 
L 1259 1875 
L 1259 0 
L 628 0 
L 628 4666 
z
" transform="scale(0.015625)"/>
       <path id="DejaVuSans-72" d="M 2631 2963 
Q 2534 3019 2420 3045 
Q 2306 3072 2169 3072 
Q 1681 3072 1420 2755 
Q 1159 2438 1159 1844 
L 1159 0 
L 581 0 
L 581 3500 
L 1159 3500 
L 1159 2956 
Q 1341 3275 1631 3429 
Q 1922 3584 2338 3584 
Q 2397 3584 2469 3576 
Q 2541 3569 2628 3553 
L 2631 2963 
z
" transform="scale(0.015625)"/>
       <path id="DejaVuSans-69" d="M 603 3500 
L 1178 3500 
L 1178 0 
L 603 0 
L 603 3500 
z
M 603 4863 
L 1178 4863 
L 1178 4134 
L 603 4134 
L 603 4863 
z
" transform="scale(0.015625)"/>
       <path id="DejaVuSans-63" d="M 3122 3366 
L 3122 2828 
Q 2878 2963 2633 3030 
Q 2388 3097 2138 3097 
Q 1578 3097 1268 2742 
Q 959 2388 959 1747 
Q 959 1106 1268 751 
Q 1578 397 2138 397 
Q 2388 397 2633 464 
Q 2878 531 3122 666 
L 3122 134 
Q 2881 22 2623 -34 
Q 2366 -91 2075 -91 
Q 1284 -91 818 406 
Q 353 903 353 1747 
Q 353 2603 823 3093 
Q 1294 3584 2113 3584 
Q 2378 3584 2631 3529 
Q 2884 3475 3122 3366 
z
" transform="scale(0.015625)"/>
       <path id="DejaVuSans-65" d="M 3597 1894 
L 3597 1613 
L 953 1613 
Q 991 1019 1311 708 
Q 1631 397 2203 397 
Q 2534 397 2845 478 
Q 3156 559 3463 722 
L 3463 178 
Q 3153 47 2828 -22 
Q 2503 -91 2169 -91 
Q 1331 -91 842 396 
Q 353 884 353 1716 
Q 353 2575 817 3079 
Q 1281 3584 2069 3584 
Q 2775 3584 3186 3129 
Q 3597 2675 3597 1894 
z
M 3022 2063 
Q 3016 2534 2758 2815 
Q 2500 3097 2075 3097 
Q 1594 3097 1305 2825 
Q 1016 2553 972 2059 
L 3022 2063 
z
" transform="scale(0.015625)"/>
      </defs>
      <use xlink:href="#DejaVuSans-50"/>
      <use xlink:href="#DejaVuSans-72" transform="translate(58.552734 0)"/>
      <use xlink:href="#DejaVuSans-69" transform="translate(99.666016 0)"/>
      <use xlink:href="#DejaVuSans-63" transform="translate(127.449219 0)"/>
      <use xlink:href="#DejaVuSans-65" transform="translate(182.429688 0)"/>
     </g>
    </g>
   </g>
   <g id="line2d_20">
    <path d="M 58.429344 76.719615 
L 59.013272 74.917447 
L 59.57004 80.484143 
L 60.095122 78.80212 
L 60.805794 74.837351 
L 62.453466 75.638314 
L 62.919703 78.601879 
L 63.598688 80.444095 
L 64.562848 73.55581 
L 64.585481 73.836147 
L 65.613012 70.392004 
L 66.273892 71.273064 
L 67.301423 75.07764 
L 67.654496 74.396821 
L 68.840458 71.15292 
L 69.19353 72.154124 
L 69.9721 74.917447 
L 70.850255 74.276677 
L 71.09469 72.754846 
L 73.31271 81.164962 
L 73.317236 68.109259 
L 73.815159 74.516966 
L 73.846845 71.553401 
L 75.449251 71.15292 
L 76.820802 76.239037 
L 76.843435 75.678363 
L 78.310044 79.522987 
L 79.328523 80.524191 
L 79.867184 78.441686 
L 80.469218 77.04 
L 81.030513 94.140568 
L 81.659707 86.971946 
L 82.148576 92.698834 
L 83.271166 89.014403 
L 84.656297 100.748516 
L 85.837732 84.569056 
L 86.068587 85.089682 
L 86.53935 89.454932 
L 87.770577 85.650356 
L 88.748317 89.73527 
L 90.31451 99.707263 
L 90.373356 78.922264 
L 90.893911 88.453728 
L 91.283197 85.930694 
L 92.84939 89.575077 
L 93.587221 84.408863 
L 93.81355 84.529008 
L 94.985932 87.772909 
L 96.072309 85.530212 
L 96.565705 91.177004 
L 97.652082 93.700038 
L 98.312961 82.967129 
L 98.548343 85.850597 
L 99.775044 80.444095 
L 100.055691 84.529008 
L 101.114909 78.601879 
L 101.481561 82.326358 
L 102.563412 74.877399 
L 102.94817 78.401638 
L 104.686373 72.67475 
L 105.197876 77.440482 
L 107.325364 74.396821 
L 107.329891 83.047225 
L 107.796128 79.362794 
L 108.022456 74.957496 
L 109.226524 78.041204 
L 110.068466 74.557014 
L 110.602602 76.919856 
L 112.123529 81.64554 
L 112.286486 80.444095 
L 113.028844 85.249875 
L 114.305337 83.487755 
L 114.423028 86.050838 
L 115.817211 83.287514 
L 116.437352 87.612717 
L 116.962434 85.650356 
L 117.867748 88.573873 
L 119.148768 83.888237 
L 119.777961 93.65999 
L 119.96355 93.820183 
L 120.660642 89.615125 
L 122.177044 90.936715 
L 122.64328 88.293536 
L 124.322638 76.919856 
L 124.327165 103.832225 
L 124.422223 84.569056 
L 126.097054 87.372428 
L 127.156272 83.127322 
L 127.622509 84.248671 
L 127.821678 82.046021 
L 129.908427 83.928285 
L 130.533094 80.924673 
L 130.940485 82.206214 
L 132.330142 75.598266 
L 133.280722 77.800915 
L 134.892182 78.401638 
L 135.123037 75.357977 
L 135.272414 77.840964 
L 136.358791 58.978276 
L 136.829554 73.836147 
L 137.965723 66.387188 
L 138.314269 68.269451 
L 139.803511 74.516966 
L 141.134323 71.593449 
L 141.315386 72.955087 
L 141.319912 70.111667 
L 175.05192 70.111667 
L 176.514002 76.158941 
L 176.704118 75.998748 
L 178.111882 71.913835 
L 178.532853 73.635906 
L 178.858766 67.86897 
L 180.443066 72.594654 
L 181.126578 68.709981 
L 181.275955 69.510945 
L 182.670139 61.30107 
L 183.172588 59.218565 
L 184.195593 62.422419 
L 184.580352 61.981889 
L 185.74368 56.93582 
L 186.24613 60.179722 
L 186.834584 55.093604 
L 187.34156 58.097217 
L 187.63126 61.461263 
L 188.91228 58.89818 
L 189.568633 62.102034 
L 190.396995 60.21977 
L 191.587483 56.05476 
L 192.338894 44.160454 
L 192.343421 69.430848 
L 193.610861 56.93582 
L 194.837561 54.492882 
L 195.484861 57.937024 
L 196.290591 52.690714 
L 197.010316 56.335097 
L 198.010688 51.008691 
L 198.662514 48.40556 
L 199.30076 53.491677 
L 199.979746 54.893363 
L 201.052543 47.083971 
L 201.781321 46.403152 
L 202.564418 50.287824 
L 202.81338 49.647053 
L 203.763959 56.174905 
L 204.3841 50.648258 
L 205.275834 60.540155 
L 206.276206 55.974664 
L 207.240366 60.780444 
L 207.330897 59.619047 
L 208.743188 61.581407 
L 209.345222 68.269451 
L 209.349748 46.523296 
L 211.210169 61.661504 
L 211.830309 59.098421 
L 212.531928 62.342323 
L 213.396503 55.373941 
L 213.455348 56.094808 
L 214.94459 50.127631 
L 215.827271 48.525705 
L 216.438358 55.894568 
L 216.863856 51.329076 
L 217.556421 56.214953 
L 218.420996 50.047535 
L 219.271992 54.052352 
L 219.724649 54.012304 
L 220.376475 45.522092 
L 221.141466 46.843682 
L 221.820451 40.275782 
L 222.671447 43.119202 
L 223.47265 47.083971 
L 224.432283 44.400743 
L 225.419075 49.767198 
L 226.351549 37.752747 
L 226.451133 53.932207 
L 228.021853 45.882526 
L 229.185182 51.289028 
L 229.696685 46.683489 
L 230.353038 48.725945 
L 231.620477 51.208932 
L 231.869439 49.967439 
L 232.747594 53.892159 
L 233.811338 51.889751 
L 234.16441 48.886138 
L 235.323213 54.933412 
L 236.423169 50.407969 
L 237.323957 56.895772 
L 237.749455 42.959009 
L 238.011996 46.363104 
L 239.455972 32.346245 
L 239.555556 33.627786 
L 240.261701 28.781958 
L 241.126277 31.625378 
L 242.945958 28.30138 
L 243.357876 32.946967 
L 245.440099 27.740705 
L 246.19151 26.819598 
L 246.852389 32.105956 
L 247.630959 31.024655 
L 248.056457 28.661813 
L 248.721863 29.342632 
L 250.084361 33.627786 
L 250.713554 28.141187 
L 251.768245 36.911736 
L 251.777298 36.83164 
L 252.673559 32.826823 
L 253.316332 33.908123 
L 254.461555 42.158046 
L 255.674676 35.109568 
L 256.362715 40.355878 
L 256.905903 41.597372 
L 257.793111 35.189665 
L 258.318193 36.351062 
L 258.983599 33.027064 
L 260.314411 29.743114 
L 260.323464 38.113181 
L 260.984344 34.749135 
L 293.204476 34.749135 
L 294.471916 28.74191 
L 294.512655 38.153229 
L 294.802356 38.713903 
L 295.010578 32.386293 
L 296.839312 36.471206 
L 297.798946 31.825619 
L 298.20181 33.027064 
L 299.238395 28.30138 
L 299.595994 28.061091 
L 300.695951 31.224896 
L 301.094289 33.627786 
L 301.945285 27.700657 
L 302.429628 28.261332 
L 303.461686 32.866871 
L 304.244783 32.146004 
L 305.390005 27.059887 
L 305.729498 27.780754 
L 306.42659 32.866871 
L 307.037677 31.625378 
L 307.861513 25.578104 
L 308.78946 28.621765 
L 309.658562 24.536852 
L 311.365079 19.971361 
L 311.383185 32.426341 
L 311.989746 28.781958 
L 312.093857 23.455551 
L 313.52878 24.496804 
L 314.551785 28.30138 
L 315.660795 29.302584 
L 315.995761 24.977382 
L 316.928235 30.423933 
L 318.639278 25.578104 
L 319.186994 30.26374 
L 319.639651 30.063499 
L 320.1421 25.618152 
L 321.952728 23.69584 
L 322.34654 29.422728 
L 322.3737 28.94215 
L 323.13869 23.856033 
L 324.283913 28.261332 
L 325.379343 20.21165 
L 325.64641 21.693432 
L 325.800314 19.370638 
L 328.380459 12.12192 
L 328.452884 31.865667 
L 328.516256 16.126737 
L 328.538889 30.223692 
L 330.707117 18.529627 
L 331.567165 23.415503 
L 331.888552 22.093914 
L 332.323103 25.578104 
L 333.133359 23.015022 
L 333.866663 24.737093 
L 334.79461 23.375455 
L 336.342698 28.061091 
L 337.451708 24.616948 
L 337.759514 27.740705 
L 338.90021 23.015022 
L 340.063539 24.416707 
L 340.64294 21.693432 
L 340.78779 22.294155 
L 341.706684 28.701861 
L 343.358883 11.801535 
L 343.888492 37.672651 
L 345.377733 23.936129 
L 345.38226 44.801225 
L 345.69912 23.4956 
L 346.916768 31.545281 
L 348.39243 37.672651 
L 348.541807 33.507642 
L 348.587072 40.796408 
L 350.058208 35.309809 
L 351.316595 44.68108 
L 351.918628 48.165271 
L 353.005006 36.110773 
L 353.439556 40.195686 
L 354.942378 30.463981 
L 356.11476 35.870484 
L 356.24603 34.709087 
L 357.237349 51.168884 
L 357.794118 43.800021 
L 358.296567 50.728354 
L 359.206408 49.206523 
L 359.930659 45.401948 
L 360.908399 47.32426 
L 361.673389 50.528113 
L 362.420273 44.600984 
L 362.74166 52.57057 
L 364.552288 46.643441 
L 364.823882 51.769606 
L 365.987211 54.492882 
L 366.987583 47.764789 
L 367.815946 54.012304 
L 369.178444 59.298662 
L 369.907222 49.607005 
L 370.255768 56.094808 
L 371.206348 50.007487 
L 371.858174 51.008691 
L 372.98529 57.536542 
L 373.609957 60.179722 
L 373.92229 54.452833 
L 375.130885 54.893363 
L 375.583542 58.577795 
L 376.122204 57.616639 
L 376.606547 55.534134 
L 378.104842 55.333893 
L 379.105214 58.577795 
L 379.372282 55.373941 
L 379.381335 67.027958 
L 412.900593 67.027958 
L 413.615791 45.602188 
L 415.512425 59.418806 
L 415.688961 55.61423 
L 416.589748 61.941841 
L 417.409058 57.616639 
L 417.508642 59.018325 
L 418.260053 55.774423 
L 419.495807 55.734375 
L 420.500706 60.460059 
L 420.686295 64.464876 
L 422.021634 55.734375 
L 422.913368 54.693123 
L 423.587827 57.416398 
L 424.307552 57.576591 
L 424.678731 54.53293 
L 425.176654 57.296253 
L 425.65647 63.383575 
L 426.760954 59.538951 
L 428.209456 55.293845 
L 428.331674 55.854519 
L 429.531215 53.611822 
L 430.39579 63.423623 
L 430.454635 52.650666 
L 432.518752 53.932207 
L 432.822032 55.894568 
L 432.858245 55.013508 
L 434.35654 62.061985 
L 434.768458 61.421215 
L 435.008366 58.778036 
L 436.099269 61.981889 
L 437.35313 55.734375 
L 437.593038 60.900589 
L 439.797478 49.967439 
L 441.033232 52.971051 
L 441.77559 48.40556 
L 442.056237 50.287824 
L 443.559059 55.694327 
L 444.287836 56.695531 
L 444.496059 51.68951 
L 445.546223 57.136061 
L 446.528489 54.372737 
L 447.402117 51.24898 
L 447.41117 63.223382 
L 448.239533 52.690714 
L 449.692562 57.37635 
L 450.489239 59.058373 
L 451.190857 46.122815 
L 451.607302 45.201707 
L 452.231969 48.645849 
L 453.159916 47.644645 
L 453.802689 43.359491 
L 454.612945 45.241755 
L 455.762694 51.24898 
L 456.532211 48.485656 
L 457.120665 52.57057 
L 458.265888 49.647053 
L 458.917714 58.297458 
L 459.687231 61.100829 
L 460.05841 55.854519 
L 460.529173 57.937024 
L 461.534072 64.344731 
L 462.217584 61.541359 
L 464.408445 68.189355 
L 464.77057 57.496494 
L 465.078377 65.185743 
L 466.549513 58.737987 
L 466.730575 60.740396 
L 467.264711 56.655483 
L 468.174552 58.657891 
L 469.387673 54.172496 
L 470.478576 58.377554 
L 471.193774 54.212544 
L 472.194147 60.420011 
L 472.560799 54.372737 
L 473.031562 53.051148 
L 474.267316 58.377554 
L 474.280896 57.81688 
L 475.68866 72.354365 
L 475.96478 69.3908 
L 477.254853 77.160145 
L 477.666771 74.036388 
L 479.395921 84.128526 
L 480.360081 79.763276 
L 481.410245 98.225481 
L 481.604888 64.705165 
L 482.089231 65.185743 
L 482.102811 92.578689 
L 483.628265 82.126118 
L 484.252932 78.641927 
L 485.12656 79.763276 
L 485.389101 76.59947 
L 487.389846 76.999952 
L 488.082411 79.002361 
L 488.539595 78.241445 
L 489.100889 84.04843 
L 489.684817 80.083661 
L 491.097107 86.251079 
L 491.241957 86.211031 
L 492.409813 78.80212 
L 493.066166 81.245058 
L 494.062011 75.638314 
L 494.333605 78.722023 
L 495.596519 74.396821 
L 496.438461 75.9587 
L 496.977123 73.916243 
L 497.710427 73.836147 
L 498.398466 79.643131 
L 498.833017 77.04 
L 531.053149 77.04 
L 532.501652 78.962312 
L 532.519758 70.392004 
L 532.75514 72.794894 
L 532.91357 78.001156 
L 535.190435 71.393209 
L 535.543508 75.398025 
L 535.973532 73.515761 
L 536.915059 68.549789 
L 537.195706 69.350752 
L 538.019542 65.105646 
L 539.522364 68.870174 
L 540.16061 65.225791 
L 540.391465 65.385983 
L 540.540842 68.95027 
L 541.821862 67.228199 
L 542.727176 70.552197 
L 543.433321 70.432053 
L 543.673229 65.626272 
L 544.872771 68.109259 
L 545.501964 62.462467 
L 547.317119 64.825309 
L 547.932733 62.142082 
L 549.421975 66.707573 
L 549.449134 58.097217 
L 549.48082 66.587428 
L 552.128864 65.986706 
L 552.359719 59.218565 
L 552.975333 64.224586 
L 554.039077 56.535338 
L 554.727116 60.460059 
L 555.333676 50.888547 
L 555.668643 51.168884 
L 556.999454 62.702756 
L 557.166938 55.293845 
L 557.768972 49.086379 
L 558.751237 49.166475 
L 559.475489 52.890955 
L 561.086948 51.208932 
L 561.63919 45.241755 
L 562.051108 43.079154 
L 562.698407 50.648258 
L 564.101644 45.762381 
L 564.712731 48.966234 
L 564.948113 47.32426 
L 565.835321 49.847294 
L 566.432828 58.537747 
L 566.437355 38.193277 
L 568.524104 50.568161 
L 568.551264 50.127631 
" clip-path="url(#pc95ce85a7a)" style="fill: none; stroke: #4169e1; stroke-width: 1.5; stroke-linecap: square"/>
   </g>
   <g id="patch_3">
    <path d="M 53.328125 108.433759 
L 53.328125 7.2 
" style="fill: none; stroke: #000000; stroke-width: 0.8; stroke-linejoin: miter; stroke-linecap: square"/>
   </g>
   <g id="patch_4">
    <path d="M 573.652483 108.433759 
L 573.652483 7.2 
" style="fill: none; stroke: #000000; stroke-width: 0.8; stroke-linejoin: miter; stroke-linecap: square"/>
   </g>
   <g id="patch_5">
    <path d="M 53.328125 108.433759 
L 573.652483 108.433759 
" style="fill: none; stroke: #000000; stroke-width: 0.8; stroke-linejoin: miter; stroke-linecap: square"/>
   </g>
   <g id="patch_6">
    <path d="M 53.328125 7.2 
L 573.652483 7.2 
" style="fill: none; stroke: #000000; stroke-width: 0.8; stroke-linejoin: miter; stroke-linecap: square"/>
   </g>
  </g>
  <g id="axes_2">
   <g id="patch_7">
    <path d="M 53.328125 220.109031 
L 573.652483 220.109031 
L 573.652483 118.875272 
L 53.328125 118.875272 
z
" style="fill: #ffffff"/>
   </g>
   <g id="matplotlib.axis_3">
    <g id="xtick_17">
     <g id="line2d_21">
      <g>
       <use xlink:href="#m7a61527ded" x="58.429344" y="220.109031" style="stroke: #000000; stroke-width: 0.8"/>
      </g>
     </g>
    </g>
    <g id="xtick_18">
     <g id="line2d_22">
      <g>
       <use xlink:href="#m7a61527ded" x="92.437669" y="220.109031" style="stroke: #000000; stroke-width: 0.8"/>
      </g>
     </g>
    </g>
    <g id="xtick_19">
     <g id="line2d_23">
      <g>
       <use xlink:href="#m7a61527ded" x="126.445994" y="220.109031" style="stroke: #000000; stroke-width: 0.8"/>
      </g>
     </g>
    </g>
    <g id="xtick_20">
     <g id="line2d_24">
      <g>
       <use xlink:href="#m7a61527ded" x="160.454319" y="220.109031" style="stroke: #000000; stroke-width: 0.8"/>
      </g>
     </g>
    </g>
    <g id="xtick_21">
     <g id="line2d_25">
      <g>
       <use xlink:href="#m7a61527ded" x="194.462643" y="220.109031" style="stroke: #000000; stroke-width: 0.8"/>
      </g>
     </g>
    </g>
    <g id="xtick_22">
     <g id="line2d_26">
      <g>
       <use xlink:href="#m7a61527ded" x="228.470968" y="220.109031" style="stroke: #000000; stroke-width: 0.8"/>
      </g>
     </g>
    </g>
    <g id="xtick_23">
     <g id="line2d_27">
      <g>
       <use xlink:href="#m7a61527ded" x="262.479293" y="220.109031" style="stroke: #000000; stroke-width: 0.8"/>
      </g>
     </g>
    </g>
    <g id="xtick_24">
     <g id="line2d_28">
      <g>
       <use xlink:href="#m7a61527ded" x="296.487618" y="220.109031" style="stroke: #000000; stroke-width: 0.8"/>
      </g>
     </g>
    </g>
    <g id="xtick_25">
     <g id="line2d_29">
      <g>
       <use xlink:href="#m7a61527ded" x="330.495942" y="220.109031" style="stroke: #000000; stroke-width: 0.8"/>
      </g>
     </g>
    </g>
    <g id="xtick_26">
     <g id="line2d_30">
      <g>
       <use xlink:href="#m7a61527ded" x="364.504267" y="220.109031" style="stroke: #000000; stroke-width: 0.8"/>
      </g>
     </g>
    </g>
    <g id="xtick_27">
     <g id="line2d_31">
      <g>
       <use xlink:href="#m7a61527ded" x="398.512592" y="220.109031" style="stroke: #000000; stroke-width: 0.8"/>
      </g>
     </g>
    </g>
    <g id="xtick_28">
     <g id="line2d_32">
      <g>
       <use xlink:href="#m7a61527ded" x="432.520917" y="220.109031" style="stroke: #000000; stroke-width: 0.8"/>
      </g>
     </g>
    </g>
    <g id="xtick_29">
     <g id="line2d_33">
      <g>
       <use xlink:href="#m7a61527ded" x="466.529241" y="220.109031" style="stroke: #000000; stroke-width: 0.8"/>
      </g>
     </g>
    </g>
    <g id="xtick_30">
     <g id="line2d_34">
      <g>
       <use xlink:href="#m7a61527ded" x="500.537566" y="220.109031" style="stroke: #000000; stroke-width: 0.8"/>
      </g>
     </g>
    </g>
    <g id="xtick_31">
     <g id="line2d_35">
      <g>
       <use xlink:href="#m7a61527ded" x="534.545891" y="220.109031" style="stroke: #000000; stroke-width: 0.8"/>
      </g>
     </g>
    </g>
    <g id="xtick_32">
     <g id="line2d_36">
      <g>
       <use xlink:href="#m7a61527ded" x="568.554216" y="220.109031" style="stroke: #000000; stroke-width: 0.8"/>
      </g>
     </g>
    </g>
   </g>
   <g id="matplotlib.axis_4">
    <g id="ytick_4">
     <g id="line2d_37">
      <g>
       <use xlink:href="#m1eab3fb48d" x="53.328125" y="216.534166" style="stroke: #000000; stroke-width: 0.8"/>
      </g>
     </g>
     <g id="text_5">
      <!-- 990 -->
      <g transform="translate(27.240625 220.333385) scale(0.1 -0.1)">
       <defs>
        <path id="DejaVuSans-39" d="M 703 97 
L 703 672 
Q 941 559 1184 500 
Q 1428 441 1663 441 
Q 2288 441 2617 861 
Q 2947 1281 2994 2138 
Q 2813 1869 2534 1725 
Q 2256 1581 1919 1581 
Q 1219 1581 811 2004 
Q 403 2428 403 3163 
Q 403 3881 828 4315 
Q 1253 4750 1959 4750 
Q 2769 4750 3195 4129 
Q 3622 3509 3622 2328 
Q 3622 1225 3098 567 
Q 2575 -91 1691 -91 
Q 1453 -91 1209 -44 
Q 966 3 703 97 
z
M 1959 2075 
Q 2384 2075 2632 2365 
Q 2881 2656 2881 3163 
Q 2881 3666 2632 3958 
Q 2384 4250 1959 4250 
Q 1534 4250 1286 3958 
Q 1038 3666 1038 3163 
Q 1038 2656 1286 2365 
Q 1534 2075 1959 2075 
z
" transform="scale(0.015625)"/>
       </defs>
       <use xlink:href="#DejaVuSans-39"/>
       <use xlink:href="#DejaVuSans-39" transform="translate(63.623047 0)"/>
       <use xlink:href="#DejaVuSans-30" transform="translate(127.246094 0)"/>
      </g>
     </g>
    </g>
    <g id="ytick_5">
     <g id="line2d_38">
      <g>
       <use xlink:href="#m1eab3fb48d" x="53.328125" y="192.833987" style="stroke: #000000; stroke-width: 0.8"/>
      </g>
     </g>
     <g id="text_6">
      <!-- 1000 -->
      <g transform="translate(20.878125 196.633205) scale(0.1 -0.1)">
       <defs>
        <path id="DejaVuSans-31" d="M 794 531 
L 1825 531 
L 1825 4091 
L 703 3866 
L 703 4441 
L 1819 4666 
L 2450 4666 
L 2450 531 
L 3481 531 
L 3481 0 
L 794 0 
L 794 531 
z
" transform="scale(0.015625)"/>
       </defs>
       <use xlink:href="#DejaVuSans-31"/>
       <use xlink:href="#DejaVuSans-30" transform="translate(63.623047 0)"/>
       <use xlink:href="#DejaVuSans-30" transform="translate(127.246094 0)"/>
       <use xlink:href="#DejaVuSans-30" transform="translate(190.869141 0)"/>
      </g>
     </g>
    </g>
    <g id="ytick_6">
     <g id="line2d_39">
      <g>
       <use xlink:href="#m1eab3fb48d" x="53.328125" y="169.133807" style="stroke: #000000; stroke-width: 0.8"/>
      </g>
     </g>
     <g id="text_7">
      <!-- 1010 -->
      <g transform="translate(20.878125 172.933025) scale(0.1 -0.1)">
       <use xlink:href="#DejaVuSans-31"/>
       <use xlink:href="#DejaVuSans-30" transform="translate(63.623047 0)"/>
       <use xlink:href="#DejaVuSans-31" transform="translate(127.246094 0)"/>
       <use xlink:href="#DejaVuSans-30" transform="translate(190.869141 0)"/>
      </g>
     </g>
    </g>
    <g id="ytick_7">
     <g id="line2d_40">
      <g>
       <use xlink:href="#m1eab3fb48d" x="53.328125" y="145.433627" style="stroke: #000000; stroke-width: 0.8"/>
      </g>
     </g>
     <g id="text_8">
      <!-- 1020 -->
      <g transform="translate(20.878125 149.232846) scale(0.1 -0.1)">
       <defs>
        <path id="DejaVuSans-32" d="M 1228 531 
L 3431 531 
L 3431 0 
L 469 0 
L 469 531 
Q 828 903 1448 1529 
Q 2069 2156 2228 2338 
Q 2531 2678 2651 2914 
Q 2772 3150 2772 3378 
Q 2772 3750 2511 3984 
Q 2250 4219 1831 4219 
Q 1534 4219 1204 4116 
Q 875 4013 500 3803 
L 500 4441 
Q 881 4594 1212 4672 
Q 1544 4750 1819 4750 
Q 2544 4750 2975 4387 
Q 3406 4025 3406 3419 
Q 3406 3131 3298 2873 
Q 3191 2616 2906 2266 
Q 2828 2175 2409 1742 
Q 1991 1309 1228 531 
z
" transform="scale(0.015625)"/>
       </defs>
       <use xlink:href="#DejaVuSans-31"/>
       <use xlink:href="#DejaVuSans-30" transform="translate(63.623047 0)"/>
       <use xlink:href="#DejaVuSans-32" transform="translate(127.246094 0)"/>
       <use xlink:href="#DejaVuSans-30" transform="translate(190.869141 0)"/>
      </g>
     </g>
    </g>
    <g id="ytick_8">
     <g id="line2d_41">
      <g>
       <use xlink:href="#m1eab3fb48d" x="53.328125" y="121.733447" style="stroke: #000000; stroke-width: 0.8"/>
      </g>
     </g>
     <g id="text_9">
      <!-- 1030 -->
      <g transform="translate(20.878125 125.532666) scale(0.1 -0.1)">
       <defs>
        <path id="DejaVuSans-33" d="M 2597 2516 
Q 3050 2419 3304 2112 
Q 3559 1806 3559 1356 
Q 3559 666 3084 287 
Q 2609 -91 1734 -91 
Q 1441 -91 1130 -33 
Q 819 25 488 141 
L 488 750 
Q 750 597 1062 519 
Q 1375 441 1716 441 
Q 2309 441 2620 675 
Q 2931 909 2931 1356 
Q 2931 1769 2642 2001 
Q 2353 2234 1838 2234 
L 1294 2234 
L 1294 2753 
L 1863 2753 
Q 2328 2753 2575 2939 
Q 2822 3125 2822 3475 
Q 2822 3834 2567 4026 
Q 2313 4219 1838 4219 
Q 1578 4219 1281 4162 
Q 984 4106 628 3988 
L 628 4550 
Q 988 4650 1302 4700 
Q 1616 4750 1894 4750 
Q 2613 4750 3031 4423 
Q 3450 4097 3450 3541 
Q 3450 3153 3228 2886 
Q 3006 2619 2597 2516 
z
" transform="scale(0.015625)"/>
       </defs>
       <use xlink:href="#DejaVuSans-31"/>
       <use xlink:href="#DejaVuSans-30" transform="translate(63.623047 0)"/>
       <use xlink:href="#DejaVuSans-33" transform="translate(127.246094 0)"/>
       <use xlink:href="#DejaVuSans-30" transform="translate(190.869141 0)"/>
      </g>
     </g>
    </g>
    <g id="text_10">
     <!-- Equity -->
     <g transform="translate(14.798438 185.303089) rotate(-90) scale(0.1 -0.1)">
      <defs>
       <path id="DejaVuSans-45" d="M 628 4666 
L 3578 4666 
L 3578 4134 
L 1259 4134 
L 1259 2753 
L 3481 2753 
L 3481 2222 
L 1259 2222 
L 1259 531 
L 3634 531 
L 3634 0 
L 628 0 
L 628 4666 
z
" transform="scale(0.015625)"/>
       <path id="DejaVuSans-71" d="M 947 1747 
Q 947 1113 1208 752 
Q 1469 391 1925 391 
Q 2381 391 2643 752 
Q 2906 1113 2906 1747 
Q 2906 2381 2643 2742 
Q 2381 3103 1925 3103 
Q 1469 3103 1208 2742 
Q 947 2381 947 1747 
z
M 2906 525 
Q 2725 213 2448 61 
Q 2172 -91 1784 -91 
Q 1150 -91 751 415 
Q 353 922 353 1747 
Q 353 2572 751 3078 
Q 1150 3584 1784 3584 
Q 2172 3584 2448 3432 
Q 2725 3281 2906 2969 
L 2906 3500 
L 3481 3500 
L 3481 -1331 
L 2906 -1331 
L 2906 525 
z
" transform="scale(0.015625)"/>
       <path id="DejaVuSans-75" d="M 544 1381 
L 544 3500 
L 1119 3500 
L 1119 1403 
Q 1119 906 1312 657 
Q 1506 409 1894 409 
Q 2359 409 2629 706 
Q 2900 1003 2900 1516 
L 2900 3500 
L 3475 3500 
L 3475 0 
L 2900 0 
L 2900 538 
Q 2691 219 2414 64 
Q 2138 -91 1772 -91 
Q 1169 -91 856 284 
Q 544 659 544 1381 
z
M 1991 3584 
L 1991 3584 
z
" transform="scale(0.015625)"/>
       <path id="DejaVuSans-74" d="M 1172 4494 
L 1172 3500 
L 2356 3500 
L 2356 3053 
L 1172 3053 
L 1172 1153 
Q 1172 725 1289 603 
Q 1406 481 1766 481 
L 2356 481 
L 2356 0 
L 1766 0 
Q 1100 0 847 248 
Q 594 497 594 1153 
L 594 3053 
L 172 3053 
L 172 3500 
L 594 3500 
L 594 4494 
L 1172 4494 
z
" transform="scale(0.015625)"/>
       <path id="DejaVuSans-79" d="M 2059 -325 
Q 1816 -950 1584 -1140 
Q 1353 -1331 966 -1331 
L 506 -1331 
L 506 -850 
L 844 -850 
Q 1081 -850 1212 -737 
Q 1344 -625 1503 -206 
L 1606 56 
L 191 3500 
L 800 3500 
L 1894 763 
L 2988 3500 
L 3597 3500 
L 2059 -325 
z
" transform="scale(0.015625)"/>
      </defs>
      <use xlink:href="#DejaVuSans-45"/>
      <use xlink:href="#DejaVuSans-71" transform="translate(63.183594 0)"/>
      <use xlink:href="#DejaVuSans-75" transform="translate(126.660156 0)"/>
      <use xlink:href="#DejaVuSans-69" transform="translate(190.039062 0)"/>
      <use xlink:href="#DejaVuSans-74" transform="translate(217.822266 0)"/>
      <use xlink:href="#DejaVuSans-79" transform="translate(257.03125 0)"/>
     </g>
    </g>
   </g>
   <g id="line2d_42">
    <path d="M 58.429344 192.833987 
L 59.013272 194.503135 
L 59.57004 189.469406 
L 60.095122 190.990389 
L 60.805794 194.575562 
L 62.453466 193.851285 
L 62.919703 191.171458 
L 63.073606 191.968163 
L 64.562848 196.74959 
L 64.585481 196.496259 
L 65.613012 199.608614 
L 66.273892 198.81243 
L 67.301423 195.374364 
L 67.654496 195.989596 
L 68.840458 198.921001 
L 69.19353 198.016246 
L 69.9721 195.519124 
L 70.850255 196.098167 
L 71.09469 197.473394 
L 73.31271 189.873457 
L 73.317236 201.671454 
L 73.815159 195.881026 
L 73.846845 198.559099 
L 75.449251 198.921001 
L 76.820802 194.324848 
L 76.843435 194.831511 
L 78.310044 191.357254 
L 78.749121 190.922972 
L 79.858131 193.93454 
L 80.469218 194.661696 
L 81.030513 179.198372 
L 81.474117 182.059268 
L 82.352272 185.987096 
L 83.271166 183.065338 
L 84.656297 193.766277 
L 85.837732 179.011399 
L 86.068587 179.486184 
L 86.53935 183.46708 
L 87.770577 179.997492 
L 88.748317 183.722734 
L 89.2055 181.933157 
L 90.504626 177.47608 
L 90.893911 180.76519 
L 91.283197 178.462813 
L 92.441999 179.193726 
L 92.84939 181.788469 
L 93.81355 181.825786 
L 94.985932 178.869426 
L 96.072309 180.913329 
L 96.565705 175.767072 
L 97.652082 173.467681 
L 98.312961 183.249219 
L 98.548343 180.621343 
L 99.775044 185.54861 
L 100.055691 181.825786 
L 101.114909 187.227531 
L 101.481561 183.833191 
L 102.563412 190.621871 
L 102.94817 187.410023 
L 103.337455 191.169345 
L 105.197876 189.866099 
L 105.501156 192.004116 
L 107.325364 192.620154 
L 107.329891 184.792838 
L 107.773495 191.206889 
L 107.796128 188.126695 
L 109.226524 189.760992 
L 110.068466 192.917785 
L 110.602602 190.776971 
L 112.123529 186.495344 
L 112.286486 187.583893 
L 113.028844 183.229696 
L 114.305337 184.826235 
L 114.423028 182.503997 
L 115.817211 185.00766 
L 116.437352 181.088883 
L 116.962434 182.866847 
L 117.867748 180.218043 
L 119.148768 184.463386 
L 119.479207 177.64181 
L 119.96355 181.104858 
L 120.660642 177.260097 
L 122.177044 178.46845 
L 122.64328 176.051743 
L 124.322638 165.652578 
L 124.327165 190.259053 
L 125.04689 182.319284 
L 126.097054 183.268239 
L 126.486339 180.822855 
L 127.482185 181.625817 
L 130.546673 181.625817 
L 130.940485 180.972172 
L 132.330142 186.986567 
L 133.280722 184.981769 
L 134.892182 184.435006 
L 135.123037 187.205272 
L 135.272414 184.945318 
L 136.358791 202.113681 
L 136.68923 193.183216 
L 138.314269 184.052433 
L 139.803511 189.701798 
L 140.183743 187.782463 
L 141.292753 188.615382 
L 176.581901 188.615382 
L 177.709017 187.677039 
L 178.111882 190.394857 
L 178.532853 188.836641 
L 178.858766 194.054852 
L 180.443066 189.778818 
L 181.126578 193.293863 
L 181.275955 192.569111 
L 182.670139 199.997814 
L 183.172588 201.882168 
L 184.195593 198.983162 
L 184.580352 199.381775 
L 185.74368 203.94771 
L 186.24613 201.012466 
L 186.834584 205.614638 
L 187.34156 202.89682 
L 187.63126 199.852864 
L 188.91228 202.172069 
L 189.568633 199.273063 
L 190.396995 200.976229 
L 191.587483 204.744937 
L 192.338894 215.507496 
L 192.343421 192.641586 
L 193.610861 199.43573 
L 194.068044 197.930674 
L 195.724769 198.726183 
L 196.005417 194.710045 
L 197.974475 195.076299 
L 198.010688 196.294678 
L 198.662514 198.623932 
L 198.943161 195.291307 
L 200.396191 195.22771 
L 201.052543 200.241246 
L 201.781321 200.850032 
L 202.564418 197.376368 
L 202.81338 197.949343 
L 203.763959 192.112155 
L 204.3841 197.054069 
L 205.275834 188.208759 
L 205.986506 191.467558 
L 206.058931 189.283088 
L 207.276579 191.216881 
L 208.80656 191.216881 
L 209.358801 193.304921 
L 209.417647 176.415628 
L 210.390859 180.978468 
L 210.69414 179.676475 
L 212.192435 182.829201 
L 212.522874 179.501885 
L 216.479097 179.501885 
L 217.556421 180.952803 
L 218.009078 177.487648 
L 219.271992 177.314403 
L 219.49832 179.662143 
L 219.724649 177.350522 
L 220.376475 185.007766 
L 221.141466 183.815836 
L 221.820451 189.739365 
L 222.671447 187.17491 
L 222.771031 186.163576 
L 225.686143 186.163576 
L 227.007902 186.782325 
L 227.179911 185.021781 
L 228.021853 185.820788 
L 228.737052 182.730853 
L 228.836636 183.59316 
L 230.181028 179.474512 
L 230.597472 179.546465 
L 230.828328 181.786047 
L 232.928656 179.307814 
L 233.358681 182.624228 
L 233.811338 180.893925 
L 234.16441 183.597523 
L 235.323213 181.226696 
L 235.581227 178.737751 
L 237.387329 179.647117 
L 237.486913 174.859041 
L 238.12516 177.02813 
L 239.455972 164.815901 
L 239.555556 165.968678 
L 240.261701 161.609741 
L 241.126277 164.167465 
L 242.945958 161.17745 
L 243.683789 164.975927 
L 244.403514 162.139303 
L 245.440099 164.492618 
L 246.19151 165.321176 
L 246.852389 160.565972 
L 247.630959 161.538627 
L 248.056457 163.66406 
L 248.721863 163.051647 
L 250.084361 159.19705 
L 250.713554 164.132375 
L 251.768245 156.243059 
L 251.777298 156.315108 
L 252.673559 159.917535 
L 253.316332 158.94488 
L 254.461555 151.523879 
L 255.104328 153.46919 
L 255.674676 157.864151 
L 256.380821 154.766064 
L 296.273491 154.766064 
L 297.373448 154.161905 
L 297.798946 156.550457 
L 298.20181 155.464751 
L 299.238395 159.735192 
L 299.595994 159.952333 
L 299.772531 158.070444 
L 300.88154 158.939008 
L 302.411521 158.939008 
L 303.461686 161.186916 
L 303.941502 157.868322 
L 304.244783 160.537625 
L 305.390005 155.956523 
L 305.485063 156.569741 
L 311.618567 156.569741 
L 312.025958 158.3123 
L 312.093857 154.347023 
L 313.569519 156.883013 
L 314.551785 153.638695 
L 315.660795 152.737496 
L 315.995761 156.630677 
L 316.928235 151.728152 
L 318.639278 156.089957 
L 319.186994 151.872344 
L 319.390689 154.720134 
L 319.639651 152.052584 
L 321.952728 156.364807 
L 322.34654 151.196391 
L 322.3737 151.630104 
L 323.13869 156.220236 
L 324.08927 156.943092 
L 324.283913 152.244531 
L 325.433662 152.931244 
L 330.037184 152.931244 
L 331.567165 154.314051 
L 331.612431 155.539682 
L 331.888552 153.124468 
L 333.133359 154.36321 
L 333.866663 152.812128 
L 334.640707 153.389274 
L 337.705196 153.389274 
L 338.26649 153.040429 
L 338.90021 156.652337 
L 339.597302 157.69979 
L 340.063539 155.388169 
L 340.778737 157.30248 
L 342.308718 157.30248 
L 343.358883 164.398788 
L 343.793434 144.121198 
L 343.888492 149.760788 
L 345.377733 137.306912 
L 345.38226 156.223732 
L 345.69912 136.907517 
L 347.364898 144.107829 
L 348.39243 149.267026 
L 348.541807 145.488459 
L 348.587072 152.100951 
L 350.053681 147.268745 
L 351.316595 152.008026 
L 351.918628 155.173067 
L 353.005006 144.222754 
L 353.439556 147.933491 
L 354.942378 139.093206 
L 356.11476 144.004475 
L 356.24603 142.949462 
L 357.237349 157.90155 
L 357.794118 151.207671 
L 358.296567 157.501372 
L 359.206408 156.118941 
L 359.930659 152.662862 
L 360.908399 154.409091 
L 361.673389 157.319473 
L 362.420273 151.935266 
L 362.74166 159.174842 
L 364.552288 153.790635 
L 364.823882 158.447246 
L 365.987211 160.921071 
L 366.987583 154.809269 
L 367.815946 160.484514 
L 369.178444 165.286644 
L 369.689946 158.665525 
L 370.255768 154.307905 
L 371.206348 159.83763 
L 371.858174 158.928136 
L 372.98529 152.998233 
L 373.609957 150.597167 
L 373.92229 155.799475 
L 375.583542 151.944343 
L 375.82345 154.427837 
L 376.122204 152.82087 
L 376.606547 154.720013 
L 377.629552 153.076524 
L 378.104842 154.902623 
L 379.141427 154.318271 
L 429.77565 154.318271 
L 430.902766 155.23775 
L 431.142674 153.084352 
L 431.468587 154.069805 
L 431.513853 153.522331 
L 432.849192 154.069805 
L 434.379173 154.069805 
L 435.189429 154.551412 
L 436.099269 151.700849 
L 437.35313 157.401975 
L 437.593038 152.687582 
L 439.797478 162.664552 
L 441.033232 159.923626 
L 441.77559 164.089833 
L 442.056237 162.372187 
L 443.590744 158.00217 
L 444.496059 161.873086 
L 445.546223 156.915766 
L 446.528489 159.430877 
L 447.402117 162.274045 
L 447.41117 151.375233 
L 449.285171 160.0206 
L 449.692562 157.106426 
L 450.489239 155.576484 
L 451.190857 167.342462 
L 451.607302 168.180287 
L 452.231969 165.04755 
L 453.159916 165.958229 
L 453.802689 169.855937 
L 454.612945 168.14386 
L 455.762694 162.679784 
L 456.532211 165.193259 
L 457.120665 161.477687 
L 458.265888 164.136871 
L 459.144042 154.847941 
L 459.687231 161.343991 
L 460.529173 158.462499 
L 461.534072 164.298432 
L 462.217584 161.745211 
L 464.408445 167.799991 
L 464.77057 158.061279 
L 465.078377 165.064398 
L 466.549513 159.191991 
L 466.730575 161.01572 
L 467.264711 157.295313 
L 468.174552 159.119042 
L 469.387673 155.033889 
L 469.690953 155.252737 
L 469.767905 156.492872 
L 471.87276 155.842962 
L 472.560799 160.483268 
L 473.031562 161.686929 
L 474.267316 156.83581 
L 474.280896 157.346454 
L 475.68866 144.106183 
L 475.96478 146.805302 
L 477.254853 140.038746 
L 477.666771 142.922584 
L 478.866312 136.230601 
L 479.137907 136.970047 
L 479.395921 133.605569 
L 481.81311 145.879638 
L 481.944381 126.406978 
L 482.089231 123.476806 
L 482.102811 148.846901 
L 483.628265 139.166207 
L 484.252932 135.939309 
L 485.12656 136.977851 
L 485.389101 134.047679 
L 487.389846 134.418587 
L 488.082411 136.273126 
L 488.539595 135.568401 
L 489.100889 140.946564 
L 489.684817 137.274577 
L 491.097107 142.986557 
L 491.241957 142.949466 
L 492.409813 136.087672 
L 492.694987 137.237486 
L 492.84889 134.381496 
L 494.229494 134.529859 
L 540.260195 134.529859 
L 540.540842 132.207382 
L 541.016132 134.941577 
L 541.821862 133.796171 
L 542.727176 130.729439 
L 543.433321 130.840285 
L 543.673229 135.274114 
L 544.872771 132.983302 
L 545.501964 138.193052 
L 547.317119 136.013086 
L 547.932733 138.488641 
L 549.421975 134.276503 
L 549.449134 142.220447 
L 549.48082 134.387348 
L 552.128864 134.697127 
L 552.359719 140.929421 
L 552.658473 141.040054 
L 552.975333 136.319736 
L 554.07529 139.528077 
L 555.605271 139.528077 
L 557.013034 140.453978 
L 557.166938 135.635447 
L 557.7056 132.004381 
L 558.678812 134.50238 
L 566.346824 134.50238 
L 566.473568 134.988122 
L 566.704423 125.088794 
L 567.962809 133.008257 
L 568.524104 129.70848 
L 568.551264 130.111786 
" clip-path="url(#p497a69f0c9)" style="fill: none; stroke: #2e8b57; stroke-width: 1.5; stroke-linecap: square"/>
   </g>
   <g id="patch_8">
    <path d="M 53.328125 220.109031 
L 53.328125 118.875272 
" style="fill: none; stroke: #000000; stroke-width: 0.8; stroke-linejoin: miter; stroke-linecap: square"/>
   </g>
   <g id="patch_9">
    <path d="M 573.652483 220.109031 
L 573.652483 118.875272 
" style="fill: none; stroke: #000000; stroke-width: 0.8; stroke-linejoin: miter; stroke-linecap: square"/>
   </g>
   <g id="patch_10">
    <path d="M 53.328125 220.109031 
L 573.652483 220.109031 
" style="fill: none; stroke: #000000; stroke-width: 0.8; stroke-linejoin: miter; stroke-linecap: square"/>
   </g>
   <g id="patch_11">
    <path d="M 53.328125 118.875272 
L 573.652483 118.875272 
" style="fill: none; stroke: #000000; stroke-width: 0.8; stroke-linejoin: miter; stroke-linecap: square"/>
   </g>
  </g>
  <g id="axes_3">
   <g id="patch_12">
    <path d="M 53.328125 330.84327 
L 573.652483 330.84327 
L 573.652483 229.609511 
L 53.328125 229.609511 
z
" style="fill: #ffffff"/>
   </g>
   <g id="matplotlib.axis_5">
    <g id="xtick_33">
     <g id="line2d_43">
      <g>
       <use xlink:href="#m7a61527ded" x="58.429344" y="330.84327" style="stroke: #000000; stroke-width: 0.8"/>
      </g>
     </g>
     <g id="text_11">
      <!-- Sep -->
      <g transform="translate(49.004344 345.441707) scale(0.1 -0.1)">
       <defs>
        <path id="DejaVuSans-53" d="M 3425 4513 
L 3425 3897 
Q 3066 4069 2747 4153 
Q 2428 4238 2131 4238 
Q 1616 4238 1336 4038 
Q 1056 3838 1056 3469 
Q 1056 3159 1242 3001 
Q 1428 2844 1947 2747 
L 2328 2669 
Q 3034 2534 3370 2195 
Q 3706 1856 3706 1288 
Q 3706 609 3251 259 
Q 2797 -91 1919 -91 
Q 1588 -91 1214 -16 
Q 841 59 441 206 
L 441 856 
Q 825 641 1194 531 
Q 1563 422 1919 422 
Q 2459 422 2753 634 
Q 3047 847 3047 1241 
Q 3047 1584 2836 1778 
Q 2625 1972 2144 2069 
L 1759 2144 
Q 1053 2284 737 2584 
Q 422 2884 422 3419 
Q 422 4038 858 4394 
Q 1294 4750 2059 4750 
Q 2388 4750 2728 4690 
Q 3069 4631 3425 4513 
z
" transform="scale(0.015625)"/>
        <path id="DejaVuSans-70" d="M 1159 525 
L 1159 -1331 
L 581 -1331 
L 581 3500 
L 1159 3500 
L 1159 2969 
Q 1341 3281 1617 3432 
Q 1894 3584 2278 3584 
Q 2916 3584 3314 3078 
Q 3713 2572 3713 1747 
Q 3713 922 3314 415 
Q 2916 -91 2278 -91 
Q 1894 -91 1617 61 
Q 1341 213 1159 525 
z
M 3116 1747 
Q 3116 2381 2855 2742 
Q 2594 3103 2138 3103 
Q 1681 3103 1420 2742 
Q 1159 2381 1159 1747 
Q 1159 1113 1420 752 
Q 1681 391 2138 391 
Q 2594 391 2855 752 
Q 3116 1113 3116 1747 
z
" transform="scale(0.015625)"/>
       </defs>
       <use xlink:href="#DejaVuSans-53"/>
       <use xlink:href="#DejaVuSans-65" transform="translate(63.476562 0)"/>
       <use xlink:href="#DejaVuSans-70" transform="translate(125 0)"/>
      </g>
     </g>
    </g>
    <g id="xtick_34">
     <g id="line2d_44">
      <g>
       <use xlink:href="#m7a61527ded" x="92.437669" y="330.84327" style="stroke: #000000; stroke-width: 0.8"/>
      </g>
     </g>
     <g id="text_12">
      <!-- 03 -->
      <g transform="translate(86.075169 345.441707) scale(0.1 -0.1)">
       <use xlink:href="#DejaVuSans-30"/>
       <use xlink:href="#DejaVuSans-33" transform="translate(63.623047 0)"/>
      </g>
     </g>
    </g>
    <g id="xtick_35">
     <g id="line2d_45">
      <g>
       <use xlink:href="#m7a61527ded" x="126.445994" y="330.84327" style="stroke: #000000; stroke-width: 0.8"/>
      </g>
     </g>
     <g id="text_13">
      <!-- 05 -->
      <g transform="translate(120.083494 345.441707) scale(0.1 -0.1)">
       <use xlink:href="#DejaVuSans-30"/>
       <use xlink:href="#DejaVuSans-35" transform="translate(63.623047 0)"/>
      </g>
     </g>
    </g>
    <g id="xtick_36">
     <g id="line2d_46">
      <g>
       <use xlink:href="#m7a61527ded" x="160.454319" y="330.84327" style="stroke: #000000; stroke-width: 0.8"/>
      </g>
     </g>
     <g id="text_14">
      <!-- 07 -->
      <g transform="translate(154.091819 345.441707) scale(0.1 -0.1)">
       <use xlink:href="#DejaVuSans-30"/>
       <use xlink:href="#DejaVuSans-37" transform="translate(63.623047 0)"/>
      </g>
     </g>
    </g>
    <g id="xtick_37">
     <g id="line2d_47">
      <g>
       <use xlink:href="#m7a61527ded" x="194.462643" y="330.84327" style="stroke: #000000; stroke-width: 0.8"/>
      </g>
     </g>
     <g id="text_15">
      <!-- 09 -->
      <g transform="translate(188.100143 345.441707) scale(0.1 -0.1)">
       <use xlink:href="#DejaVuSans-30"/>
       <use xlink:href="#DejaVuSans-39" transform="translate(63.623047 0)"/>
      </g>
     </g>
    </g>
    <g id="xtick_38">
     <g id="line2d_48">
      <g>
       <use xlink:href="#m7a61527ded" x="228.470968" y="330.84327" style="stroke: #000000; stroke-width: 0.8"/>
      </g>
     </g>
     <g id="text_16">
      <!-- 11 -->
      <g transform="translate(222.108468 345.441707) scale(0.1 -0.1)">
       <use xlink:href="#DejaVuSans-31"/>
       <use xlink:href="#DejaVuSans-31" transform="translate(63.623047 0)"/>
      </g>
     </g>
    </g>
    <g id="xtick_39">
     <g id="line2d_49">
      <g>
       <use xlink:href="#m7a61527ded" x="262.479293" y="330.84327" style="stroke: #000000; stroke-width: 0.8"/>
      </g>
     </g>
     <g id="text_17">
      <!-- 13 -->
      <g transform="translate(256.116793 345.441707) scale(0.1 -0.1)">
       <use xlink:href="#DejaVuSans-31"/>
       <use xlink:href="#DejaVuSans-33" transform="translate(63.623047 0)"/>
      </g>
     </g>
    </g>
    <g id="xtick_40">
     <g id="line2d_50">
      <g>
       <use xlink:href="#m7a61527ded" x="296.487618" y="330.84327" style="stroke: #000000; stroke-width: 0.8"/>
      </g>
     </g>
     <g id="text_18">
      <!-- 15 -->
      <g transform="translate(290.125118 345.441707) scale(0.1 -0.1)">
       <use xlink:href="#DejaVuSans-31"/>
       <use xlink:href="#DejaVuSans-35" transform="translate(63.623047 0)"/>
      </g>
     </g>
    </g>
    <g id="xtick_41">
     <g id="line2d_51">
      <g>
       <use xlink:href="#m7a61527ded" x="330.495942" y="330.84327" style="stroke: #000000; stroke-width: 0.8"/>
      </g>
     </g>
     <g id="text_19">
      <!-- 17 -->
      <g transform="translate(324.133442 345.441707) scale(0.1 -0.1)">
       <use xlink:href="#DejaVuSans-31"/>
       <use xlink:href="#DejaVuSans-37" transform="translate(63.623047 0)"/>
      </g>
     </g>
    </g>
    <g id="xtick_42">
     <g id="line2d_52">
      <g>
       <use xlink:href="#m7a61527ded" x="364.504267" y="330.84327" style="stroke: #000000; stroke-width: 0.8"/>
      </g>
     </g>
     <g id="text_20">
      <!-- 19 -->
      <g transform="translate(358.141767 345.441707) scale(0.1 -0.1)">
       <use xlink:href="#DejaVuSans-31"/>
       <use xlink:href="#DejaVuSans-39" transform="translate(63.623047 0)"/>
      </g>
     </g>
    </g>
    <g id="xtick_43">
     <g id="line2d_53">
      <g>
       <use xlink:href="#m7a61527ded" x="398.512592" y="330.84327" style="stroke: #000000; stroke-width: 0.8"/>
      </g>
     </g>
     <g id="text_21">
      <!-- 21 -->
      <g transform="translate(392.150092 345.441707) scale(0.1 -0.1)">
       <use xlink:href="#DejaVuSans-32"/>
       <use xlink:href="#DejaVuSans-31" transform="translate(63.623047 0)"/>
      </g>
     </g>
    </g>
    <g id="xtick_44">
     <g id="line2d_54">
      <g>
       <use xlink:href="#m7a61527ded" x="432.520917" y="330.84327" style="stroke: #000000; stroke-width: 0.8"/>
      </g>
     </g>
     <g id="text_22">
      <!-- 23 -->
      <g transform="translate(426.158417 345.441707) scale(0.1 -0.1)">
       <use xlink:href="#DejaVuSans-32"/>
       <use xlink:href="#DejaVuSans-33" transform="translate(63.623047 0)"/>
      </g>
     </g>
    </g>
    <g id="xtick_45">
     <g id="line2d_55">
      <g>
       <use xlink:href="#m7a61527ded" x="466.529241" y="330.84327" style="stroke: #000000; stroke-width: 0.8"/>
      </g>
     </g>
     <g id="text_23">
      <!-- 25 -->
      <g transform="translate(460.166741 345.441707) scale(0.1 -0.1)">
       <use xlink:href="#DejaVuSans-32"/>
       <use xlink:href="#DejaVuSans-35" transform="translate(63.623047 0)"/>
      </g>
     </g>
    </g>
    <g id="xtick_46">
     <g id="line2d_56">
      <g>
       <use xlink:href="#m7a61527ded" x="500.537566" y="330.84327" style="stroke: #000000; stroke-width: 0.8"/>
      </g>
     </g>
     <g id="text_24">
      <!-- 27 -->
      <g transform="translate(494.175066 345.441707) scale(0.1 -0.1)">
       <use xlink:href="#DejaVuSans-32"/>
       <use xlink:href="#DejaVuSans-37" transform="translate(63.623047 0)"/>
      </g>
     </g>
    </g>
    <g id="xtick_47">
     <g id="line2d_57">
      <g>
       <use xlink:href="#m7a61527ded" x="534.545891" y="330.84327" style="stroke: #000000; stroke-width: 0.8"/>
      </g>
     </g>
     <g id="text_25">
      <!-- 29 -->
      <g transform="translate(528.183391 345.441707) scale(0.1 -0.1)">
       <use xlink:href="#DejaVuSans-32"/>
       <use xlink:href="#DejaVuSans-39" transform="translate(63.623047 0)"/>
      </g>
     </g>
    </g>
    <g id="xtick_48">
     <g id="line2d_58">
      <g>
       <use xlink:href="#m7a61527ded" x="568.554216" y="330.84327" style="stroke: #000000; stroke-width: 0.8"/>
      </g>
     </g>
     <g id="text_26">
      <!-- Oct -->
      <g transform="translate(559.908903 345.441707) scale(0.1 -0.1)">
       <defs>
        <path id="DejaVuSans-4f" d="M 2522 4238 
Q 1834 4238 1429 3725 
Q 1025 3213 1025 2328 
Q 1025 1447 1429 934 
Q 1834 422 2522 422 
Q 3209 422 3611 934 
Q 4013 1447 4013 2328 
Q 4013 3213 3611 3725 
Q 3209 4238 2522 4238 
z
M 2522 4750 
Q 3503 4750 4090 4092 
Q 4678 3434 4678 2328 
Q 4678 1225 4090 567 
Q 3503 -91 2522 -91 
Q 1538 -91 948 565 
Q 359 1222 359 2328 
Q 359 3434 948 4092 
Q 1538 4750 2522 4750 
z
" transform="scale(0.015625)"/>
       </defs>
       <use xlink:href="#DejaVuSans-4f"/>
       <use xlink:href="#DejaVuSans-63" transform="translate(78.710938 0)"/>
       <use xlink:href="#DejaVuSans-74" transform="translate(133.691406 0)"/>
      </g>
     </g>
    </g>
    <g id="text_27">
     <!-- Time -->
     <g transform="translate(301.25671 359.119832) scale(0.1 -0.1)">
      <defs>
       <path id="DejaVuSans-54" d="M -19 4666 
L 3928 4666 
L 3928 4134 
L 2272 4134 
L 2272 0 
L 1638 0 
L 1638 4134 
L -19 4134 
L -19 4666 
z
" transform="scale(0.015625)"/>
       <path id="DejaVuSans-6d" d="M 3328 2828 
Q 3544 3216 3844 3400 
Q 4144 3584 4550 3584 
Q 5097 3584 5394 3201 
Q 5691 2819 5691 2113 
L 5691 0 
L 5113 0 
L 5113 2094 
Q 5113 2597 4934 2840 
Q 4756 3084 4391 3084 
Q 3944 3084 3684 2787 
Q 3425 2491 3425 1978 
L 3425 0 
L 2847 0 
L 2847 2094 
Q 2847 2600 2669 2842 
Q 2491 3084 2119 3084 
Q 1678 3084 1418 2786 
Q 1159 2488 1159 1978 
L 1159 0 
L 581 0 
L 581 3500 
L 1159 3500 
L 1159 2956 
Q 1356 3278 1631 3431 
Q 1906 3584 2284 3584 
Q 2666 3584 2933 3390 
Q 3200 3197 3328 2828 
z
" transform="scale(0.015625)"/>
      </defs>
      <use xlink:href="#DejaVuSans-54"/>
      <use xlink:href="#DejaVuSans-69" transform="translate(57.958984 0)"/>
      <use xlink:href="#DejaVuSans-6d" transform="translate(85.742188 0)"/>
      <use xlink:href="#DejaVuSans-65" transform="translate(183.154297 0)"/>
     </g>
    </g>
    <g id="text_28">
     <!-- 2025-Oct -->
     <g transform="translate(527.029045 358.119832) scale(0.1 -0.1)">
      <defs>
       <path id="DejaVuSans-2d" d="M 313 2009 
L 1997 2009 
L 1997 1497 
L 313 1497 
L 313 2009 
z
" transform="scale(0.015625)"/>
      </defs>
      <use xlink:href="#DejaVuSans-32"/>
      <use xlink:href="#DejaVuSans-30" transform="translate(63.623047 0)"/>
      <use xlink:href="#DejaVuSans-32" transform="translate(127.246094 0)"/>
      <use xlink:href="#DejaVuSans-35" transform="translate(190.869141 0)"/>
      <use xlink:href="#DejaVuSans-2d" transform="translate(254.492188 0)"/>
      <use xlink:href="#DejaVuSans-4f" transform="translate(293.326172 0)"/>
      <use xlink:href="#DejaVuSans-63" transform="translate(372.037109 0)"/>
      <use xlink:href="#DejaVuSans-74" transform="translate(427.017578 0)"/>
     </g>
    </g>
   </g>
   <g id="matplotlib.axis_6">
    <g id="ytick_9">
     <g id="line2d_59">
      <g>
       <use xlink:href="#m1eab3fb48d" x="53.328125" y="322.714215" style="stroke: #000000; stroke-width: 0.8"/>
      </g>
     </g>
     <g id="text_29">
      <!-- 2.0 -->
      <g transform="translate(22.045313 326.513434) scale(0.1 -0.1)">
       <defs>
        <path id="DejaVuSans-2212" d="M 678 2272 
L 4684 2272 
L 4684 1741 
L 678 1741 
L 678 2272 
z
" transform="scale(0.015625)"/>
       </defs>
       <use xlink:href="#DejaVuSans-2212"/>
       <use xlink:href="#DejaVuSans-32" transform="translate(83.789062 0)"/>
       <use xlink:href="#DejaVuSans-2e" transform="translate(147.412109 0)"/>
       <use xlink:href="#DejaVuSans-30" transform="translate(179.199219 0)"/>
      </g>
     </g>
    </g>
    <g id="ytick_10">
     <g id="line2d_60">
      <g>
       <use xlink:href="#m1eab3fb48d" x="53.328125" y="300.588423" style="stroke: #000000; stroke-width: 0.8"/>
      </g>
     </g>
     <g id="text_30">
      <!-- 1.5 -->
      <g transform="translate(22.045313 304.387642) scale(0.1 -0.1)">
       <use xlink:href="#DejaVuSans-2212"/>
       <use xlink:href="#DejaVuSans-31" transform="translate(83.789062 0)"/>
       <use xlink:href="#DejaVuSans-2e" transform="translate(147.412109 0)"/>
       <use xlink:href="#DejaVuSans-35" transform="translate(179.199219 0)"/>
      </g>
     </g>
    </g>
    <g id="ytick_11">
     <g id="line2d_61">
      <g>
       <use xlink:href="#m1eab3fb48d" x="53.328125" y="278.46263" style="stroke: #000000; stroke-width: 0.8"/>
      </g>
     </g>
     <g id="text_31">
      <!-- 1.0 -->
      <g transform="translate(22.045313 282.261849) scale(0.1 -0.1)">
       <use xlink:href="#DejaVuSans-2212"/>
       <use xlink:href="#DejaVuSans-31" transform="translate(83.789062 0)"/>
       <use xlink:href="#DejaVuSans-2e" transform="translate(147.412109 0)"/>
       <use xlink:href="#DejaVuSans-30" transform="translate(179.199219 0)"/>
      </g>
     </g>
    </g>
    <g id="ytick_12">
     <g id="line2d_62">
      <g>
       <use xlink:href="#m1eab3fb48d" x="53.328125" y="256.336838" style="stroke: #000000; stroke-width: 0.8"/>
      </g>
     </g>
     <g id="text_32">
      <!-- 0.5 -->
      <g transform="translate(22.045313 260.136057) scale(0.1 -0.1)">
       <use xlink:href="#DejaVuSans-2212"/>
       <use xlink:href="#DejaVuSans-30" transform="translate(83.789062 0)"/>
       <use xlink:href="#DejaVuSans-2e" transform="translate(147.412109 0)"/>
       <use xlink:href="#DejaVuSans-35" transform="translate(179.199219 0)"/>
      </g>
     </g>
    </g>
    <g id="ytick_13">
     <g id="line2d_63">
      <g>
       <use xlink:href="#m1eab3fb48d" x="53.328125" y="234.211045" style="stroke: #000000; stroke-width: 0.8"/>
      </g>
     </g>
     <g id="text_33">
      <!-- 0.0 -->
      <g transform="translate(30.425 238.010264) scale(0.1 -0.1)">
       <use xlink:href="#DejaVuSans-30"/>
       <use xlink:href="#DejaVuSans-2e" transform="translate(63.623047 0)"/>
       <use xlink:href="#DejaVuSans-30" transform="translate(95.410156 0)"/>
      </g>
     </g>
    </g>
    <g id="text_34">
     <!-- Drawdown, % -->
     <g transform="translate(14.798438 314.705297) rotate(-90) scale(0.1 -0.1)">
      <defs>
       <path id="DejaVuSans-44" d="M 1259 4147 
L 1259 519 
L 2022 519 
Q 2988 519 3436 956 
Q 3884 1394 3884 2338 
Q 3884 3275 3436 3711 
Q 2988 4147 2022 4147 
L 1259 4147 
z
M 628 4666 
L 1925 4666 
Q 3281 4666 3915 4102 
Q 4550 3538 4550 2338 
Q 4550 1131 3912 565 
Q 3275 0 1925 0 
L 628 0 
L 628 4666 
z
" transform="scale(0.015625)"/>
       <path id="DejaVuSans-61" d="M 2194 1759 
Q 1497 1759 1228 1600 
Q 959 1441 959 1056 
Q 959 750 1161 570 
Q 1363 391 1709 391 
Q 2188 391 2477 730 
Q 2766 1069 2766 1631 
L 2766 1759 
L 2194 1759 
z
M 3341 1997 
L 3341 0 
L 2766 0 
L 2766 531 
Q 2569 213 2275 61 
Q 1981 -91 1556 -91 
Q 1019 -91 701 211 
Q 384 513 384 1019 
Q 384 1609 779 1909 
Q 1175 2209 1959 2209 
L 2766 2209 
L 2766 2266 
Q 2766 2663 2505 2880 
Q 2244 3097 1772 3097 
Q 1472 3097 1187 3025 
Q 903 2953 641 2809 
L 641 3341 
Q 956 3463 1253 3523 
Q 1550 3584 1831 3584 
Q 2591 3584 2966 3190 
Q 3341 2797 3341 1997 
z
" transform="scale(0.015625)"/>
       <path id="DejaVuSans-77" d="M 269 3500 
L 844 3500 
L 1563 769 
L 2278 3500 
L 2956 3500 
L 3675 769 
L 4391 3500 
L 4966 3500 
L 4050 0 
L 3372 0 
L 2619 2869 
L 1863 0 
L 1184 0 
L 269 3500 
z
" transform="scale(0.015625)"/>
       <path id="DejaVuSans-64" d="M 2906 2969 
L 2906 4863 
L 3481 4863 
L 3481 0 
L 2906 0 
L 2906 525 
Q 2725 213 2448 61 
Q 2172 -91 1784 -91 
Q 1150 -91 751 415 
Q 353 922 353 1747 
Q 353 2572 751 3078 
Q 1150 3584 1784 3584 
Q 2172 3584 2448 3432 
Q 2725 3281 2906 2969 
z
M 947 1747 
Q 947 1113 1208 752 
Q 1469 391 1925 391 
Q 2381 391 2643 752 
Q 2906 1113 2906 1747 
Q 2906 2381 2643 2742 
Q 2381 3103 1925 3103 
Q 1469 3103 1208 2742 
Q 947 2381 947 1747 
z
" transform="scale(0.015625)"/>
       <path id="DejaVuSans-6f" d="M 1959 3097 
Q 1497 3097 1228 2736 
Q 959 2375 959 1747 
Q 959 1119 1226 758 
Q 1494 397 1959 397 
Q 2419 397 2687 759 
Q 2956 1122 2956 1747 
Q 2956 2369 2687 2733 
Q 2419 3097 1959 3097 
z
M 1959 3584 
Q 2709 3584 3137 3096 
Q 3566 2609 3566 1747 
Q 3566 888 3137 398 
Q 2709 -91 1959 -91 
Q 1206 -91 779 398 
Q 353 888 353 1747 
Q 353 2609 779 3096 
Q 1206 3584 1959 3584 
z
" transform="scale(0.015625)"/>
       <path id="DejaVuSans-6e" d="M 3513 2113 
L 3513 0 
L 2938 0 
L 2938 2094 
Q 2938 2591 2744 2837 
Q 2550 3084 2163 3084 
Q 1697 3084 1428 2787 
Q 1159 2491 1159 1978 
L 1159 0 
L 581 0 
L 581 3500 
L 1159 3500 
L 1159 2956 
Q 1366 3272 1645 3428 
Q 1925 3584 2291 3584 
Q 2894 3584 3203 3211 
Q 3513 2838 3513 2113 
z
" transform="scale(0.015625)"/>
       <path id="DejaVuSans-2c" d="M 750 794 
L 1409 794 
L 1409 256 
L 897 -744 
L 494 -744 
L 750 256 
L 750 794 
z
" transform="scale(0.015625)"/>
       <path id="DejaVuSans-20" transform="scale(0.015625)"/>
       <path id="DejaVuSans-25" d="M 4653 2053 
Q 4381 2053 4226 1822 
Q 4072 1591 4072 1178 
Q 4072 772 4226 539 
Q 4381 306 4653 306 
Q 4919 306 5073 539 
Q 5228 772 5228 1178 
Q 5228 1588 5073 1820 
Q 4919 2053 4653 2053 
z
M 4653 2450 
Q 5147 2450 5437 2106 
Q 5728 1763 5728 1178 
Q 5728 594 5436 251 
Q 5144 -91 4653 -91 
Q 4153 -91 3862 251 
Q 3572 594 3572 1178 
Q 3572 1766 3864 2108 
Q 4156 2450 4653 2450 
z
M 1428 4353 
Q 1159 4353 1004 4120 
Q 850 3888 850 3481 
Q 850 3069 1003 2837 
Q 1156 2606 1428 2606 
Q 1700 2606 1854 2837 
Q 2009 3069 2009 3481 
Q 2009 3884 1853 4118 
Q 1697 4353 1428 4353 
z
M 4250 4750 
L 4750 4750 
L 1831 -91 
L 1331 -91 
L 4250 4750 
z
M 1428 4750 
Q 1922 4750 2215 4408 
Q 2509 4066 2509 3481 
Q 2509 2891 2217 2550 
Q 1925 2209 1428 2209 
Q 931 2209 642 2551 
Q 353 2894 353 3481 
Q 353 4063 643 4406 
Q 934 4750 1428 4750 
z
" transform="scale(0.015625)"/>
      </defs>
      <use xlink:href="#DejaVuSans-44"/>
      <use xlink:href="#DejaVuSans-72" transform="translate(77.001953 0)"/>
      <use xlink:href="#DejaVuSans-61" transform="translate(118.115234 0)"/>
      <use xlink:href="#DejaVuSans-77" transform="translate(179.394531 0)"/>
      <use xlink:href="#DejaVuSans-64" transform="translate(261.181641 0)"/>
      <use xlink:href="#DejaVuSans-6f" transform="translate(324.658203 0)"/>
      <use xlink:href="#DejaVuSans-77" transform="translate(385.839844 0)"/>
      <use xlink:href="#DejaVuSans-6e" transform="translate(467.626953 0)"/>
      <use xlink:href="#DejaVuSans-2c" transform="translate(531.005859 0)"/>
      <use xlink:href="#DejaVuSans-20" transform="translate(562.792969 0)"/>
      <use xlink:href="#DejaVuSans-25" transform="translate(594.580078 0)"/>
     </g>
    </g>
   </g>
   <g id="line2d_64">
    <path d="M 58.429344 234.211045 
L 59.954799 240.422937 
L 60.095122 237.046909 
L 60.805794 243.731445 
L 62.453466 242.381034 
L 62.919703 237.384512 
L 63.073606 238.869964 
L 64.562848 247.784908 
L 64.585481 247.312573 
L 65.613012 253.115542 
L 66.273892 251.631061 
L 67.301423 245.220805 
L 67.654496 246.367904 
L 68.840458 251.83349 
L 69.19353 250.146581 
L 69.9721 245.490711 
L 70.850255 246.570333 
L 71.09469 249.134435 
L 73.31271 234.964396 
L 73.317236 256.961695 
L 73.815159 246.165475 
L 73.846845 251.158727 
L 75.449251 251.83349 
L 76.820802 243.26399 
L 76.843435 244.20866 
L 78.310044 237.730927 
L 78.749121 236.921211 
L 79.858131 242.536262 
L 80.469218 243.892041 
L 80.654808 234.211045 
L 81.474117 239.522186 
L 82.352272 246.814043 
L 83.271166 241.389915 
L 84.656297 261.255785 
L 85.548031 234.211045 
L 86.068587 235.092397 
L 86.53935 242.482192 
L 87.770577 236.041545 
L 88.748317 242.956766 
L 90.504626 234.211045 
L 90.572525 241.1263 
L 90.893911 240.312741 
L 91.283197 236.041554 
L 92.441999 237.397486 
L 92.84939 242.211046 
L 93.81355 242.280273 
L 94.985932 236.79587 
L 96.072309 240.587556 
L 96.497806 234.211045 
L 97.60229 234.211045 
L 98.312961 252.326531 
L 98.548343 247.459684 
L 99.775044 256.585022 
L 100.055691 249.690322 
L 101.114909 259.694396 
L 101.481561 253.408053 
L 102.563412 265.98074 
L 102.94817 260.032372 
L 103.337455 266.994667 
L 105.197876 264.581044 
L 105.501156 268.540668 
L 107.325364 269.681577 
L 107.329891 255.185326 
L 107.773495 267.064198 
L 107.796128 261.359655 
L 109.226524 264.386386 
L 110.068466 270.232791 
L 110.602602 266.267987 
L 112.123529 258.33838 
L 112.286486 260.354382 
L 113.028844 252.290375 
L 114.305337 255.247178 
L 114.423028 250.946374 
L 115.817211 255.583178 
L 116.437352 248.325572 
L 116.962434 251.618374 
L 117.867748 246.71277 
L 119.148768 254.575177 
L 119.479207 241.941566 
L 119.96355 248.355158 
L 120.660642 241.234629 
L 122.177044 243.47251 
L 122.64328 238.996749 
L 124.322638 234.211045 
L 124.327165 279.633863 
L 125.04689 264.977287 
L 126.097054 266.72903 
L 126.486339 262.214923 
L 127.482185 263.697167 
L 130.546673 263.697167 
L 130.940485 262.490559 
L 132.330142 273.592952 
L 133.280722 269.892154 
L 134.892182 268.882846 
L 135.123037 273.996675 
L 135.272414 269.824867 
L 136.358791 301.517152 
L 136.68923 285.031781 
L 138.314269 268.176629 
L 139.803511 278.605187 
L 140.183743 275.062151 
L 141.292753 276.599695 
L 176.581901 276.599695 
L 177.709017 274.867542 
L 178.111882 279.884553 
L 178.532853 277.008133 
L 178.858766 286.640795 
L 180.443066 278.747364 
L 181.126578 285.236031 
L 181.275955 283.898162 
L 182.670139 297.611325 
L 183.172588 301.089786 
L 184.195593 295.738308 
L 184.580352 296.474136 
L 185.74368 304.902715 
L 186.24613 299.484343 
L 186.834584 307.979815 
L 187.34156 302.962804 
L 187.63126 297.343752 
L 188.91228 301.624934 
L 189.568633 296.273456 
L 190.396995 299.417449 
L 191.587483 306.374372 
L 192.338894 326.241735 
L 192.343421 284.031949 
L 193.610861 296.573735 
L 194.068044 293.795446 
L 195.724769 295.263931 
L 196.005417 287.850261 
L 197.974475 288.526356 
L 198.010688 290.775447 
L 198.662514 295.07518 
L 198.943161 288.923255 
L 200.396191 288.805855 
L 201.052543 298.060693 
L 201.781321 299.184494 
L 202.564418 292.772214 
L 202.81338 293.82991 
L 203.763959 283.054634 
L 204.3841 292.17726 
L 205.275834 275.849082 
L 205.986506 281.864726 
L 206.058931 277.832261 
L 207.276579 281.401984 
L 208.80656 281.401984 
L 209.358801 285.256444 
L 209.417647 254.079313 
L 210.390859 262.50218 
L 210.69414 260.09874 
L 212.192435 265.918577 
L 212.522874 259.776452 
L 216.479097 259.776452 
L 217.556421 262.454804 
L 218.009078 256.05823 
L 219.271992 255.738426 
L 219.49832 260.072284 
L 219.724649 255.805101 
L 220.376475 269.940144 
L 221.141466 267.739878 
L 221.820451 278.674534 
L 222.671447 273.940628 
L 222.771031 272.073735 
L 225.686143 272.073735 
L 227.007902 273.215927 
L 227.179911 269.966015 
L 228.021853 271.440958 
L 228.737052 265.737031 
L 228.836636 267.328824 
L 230.181028 259.725922 
L 230.597472 259.858746 
L 230.828328 263.992947 
L 232.928656 259.418203 
L 233.358681 265.540203 
L 233.811338 262.346116 
L 234.16441 267.336878 
L 235.323213 262.960402 
L 235.581227 258.365883 
L 237.387329 260.044546 
L 237.486913 251.205901 
L 238.12516 255.209975 
L 239.347334 234.211045 
L 239.578189 234.211045 
L 240.854682 238.858189 
L 241.126277 238.924577 
L 242.606465 234.211045 
L 243.683789 241.209855 
L 244.403514 235.98329 
L 245.440099 240.319343 
L 246.19151 241.845987 
L 246.779964 234.211045 
L 247.630959 236.002736 
L 248.056457 239.917913 
L 248.721863 238.789811 
L 249.749394 234.211045 
L 250.713554 243.297041 
L 251.311061 234.211045 
L 251.777298 234.343525 
L 252.673559 240.967498 
L 253.506448 234.211045 
L 254.737676 240.822054 
L 255.104328 237.78099 
L 255.674676 245.846421 
L 256.380821 240.160953 
L 296.273491 240.160953 
L 297.373448 239.052229 
L 297.798946 243.435589 
L 298.20181 241.443153 
L 299.238395 249.280069 
L 299.595994 249.678556 
L 299.772531 246.225 
L 300.88154 247.818949 
L 302.411521 247.818949 
L 303.461686 251.944205 
L 303.941502 245.854074 
L 304.244783 250.752658 
L 305.390005 242.345629 
L 305.485063 243.470979 
L 311.618567 243.470979 
L 312.025958 246.668844 
L 312.093857 239.391949 
L 313.569519 244.04588 
L 314.551785 238.092058 
L 315.660795 236.438218 
L 315.995761 243.582805 
L 316.928235 234.585918 
L 318.639278 242.590502 
L 319.186994 234.850532 
L 319.390689 240.076665 
L 319.639651 235.1813 
L 321.952728 243.094894 
L 322.34654 234.211045 
L 322.3737 235.006868 
L 323.13869 243.429324 
L 324.08927 244.755695 
L 324.283913 236.134283 
L 325.433662 237.394336 
L 330.037184 237.394336 
L 331.567165 239.931656 
L 331.612431 242.180572 
L 331.888552 237.748884 
L 333.133359 240.021857 
L 333.866663 237.175769 
L 334.640707 238.234779 
L 337.705196 238.234779 
L 338.26649 237.594681 
L 338.90021 244.222187 
L 339.597302 246.144164 
L 340.063539 241.90256 
L 340.778737 245.415138 
L 342.308718 245.415138 
L 343.358883 258.436188 
L 343.739115 234.211045 
L 343.974496 234.211045 
L 344.943183 249.12073 
L 345.38226 268.722846 
L 345.69912 234.211045 
L 347.364898 247.345114 
L 348.39243 256.755991 
L 348.541807 249.863517 
L 348.587072 261.925346 
L 350.053681 253.110933 
L 351.316595 261.755842 
L 351.918628 267.529183 
L 353.005006 247.554749 
L 353.439556 254.323494 
L 354.942378 238.197954 
L 356.11476 247.156587 
L 356.24603 245.23214 
L 357.237349 272.506202 
L 357.794118 260.295916 
L 358.296567 271.776239 
L 359.206408 269.25455 
L 359.930659 262.950326 
L 360.908399 266.135618 
L 361.673389 271.444438 
L 362.420273 261.623121 
L 362.74166 274.82881 
L 364.552288 265.007494 
L 364.823882 273.501605 
L 365.987211 278.014102 
L 366.987583 266.865581 
L 367.815946 277.217779 
L 369.178444 285.977332 
L 369.689946 273.899767 
L 370.255768 265.951044 
L 371.206348 276.037801 
L 371.858174 274.378795 
L 372.98529 263.562075 
L 373.609957 259.182298 
L 373.92229 268.671814 
L 375.583542 261.639677 
L 375.82345 266.169812 
L 376.122204 263.238548 
L 376.606547 266.702769 
L 377.629552 263.704886 
L 378.104842 267.035867 
L 379.141427 265.969953 
L 429.77565 265.969953 
L 430.902766 267.647173 
L 431.142674 263.719165 
L 431.468587 265.516728 
L 431.513853 264.518082 
L 432.849192 265.516728 
L 434.379173 265.516728 
L 435.189429 266.395224 
L 436.099269 261.195521 
L 437.35313 271.594928 
L 437.593038 262.995418 
L 439.797478 281.194381 
L 441.033232 276.194666 
L 441.77559 283.794233 
L 442.056237 280.661078 
L 443.590744 272.689743 
L 444.496059 279.750669 
L 445.546223 270.708037 
L 446.528489 275.295843 
L 447.402117 280.482059 
L 447.41117 260.601566 
L 449.285171 276.371555 
L 449.692562 271.055818 
L 450.489239 268.265056 
L 451.190857 289.727344 
L 451.607302 291.255618 
L 452.231969 285.541201 
L 453.159916 287.202369 
L 453.802689 294.312167 
L 454.612945 291.189171 
L 455.762694 281.222165 
L 456.532211 285.806988 
L 457.120665 279.029423 
L 458.265888 283.880033 
L 459.144042 266.936122 
L 459.687231 278.785549 
L 460.529173 273.529428 
L 461.534072 284.174736 
L 462.217584 279.517414 
L 464.408445 290.561921 
L 464.77057 272.797564 
L 465.078377 285.571933 
L 466.549513 274.860092 
L 466.730575 278.186751 
L 467.264711 271.400367 
L 468.174552 274.727026 
L 469.387673 267.27531 
L 469.690953 267.674509 
L 469.767905 269.936637 
L 471.87276 268.751137 
L 472.560799 277.215507 
L 473.031562 279.411101 
L 474.267316 270.562189 
L 474.280896 271.493654 
L 475.68866 247.342112 
L 475.96478 252.265566 
L 477.254853 239.922712 
L 477.666771 245.183112 
L 478.834626 234.211045 
L 478.97495 234.211045 
L 481.81311 256.569707 
L 481.881009 234.211045 
L 482.089231 234.211045 
L 482.102811 280.233769 
L 483.628265 262.672467 
L 484.252932 256.818699 
L 485.12656 258.70267 
L 485.389101 253.38718 
L 487.389846 254.060027 
L 488.082411 257.424261 
L 488.539595 256.145852 
L 489.100889 265.902131 
L 489.684817 259.240948 
L 491.097107 269.602789 
L 491.241957 269.535504 
L 492.409813 257.087838 
L 492.694987 259.173663 
L 492.84889 253.992742 
L 494.229494 254.261881 
L 540.260195 254.261881 
L 540.540842 250.048782 
L 541.016132 255.00876 
L 541.821862 252.930931 
L 542.727176 247.367713 
L 543.433321 247.568794 
L 543.673229 255.612 
L 544.872771 251.456344 
L 545.501964 260.907112 
L 547.317119 256.952535 
L 547.932733 261.443325 
L 549.421975 253.802279 
L 549.449134 268.213024 
L 549.48082 254.003359 
L 552.128864 254.565315 
L 552.359719 265.871033 
L 552.658473 266.071726 
L 552.975333 257.508815 
L 554.07529 263.328919 
L 555.605271 263.328919 
L 557.013034 265.008553 
L 557.166938 256.267478 
L 557.7056 249.680528 
L 558.678812 254.212034 
L 566.346824 254.212034 
L 566.473568 255.093195 
L 566.704423 237.135279 
L 567.962809 251.501612 
L 568.524104 245.51564 
L 568.551264 246.247259 
" clip-path="url(#pf37c25af35)" style="fill: none; stroke: #7a738c; stroke-width: 1.5; stroke-linecap: square"/>
   </g>
   <g id="patch_13">
    <path d="M 53.328125 330.84327 
L 53.328125 229.609511 
" style="fill: none; stroke: #000000; stroke-width: 0.8; stroke-linejoin: miter; stroke-linecap: square"/>
   </g>
   <g id="patch_14">
    <path d="M 573.652483 330.84327 
L 573.652483 229.609511 
" style="fill: none; stroke: #000000; stroke-width: 0.8; stroke-linejoin: miter; stroke-linecap: square"/>
   </g>
   <g id="patch_15">
    <path d="M 53.328125 330.84327 
L 573.652483 330.84327 
" style="fill: none; stroke: #000000; stroke-width: 0.8; stroke-linejoin: miter; stroke-linecap: square"/>
   </g>
   <g id="patch_16">
    <path d="M 53.328125 229.609511 
L 573.652483 229.609511 
" style="fill: none; stroke: #000000; stroke-width: 0.8; stroke-linejoin: miter; stroke-linecap: square"/>
   </g>
  </g>
 </g>
 <defs>
  <clipPath id="pc95ce85a7a">
   <rect x="53.328125" y="7.2" width="520.324358" height="101.233759"/>
  </clipPath>
  <clipPath id="p497a69f0c9">
   <rect x="53.328125" y="118.875272" width="520.324358" height="101.233759"/>
  </clipPath>
  <clipPath id="pf37c25af35">
   <rect x="53.328125" y="229.609511" width="520.324358" height="101.233759"/>
  </clipPath>
 </defs>
</svg>
