<?xml version="1.0" encoding="utf-8" standalone="no"?>
<!DOCTYPE svg PUBLIC "-//W3C//DTD SVG 1.1//EN"
  "http://www.w3.org/Graphics/SVG/1.1/DTD/svg11.dtd">
<svg xmlns:xlink="http://www.w3.org/1999/xlink"   viewBox="0 0 584.399528 368.39952" xmlns="http://www.w3.org/2000/svg" version="1.1" preserveAspectRatio="xMidYMid meet" style="width:100%;height:auto;aspect-ratio:8 / 5;display:block;">
 <metadata>
  <rdf:RDF xmlns:dc="http://purl.org/dc/elements/1.1/" xmlns:cc="http://creativecommons.org/ns#" xmlns:rdf="http://www.w3.org/1999/02/22-rdf-syntax-ns#">
   <cc:Work>
    <dc:type rdf:resource="http://purl.org/dc/dcmitype/StillImage"/>
    <dc:date>2025-10-20T11:48:47.941135</dc:date>
    <dc:format>image/svg+xml</dc:format>
    <dc:creator>
     <cc:Agent>
      <dc:title>Matplotlib v3.10.6, https://matplotlib.org/</dc:title>
     </cc:Agent>
    </dc:creator>
   </cc:Work>
  </rdf:RDF>
 </metadata>
 <defs>
  <style type="text/css">*{stroke-linejoin: round; stroke-linecap: butt}</style>
 </defs>
 <g id="figure_1">
  <g id="patch_1">
   <path d="M 0 368.39952 
L 584.399528 368.39952 
L 584.399528 -0 
L 0 -0 
z
" style="fill: #ffffff"/>
  </g>
  <g id="axes_1">
   <g id="patch_2">
    <path d="M 53.328125 107.50313 
L 573.652483 107.50313 
L 573.652483 7.2 
L 53.328125 7.2 
z
" style="fill: #ffffff"/>
   </g>
   <g id="matplotlib.axis_1">
    <g id="xtick_1">
     <g id="line2d_1">
      <defs>
       <path id="m8875da22ca" d="M 0 0 
L 0 3.5 
" style="stroke: #000000; stroke-width: 0.8"/>
      </defs>
      <g>
       <use xlink:href="#m8875da22ca" x="58.429344" y="107.50313" style="stroke: #000000; stroke-width: 0.8"/>
      </g>
     </g>
    </g>
    <g id="xtick_2">
     <g id="line2d_2">
      <g>
       <use xlink:href="#m8875da22ca" x="92.437669" y="107.50313" style="stroke: #000000; stroke-width: 0.8"/>
      </g>
     </g>
    </g>
    <g id="xtick_3">
     <g id="line2d_3">
      <g>
       <use xlink:href="#m8875da22ca" x="126.445994" y="107.50313" style="stroke: #000000; stroke-width: 0.8"/>
      </g>
     </g>
    </g>
    <g id="xtick_4">
     <g id="line2d_4">
      <g>
       <use xlink:href="#m8875da22ca" x="160.454319" y="107.50313" style="stroke: #000000; stroke-width: 0.8"/>
      </g>
     </g>
    </g>
    <g id="xtick_5">
     <g id="line2d_5">
      <g>
       <use xlink:href="#m8875da22ca" x="194.462643" y="107.50313" style="stroke: #000000; stroke-width: 0.8"/>
      </g>
     </g>
    </g>
    <g id="xtick_6">
     <g id="line2d_6">
      <g>
       <use xlink:href="#m8875da22ca" x="228.470968" y="107.50313" style="stroke: #000000; stroke-width: 0.8"/>
      </g>
     </g>
    </g>
    <g id="xtick_7">
     <g id="line2d_7">
      <g>
       <use xlink:href="#m8875da22ca" x="262.479293" y="107.50313" style="stroke: #000000; stroke-width: 0.8"/>
      </g>
     </g>
    </g>
    <g id="xtick_8">
     <g id="line2d_8">
      <g>
       <use xlink:href="#m8875da22ca" x="296.487618" y="107.50313" style="stroke: #000000; stroke-width: 0.8"/>
      </g>
     </g>
    </g>
    <g id="xtick_9">
     <g id="line2d_9">
      <g>
       <use xlink:href="#m8875da22ca" x="330.495942" y="107.50313" style="stroke: #000000; stroke-width: 0.8"/>
      </g>
     </g>
    </g>
    <g id="xtick_10">
     <g id="line2d_10">
      <g>
       <use xlink:href="#m8875da22ca" x="364.504267" y="107.50313" style="stroke: #000000; stroke-width: 0.8"/>
      </g>
     </g>
    </g>
    <g id="xtick_11">
     <g id="line2d_11">
      <g>
       <use xlink:href="#m8875da22ca" x="398.512592" y="107.50313" style="stroke: #000000; stroke-width: 0.8"/>
      </g>
     </g>
    </g>
    <g id="xtick_12">
     <g id="line2d_12">
      <g>
       <use xlink:href="#m8875da22ca" x="432.520917" y="107.50313" style="stroke: #000000; stroke-width: 0.8"/>
      </g>
     </g>
    </g>
    <g id="xtick_13">
     <g id="line2d_13">
      <g>
       <use xlink:href="#m8875da22ca" x="466.529241" y="107.50313" style="stroke: #000000; stroke-width: 0.8"/>
      </g>
     </g>
    </g>
    <g id="xtick_14">
     <g id="line2d_14">
      <g>
       <use xlink:href="#m8875da22ca" x="500.537566" y="107.50313" style="stroke: #000000; stroke-width: 0.8"/>
      </g>
     </g>
    </g>
    <g id="xtick_15">
     <g id="line2d_15">
      <g>
       <use xlink:href="#m8875da22ca" x="534.545891" y="107.50313" style="stroke: #000000; stroke-width: 0.8"/>
      </g>
     </g>
    </g>
    <g id="xtick_16">
     <g id="line2d_16">
      <g>
       <use xlink:href="#m8875da22ca" x="568.554216" y="107.50313" style="stroke: #000000; stroke-width: 0.8"/>
      </g>
     </g>
    </g>
   </g>
   <g id="matplotlib.axis_2">
    <g id="ytick_1">
     <g id="line2d_17">
      <defs>
       <path id="m2803b82a2e" d="M 0 0 
L -3.5 0 
" style="stroke: #000000; stroke-width: 0.8"/>
      </defs>
      <g>
       <use xlink:href="#m2803b82a2e" x="53.328125" y="105.193908" style="stroke: #000000; stroke-width: 0.8"/>
      </g>
     </g>
     <g id="text_1">
      <!-- 1.16 -->
      <g transform="translate(24.0625 108.993127) scale(0.1 -0.1)">
       <defs>
        <path id="DejaVuSans-31" d="M 794 531 
L 1825 531 
L 1825 4091 
L 703 3866 
L 703 4441 
L 1819 4666 
L 2450 4666 
L 2450 531 
L 3481 531 
L 3481 0 
L 794 0 
L 794 531 
z
" transform="scale(0.015625)"/>
        <path id="DejaVuSans-2e" d="M 684 794 
L 1344 794 
L 1344 0 
L 684 0 
L 684 794 
z
" transform="scale(0.015625)"/>
        <path id="DejaVuSans-36" d="M 2113 2584 
Q 1688 2584 1439 2293 
Q 1191 2003 1191 1497 
Q 1191 994 1439 701 
Q 1688 409 2113 409 
Q 2538 409 2786 701 
Q 3034 994 3034 1497 
Q 3034 2003 2786 2293 
Q 2538 2584 2113 2584 
z
M 3366 4563 
L 3366 3988 
Q 3128 4100 2886 4159 
Q 2644 4219 2406 4219 
Q 1781 4219 1451 3797 
Q 1122 3375 1075 2522 
Q 1259 2794 1537 2939 
Q 1816 3084 2150 3084 
Q 2853 3084 3261 2657 
Q 3669 2231 3669 1497 
Q 3669 778 3244 343 
Q 2819 -91 2113 -91 
Q 1303 -91 875 529 
Q 447 1150 447 2328 
Q 447 3434 972 4092 
Q 1497 4750 2381 4750 
Q 2619 4750 2861 4703 
Q 3103 4656 3366 4563 
z
" transform="scale(0.015625)"/>
       </defs>
       <use xlink:href="#DejaVuSans-31"/>
       <use xlink:href="#DejaVuSans-2e" transform="translate(63.623047 0)"/>
       <use xlink:href="#DejaVuSans-31" transform="translate(95.410156 0)"/>
       <use xlink:href="#DejaVuSans-36" transform="translate(159.033203 0)"/>
      </g>
     </g>
    </g>
    <g id="ytick_2">
     <g id="line2d_18">
      <g>
       <use xlink:href="#m2803b82a2e" x="53.328125" y="75.588498" style="stroke: #000000; stroke-width: 0.8"/>
      </g>
     </g>
     <g id="text_2">
      <!-- 1.17 -->
      <g transform="translate(24.0625 79.387716) scale(0.1 -0.1)">
       <defs>
        <path id="DejaVuSans-37" d="M 525 4666 
L 3525 4666 
L 3525 4397 
L 1831 0 
L 1172 0 
L 2766 4134 
L 525 4134 
L 525 4666 
z
" transform="scale(0.015625)"/>
       </defs>
       <use xlink:href="#DejaVuSans-31"/>
       <use xlink:href="#DejaVuSans-2e" transform="translate(63.623047 0)"/>
       <use xlink:href="#DejaVuSans-31" transform="translate(95.410156 0)"/>
       <use xlink:href="#DejaVuSans-37" transform="translate(159.033203 0)"/>
      </g>
     </g>
    </g>
    <g id="ytick_3">
     <g id="line2d_19">
      <g>
       <use xlink:href="#m2803b82a2e" x="53.328125" y="45.983087" style="stroke: #000000; stroke-width: 0.8"/>
      </g>
     </g>
     <g id="text_3">
      <!-- 1.18 -->
      <g transform="translate(24.0625 49.782306) scale(0.1 -0.1)">
       <defs>
        <path id="DejaVuSans-38" d="M 2034 2216 
Q 1584 2216 1326 1975 
Q 1069 1734 1069 1313 
Q 1069 891 1326 650 
Q 1584 409 2034 409 
Q 2484 409 2743 651 
Q 3003 894 3003 1313 
Q 3003 1734 2745 1975 
Q 2488 2216 2034 2216 
z
M 1403 2484 
Q 997 2584 770 2862 
Q 544 3141 544 3541 
Q 544 4100 942 4425 
Q 1341 4750 2034 4750 
Q 2731 4750 3128 4425 
Q 3525 4100 3525 3541 
Q 3525 3141 3298 2862 
Q 3072 2584 2669 2484 
Q 3125 2378 3379 2068 
Q 3634 1759 3634 1313 
Q 3634 634 3220 271 
Q 2806 -91 2034 -91 
Q 1263 -91 848 271 
Q 434 634 434 1313 
Q 434 1759 690 2068 
Q 947 2378 1403 2484 
z
M 1172 3481 
Q 1172 3119 1398 2916 
Q 1625 2713 2034 2713 
Q 2441 2713 2670 2916 
Q 2900 3119 2900 3481 
Q 2900 3844 2670 4047 
Q 2441 4250 2034 4250 
Q 1625 4250 1398 4047 
Q 1172 3844 1172 3481 
z
" transform="scale(0.015625)"/>
       </defs>
       <use xlink:href="#DejaVuSans-31"/>
       <use xlink:href="#DejaVuSans-2e" transform="translate(63.623047 0)"/>
       <use xlink:href="#DejaVuSans-31" transform="translate(95.410156 0)"/>
       <use xlink:href="#DejaVuSans-38" transform="translate(159.033203 0)"/>
      </g>
     </g>
    </g>
    <g id="ytick_4">
     <g id="line2d_20">
      <g>
       <use xlink:href="#m2803b82a2e" x="53.328125" y="16.377677" style="stroke: #000000; stroke-width: 0.8"/>
      </g>
     </g>
     <g id="text_4">
      <!-- 1.19 -->
      <g transform="translate(24.0625 20.176896) scale(0.1 -0.1)">
       <defs>
        <path id="DejaVuSans-39" d="M 703 97 
L 703 672 
Q 941 559 1184 500 
Q 1428 441 1663 441 
Q 2288 441 2617 861 
Q 2947 1281 2994 2138 
Q 2813 1869 2534 1725 
Q 2256 1581 1919 1581 
Q 1219 1581 811 2004 
Q 403 2428 403 3163 
Q 403 3881 828 4315 
Q 1253 4750 1959 4750 
Q 2769 4750 3195 4129 
Q 3622 3509 3622 2328 
Q 3622 1225 3098 567 
Q 2575 -91 1691 -91 
Q 1453 -91 1209 -44 
Q 966 3 703 97 
z
M 1959 2075 
Q 2384 2075 2632 2365 
Q 2881 2656 2881 3163 
Q 2881 3666 2632 3958 
Q 2384 4250 1959 4250 
Q 1534 4250 1286 3958 
Q 1038 3666 1038 3163 
Q 1038 2656 1286 2365 
Q 1534 2075 1959 2075 
z
" transform="scale(0.015625)"/>
       </defs>
       <use xlink:href="#DejaVuSans-31"/>
       <use xlink:href="#DejaVuSans-2e" transform="translate(63.623047 0)"/>
       <use xlink:href="#DejaVuSans-31" transform="translate(95.410156 0)"/>
       <use xlink:href="#DejaVuSans-39" transform="translate(159.033203 0)"/>
      </g>
     </g>
    </g>
    <g id="text_5">
     <!-- Price -->
     <g transform="translate(14.798438 69.549221) rotate(-90) scale(0.1 -0.1)">
      <defs>
       <path id="DejaVuSans-50" d="M 1259 4147 
L 1259 2394 
L 2053 2394 
Q 2494 2394 2734 2622 
Q 2975 2850 2975 3272 
Q 2975 3691 2734 3919 
Q 2494 4147 2053 4147 
L 1259 4147 
z
M 628 4666 
L 2053 4666 
Q 2838 4666 3239 4311 
Q 3641 3956 3641 3272 
Q 3641 2581 3239 2228 
Q 2838 1875 2053 1875 
L 1259 1875 
L 1259 0 
L 628 0 
L 628 4666 
z
" transform="scale(0.015625)"/>
       <path id="DejaVuSans-72" d="M 2631 2963 
Q 2534 3019 2420 3045 
Q 2306 3072 2169 3072 
Q 1681 3072 1420 2755 
Q 1159 2438 1159 1844 
L 1159 0 
L 581 0 
L 581 3500 
L 1159 3500 
L 1159 2956 
Q 1341 3275 1631 3429 
Q 1922 3584 2338 3584 
Q 2397 3584 2469 3576 
Q 2541 3569 2628 3553 
L 2631 2963 
z
" transform="scale(0.015625)"/>
       <path id="DejaVuSans-69" d="M 603 3500 
L 1178 3500 
L 1178 0 
L 603 0 
L 603 3500 
z
M 603 4863 
L 1178 4863 
L 1178 4134 
L 603 4134 
L 603 4863 
z
" transform="scale(0.015625)"/>
       <path id="DejaVuSans-63" d="M 3122 3366 
L 3122 2828 
Q 2878 2963 2633 3030 
Q 2388 3097 2138 3097 
Q 1578 3097 1268 2742 
Q 959 2388 959 1747 
Q 959 1106 1268 751 
Q 1578 397 2138 397 
Q 2388 397 2633 464 
Q 2878 531 3122 666 
L 3122 134 
Q 2881 22 2623 -34 
Q 2366 -91 2075 -91 
Q 1284 -91 818 406 
Q 353 903 353 1747 
Q 353 2603 823 3093 
Q 1294 3584 2113 3584 
Q 2378 3584 2631 3529 
Q 2884 3475 3122 3366 
z
" transform="scale(0.015625)"/>
       <path id="DejaVuSans-65" d="M 3597 1894 
L 3597 1613 
L 953 1613 
Q 991 1019 1311 708 
Q 1631 397 2203 397 
Q 2534 397 2845 478 
Q 3156 559 3463 722 
L 3463 178 
Q 3153 47 2828 -22 
Q 2503 -91 2169 -91 
Q 1331 -91 842 396 
Q 353 884 353 1716 
Q 353 2575 817 3079 
Q 1281 3584 2069 3584 
Q 2775 3584 3186 3129 
Q 3597 2675 3597 1894 
z
M 3022 2063 
Q 3016 2534 2758 2815 
Q 2500 3097 2075 3097 
Q 1594 3097 1305 2825 
Q 1016 2553 972 2059 
L 3022 2063 
z
" transform="scale(0.015625)"/>
      </defs>
      <use xlink:href="#DejaVuSans-50"/>
      <use xlink:href="#DejaVuSans-72" transform="translate(58.552734 0)"/>
      <use xlink:href="#DejaVuSans-69" transform="translate(99.666016 0)"/>
      <use xlink:href="#DejaVuSans-63" transform="translate(127.449219 0)"/>
      <use xlink:href="#DejaVuSans-65" transform="translate(182.429688 0)"/>
     </g>
    </g>
   </g>
   <g id="line2d_21">
    <path d="M 58.429344 78.519433 
L 59.565514 79.081936 
L 59.954799 74.937179 
L 60.004591 75.499681 
L 60.570412 71.414135 
L 61.652263 74.167438 
L 62.806538 68.335172 
L 63.195823 65.729896 
L 63.888389 70.910843 
L 64.811809 64.871339 
L 65.522481 70.200313 
L 66.296525 67.002929 
L 67.577544 73.545724 
L 67.876298 70.792421 
L 69.166371 74.197043 
L 69.19353 73.516119 
L 69.872516 76.417449 
L 70.768777 75.114811 
L 72.221806 72.420719 
L 73.308183 65.374631 
L 73.31271 80.739839 
L 73.928323 73.812173 
L 75.313454 70.141102 
L 76.671425 75.588498 
L 76.875121 74.493097 
L 78.32815 77.838509 
L 79.328523 79.37799 
L 79.858131 75.618103 
L 80.442059 73.693751 
L 81.415272 94.86162 
L 81.591808 88.822116 
L 82.080678 97.466896 
L 84.013524 89.562251 
L 84.398282 101.078756 
L 84.515973 101.197177 
L 85.548031 80.976682 
L 86.154592 85.003018 
L 87.521616 92.700425 
L 87.838476 90.983311 
L 88.843375 96.430706 
L 90.319037 102.943897 
L 90.337143 82.101688 
L 90.654003 92.049106 
L 92.161351 95.305701 
L 92.3741 94.743198 
L 93.383526 97.230052 
L 94.080617 94.802409 
L 95.307318 98.562296 
L 96.289584 94.92083 
L 97.643029 102.559026 
L 98.312961 88.555667 
L 98.580029 92.285949 
L 99.31786 86.098418 
L 100.051165 93.410955 
L 101.128488 87.785927 
L 102.264658 93.351744 
L 102.613204 81.50958 
L 103.034175 86.956975 
L 103.405354 81.006288 
L 104.699953 82.397742 
L 105.197876 87.815532 
L 107.34347 89.562251 
L 107.366103 74.966784 
L 107.601485 88.437246 
L 107.981717 86.128024 
L 110.294795 89.384619 
L 110.575442 84.825386 
L 110.602602 86.424078 
L 111.729718 90.095149 
L 113.028844 90.53923 
L 113.938684 87.105002 
L 114.662936 91.930684 
L 115.817211 87.549083 
L 116.437352 93.44056 
L 117.021279 87.489872 
L 117.885854 93.322138 
L 118.456202 96.016231 
L 119.044657 88.792511 
L 120.158193 95.868204 
L 120.628956 90.391203 
L 121.54785 94.92083 
L 122.665913 91.042522 
L 124.340745 92.907663 
L 124.363377 81.450369 
L 124.41317 92.167527 
L 125.074049 89.266197 
L 126.060842 90.361597 
L 127.233223 86.157629 
L 127.681354 86.808948 
L 127.993687 83.049061 
L 129.15249 83.433931 
L 129.949166 85.920786 
L 130.985751 85.565521 
L 132.072128 81.953661 
L 132.560998 82.841823 
L 133.108713 77.868114 
L 134.860496 81.983266 
L 135.068718 75.292443 
L 135.254307 77.039163 
L 136.404056 58.239727 
L 136.834081 68.54241 
L 137.793714 58.002884 
L 138.237318 61.940403 
L 139.694873 71.266108 
L 140.020787 68.808859 
L 140.47797 71.621373 
L 141.29728 69.016097 
L 141.315386 70.318735 
L 142.827261 70.170708 
L 175.047393 70.170708 
L 175.364253 60.489738 
L 175.373306 74.404281 
L 176.740331 74.019411 
L 177.288046 70.851632 
L 178.220519 70.525972 
L 178.68223 73.308881 
L 180.447592 73.723357 
L 181.126578 70.377945 
L 181.963994 72.035848 
L 182.60224 66.795691 
L 183.181641 63.12462 
L 183.969264 69.371361 
L 184.580352 69.63781 
L 185.680308 66.173977 
L 186.24613 68.660832 
L 187.101652 59.1871 
L 187.391352 59.423944 
L 187.649367 63.450279 
L 188.862488 60.430528 
L 189.595792 65.256209 
L 190.396995 61.466717 
L 191.125773 56.196954 
L 192.357001 55.427213 
L 192.37058 69.134518 
L 193.615387 57.292354 
L 194.774189 53.650889 
L 195.566339 55.960111 
L 195.819827 52.466672 
L 197.28191 56.700246 
L 197.938263 53.147597 
L 198.712306 51.844959 
L 199.282654 58.654203 
L 200.233234 62.354879 
L 201.034437 55.368002 
L 201.296978 54.272602 
L 202.568945 61.289084 
L 202.686636 60.578555 
L 203.43352 67.358194 
L 204.3841 58.535781 
L 205.366366 70.792421 
L 206.280733 66.854902 
L 207.231313 73.782568 
L 207.321844 71.384529 
L 208.01441 74.404281 
L 209.340695 60.93382 
L 209.345222 74.789152 
L 210.626241 71.414135 
L 211.567768 76.624687 
L 212.527401 78.66746 
L 213.165647 73.160854 
L 213.455348 74.256254 
L 214.926484 71.532556 
L 215.981175 70.318735 
L 216.447411 79.585228 
L 217.008706 73.368092 
L 217.493049 78.075352 
L 218.434576 70.614789 
L 218.937025 76.535871 
L 220.240678 78.075352 
L 220.322156 68.483199 
L 221.684654 70.910843 
L 221.956248 66.647664 
L 222.671447 69.519388 
L 223.92078 75.0556 
L 224.509234 71.947032 
L 225.305911 77.542455 
L 226.347022 83.37472 
L 226.360602 71.295713 
L 228.021853 73.841778 
L 228.696313 76.358238 
L 229.180656 77.601665 
L 229.538255 74.759546 
L 230.656318 75.499681 
L 231.611424 77.246401 
L 232.005236 75.736525 
L 232.906024 80.147731 
L 233.39942 79.585228 
L 234.725705 76.950346 
L 235.228155 78.28259 
L 235.377531 82.072082 
L 237.323957 85.358283 
L 237.790194 64.160809 
L 238.011996 69.489783 
L 239.383547 62.118036 
L 239.772832 66.558847 
L 239.944842 63.805544 
L 241.103644 67.269377 
L 242.54762 64.012782 
L 243.353349 61.289084 
L 243.357876 69.25294 
L 244.10476 63.479885 
L 245.598529 66.825296 
L 246.19151 65.31542 
L 246.94292 68.483199 
L 247.178302 67.328588 
L 248.522694 69.341756 
L 249.586438 65.700291 
L 249.799187 68.986491 
L 250.464593 61.614744 
L 251.917622 71.739794 
L 253.316332 65.137788 
L 254.366497 74.729941 
L 255.104328 74.374676 
L 255.652043 67.298983 
L 256.905903 72.568746 
L 257.765952 64.54568 
L 258.195976 66.085161 
L 258.924754 63.243042 
L 259.472469 64.427258 
L 260.350624 69.697021 
L 293.204476 69.697021 
L 294.358752 71.7694 
L 294.44023 57.70683 
L 295.214274 65.078577 
L 296.210119 68.039118 
L 296.839312 69.045702 
L 297.649569 66.973323 
L 298.247076 68.246356 
L 299.251975 65.433842 
L 299.609574 65.019366 
L 300.867961 67.713458 
L 301.125975 70.644394 
L 301.886439 62.562117 
L 302.65143 66.706875 
L 303.941502 56.9963 
L 304.217623 60.164079 
L 305.421691 54.627867 
L 305.715918 54.065364 
L 306.612179 60.430528 
L 307.037677 59.1871 
L 307.861513 53.650889 
L 308.581238 58.328543 
L 309.147059 54.006154 
L 311.365079 58.950257 
L 311.405818 45.509401 
L 311.650253 57.70683 
L 311.78605 55.516029 
L 313.193814 56.167348 
L 314.13534 58.565387 
L 314.723795 56.9963 
L 316.140611 50.039029 
L 317.6208 53.798916 
L 317.752071 50.927191 
L 317.856182 52.28904 
L 319.082882 45.509401 
L 319.639651 48.825207 
L 320.440854 40.654114 
L 321.934622 39.70674 
L 322.34654 48.469942 
L 322.396332 47.552174 
L 323.61398 32.216572 
L 324.288439 35.443561 
L 325.379343 24.815219 
L 325.80484 22.890867 
L 326.886691 27.657338 
L 328.371406 16.762547 
L 328.380459 35.32514 
L 328.556996 29.256031 
L 330.263513 24.430349 
L 331.567165 29.670506 
L 331.802547 28.87116 
L 332.381948 30.736301 
L 333.364214 30.825117 
L 334.251422 28.279052 
L 334.726712 28.930371 
L 335.736137 34.496188 
L 336.333645 34.170529 
L 336.808934 30.825117 
L 338.252911 35.887642 
L 338.850418 32.364599 
L 339.348341 35.917248 
L 340.733472 28.48629 
L 340.796844 29.285636 
L 341.937539 33.430393 
L 343.358883 11.759233 
L 343.79796 35.147507 
L 344.069554 29.226425 
L 345.377733 45.154136 
L 345.409419 50.897585 
L 345.413946 33.667237 
L 347.324159 37.427124 
L 348.396956 43.200179 
L 348.872246 43.673865 
L 349.63271 39.233054 
L 350.031048 40.890957 
L 351.212483 48.736391 
L 351.914102 51.696932 
L 353.005006 34.733031 
L 353.489349 39.795557 
L 354.37203 31.624463 
L 354.974064 34.22974 
L 356.119286 40.861351 
L 356.209818 40.062005 
L 357.237349 60.460133 
L 357.911809 55.634451 
L 358.495736 49.683764 
L 359.210934 53.76931 
L 359.944239 47.877834 
L 361.166413 48.558758 
L 362.09436 51.460088 
L 362.375008 42.400833 
L 362.39764 59.690392 
L 364.552288 48.736391 
L 364.819356 53.266018 
L 365.987211 54.183786 
L 367.195806 48.233099 
L 367.91553 54.539051 
L 368.43156 52.555488 
L 369.558676 58.506176 
L 370.079231 52.881148 
L 370.473043 60.075263 
L 371.686164 56.463403 
L 372.98529 65.048972 
L 373.388155 66.854902 
L 374.338735 56.729851 
L 374.940769 55.456819 
L 375.556382 64.308836 
L 376.117677 63.272647 
L 376.606547 59.394338 
L 378.530339 60.548949 
L 379.105214 63.420674 
L 379.15048 63.391069 
L 379.367755 60.874609 
L 382.210442 60.93382 
L 412.896067 60.93382 
L 413.393989 39.884373 
L 413.398516 82.60498 
L 414.480366 63.154225 
L 415.639169 66.558847 
L 416.182357 67.772669 
L 416.453951 63.657517 
L 417.839082 65.196999 
L 418.681024 67.713458 
L 419.115575 66.73648 
L 420.518812 61.377901 
L 420.636503 63.953571 
L 422.098585 55.131159 
L 422.261542 57.114722 
L 422.926948 50.216661 
L 424.343765 53.739705 
L 424.556513 49.891002 
L 425.176654 51.844959 
L 425.715316 56.700246 
L 426.792639 54.835105 
L 428.186823 47.25612 
L 428.820543 48.203493 
L 429.648906 45.420585 
L 430.39579 62.532512 
L 430.400317 38.256075 
L 432.686235 46.87125 
L 432.849192 45.805455 
L 433.835984 40.298849 
L 434.772984 46.87125 
L 435.379545 43.762682 
L 436.470448 44.591633 
L 437.158487 48.914023 
L 437.760521 51.726537 
L 439.159231 42.371227 
L 440.109811 48.706785 
L 441.304826 50.335083 
L 441.77559 44.680449 
L 442.341411 50.394293 
L 442.463628 44.384395 
L 443.62243 48.914023 
L 445.06188 40.802141 
L 446.216156 43.792287 
L 446.596388 40.772535 
L 447.41117 33.252761 
L 447.429277 50.216661 
L 448.198794 40.239638 
L 449.724248 43.64426 
L 449.77404 42.489649 
L 451.652567 47.315331 
L 452.779684 44.591633 
L 453.082964 44.680449 
L 454.219133 49.506131 
L 454.979597 47.729807 
L 455.771747 55.664057 
L 455.961863 53.502862 
L 457.392259 60.60816 
L 458.265888 58.594992 
L 458.92224 65.285815 
L 459.682704 66.825296 
L 459.999564 62.088431 
L 460.800767 62.02922 
L 461.538599 66.529242 
L 462.190425 63.983177 
L 463.082159 65.996345 
L 464.435604 53.354835 
L 464.449184 73.900989 
L 465.105536 64.190415 
L 466.391083 61.999614 
L 466.793947 63.539096 
L 467.264711 60.99303 
L 468.188131 61.999614 
L 469.333354 59.601576 
L 469.817697 59.868025 
L 470.940287 64.012782 
L 471.229987 61.141057 
L 472.212253 66.322004 
L 472.796181 64.841734 
L 474.145099 59.660787 
L 474.280896 61.022636 
L 475.666027 79.052331 
L 475.960254 72.568746 
L 477.282012 85.387888 
L 478.001737 80.591812 
L 478.879892 88.851721 
L 479.423081 91.723446 
L 480.292182 86.660921 
L 481.410245 78.845093 
L 481.419298 95.986625 
L 482.351772 84.736569 
L 483.623738 87.874743 
L 484.655797 83.37472 
L 485.022449 84.381304 
L 486.55243 81.539185 
L 486.715386 82.664191 
L 487.883242 80.502996 
L 489.105416 84.79578 
L 489.698397 79.229963 
L 491.151426 85.239861 
L 491.255537 86.808948 
L 492.409813 80.236547 
L 492.699513 82.160899 
L 493.980533 74.433887 
L 494.338132 79.37799 
L 494.555407 75.677314 
L 495.791161 77.216795 
L 496.972596 73.989805 
L 497.954862 73.516119 
L 498.407519 81.213526 
L 531.053149 81.213526 
L 532.420174 87.016186 
L 532.488072 63.953571 
L 532.592184 73.220065 
L 532.890937 77.89772 
L 534.543136 74.197043 
L 535.204015 68.779253 
L 535.661199 69.96347 
L 537.050856 66.854902 
L 537.476354 68.720042 
L 538.182499 65.789107 
L 539.531417 70.141102 
L 539.744166 65.789107 
L 540.391465 67.328588 
L 540.531789 72.953616 
L 542.690964 72.716773 
L 543.057616 65.581869 
L 543.433321 70.052286 
L 544.311476 59.749603 
L 545.370694 68.572015 
L 547.321646 69.519388 
L 547.977998 65.907528 
L 549.471767 79.141147 
L 550.12812 66.173977 
L 551.436299 65.937134 
L 552.156024 71.532556 
L 552.984386 72.006243 
L 554.03455 67.713458 
L 554.677324 69.933864 
L 555.573585 65.552264 
L 555.872338 66.41082 
L 556.836498 61.348295 
L 557.185044 64.042388 
L 557.723706 57.618014 
L 558.715025 60.963425 
L 559.56602 64.634496 
L 561.064315 70.496367 
L 561.630137 61.229874 
L 562.060161 60.134473 
L 562.526398 67.802275 
L 563.848156 57.469987 
L 564.699152 64.900944 
L 564.961693 62.769355 
L 566.33777 65.700291 
L 566.428302 52.644305 
L 566.459988 76.032579 
L 567.967336 62.887777 
L 568.551264 65.31542 
L 568.551264 65.31542 
" clip-path="url(#p2ad8f67ea2)" style="fill: none; stroke: #4169e1; stroke-width: 1.5; stroke-linecap: square"/>
   </g>
   <g id="patch_3">
    <path d="M 53.328125 107.50313 
L 53.328125 7.2 
" style="fill: none; stroke: #000000; stroke-width: 0.8; stroke-linejoin: miter; stroke-linecap: square"/>
   </g>
   <g id="patch_4">
    <path d="M 573.652483 107.50313 
L 573.652483 7.2 
" style="fill: none; stroke: #000000; stroke-width: 0.8; stroke-linejoin: miter; stroke-linecap: square"/>
   </g>
   <g id="patch_5">
    <path d="M 53.328125 107.50313 
L 573.652483 107.50313 
" style="fill: none; stroke: #000000; stroke-width: 0.8; stroke-linejoin: miter; stroke-linecap: square"/>
   </g>
   <g id="patch_6">
    <path d="M 53.328125 7.2 
L 573.652483 7.2 
" style="fill: none; stroke: #000000; stroke-width: 0.8; stroke-linejoin: miter; stroke-linecap: square"/>
   </g>
  </g>
  <g id="axes_2">
   <g id="patch_7">
    <path d="M 53.328125 221.03966 
L 573.652483 221.03966 
L 573.652483 120.73653 
L 53.328125 120.73653 
z
" style="fill: #ffffff"/>
   </g>
   <g id="matplotlib.axis_3">
    <g id="xtick_17">
     <g id="line2d_22">
      <g>
       <use xlink:href="#m8875da22ca" x="58.429344" y="221.03966" style="stroke: #000000; stroke-width: 0.8"/>
      </g>
     </g>
    </g>
    <g id="xtick_18">
     <g id="line2d_23">
      <g>
       <use xlink:href="#m8875da22ca" x="92.437669" y="221.03966" style="stroke: #000000; stroke-width: 0.8"/>
      </g>
     </g>
    </g>
    <g id="xtick_19">
     <g id="line2d_24">
      <g>
       <use xlink:href="#m8875da22ca" x="126.445994" y="221.03966" style="stroke: #000000; stroke-width: 0.8"/>
      </g>
     </g>
    </g>
    <g id="xtick_20">
     <g id="line2d_25">
      <g>
       <use xlink:href="#m8875da22ca" x="160.454319" y="221.03966" style="stroke: #000000; stroke-width: 0.8"/>
      </g>
     </g>
    </g>
    <g id="xtick_21">
     <g id="line2d_26">
      <g>
       <use xlink:href="#m8875da22ca" x="194.462643" y="221.03966" style="stroke: #000000; stroke-width: 0.8"/>
      </g>
     </g>
    </g>
    <g id="xtick_22">
     <g id="line2d_27">
      <g>
       <use xlink:href="#m8875da22ca" x="228.470968" y="221.03966" style="stroke: #000000; stroke-width: 0.8"/>
      </g>
     </g>
    </g>
    <g id="xtick_23">
     <g id="line2d_28">
      <g>
       <use xlink:href="#m8875da22ca" x="262.479293" y="221.03966" style="stroke: #000000; stroke-width: 0.8"/>
      </g>
     </g>
    </g>
    <g id="xtick_24">
     <g id="line2d_29">
      <g>
       <use xlink:href="#m8875da22ca" x="296.487618" y="221.03966" style="stroke: #000000; stroke-width: 0.8"/>
      </g>
     </g>
    </g>
    <g id="xtick_25">
     <g id="line2d_30">
      <g>
       <use xlink:href="#m8875da22ca" x="330.495942" y="221.03966" style="stroke: #000000; stroke-width: 0.8"/>
      </g>
     </g>
    </g>
    <g id="xtick_26">
     <g id="line2d_31">
      <g>
       <use xlink:href="#m8875da22ca" x="364.504267" y="221.03966" style="stroke: #000000; stroke-width: 0.8"/>
      </g>
     </g>
    </g>
    <g id="xtick_27">
     <g id="line2d_32">
      <g>
       <use xlink:href="#m8875da22ca" x="398.512592" y="221.03966" style="stroke: #000000; stroke-width: 0.8"/>
      </g>
     </g>
    </g>
    <g id="xtick_28">
     <g id="line2d_33">
      <g>
       <use xlink:href="#m8875da22ca" x="432.520917" y="221.03966" style="stroke: #000000; stroke-width: 0.8"/>
      </g>
     </g>
    </g>
    <g id="xtick_29">
     <g id="line2d_34">
      <g>
       <use xlink:href="#m8875da22ca" x="466.529241" y="221.03966" style="stroke: #000000; stroke-width: 0.8"/>
      </g>
     </g>
    </g>
    <g id="xtick_30">
     <g id="line2d_35">
      <g>
       <use xlink:href="#m8875da22ca" x="500.537566" y="221.03966" style="stroke: #000000; stroke-width: 0.8"/>
      </g>
     </g>
    </g>
    <g id="xtick_31">
     <g id="line2d_36">
      <g>
       <use xlink:href="#m8875da22ca" x="534.545891" y="221.03966" style="stroke: #000000; stroke-width: 0.8"/>
      </g>
     </g>
    </g>
    <g id="xtick_32">
     <g id="line2d_37">
      <g>
       <use xlink:href="#m8875da22ca" x="568.554216" y="221.03966" style="stroke: #000000; stroke-width: 0.8"/>
      </g>
     </g>
    </g>
   </g>
   <g id="matplotlib.axis_4">
    <g id="ytick_5">
     <g id="line2d_38">
      <g>
       <use xlink:href="#m2803b82a2e" x="53.328125" y="206.868975" style="stroke: #000000; stroke-width: 0.8"/>
      </g>
     </g>
     <g id="text_6">
      <!-- 1000 -->
      <g transform="translate(20.878125 210.668193) scale(0.1 -0.1)">
       <defs>
        <path id="DejaVuSans-30" d="M 2034 4250 
Q 1547 4250 1301 3770 
Q 1056 3291 1056 2328 
Q 1056 1369 1301 889 
Q 1547 409 2034 409 
Q 2525 409 2770 889 
Q 3016 1369 3016 2328 
Q 3016 3291 2770 3770 
Q 2525 4250 2034 4250 
z
M 2034 4750 
Q 2819 4750 3233 4129 
Q 3647 3509 3647 2328 
Q 3647 1150 3233 529 
Q 2819 -91 2034 -91 
Q 1250 -91 836 529 
Q 422 1150 422 2328 
Q 422 3509 836 4129 
Q 1250 4750 2034 4750 
z
" transform="scale(0.015625)"/>
       </defs>
       <use xlink:href="#DejaVuSans-31"/>
       <use xlink:href="#DejaVuSans-30" transform="translate(63.623047 0)"/>
       <use xlink:href="#DejaVuSans-30" transform="translate(127.246094 0)"/>
       <use xlink:href="#DejaVuSans-30" transform="translate(190.869141 0)"/>
      </g>
     </g>
    </g>
    <g id="ytick_6">
     <g id="line2d_39">
      <g>
       <use xlink:href="#m2803b82a2e" x="53.328125" y="185.369856" style="stroke: #000000; stroke-width: 0.8"/>
      </g>
     </g>
     <g id="text_7">
      <!-- 1005 -->
      <g transform="translate(20.878125 189.169075) scale(0.1 -0.1)">
       <defs>
        <path id="DejaVuSans-35" d="M 691 4666 
L 3169 4666 
L 3169 4134 
L 1269 4134 
L 1269 2991 
Q 1406 3038 1543 3061 
Q 1681 3084 1819 3084 
Q 2600 3084 3056 2656 
Q 3513 2228 3513 1497 
Q 3513 744 3044 326 
Q 2575 -91 1722 -91 
Q 1428 -91 1123 -41 
Q 819 9 494 109 
L 494 744 
Q 775 591 1075 516 
Q 1375 441 1709 441 
Q 2250 441 2565 725 
Q 2881 1009 2881 1497 
Q 2881 1984 2565 2268 
Q 2250 2553 1709 2553 
Q 1456 2553 1204 2497 
Q 953 2441 691 2322 
L 691 4666 
z
" transform="scale(0.015625)"/>
       </defs>
       <use xlink:href="#DejaVuSans-31"/>
       <use xlink:href="#DejaVuSans-30" transform="translate(63.623047 0)"/>
       <use xlink:href="#DejaVuSans-30" transform="translate(127.246094 0)"/>
       <use xlink:href="#DejaVuSans-35" transform="translate(190.869141 0)"/>
      </g>
     </g>
    </g>
    <g id="ytick_7">
     <g id="line2d_40">
      <g>
       <use xlink:href="#m2803b82a2e" x="53.328125" y="163.870738" style="stroke: #000000; stroke-width: 0.8"/>
      </g>
     </g>
     <g id="text_8">
      <!-- 1010 -->
      <g transform="translate(20.878125 167.669956) scale(0.1 -0.1)">
       <use xlink:href="#DejaVuSans-31"/>
       <use xlink:href="#DejaVuSans-30" transform="translate(63.623047 0)"/>
       <use xlink:href="#DejaVuSans-31" transform="translate(127.246094 0)"/>
       <use xlink:href="#DejaVuSans-30" transform="translate(190.869141 0)"/>
      </g>
     </g>
    </g>
    <g id="ytick_8">
     <g id="line2d_41">
      <g>
       <use xlink:href="#m2803b82a2e" x="53.328125" y="142.371619" style="stroke: #000000; stroke-width: 0.8"/>
      </g>
     </g>
     <g id="text_9">
      <!-- 1015 -->
      <g transform="translate(20.878125 146.170838) scale(0.1 -0.1)">
       <use xlink:href="#DejaVuSans-31"/>
       <use xlink:href="#DejaVuSans-30" transform="translate(63.623047 0)"/>
       <use xlink:href="#DejaVuSans-31" transform="translate(127.246094 0)"/>
       <use xlink:href="#DejaVuSans-35" transform="translate(190.869141 0)"/>
      </g>
     </g>
    </g>
    <g id="ytick_9">
     <g id="line2d_42">
      <g>
       <use xlink:href="#m2803b82a2e" x="53.328125" y="120.872501" style="stroke: #000000; stroke-width: 0.8"/>
      </g>
     </g>
     <g id="text_10">
      <!-- 1020 -->
      <g transform="translate(20.878125 124.671719) scale(0.1 -0.1)">
       <defs>
        <path id="DejaVuSans-32" d="M 1228 531 
L 3431 531 
L 3431 0 
L 469 0 
L 469 531 
Q 828 903 1448 1529 
Q 2069 2156 2228 2338 
Q 2531 2678 2651 2914 
Q 2772 3150 2772 3378 
Q 2772 3750 2511 3984 
Q 2250 4219 1831 4219 
Q 1534 4219 1204 4116 
Q 875 4013 500 3803 
L 500 4441 
Q 881 4594 1212 4672 
Q 1544 4750 1819 4750 
Q 2544 4750 2975 4387 
Q 3406 4025 3406 3419 
Q 3406 3131 3298 2873 
Q 3191 2616 2906 2266 
Q 2828 2175 2409 1742 
Q 1991 1309 1228 531 
z
" transform="scale(0.015625)"/>
       </defs>
       <use xlink:href="#DejaVuSans-31"/>
       <use xlink:href="#DejaVuSans-30" transform="translate(63.623047 0)"/>
       <use xlink:href="#DejaVuSans-32" transform="translate(127.246094 0)"/>
       <use xlink:href="#DejaVuSans-30" transform="translate(190.869141 0)"/>
      </g>
     </g>
    </g>
    <g id="text_11">
     <!-- Equity -->
     <g transform="translate(14.798438 186.699033) rotate(-90) scale(0.1 -0.1)">
      <defs>
       <path id="DejaVuSans-45" d="M 628 4666 
L 3578 4666 
L 3578 4134 
L 1259 4134 
L 1259 2753 
L 3481 2753 
L 3481 2222 
L 1259 2222 
L 1259 531 
L 3634 531 
L 3634 0 
L 628 0 
L 628 4666 
z
" transform="scale(0.015625)"/>
       <path id="DejaVuSans-71" d="M 947 1747 
Q 947 1113 1208 752 
Q 1469 391 1925 391 
Q 2381 391 2643 752 
Q 2906 1113 2906 1747 
Q 2906 2381 2643 2742 
Q 2381 3103 1925 3103 
Q 1469 3103 1208 2742 
Q 947 2381 947 1747 
z
M 2906 525 
Q 2725 213 2448 61 
Q 2172 -91 1784 -91 
Q 1150 -91 751 415 
Q 353 922 353 1747 
Q 353 2572 751 3078 
Q 1150 3584 1784 3584 
Q 2172 3584 2448 3432 
Q 2725 3281 2906 2969 
L 2906 3500 
L 3481 3500 
L 3481 -1331 
L 2906 -1331 
L 2906 525 
z
" transform="scale(0.015625)"/>
       <path id="DejaVuSans-75" d="M 544 1381 
L 544 3500 
L 1119 3500 
L 1119 1403 
Q 1119 906 1312 657 
Q 1506 409 1894 409 
Q 2359 409 2629 706 
Q 2900 1003 2900 1516 
L 2900 3500 
L 3475 3500 
L 3475 0 
L 2900 0 
L 2900 538 
Q 2691 219 2414 64 
Q 2138 -91 1772 -91 
Q 1169 -91 856 284 
Q 544 659 544 1381 
z
M 1991 3584 
L 1991 3584 
z
" transform="scale(0.015625)"/>
       <path id="DejaVuSans-74" d="M 1172 4494 
L 1172 3500 
L 2356 3500 
L 2356 3053 
L 1172 3053 
L 1172 1153 
Q 1172 725 1289 603 
Q 1406 481 1766 481 
L 2356 481 
L 2356 0 
L 1766 0 
Q 1100 0 847 248 
Q 594 497 594 1153 
L 594 3053 
L 172 3053 
L 172 3500 
L 594 3500 
L 594 4494 
L 1172 4494 
z
" transform="scale(0.015625)"/>
       <path id="DejaVuSans-79" d="M 2059 -325 
Q 1816 -950 1584 -1140 
Q 1353 -1331 966 -1331 
L 506 -1331 
L 506 -850 
L 844 -850 
Q 1081 -850 1212 -737 
Q 1344 -625 1503 -206 
L 1606 56 
L 191 3500 
L 800 3500 
L 1894 763 
L 2988 3500 
L 3597 3500 
L 2059 -325 
z
" transform="scale(0.015625)"/>
      </defs>
      <use xlink:href="#DejaVuSans-45"/>
      <use xlink:href="#DejaVuSans-71" transform="translate(63.183594 0)"/>
      <use xlink:href="#DejaVuSans-75" transform="translate(126.660156 0)"/>
      <use xlink:href="#DejaVuSans-69" transform="translate(190.039062 0)"/>
      <use xlink:href="#DejaVuSans-74" transform="translate(217.822266 0)"/>
      <use xlink:href="#DejaVuSans-79" transform="translate(257.03125 0)"/>
     </g>
    </g>
   </g>
   <g id="line2d_43">
    <path d="M 58.429344 206.868975 
L 73.769893 206.868975 
L 73.996222 207.445721 
L 74.245183 204.618243 
L 75.308927 204.79123 
L 76.671425 206.873447 
L 76.875121 205.514789 
L 77.033551 209.590764 
L 78.377943 208.746192 
L 79.907924 208.746192 
L 81.284001 208.290489 
L 81.415272 213.93504 
L 81.591808 206.408972 
L 82.080678 216.061792 
L 84.013524 200.84544 
L 84.398282 215.213344 
L 84.515973 215.361086 
L 85.548031 190.134149 
L 86.154592 195.157375 
L 87.521616 203.700749 
L 87.838476 201.558491 
L 88.843375 208.35462 
L 90.319037 216.480427 
L 90.595158 190.131011 
L 90.663056 193.429749 
L 93.080245 190.228553 
L 93.383526 193.230776 
L 93.723018 191.52581 
L 101.39103 191.52581 
L 102.264658 193.919075 
L 102.613204 179.110482 
L 103.034175 185.3178 
L 103.188078 178.57989 
L 107.533586 178.57989 
L 107.601485 181.829118 
L 109.068094 180.383603 
L 118.270613 180.383603 
L 119.044657 177.030765 
L 119.777961 185.602592 
L 120.158193 185.899452 
L 120.628956 179.034568 
L 121.54785 184.712013 
L 122.665913 179.850933 
L 124.340745 182.188704 
L 124.363377 167.82811 
L 124.41317 181.261017 
L 125.074049 177.624484 
L 126.060842 178.997461 
L 126.223798 176.622582 
L 127.482185 176.80812 
L 135.154723 176.80812 
L 136.662071 182.682589 
L 136.834081 187.025755 
L 137.255052 179.581587 
L 138.712608 182.885381 
L 138.74882 181.706197 
L 139.758245 181.779896 
L 176.581901 181.779896 
L 177.709017 182.286119 
L 178.116408 179.848377 
L 178.120935 179.885312 
L 182.719931 179.885312 
L 183.362704 179.580788 
L 183.457762 183.155189 
L 184.258965 183.08149 
L 191.926976 183.08149 
L 192.737233 184.872018 
L 193.257788 181.860937 
L 193.615387 183.219596 
L 194.774189 178.702975 
L 195.000518 179.217062 
L 199.599514 179.217062 
L 200.396191 179.759773 
L 200.450509 174.97493 
L 201.138548 175.711059 
L 202.668529 175.711059 
L 203.691534 176.771228 
L 203.872597 174.852818 
L 204.207563 175.258636 
L 205.212462 187.72696 
L 205.742071 187.174862 
L 208.80656 187.174862 
L 209.671135 184.437262 
L 209.680188 189.190846 
L 210.626241 185.579596 
L 211.042686 190.664826 
L 211.880101 190.148933 
L 219.548113 190.148933 
L 220.688808 190.838719 
L 221.08262 182.936119 
L 221.26821 184.852293 
L 221.508118 180.909397 
L 222.621654 181.572688 
L 225.686143 181.572688 
L 226.731781 183.814642 
L 227.026008 180.933675 
L 227.225177 181.339965 
L 233.358681 181.339965 
L 233.793232 182.363881 
L 233.947135 179.849344 
L 234.897715 180.367043 
L 236.427696 180.367043 
L 237.66345 181.684639 
L 237.790194 171.90813 
L 238.011996 178.548778 
L 239.383547 169.362549 
L 239.772832 174.896422 
L 239.944842 171.46542 
L 241.035745 173.715862 
L 241.103644 175.781841 
L 243.679263 176.214708 
L 244.10476 172.08275 
L 254.841787 172.08275 
L 255.104328 175.954892 
L 255.652043 167.117035 
L 256.905903 173.699205 
L 257.765952 163.678036 
L 258.195976 165.600917 
L 258.924754 162.050983 
L 259.449836 163.678036 
L 311.618567 163.678036 
L 311.754364 164.849856 
L 311.78605 162.378059 
L 313.157601 163.964436 
L 322.36012 163.964436 
L 322.609081 164.545395 
L 323.61398 148.259167 
L 324.288439 152.266388 
L 325.379343 139.068294 
L 325.80484 136.678667 
L 326.886691 142.59759 
L 328.371406 129.068624 
L 328.380459 152.119334 
L 328.597735 140.024145 
L 330.037184 140.28149 
L 339.239703 140.28149 
L 340.575042 140.828103 
L 340.733472 137.736358 
L 340.796844 138.730133 
L 341.937539 143.883041 
L 342.8338 142.11633 
L 343.295511 125.295764 
L 344.069554 131.415194 
L 345.377733 151.263352 
L 345.409419 158.420495 
L 345.413946 136.949067 
L 347.324159 141.634413 
L 347.622913 146.504222 
L 348.464855 144.100825 
L 348.541807 141.515341 
L 349.985783 142.438728 
L 351.515764 142.438728 
L 352.769624 143.206789 
L 353.005006 135.828292 
L 353.489349 142.136907 
L 354.37203 131.954581 
L 355.960856 133.494346 
L 356.119286 138.77612 
L 356.209818 137.778862 
L 357.237349 163.227411 
L 357.911809 157.206927 
L 358.495736 149.782895 
L 359.210934 154.879992 
L 359.944239 147.52983 
L 361.166413 148.379346 
L 362.09436 151.999024 
L 362.375008 140.696765 
L 362.827665 166.777656 
L 364.552288 163.722718 
L 364.656399 169.133272 
L 366.860839 169.133272 
L 367.236545 171.037095 
L 367.44024 169.08073 
L 368.920429 167.563242 
L 369.169391 172.311279 
L 369.934381 171.943214 
L 370.473043 177.786874 
L 371.468889 175.652098 
L 372.99887 175.652098 
L 373.582797 177.560742 
L 374.338735 168.885872 
L 374.940769 167.301344 
L 375.556382 178.319341 
L 376.072411 172.865617 
L 414.430574 172.865617 
L 415.639169 174.220789 
L 415.856444 171.601422 
L 416.182357 175.733381 
L 416.453951 170.605325 
L 417.839082 172.523734 
L 418.681024 175.659596 
L 419.115575 174.442144 
L 420.518812 167.764604 
L 420.636503 170.97425 
L 422.098585 159.980289 
L 422.261542 162.452085 
L 422.926948 153.856136 
L 424.343765 158.246342 
L 424.556513 153.450318 
L 425.176654 155.885223 
L 425.715316 161.935591 
L 426.792639 159.611364 
L 428.186823 150.166887 
L 428.820543 151.347447 
L 429.648906 147.879553 
L 430.39579 169.203411 
L 430.400317 138.951571 
L 432.686235 149.687285 
L 432.849192 148.359155 
L 433.835984 141.497153 
L 434.772984 149.687285 
L 435.379545 145.813574 
L 436.470448 146.846563 
L 437.158487 152.232866 
L 437.452714 149.90864 
L 438.742787 151.044958 
L 438.987222 150.602248 
L 442.05171 150.602248 
L 442.463628 148.086084 
L 443.568112 154.616055 
L 444.102247 147.348235 
L 445.125252 148.484682 
L 446.655233 148.484682 
L 447.632972 145.120485 
L 447.777823 149.695154 
L 448.198794 145.747658 
L 449.724248 149.990294 
L 449.77404 148.551487 
L 451.652567 154.564962 
L 452.779684 151.170853 
L 452.865688 153.79022 
L 453.082964 151.281531 
L 454.332297 152.130058 
L 458.931294 152.130058 
L 459.415637 151.63855 
L 459.709864 153.842752 
L 463.534816 153.842752 
L 464.575928 154.685528 
L 465.046691 153.054691 
L 465.105536 154.129561 
L 466.391083 151.386789 
L 466.608358 152.461659 
L 475.815403 152.461659 
L 476.621133 154.535247 
L 477.349911 152.934078 
L 480.4144 152.934078 
L 481.704472 146.98684 
L 481.758791 156.429425 
L 482.351772 148.131244 
L 483.623738 152.087426 
L 484.275565 146.675667 
L 486.556956 146.71299 
L 491.155953 146.71299 
L 492.500344 148.977639 
L 492.622562 145.581294 
L 492.699513 147.18616 
L 493.980533 137.444996 
L 494.338132 143.677848 
L 494.555407 139.01254 
L 495.791161 140.953308 
L 496.972596 136.885159 
L 497.343775 138.825927 
L 500.367525 138.751282 
L 543.333737 138.751282 
L 544.759606 143.014032 
L 544.958776 142.04812 
L 545.370694 146.283274 
L 546.402752 143.979944 
L 549.46724 143.979944 
L 549.752414 145.53182 
L 550.12812 141.663698 
L 551.436299 141.366151 
L 551.644521 143.858113 
L 552.540782 142.694661 
L 562.254803 142.61102 
L 562.558084 151.31118 
L 563.282335 150.531923 
L 566.346824 150.531923 
L 567.025809 151.672388 
L 567.179713 148.55536 
L 567.894911 149.844381 
L 567.953756 148.285867 
L 568.551264 149.352214 
L 568.551264 149.352214 
" clip-path="url(#pfbd6917ee4)" style="fill: none; stroke: #2e8b57; stroke-width: 1.5; stroke-linecap: square"/>
   </g>
   <g id="patch_8">
    <path d="M 53.328125 221.03966 
L 53.328125 120.73653 
" style="fill: none; stroke: #000000; stroke-width: 0.8; stroke-linejoin: miter; stroke-linecap: square"/>
   </g>
   <g id="patch_9">
    <path d="M 573.652483 221.03966 
L 573.652483 120.73653 
" style="fill: none; stroke: #000000; stroke-width: 0.8; stroke-linejoin: miter; stroke-linecap: square"/>
   </g>
   <g id="patch_10">
    <path d="M 53.328125 221.03966 
L 573.652483 221.03966 
" style="fill: none; stroke: #000000; stroke-width: 0.8; stroke-linejoin: miter; stroke-linecap: square"/>
   </g>
   <g id="patch_11">
    <path d="M 53.328125 120.73653 
L 573.652483 120.73653 
" style="fill: none; stroke: #000000; stroke-width: 0.8; stroke-linejoin: miter; stroke-linecap: square"/>
   </g>
  </g>
  <g id="axes_3">
   <g id="patch_12">
    <path d="M 53.328125 330.84327 
L 573.652483 330.84327 
L 573.652483 230.54014 
L 53.328125 230.54014 
z
" style="fill: #ffffff"/>
   </g>
   <g id="matplotlib.axis_5">
    <g id="xtick_33">
     <g id="line2d_44">
      <g>
       <use xlink:href="#m8875da22ca" x="58.429344" y="330.84327" style="stroke: #000000; stroke-width: 0.8"/>
      </g>
     </g>
     <g id="text_12">
      <!-- Sep -->
      <g transform="translate(49.004344 345.441707) scale(0.1 -0.1)">
       <defs>
        <path id="DejaVuSans-53" d="M 3425 4513 
L 3425 3897 
Q 3066 4069 2747 4153 
Q 2428 4238 2131 4238 
Q 1616 4238 1336 4038 
Q 1056 3838 1056 3469 
Q 1056 3159 1242 3001 
Q 1428 2844 1947 2747 
L 2328 2669 
Q 3034 2534 3370 2195 
Q 3706 1856 3706 1288 
Q 3706 609 3251 259 
Q 2797 -91 1919 -91 
Q 1588 -91 1214 -16 
Q 841 59 441 206 
L 441 856 
Q 825 641 1194 531 
Q 1563 422 1919 422 
Q 2459 422 2753 634 
Q 3047 847 3047 1241 
Q 3047 1584 2836 1778 
Q 2625 1972 2144 2069 
L 1759 2144 
Q 1053 2284 737 2584 
Q 422 2884 422 3419 
Q 422 4038 858 4394 
Q 1294 4750 2059 4750 
Q 2388 4750 2728 4690 
Q 3069 4631 3425 4513 
z
" transform="scale(0.015625)"/>
        <path id="DejaVuSans-70" d="M 1159 525 
L 1159 -1331 
L 581 -1331 
L 581 3500 
L 1159 3500 
L 1159 2969 
Q 1341 3281 1617 3432 
Q 1894 3584 2278 3584 
Q 2916 3584 3314 3078 
Q 3713 2572 3713 1747 
Q 3713 922 3314 415 
Q 2916 -91 2278 -91 
Q 1894 -91 1617 61 
Q 1341 213 1159 525 
z
M 3116 1747 
Q 3116 2381 2855 2742 
Q 2594 3103 2138 3103 
Q 1681 3103 1420 2742 
Q 1159 2381 1159 1747 
Q 1159 1113 1420 752 
Q 1681 391 2138 391 
Q 2594 391 2855 752 
Q 3116 1113 3116 1747 
z
" transform="scale(0.015625)"/>
       </defs>
       <use xlink:href="#DejaVuSans-53"/>
       <use xlink:href="#DejaVuSans-65" transform="translate(63.476562 0)"/>
       <use xlink:href="#DejaVuSans-70" transform="translate(125 0)"/>
      </g>
     </g>
    </g>
    <g id="xtick_34">
     <g id="line2d_45">
      <g>
       <use xlink:href="#m8875da22ca" x="92.437669" y="330.84327" style="stroke: #000000; stroke-width: 0.8"/>
      </g>
     </g>
     <g id="text_13">
      <!-- 03 -->
      <g transform="translate(86.075169 345.441707) scale(0.1 -0.1)">
       <defs>
        <path id="DejaVuSans-33" d="M 2597 2516 
Q 3050 2419 3304 2112 
Q 3559 1806 3559 1356 
Q 3559 666 3084 287 
Q 2609 -91 1734 -91 
Q 1441 -91 1130 -33 
Q 819 25 488 141 
L 488 750 
Q 750 597 1062 519 
Q 1375 441 1716 441 
Q 2309 441 2620 675 
Q 2931 909 2931 1356 
Q 2931 1769 2642 2001 
Q 2353 2234 1838 2234 
L 1294 2234 
L 1294 2753 
L 1863 2753 
Q 2328 2753 2575 2939 
Q 2822 3125 2822 3475 
Q 2822 3834 2567 4026 
Q 2313 4219 1838 4219 
Q 1578 4219 1281 4162 
Q 984 4106 628 3988 
L 628 4550 
Q 988 4650 1302 4700 
Q 1616 4750 1894 4750 
Q 2613 4750 3031 4423 
Q 3450 4097 3450 3541 
Q 3450 3153 3228 2886 
Q 3006 2619 2597 2516 
z
" transform="scale(0.015625)"/>
       </defs>
       <use xlink:href="#DejaVuSans-30"/>
       <use xlink:href="#DejaVuSans-33" transform="translate(63.623047 0)"/>
      </g>
     </g>
    </g>
    <g id="xtick_35">
     <g id="line2d_46">
      <g>
       <use xlink:href="#m8875da22ca" x="126.445994" y="330.84327" style="stroke: #000000; stroke-width: 0.8"/>
      </g>
     </g>
     <g id="text_14">
      <!-- 05 -->
      <g transform="translate(120.083494 345.441707) scale(0.1 -0.1)">
       <use xlink:href="#DejaVuSans-30"/>
       <use xlink:href="#DejaVuSans-35" transform="translate(63.623047 0)"/>
      </g>
     </g>
    </g>
    <g id="xtick_36">
     <g id="line2d_47">
      <g>
       <use xlink:href="#m8875da22ca" x="160.454319" y="330.84327" style="stroke: #000000; stroke-width: 0.8"/>
      </g>
     </g>
     <g id="text_15">
      <!-- 07 -->
      <g transform="translate(154.091819 345.441707) scale(0.1 -0.1)">
       <use xlink:href="#DejaVuSans-30"/>
       <use xlink:href="#DejaVuSans-37" transform="translate(63.623047 0)"/>
      </g>
     </g>
    </g>
    <g id="xtick_37">
     <g id="line2d_48">
      <g>
       <use xlink:href="#m8875da22ca" x="194.462643" y="330.84327" style="stroke: #000000; stroke-width: 0.8"/>
      </g>
     </g>
     <g id="text_16">
      <!-- 09 -->
      <g transform="translate(188.100143 345.441707) scale(0.1 -0.1)">
       <use xlink:href="#DejaVuSans-30"/>
       <use xlink:href="#DejaVuSans-39" transform="translate(63.623047 0)"/>
      </g>
     </g>
    </g>
    <g id="xtick_38">
     <g id="line2d_49">
      <g>
       <use xlink:href="#m8875da22ca" x="228.470968" y="330.84327" style="stroke: #000000; stroke-width: 0.8"/>
      </g>
     </g>
     <g id="text_17">
      <!-- 11 -->
      <g transform="translate(222.108468 345.441707) scale(0.1 -0.1)">
       <use xlink:href="#DejaVuSans-31"/>
       <use xlink:href="#DejaVuSans-31" transform="translate(63.623047 0)"/>
      </g>
     </g>
    </g>
    <g id="xtick_39">
     <g id="line2d_50">
      <g>
       <use xlink:href="#m8875da22ca" x="262.479293" y="330.84327" style="stroke: #000000; stroke-width: 0.8"/>
      </g>
     </g>
     <g id="text_18">
      <!-- 13 -->
      <g transform="translate(256.116793 345.441707) scale(0.1 -0.1)">
       <use xlink:href="#DejaVuSans-31"/>
       <use xlink:href="#DejaVuSans-33" transform="translate(63.623047 0)"/>
      </g>
     </g>
    </g>
    <g id="xtick_40">
     <g id="line2d_51">
      <g>
       <use xlink:href="#m8875da22ca" x="296.487618" y="330.84327" style="stroke: #000000; stroke-width: 0.8"/>
      </g>
     </g>
     <g id="text_19">
      <!-- 15 -->
      <g transform="translate(290.125118 345.441707) scale(0.1 -0.1)">
       <use xlink:href="#DejaVuSans-31"/>
       <use xlink:href="#DejaVuSans-35" transform="translate(63.623047 0)"/>
      </g>
     </g>
    </g>
    <g id="xtick_41">
     <g id="line2d_52">
      <g>
       <use xlink:href="#m8875da22ca" x="330.495942" y="330.84327" style="stroke: #000000; stroke-width: 0.8"/>
      </g>
     </g>
     <g id="text_20">
      <!-- 17 -->
      <g transform="translate(324.133442 345.441707) scale(0.1 -0.1)">
       <use xlink:href="#DejaVuSans-31"/>
       <use xlink:href="#DejaVuSans-37" transform="translate(63.623047 0)"/>
      </g>
     </g>
    </g>
    <g id="xtick_42">
     <g id="line2d_53">
      <g>
       <use xlink:href="#m8875da22ca" x="364.504267" y="330.84327" style="stroke: #000000; stroke-width: 0.8"/>
      </g>
     </g>
     <g id="text_21">
      <!-- 19 -->
      <g transform="translate(358.141767 345.441707) scale(0.1 -0.1)">
       <use xlink:href="#DejaVuSans-31"/>
       <use xlink:href="#DejaVuSans-39" transform="translate(63.623047 0)"/>
      </g>
     </g>
    </g>
    <g id="xtick_43">
     <g id="line2d_54">
      <g>
       <use xlink:href="#m8875da22ca" x="398.512592" y="330.84327" style="stroke: #000000; stroke-width: 0.8"/>
      </g>
     </g>
     <g id="text_22">
      <!-- 21 -->
      <g transform="translate(392.150092 345.441707) scale(0.1 -0.1)">
       <use xlink:href="#DejaVuSans-32"/>
       <use xlink:href="#DejaVuSans-31" transform="translate(63.623047 0)"/>
      </g>
     </g>
    </g>
    <g id="xtick_44">
     <g id="line2d_55">
      <g>
       <use xlink:href="#m8875da22ca" x="432.520917" y="330.84327" style="stroke: #000000; stroke-width: 0.8"/>
      </g>
     </g>
     <g id="text_23">
      <!-- 23 -->
      <g transform="translate(426.158417 345.441707) scale(0.1 -0.1)">
       <use xlink:href="#DejaVuSans-32"/>
       <use xlink:href="#DejaVuSans-33" transform="translate(63.623047 0)"/>
      </g>
     </g>
    </g>
    <g id="xtick_45">
     <g id="line2d_56">
      <g>
       <use xlink:href="#m8875da22ca" x="466.529241" y="330.84327" style="stroke: #000000; stroke-width: 0.8"/>
      </g>
     </g>
     <g id="text_24">
      <!-- 25 -->
      <g transform="translate(460.166741 345.441707) scale(0.1 -0.1)">
       <use xlink:href="#DejaVuSans-32"/>
       <use xlink:href="#DejaVuSans-35" transform="translate(63.623047 0)"/>
      </g>
     </g>
    </g>
    <g id="xtick_46">
     <g id="line2d_57">
      <g>
       <use xlink:href="#m8875da22ca" x="500.537566" y="330.84327" style="stroke: #000000; stroke-width: 0.8"/>
      </g>
     </g>
     <g id="text_25">
      <!-- 27 -->
      <g transform="translate(494.175066 345.441707) scale(0.1 -0.1)">
       <use xlink:href="#DejaVuSans-32"/>
       <use xlink:href="#DejaVuSans-37" transform="translate(63.623047 0)"/>
      </g>
     </g>
    </g>
    <g id="xtick_47">
     <g id="line2d_58">
      <g>
       <use xlink:href="#m8875da22ca" x="534.545891" y="330.84327" style="stroke: #000000; stroke-width: 0.8"/>
      </g>
     </g>
     <g id="text_26">
      <!-- 29 -->
      <g transform="translate(528.183391 345.441707) scale(0.1 -0.1)">
       <use xlink:href="#DejaVuSans-32"/>
       <use xlink:href="#DejaVuSans-39" transform="translate(63.623047 0)"/>
      </g>
     </g>
    </g>
    <g id="xtick_48">
     <g id="line2d_59">
      <g>
       <use xlink:href="#m8875da22ca" x="568.554216" y="330.84327" style="stroke: #000000; stroke-width: 0.8"/>
      </g>
     </g>
     <g id="text_27">
      <!-- Oct -->
      <g transform="translate(559.908903 345.441707) scale(0.1 -0.1)">
       <defs>
        <path id="DejaVuSans-4f" d="M 2522 4238 
Q 1834 4238 1429 3725 
Q 1025 3213 1025 2328 
Q 1025 1447 1429 934 
Q 1834 422 2522 422 
Q 3209 422 3611 934 
Q 4013 1447 4013 2328 
Q 4013 3213 3611 3725 
Q 3209 4238 2522 4238 
z
M 2522 4750 
Q 3503 4750 4090 4092 
Q 4678 3434 4678 2328 
Q 4678 1225 4090 567 
Q 3503 -91 2522 -91 
Q 1538 -91 948 565 
Q 359 1222 359 2328 
Q 359 3434 948 4092 
Q 1538 4750 2522 4750 
z
" transform="scale(0.015625)"/>
       </defs>
       <use xlink:href="#DejaVuSans-4f"/>
       <use xlink:href="#DejaVuSans-63" transform="translate(78.710938 0)"/>
       <use xlink:href="#DejaVuSans-74" transform="translate(133.691406 0)"/>
      </g>
     </g>
    </g>
    <g id="text_28">
     <!-- Time -->
     <g transform="translate(301.25671 359.119832) scale(0.1 -0.1)">
      <defs>
       <path id="DejaVuSans-54" d="M -19 4666 
L 3928 4666 
L 3928 4134 
L 2272 4134 
L 2272 0 
L 1638 0 
L 1638 4134 
L -19 4134 
L -19 4666 
z
" transform="scale(0.015625)"/>
       <path id="DejaVuSans-6d" d="M 3328 2828 
Q 3544 3216 3844 3400 
Q 4144 3584 4550 3584 
Q 5097 3584 5394 3201 
Q 5691 2819 5691 2113 
L 5691 0 
L 5113 0 
L 5113 2094 
Q 5113 2597 4934 2840 
Q 4756 3084 4391 3084 
Q 3944 3084 3684 2787 
Q 3425 2491 3425 1978 
L 3425 0 
L 2847 0 
L 2847 2094 
Q 2847 2600 2669 2842 
Q 2491 3084 2119 3084 
Q 1678 3084 1418 2786 
Q 1159 2488 1159 1978 
L 1159 0 
L 581 0 
L 581 3500 
L 1159 3500 
L 1159 2956 
Q 1356 3278 1631 3431 
Q 1906 3584 2284 3584 
Q 2666 3584 2933 3390 
Q 3200 3197 3328 2828 
z
" transform="scale(0.015625)"/>
      </defs>
      <use xlink:href="#DejaVuSans-54"/>
      <use xlink:href="#DejaVuSans-69" transform="translate(57.958984 0)"/>
      <use xlink:href="#DejaVuSans-6d" transform="translate(85.742188 0)"/>
      <use xlink:href="#DejaVuSans-65" transform="translate(183.154297 0)"/>
     </g>
    </g>
    <g id="text_29">
     <!-- 2025-Oct -->
     <g transform="translate(527.029045 358.119832) scale(0.1 -0.1)">
      <defs>
       <path id="DejaVuSans-2d" d="M 313 2009 
L 1997 2009 
L 1997 1497 
L 313 1497 
L 313 2009 
z
" transform="scale(0.015625)"/>
      </defs>
      <use xlink:href="#DejaVuSans-32"/>
      <use xlink:href="#DejaVuSans-30" transform="translate(63.623047 0)"/>
      <use xlink:href="#DejaVuSans-32" transform="translate(127.246094 0)"/>
      <use xlink:href="#DejaVuSans-35" transform="translate(190.869141 0)"/>
      <use xlink:href="#DejaVuSans-2d" transform="translate(254.492188 0)"/>
      <use xlink:href="#DejaVuSans-4f" transform="translate(293.326172 0)"/>
      <use xlink:href="#DejaVuSans-63" transform="translate(372.037109 0)"/>
      <use xlink:href="#DejaVuSans-74" transform="translate(427.017578 0)"/>
     </g>
    </g>
   </g>
   <g id="matplotlib.axis_6">
    <g id="ytick_10">
     <g id="line2d_60">
      <g>
       <use xlink:href="#m2803b82a2e" x="53.328125" y="310.44627" style="stroke: #000000; stroke-width: 0.8"/>
      </g>
     </g>
     <g id="text_30">
      <!-- 1.0 -->
      <g transform="translate(22.045313 314.245488) scale(0.1 -0.1)">
       <defs>
        <path id="DejaVuSans-2212" d="M 678 2272 
L 4684 2272 
L 4684 1741 
L 678 1741 
L 678 2272 
z
" transform="scale(0.015625)"/>
       </defs>
       <use xlink:href="#DejaVuSans-2212"/>
       <use xlink:href="#DejaVuSans-31" transform="translate(83.789062 0)"/>
       <use xlink:href="#DejaVuSans-2e" transform="translate(147.412109 0)"/>
       <use xlink:href="#DejaVuSans-30" transform="translate(179.199219 0)"/>
      </g>
     </g>
    </g>
    <g id="ytick_11">
     <g id="line2d_61">
      <g>
       <use xlink:href="#m2803b82a2e" x="53.328125" y="272.772822" style="stroke: #000000; stroke-width: 0.8"/>
      </g>
     </g>
     <g id="text_31">
      <!-- 0.5 -->
      <g transform="translate(22.045313 276.57204) scale(0.1 -0.1)">
       <use xlink:href="#DejaVuSans-2212"/>
       <use xlink:href="#DejaVuSans-30" transform="translate(83.789062 0)"/>
       <use xlink:href="#DejaVuSans-2e" transform="translate(147.412109 0)"/>
       <use xlink:href="#DejaVuSans-35" transform="translate(179.199219 0)"/>
      </g>
     </g>
    </g>
    <g id="ytick_12">
     <g id="line2d_62">
      <g>
       <use xlink:href="#m2803b82a2e" x="53.328125" y="235.099373" style="stroke: #000000; stroke-width: 0.8"/>
      </g>
     </g>
     <g id="text_32">
      <!-- 0.0 -->
      <g transform="translate(30.425 238.898592) scale(0.1 -0.1)">
       <use xlink:href="#DejaVuSans-30"/>
       <use xlink:href="#DejaVuSans-2e" transform="translate(63.623047 0)"/>
       <use xlink:href="#DejaVuSans-30" transform="translate(95.410156 0)"/>
      </g>
     </g>
    </g>
    <g id="text_33">
     <!-- Drawdown, % -->
     <g transform="translate(14.798438 315.170611) rotate(-90) scale(0.1 -0.1)">
      <defs>
       <path id="DejaVuSans-44" d="M 1259 4147 
L 1259 519 
L 2022 519 
Q 2988 519 3436 956 
Q 3884 1394 3884 2338 
Q 3884 3275 3436 3711 
Q 2988 4147 2022 4147 
L 1259 4147 
z
M 628 4666 
L 1925 4666 
Q 3281 4666 3915 4102 
Q 4550 3538 4550 2338 
Q 4550 1131 3912 565 
Q 3275 0 1925 0 
L 628 0 
L 628 4666 
z
" transform="scale(0.015625)"/>
       <path id="DejaVuSans-61" d="M 2194 1759 
Q 1497 1759 1228 1600 
Q 959 1441 959 1056 
Q 959 750 1161 570 
Q 1363 391 1709 391 
Q 2188 391 2477 730 
Q 2766 1069 2766 1631 
L 2766 1759 
L 2194 1759 
z
M 3341 1997 
L 3341 0 
L 2766 0 
L 2766 531 
Q 2569 213 2275 61 
Q 1981 -91 1556 -91 
Q 1019 -91 701 211 
Q 384 513 384 1019 
Q 384 1609 779 1909 
Q 1175 2209 1959 2209 
L 2766 2209 
L 2766 2266 
Q 2766 2663 2505 2880 
Q 2244 3097 1772 3097 
Q 1472 3097 1187 3025 
Q 903 2953 641 2809 
L 641 3341 
Q 956 3463 1253 3523 
Q 1550 3584 1831 3584 
Q 2591 3584 2966 3190 
Q 3341 2797 3341 1997 
z
" transform="scale(0.015625)"/>
       <path id="DejaVuSans-77" d="M 269 3500 
L 844 3500 
L 1563 769 
L 2278 3500 
L 2956 3500 
L 3675 769 
L 4391 3500 
L 4966 3500 
L 4050 0 
L 3372 0 
L 2619 2869 
L 1863 0 
L 1184 0 
L 269 3500 
z
" transform="scale(0.015625)"/>
       <path id="DejaVuSans-64" d="M 2906 2969 
L 2906 4863 
L 3481 4863 
L 3481 0 
L 2906 0 
L 2906 525 
Q 2725 213 2448 61 
Q 2172 -91 1784 -91 
Q 1150 -91 751 415 
Q 353 922 353 1747 
Q 353 2572 751 3078 
Q 1150 3584 1784 3584 
Q 2172 3584 2448 3432 
Q 2725 3281 2906 2969 
z
M 947 1747 
Q 947 1113 1208 752 
Q 1469 391 1925 391 
Q 2381 391 2643 752 
Q 2906 1113 2906 1747 
Q 2906 2381 2643 2742 
Q 2381 3103 1925 3103 
Q 1469 3103 1208 2742 
Q 947 2381 947 1747 
z
" transform="scale(0.015625)"/>
       <path id="DejaVuSans-6f" d="M 1959 3097 
Q 1497 3097 1228 2736 
Q 959 2375 959 1747 
Q 959 1119 1226 758 
Q 1494 397 1959 397 
Q 2419 397 2687 759 
Q 2956 1122 2956 1747 
Q 2956 2369 2687 2733 
Q 2419 3097 1959 3097 
z
M 1959 3584 
Q 2709 3584 3137 3096 
Q 3566 2609 3566 1747 
Q 3566 888 3137 398 
Q 2709 -91 1959 -91 
Q 1206 -91 779 398 
Q 353 888 353 1747 
Q 353 2609 779 3096 
Q 1206 3584 1959 3584 
z
" transform="scale(0.015625)"/>
       <path id="DejaVuSans-6e" d="M 3513 2113 
L 3513 0 
L 2938 0 
L 2938 2094 
Q 2938 2591 2744 2837 
Q 2550 3084 2163 3084 
Q 1697 3084 1428 2787 
Q 1159 2491 1159 1978 
L 1159 0 
L 581 0 
L 581 3500 
L 1159 3500 
L 1159 2956 
Q 1366 3272 1645 3428 
Q 1925 3584 2291 3584 
Q 2894 3584 3203 3211 
Q 3513 2838 3513 2113 
z
" transform="scale(0.015625)"/>
       <path id="DejaVuSans-2c" d="M 750 794 
L 1409 794 
L 1409 256 
L 897 -744 
L 494 -744 
L 750 256 
L 750 794 
z
" transform="scale(0.015625)"/>
       <path id="DejaVuSans-20" transform="scale(0.015625)"/>
       <path id="DejaVuSans-25" d="M 4653 2053 
Q 4381 2053 4226 1822 
Q 4072 1591 4072 1178 
Q 4072 772 4226 539 
Q 4381 306 4653 306 
Q 4919 306 5073 539 
Q 5228 772 5228 1178 
Q 5228 1588 5073 1820 
Q 4919 2053 4653 2053 
z
M 4653 2450 
Q 5147 2450 5437 2106 
Q 5728 1763 5728 1178 
Q 5728 594 5436 251 
Q 5144 -91 4653 -91 
Q 4153 -91 3862 251 
Q 3572 594 3572 1178 
Q 3572 1766 3864 2108 
Q 4156 2450 4653 2450 
z
M 1428 4353 
Q 1159 4353 1004 4120 
Q 850 3888 850 3481 
Q 850 3069 1003 2837 
Q 1156 2606 1428 2606 
Q 1700 2606 1854 2837 
Q 2009 3069 2009 3481 
Q 2009 3884 1853 4118 
Q 1697 4353 1428 4353 
z
M 4250 4750 
L 4750 4750 
L 1831 -91 
L 1331 -91 
L 4250 4750 
z
M 1428 4750 
Q 1922 4750 2215 4408 
Q 2509 4066 2509 3481 
Q 2509 2891 2217 2550 
Q 1925 2209 1428 2209 
Q 931 2209 642 2551 
Q 353 2894 353 3481 
Q 353 4063 643 4406 
Q 934 4750 1428 4750 
z
" transform="scale(0.015625)"/>
      </defs>
      <use xlink:href="#DejaVuSans-44"/>
      <use xlink:href="#DejaVuSans-72" transform="translate(77.001953 0)"/>
      <use xlink:href="#DejaVuSans-61" transform="translate(118.115234 0)"/>
      <use xlink:href="#DejaVuSans-77" transform="translate(179.394531 0)"/>
      <use xlink:href="#DejaVuSans-64" transform="translate(261.181641 0)"/>
      <use xlink:href="#DejaVuSans-6f" transform="translate(324.658203 0)"/>
      <use xlink:href="#DejaVuSans-77" transform="translate(385.839844 0)"/>
      <use xlink:href="#DejaVuSans-6e" transform="translate(467.626953 0)"/>
      <use xlink:href="#DejaVuSans-2c" transform="translate(531.005859 0)"/>
      <use xlink:href="#DejaVuSans-20" transform="translate(562.792969 0)"/>
      <use xlink:href="#DejaVuSans-25" transform="translate(594.580078 0)"/>
     </g>
    </g>
   </g>
   <g id="line2d_63">
    <path d="M 58.429344 235.099373 
L 73.77442 235.099373 
L 74.073174 236.771915 
L 75.308927 235.402344 
L 76.671425 239.049157 
L 76.875121 236.669591 
L 77.033551 243.808288 
L 78.377943 242.329098 
L 79.907924 242.329098 
L 81.284001 241.530976 
L 81.415272 251.416889 
L 81.591808 238.235671 
L 82.080678 255.141701 
L 83.827934 235.099373 
L 84.398282 260.241393 
L 84.515973 260.499923 
L 85.348862 235.099373 
L 87.521616 258.780303 
L 87.838476 255.040923 
L 88.843375 266.903782 
L 90.319037 281.087635 
L 90.595158 235.099373 
L 90.663056 240.857422 
L 93.080245 235.269637 
L 93.383526 240.510108 
L 93.723018 237.534038 
L 101.39103 237.534038 
L 101.590199 235.099373 
L 102.264658 242.723759 
L 103.034175 245.906843 
L 103.183552 235.099373 
L 107.533586 235.099373 
L 107.601485 240.755863 
L 109.068094 238.239407 
L 118.270613 238.239407 
L 118.908859 235.099373 
L 119.777961 250.016487 
L 120.158193 250.533097 
L 120.628956 238.586491 
L 121.54785 248.466657 
L 122.665913 240.007168 
L 124.322638 235.099373 
L 124.376957 258.684152 
L 124.41317 258.426395 
L 125.074049 252.111345 
L 126.060842 254.495598 
L 126.223798 250.371484 
L 127.482185 250.693681 
L 135.154723 250.693681 
L 136.662071 260.895037 
L 136.834081 268.437197 
L 137.255052 255.509968 
L 138.712608 261.247196 
L 138.74882 259.199475 
L 139.758245 259.327458 
L 176.581901 259.327458 
L 177.709017 260.206544 
L 178.116408 255.973263 
L 178.120935 256.037404 
L 182.719931 256.037404 
L 183.362704 255.50858 
L 183.457762 261.715733 
L 184.258965 261.587751 
L 191.926976 261.587751 
L 192.737233 264.697107 
L 193.257788 259.468191 
L 193.615387 261.82758 
L 194.774189 253.984206 
L 195.000518 254.876948 
L 199.599514 254.876948 
L 200.396191 255.819398 
L 200.450509 247.51024 
L 201.138548 248.788572 
L 202.668529 248.788572 
L 203.691534 250.629615 
L 203.872597 247.298186 
L 204.207563 248.002912 
L 205.212462 269.654878 
L 205.742071 268.696129 
L 208.80656 268.696129 
L 209.671135 263.942128 
L 209.680188 272.197002 
L 210.626241 265.925858 
L 211.042686 274.756653 
L 211.880101 273.860775 
L 219.548113 273.860775 
L 220.688808 275.058629 
L 221.08262 261.335306 
L 221.26821 264.662853 
L 221.508118 257.815786 
L 222.621654 258.967629 
L 225.686143 258.967629 
L 226.731781 262.860913 
L 227.026008 257.857945 
L 227.225177 258.563492 
L 233.358681 258.563492 
L 233.793232 260.341581 
L 233.947135 255.974942 
L 234.897715 256.873956 
L 236.427696 256.873956 
L 237.66345 259.162039 
L 237.790194 242.184565 
L 238.011996 253.716434 
L 239.383547 237.764015 
L 239.772832 247.373906 
L 239.944842 241.415773 
L 241.035745 245.323796 
L 241.103644 248.911489 
L 243.679263 249.663187 
L 244.10476 242.487802 
L 254.841787 242.487802 
L 255.104328 249.212002 
L 255.652043 235.099373 
L 256.905903 246.52782 
L 257.335927 235.099373 
L 258.123551 235.099373 
L 258.195976 238.82011 
L 259.449836 237.921089 
L 311.618567 237.921089 
L 311.754364 239.953316 
L 311.78605 235.666605 
L 313.157601 238.417778 
L 322.36012 238.417778 
L 322.726772 235.099373 
L 323.247328 242.86609 
L 323.926313 235.099373 
L 324.288439 246.025077 
L 325.691676 235.099373 
L 326.886691 245.304659 
L 328.371406 235.099373 
L 328.380459 274.77385 
L 328.597735 253.955823 
L 330.037184 254.39876 
L 339.239703 254.39876 
L 340.575042 255.339581 
L 340.733472 250.018124 
L 340.796844 251.728592 
L 341.937539 260.597688 
L 343.272878 235.099373 
L 343.79796 258.311765 
L 344.069554 245.62296 
L 345.377733 279.755844 
L 345.409419 292.063984 
L 345.413946 255.139563 
L 347.324159 263.196954 
L 347.622913 271.571565 
L 348.464855 267.438443 
L 348.541807 262.992186 
L 349.985783 264.580135 
L 351.515764 264.580135 
L 352.769624 265.90097 
L 353.005006 253.212165 
L 353.489349 264.061093 
L 354.37203 246.550543 
L 355.960856 249.198477 
L 356.119286 258.281547 
L 356.209818 256.566561 
L 357.237349 300.33044 
L 357.911809 289.977012 
L 358.495736 277.2099 
L 359.210934 285.97538 
L 359.944239 273.335304 
L 361.166413 274.796218 
L 362.09436 281.020978 
L 362.375008 261.584481 
L 362.827665 306.435798 
L 364.552288 301.182218 
L 364.656399 310.48675 
L 366.860839 310.48675 
L 367.236545 313.760755 
L 367.44024 310.396393 
L 368.920429 307.786769 
L 369.169391 315.951971 
L 369.934381 315.319009 
L 370.473043 325.368353 
L 371.468889 321.697177 
L 372.99887 321.697177 
L 373.582797 324.979473 
L 374.338735 310.061297 
L 374.940769 307.336384 
L 375.556382 326.284037 
L 376.072411 316.905265 
L 414.430574 316.905265 
L 415.639169 319.235755 
L 415.856444 314.731229 
L 416.182357 321.836959 
L 416.453951 313.01824 
L 417.839082 316.31733 
L 418.681024 321.710071 
L 419.115575 319.616419 
L 420.518812 308.133051 
L 420.636503 313.652681 
L 422.098585 294.746362 
L 422.261542 298.997112 
L 422.926948 284.214654 
L 424.343765 291.764493 
L 424.556513 283.51677 
L 425.176654 287.704076 
L 425.715316 298.108895 
L 426.792639 294.111922 
L 428.186823 277.870252 
L 428.820543 279.900461 
L 429.648906 273.936723 
L 430.39579 310.607368 
L 430.400317 258.58327 
L 432.686235 277.04548 
L 432.849192 274.761495 
L 433.835984 262.960907 
L 434.772984 277.04548 
L 435.379545 270.383858 
L 436.470448 272.16029 
L 437.158487 281.423117 
L 437.452714 277.426144 
L 438.742787 279.380271 
L 438.987222 278.618942 
L 442.05171 278.618942 
L 442.463628 274.291895 
L 443.568112 285.521487 
L 444.102247 273.023015 
L 445.125252 274.977363 
L 446.655233 274.977363 
L 447.632972 269.191954 
L 447.777823 277.059013 
L 448.198794 270.270502 
L 449.724248 277.566565 
L 449.77404 275.092248 
L 451.652567 285.433623 
L 452.779684 279.596773 
L 452.865688 284.101299 
L 453.082964 279.787105 
L 454.332297 281.246318 
L 458.931294 281.246318 
L 459.415637 280.401071 
L 459.709864 284.191638 
L 463.534816 284.191638 
L 464.575928 285.64096 
L 465.046691 282.836409 
L 465.105536 284.684863 
L 466.391083 279.968118 
L 466.608358 281.816572 
L 475.815403 281.816572 
L 476.621133 285.382522 
L 477.349911 282.628992 
L 480.4144 282.628992 
L 481.704472 272.401524 
L 481.758791 288.63994 
L 482.351772 274.369556 
L 483.623738 281.173003 
L 484.275565 271.866401 
L 485.022449 271.930584 
L 491.155953 271.930584 
L 492.500344 275.825102 
L 492.622562 269.984407 
L 492.699513 272.744296 
L 493.980533 255.992412 
L 494.338132 266.71105 
L 494.555407 258.688117 
L 495.791161 262.025657 
L 496.972596 255.02966 
L 497.343775 258.3672 
L 498.833017 258.238833 
L 543.333737 258.238833 
L 544.759606 265.569485 
L 544.958776 263.908405 
L 545.370694 271.191602 
L 546.402752 267.230565 
L 549.46724 267.230565 
L 549.752414 269.899326 
L 550.12812 263.247316 
L 551.436299 262.735623 
L 551.644521 267.021052 
L 552.540782 265.020262 
L 561.743301 265.020262 
L 562.254803 264.876426 
L 562.558084 279.838094 
L 563.282335 278.498005 
L 566.346824 278.498005 
L 567.025809 280.459263 
L 567.179713 275.098909 
L 567.894911 277.315639 
L 567.953756 274.635462 
L 568.551264 276.469258 
L 568.551264 276.469258 
" clip-path="url(#pf6c80d19ce)" style="fill: none; stroke: #7a738c; stroke-width: 1.5; stroke-linecap: square"/>
   </g>
   <g id="patch_13">
    <path d="M 53.328125 330.84327 
L 53.328125 230.54014 
" style="fill: none; stroke: #000000; stroke-width: 0.8; stroke-linejoin: miter; stroke-linecap: square"/>
   </g>
   <g id="patch_14">
    <path d="M 573.652483 330.84327 
L 573.652483 230.54014 
" style="fill: none; stroke: #000000; stroke-width: 0.8; stroke-linejoin: miter; stroke-linecap: square"/>
   </g>
   <g id="patch_15">
    <path d="M 53.328125 330.84327 
L 573.652483 330.84327 
" style="fill: none; stroke: #000000; stroke-width: 0.8; stroke-linejoin: miter; stroke-linecap: square"/>
   </g>
   <g id="patch_16">
    <path d="M 53.328125 230.54014 
L 573.652483 230.54014 
" style="fill: none; stroke: #000000; stroke-width: 0.8; stroke-linejoin: miter; stroke-linecap: square"/>
   </g>
  </g>
 </g>
 <defs>
  <clipPath id="p2ad8f67ea2">
   <rect x="53.328125" y="7.2" width="520.324358" height="100.30313"/>
  </clipPath>
  <clipPath id="pfbd6917ee4">
   <rect x="53.328125" y="120.73653" width="520.324358" height="100.30313"/>
  </clipPath>
  <clipPath id="pf6c80d19ce">
   <rect x="53.328125" y="230.54014" width="520.324358" height="100.30313"/>
  </clipPath>
 </defs>
</svg>
