<?xml version="1.0" encoding="utf-8" standalone="no"?>
<!DOCTYPE svg PUBLIC "-//W3C//DTD SVG 1.1//EN"
  "http://www.w3.org/Graphics/SVG/1.1/DTD/svg11.dtd">
<svg xmlns:xlink="http://www.w3.org/1999/xlink"   viewBox="0 0 584.399528 368.39952" xmlns="http://www.w3.org/2000/svg" version="1.1" preserveAspectRatio="xMidYMid meet" style="width:100%;height:auto;aspect-ratio:8 / 5;display:block;">
 <metadata>
  <rdf:RDF xmlns:dc="http://purl.org/dc/elements/1.1/" xmlns:cc="http://creativecommons.org/ns#" xmlns:rdf="http://www.w3.org/1999/02/22-rdf-syntax-ns#">
   <cc:Work>
    <dc:type rdf:resource="http://purl.org/dc/dcmitype/StillImage"/>
    <dc:date>2025-10-20T11:48:33.864816</dc:date>
    <dc:format>image/svg+xml</dc:format>
    <dc:creator>
     <cc:Agent>
      <dc:title>Matplotlib v3.10.6, https://matplotlib.org/</dc:title>
     </cc:Agent>
    </dc:creator>
   </cc:Work>
  </rdf:RDF>
 </metadata>
 <defs>
  <style type="text/css">*{stroke-linejoin: round; stroke-linecap: butt}</style>
 </defs>
 <g id="figure_1">
  <g id="patch_1">
   <path d="M 0 368.39952 
L 584.399528 368.39952 
L 584.399528 0 
L 0 0 
z
" style="fill: #ffffff"/>
  </g>
  <g id="axes_1">
   <g id="patch_2">
    <path d="M 53.328125 107.967444 
L 573.652483 107.967444 
L 573.652483 7.2 
L 53.328125 7.2 
z
" style="fill: #ffffff"/>
   </g>
   <g id="matplotlib.axis_1">
    <g id="xtick_1">
     <g id="line2d_1">
      <defs>
       <path id="macd8a4641d" d="M 0 0 
L 0 3.5 
" style="stroke: #000000; stroke-width: 0.8"/>
      </defs>
      <g>
       <use xlink:href="#macd8a4641d" x="58.429344" y="107.967444" style="stroke: #000000; stroke-width: 0.8"/>
      </g>
     </g>
    </g>
    <g id="xtick_2">
     <g id="line2d_2">
      <g>
       <use xlink:href="#macd8a4641d" x="92.437669" y="107.967444" style="stroke: #000000; stroke-width: 0.8"/>
      </g>
     </g>
    </g>
    <g id="xtick_3">
     <g id="line2d_3">
      <g>
       <use xlink:href="#macd8a4641d" x="126.445994" y="107.967444" style="stroke: #000000; stroke-width: 0.8"/>
      </g>
     </g>
    </g>
    <g id="xtick_4">
     <g id="line2d_4">
      <g>
       <use xlink:href="#macd8a4641d" x="160.454319" y="107.967444" style="stroke: #000000; stroke-width: 0.8"/>
      </g>
     </g>
    </g>
    <g id="xtick_5">
     <g id="line2d_5">
      <g>
       <use xlink:href="#macd8a4641d" x="194.462643" y="107.967444" style="stroke: #000000; stroke-width: 0.8"/>
      </g>
     </g>
    </g>
    <g id="xtick_6">
     <g id="line2d_6">
      <g>
       <use xlink:href="#macd8a4641d" x="228.470968" y="107.967444" style="stroke: #000000; stroke-width: 0.8"/>
      </g>
     </g>
    </g>
    <g id="xtick_7">
     <g id="line2d_7">
      <g>
       <use xlink:href="#macd8a4641d" x="262.479293" y="107.967444" style="stroke: #000000; stroke-width: 0.8"/>
      </g>
     </g>
    </g>
    <g id="xtick_8">
     <g id="line2d_8">
      <g>
       <use xlink:href="#macd8a4641d" x="296.487618" y="107.967444" style="stroke: #000000; stroke-width: 0.8"/>
      </g>
     </g>
    </g>
    <g id="xtick_9">
     <g id="line2d_9">
      <g>
       <use xlink:href="#macd8a4641d" x="330.495942" y="107.967444" style="stroke: #000000; stroke-width: 0.8"/>
      </g>
     </g>
    </g>
    <g id="xtick_10">
     <g id="line2d_10">
      <g>
       <use xlink:href="#macd8a4641d" x="364.504267" y="107.967444" style="stroke: #000000; stroke-width: 0.8"/>
      </g>
     </g>
    </g>
    <g id="xtick_11">
     <g id="line2d_11">
      <g>
       <use xlink:href="#macd8a4641d" x="398.512592" y="107.967444" style="stroke: #000000; stroke-width: 0.8"/>
      </g>
     </g>
    </g>
    <g id="xtick_12">
     <g id="line2d_12">
      <g>
       <use xlink:href="#macd8a4641d" x="432.520917" y="107.967444" style="stroke: #000000; stroke-width: 0.8"/>
      </g>
     </g>
    </g>
    <g id="xtick_13">
     <g id="line2d_13">
      <g>
       <use xlink:href="#macd8a4641d" x="466.529241" y="107.967444" style="stroke: #000000; stroke-width: 0.8"/>
      </g>
     </g>
    </g>
    <g id="xtick_14">
     <g id="line2d_14">
      <g>
       <use xlink:href="#macd8a4641d" x="500.537566" y="107.967444" style="stroke: #000000; stroke-width: 0.8"/>
      </g>
     </g>
    </g>
    <g id="xtick_15">
     <g id="line2d_15">
      <g>
       <use xlink:href="#macd8a4641d" x="534.545891" y="107.967444" style="stroke: #000000; stroke-width: 0.8"/>
      </g>
     </g>
    </g>
    <g id="xtick_16">
     <g id="line2d_16">
      <g>
       <use xlink:href="#macd8a4641d" x="568.554216" y="107.967444" style="stroke: #000000; stroke-width: 0.8"/>
      </g>
     </g>
    </g>
   </g>
   <g id="matplotlib.axis_2">
    <g id="ytick_1">
     <g id="line2d_17">
      <defs>
       <path id="m83780b1791" d="M 0 0 
L -3.5 0 
" style="stroke: #000000; stroke-width: 0.8"/>
      </defs>
      <g>
       <use xlink:href="#m83780b1791" x="53.328125" y="105.647533" style="stroke: #000000; stroke-width: 0.8"/>
      </g>
     </g>
     <g id="text_1">
      <!-- 1.16 -->
      <g transform="translate(24.0625 109.446751) scale(0.1 -0.1)">
       <defs>
        <path id="DejaVuSans-31" d="M 794 531 
L 1825 531 
L 1825 4091 
L 703 3866 
L 703 4441 
L 1819 4666 
L 2450 4666 
L 2450 531 
L 3481 531 
L 3481 0 
L 794 0 
L 794 531 
z
" transform="scale(0.015625)"/>
        <path id="DejaVuSans-2e" d="M 684 794 
L 1344 794 
L 1344 0 
L 684 0 
L 684 794 
z
" transform="scale(0.015625)"/>
        <path id="DejaVuSans-36" d="M 2113 2584 
Q 1688 2584 1439 2293 
Q 1191 2003 1191 1497 
Q 1191 994 1439 701 
Q 1688 409 2113 409 
Q 2538 409 2786 701 
Q 3034 994 3034 1497 
Q 3034 2003 2786 2293 
Q 2538 2584 2113 2584 
z
M 3366 4563 
L 3366 3988 
Q 3128 4100 2886 4159 
Q 2644 4219 2406 4219 
Q 1781 4219 1451 3797 
Q 1122 3375 1075 2522 
Q 1259 2794 1537 2939 
Q 1816 3084 2150 3084 
Q 2853 3084 3261 2657 
Q 3669 2231 3669 1497 
Q 3669 778 3244 343 
Q 2819 -91 2113 -91 
Q 1303 -91 875 529 
Q 447 1150 447 2328 
Q 447 3434 972 4092 
Q 1497 4750 2381 4750 
Q 2619 4750 2861 4703 
Q 3103 4656 3366 4563 
z
" transform="scale(0.015625)"/>
       </defs>
       <use xlink:href="#DejaVuSans-31"/>
       <use xlink:href="#DejaVuSans-2e" transform="translate(63.623047 0)"/>
       <use xlink:href="#DejaVuSans-31" transform="translate(95.410156 0)"/>
       <use xlink:href="#DejaVuSans-36" transform="translate(159.033203 0)"/>
      </g>
     </g>
    </g>
    <g id="ytick_2">
     <g id="line2d_18">
      <g>
       <use xlink:href="#m83780b1791" x="53.328125" y="75.905076" style="stroke: #000000; stroke-width: 0.8"/>
      </g>
     </g>
     <g id="text_2">
      <!-- 1.17 -->
      <g transform="translate(24.0625 79.704294) scale(0.1 -0.1)">
       <defs>
        <path id="DejaVuSans-37" d="M 525 4666 
L 3525 4666 
L 3525 4397 
L 1831 0 
L 1172 0 
L 2766 4134 
L 525 4134 
L 525 4666 
z
" transform="scale(0.015625)"/>
       </defs>
       <use xlink:href="#DejaVuSans-31"/>
       <use xlink:href="#DejaVuSans-2e" transform="translate(63.623047 0)"/>
       <use xlink:href="#DejaVuSans-31" transform="translate(95.410156 0)"/>
       <use xlink:href="#DejaVuSans-37" transform="translate(159.033203 0)"/>
      </g>
     </g>
    </g>
    <g id="ytick_3">
     <g id="line2d_19">
      <g>
       <use xlink:href="#m83780b1791" x="53.328125" y="46.162619" style="stroke: #000000; stroke-width: 0.8"/>
      </g>
     </g>
     <g id="text_3">
      <!-- 1.18 -->
      <g transform="translate(24.0625 49.961837) scale(0.1 -0.1)">
       <defs>
        <path id="DejaVuSans-38" d="M 2034 2216 
Q 1584 2216 1326 1975 
Q 1069 1734 1069 1313 
Q 1069 891 1326 650 
Q 1584 409 2034 409 
Q 2484 409 2743 651 
Q 3003 894 3003 1313 
Q 3003 1734 2745 1975 
Q 2488 2216 2034 2216 
z
M 1403 2484 
Q 997 2584 770 2862 
Q 544 3141 544 3541 
Q 544 4100 942 4425 
Q 1341 4750 2034 4750 
Q 2731 4750 3128 4425 
Q 3525 4100 3525 3541 
Q 3525 3141 3298 2862 
Q 3072 2584 2669 2484 
Q 3125 2378 3379 2068 
Q 3634 1759 3634 1313 
Q 3634 634 3220 271 
Q 2806 -91 2034 -91 
Q 1263 -91 848 271 
Q 434 634 434 1313 
Q 434 1759 690 2068 
Q 947 2378 1403 2484 
z
M 1172 3481 
Q 1172 3119 1398 2916 
Q 1625 2713 2034 2713 
Q 2441 2713 2670 2916 
Q 2900 3119 2900 3481 
Q 2900 3844 2670 4047 
Q 2441 4250 2034 4250 
Q 1625 4250 1398 4047 
Q 1172 3844 1172 3481 
z
" transform="scale(0.015625)"/>
       </defs>
       <use xlink:href="#DejaVuSans-31"/>
       <use xlink:href="#DejaVuSans-2e" transform="translate(63.623047 0)"/>
       <use xlink:href="#DejaVuSans-31" transform="translate(95.410156 0)"/>
       <use xlink:href="#DejaVuSans-38" transform="translate(159.033203 0)"/>
      </g>
     </g>
    </g>
    <g id="ytick_4">
     <g id="line2d_20">
      <g>
       <use xlink:href="#m83780b1791" x="53.328125" y="16.420162" style="stroke: #000000; stroke-width: 0.8"/>
      </g>
     </g>
     <g id="text_4">
      <!-- 1.19 -->
      <g transform="translate(24.0625 20.21938) scale(0.1 -0.1)">
       <defs>
        <path id="DejaVuSans-39" d="M 703 97 
L 703 672 
Q 941 559 1184 500 
Q 1428 441 1663 441 
Q 2288 441 2617 861 
Q 2947 1281 2994 2138 
Q 2813 1869 2534 1725 
Q 2256 1581 1919 1581 
Q 1219 1581 811 2004 
Q 403 2428 403 3163 
Q 403 3881 828 4315 
Q 1253 4750 1959 4750 
Q 2769 4750 3195 4129 
Q 3622 3509 3622 2328 
Q 3622 1225 3098 567 
Q 2575 -91 1691 -91 
Q 1453 -91 1209 -44 
Q 966 3 703 97 
z
M 1959 2075 
Q 2384 2075 2632 2365 
Q 2881 2656 2881 3163 
Q 2881 3666 2632 3958 
Q 2384 4250 1959 4250 
Q 1534 4250 1286 3958 
Q 1038 3666 1038 3163 
Q 1038 2656 1286 2365 
Q 1534 2075 1959 2075 
z
" transform="scale(0.015625)"/>
       </defs>
       <use xlink:href="#DejaVuSans-31"/>
       <use xlink:href="#DejaVuSans-2e" transform="translate(63.623047 0)"/>
       <use xlink:href="#DejaVuSans-31" transform="translate(95.410156 0)"/>
       <use xlink:href="#DejaVuSans-39" transform="translate(159.033203 0)"/>
      </g>
     </g>
    </g>
    <g id="text_5">
     <!-- Price -->
     <g transform="translate(14.798438 69.781378) rotate(-90) scale(0.1 -0.1)">
      <defs>
       <path id="DejaVuSans-50" d="M 1259 4147 
L 1259 2394 
L 2053 2394 
Q 2494 2394 2734 2622 
Q 2975 2850 2975 3272 
Q 2975 3691 2734 3919 
Q 2494 4147 2053 4147 
L 1259 4147 
z
M 628 4666 
L 2053 4666 
Q 2838 4666 3239 4311 
Q 3641 3956 3641 3272 
Q 3641 2581 3239 2228 
Q 2838 1875 2053 1875 
L 1259 1875 
L 1259 0 
L 628 0 
L 628 4666 
z
" transform="scale(0.015625)"/>
       <path id="DejaVuSans-72" d="M 2631 2963 
Q 2534 3019 2420 3045 
Q 2306 3072 2169 3072 
Q 1681 3072 1420 2755 
Q 1159 2438 1159 1844 
L 1159 0 
L 581 0 
L 581 3500 
L 1159 3500 
L 1159 2956 
Q 1341 3275 1631 3429 
Q 1922 3584 2338 3584 
Q 2397 3584 2469 3576 
Q 2541 3569 2628 3553 
L 2631 2963 
z
" transform="scale(0.015625)"/>
       <path id="DejaVuSans-69" d="M 603 3500 
L 1178 3500 
L 1178 0 
L 603 0 
L 603 3500 
z
M 603 4863 
L 1178 4863 
L 1178 4134 
L 603 4134 
L 603 4863 
z
" transform="scale(0.015625)"/>
       <path id="DejaVuSans-63" d="M 3122 3366 
L 3122 2828 
Q 2878 2963 2633 3030 
Q 2388 3097 2138 3097 
Q 1578 3097 1268 2742 
Q 959 2388 959 1747 
Q 959 1106 1268 751 
Q 1578 397 2138 397 
Q 2388 397 2633 464 
Q 2878 531 3122 666 
L 3122 134 
Q 2881 22 2623 -34 
Q 2366 -91 2075 -91 
Q 1284 -91 818 406 
Q 353 903 353 1747 
Q 353 2603 823 3093 
Q 1294 3584 2113 3584 
Q 2378 3584 2631 3529 
Q 2884 3475 3122 3366 
z
" transform="scale(0.015625)"/>
       <path id="DejaVuSans-65" d="M 3597 1894 
L 3597 1613 
L 953 1613 
Q 991 1019 1311 708 
Q 1631 397 2203 397 
Q 2534 397 2845 478 
Q 3156 559 3463 722 
L 3463 178 
Q 3153 47 2828 -22 
Q 2503 -91 2169 -91 
Q 1331 -91 842 396 
Q 353 884 353 1716 
Q 353 2575 817 3079 
Q 1281 3584 2069 3584 
Q 2775 3584 3186 3129 
Q 3597 2675 3597 1894 
z
M 3022 2063 
Q 3016 2534 2758 2815 
Q 2500 3097 2075 3097 
Q 1594 3097 1305 2825 
Q 1016 2553 972 2059 
L 3022 2063 
z
" transform="scale(0.015625)"/>
      </defs>
      <use xlink:href="#DejaVuSans-50"/>
      <use xlink:href="#DejaVuSans-72" transform="translate(58.552734 0)"/>
      <use xlink:href="#DejaVuSans-69" transform="translate(99.666016 0)"/>
      <use xlink:href="#DejaVuSans-63" transform="translate(127.449219 0)"/>
      <use xlink:href="#DejaVuSans-65" transform="translate(182.429688 0)"/>
     </g>
    </g>
   </g>
   <g id="line2d_21">
    <path d="M 58.429344 78.849579 
L 59.565514 79.414686 
L 59.954799 75.250742 
L 60.004591 75.815848 
L 60.570412 71.711389 
L 61.652263 74.477438 
L 62.806538 68.618174 
L 63.195823 66.000837 
L 63.888389 71.205767 
L 64.811809 65.138306 
L 65.522481 70.491948 
L 66.296525 67.279763 
L 67.577544 73.852846 
L 67.876298 71.086798 
L 69.166371 74.50718 
L 69.19353 73.823104 
L 69.872516 76.737864 
L 70.768777 75.429196 
L 72.221806 72.722633 
L 73.308183 65.643928 
L 73.31271 81.080263 
L 73.928323 74.120528 
L 75.313454 70.432464 
L 76.671425 75.905076 
L 76.875121 74.804605 
L 78.32815 78.165502 
L 79.328523 79.71211 
L 79.858131 75.934818 
L 80.442059 74.001558 
L 81.415272 95.267415 
L 81.591808 89.199954 
L 82.080678 97.884751 
L 84.013524 89.943515 
L 84.398282 101.513331 
L 84.515973 101.632301 
L 85.548031 81.318203 
L 86.154592 85.363177 
L 87.521616 93.096216 
L 87.838476 91.371153 
L 88.843375 96.843765 
L 90.319037 103.387106 
L 90.337143 82.448416 
L 90.654003 92.441882 
L 92.161351 95.713552 
L 92.3741 95.148445 
L 93.383526 97.646812 
L 94.080617 95.20793 
L 95.307318 98.985222 
L 96.289584 95.3269 
L 97.643029 103.000454 
L 98.312961 88.932272 
L 98.580029 92.679821 
L 99.31786 86.463648 
L 100.051165 93.810035 
L 101.128488 88.158968 
L 102.264658 93.75055 
L 102.613204 81.853567 
L 103.034175 87.326179 
L 103.405354 81.347945 
L 104.699953 82.745841 
L 105.197876 88.18871 
L 107.34347 89.943515 
L 107.366103 75.280484 
L 107.601485 88.813302 
L 107.981717 86.49339 
L 110.294795 89.765061 
L 110.575442 85.184722 
L 110.602602 86.790815 
L 111.729718 90.47888 
L 113.028844 90.925016 
L 113.938684 87.474891 
L 114.662936 92.322912 
L 115.817211 87.921028 
L 116.437352 93.839777 
L 117.021279 87.861543 
L 117.885854 93.720807 
L 118.456202 96.427371 
L 119.044657 89.170211 
L 120.158193 96.278659 
L 120.628956 90.776304 
L 121.54785 95.3269 
L 122.665913 91.430638 
L 124.340745 93.304413 
L 124.363377 81.794082 
L 124.41317 92.560852 
L 125.074049 89.646091 
L 126.060842 90.746562 
L 127.233223 86.523133 
L 127.681354 87.177467 
L 127.993687 83.400175 
L 129.15249 83.786827 
L 129.949166 86.285193 
L 130.985751 85.928284 
L 132.072128 82.299704 
L 132.560998 83.191978 
L 133.108713 78.195245 
L 134.860496 82.329446 
L 135.068718 75.607651 
L 135.254307 77.362456 
L 136.404056 58.475996 
L 136.834081 68.826371 
L 137.793714 58.238056 
L 138.237318 62.193803 
L 139.694873 71.562677 
L 140.020787 69.094053 
L 140.47797 71.919586 
L 141.29728 69.30225 
L 141.315386 70.610918 
L 142.827261 70.462206 
L 175.047393 70.462206 
L 175.364253 60.736423 
L 175.373306 74.715377 
L 176.740331 74.328725 
L 177.288046 71.146282 
L 178.220519 70.819115 
L 178.68223 73.614906 
L 180.447592 74.031301 
L 181.126578 70.670403 
L 181.963994 72.335981 
L 182.60224 67.071566 
L 183.181641 63.383501 
L 183.969264 69.65916 
L 184.580352 69.926842 
L 185.680308 66.446974 
L 186.24613 68.945341 
L 187.101652 59.427754 
L 187.391352 59.665694 
L 187.649367 63.710668 
L 188.862488 60.676938 
L 189.595792 65.524958 
L 190.396995 61.717924 
L 191.125773 56.423766 
L 192.357001 55.650462 
L 192.37058 69.42122 
L 193.615387 57.524237 
L 194.774189 53.865915 
L 195.566339 56.185827 
L 195.819827 52.676217 
L 197.28191 56.929388 
L 197.938263 53.360293 
L 198.712306 52.051625 
L 199.282654 58.89239 
L 200.233234 62.610197 
L 201.034437 55.590977 
L 201.296978 54.490507 
L 202.568945 61.539469 
L 202.686636 60.82565 
L 203.43352 67.636673 
L 204.3841 58.77342 
L 205.366366 71.086798 
L 206.280733 67.131051 
L 207.231313 74.090786 
L 207.321844 71.681647 
L 208.01441 74.715377 
L 209.340695 61.182559 
L 209.345222 75.102029 
L 210.626241 71.711389 
L 211.567768 76.946062 
L 212.527401 78.998291 
L 213.165647 73.466194 
L 213.455348 74.566665 
L 214.926484 71.830359 
L 215.981175 70.610918 
L 216.447411 79.920307 
L 217.008706 73.674391 
L 217.493049 78.403442 
L 218.434576 70.908343 
L 218.937025 76.856834 
L 220.240678 78.403442 
L 220.322156 68.766886 
L 221.684654 71.205767 
L 221.956248 66.922854 
L 222.671447 69.807872 
L 223.92078 75.369711 
L 224.509234 72.246753 
L 225.305911 77.868078 
L 226.347022 83.727342 
L 226.360602 71.592419 
L 228.021853 74.150271 
L 228.696313 76.678379 
L 229.180656 77.927563 
L 229.538255 75.072287 
L 230.656318 75.815848 
L 231.611424 77.570653 
L 232.005236 76.053788 
L 232.906024 80.485414 
L 233.39942 79.920307 
L 234.725705 77.273229 
L 235.228155 78.611639 
L 235.377531 82.418674 
L 237.323957 85.720086 
L 237.790194 64.424487 
L 238.011996 69.778129 
L 239.383547 62.372258 
L 239.772832 66.833626 
L 239.944842 64.067578 
L 241.103644 67.547445 
L 242.54762 64.275775 
L 243.353349 61.539469 
L 243.357876 69.54019 
L 244.10476 63.740411 
L 245.598529 67.101308 
L 246.19151 65.584443 
L 246.94292 68.766886 
L 247.178302 67.60693 
L 248.522694 69.629417 
L 249.586438 65.971095 
L 249.799187 69.272508 
L 250.464593 61.866636 
L 251.917622 72.038556 
L 253.316332 65.405988 
L 254.366497 75.042544 
L 255.104328 74.685635 
L 255.652043 67.577188 
L 256.905903 72.871345 
L 257.765952 64.811139 
L 258.195976 66.357747 
L 258.924754 63.502471 
L 259.472469 64.692169 
L 260.350624 69.986327 
L 293.204476 69.986327 
L 294.358752 72.068299 
L 294.44023 57.940632 
L 295.214274 65.346503 
L 296.210119 68.320749 
L 296.839312 69.331993 
L 297.649569 67.250021 
L 298.247076 68.528946 
L 299.251975 65.703413 
L 299.609574 65.287018 
L 300.867961 67.993582 
L 301.125975 70.938085 
L 301.886439 62.818395 
L 302.65143 66.982339 
L 303.941502 57.226813 
L 304.217623 60.409256 
L 305.421691 54.847416 
L 305.715918 54.282309 
L 306.612179 60.676938 
L 307.037677 59.427754 
L 307.861513 53.865915 
L 308.581238 58.565223 
L 309.147059 54.222824 
L 311.365079 59.189815 
L 311.405818 45.686739 
L 311.650253 57.940632 
L 311.78605 55.73969 
L 313.193814 56.394024 
L 314.13534 58.803163 
L 314.723795 57.226813 
L 316.140611 50.237335 
L 317.6208 54.014627 
L 317.752071 51.129609 
L 317.856182 52.497762 
L 319.082882 45.686739 
L 319.639651 49.017895 
L 320.440854 40.808976 
L 321.934622 39.857218 
L 322.34654 48.660985 
L 322.396332 47.738969 
L 323.61398 32.332376 
L 324.288439 35.574304 
L 325.379343 24.896762 
L 325.80484 22.963502 
L 326.886691 27.752038 
L 328.371406 16.806814 
L 328.380459 35.455334 
L 328.556996 29.35813 
L 330.263513 24.51011 
L 331.567165 29.774525 
L 331.802547 28.971479 
L 332.381948 30.845253 
L 333.364214 30.934481 
L 334.251422 28.376629 
L 334.726712 29.030963 
L 335.736137 34.622545 
L 336.333645 34.295378 
L 336.808934 30.934481 
L 338.252911 36.020441 
L 338.850418 32.481088 
L 339.348341 36.050183 
L 340.733472 28.584827 
L 340.796844 29.387873 
L 341.937539 33.551817 
L 343.358883 11.780338 
L 343.79796 35.276879 
L 344.069554 29.328388 
L 345.377733 45.32983 
L 345.409419 51.099866 
L 345.413946 33.789757 
L 347.324159 37.567049 
L 348.396956 43.366828 
L 348.872246 43.842707 
L 349.63271 39.381338 
L 350.031048 41.046916 
L 351.212483 48.928667 
L 351.914102 51.902913 
L 353.005006 34.860485 
L 353.489349 39.946445 
L 354.37203 31.737527 
L 354.974064 34.354863 
L 356.119286 41.017174 
L 356.209818 40.214127 
L 357.237349 60.70668 
L 357.911809 55.85866 
L 358.495736 49.880426 
L 359.210934 53.984885 
L 359.944239 48.066136 
L 361.166413 48.750212 
L 362.09436 51.664973 
L 362.375008 42.563781 
L 362.39764 59.933376 
L 364.552288 48.928667 
L 364.819356 53.479263 
L 365.987211 54.401279 
L 367.195806 48.423045 
L 367.91553 54.758189 
L 368.43156 52.765444 
L 369.558676 58.743678 
L 370.079231 53.092611 
L 370.473043 60.320028 
L 371.686164 56.691448 
L 372.98529 65.316761 
L 373.388155 67.131051 
L 374.338735 56.959131 
L 374.940769 55.680205 
L 375.556382 64.5732 
L 376.117677 63.532214 
L 376.606547 59.635952 
L 378.530339 60.795907 
L 379.105214 63.680926 
L 379.15048 63.651183 
L 379.367755 61.123074 
L 382.210442 61.182559 
L 412.896067 61.182559 
L 413.393989 40.035673 
L 413.398516 82.954038 
L 414.480366 63.413244 
L 415.639169 66.833626 
L 416.182357 68.053067 
L 416.453951 63.918865 
L 417.839082 65.465473 
L 418.681024 67.993582 
L 419.115575 67.012081 
L 420.518812 61.628696 
L 420.636503 64.21629 
L 422.098585 55.353038 
L 422.261542 57.345782 
L 422.926948 50.41579 
L 424.343765 53.955142 
L 424.556513 50.088623 
L 425.176654 52.051625 
L 425.715316 56.929388 
L 426.792639 55.055613 
L 428.186823 47.441544 
L 428.820543 48.393303 
L 429.648906 45.597512 
L 430.39579 62.788652 
L 430.400317 38.399837 
L 432.686235 47.054892 
L 432.849192 45.984164 
L 433.835984 40.452067 
L 434.772984 47.054892 
L 435.379545 43.931934 
L 436.470448 44.764723 
L 437.158487 49.107122 
L 437.760521 51.932655 
L 439.159231 42.534039 
L 440.109811 48.898925 
L 441.304826 50.53476 
L 441.77559 44.853951 
L 442.341411 50.594245 
L 442.463628 44.556526 
L 443.62243 49.107122 
L 445.06188 40.957689 
L 446.216156 43.961677 
L 446.596388 40.927946 
L 447.41117 33.373362 
L 447.429277 50.41579 
L 448.198794 40.392582 
L 449.724248 43.812965 
L 449.77404 42.653009 
L 451.652567 47.501029 
L 452.779684 44.764723 
L 453.082964 44.853951 
L 454.219133 49.701971 
L 454.979597 47.917424 
L 455.771747 55.888402 
L 455.961863 53.717203 
L 457.392259 60.855392 
L 458.265888 58.832905 
L 458.92224 65.554701 
L 459.682704 67.101308 
L 459.999564 62.342515 
L 460.800767 62.28303 
L 461.538599 66.803884 
L 462.190425 64.246032 
L 463.082159 66.26852 
L 464.435604 53.56849 
L 464.449184 74.209756 
L 465.105536 64.45423 
L 466.391083 62.253288 
L 466.793947 63.799896 
L 467.264711 61.242044 
L 468.188131 62.253288 
L 469.333354 59.844149 
L 469.817697 60.111831 
L 470.940287 64.275775 
L 471.229987 61.390757 
L 472.212253 66.595687 
L 472.796181 65.108564 
L 474.145099 59.903634 
L 474.280896 61.271787 
L 475.666027 79.384943 
L 475.960254 72.871345 
L 477.282012 85.749829 
L 478.001737 80.931551 
L 478.879892 89.229696 
L 479.423081 92.114715 
L 480.292182 87.028755 
L 481.410245 79.176746 
L 481.419298 96.397628 
L 482.351772 85.095495 
L 483.623738 88.248195 
L 484.655797 83.727342 
L 485.022449 84.738585 
L 486.55243 81.883309 
L 486.715386 83.013523 
L 487.883242 80.842323 
L 489.105416 85.15498 
L 489.698397 79.563398 
L 491.151426 85.601117 
L 491.255537 87.177467 
L 492.409813 80.574641 
L 492.699513 82.507901 
L 493.980533 74.74512 
L 494.338132 79.71211 
L 494.555407 75.994303 
L 495.791161 77.540911 
L 496.972596 74.298983 
L 497.954862 73.823104 
L 498.407519 81.556142 
L 531.053149 81.556142 
L 532.420174 87.385664 
L 532.488072 64.21629 
L 532.592184 73.525679 
L 532.890937 78.224987 
L 534.543136 74.50718 
L 535.204015 69.064311 
L 535.661199 70.254009 
L 537.050856 67.131051 
L 537.476354 69.004826 
L 538.182499 66.060322 
L 539.531417 70.432464 
L 539.744166 66.060322 
L 540.391465 67.60693 
L 540.531789 73.257997 
L 542.690964 73.020057 
L 543.057616 65.852125 
L 543.433321 70.343236 
L 544.311476 59.992861 
L 545.370694 68.856113 
L 547.321646 69.807872 
L 547.977998 66.179292 
L 549.471767 79.47417 
L 550.12812 66.446974 
L 551.436299 66.209035 
L 552.156024 71.830359 
L 552.984386 72.306238 
L 554.03455 67.993582 
L 554.677324 70.224266 
L 555.573585 65.822383 
L 555.872338 66.684914 
L 556.836498 61.598954 
L 557.185044 64.305517 
L 557.723706 57.851404 
L 558.715025 61.212302 
L 559.56602 64.900367 
L 561.064315 70.789373 
L 561.630137 61.479984 
L 562.060161 60.379513 
L 562.526398 68.082809 
L 563.848156 57.702692 
L 564.699152 65.168049 
L 564.961693 63.026592 
L 566.33777 65.971095 
L 566.428302 52.854671 
L 566.459988 76.351212 
L 567.967336 63.145562 
L 568.551264 65.584443 
L 568.551264 65.584443 
" clip-path="url(#p99c383723c)" style="fill: none; stroke: #4169e1; stroke-width: 1.5; stroke-linecap: square"/>
   </g>
   <g id="patch_3">
    <path d="M 53.328125 107.967444 
L 53.328125 7.2 
" style="fill: none; stroke: #000000; stroke-width: 0.8; stroke-linejoin: miter; stroke-linecap: square"/>
   </g>
   <g id="patch_4">
    <path d="M 573.652483 107.967444 
L 573.652483 7.2 
" style="fill: none; stroke: #000000; stroke-width: 0.8; stroke-linejoin: miter; stroke-linecap: square"/>
   </g>
   <g id="patch_5">
    <path d="M 53.328125 107.967444 
L 573.652483 107.967444 
" style="fill: none; stroke: #000000; stroke-width: 0.8; stroke-linejoin: miter; stroke-linecap: square"/>
   </g>
   <g id="patch_6">
    <path d="M 53.328125 7.2 
L 573.652483 7.2 
" style="fill: none; stroke: #000000; stroke-width: 0.8; stroke-linejoin: miter; stroke-linecap: square"/>
   </g>
  </g>
  <g id="axes_2">
   <g id="patch_7">
    <path d="M 53.328125 220.575346 
L 573.652483 220.575346 
L 573.652483 119.807902 
L 53.328125 119.807902 
z
" style="fill: #ffffff"/>
   </g>
   <g id="matplotlib.axis_3">
    <g id="xtick_17">
     <g id="line2d_22">
      <g>
       <use xlink:href="#macd8a4641d" x="58.429344" y="220.575346" style="stroke: #000000; stroke-width: 0.8"/>
      </g>
     </g>
    </g>
    <g id="xtick_18">
     <g id="line2d_23">
      <g>
       <use xlink:href="#macd8a4641d" x="92.437669" y="220.575346" style="stroke: #000000; stroke-width: 0.8"/>
      </g>
     </g>
    </g>
    <g id="xtick_19">
     <g id="line2d_24">
      <g>
       <use xlink:href="#macd8a4641d" x="126.445994" y="220.575346" style="stroke: #000000; stroke-width: 0.8"/>
      </g>
     </g>
    </g>
    <g id="xtick_20">
     <g id="line2d_25">
      <g>
       <use xlink:href="#macd8a4641d" x="160.454319" y="220.575346" style="stroke: #000000; stroke-width: 0.8"/>
      </g>
     </g>
    </g>
    <g id="xtick_21">
     <g id="line2d_26">
      <g>
       <use xlink:href="#macd8a4641d" x="194.462643" y="220.575346" style="stroke: #000000; stroke-width: 0.8"/>
      </g>
     </g>
    </g>
    <g id="xtick_22">
     <g id="line2d_27">
      <g>
       <use xlink:href="#macd8a4641d" x="228.470968" y="220.575346" style="stroke: #000000; stroke-width: 0.8"/>
      </g>
     </g>
    </g>
    <g id="xtick_23">
     <g id="line2d_28">
      <g>
       <use xlink:href="#macd8a4641d" x="262.479293" y="220.575346" style="stroke: #000000; stroke-width: 0.8"/>
      </g>
     </g>
    </g>
    <g id="xtick_24">
     <g id="line2d_29">
      <g>
       <use xlink:href="#macd8a4641d" x="296.487618" y="220.575346" style="stroke: #000000; stroke-width: 0.8"/>
      </g>
     </g>
    </g>
    <g id="xtick_25">
     <g id="line2d_30">
      <g>
       <use xlink:href="#macd8a4641d" x="330.495942" y="220.575346" style="stroke: #000000; stroke-width: 0.8"/>
      </g>
     </g>
    </g>
    <g id="xtick_26">
     <g id="line2d_31">
      <g>
       <use xlink:href="#macd8a4641d" x="364.504267" y="220.575346" style="stroke: #000000; stroke-width: 0.8"/>
      </g>
     </g>
    </g>
    <g id="xtick_27">
     <g id="line2d_32">
      <g>
       <use xlink:href="#macd8a4641d" x="398.512592" y="220.575346" style="stroke: #000000; stroke-width: 0.8"/>
      </g>
     </g>
    </g>
    <g id="xtick_28">
     <g id="line2d_33">
      <g>
       <use xlink:href="#macd8a4641d" x="432.520917" y="220.575346" style="stroke: #000000; stroke-width: 0.8"/>
      </g>
     </g>
    </g>
    <g id="xtick_29">
     <g id="line2d_34">
      <g>
       <use xlink:href="#macd8a4641d" x="466.529241" y="220.575346" style="stroke: #000000; stroke-width: 0.8"/>
      </g>
     </g>
    </g>
    <g id="xtick_30">
     <g id="line2d_35">
      <g>
       <use xlink:href="#macd8a4641d" x="500.537566" y="220.575346" style="stroke: #000000; stroke-width: 0.8"/>
      </g>
     </g>
    </g>
    <g id="xtick_31">
     <g id="line2d_36">
      <g>
       <use xlink:href="#macd8a4641d" x="534.545891" y="220.575346" style="stroke: #000000; stroke-width: 0.8"/>
      </g>
     </g>
    </g>
    <g id="xtick_32">
     <g id="line2d_37">
      <g>
       <use xlink:href="#macd8a4641d" x="568.554216" y="220.575346" style="stroke: #000000; stroke-width: 0.8"/>
      </g>
     </g>
    </g>
   </g>
   <g id="matplotlib.axis_4">
    <g id="ytick_5">
     <g id="line2d_38">
      <g>
       <use xlink:href="#m83780b1791" x="53.328125" y="204.944655" style="stroke: #000000; stroke-width: 0.8"/>
      </g>
     </g>
     <g id="text_6">
      <!-- 1000 -->
      <g transform="translate(20.878125 208.743874) scale(0.1 -0.1)">
       <defs>
        <path id="DejaVuSans-30" d="M 2034 4250 
Q 1547 4250 1301 3770 
Q 1056 3291 1056 2328 
Q 1056 1369 1301 889 
Q 1547 409 2034 409 
Q 2525 409 2770 889 
Q 3016 1369 3016 2328 
Q 3016 3291 2770 3770 
Q 2525 4250 2034 4250 
z
M 2034 4750 
Q 2819 4750 3233 4129 
Q 3647 3509 3647 2328 
Q 3647 1150 3233 529 
Q 2819 -91 2034 -91 
Q 1250 -91 836 529 
Q 422 1150 422 2328 
Q 422 3509 836 4129 
Q 1250 4750 2034 4750 
z
" transform="scale(0.015625)"/>
       </defs>
       <use xlink:href="#DejaVuSans-31"/>
       <use xlink:href="#DejaVuSans-30" transform="translate(63.623047 0)"/>
       <use xlink:href="#DejaVuSans-30" transform="translate(127.246094 0)"/>
       <use xlink:href="#DejaVuSans-30" transform="translate(190.869141 0)"/>
      </g>
     </g>
    </g>
    <g id="ytick_6">
     <g id="line2d_39">
      <g>
       <use xlink:href="#m83780b1791" x="53.328125" y="177.071807" style="stroke: #000000; stroke-width: 0.8"/>
      </g>
     </g>
     <g id="text_7">
      <!-- 1010 -->
      <g transform="translate(20.878125 180.871025) scale(0.1 -0.1)">
       <use xlink:href="#DejaVuSans-31"/>
       <use xlink:href="#DejaVuSans-30" transform="translate(63.623047 0)"/>
       <use xlink:href="#DejaVuSans-31" transform="translate(127.246094 0)"/>
       <use xlink:href="#DejaVuSans-30" transform="translate(190.869141 0)"/>
      </g>
     </g>
    </g>
    <g id="ytick_7">
     <g id="line2d_40">
      <g>
       <use xlink:href="#m83780b1791" x="53.328125" y="149.198959" style="stroke: #000000; stroke-width: 0.8"/>
      </g>
     </g>
     <g id="text_8">
      <!-- 1020 -->
      <g transform="translate(20.878125 152.998177) scale(0.1 -0.1)">
       <defs>
        <path id="DejaVuSans-32" d="M 1228 531 
L 3431 531 
L 3431 0 
L 469 0 
L 469 531 
Q 828 903 1448 1529 
Q 2069 2156 2228 2338 
Q 2531 2678 2651 2914 
Q 2772 3150 2772 3378 
Q 2772 3750 2511 3984 
Q 2250 4219 1831 4219 
Q 1534 4219 1204 4116 
Q 875 4013 500 3803 
L 500 4441 
Q 881 4594 1212 4672 
Q 1544 4750 1819 4750 
Q 2544 4750 2975 4387 
Q 3406 4025 3406 3419 
Q 3406 3131 3298 2873 
Q 3191 2616 2906 2266 
Q 2828 2175 2409 1742 
Q 1991 1309 1228 531 
z
" transform="scale(0.015625)"/>
       </defs>
       <use xlink:href="#DejaVuSans-31"/>
       <use xlink:href="#DejaVuSans-30" transform="translate(63.623047 0)"/>
       <use xlink:href="#DejaVuSans-32" transform="translate(127.246094 0)"/>
       <use xlink:href="#DejaVuSans-30" transform="translate(190.869141 0)"/>
      </g>
     </g>
    </g>
    <g id="ytick_8">
     <g id="line2d_41">
      <g>
       <use xlink:href="#m83780b1791" x="53.328125" y="121.32611" style="stroke: #000000; stroke-width: 0.8"/>
      </g>
     </g>
     <g id="text_9">
      <!-- 1030 -->
      <g transform="translate(20.878125 125.125329) scale(0.1 -0.1)">
       <defs>
        <path id="DejaVuSans-33" d="M 2597 2516 
Q 3050 2419 3304 2112 
Q 3559 1806 3559 1356 
Q 3559 666 3084 287 
Q 2609 -91 1734 -91 
Q 1441 -91 1130 -33 
Q 819 25 488 141 
L 488 750 
Q 750 597 1062 519 
Q 1375 441 1716 441 
Q 2309 441 2620 675 
Q 2931 909 2931 1356 
Q 2931 1769 2642 2001 
Q 2353 2234 1838 2234 
L 1294 2234 
L 1294 2753 
L 1863 2753 
Q 2328 2753 2575 2939 
Q 2822 3125 2822 3475 
Q 2822 3834 2567 4026 
Q 2313 4219 1838 4219 
Q 1578 4219 1281 4162 
Q 984 4106 628 3988 
L 628 4550 
Q 988 4650 1302 4700 
Q 1616 4750 1894 4750 
Q 2613 4750 3031 4423 
Q 3450 4097 3450 3541 
Q 3450 3153 3228 2886 
Q 3006 2619 2597 2516 
z
" transform="scale(0.015625)"/>
       </defs>
       <use xlink:href="#DejaVuSans-31"/>
       <use xlink:href="#DejaVuSans-30" transform="translate(63.623047 0)"/>
       <use xlink:href="#DejaVuSans-33" transform="translate(127.246094 0)"/>
       <use xlink:href="#DejaVuSans-30" transform="translate(190.869141 0)"/>
      </g>
     </g>
    </g>
    <g id="text_10">
     <!-- Equity -->
     <g transform="translate(14.798438 186.002561) rotate(-90) scale(0.1 -0.1)">
      <defs>
       <path id="DejaVuSans-45" d="M 628 4666 
L 3578 4666 
L 3578 4134 
L 1259 4134 
L 1259 2753 
L 3481 2753 
L 3481 2222 
L 1259 2222 
L 1259 531 
L 3634 531 
L 3634 0 
L 628 0 
L 628 4666 
z
" transform="scale(0.015625)"/>
       <path id="DejaVuSans-71" d="M 947 1747 
Q 947 1113 1208 752 
Q 1469 391 1925 391 
Q 2381 391 2643 752 
Q 2906 1113 2906 1747 
Q 2906 2381 2643 2742 
Q 2381 3103 1925 3103 
Q 1469 3103 1208 2742 
Q 947 2381 947 1747 
z
M 2906 525 
Q 2725 213 2448 61 
Q 2172 -91 1784 -91 
Q 1150 -91 751 415 
Q 353 922 353 1747 
Q 353 2572 751 3078 
Q 1150 3584 1784 3584 
Q 2172 3584 2448 3432 
Q 2725 3281 2906 2969 
L 2906 3500 
L 3481 3500 
L 3481 -1331 
L 2906 -1331 
L 2906 525 
z
" transform="scale(0.015625)"/>
       <path id="DejaVuSans-75" d="M 544 1381 
L 544 3500 
L 1119 3500 
L 1119 1403 
Q 1119 906 1312 657 
Q 1506 409 1894 409 
Q 2359 409 2629 706 
Q 2900 1003 2900 1516 
L 2900 3500 
L 3475 3500 
L 3475 0 
L 2900 0 
L 2900 538 
Q 2691 219 2414 64 
Q 2138 -91 1772 -91 
Q 1169 -91 856 284 
Q 544 659 544 1381 
z
M 1991 3584 
L 1991 3584 
z
" transform="scale(0.015625)"/>
       <path id="DejaVuSans-74" d="M 1172 4494 
L 1172 3500 
L 2356 3500 
L 2356 3053 
L 1172 3053 
L 1172 1153 
Q 1172 725 1289 603 
Q 1406 481 1766 481 
L 2356 481 
L 2356 0 
L 1766 0 
Q 1100 0 847 248 
Q 594 497 594 1153 
L 594 3053 
L 172 3053 
L 172 3500 
L 594 3500 
L 594 4494 
L 1172 4494 
z
" transform="scale(0.015625)"/>
       <path id="DejaVuSans-79" d="M 2059 -325 
Q 1816 -950 1584 -1140 
Q 1353 -1331 966 -1331 
L 506 -1331 
L 506 -850 
L 844 -850 
Q 1081 -850 1212 -737 
Q 1344 -625 1503 -206 
L 1606 56 
L 191 3500 
L 800 3500 
L 1894 763 
L 2988 3500 
L 3597 3500 
L 2059 -325 
z
" transform="scale(0.015625)"/>
      </defs>
      <use xlink:href="#DejaVuSans-45"/>
      <use xlink:href="#DejaVuSans-71" transform="translate(63.183594 0)"/>
      <use xlink:href="#DejaVuSans-75" transform="translate(126.660156 0)"/>
      <use xlink:href="#DejaVuSans-69" transform="translate(190.039062 0)"/>
      <use xlink:href="#DejaVuSans-74" transform="translate(217.822266 0)"/>
      <use xlink:href="#DejaVuSans-79" transform="translate(257.03125 0)"/>
     </g>
    </g>
   </g>
   <g id="line2d_42">
    <path d="M 58.429344 204.944655 
L 59.565514 204.55599 
L 59.954799 207.89237 
L 60.004591 207.439576 
L 60.570412 210.728293 
L 61.652263 208.511984 
L 62.806538 213.206747 
L 63.195823 215.3039 
L 63.888389 211.133425 
L 64.811809 215.995007 
L 65.522481 211.705376 
L 66.296525 214.279155 
L 67.577544 209.012441 
L 67.876298 211.22875 
L 69.166371 208.488153 
L 69.19353 209.036272 
L 69.872516 206.700806 
L 70.768777 207.749383 
L 72.221806 209.91803 
L 73.308183 215.589876 
L 73.31271 203.221439 
L 73.996222 210.267189 
L 74.245183 208.438618 
L 75.313454 209.802333 
L 76.277614 205.480258 
L 76.875121 207.254955 
L 77.56316 210.100828 
L 79.328523 207.176436 
L 79.858131 210.19593 
L 80.442059 211.74134 
L 80.568803 205.987659 
L 81.591808 204.949874 
L 82.080678 211.206085 
L 84.013524 201.344176 
L 84.398282 210.657916 
L 84.515973 210.753687 
L 85.548031 194.400771 
L 86.154592 197.656988 
L 87.521616 203.195079 
L 87.838476 201.806398 
L 88.843375 206.211869 
L 90.319037 211.47928 
L 90.373356 191.375313 
L 90.654003 193.862344 
L 90.663056 195.976667 
L 93.080245 193.363662 
L 93.383526 195.312058 
L 93.723018 194.205561 
L 95.252999 194.205561 
L 96.289584 195.760174 
L 96.583811 193.715562 
L 97.643029 189.554173 
L 98.312961 200.931842 
L 98.580029 197.901004 
L 99.31786 202.928314 
L 100.014952 197.900331 
L 102.264658 199.473863 
L 102.613204 189.885604 
L 103.034175 193.904715 
L 103.188078 189.542056 
L 104.699953 193.414088 
L 105.197876 189.022359 
L 107.34347 187.606446 
L 107.366103 199.437717 
L 107.533586 190.678257 
L 108.556592 192.789793 
L 110.294795 190.605928 
L 110.575442 194.3017 
L 110.602602 193.00578 
L 111.729718 190.029963 
L 113.028844 189.669985 
L 113.938684 192.453814 
L 114.662936 188.542055 
L 115.373607 189.59799 
L 115.58183 191.925846 
L 116.740632 191.0619 
L 118.270613 191.0619 
L 119.044657 188.890999 
L 119.777961 194.441097 
L 120.158193 194.633308 
L 120.628956 190.188425 
L 121.54785 193.864463 
L 122.665913 190.717005 
L 124.340745 192.230668 
L 124.363377 182.932453 
L 124.41317 191.630008 
L 125.074049 189.275422 
L 126.640243 188.065854 
L 127.233223 190.852916 
L 127.681354 190.324335 
L 127.993687 193.375687 
L 129.15249 193.063344 
L 129.949166 191.045127 
L 130.985751 191.333443 
L 132.072128 194.264664 
L 132.560998 193.543872 
L 133.108713 197.580306 
L 134.860496 194.240637 
L 135.068718 199.670603 
L 135.254307 198.253045 
L 136.404056 211.657117 
L 137.255052 208.447082 
L 137.793714 213.505168 
L 138.237318 210.357849 
L 139.694873 201.673698 
L 139.789931 201.768577 
L 140.020787 203.642441 
L 141.292753 202.59877 
L 176.581901 202.59877 
L 177.478162 203.091717 
L 178.116408 200.917171 
L 178.120935 200.941003 
L 182.719931 200.941003 
L 183.362704 200.744522 
L 183.457762 203.050749 
L 184.258965 203.003198 
L 185.680308 204.684744 
L 186.24613 202.687599 
L 187.101652 210.295772 
L 188.636159 209.292887 
L 188.803642 211.020362 
L 188.862488 210.902042 
L 189.595792 207.044802 
L 190.396995 210.0738 
L 191.125773 214.286001 
L 192.357001 214.901266 
L 192.37058 203.944812 
L 193.615387 212.741972 
L 194.774189 209.838151 
L 195.846987 210.960705 
L 196.530499 208.859566 
L 197.28191 207.773584 
L 197.938263 210.60658 
L 198.712306 211.645346 
L 199.282654 206.215436 
L 199.608567 208.576266 
L 200.450509 200.837481 
L 201.296978 202.895565 
L 202.568945 197.273974 
L 202.686636 197.843249 
L 203.43352 192.411416 
L 204.334307 193.463107 
L 205.475003 201.380961 
L 206.280733 201.952243 
L 207.231313 196.382245 
L 207.321844 198.310321 
L 208.01441 195.882373 
L 209.340695 206.712926 
L 209.345222 195.572929 
L 210.626241 200.082584 
L 211.042686 203.371301 
L 211.880101 203.037663 
L 214.94459 203.037663 
L 215.981175 204.387633 
L 216.447411 196.937165 
L 217.008706 200.099004 
L 217.493049 196.305398 
L 218.434576 202.317905 
L 218.937025 197.546074 
L 220.322156 204.035765 
L 221.08262 195.170193 
L 221.26821 196.410869 
L 221.684654 192.085829 
L 222.671447 193.20721 
L 223.92078 188.745547 
L 224.509234 191.250759 
L 225.305911 186.741378 
L 226.347022 182.041124 
L 226.360602 191.77566 
L 228.021853 190.204591 
L 228.696313 188.169455 
L 229.180656 187.163859 
L 229.538255 189.462365 
L 230.656318 188.863796 
L 231.611424 187.451172 
L 232.005236 188.672254 
L 232.734014 185.727292 
L 233.793232 186.583342 
L 234.893188 184.176143 
L 235.228155 184.848102 
L 235.377531 181.776291 
L 236.898459 184.848102 
L 237.790194 174.809868 
L 238.011996 179.129602 
L 239.383547 173.15397 
L 239.772832 176.753748 
L 239.944842 174.521886 
L 241.035745 175.985796 
L 241.103644 177.329713 
L 243.353349 179.479792 
L 243.357876 173.031687 
L 244.824485 175.512026 
L 245.598529 172.947166 
L 246.19151 174.169669 
L 246.94292 171.60481 
L 247.178302 172.539665 
L 248.522694 170.909661 
L 249.586438 173.858051 
L 249.799187 171.197309 
L 250.464593 177.166001 
L 251.917622 168.968038 
L 253.316332 174.313493 
L 254.366497 166.547003 
L 255.104328 171.010348 
L 255.652043 165.254717 
L 256.905903 169.541338 
L 257.765952 163.015078 
L 258.195976 164.267349 
L 258.924754 161.955463 
L 259.449836 163.015078 
L 296.278018 163.015078 
L 297.649569 164.141632 
L 298.247076 163.104902 
L 299.251975 165.395353 
L 299.609574 165.732893 
L 300.867961 163.538882 
L 301.125975 161.151991 
L 301.886439 167.734024 
L 302.65143 164.358623 
L 303.941502 172.266707 
L 304.217623 169.686936 
L 305.421691 174.195508 
L 305.715918 174.653598 
L 306.612179 169.469945 
L 307.037677 170.482566 
L 307.861513 174.991139 
L 308.581238 171.181756 
L 309.147059 174.701818 
L 311.365079 170.675446 
L 311.405818 181.621392 
L 311.78605 172.580318 
L 313.030857 174.490083 
L 313.193814 174.346426 
L 314.13534 172.407061 
L 314.723795 173.676029 
L 316.140611 179.302581 
L 317.6208 176.261848 
L 317.752071 178.584298 
L 317.856182 177.48293 
L 319.082882 182.965826 
L 319.37711 183.396796 
L 319.639651 180.284235 
L 320.830139 181.62503 
L 322.36012 181.62503 
L 322.609081 182.001186 
L 323.61398 171.456274 
L 324.288439 174.050846 
L 325.379343 165.505421 
L 325.80484 163.9582 
L 326.886691 167.790549 
L 328.371406 159.030893 
L 328.380459 173.955633 
L 328.597735 166.12431 
L 330.566793 165.645176 
L 330.707117 166.93056 
L 332.119407 166.785244 
L 332.381948 165.307704 
L 333.364214 165.23621 
L 334.251422 167.285701 
L 334.726712 166.761413 
L 335.736137 162.281131 
L 336.333645 162.543275 
L 336.808934 165.23621 
L 338.252911 161.161061 
L 338.850418 163.996983 
L 339.348341 161.137229 
L 340.235549 165.617511 
L 340.796844 163.516807 
L 341.937539 166.853187 
L 342.8338 165.709285 
L 343.725535 149.32271 
L 345.377733 165.747455 
L 345.409419 170.392353 
L 345.413946 156.457657 
L 347.324159 159.49839 
L 347.622913 162.658837 
L 348.464855 161.09906 
L 348.541807 159.421115 
L 349.985783 160.020381 
L 351.515764 160.020381 
L 352.769624 160.518843 
L 353.005006 155.730288 
L 353.489349 159.824503 
L 354.37203 153.216296 
L 355.960856 154.215588 
L 356.119286 157.643391 
L 356.209818 156.996183 
L 357.237349 173.51196 
L 357.911809 169.604745 
L 358.495736 164.786644 
L 359.210934 168.094594 
L 359.944239 163.324434 
L 361.166413 163.875759 
L 362.09436 166.224883 
L 362.375008 158.889864 
L 362.827665 176.877694 
L 364.552288 174.89507 
L 364.656399 178.406463 
L 366.498714 178.305663 
L 366.838207 180.240512 
L 367.195806 181.62596 
L 367.44024 179.472567 
L 368.920429 178.487733 
L 369.753318 182.368633 
L 370.079231 182.106182 
L 370.205975 178.783573 
L 372.152401 180.97556 
L 372.98529 174.048321 
L 373.582797 176.173712 
L 374.338735 171.053388 
L 374.940769 170.02265 
L 375.556382 177.189874 
L 376.072411 173.642218 
L 414.430574 173.642218 
L 415.639169 174.523756 
L 415.856444 172.819861 
L 416.182357 175.507695 
L 416.453951 172.171901 
L 417.839082 173.419824 
L 418.681024 175.459698 
L 419.115575 174.667747 
L 420.518812 170.324014 
L 420.636503 172.411886 
L 422.098585 165.260326 
L 422.261542 166.868227 
L 422.926948 161.276572 
L 424.343765 164.132396 
L 424.556513 161.012588 
L 425.176654 162.59649 
L 425.715316 166.532248 
L 426.792639 165.020341 
L 428.186823 158.876719 
L 428.820543 159.644672 
L 429.648906 157.388811 
L 430.39579 171.259957 
L 430.400317 151.581169 
L 432.686235 158.564739 
L 432.849192 157.700792 
L 433.835984 153.237067 
L 434.772984 158.564739 
L 435.379545 156.044894 
L 436.470448 156.716852 
L 437.158487 160.220637 
L 437.760521 155.392028 
L 439.159231 161.886057 
L 440.109811 156.750373 
L 441.304826 155.430455 
L 441.77559 160.014172 
L 442.056237 158.574261 
L 442.463628 154.007779 
L 443.62243 157.683817 
L 444.102247 153.527251 
L 445.125252 154.267367 
L 446.655233 154.267367 
L 447.632972 152.078961 
L 447.777823 155.054778 
L 448.198794 152.486936 
L 449.724248 155.246766 
L 449.77404 154.310824 
L 451.652567 158.222583 
L 452.779684 156.014719 
L 452.865688 157.718614 
L 454.219133 155.216202 
L 454.979597 156.657786 
L 455.771747 150.218712 
L 455.961863 151.972639 
L 457.392259 146.206304 
L 458.265888 147.840099 
L 458.92224 142.410134 
L 459.460902 141.219739 
L 459.709864 144.189546 
L 463.534816 144.189546 
L 464.575928 144.74093 
L 465.046691 143.673958 
L 465.105536 144.37719 
L 466.391083 142.582736 
L 466.793947 142.940252 
L 467.264711 145.025698 
L 468.188131 144.201219 
L 469.333354 146.165419 
L 469.817697 145.947174 
L 470.940287 142.552261 
L 471.229987 144.904451 
L 472.212253 140.66081 
L 472.796181 141.873279 
L 474.145099 146.11692 
L 474.280896 145.001449 
L 475.666027 130.233578 
L 475.960254 135.544191 
L 477.282012 127.280633 
L 477.544554 127.696189 
L 478.001737 131.24064 
L 478.884419 128.747302 
L 480.418926 128.747302 
L 481.758791 135.333169 
L 482.351772 129.879654 
L 483.623738 132.479633 
L 484.275565 128.923058 
L 486.430212 128.498685 
L 486.584116 130.287202 
L 486.715386 128.841689 
L 488.091464 129.650196 
L 491.160479 129.650196 
L 492.409813 133.88542 
L 492.699513 131.350418 
L 493.980533 124.963132 
L 494.338132 129.050016 
L 494.555407 125.990971 
L 495.791161 127.263534 
L 496.972596 124.596046 
L 497.343775 125.868609 
L 501.902032 125.819665 
L 543.333737 125.819665 
L 544.759606 128.618097 
L 544.958776 127.98399 
L 545.370694 130.764306 
L 546.402752 129.252204 
L 549.46724 129.252204 
L 549.752414 130.26981 
L 550.12812 127.733381 
L 551.644521 129.172317 
L 552.156024 126.064933 
L 552.984386 124.38824 
L 554.03455 127.932691 
L 554.677324 126.099354 
L 555.573585 129.717138 
L 555.872338 129.008248 
L 556.836498 133.188256 
L 557.185044 130.963807 
L 557.723706 136.268261 
L 558.715025 133.506034 
L 559.56602 130.474917 
L 561.064315 125.634909 
L 561.630137 133.286033 
L 561.77046 130.230473 
L 562.558084 138.374039 
L 563.282335 137.863046 
L 566.346824 137.863046 
L 566.455461 138.148304 
L 566.459988 125.64552 
L 567.894911 134.9784 
L 567.953756 133.956414 
L 568.551264 134.655664 
L 568.551264 134.655664 
" clip-path="url(#pec142c24e2)" style="fill: none; stroke: #2e8b57; stroke-width: 1.5; stroke-linecap: square"/>
   </g>
   <g id="patch_8">
    <path d="M 53.328125 220.575346 
L 53.328125 119.807902 
" style="fill: none; stroke: #000000; stroke-width: 0.8; stroke-linejoin: miter; stroke-linecap: square"/>
   </g>
   <g id="patch_9">
    <path d="M 573.652483 220.575346 
L 573.652483 119.807902 
" style="fill: none; stroke: #000000; stroke-width: 0.8; stroke-linejoin: miter; stroke-linecap: square"/>
   </g>
   <g id="patch_10">
    <path d="M 53.328125 220.575346 
L 573.652483 220.575346 
" style="fill: none; stroke: #000000; stroke-width: 0.8; stroke-linejoin: miter; stroke-linecap: square"/>
   </g>
   <g id="patch_11">
    <path d="M 53.328125 119.807902 
L 573.652483 119.807902 
" style="fill: none; stroke: #000000; stroke-width: 0.8; stroke-linejoin: miter; stroke-linecap: square"/>
   </g>
  </g>
  <g id="axes_3">
   <g id="patch_12">
    <path d="M 53.328125 330.84327 
L 573.652483 330.84327 
L 573.652483 230.075826 
L 53.328125 230.075826 
z
" style="fill: #ffffff"/>
   </g>
   <g id="matplotlib.axis_5">
    <g id="xtick_33">
     <g id="line2d_43">
      <g>
       <use xlink:href="#macd8a4641d" x="58.429344" y="330.84327" style="stroke: #000000; stroke-width: 0.8"/>
      </g>
     </g>
     <g id="text_11">
      <!-- Sep -->
      <g transform="translate(49.004344 345.441707) scale(0.1 -0.1)">
       <defs>
        <path id="DejaVuSans-53" d="M 3425 4513 
L 3425 3897 
Q 3066 4069 2747 4153 
Q 2428 4238 2131 4238 
Q 1616 4238 1336 4038 
Q 1056 3838 1056 3469 
Q 1056 3159 1242 3001 
Q 1428 2844 1947 2747 
L 2328 2669 
Q 3034 2534 3370 2195 
Q 3706 1856 3706 1288 
Q 3706 609 3251 259 
Q 2797 -91 1919 -91 
Q 1588 -91 1214 -16 
Q 841 59 441 206 
L 441 856 
Q 825 641 1194 531 
Q 1563 422 1919 422 
Q 2459 422 2753 634 
Q 3047 847 3047 1241 
Q 3047 1584 2836 1778 
Q 2625 1972 2144 2069 
L 1759 2144 
Q 1053 2284 737 2584 
Q 422 2884 422 3419 
Q 422 4038 858 4394 
Q 1294 4750 2059 4750 
Q 2388 4750 2728 4690 
Q 3069 4631 3425 4513 
z
" transform="scale(0.015625)"/>
        <path id="DejaVuSans-70" d="M 1159 525 
L 1159 -1331 
L 581 -1331 
L 581 3500 
L 1159 3500 
L 1159 2969 
Q 1341 3281 1617 3432 
Q 1894 3584 2278 3584 
Q 2916 3584 3314 3078 
Q 3713 2572 3713 1747 
Q 3713 922 3314 415 
Q 2916 -91 2278 -91 
Q 1894 -91 1617 61 
Q 1341 213 1159 525 
z
M 3116 1747 
Q 3116 2381 2855 2742 
Q 2594 3103 2138 3103 
Q 1681 3103 1420 2742 
Q 1159 2381 1159 1747 
Q 1159 1113 1420 752 
Q 1681 391 2138 391 
Q 2594 391 2855 752 
Q 3116 1113 3116 1747 
z
" transform="scale(0.015625)"/>
       </defs>
       <use xlink:href="#DejaVuSans-53"/>
       <use xlink:href="#DejaVuSans-65" transform="translate(63.476562 0)"/>
       <use xlink:href="#DejaVuSans-70" transform="translate(125 0)"/>
      </g>
     </g>
    </g>
    <g id="xtick_34">
     <g id="line2d_44">
      <g>
       <use xlink:href="#macd8a4641d" x="92.437669" y="330.84327" style="stroke: #000000; stroke-width: 0.8"/>
      </g>
     </g>
     <g id="text_12">
      <!-- 03 -->
      <g transform="translate(86.075169 345.441707) scale(0.1 -0.1)">
       <use xlink:href="#DejaVuSans-30"/>
       <use xlink:href="#DejaVuSans-33" transform="translate(63.623047 0)"/>
      </g>
     </g>
    </g>
    <g id="xtick_35">
     <g id="line2d_45">
      <g>
       <use xlink:href="#macd8a4641d" x="126.445994" y="330.84327" style="stroke: #000000; stroke-width: 0.8"/>
      </g>
     </g>
     <g id="text_13">
      <!-- 05 -->
      <g transform="translate(120.083494 345.441707) scale(0.1 -0.1)">
       <defs>
        <path id="DejaVuSans-35" d="M 691 4666 
L 3169 4666 
L 3169 4134 
L 1269 4134 
L 1269 2991 
Q 1406 3038 1543 3061 
Q 1681 3084 1819 3084 
Q 2600 3084 3056 2656 
Q 3513 2228 3513 1497 
Q 3513 744 3044 326 
Q 2575 -91 1722 -91 
Q 1428 -91 1123 -41 
Q 819 9 494 109 
L 494 744 
Q 775 591 1075 516 
Q 1375 441 1709 441 
Q 2250 441 2565 725 
Q 2881 1009 2881 1497 
Q 2881 1984 2565 2268 
Q 2250 2553 1709 2553 
Q 1456 2553 1204 2497 
Q 953 2441 691 2322 
L 691 4666 
z
" transform="scale(0.015625)"/>
       </defs>
       <use xlink:href="#DejaVuSans-30"/>
       <use xlink:href="#DejaVuSans-35" transform="translate(63.623047 0)"/>
      </g>
     </g>
    </g>
    <g id="xtick_36">
     <g id="line2d_46">
      <g>
       <use xlink:href="#macd8a4641d" x="160.454319" y="330.84327" style="stroke: #000000; stroke-width: 0.8"/>
      </g>
     </g>
     <g id="text_14">
      <!-- 07 -->
      <g transform="translate(154.091819 345.441707) scale(0.1 -0.1)">
       <use xlink:href="#DejaVuSans-30"/>
       <use xlink:href="#DejaVuSans-37" transform="translate(63.623047 0)"/>
      </g>
     </g>
    </g>
    <g id="xtick_37">
     <g id="line2d_47">
      <g>
       <use xlink:href="#macd8a4641d" x="194.462643" y="330.84327" style="stroke: #000000; stroke-width: 0.8"/>
      </g>
     </g>
     <g id="text_15">
      <!-- 09 -->
      <g transform="translate(188.100143 345.441707) scale(0.1 -0.1)">
       <use xlink:href="#DejaVuSans-30"/>
       <use xlink:href="#DejaVuSans-39" transform="translate(63.623047 0)"/>
      </g>
     </g>
    </g>
    <g id="xtick_38">
     <g id="line2d_48">
      <g>
       <use xlink:href="#macd8a4641d" x="228.470968" y="330.84327" style="stroke: #000000; stroke-width: 0.8"/>
      </g>
     </g>
     <g id="text_16">
      <!-- 11 -->
      <g transform="translate(222.108468 345.441707) scale(0.1 -0.1)">
       <use xlink:href="#DejaVuSans-31"/>
       <use xlink:href="#DejaVuSans-31" transform="translate(63.623047 0)"/>
      </g>
     </g>
    </g>
    <g id="xtick_39">
     <g id="line2d_49">
      <g>
       <use xlink:href="#macd8a4641d" x="262.479293" y="330.84327" style="stroke: #000000; stroke-width: 0.8"/>
      </g>
     </g>
     <g id="text_17">
      <!-- 13 -->
      <g transform="translate(256.116793 345.441707) scale(0.1 -0.1)">
       <use xlink:href="#DejaVuSans-31"/>
       <use xlink:href="#DejaVuSans-33" transform="translate(63.623047 0)"/>
      </g>
     </g>
    </g>
    <g id="xtick_40">
     <g id="line2d_50">
      <g>
       <use xlink:href="#macd8a4641d" x="296.487618" y="330.84327" style="stroke: #000000; stroke-width: 0.8"/>
      </g>
     </g>
     <g id="text_18">
      <!-- 15 -->
      <g transform="translate(290.125118 345.441707) scale(0.1 -0.1)">
       <use xlink:href="#DejaVuSans-31"/>
       <use xlink:href="#DejaVuSans-35" transform="translate(63.623047 0)"/>
      </g>
     </g>
    </g>
    <g id="xtick_41">
     <g id="line2d_51">
      <g>
       <use xlink:href="#macd8a4641d" x="330.495942" y="330.84327" style="stroke: #000000; stroke-width: 0.8"/>
      </g>
     </g>
     <g id="text_19">
      <!-- 17 -->
      <g transform="translate(324.133442 345.441707) scale(0.1 -0.1)">
       <use xlink:href="#DejaVuSans-31"/>
       <use xlink:href="#DejaVuSans-37" transform="translate(63.623047 0)"/>
      </g>
     </g>
    </g>
    <g id="xtick_42">
     <g id="line2d_52">
      <g>
       <use xlink:href="#macd8a4641d" x="364.504267" y="330.84327" style="stroke: #000000; stroke-width: 0.8"/>
      </g>
     </g>
     <g id="text_20">
      <!-- 19 -->
      <g transform="translate(358.141767 345.441707) scale(0.1 -0.1)">
       <use xlink:href="#DejaVuSans-31"/>
       <use xlink:href="#DejaVuSans-39" transform="translate(63.623047 0)"/>
      </g>
     </g>
    </g>
    <g id="xtick_43">
     <g id="line2d_53">
      <g>
       <use xlink:href="#macd8a4641d" x="398.512592" y="330.84327" style="stroke: #000000; stroke-width: 0.8"/>
      </g>
     </g>
     <g id="text_21">
      <!-- 21 -->
      <g transform="translate(392.150092 345.441707) scale(0.1 -0.1)">
       <use xlink:href="#DejaVuSans-32"/>
       <use xlink:href="#DejaVuSans-31" transform="translate(63.623047 0)"/>
      </g>
     </g>
    </g>
    <g id="xtick_44">
     <g id="line2d_54">
      <g>
       <use xlink:href="#macd8a4641d" x="432.520917" y="330.84327" style="stroke: #000000; stroke-width: 0.8"/>
      </g>
     </g>
     <g id="text_22">
      <!-- 23 -->
      <g transform="translate(426.158417 345.441707) scale(0.1 -0.1)">
       <use xlink:href="#DejaVuSans-32"/>
       <use xlink:href="#DejaVuSans-33" transform="translate(63.623047 0)"/>
      </g>
     </g>
    </g>
    <g id="xtick_45">
     <g id="line2d_55">
      <g>
       <use xlink:href="#macd8a4641d" x="466.529241" y="330.84327" style="stroke: #000000; stroke-width: 0.8"/>
      </g>
     </g>
     <g id="text_23">
      <!-- 25 -->
      <g transform="translate(460.166741 345.441707) scale(0.1 -0.1)">
       <use xlink:href="#DejaVuSans-32"/>
       <use xlink:href="#DejaVuSans-35" transform="translate(63.623047 0)"/>
      </g>
     </g>
    </g>
    <g id="xtick_46">
     <g id="line2d_56">
      <g>
       <use xlink:href="#macd8a4641d" x="500.537566" y="330.84327" style="stroke: #000000; stroke-width: 0.8"/>
      </g>
     </g>
     <g id="text_24">
      <!-- 27 -->
      <g transform="translate(494.175066 345.441707) scale(0.1 -0.1)">
       <use xlink:href="#DejaVuSans-32"/>
       <use xlink:href="#DejaVuSans-37" transform="translate(63.623047 0)"/>
      </g>
     </g>
    </g>
    <g id="xtick_47">
     <g id="line2d_57">
      <g>
       <use xlink:href="#macd8a4641d" x="534.545891" y="330.84327" style="stroke: #000000; stroke-width: 0.8"/>
      </g>
     </g>
     <g id="text_25">
      <!-- 29 -->
      <g transform="translate(528.183391 345.441707) scale(0.1 -0.1)">
       <use xlink:href="#DejaVuSans-32"/>
       <use xlink:href="#DejaVuSans-39" transform="translate(63.623047 0)"/>
      </g>
     </g>
    </g>
    <g id="xtick_48">
     <g id="line2d_58">
      <g>
       <use xlink:href="#macd8a4641d" x="568.554216" y="330.84327" style="stroke: #000000; stroke-width: 0.8"/>
      </g>
     </g>
     <g id="text_26">
      <!-- Oct -->
      <g transform="translate(559.908903 345.441707) scale(0.1 -0.1)">
       <defs>
        <path id="DejaVuSans-4f" d="M 2522 4238 
Q 1834 4238 1429 3725 
Q 1025 3213 1025 2328 
Q 1025 1447 1429 934 
Q 1834 422 2522 422 
Q 3209 422 3611 934 
Q 4013 1447 4013 2328 
Q 4013 3213 3611 3725 
Q 3209 4238 2522 4238 
z
M 2522 4750 
Q 3503 4750 4090 4092 
Q 4678 3434 4678 2328 
Q 4678 1225 4090 567 
Q 3503 -91 2522 -91 
Q 1538 -91 948 565 
Q 359 1222 359 2328 
Q 359 3434 948 4092 
Q 1538 4750 2522 4750 
z
" transform="scale(0.015625)"/>
       </defs>
       <use xlink:href="#DejaVuSans-4f"/>
       <use xlink:href="#DejaVuSans-63" transform="translate(78.710938 0)"/>
       <use xlink:href="#DejaVuSans-74" transform="translate(133.691406 0)"/>
      </g>
     </g>
    </g>
    <g id="text_27">
     <!-- Time -->
     <g transform="translate(301.25671 359.119832) scale(0.1 -0.1)">
      <defs>
       <path id="DejaVuSans-54" d="M -19 4666 
L 3928 4666 
L 3928 4134 
L 2272 4134 
L 2272 0 
L 1638 0 
L 1638 4134 
L -19 4134 
L -19 4666 
z
" transform="scale(0.015625)"/>
       <path id="DejaVuSans-6d" d="M 3328 2828 
Q 3544 3216 3844 3400 
Q 4144 3584 4550 3584 
Q 5097 3584 5394 3201 
Q 5691 2819 5691 2113 
L 5691 0 
L 5113 0 
L 5113 2094 
Q 5113 2597 4934 2840 
Q 4756 3084 4391 3084 
Q 3944 3084 3684 2787 
Q 3425 2491 3425 1978 
L 3425 0 
L 2847 0 
L 2847 2094 
Q 2847 2600 2669 2842 
Q 2491 3084 2119 3084 
Q 1678 3084 1418 2786 
Q 1159 2488 1159 1978 
L 1159 0 
L 581 0 
L 581 3500 
L 1159 3500 
L 1159 2956 
Q 1356 3278 1631 3431 
Q 1906 3584 2284 3584 
Q 2666 3584 2933 3390 
Q 3200 3197 3328 2828 
z
" transform="scale(0.015625)"/>
      </defs>
      <use xlink:href="#DejaVuSans-54"/>
      <use xlink:href="#DejaVuSans-69" transform="translate(57.958984 0)"/>
      <use xlink:href="#DejaVuSans-6d" transform="translate(85.742188 0)"/>
      <use xlink:href="#DejaVuSans-65" transform="translate(183.154297 0)"/>
     </g>
    </g>
    <g id="text_28">
     <!-- 2025-Oct -->
     <g transform="translate(527.029045 358.119832) scale(0.1 -0.1)">
      <defs>
       <path id="DejaVuSans-2d" d="M 313 2009 
L 1997 2009 
L 1997 1497 
L 313 1497 
L 313 2009 
z
" transform="scale(0.015625)"/>
      </defs>
      <use xlink:href="#DejaVuSans-32"/>
      <use xlink:href="#DejaVuSans-30" transform="translate(63.623047 0)"/>
      <use xlink:href="#DejaVuSans-32" transform="translate(127.246094 0)"/>
      <use xlink:href="#DejaVuSans-35" transform="translate(190.869141 0)"/>
      <use xlink:href="#DejaVuSans-2d" transform="translate(254.492188 0)"/>
      <use xlink:href="#DejaVuSans-4f" transform="translate(293.326172 0)"/>
      <use xlink:href="#DejaVuSans-63" transform="translate(372.037109 0)"/>
      <use xlink:href="#DejaVuSans-74" transform="translate(427.017578 0)"/>
     </g>
    </g>
   </g>
   <g id="matplotlib.axis_6">
    <g id="ytick_9">
     <g id="line2d_59">
      <g>
       <use xlink:href="#m83780b1791" x="53.328125" y="313.464524" style="stroke: #000000; stroke-width: 0.8"/>
      </g>
     </g>
     <g id="text_29">
      <!-- 1.0 -->
      <g transform="translate(22.045313 317.263742) scale(0.1 -0.1)">
       <defs>
        <path id="DejaVuSans-2212" d="M 678 2272 
L 4684 2272 
L 4684 1741 
L 678 1741 
L 678 2272 
z
" transform="scale(0.015625)"/>
       </defs>
       <use xlink:href="#DejaVuSans-2212"/>
       <use xlink:href="#DejaVuSans-31" transform="translate(83.789062 0)"/>
       <use xlink:href="#DejaVuSans-2e" transform="translate(147.412109 0)"/>
       <use xlink:href="#DejaVuSans-30" transform="translate(179.199219 0)"/>
      </g>
     </g>
    </g>
    <g id="ytick_10">
     <g id="line2d_60">
      <g>
       <use xlink:href="#m83780b1791" x="53.328125" y="274.060344" style="stroke: #000000; stroke-width: 0.8"/>
      </g>
     </g>
     <g id="text_30">
      <!-- 0.5 -->
      <g transform="translate(22.045313 277.859563) scale(0.1 -0.1)">
       <use xlink:href="#DejaVuSans-2212"/>
       <use xlink:href="#DejaVuSans-30" transform="translate(83.789062 0)"/>
       <use xlink:href="#DejaVuSans-2e" transform="translate(147.412109 0)"/>
       <use xlink:href="#DejaVuSans-35" transform="translate(179.199219 0)"/>
      </g>
     </g>
    </g>
    <g id="ytick_11">
     <g id="line2d_61">
      <g>
       <use xlink:href="#m83780b1791" x="53.328125" y="234.656164" style="stroke: #000000; stroke-width: 0.8"/>
      </g>
     </g>
     <g id="text_31">
      <!-- 0.0 -->
      <g transform="translate(30.425 238.455383) scale(0.1 -0.1)">
       <use xlink:href="#DejaVuSans-30"/>
       <use xlink:href="#DejaVuSans-2e" transform="translate(63.623047 0)"/>
       <use xlink:href="#DejaVuSans-30" transform="translate(95.410156 0)"/>
      </g>
     </g>
    </g>
    <g id="text_32">
     <!-- Drawdown, % -->
     <g transform="translate(14.798438 314.938454) rotate(-90) scale(0.1 -0.1)">
      <defs>
       <path id="DejaVuSans-44" d="M 1259 4147 
L 1259 519 
L 2022 519 
Q 2988 519 3436 956 
Q 3884 1394 3884 2338 
Q 3884 3275 3436 3711 
Q 2988 4147 2022 4147 
L 1259 4147 
z
M 628 4666 
L 1925 4666 
Q 3281 4666 3915 4102 
Q 4550 3538 4550 2338 
Q 4550 1131 3912 565 
Q 3275 0 1925 0 
L 628 0 
L 628 4666 
z
" transform="scale(0.015625)"/>
       <path id="DejaVuSans-61" d="M 2194 1759 
Q 1497 1759 1228 1600 
Q 959 1441 959 1056 
Q 959 750 1161 570 
Q 1363 391 1709 391 
Q 2188 391 2477 730 
Q 2766 1069 2766 1631 
L 2766 1759 
L 2194 1759 
z
M 3341 1997 
L 3341 0 
L 2766 0 
L 2766 531 
Q 2569 213 2275 61 
Q 1981 -91 1556 -91 
Q 1019 -91 701 211 
Q 384 513 384 1019 
Q 384 1609 779 1909 
Q 1175 2209 1959 2209 
L 2766 2209 
L 2766 2266 
Q 2766 2663 2505 2880 
Q 2244 3097 1772 3097 
Q 1472 3097 1187 3025 
Q 903 2953 641 2809 
L 641 3341 
Q 956 3463 1253 3523 
Q 1550 3584 1831 3584 
Q 2591 3584 2966 3190 
Q 3341 2797 3341 1997 
z
" transform="scale(0.015625)"/>
       <path id="DejaVuSans-77" d="M 269 3500 
L 844 3500 
L 1563 769 
L 2278 3500 
L 2956 3500 
L 3675 769 
L 4391 3500 
L 4966 3500 
L 4050 0 
L 3372 0 
L 2619 2869 
L 1863 0 
L 1184 0 
L 269 3500 
z
" transform="scale(0.015625)"/>
       <path id="DejaVuSans-64" d="M 2906 2969 
L 2906 4863 
L 3481 4863 
L 3481 0 
L 2906 0 
L 2906 525 
Q 2725 213 2448 61 
Q 2172 -91 1784 -91 
Q 1150 -91 751 415 
Q 353 922 353 1747 
Q 353 2572 751 3078 
Q 1150 3584 1784 3584 
Q 2172 3584 2448 3432 
Q 2725 3281 2906 2969 
z
M 947 1747 
Q 947 1113 1208 752 
Q 1469 391 1925 391 
Q 2381 391 2643 752 
Q 2906 1113 2906 1747 
Q 2906 2381 2643 2742 
Q 2381 3103 1925 3103 
Q 1469 3103 1208 2742 
Q 947 2381 947 1747 
z
" transform="scale(0.015625)"/>
       <path id="DejaVuSans-6f" d="M 1959 3097 
Q 1497 3097 1228 2736 
Q 959 2375 959 1747 
Q 959 1119 1226 758 
Q 1494 397 1959 397 
Q 2419 397 2687 759 
Q 2956 1122 2956 1747 
Q 2956 2369 2687 2733 
Q 2419 3097 1959 3097 
z
M 1959 3584 
Q 2709 3584 3137 3096 
Q 3566 2609 3566 1747 
Q 3566 888 3137 398 
Q 2709 -91 1959 -91 
Q 1206 -91 779 398 
Q 353 888 353 1747 
Q 353 2609 779 3096 
Q 1206 3584 1959 3584 
z
" transform="scale(0.015625)"/>
       <path id="DejaVuSans-6e" d="M 3513 2113 
L 3513 0 
L 2938 0 
L 2938 2094 
Q 2938 2591 2744 2837 
Q 2550 3084 2163 3084 
Q 1697 3084 1428 2787 
Q 1159 2491 1159 1978 
L 1159 0 
L 581 0 
L 581 3500 
L 1159 3500 
L 1159 2956 
Q 1366 3272 1645 3428 
Q 1925 3584 2291 3584 
Q 2894 3584 3203 3211 
Q 3513 2838 3513 2113 
z
" transform="scale(0.015625)"/>
       <path id="DejaVuSans-2c" d="M 750 794 
L 1409 794 
L 1409 256 
L 897 -744 
L 494 -744 
L 750 256 
L 750 794 
z
" transform="scale(0.015625)"/>
       <path id="DejaVuSans-20" transform="scale(0.015625)"/>
       <path id="DejaVuSans-25" d="M 4653 2053 
Q 4381 2053 4226 1822 
Q 4072 1591 4072 1178 
Q 4072 772 4226 539 
Q 4381 306 4653 306 
Q 4919 306 5073 539 
Q 5228 772 5228 1178 
Q 5228 1588 5073 1820 
Q 4919 2053 4653 2053 
z
M 4653 2450 
Q 5147 2450 5437 2106 
Q 5728 1763 5728 1178 
Q 5728 594 5436 251 
Q 5144 -91 4653 -91 
Q 4153 -91 3862 251 
Q 3572 594 3572 1178 
Q 3572 1766 3864 2108 
Q 4156 2450 4653 2450 
z
M 1428 4353 
Q 1159 4353 1004 4120 
Q 850 3888 850 3481 
Q 850 3069 1003 2837 
Q 1156 2606 1428 2606 
Q 1700 2606 1854 2837 
Q 2009 3069 2009 3481 
Q 2009 3884 1853 4118 
Q 1697 4353 1428 4353 
z
M 4250 4750 
L 4750 4750 
L 1831 -91 
L 1331 -91 
L 4250 4750 
z
M 1428 4750 
Q 1922 4750 2215 4408 
Q 2509 4066 2509 3481 
Q 2509 2891 2217 2550 
Q 1925 2209 1428 2209 
Q 931 2209 642 2551 
Q 353 2894 353 3481 
Q 353 4063 643 4406 
Q 934 4750 1428 4750 
z
" transform="scale(0.015625)"/>
      </defs>
      <use xlink:href="#DejaVuSans-44"/>
      <use xlink:href="#DejaVuSans-72" transform="translate(77.001953 0)"/>
      <use xlink:href="#DejaVuSans-61" transform="translate(118.115234 0)"/>
      <use xlink:href="#DejaVuSans-77" transform="translate(179.394531 0)"/>
      <use xlink:href="#DejaVuSans-64" transform="translate(261.181641 0)"/>
      <use xlink:href="#DejaVuSans-6f" transform="translate(324.658203 0)"/>
      <use xlink:href="#DejaVuSans-77" transform="translate(385.839844 0)"/>
      <use xlink:href="#DejaVuSans-6e" transform="translate(467.626953 0)"/>
      <use xlink:href="#DejaVuSans-2c" transform="translate(531.005859 0)"/>
      <use xlink:href="#DejaVuSans-20" transform="translate(562.792969 0)"/>
      <use xlink:href="#DejaVuSans-25" transform="translate(594.580078 0)"/>
     </g>
    </g>
   </g>
   <g id="line2d_62">
    <path d="M 58.429344 234.656164 
L 59.954799 244.08821 
L 60.004591 242.808146 
L 60.570412 252.105448 
L 61.652263 245.839875 
L 62.806538 259.11211 
L 63.195823 265.040825 
L 63.888389 253.250768 
L 64.811809 266.994606 
L 65.522481 254.86769 
L 66.296525 262.143839 
L 67.577544 247.254682 
L 67.876298 253.520255 
L 69.166371 245.772503 
L 69.19353 247.322054 
L 69.872516 240.719622 
L 70.768777 243.683979 
L 72.221806 249.814809 
L 73.308183 265.849286 
L 73.31271 234.656164 
L 73.996222 254.565179 
L 74.245183 249.398229 
L 75.313454 253.251646 
L 76.277614 241.038857 
L 76.875121 246.053579 
L 77.56316 254.095096 
L 79.328523 245.831711 
L 79.858131 254.363824 
L 80.442059 258.730654 
L 80.568803 242.472611 
L 81.591808 239.540165 
L 82.080678 257.218197 
L 83.868673 234.656164 
L 84.398282 260.956083 
L 84.515973 261.226519 
L 85.348862 234.656164 
L 87.521616 259.427697 
L 87.838476 255.516103 
L 88.843375 267.925295 
L 90.319037 282.762373 
L 90.373356 234.656164 
L 90.654003 241.653989 
L 90.663056 247.603114 
L 93.080245 240.250835 
L 93.383526 245.733086 
L 93.723018 242.619709 
L 95.252999 242.619709 
L 96.289584 246.993963 
L 96.583811 241.240983 
L 97.629449 234.656164 
L 98.312961 266.649004 
L 98.580029 258.126598 
L 99.31786 272.262878 
L 100.014952 258.124705 
L 102.264658 262.549317 
L 102.613204 235.588113 
L 103.034175 246.889441 
L 103.188078 234.656164 
L 104.699953 245.543874 
L 105.143557 234.656164 
L 106.012659 234.656164 
L 107.366103 267.901384 
L 107.533586 243.287783 
L 108.556592 249.221084 
L 110.294795 243.084542 
L 110.575442 253.469459 
L 110.602602 249.827995 
L 111.729718 241.466114 
L 113.028844 240.454596 
L 113.938684 248.277001 
L 114.662936 237.285173 
L 115.373607 240.252292 
L 115.58183 246.793441 
L 116.740632 244.365798 
L 118.270613 244.365798 
L 119.044657 238.265689 
L 119.777961 253.861156 
L 120.158193 254.401258 
L 120.628956 241.911382 
L 121.54785 252.240847 
L 122.665913 243.396665 
L 124.327165 234.656164 
L 124.376957 259.324754 
L 124.41317 259.055152 
L 125.074049 252.449901 
L 126.640243 249.056737 
L 127.233223 256.875197 
L 127.681354 255.392386 
L 127.993687 263.952252 
L 129.15249 263.076045 
L 129.949166 257.414401 
L 130.985751 258.223207 
L 132.072128 266.446071 
L 132.560998 264.424055 
L 133.108713 275.747342 
L 134.860496 266.37867 
L 135.068718 281.611188 
L 135.254307 277.634557 
L 136.404056 315.236595 
L 137.255052 306.231578 
L 137.793714 320.420874 
L 138.237318 311.591797 
L 139.694873 287.23041 
L 139.789931 287.496572 
L 140.020787 292.753265 
L 141.292753 289.825487 
L 176.581901 289.825487 
L 177.478162 291.208337 
L 178.116408 285.10815 
L 178.120935 285.175003 
L 182.719931 285.175003 
L 183.362704 284.62382 
L 183.457762 291.09341 
L 184.258965 290.960017 
L 185.680308 295.677208 
L 186.24613 290.074677 
L 187.101652 311.417653 
L 188.636159 308.60429 
L 188.803642 313.450325 
L 188.862488 313.118405 
L 189.595792 302.297807 
L 190.396995 310.794964 
L 191.125773 322.611322 
L 192.357001 324.337307 
L 192.37058 293.601498 
L 193.615387 318.279906 
L 194.774189 310.133904 
L 195.846987 313.28297 
L 196.530499 307.388708 
L 197.28191 304.342236 
L 197.938263 312.289555 
L 198.712306 315.203572 
L 199.282654 299.971211 
L 199.608567 306.593976 
L 200.450509 284.884597 
L 201.296978 290.658076 
L 202.568945 274.887997 
L 202.686636 276.484967 
L 203.43352 261.247211 
L 204.334307 264.197489 
L 205.475003 286.409205 
L 206.280733 288.011804 
L 207.231313 272.386456 
L 207.321844 277.795231 
L 208.01441 270.984181 
L 209.340695 301.366803 
L 209.345222 270.116106 
L 210.626241 282.766906 
L 211.042686 291.992646 
L 211.880101 291.056701 
L 214.94459 291.056701 
L 215.981175 294.843731 
L 216.447411 273.943159 
L 217.008706 282.812968 
L 217.493049 272.17088 
L 218.434576 289.037586 
L 218.937025 275.651311 
L 220.322156 293.856645 
L 221.08262 268.986325 
L 221.26821 272.466757 
L 221.684654 260.333852 
L 222.671447 263.479627 
L 223.92078 250.96346 
L 224.509234 257.991254 
L 225.305911 245.341224 
L 226.347022 234.656164 
L 226.360602 261.955503 
L 228.021853 257.54963 
L 228.696313 251.842335 
L 229.180656 249.02226 
L 229.538255 255.468146 
L 230.656318 253.78953 
L 231.611424 249.827996 
L 232.005236 253.252373 
L 232.734014 244.993581 
L 233.793232 247.394269 
L 234.893188 240.643571 
L 235.377531 234.656164 
L 236.391483 243.067993 
L 237.161 234.656164 
L 237.925991 249.222992 
L 238.351489 234.656164 
L 239.044054 247.068756 
L 239.772832 244.719485 
L 239.944842 238.480226 
L 241.035745 242.572644 
L 241.103644 246.329617 
L 243.353349 252.340246 
L 243.357876 234.656164 
L 244.824485 241.589748 
L 245.661901 234.656164 
L 246.19151 239.479733 
L 247.381998 234.656164 
L 248.631331 237.602298 
L 249.586438 242.891947 
L 249.799187 235.459655 
L 250.464593 252.132093 
L 251.673187 234.656164 
L 251.899516 234.656164 
L 253.316332 249.577436 
L 254.312178 234.656164 
L 255.104328 247.104447 
L 255.443821 234.656164 
L 256.905903 246.606097 
L 257.335927 234.656164 
L 258.123551 234.656164 
L 258.195976 238.546681 
L 259.449836 237.606637 
L 296.278018 237.606637 
L 297.649569 240.743504 
L 298.247076 237.85675 
L 299.251975 244.234462 
L 299.609574 245.174335 
L 300.867961 239.065159 
L 300.994705 234.656164 
L 301.886439 252.978491 
L 302.65143 243.582426 
L 303.941502 265.596065 
L 304.217623 258.414786 
L 305.421691 270.965245 
L 305.715918 272.240425 
L 306.612179 257.810753 
L 307.037677 260.629573 
L 307.861513 273.180032 
L 308.581238 262.575901 
L 309.147059 272.374655 
L 311.365079 261.166491 
L 311.405818 291.636588 
L 311.78605 266.469061 
L 313.030857 271.785249 
L 313.193814 271.385354 
L 314.13534 265.986767 
L 314.723795 269.519176 
L 316.140611 285.181741 
L 317.6208 276.717291 
L 317.752071 283.182265 
L 317.856182 280.116401 
L 319.082882 295.379072 
L 319.37711 296.578757 
L 319.639651 287.914359 
L 320.830139 291.646715 
L 322.36012 291.646715 
L 322.609081 292.693816 
L 323.61398 263.340073 
L 324.288439 270.562552 
L 325.379343 246.774756 
L 325.80484 242.467774 
L 326.886691 253.135838 
L 328.371406 234.656164 
L 328.380459 276.170876 
L 328.597735 254.38724 
L 330.566793 253.054478 
L 330.707117 256.629908 
L 332.119407 256.225695 
L 332.381948 252.115765 
L 333.364214 251.916898 
L 334.251422 257.617768 
L 334.726712 256.159406 
L 335.736137 243.697038 
L 336.333645 244.426219 
L 336.808934 251.916898 
L 338.252911 240.581446 
L 338.850418 248.46986 
L 339.348341 240.515156 
L 340.235549 252.977525 
L 340.796844 247.134199 
L 341.937539 256.414686 
L 343.250245 234.656164 
L 343.79796 257.753582 
L 344.069554 244.479204 
L 345.377733 280.187281 
L 345.409419 293.063427 
L 345.413946 254.434987 
L 347.324159 262.864217 
L 347.622913 271.625307 
L 348.464855 267.301443 
L 348.541807 262.650002 
L 349.985783 264.311231 
L 351.515764 264.311231 
L 352.769624 265.693021 
L 353.005006 252.418643 
L 353.489349 263.768236 
L 354.37203 245.449594 
L 355.960856 248.219734 
L 356.119286 257.721964 
L 356.209818 255.927837 
L 357.237349 301.711305 
L 357.911809 290.880093 
L 358.495736 277.523812 
L 359.210934 286.693796 
L 359.944239 273.470414 
L 361.166413 274.998744 
L 362.09436 281.510762 
L 362.375008 261.17732 
L 362.827665 311.041471 
L 364.552288 305.54543 
L 364.656399 315.279381 
L 366.498714 314.999951 
L 366.838207 320.363557 
L 367.195806 324.204163 
L 367.44024 318.234731 
L 368.920429 315.504669 
L 369.753318 326.262932 
L 370.079231 325.535391 
L 370.205975 316.32477 
L 372.152401 322.401186 
L 372.98529 303.198152 
L 373.582797 309.089959 
L 374.338735 294.895884 
L 374.940769 292.038571 
L 375.556382 311.906868 
L 376.072411 302.072393 
L 414.430574 302.072393 
L 415.639169 304.516108 
L 415.856444 299.792732 
L 416.182357 307.243692 
L 416.453951 297.996519 
L 417.839082 301.455893 
L 418.681024 307.110639 
L 419.115575 304.915267 
L 420.518812 292.873984 
L 420.636503 298.661783 
L 422.098585 278.836909 
L 422.261542 283.294179 
L 422.926948 267.793523 
L 424.343765 275.710167 
L 424.556513 267.061732 
L 425.176654 271.452476 
L 425.715316 282.36281 
L 426.792639 278.171645 
L 428.186823 261.140881 
L 428.820543 263.269726 
L 429.648906 257.016243 
L 430.39579 295.468515 
L 430.400317 240.916848 
L 432.686235 260.276037 
L 432.849192 257.881086 
L 433.835984 245.507171 
L 434.772984 260.276037 
L 435.379545 253.290763 
L 436.470448 255.153503 
L 437.158487 264.86636 
L 437.760521 251.480951 
L 439.159231 269.483081 
L 440.109811 255.246427 
L 441.304826 251.587474 
L 441.77559 264.29402 
L 442.056237 260.302435 
L 442.463628 247.643667 
L 443.62243 257.834031 
L 444.102247 246.311593 
L 445.125252 248.363273 
L 446.655233 248.363273 
L 447.632972 242.296782 
L 447.777823 250.546058 
L 448.198794 243.427731 
L 449.724248 251.078269 
L 449.77404 248.483739 
L 451.652567 259.327546 
L 452.779684 253.207115 
L 452.865688 257.930491 
L 454.219133 250.993544 
L 454.979597 254.989765 
L 455.771747 237.139976 
L 455.961863 242.002046 
L 456.464312 234.656164 
L 457.410366 234.656164 
L 458.265888 241.307443 
L 459.039931 234.656164 
L 459.709864 242.865382 
L 463.534816 242.865382 
L 464.575928 244.389534 
L 465.046691 241.44018 
L 465.105536 243.384073 
L 466.391083 238.423796 
L 466.793947 239.412051 
L 467.264711 245.176697 
L 468.188131 242.897651 
L 469.333354 248.327143 
L 469.817697 247.723866 
L 470.940287 238.339558 
L 471.229987 244.841543 
L 472.067403 234.656164 
L 472.796181 238.007046 
L 474.145099 249.735131 
L 474.280896 246.65232 
L 475.385379 234.656164 
L 475.960254 249.279552 
L 476.897254 234.656164 
L 477.544554 235.799267 
L 478.001737 245.549261 
L 478.884419 238.690645 
L 480.418926 238.690645 
L 481.758791 256.806897 
L 482.351772 241.805491 
L 483.623738 248.957455 
L 484.275565 239.174108 
L 486.430212 238.006754 
L 486.584116 242.926566 
L 486.715386 238.95028 
L 488.091464 241.174304 
L 491.160479 241.174304 
L 492.409813 252.824462 
L 492.699513 245.851236 
L 493.536929 234.656164 
L 494.338132 245.889186 
L 494.555407 237.481235 
L 495.791161 240.978943 
L 496.931857 234.656164 
L 497.343775 238.153424 
L 498.833017 238.018914 
L 543.333737 238.018914 
L 544.759606 245.709572 
L 544.958776 243.966917 
L 545.370694 251.607788 
L 546.402752 247.452227 
L 549.46724 247.452227 
L 549.752414 250.248812 
L 550.12812 243.278193 
L 551.644521 247.232679 
L 552.156024 238.692962 
L 552.96628 234.656164 
L 554.03455 244.396325 
L 554.677324 239.358311 
L 555.573585 249.299992 
L 555.872338 247.35196 
L 556.836498 258.838632 
L 557.185044 252.725842 
L 557.723706 267.302496 
L 558.715025 259.711888 
L 559.56602 251.382371 
L 561.064315 238.082014 
L 561.630137 259.107326 
L 561.77046 250.710636 
L 562.558084 273.089181 
L 563.282335 271.68497 
L 566.346824 271.68497 
L 566.455461 272.468859 
L 566.459988 238.111173 
L 567.894911 263.757955 
L 567.953756 260.949535 
L 568.551264 262.871076 
L 568.551264 262.871076 
" clip-path="url(#pf6347b0821)" style="fill: none; stroke: #7a738c; stroke-width: 1.5; stroke-linecap: square"/>
   </g>
   <g id="patch_13">
    <path d="M 53.328125 330.84327 
L 53.328125 230.075826 
" style="fill: none; stroke: #000000; stroke-width: 0.8; stroke-linejoin: miter; stroke-linecap: square"/>
   </g>
   <g id="patch_14">
    <path d="M 573.652483 330.84327 
L 573.652483 230.075826 
" style="fill: none; stroke: #000000; stroke-width: 0.8; stroke-linejoin: miter; stroke-linecap: square"/>
   </g>
   <g id="patch_15">
    <path d="M 53.328125 330.84327 
L 573.652483 330.84327 
" style="fill: none; stroke: #000000; stroke-width: 0.8; stroke-linejoin: miter; stroke-linecap: square"/>
   </g>
   <g id="patch_16">
    <path d="M 53.328125 230.075826 
L 573.652483 230.075826 
" style="fill: none; stroke: #000000; stroke-width: 0.8; stroke-linejoin: miter; stroke-linecap: square"/>
   </g>
  </g>
 </g>
 <defs>
  <clipPath id="p99c383723c">
   <rect x="53.328125" y="7.2" width="520.324358" height="100.767444"/>
  </clipPath>
  <clipPath id="pec142c24e2">
   <rect x="53.328125" y="119.807902" width="520.324358" height="100.767444"/>
  </clipPath>
  <clipPath id="pf6347b0821">
   <rect x="53.328125" y="230.075826" width="520.324358" height="100.767444"/>
  </clipPath>
 </defs>
</svg>
