<?xml version="1.0" encoding="utf-8" standalone="no"?>
<!DOCTYPE svg PUBLIC "-//W3C//DTD SVG 1.1//EN"
  "http://www.w3.org/Graphics/SVG/1.1/DTD/svg11.dtd">
<svg xmlns:xlink="http://www.w3.org/1999/xlink"   viewBox="0 0 584.399528 368.39952" xmlns="http://www.w3.org/2000/svg" version="1.1" preserveAspectRatio="xMidYMid meet" style="width:100%;height:auto;aspect-ratio:8 / 5;display:block;">
 <metadata>
  <rdf:RDF xmlns:dc="http://purl.org/dc/elements/1.1/" xmlns:cc="http://creativecommons.org/ns#" xmlns:rdf="http://www.w3.org/1999/02/22-rdf-syntax-ns#">
   <cc:Work>
    <dc:type rdf:resource="http://purl.org/dc/dcmitype/StillImage"/>
    <dc:date>2025-10-20T11:49:02.516164</dc:date>
    <dc:format>image/svg+xml</dc:format>
    <dc:creator>
     <cc:Agent>
      <dc:title>Matplotlib v3.10.6, https://matplotlib.org/</dc:title>
     </cc:Agent>
    </dc:creator>
   </cc:Work>
  </rdf:RDF>
 </metadata>
 <defs>
  <style type="text/css">*{stroke-linejoin: round; stroke-linecap: butt}</style>
 </defs>
 <g id="figure_1">
  <g id="patch_1">
   <path d="M 0 368.39952 
L 584.399528 368.39952 
L 584.399528 0 
L 0 0 
z
" style="fill: #ffffff"/>
  </g>
  <g id="axes_1">
   <g id="patch_2">
    <path d="M 53.328125 108.733656 
L 573.652483 108.733656 
L 573.652483 7.2 
L 53.328125 7.2 
z
" style="fill: #ffffff"/>
   </g>
   <g id="matplotlib.axis_1">
    <g id="xtick_1">
     <g id="line2d_1">
      <defs>
       <path id="mca518286a4" d="M 0 0 
L 0 3.5 
" style="stroke: #000000; stroke-width: 0.8"/>
      </defs>
      <g>
       <use xlink:href="#mca518286a4" x="58.429344" y="108.733656" style="stroke: #000000; stroke-width: 0.8"/>
      </g>
     </g>
    </g>
    <g id="xtick_2">
     <g id="line2d_2">
      <g>
       <use xlink:href="#mca518286a4" x="92.437669" y="108.733656" style="stroke: #000000; stroke-width: 0.8"/>
      </g>
     </g>
    </g>
    <g id="xtick_3">
     <g id="line2d_3">
      <g>
       <use xlink:href="#mca518286a4" x="126.445994" y="108.733656" style="stroke: #000000; stroke-width: 0.8"/>
      </g>
     </g>
    </g>
    <g id="xtick_4">
     <g id="line2d_4">
      <g>
       <use xlink:href="#mca518286a4" x="160.454319" y="108.733656" style="stroke: #000000; stroke-width: 0.8"/>
      </g>
     </g>
    </g>
    <g id="xtick_5">
     <g id="line2d_5">
      <g>
       <use xlink:href="#mca518286a4" x="194.462643" y="108.733656" style="stroke: #000000; stroke-width: 0.8"/>
      </g>
     </g>
    </g>
    <g id="xtick_6">
     <g id="line2d_6">
      <g>
       <use xlink:href="#mca518286a4" x="228.470968" y="108.733656" style="stroke: #000000; stroke-width: 0.8"/>
      </g>
     </g>
    </g>
    <g id="xtick_7">
     <g id="line2d_7">
      <g>
       <use xlink:href="#mca518286a4" x="262.479293" y="108.733656" style="stroke: #000000; stroke-width: 0.8"/>
      </g>
     </g>
    </g>
    <g id="xtick_8">
     <g id="line2d_8">
      <g>
       <use xlink:href="#mca518286a4" x="296.487618" y="108.733656" style="stroke: #000000; stroke-width: 0.8"/>
      </g>
     </g>
    </g>
    <g id="xtick_9">
     <g id="line2d_9">
      <g>
       <use xlink:href="#mca518286a4" x="330.495942" y="108.733656" style="stroke: #000000; stroke-width: 0.8"/>
      </g>
     </g>
    </g>
    <g id="xtick_10">
     <g id="line2d_10">
      <g>
       <use xlink:href="#mca518286a4" x="364.504267" y="108.733656" style="stroke: #000000; stroke-width: 0.8"/>
      </g>
     </g>
    </g>
    <g id="xtick_11">
     <g id="line2d_11">
      <g>
       <use xlink:href="#mca518286a4" x="398.512592" y="108.733656" style="stroke: #000000; stroke-width: 0.8"/>
      </g>
     </g>
    </g>
    <g id="xtick_12">
     <g id="line2d_12">
      <g>
       <use xlink:href="#mca518286a4" x="432.520917" y="108.733656" style="stroke: #000000; stroke-width: 0.8"/>
      </g>
     </g>
    </g>
    <g id="xtick_13">
     <g id="line2d_13">
      <g>
       <use xlink:href="#mca518286a4" x="466.529241" y="108.733656" style="stroke: #000000; stroke-width: 0.8"/>
      </g>
     </g>
    </g>
    <g id="xtick_14">
     <g id="line2d_14">
      <g>
       <use xlink:href="#mca518286a4" x="500.537566" y="108.733656" style="stroke: #000000; stroke-width: 0.8"/>
      </g>
     </g>
    </g>
    <g id="xtick_15">
     <g id="line2d_15">
      <g>
       <use xlink:href="#mca518286a4" x="534.545891" y="108.733656" style="stroke: #000000; stroke-width: 0.8"/>
      </g>
     </g>
    </g>
    <g id="xtick_16">
     <g id="line2d_16">
      <g>
       <use xlink:href="#mca518286a4" x="568.554216" y="108.733656" style="stroke: #000000; stroke-width: 0.8"/>
      </g>
     </g>
    </g>
   </g>
   <g id="matplotlib.axis_2">
    <g id="ytick_1">
     <g id="line2d_17">
      <defs>
       <path id="md606935d17" d="M 0 0 
L -3.5 0 
" style="stroke: #000000; stroke-width: 0.8"/>
      </defs>
      <g>
       <use xlink:href="#md606935d17" x="53.328125" y="106.396104" style="stroke: #000000; stroke-width: 0.8"/>
      </g>
     </g>
     <g id="text_1">
      <!-- 1.16 -->
      <g transform="translate(24.0625 110.195323) scale(0.1 -0.1)">
       <defs>
        <path id="DejaVuSans-31" d="M 794 531 
L 1825 531 
L 1825 4091 
L 703 3866 
L 703 4441 
L 1819 4666 
L 2450 4666 
L 2450 531 
L 3481 531 
L 3481 0 
L 794 0 
L 794 531 
z
" transform="scale(0.015625)"/>
        <path id="DejaVuSans-2e" d="M 684 794 
L 1344 794 
L 1344 0 
L 684 0 
L 684 794 
z
" transform="scale(0.015625)"/>
        <path id="DejaVuSans-36" d="M 2113 2584 
Q 1688 2584 1439 2293 
Q 1191 2003 1191 1497 
Q 1191 994 1439 701 
Q 1688 409 2113 409 
Q 2538 409 2786 701 
Q 3034 994 3034 1497 
Q 3034 2003 2786 2293 
Q 2538 2584 2113 2584 
z
M 3366 4563 
L 3366 3988 
Q 3128 4100 2886 4159 
Q 2644 4219 2406 4219 
Q 1781 4219 1451 3797 
Q 1122 3375 1075 2522 
Q 1259 2794 1537 2939 
Q 1816 3084 2150 3084 
Q 2853 3084 3261 2657 
Q 3669 2231 3669 1497 
Q 3669 778 3244 343 
Q 2819 -91 2113 -91 
Q 1303 -91 875 529 
Q 447 1150 447 2328 
Q 447 3434 972 4092 
Q 1497 4750 2381 4750 
Q 2619 4750 2861 4703 
Q 3103 4656 3366 4563 
z
" transform="scale(0.015625)"/>
       </defs>
       <use xlink:href="#DejaVuSans-31"/>
       <use xlink:href="#DejaVuSans-2e" transform="translate(63.623047 0)"/>
       <use xlink:href="#DejaVuSans-31" transform="translate(95.410156 0)"/>
       <use xlink:href="#DejaVuSans-36" transform="translate(159.033203 0)"/>
      </g>
     </g>
    </g>
    <g id="ytick_2">
     <g id="line2d_18">
      <g>
       <use xlink:href="#md606935d17" x="53.328125" y="76.427492" style="stroke: #000000; stroke-width: 0.8"/>
      </g>
     </g>
     <g id="text_2">
      <!-- 1.17 -->
      <g transform="translate(24.0625 80.226711) scale(0.1 -0.1)">
       <defs>
        <path id="DejaVuSans-37" d="M 525 4666 
L 3525 4666 
L 3525 4397 
L 1831 0 
L 1172 0 
L 2766 4134 
L 525 4134 
L 525 4666 
z
" transform="scale(0.015625)"/>
       </defs>
       <use xlink:href="#DejaVuSans-31"/>
       <use xlink:href="#DejaVuSans-2e" transform="translate(63.623047 0)"/>
       <use xlink:href="#DejaVuSans-31" transform="translate(95.410156 0)"/>
       <use xlink:href="#DejaVuSans-37" transform="translate(159.033203 0)"/>
      </g>
     </g>
    </g>
    <g id="ytick_3">
     <g id="line2d_19">
      <g>
       <use xlink:href="#md606935d17" x="53.328125" y="46.458881" style="stroke: #000000; stroke-width: 0.8"/>
      </g>
     </g>
     <g id="text_3">
      <!-- 1.18 -->
      <g transform="translate(24.0625 50.2581) scale(0.1 -0.1)">
       <defs>
        <path id="DejaVuSans-38" d="M 2034 2216 
Q 1584 2216 1326 1975 
Q 1069 1734 1069 1313 
Q 1069 891 1326 650 
Q 1584 409 2034 409 
Q 2484 409 2743 651 
Q 3003 894 3003 1313 
Q 3003 1734 2745 1975 
Q 2488 2216 2034 2216 
z
M 1403 2484 
Q 997 2584 770 2862 
Q 544 3141 544 3541 
Q 544 4100 942 4425 
Q 1341 4750 2034 4750 
Q 2731 4750 3128 4425 
Q 3525 4100 3525 3541 
Q 3525 3141 3298 2862 
Q 3072 2584 2669 2484 
Q 3125 2378 3379 2068 
Q 3634 1759 3634 1313 
Q 3634 634 3220 271 
Q 2806 -91 2034 -91 
Q 1263 -91 848 271 
Q 434 634 434 1313 
Q 434 1759 690 2068 
Q 947 2378 1403 2484 
z
M 1172 3481 
Q 1172 3119 1398 2916 
Q 1625 2713 2034 2713 
Q 2441 2713 2670 2916 
Q 2900 3119 2900 3481 
Q 2900 3844 2670 4047 
Q 2441 4250 2034 4250 
Q 1625 4250 1398 4047 
Q 1172 3844 1172 3481 
z
" transform="scale(0.015625)"/>
       </defs>
       <use xlink:href="#DejaVuSans-31"/>
       <use xlink:href="#DejaVuSans-2e" transform="translate(63.623047 0)"/>
       <use xlink:href="#DejaVuSans-31" transform="translate(95.410156 0)"/>
       <use xlink:href="#DejaVuSans-38" transform="translate(159.033203 0)"/>
      </g>
     </g>
    </g>
    <g id="ytick_4">
     <g id="line2d_20">
      <g>
       <use xlink:href="#md606935d17" x="53.328125" y="16.49027" style="stroke: #000000; stroke-width: 0.8"/>
      </g>
     </g>
     <g id="text_4">
      <!-- 1.19 -->
      <g transform="translate(24.0625 20.289488) scale(0.1 -0.1)">
       <defs>
        <path id="DejaVuSans-39" d="M 703 97 
L 703 672 
Q 941 559 1184 500 
Q 1428 441 1663 441 
Q 2288 441 2617 861 
Q 2947 1281 2994 2138 
Q 2813 1869 2534 1725 
Q 2256 1581 1919 1581 
Q 1219 1581 811 2004 
Q 403 2428 403 3163 
Q 403 3881 828 4315 
Q 1253 4750 1959 4750 
Q 2769 4750 3195 4129 
Q 3622 3509 3622 2328 
Q 3622 1225 3098 567 
Q 2575 -91 1691 -91 
Q 1453 -91 1209 -44 
Q 966 3 703 97 
z
M 1959 2075 
Q 2384 2075 2632 2365 
Q 2881 2656 2881 3163 
Q 2881 3666 2632 3958 
Q 2384 4250 1959 4250 
Q 1534 4250 1286 3958 
Q 1038 3666 1038 3163 
Q 1038 2656 1286 2365 
Q 1534 2075 1959 2075 
z
" transform="scale(0.015625)"/>
       </defs>
       <use xlink:href="#DejaVuSans-31"/>
       <use xlink:href="#DejaVuSans-2e" transform="translate(63.623047 0)"/>
       <use xlink:href="#DejaVuSans-31" transform="translate(95.410156 0)"/>
       <use xlink:href="#DejaVuSans-39" transform="translate(159.033203 0)"/>
      </g>
     </g>
    </g>
    <g id="text_5">
     <!-- Price -->
     <g transform="translate(14.798438 70.164484) rotate(-90) scale(0.1 -0.1)">
      <defs>
       <path id="DejaVuSans-50" d="M 1259 4147 
L 1259 2394 
L 2053 2394 
Q 2494 2394 2734 2622 
Q 2975 2850 2975 3272 
Q 2975 3691 2734 3919 
Q 2494 4147 2053 4147 
L 1259 4147 
z
M 628 4666 
L 2053 4666 
Q 2838 4666 3239 4311 
Q 3641 3956 3641 3272 
Q 3641 2581 3239 2228 
Q 2838 1875 2053 1875 
L 1259 1875 
L 1259 0 
L 628 0 
L 628 4666 
z
" transform="scale(0.015625)"/>
       <path id="DejaVuSans-72" d="M 2631 2963 
Q 2534 3019 2420 3045 
Q 2306 3072 2169 3072 
Q 1681 3072 1420 2755 
Q 1159 2438 1159 1844 
L 1159 0 
L 581 0 
L 581 3500 
L 1159 3500 
L 1159 2956 
Q 1341 3275 1631 3429 
Q 1922 3584 2338 3584 
Q 2397 3584 2469 3576 
Q 2541 3569 2628 3553 
L 2631 2963 
z
" transform="scale(0.015625)"/>
       <path id="DejaVuSans-69" d="M 603 3500 
L 1178 3500 
L 1178 0 
L 603 0 
L 603 3500 
z
M 603 4863 
L 1178 4863 
L 1178 4134 
L 603 4134 
L 603 4863 
z
" transform="scale(0.015625)"/>
       <path id="DejaVuSans-63" d="M 3122 3366 
L 3122 2828 
Q 2878 2963 2633 3030 
Q 2388 3097 2138 3097 
Q 1578 3097 1268 2742 
Q 959 2388 959 1747 
Q 959 1106 1268 751 
Q 1578 397 2138 397 
Q 2388 397 2633 464 
Q 2878 531 3122 666 
L 3122 134 
Q 2881 22 2623 -34 
Q 2366 -91 2075 -91 
Q 1284 -91 818 406 
Q 353 903 353 1747 
Q 353 2603 823 3093 
Q 1294 3584 2113 3584 
Q 2378 3584 2631 3529 
Q 2884 3475 3122 3366 
z
" transform="scale(0.015625)"/>
       <path id="DejaVuSans-65" d="M 3597 1894 
L 3597 1613 
L 953 1613 
Q 991 1019 1311 708 
Q 1631 397 2203 397 
Q 2534 397 2845 478 
Q 3156 559 3463 722 
L 3463 178 
Q 3153 47 2828 -22 
Q 2503 -91 2169 -91 
Q 1331 -91 842 396 
Q 353 884 353 1716 
Q 353 2575 817 3079 
Q 1281 3584 2069 3584 
Q 2775 3584 3186 3129 
Q 3597 2675 3597 1894 
z
M 3022 2063 
Q 3016 2534 2758 2815 
Q 2500 3097 2075 3097 
Q 1594 3097 1305 2825 
Q 1016 2553 972 2059 
L 3022 2063 
z
" transform="scale(0.015625)"/>
      </defs>
      <use xlink:href="#DejaVuSans-50"/>
      <use xlink:href="#DejaVuSans-72" transform="translate(58.552734 0)"/>
      <use xlink:href="#DejaVuSans-69" transform="translate(99.666016 0)"/>
      <use xlink:href="#DejaVuSans-63" transform="translate(127.449219 0)"/>
      <use xlink:href="#DejaVuSans-65" transform="translate(182.429688 0)"/>
     </g>
    </g>
   </g>
   <g id="line2d_21">
    <path d="M 58.429344 79.394385 
L 59.565514 79.963789 
L 59.954799 75.768183 
L 60.004591 76.337587 
L 60.570412 72.201918 
L 61.652263 74.988999 
L 62.806538 69.085183 
L 63.195823 66.447945 
L 63.888389 71.692452 
L 64.811809 65.578855 
L 65.522481 70.973205 
L 66.296525 67.736595 
L 67.577544 74.359658 
L 67.876298 71.572577 
L 69.166371 75.018968 
L 69.19353 74.32969 
L 69.872516 77.266614 
L 70.768777 75.947995 
L 72.221806 73.220851 
L 73.308183 66.088322 
L 73.31271 81.642031 
L 73.928323 74.629376 
L 75.313454 70.913268 
L 76.671425 76.427492 
L 76.875121 75.318654 
L 78.32815 78.705107 
L 79.328523 80.263475 
L 79.858131 76.457461 
L 80.442059 74.509501 
L 81.415272 95.937059 
L 81.591808 89.823462 
L 82.080678 98.574296 
L 84.013524 90.572677 
L 84.398282 102.230467 
L 84.515973 102.350341 
L 85.548031 81.88178 
L 86.154592 85.957511 
L 87.521616 93.74935 
L 87.838476 92.01117 
L 88.843375 97.525395 
L 90.319037 104.118489 
L 90.337143 83.020587 
L 90.654003 93.09004 
L 92.161351 96.386588 
L 92.3741 95.817184 
L 93.383526 98.334547 
L 94.080617 95.877121 
L 95.307318 99.683135 
L 96.289584 95.996996 
L 97.643029 103.728898 
L 98.312961 89.553744 
L 98.580029 93.329789 
L 99.31786 87.06635 
L 100.051165 94.468597 
L 101.128488 88.77456 
L 102.264658 94.408659 
L 102.613204 82.421215 
L 103.034175 87.935439 
L 103.405354 81.911748 
L 104.699953 83.320273 
L 105.197876 88.804529 
L 107.34347 90.572677 
L 107.366103 75.798152 
L 107.601485 89.43387 
L 107.981717 87.096318 
L 110.294795 90.392865 
L 110.575442 85.777699 
L 110.602602 87.396004 
L 111.729718 91.112112 
L 113.028844 91.561641 
L 113.938684 88.085282 
L 114.662936 92.970166 
L 115.817211 88.534812 
L 116.437352 94.498565 
L 117.021279 88.474874 
L 117.885854 94.378691 
L 118.456202 97.105834 
L 119.044657 89.793493 
L 120.158193 96.955991 
L 120.628956 91.411798 
L 121.54785 95.996996 
L 122.665913 92.071108 
L 124.340745 93.95913 
L 124.363377 82.361278 
L 124.41317 93.209915 
L 125.074049 90.272991 
L 126.060842 91.38183 
L 127.233223 87.126287 
L 127.681354 87.785596 
L 127.993687 83.979583 
L 129.15249 84.369175 
L 129.949166 86.886538 
L 130.985751 86.526915 
L 132.072128 82.870744 
L 132.560998 83.769802 
L 133.108713 78.735076 
L 134.860496 82.900713 
L 135.068718 76.127806 
L 135.254307 77.895954 
L 136.404056 58.865886 
L 136.834081 69.294963 
L 137.793714 58.626137 
L 138.237318 62.611963 
L 139.694873 72.052075 
L 140.020787 69.56468 
L 140.47797 72.411699 
L 141.29728 69.774461 
L 141.315386 71.09308 
L 142.827261 70.943237 
L 175.047393 70.943237 
L 175.364253 61.143501 
L 175.373306 75.228748 
L 176.740331 74.839156 
L 177.288046 71.632515 
L 178.220519 71.30286 
L 178.68223 74.119909 
L 180.447592 74.53947 
L 181.126578 71.153017 
L 181.963994 72.831259 
L 182.60224 67.526815 
L 183.181641 63.810707 
L 183.969264 70.134084 
L 184.580352 70.403802 
L 185.680308 66.897474 
L 186.24613 69.414837 
L 187.101652 59.824882 
L 187.391352 60.064631 
L 187.649367 64.140362 
L 188.862488 61.083563 
L 189.595792 65.968447 
L 190.396995 62.132465 
L 191.125773 56.798052 
L 192.357001 56.018868 
L 192.37058 69.894335 
L 193.615387 57.906891 
L 194.774189 54.220751 
L 195.566339 56.558303 
L 195.819827 53.022007 
L 197.28191 57.307518 
L 197.938263 53.711285 
L 198.712306 52.392666 
L 199.282654 59.285447 
L 200.233234 63.031523 
L 201.034437 55.958931 
L 201.296978 54.850092 
L 202.568945 61.952653 
L 202.686636 61.233406 
L 203.43352 68.096219 
L 204.3841 59.165572 
L 205.366366 71.572577 
L 206.280733 67.586752 
L 207.231313 74.599407 
L 207.321844 72.17195 
L 208.01441 75.228748 
L 209.340695 61.59303 
L 209.345222 75.61834 
L 210.626241 72.201918 
L 211.567768 77.476394 
L 212.527401 79.544228 
L 213.165647 73.970066 
L 213.455348 75.078905 
L 214.926484 72.321793 
L 215.981175 71.09308 
L 216.447411 80.473255 
L 217.008706 74.179847 
L 217.493049 78.944856 
L 218.434576 71.392766 
L 218.937025 77.386488 
L 220.240678 78.944856 
L 220.322156 69.235026 
L 221.684654 71.692452 
L 221.956248 67.376972 
L 222.671447 70.283927 
L 223.92078 75.888057 
L 224.509234 72.741353 
L 225.305911 78.405421 
L 226.347022 84.309237 
L 226.360602 72.082044 
L 228.021853 74.659344 
L 228.696313 77.206676 
L 229.180656 78.465358 
L 229.538255 75.588371 
L 230.656318 76.337587 
L 231.611424 78.105735 
L 232.005236 76.577336 
L 232.906024 81.042659 
L 233.39942 80.473255 
L 234.725705 77.806049 
L 235.228155 79.154636 
L 235.377531 82.990618 
L 237.323957 86.317134 
L 237.790194 64.859608 
L 238.011996 70.253959 
L 239.383547 62.791774 
L 239.772832 67.287066 
L 239.944842 64.499985 
L 241.103644 68.006313 
L 242.54762 64.709765 
L 243.353349 61.952653 
L 243.357876 70.01421 
L 244.10476 64.17033 
L 245.598529 67.556784 
L 246.19151 66.028384 
L 246.94292 69.235026 
L 247.178302 68.06625 
L 248.522694 70.104115 
L 249.586438 66.417976 
L 249.799187 69.744492 
L 250.464593 62.282308 
L 251.917622 72.531573 
L 253.316332 65.848573 
L 254.366497 75.558403 
L 255.104328 75.198779 
L 255.652043 68.036281 
L 256.905903 73.370694 
L 257.765952 65.2492 
L 258.195976 66.807568 
L 258.924754 63.930582 
L 259.472469 65.129326 
L 260.350624 70.463739 
L 293.204476 70.463739 
L 294.358752 72.561542 
L 294.44023 58.326451 
L 295.214274 65.788635 
L 296.210119 68.785497 
L 296.839312 69.804429 
L 297.649569 67.706627 
L 298.247076 68.995277 
L 299.251975 66.148259 
L 299.609574 65.728698 
L 300.867961 68.455842 
L 301.125975 71.422734 
L 301.886439 63.241303 
L 302.65143 67.436909 
L 303.941502 57.607204 
L 304.217623 60.813846 
L 305.421691 55.209716 
L 305.715918 54.640312 
L 306.612179 61.083563 
L 307.037677 59.824882 
L 307.861513 54.220751 
L 308.581238 58.955792 
L 309.147059 54.580375 
L 311.365079 59.585133 
L 311.405818 45.979383 
L 311.650253 58.326451 
L 311.78605 56.108774 
L 313.193814 56.768083 
L 314.13534 59.195541 
L 314.723795 57.607204 
L 316.140611 50.564581 
L 317.6208 54.370594 
L 317.752071 51.463639 
L 317.856182 52.842195 
L 319.082882 45.979383 
L 319.639651 49.335868 
L 320.440854 41.064531 
L 321.934622 40.105535 
L 322.34654 48.976244 
L 322.396332 48.047217 
L 323.61398 32.523477 
L 324.288439 35.790055 
L 325.379343 25.031324 
L 325.80484 23.083364 
L 326.886691 27.908311 
L 328.371406 16.879862 
L 328.380459 35.670181 
L 328.556996 29.526616 
L 330.263513 24.641732 
L 331.567165 29.946176 
L 331.802547 29.137024 
L 332.381948 31.025046 
L 333.364214 31.114952 
L 334.251422 28.537651 
L 334.726712 29.196961 
L 335.736137 34.83106 
L 336.333645 34.501405 
L 336.808934 31.114952 
L 338.252911 36.239585 
L 338.850418 32.67332 
L 339.348341 36.269553 
L 340.733472 28.747432 
L 340.796844 29.556584 
L 341.937539 33.75219 
L 343.358883 11.815166 
L 343.79796 35.490369 
L 344.069554 29.496647 
L 345.377733 45.61976 
L 345.409419 51.433671 
L 345.413946 33.991939 
L 347.324159 37.797952 
L 348.396956 43.641832 
L 348.872246 44.121329 
L 349.63271 39.626038 
L 350.031048 41.30428 
L 351.212483 49.245962 
L 351.914102 52.242823 
L 353.005006 35.070809 
L 353.489349 40.195441 
L 354.37203 31.924104 
L 354.974064 34.561342 
L 356.119286 41.274311 
L 356.209818 40.465159 
L 357.237349 61.113532 
L 357.911809 56.228648 
L 358.495736 50.204957 
L 359.210934 54.340626 
L 359.944239 48.376872 
L 361.166413 49.06615 
L 362.09436 52.003074 
L 362.375008 42.832679 
L 362.39764 60.334348 
L 364.552288 49.245962 
L 364.819356 53.831159 
L 365.987211 54.760186 
L 367.195806 48.736495 
L 367.91553 55.11981 
L 368.43156 53.111913 
L 369.558676 59.135604 
L 370.079231 53.441568 
L 370.473043 60.72394 
L 371.686164 57.067769 
L 372.98529 65.758667 
L 373.388155 67.586752 
L 374.338735 57.337487 
L 374.940769 56.048837 
L 375.556382 65.009452 
L 376.117677 63.96055 
L 376.606547 60.034662 
L 378.530339 61.203438 
L 379.105214 64.110393 
L 379.15048 64.080425 
L 379.367755 61.533093 
L 382.210442 61.59303 
L 412.896067 61.59303 
L 413.393989 40.285347 
L 413.398516 83.530053 
L 414.480366 63.840676 
L 415.639169 67.287066 
L 416.182357 68.515779 
L 416.453951 64.350142 
L 417.839082 65.90851 
L 418.681024 68.455842 
L 419.115575 67.466878 
L 420.518812 62.042559 
L 420.636503 64.649828 
L 422.098585 55.719182 
L 422.261542 57.727079 
L 422.926948 50.744392 
L 424.343765 54.310657 
L 424.556513 50.414738 
L 425.176654 52.392666 
L 425.715316 57.307518 
L 426.792639 55.419496 
L 428.186823 47.747531 
L 428.820543 48.706527 
L 429.648906 45.889477 
L 430.39579 63.211335 
L 430.400317 38.637073 
L 432.686235 47.357939 
L 432.849192 46.279069 
L 433.835984 40.704908 
L 434.772984 47.357939 
L 435.379545 44.211235 
L 436.470448 45.050356 
L 437.158487 49.425774 
L 437.760521 52.272792 
L 439.159231 42.80271 
L 440.109811 49.215993 
L 441.304826 50.864267 
L 441.77559 45.140262 
L 442.341411 50.924204 
L 442.463628 44.840576 
L 443.62243 49.425774 
L 445.06188 41.214374 
L 446.216156 44.241204 
L 446.596388 41.184405 
L 447.41117 33.572378 
L 447.429277 50.744392 
L 448.198794 40.64497 
L 449.724248 44.091361 
L 449.77404 42.922585 
L 451.652567 47.807469 
L 452.779684 45.050356 
L 453.082964 45.140262 
L 454.219133 50.025146 
L 454.979597 48.227029 
L 455.771747 56.258617 
L 455.961863 54.070908 
L 457.392259 61.263375 
L 458.265888 59.22551 
L 458.92224 65.998416 
L 459.682704 67.556784 
L 459.999564 62.761806 
L 460.800767 62.701868 
L 461.538599 67.257097 
L 462.190425 64.679797 
L 463.082159 66.717662 
L 464.435604 53.921065 
L 464.449184 74.719282 
L 465.105536 64.889577 
L 466.391083 62.6719 
L 466.793947 64.230268 
L 467.264711 61.652967 
L 468.188131 62.6719 
L 469.333354 60.244442 
L 469.817697 60.51416 
L 470.940287 64.709765 
L 471.229987 61.80281 
L 472.212253 67.047317 
L 472.796181 65.548887 
L 474.145099 60.30438 
L 474.280896 61.682936 
L 475.666027 79.93382 
L 475.960254 73.370694 
L 477.282012 86.347103 
L 478.001737 81.492188 
L 478.879892 89.85343 
L 479.423081 92.760386 
L 480.292182 87.635753 
L 481.410245 79.72404 
L 481.419298 97.075866 
L 482.351772 85.687793 
L 483.623738 88.864466 
L 484.655797 84.309237 
L 485.022449 85.32817 
L 486.55243 82.451183 
L 486.715386 83.589991 
L 487.883242 81.402282 
L 489.105416 85.747731 
L 489.698397 80.113632 
L 491.151426 86.19726 
L 491.255537 87.785596 
L 492.409813 81.132564 
L 492.699513 83.080524 
L 493.980533 75.258717 
L 494.338132 80.263475 
L 494.555407 76.517398 
L 495.791161 78.075766 
L 496.972596 74.809187 
L 497.954862 74.32969 
L 498.407519 82.121529 
L 531.053149 82.121529 
L 532.420174 87.995377 
L 532.488072 64.649828 
L 532.592184 74.030004 
L 532.890937 78.765044 
L 534.543136 75.018968 
L 535.204015 69.534712 
L 535.661199 70.733456 
L 537.050856 67.586752 
L 537.476354 69.474775 
L 538.182499 66.507882 
L 539.531417 70.913268 
L 539.744166 66.507882 
L 540.391465 68.06625 
L 540.531789 73.760286 
L 542.690964 73.520537 
L 543.057616 66.298102 
L 543.433321 70.823362 
L 544.311476 60.394285 
L 545.370694 69.324932 
L 547.321646 70.283927 
L 547.977998 66.627757 
L 549.471767 80.023726 
L 550.12812 66.897474 
L 551.436299 66.657725 
L 552.156024 72.321793 
L 552.984386 72.801291 
L 554.03455 68.455842 
L 554.677324 70.703488 
L 555.573585 66.268133 
L 555.872338 67.137223 
L 556.836498 62.01259 
L 557.185044 64.739734 
L 557.723706 58.236545 
L 558.715025 61.622998 
L 559.56602 65.339106 
L 561.064315 71.272891 
L 561.630137 61.892716 
L 562.060161 60.783877 
L 562.526398 68.545748 
L 563.848156 58.086702 
L 564.699152 65.608824 
L 564.961693 63.451084 
L 566.33777 66.417976 
L 566.428302 53.201819 
L 566.459988 76.877022 
L 567.967336 63.570958 
L 568.551264 66.028384 
L 568.551264 66.028384 
" clip-path="url(#peab7aed5dd)" style="fill: none; stroke: #4169e1; stroke-width: 1.5; stroke-linecap: square"/>
   </g>
   <g id="patch_3">
    <path d="M 53.328125 108.733656 
L 53.328125 7.2 
" style="fill: none; stroke: #000000; stroke-width: 0.8; stroke-linejoin: miter; stroke-linecap: square"/>
   </g>
   <g id="patch_4">
    <path d="M 573.652483 108.733656 
L 573.652483 7.2 
" style="fill: none; stroke: #000000; stroke-width: 0.8; stroke-linejoin: miter; stroke-linecap: square"/>
   </g>
   <g id="patch_5">
    <path d="M 53.328125 108.733656 
L 573.652483 108.733656 
" style="fill: none; stroke: #000000; stroke-width: 0.8; stroke-linejoin: miter; stroke-linecap: square"/>
   </g>
   <g id="patch_6">
    <path d="M 53.328125 7.2 
L 573.652483 7.2 
" style="fill: none; stroke: #000000; stroke-width: 0.8; stroke-linejoin: miter; stroke-linecap: square"/>
   </g>
  </g>
  <g id="axes_2">
   <g id="patch_7">
    <path d="M 53.328125 219.809134 
L 573.652483 219.809134 
L 573.652483 118.275479 
L 53.328125 118.275479 
z
" style="fill: #ffffff"/>
   </g>
   <g id="matplotlib.axis_3">
    <g id="xtick_17">
     <g id="line2d_22">
      <g>
       <use xlink:href="#mca518286a4" x="58.429344" y="219.809134" style="stroke: #000000; stroke-width: 0.8"/>
      </g>
     </g>
    </g>
    <g id="xtick_18">
     <g id="line2d_23">
      <g>
       <use xlink:href="#mca518286a4" x="92.437669" y="219.809134" style="stroke: #000000; stroke-width: 0.8"/>
      </g>
     </g>
    </g>
    <g id="xtick_19">
     <g id="line2d_24">
      <g>
       <use xlink:href="#mca518286a4" x="126.445994" y="219.809134" style="stroke: #000000; stroke-width: 0.8"/>
      </g>
     </g>
    </g>
    <g id="xtick_20">
     <g id="line2d_25">
      <g>
       <use xlink:href="#mca518286a4" x="160.454319" y="219.809134" style="stroke: #000000; stroke-width: 0.8"/>
      </g>
     </g>
    </g>
    <g id="xtick_21">
     <g id="line2d_26">
      <g>
       <use xlink:href="#mca518286a4" x="194.462643" y="219.809134" style="stroke: #000000; stroke-width: 0.8"/>
      </g>
     </g>
    </g>
    <g id="xtick_22">
     <g id="line2d_27">
      <g>
       <use xlink:href="#mca518286a4" x="228.470968" y="219.809134" style="stroke: #000000; stroke-width: 0.8"/>
      </g>
     </g>
    </g>
    <g id="xtick_23">
     <g id="line2d_28">
      <g>
       <use xlink:href="#mca518286a4" x="262.479293" y="219.809134" style="stroke: #000000; stroke-width: 0.8"/>
      </g>
     </g>
    </g>
    <g id="xtick_24">
     <g id="line2d_29">
      <g>
       <use xlink:href="#mca518286a4" x="296.487618" y="219.809134" style="stroke: #000000; stroke-width: 0.8"/>
      </g>
     </g>
    </g>
    <g id="xtick_25">
     <g id="line2d_30">
      <g>
       <use xlink:href="#mca518286a4" x="330.495942" y="219.809134" style="stroke: #000000; stroke-width: 0.8"/>
      </g>
     </g>
    </g>
    <g id="xtick_26">
     <g id="line2d_31">
      <g>
       <use xlink:href="#mca518286a4" x="364.504267" y="219.809134" style="stroke: #000000; stroke-width: 0.8"/>
      </g>
     </g>
    </g>
    <g id="xtick_27">
     <g id="line2d_32">
      <g>
       <use xlink:href="#mca518286a4" x="398.512592" y="219.809134" style="stroke: #000000; stroke-width: 0.8"/>
      </g>
     </g>
    </g>
    <g id="xtick_28">
     <g id="line2d_33">
      <g>
       <use xlink:href="#mca518286a4" x="432.520917" y="219.809134" style="stroke: #000000; stroke-width: 0.8"/>
      </g>
     </g>
    </g>
    <g id="xtick_29">
     <g id="line2d_34">
      <g>
       <use xlink:href="#mca518286a4" x="466.529241" y="219.809134" style="stroke: #000000; stroke-width: 0.8"/>
      </g>
     </g>
    </g>
    <g id="xtick_30">
     <g id="line2d_35">
      <g>
       <use xlink:href="#mca518286a4" x="500.537566" y="219.809134" style="stroke: #000000; stroke-width: 0.8"/>
      </g>
     </g>
    </g>
    <g id="xtick_31">
     <g id="line2d_36">
      <g>
       <use xlink:href="#mca518286a4" x="534.545891" y="219.809134" style="stroke: #000000; stroke-width: 0.8"/>
      </g>
     </g>
    </g>
    <g id="xtick_32">
     <g id="line2d_37">
      <g>
       <use xlink:href="#mca518286a4" x="568.554216" y="219.809134" style="stroke: #000000; stroke-width: 0.8"/>
      </g>
     </g>
    </g>
   </g>
   <g id="matplotlib.axis_4">
    <g id="ytick_5">
     <g id="line2d_38">
      <g>
       <use xlink:href="#md606935d17" x="53.328125" y="216.223499" style="stroke: #000000; stroke-width: 0.8"/>
      </g>
     </g>
     <g id="text_6">
      <!-- 990 -->
      <g transform="translate(27.240625 220.022718) scale(0.1 -0.1)">
       <defs>
        <path id="DejaVuSans-30" d="M 2034 4250 
Q 1547 4250 1301 3770 
Q 1056 3291 1056 2328 
Q 1056 1369 1301 889 
Q 1547 409 2034 409 
Q 2525 409 2770 889 
Q 3016 1369 3016 2328 
Q 3016 3291 2770 3770 
Q 2525 4250 2034 4250 
z
M 2034 4750 
Q 2819 4750 3233 4129 
Q 3647 3509 3647 2328 
Q 3647 1150 3233 529 
Q 2819 -91 2034 -91 
Q 1250 -91 836 529 
Q 422 1150 422 2328 
Q 422 3509 836 4129 
Q 1250 4750 2034 4750 
z
" transform="scale(0.015625)"/>
       </defs>
       <use xlink:href="#DejaVuSans-39"/>
       <use xlink:href="#DejaVuSans-39" transform="translate(63.623047 0)"/>
       <use xlink:href="#DejaVuSans-30" transform="translate(127.246094 0)"/>
      </g>
     </g>
    </g>
    <g id="ytick_6">
     <g id="line2d_39">
      <g>
       <use xlink:href="#md606935d17" x="53.328125" y="194.885151" style="stroke: #000000; stroke-width: 0.8"/>
      </g>
     </g>
     <g id="text_7">
      <!-- 995 -->
      <g transform="translate(27.240625 198.684369) scale(0.1 -0.1)">
       <defs>
        <path id="DejaVuSans-35" d="M 691 4666 
L 3169 4666 
L 3169 4134 
L 1269 4134 
L 1269 2991 
Q 1406 3038 1543 3061 
Q 1681 3084 1819 3084 
Q 2600 3084 3056 2656 
Q 3513 2228 3513 1497 
Q 3513 744 3044 326 
Q 2575 -91 1722 -91 
Q 1428 -91 1123 -41 
Q 819 9 494 109 
L 494 744 
Q 775 591 1075 516 
Q 1375 441 1709 441 
Q 2250 441 2565 725 
Q 2881 1009 2881 1497 
Q 2881 1984 2565 2268 
Q 2250 2553 1709 2553 
Q 1456 2553 1204 2497 
Q 953 2441 691 2322 
L 691 4666 
z
" transform="scale(0.015625)"/>
       </defs>
       <use xlink:href="#DejaVuSans-39"/>
       <use xlink:href="#DejaVuSans-39" transform="translate(63.623047 0)"/>
       <use xlink:href="#DejaVuSans-35" transform="translate(127.246094 0)"/>
      </g>
     </g>
    </g>
    <g id="ytick_7">
     <g id="line2d_40">
      <g>
       <use xlink:href="#md606935d17" x="53.328125" y="173.546802" style="stroke: #000000; stroke-width: 0.8"/>
      </g>
     </g>
     <g id="text_8">
      <!-- 1000 -->
      <g transform="translate(20.878125 177.346021) scale(0.1 -0.1)">
       <use xlink:href="#DejaVuSans-31"/>
       <use xlink:href="#DejaVuSans-30" transform="translate(63.623047 0)"/>
       <use xlink:href="#DejaVuSans-30" transform="translate(127.246094 0)"/>
       <use xlink:href="#DejaVuSans-30" transform="translate(190.869141 0)"/>
      </g>
     </g>
    </g>
    <g id="ytick_8">
     <g id="line2d_41">
      <g>
       <use xlink:href="#md606935d17" x="53.328125" y="152.208453" style="stroke: #000000; stroke-width: 0.8"/>
      </g>
     </g>
     <g id="text_9">
      <!-- 1005 -->
      <g transform="translate(20.878125 156.007672) scale(0.1 -0.1)">
       <use xlink:href="#DejaVuSans-31"/>
       <use xlink:href="#DejaVuSans-30" transform="translate(63.623047 0)"/>
       <use xlink:href="#DejaVuSans-30" transform="translate(127.246094 0)"/>
       <use xlink:href="#DejaVuSans-35" transform="translate(190.869141 0)"/>
      </g>
     </g>
    </g>
    <g id="ytick_9">
     <g id="line2d_42">
      <g>
       <use xlink:href="#md606935d17" x="53.328125" y="130.870104" style="stroke: #000000; stroke-width: 0.8"/>
      </g>
     </g>
     <g id="text_10">
      <!-- 1010 -->
      <g transform="translate(20.878125 134.669323) scale(0.1 -0.1)">
       <use xlink:href="#DejaVuSans-31"/>
       <use xlink:href="#DejaVuSans-30" transform="translate(63.623047 0)"/>
       <use xlink:href="#DejaVuSans-31" transform="translate(127.246094 0)"/>
       <use xlink:href="#DejaVuSans-30" transform="translate(190.869141 0)"/>
      </g>
     </g>
    </g>
    <g id="text_11">
     <!-- Equity -->
     <g transform="translate(14.798438 184.853244) rotate(-90) scale(0.1 -0.1)">
      <defs>
       <path id="DejaVuSans-45" d="M 628 4666 
L 3578 4666 
L 3578 4134 
L 1259 4134 
L 1259 2753 
L 3481 2753 
L 3481 2222 
L 1259 2222 
L 1259 531 
L 3634 531 
L 3634 0 
L 628 0 
L 628 4666 
z
" transform="scale(0.015625)"/>
       <path id="DejaVuSans-71" d="M 947 1747 
Q 947 1113 1208 752 
Q 1469 391 1925 391 
Q 2381 391 2643 752 
Q 2906 1113 2906 1747 
Q 2906 2381 2643 2742 
Q 2381 3103 1925 3103 
Q 1469 3103 1208 2742 
Q 947 2381 947 1747 
z
M 2906 525 
Q 2725 213 2448 61 
Q 2172 -91 1784 -91 
Q 1150 -91 751 415 
Q 353 922 353 1747 
Q 353 2572 751 3078 
Q 1150 3584 1784 3584 
Q 2172 3584 2448 3432 
Q 2725 3281 2906 2969 
L 2906 3500 
L 3481 3500 
L 3481 -1331 
L 2906 -1331 
L 2906 525 
z
" transform="scale(0.015625)"/>
       <path id="DejaVuSans-75" d="M 544 1381 
L 544 3500 
L 1119 3500 
L 1119 1403 
Q 1119 906 1312 657 
Q 1506 409 1894 409 
Q 2359 409 2629 706 
Q 2900 1003 2900 1516 
L 2900 3500 
L 3475 3500 
L 3475 0 
L 2900 0 
L 2900 538 
Q 2691 219 2414 64 
Q 2138 -91 1772 -91 
Q 1169 -91 856 284 
Q 544 659 544 1381 
z
M 1991 3584 
L 1991 3584 
z
" transform="scale(0.015625)"/>
       <path id="DejaVuSans-74" d="M 1172 4494 
L 1172 3500 
L 2356 3500 
L 2356 3053 
L 1172 3053 
L 1172 1153 
Q 1172 725 1289 603 
Q 1406 481 1766 481 
L 2356 481 
L 2356 0 
L 1766 0 
Q 1100 0 847 248 
Q 594 497 594 1153 
L 594 3053 
L 172 3053 
L 172 3500 
L 594 3500 
L 594 4494 
L 1172 4494 
z
" transform="scale(0.015625)"/>
       <path id="DejaVuSans-79" d="M 2059 -325 
Q 1816 -950 1584 -1140 
Q 1353 -1331 966 -1331 
L 506 -1331 
L 506 -850 
L 844 -850 
Q 1081 -850 1212 -737 
Q 1344 -625 1503 -206 
L 1606 56 
L 191 3500 
L 800 3500 
L 1894 763 
L 2988 3500 
L 3597 3500 
L 2059 -325 
z
" transform="scale(0.015625)"/>
      </defs>
      <use xlink:href="#DejaVuSans-45"/>
      <use xlink:href="#DejaVuSans-71" transform="translate(63.183594 0)"/>
      <use xlink:href="#DejaVuSans-75" transform="translate(126.660156 0)"/>
      <use xlink:href="#DejaVuSans-69" transform="translate(190.039062 0)"/>
      <use xlink:href="#DejaVuSans-74" transform="translate(217.822266 0)"/>
      <use xlink:href="#DejaVuSans-79" transform="translate(257.03125 0)"/>
     </g>
    </g>
   </g>
   <g id="line2d_43">
    <path d="M 58.429344 173.546802 
L 59.565514 172.95171 
L 59.954799 178.06011 
L 60.004591 177.366827 
L 60.570412 182.402251 
L 61.652263 179.008813 
L 62.806538 186.197063 
L 63.195823 189.408058 
L 63.888389 183.022557 
L 64.811809 190.466226 
L 65.522481 183.898283 
L 66.296525 187.839049 
L 67.577544 179.775074 
L 67.876298 183.168511 
L 69.166371 178.972325 
L 69.19353 179.811562 
L 69.872516 176.235682 
L 70.768777 177.841179 
L 72.221806 181.161639 
L 73.308183 189.845921 
L 73.31271 170.908349 
L 73.77442 181.125151 
L 75.304401 182.750987 
L 75.313454 183.041872 
L 76.277614 176.424252 
L 77.56316 179.470244 
L 78.32815 176.882586 
L 79.328523 174.987399 
L 79.858131 179.616028 
L 80.442059 181.985012 
L 80.568803 173.165104 
L 81.446958 173.894022 
L 89.119496 173.894022 
L 90.373356 168.937884 
L 91.699641 173.685522 
L 91.75396 172.21915 
L 95.252999 172.21915 
L 96.289584 174.591176 
L 96.583811 171.471509 
L 97.643029 165.12207 
L 98.312961 182.482097 
L 98.580029 177.85765 
L 99.31786 185.525127 
L 100.014952 177.862526 
L 102.930064 177.899014 
L 104.455518 183.968692 
L 104.699953 183.786249 
L 105.197876 177.10884 
L 107.34347 174.956014 
L 107.366103 192.944882 
L 107.533586 179.626551 
L 108.556592 181.06303 
L 110.294795 177.738686 
L 110.575442 183.364499 
L 110.602602 181.391811 
L 111.729718 176.861935 
L 113.028844 176.313967 
L 113.938684 180.551592 
L 114.662936 174.596998 
L 115.373607 176.204373 
L 115.58183 179.747904 
L 116.740632 178.432779 
L 125.943151 178.432779 
L 126.640243 177.505864 
L 127.233223 181.74844 
L 127.681354 180.943814 
L 127.993687 185.588703 
L 129.15249 185.113242 
L 129.949166 182.041032 
L 130.985751 182.479919 
L 132.072128 186.941938 
L 132.560998 185.84472 
L 133.108713 191.989141 
L 134.860496 186.905364 
L 135.068718 195.171072 
L 135.254307 193.013211 
L 136.404056 211.435025 
L 136.68923 206.140212 
L 137.793714 214.229168 
L 138.237318 209.438623 
L 139.694873 196.374477 
L 139.789931 196.518895 
L 140.020787 199.37115 
L 141.292753 197.782552 
L 176.581901 197.782552 
L 177.478162 198.532895 
L 177.523427 196.902432 
L 178.120935 197.083594 
L 184.258965 197.083594 
L 185.680308 199.643153 
L 186.24613 196.603207 
L 187.101652 208.183956 
L 188.636159 206.657434 
L 188.803642 209.28683 
L 188.862488 209.106735 
L 189.595792 203.235616 
L 190.396995 207.846065 
L 191.125773 214.257471 
L 192.357001 215.193968 
L 192.37058 198.51711 
L 194.851141 212.912486 
L 194.964305 211.548624 
L 195.846987 212.90449 
L 196.530499 209.710182 
L 197.28191 208.059191 
L 197.938263 212.366123 
L 198.712306 213.945332 
L 199.282654 205.690378 
L 199.608567 209.279488 
L 201.106862 201.121877 
L 201.296978 204.075446 
L 202.568945 195.538912 
L 202.686636 196.403371 
L 203.43352 188.154989 
L 204.334307 190.521517 
L 205.475003 198.111333 
L 206.280733 198.979889 
L 207.231313 190.511467 
L 207.321844 193.442844 
L 208.01441 189.75148 
L 209.340695 206.217857 
L 209.345222 189.281012 
L 210.345594 197.959547 
L 214.94459 197.959547 
L 215.981175 200.011992 
L 216.447411 188.684573 
L 217.008706 193.491749 
L 217.493049 187.723993 
L 218.434576 196.865342 
L 218.937025 189.610303 
L 220.240678 187.723993 
L 220.322156 199.477156 
L 221.684654 186.15849 
L 221.956248 191.375972 
L 222.671447 187.861418 
L 223.92078 181.085938 
L 224.509234 184.890352 
L 225.305911 178.042406 
L 226.347022 170.904601 
L 226.360602 185.687467 
L 228.021853 183.424454 
L 228.696313 180.33018 
L 229.180656 178.801245 
L 229.538255 182.295954 
L 230.656318 181.385874 
L 231.611424 179.238084 
L 232.005236 181.094648 
L 232.734014 176.617052 
L 234.82529 177.553147 
L 234.893188 175.22061 
L 235.228155 176.241095 
L 235.377531 171.57602 
L 236.898459 176.241095 
L 237.170053 167.7492 
L 237.96673 169.35282 
L 241.031219 169.35282 
L 242.366557 168.979652 
L 242.54762 170.543155 
L 243.353349 173.888325 
L 243.357876 164.107338 
L 244.10476 170.351939 
L 245.598529 166.243197 
L 246.19151 168.097585 
L 246.94292 164.207006 
L 247.178302 165.625068 
L 248.522694 163.15255 
L 249.586438 167.624898 
L 249.799187 163.588877 
L 250.464593 172.642653 
L 251.917622 160.207346 
L 253.316332 168.315748 
L 254.366497 156.534931 
L 254.846313 159.480135 
L 296.278018 159.480135 
L 297.649569 161.185086 
L 298.247076 159.616077 
L 299.251975 163.082492 
L 299.609574 163.593332 
L 300.867961 160.272872 
L 301.125975 156.660502 
L 301.886439 166.621884 
L 302.65143 161.513483 
L 303.941502 173.481736 
L 304.217623 169.577459 
L 305.421691 176.400822 
L 305.715918 177.094105 
L 306.612179 169.249061 
L 307.037677 170.781582 
L 307.861513 177.604945 
L 308.581238 171.83975 
L 309.147059 177.167082 
L 311.365079 171.07349 
L 311.405818 187.639304 
L 312.745683 174.862301 
L 313.030857 176.565229 
L 313.193814 176.347834 
L 314.13534 173.413 
L 314.723795 175.333324 
L 316.140611 183.847965 
L 317.6208 179.246435 
L 317.752071 182.76099 
L 317.856182 181.094294 
L 319.082882 189.39154 
L 319.37711 190.043725 
L 319.639651 185.333498 
L 320.830139 187.362519 
L 330.032658 187.362519 
L 330.566793 186.391152 
L 330.707117 188.324663 
L 332.119407 188.106099 
L 332.381948 185.883497 
L 333.364214 185.775951 
L 334.251422 188.858916 
L 334.726712 188.070251 
L 335.736137 181.330746 
L 336.333645 181.725079 
L 336.808934 185.775951 
L 338.252911 179.64587 
L 338.850418 183.911833 
L 339.348341 179.610022 
L 340.235549 186.349526 
L 340.778737 184.700498 
L 342.308718 184.700498 
L 343.358883 193.244043 
L 343.662163 176.971845 
L 343.847752 177.472528 
L 362.257317 177.472528 
L 362.488172 174.175624 
L 362.709974 179.185003 
L 366.498714 178.996318 
L 366.838207 181.924239 
L 367.182226 181.490473 
L 367.195806 184.020774 
L 369.753318 183.352757 
L 369.929855 181.220074 
L 370.079231 182.955138 
L 370.187869 178.617479 
L 372.152401 179.007511 
L 372.98529 168.500081 
L 373.125614 168.500081 
L 373.917764 174.303799 
L 374.537904 171.976724 
L 437.448188 171.976724 
L 437.760521 166.975129 
L 439.159231 176.371354 
L 440.109811 168.635862 
L 441.304826 166.647768 
L 441.77559 173.551876 
L 442.056237 171.383046 
L 442.341411 166.575473 
L 443.590744 166.973092 
L 452.793263 166.973092 
L 454.060703 168.08888 
L 454.219133 164.827953 
L 454.979597 167.001904 
L 455.771747 157.29159 
L 455.961863 159.936563 
L 457.392259 151.24076 
L 458.265888 153.704571 
L 458.92224 145.516022 
L 459.415637 147.862625 
L 459.460902 143.771125 
L 460.470328 146.072594 
L 465.07385 146.072594 
L 466.603831 146.904391 
L 466.793947 145.697451 
L 467.264711 148.842809 
L 468.188131 147.599295 
L 469.333354 150.561784 
L 469.817697 150.232618 
L 470.940287 145.112268 
L 471.229987 148.659939 
L 472.212253 142.259502 
L 472.796181 144.088198 
L 474.145099 150.488636 
L 474.280896 148.806235 
L 475.666027 126.532712 
L 475.960254 134.542402 
L 477.282012 122.978569 
L 477.544554 123.605404 
L 478.001737 128.951941 
L 478.884419 125.190929 
L 480.418926 125.190929 
L 481.622994 131.808794 
L 481.953434 131.660621 
L 485.017922 131.660621 
L 486.430212 130.985029 
L 486.584116 133.676734 
L 486.715386 131.501246 
L 488.091464 132.718044 
L 491.160479 132.718044 
L 492.409813 139.09215 
L 492.694987 134.80997 
L 551.001748 134.80997 
L 551.911589 135.166974 
L 552.156024 130.322315 
L 552.984386 128.766554 
L 554.03455 134.094526 
L 554.677324 131.338679 
L 555.573585 136.776885 
L 555.872338 135.71129 
L 556.836498 141.994623 
L 557.185044 138.650861 
L 557.723706 146.624447 
L 558.715025 142.472303 
L 559.56602 137.915968 
L 561.064315 130.64053 
L 561.630137 142.141602 
L 561.77046 137.548522 
L 562.060161 143.501153 
L 563.282335 141.296475 
L 566.346824 141.296475 
L 566.455461 141.726219 
L 566.459988 122.890645 
L 567.885858 137.629939 
L 568.551264 137.629939 
L 568.551264 137.629939 
" clip-path="url(#p4460d24e7c)" style="fill: none; stroke: #2e8b57; stroke-width: 1.5; stroke-linecap: square"/>
   </g>
   <g id="patch_8">
    <path d="M 53.328125 219.809134 
L 53.328125 118.275479 
" style="fill: none; stroke: #000000; stroke-width: 0.8; stroke-linejoin: miter; stroke-linecap: square"/>
   </g>
   <g id="patch_9">
    <path d="M 573.652483 219.809134 
L 573.652483 118.275479 
" style="fill: none; stroke: #000000; stroke-width: 0.8; stroke-linejoin: miter; stroke-linecap: square"/>
   </g>
   <g id="patch_10">
    <path d="M 53.328125 219.809134 
L 573.652483 219.809134 
" style="fill: none; stroke: #000000; stroke-width: 0.8; stroke-linejoin: miter; stroke-linecap: square"/>
   </g>
   <g id="patch_11">
    <path d="M 53.328125 118.275479 
L 573.652483 118.275479 
" style="fill: none; stroke: #000000; stroke-width: 0.8; stroke-linejoin: miter; stroke-linecap: square"/>
   </g>
  </g>
  <g id="axes_3">
   <g id="patch_12">
    <path d="M 53.328125 330.84327 
L 573.652483 330.84327 
L 573.652483 229.309614 
L 53.328125 229.309614 
z
" style="fill: #ffffff"/>
   </g>
   <g id="matplotlib.axis_5">
    <g id="xtick_33">
     <g id="line2d_44">
      <g>
       <use xlink:href="#mca518286a4" x="58.429344" y="330.84327" style="stroke: #000000; stroke-width: 0.8"/>
      </g>
     </g>
     <g id="text_12">
      <!-- Sep -->
      <g transform="translate(49.004344 345.441708) scale(0.1 -0.1)">
       <defs>
        <path id="DejaVuSans-53" d="M 3425 4513 
L 3425 3897 
Q 3066 4069 2747 4153 
Q 2428 4238 2131 4238 
Q 1616 4238 1336 4038 
Q 1056 3838 1056 3469 
Q 1056 3159 1242 3001 
Q 1428 2844 1947 2747 
L 2328 2669 
Q 3034 2534 3370 2195 
Q 3706 1856 3706 1288 
Q 3706 609 3251 259 
Q 2797 -91 1919 -91 
Q 1588 -91 1214 -16 
Q 841 59 441 206 
L 441 856 
Q 825 641 1194 531 
Q 1563 422 1919 422 
Q 2459 422 2753 634 
Q 3047 847 3047 1241 
Q 3047 1584 2836 1778 
Q 2625 1972 2144 2069 
L 1759 2144 
Q 1053 2284 737 2584 
Q 422 2884 422 3419 
Q 422 4038 858 4394 
Q 1294 4750 2059 4750 
Q 2388 4750 2728 4690 
Q 3069 4631 3425 4513 
z
" transform="scale(0.015625)"/>
        <path id="DejaVuSans-70" d="M 1159 525 
L 1159 -1331 
L 581 -1331 
L 581 3500 
L 1159 3500 
L 1159 2969 
Q 1341 3281 1617 3432 
Q 1894 3584 2278 3584 
Q 2916 3584 3314 3078 
Q 3713 2572 3713 1747 
Q 3713 922 3314 415 
Q 2916 -91 2278 -91 
Q 1894 -91 1617 61 
Q 1341 213 1159 525 
z
M 3116 1747 
Q 3116 2381 2855 2742 
Q 2594 3103 2138 3103 
Q 1681 3103 1420 2742 
Q 1159 2381 1159 1747 
Q 1159 1113 1420 752 
Q 1681 391 2138 391 
Q 2594 391 2855 752 
Q 3116 1113 3116 1747 
z
" transform="scale(0.015625)"/>
       </defs>
       <use xlink:href="#DejaVuSans-53"/>
       <use xlink:href="#DejaVuSans-65" transform="translate(63.476562 0)"/>
       <use xlink:href="#DejaVuSans-70" transform="translate(125 0)"/>
      </g>
     </g>
    </g>
    <g id="xtick_34">
     <g id="line2d_45">
      <g>
       <use xlink:href="#mca518286a4" x="92.437669" y="330.84327" style="stroke: #000000; stroke-width: 0.8"/>
      </g>
     </g>
     <g id="text_13">
      <!-- 03 -->
      <g transform="translate(86.075169 345.441708) scale(0.1 -0.1)">
       <defs>
        <path id="DejaVuSans-33" d="M 2597 2516 
Q 3050 2419 3304 2112 
Q 3559 1806 3559 1356 
Q 3559 666 3084 287 
Q 2609 -91 1734 -91 
Q 1441 -91 1130 -33 
Q 819 25 488 141 
L 488 750 
Q 750 597 1062 519 
Q 1375 441 1716 441 
Q 2309 441 2620 675 
Q 2931 909 2931 1356 
Q 2931 1769 2642 2001 
Q 2353 2234 1838 2234 
L 1294 2234 
L 1294 2753 
L 1863 2753 
Q 2328 2753 2575 2939 
Q 2822 3125 2822 3475 
Q 2822 3834 2567 4026 
Q 2313 4219 1838 4219 
Q 1578 4219 1281 4162 
Q 984 4106 628 3988 
L 628 4550 
Q 988 4650 1302 4700 
Q 1616 4750 1894 4750 
Q 2613 4750 3031 4423 
Q 3450 4097 3450 3541 
Q 3450 3153 3228 2886 
Q 3006 2619 2597 2516 
z
" transform="scale(0.015625)"/>
       </defs>
       <use xlink:href="#DejaVuSans-30"/>
       <use xlink:href="#DejaVuSans-33" transform="translate(63.623047 0)"/>
      </g>
     </g>
    </g>
    <g id="xtick_35">
     <g id="line2d_46">
      <g>
       <use xlink:href="#mca518286a4" x="126.445994" y="330.84327" style="stroke: #000000; stroke-width: 0.8"/>
      </g>
     </g>
     <g id="text_14">
      <!-- 05 -->
      <g transform="translate(120.083494 345.441708) scale(0.1 -0.1)">
       <use xlink:href="#DejaVuSans-30"/>
       <use xlink:href="#DejaVuSans-35" transform="translate(63.623047 0)"/>
      </g>
     </g>
    </g>
    <g id="xtick_36">
     <g id="line2d_47">
      <g>
       <use xlink:href="#mca518286a4" x="160.454319" y="330.84327" style="stroke: #000000; stroke-width: 0.8"/>
      </g>
     </g>
     <g id="text_15">
      <!-- 07 -->
      <g transform="translate(154.091819 345.441708) scale(0.1 -0.1)">
       <use xlink:href="#DejaVuSans-30"/>
       <use xlink:href="#DejaVuSans-37" transform="translate(63.623047 0)"/>
      </g>
     </g>
    </g>
    <g id="xtick_37">
     <g id="line2d_48">
      <g>
       <use xlink:href="#mca518286a4" x="194.462643" y="330.84327" style="stroke: #000000; stroke-width: 0.8"/>
      </g>
     </g>
     <g id="text_16">
      <!-- 09 -->
      <g transform="translate(188.100143 345.441708) scale(0.1 -0.1)">
       <use xlink:href="#DejaVuSans-30"/>
       <use xlink:href="#DejaVuSans-39" transform="translate(63.623047 0)"/>
      </g>
     </g>
    </g>
    <g id="xtick_38">
     <g id="line2d_49">
      <g>
       <use xlink:href="#mca518286a4" x="228.470968" y="330.84327" style="stroke: #000000; stroke-width: 0.8"/>
      </g>
     </g>
     <g id="text_17">
      <!-- 11 -->
      <g transform="translate(222.108468 345.441708) scale(0.1 -0.1)">
       <use xlink:href="#DejaVuSans-31"/>
       <use xlink:href="#DejaVuSans-31" transform="translate(63.623047 0)"/>
      </g>
     </g>
    </g>
    <g id="xtick_39">
     <g id="line2d_50">
      <g>
       <use xlink:href="#mca518286a4" x="262.479293" y="330.84327" style="stroke: #000000; stroke-width: 0.8"/>
      </g>
     </g>
     <g id="text_18">
      <!-- 13 -->
      <g transform="translate(256.116793 345.441708) scale(0.1 -0.1)">
       <use xlink:href="#DejaVuSans-31"/>
       <use xlink:href="#DejaVuSans-33" transform="translate(63.623047 0)"/>
      </g>
     </g>
    </g>
    <g id="xtick_40">
     <g id="line2d_51">
      <g>
       <use xlink:href="#mca518286a4" x="296.487618" y="330.84327" style="stroke: #000000; stroke-width: 0.8"/>
      </g>
     </g>
     <g id="text_19">
      <!-- 15 -->
      <g transform="translate(290.125118 345.441708) scale(0.1 -0.1)">
       <use xlink:href="#DejaVuSans-31"/>
       <use xlink:href="#DejaVuSans-35" transform="translate(63.623047 0)"/>
      </g>
     </g>
    </g>
    <g id="xtick_41">
     <g id="line2d_52">
      <g>
       <use xlink:href="#mca518286a4" x="330.495942" y="330.84327" style="stroke: #000000; stroke-width: 0.8"/>
      </g>
     </g>
     <g id="text_20">
      <!-- 17 -->
      <g transform="translate(324.133442 345.441708) scale(0.1 -0.1)">
       <use xlink:href="#DejaVuSans-31"/>
       <use xlink:href="#DejaVuSans-37" transform="translate(63.623047 0)"/>
      </g>
     </g>
    </g>
    <g id="xtick_42">
     <g id="line2d_53">
      <g>
       <use xlink:href="#mca518286a4" x="364.504267" y="330.84327" style="stroke: #000000; stroke-width: 0.8"/>
      </g>
     </g>
     <g id="text_21">
      <!-- 19 -->
      <g transform="translate(358.141767 345.441708) scale(0.1 -0.1)">
       <use xlink:href="#DejaVuSans-31"/>
       <use xlink:href="#DejaVuSans-39" transform="translate(63.623047 0)"/>
      </g>
     </g>
    </g>
    <g id="xtick_43">
     <g id="line2d_54">
      <g>
       <use xlink:href="#mca518286a4" x="398.512592" y="330.84327" style="stroke: #000000; stroke-width: 0.8"/>
      </g>
     </g>
     <g id="text_22">
      <!-- 21 -->
      <g transform="translate(392.150092 345.441708) scale(0.1 -0.1)">
       <defs>
        <path id="DejaVuSans-32" d="M 1228 531 
L 3431 531 
L 3431 0 
L 469 0 
L 469 531 
Q 828 903 1448 1529 
Q 2069 2156 2228 2338 
Q 2531 2678 2651 2914 
Q 2772 3150 2772 3378 
Q 2772 3750 2511 3984 
Q 2250 4219 1831 4219 
Q 1534 4219 1204 4116 
Q 875 4013 500 3803 
L 500 4441 
Q 881 4594 1212 4672 
Q 1544 4750 1819 4750 
Q 2544 4750 2975 4387 
Q 3406 4025 3406 3419 
Q 3406 3131 3298 2873 
Q 3191 2616 2906 2266 
Q 2828 2175 2409 1742 
Q 1991 1309 1228 531 
z
" transform="scale(0.015625)"/>
       </defs>
       <use xlink:href="#DejaVuSans-32"/>
       <use xlink:href="#DejaVuSans-31" transform="translate(63.623047 0)"/>
      </g>
     </g>
    </g>
    <g id="xtick_44">
     <g id="line2d_55">
      <g>
       <use xlink:href="#mca518286a4" x="432.520917" y="330.84327" style="stroke: #000000; stroke-width: 0.8"/>
      </g>
     </g>
     <g id="text_23">
      <!-- 23 -->
      <g transform="translate(426.158417 345.441708) scale(0.1 -0.1)">
       <use xlink:href="#DejaVuSans-32"/>
       <use xlink:href="#DejaVuSans-33" transform="translate(63.623047 0)"/>
      </g>
     </g>
    </g>
    <g id="xtick_45">
     <g id="line2d_56">
      <g>
       <use xlink:href="#mca518286a4" x="466.529241" y="330.84327" style="stroke: #000000; stroke-width: 0.8"/>
      </g>
     </g>
     <g id="text_24">
      <!-- 25 -->
      <g transform="translate(460.166741 345.441708) scale(0.1 -0.1)">
       <use xlink:href="#DejaVuSans-32"/>
       <use xlink:href="#DejaVuSans-35" transform="translate(63.623047 0)"/>
      </g>
     </g>
    </g>
    <g id="xtick_46">
     <g id="line2d_57">
      <g>
       <use xlink:href="#mca518286a4" x="500.537566" y="330.84327" style="stroke: #000000; stroke-width: 0.8"/>
      </g>
     </g>
     <g id="text_25">
      <!-- 27 -->
      <g transform="translate(494.175066 345.441708) scale(0.1 -0.1)">
       <use xlink:href="#DejaVuSans-32"/>
       <use xlink:href="#DejaVuSans-37" transform="translate(63.623047 0)"/>
      </g>
     </g>
    </g>
    <g id="xtick_47">
     <g id="line2d_58">
      <g>
       <use xlink:href="#mca518286a4" x="534.545891" y="330.84327" style="stroke: #000000; stroke-width: 0.8"/>
      </g>
     </g>
     <g id="text_26">
      <!-- 29 -->
      <g transform="translate(528.183391 345.441708) scale(0.1 -0.1)">
       <use xlink:href="#DejaVuSans-32"/>
       <use xlink:href="#DejaVuSans-39" transform="translate(63.623047 0)"/>
      </g>
     </g>
    </g>
    <g id="xtick_48">
     <g id="line2d_59">
      <g>
       <use xlink:href="#mca518286a4" x="568.554216" y="330.84327" style="stroke: #000000; stroke-width: 0.8"/>
      </g>
     </g>
     <g id="text_27">
      <!-- Oct -->
      <g transform="translate(559.908903 345.441708) scale(0.1 -0.1)">
       <defs>
        <path id="DejaVuSans-4f" d="M 2522 4238 
Q 1834 4238 1429 3725 
Q 1025 3213 1025 2328 
Q 1025 1447 1429 934 
Q 1834 422 2522 422 
Q 3209 422 3611 934 
Q 4013 1447 4013 2328 
Q 4013 3213 3611 3725 
Q 3209 4238 2522 4238 
z
M 2522 4750 
Q 3503 4750 4090 4092 
Q 4678 3434 4678 2328 
Q 4678 1225 4090 567 
Q 3503 -91 2522 -91 
Q 1538 -91 948 565 
Q 359 1222 359 2328 
Q 359 3434 948 4092 
Q 1538 4750 2522 4750 
z
" transform="scale(0.015625)"/>
       </defs>
       <use xlink:href="#DejaVuSans-4f"/>
       <use xlink:href="#DejaVuSans-63" transform="translate(78.710938 0)"/>
       <use xlink:href="#DejaVuSans-74" transform="translate(133.691406 0)"/>
      </g>
     </g>
    </g>
    <g id="text_28">
     <!-- Time -->
     <g transform="translate(301.25671 359.119833) scale(0.1 -0.1)">
      <defs>
       <path id="DejaVuSans-54" d="M -19 4666 
L 3928 4666 
L 3928 4134 
L 2272 4134 
L 2272 0 
L 1638 0 
L 1638 4134 
L -19 4134 
L -19 4666 
z
" transform="scale(0.015625)"/>
       <path id="DejaVuSans-6d" d="M 3328 2828 
Q 3544 3216 3844 3400 
Q 4144 3584 4550 3584 
Q 5097 3584 5394 3201 
Q 5691 2819 5691 2113 
L 5691 0 
L 5113 0 
L 5113 2094 
Q 5113 2597 4934 2840 
Q 4756 3084 4391 3084 
Q 3944 3084 3684 2787 
Q 3425 2491 3425 1978 
L 3425 0 
L 2847 0 
L 2847 2094 
Q 2847 2600 2669 2842 
Q 2491 3084 2119 3084 
Q 1678 3084 1418 2786 
Q 1159 2488 1159 1978 
L 1159 0 
L 581 0 
L 581 3500 
L 1159 3500 
L 1159 2956 
Q 1356 3278 1631 3431 
Q 1906 3584 2284 3584 
Q 2666 3584 2933 3390 
Q 3200 3197 3328 2828 
z
" transform="scale(0.015625)"/>
      </defs>
      <use xlink:href="#DejaVuSans-54"/>
      <use xlink:href="#DejaVuSans-69" transform="translate(57.958984 0)"/>
      <use xlink:href="#DejaVuSans-6d" transform="translate(85.742188 0)"/>
      <use xlink:href="#DejaVuSans-65" transform="translate(183.154297 0)"/>
     </g>
    </g>
    <g id="text_29">
     <!-- 2025-Oct -->
     <g transform="translate(527.029045 358.119833) scale(0.1 -0.1)">
      <defs>
       <path id="DejaVuSans-2d" d="M 313 2009 
L 1997 2009 
L 1997 1497 
L 313 1497 
L 313 2009 
z
" transform="scale(0.015625)"/>
      </defs>
      <use xlink:href="#DejaVuSans-32"/>
      <use xlink:href="#DejaVuSans-30" transform="translate(63.623047 0)"/>
      <use xlink:href="#DejaVuSans-32" transform="translate(127.246094 0)"/>
      <use xlink:href="#DejaVuSans-35" transform="translate(190.869141 0)"/>
      <use xlink:href="#DejaVuSans-2d" transform="translate(254.492188 0)"/>
      <use xlink:href="#DejaVuSans-4f" transform="translate(293.326172 0)"/>
      <use xlink:href="#DejaVuSans-63" transform="translate(372.037109 0)"/>
      <use xlink:href="#DejaVuSans-74" transform="translate(427.017578 0)"/>
     </g>
    </g>
   </g>
   <g id="matplotlib.axis_6">
    <g id="ytick_10">
     <g id="line2d_60">
      <g>
       <use xlink:href="#md606935d17" x="53.328125" y="312.750978" style="stroke: #000000; stroke-width: 0.8"/>
      </g>
     </g>
     <g id="text_30">
      <!-- 1.0 -->
      <g transform="translate(22.045313 316.550197) scale(0.1 -0.1)">
       <defs>
        <path id="DejaVuSans-2212" d="M 678 2272 
L 4684 2272 
L 4684 1741 
L 678 1741 
L 678 2272 
z
" transform="scale(0.015625)"/>
       </defs>
       <use xlink:href="#DejaVuSans-2212"/>
       <use xlink:href="#DejaVuSans-31" transform="translate(83.789062 0)"/>
       <use xlink:href="#DejaVuSans-2e" transform="translate(147.412109 0)"/>
       <use xlink:href="#DejaVuSans-30" transform="translate(179.199219 0)"/>
      </g>
     </g>
    </g>
    <g id="ytick_11">
     <g id="line2d_61">
      <g>
       <use xlink:href="#md606935d17" x="53.328125" y="273.337879" style="stroke: #000000; stroke-width: 0.8"/>
      </g>
     </g>
     <g id="text_31">
      <!-- 0.5 -->
      <g transform="translate(22.045313 277.137098) scale(0.1 -0.1)">
       <use xlink:href="#DejaVuSans-2212"/>
       <use xlink:href="#DejaVuSans-30" transform="translate(83.789062 0)"/>
       <use xlink:href="#DejaVuSans-2e" transform="translate(147.412109 0)"/>
       <use xlink:href="#DejaVuSans-35" transform="translate(179.199219 0)"/>
      </g>
     </g>
    </g>
    <g id="ytick_12">
     <g id="line2d_62">
      <g>
       <use xlink:href="#md606935d17" x="53.328125" y="233.924781" style="stroke: #000000; stroke-width: 0.8"/>
      </g>
     </g>
     <g id="text_32">
      <!-- 0.0 -->
      <g transform="translate(30.425 237.723999) scale(0.1 -0.1)">
       <use xlink:href="#DejaVuSans-30"/>
       <use xlink:href="#DejaVuSans-2e" transform="translate(63.623047 0)"/>
       <use xlink:href="#DejaVuSans-30" transform="translate(95.410156 0)"/>
      </g>
     </g>
    </g>
    <g id="text_33">
     <!-- Drawdown, % -->
     <g transform="translate(14.798438 314.555348) rotate(-90) scale(0.1 -0.1)">
      <defs>
       <path id="DejaVuSans-44" d="M 1259 4147 
L 1259 519 
L 2022 519 
Q 2988 519 3436 956 
Q 3884 1394 3884 2338 
Q 3884 3275 3436 3711 
Q 2988 4147 2022 4147 
L 1259 4147 
z
M 628 4666 
L 1925 4666 
Q 3281 4666 3915 4102 
Q 4550 3538 4550 2338 
Q 4550 1131 3912 565 
Q 3275 0 1925 0 
L 628 0 
L 628 4666 
z
" transform="scale(0.015625)"/>
       <path id="DejaVuSans-61" d="M 2194 1759 
Q 1497 1759 1228 1600 
Q 959 1441 959 1056 
Q 959 750 1161 570 
Q 1363 391 1709 391 
Q 2188 391 2477 730 
Q 2766 1069 2766 1631 
L 2766 1759 
L 2194 1759 
z
M 3341 1997 
L 3341 0 
L 2766 0 
L 2766 531 
Q 2569 213 2275 61 
Q 1981 -91 1556 -91 
Q 1019 -91 701 211 
Q 384 513 384 1019 
Q 384 1609 779 1909 
Q 1175 2209 1959 2209 
L 2766 2209 
L 2766 2266 
Q 2766 2663 2505 2880 
Q 2244 3097 1772 3097 
Q 1472 3097 1187 3025 
Q 903 2953 641 2809 
L 641 3341 
Q 956 3463 1253 3523 
Q 1550 3584 1831 3584 
Q 2591 3584 2966 3190 
Q 3341 2797 3341 1997 
z
" transform="scale(0.015625)"/>
       <path id="DejaVuSans-77" d="M 269 3500 
L 844 3500 
L 1563 769 
L 2278 3500 
L 2956 3500 
L 3675 769 
L 4391 3500 
L 4966 3500 
L 4050 0 
L 3372 0 
L 2619 2869 
L 1863 0 
L 1184 0 
L 269 3500 
z
" transform="scale(0.015625)"/>
       <path id="DejaVuSans-64" d="M 2906 2969 
L 2906 4863 
L 3481 4863 
L 3481 0 
L 2906 0 
L 2906 525 
Q 2725 213 2448 61 
Q 2172 -91 1784 -91 
Q 1150 -91 751 415 
Q 353 922 353 1747 
Q 353 2572 751 3078 
Q 1150 3584 1784 3584 
Q 2172 3584 2448 3432 
Q 2725 3281 2906 2969 
z
M 947 1747 
Q 947 1113 1208 752 
Q 1469 391 1925 391 
Q 2381 391 2643 752 
Q 2906 1113 2906 1747 
Q 2906 2381 2643 2742 
Q 2381 3103 1925 3103 
Q 1469 3103 1208 2742 
Q 947 2381 947 1747 
z
" transform="scale(0.015625)"/>
       <path id="DejaVuSans-6f" d="M 1959 3097 
Q 1497 3097 1228 2736 
Q 959 2375 959 1747 
Q 959 1119 1226 758 
Q 1494 397 1959 397 
Q 2419 397 2687 759 
Q 2956 1122 2956 1747 
Q 2956 2369 2687 2733 
Q 2419 3097 1959 3097 
z
M 1959 3584 
Q 2709 3584 3137 3096 
Q 3566 2609 3566 1747 
Q 3566 888 3137 398 
Q 2709 -91 1959 -91 
Q 1206 -91 779 398 
Q 353 888 353 1747 
Q 353 2609 779 3096 
Q 1206 3584 1959 3584 
z
" transform="scale(0.015625)"/>
       <path id="DejaVuSans-6e" d="M 3513 2113 
L 3513 0 
L 2938 0 
L 2938 2094 
Q 2938 2591 2744 2837 
Q 2550 3084 2163 3084 
Q 1697 3084 1428 2787 
Q 1159 2491 1159 1978 
L 1159 0 
L 581 0 
L 581 3500 
L 1159 3500 
L 1159 2956 
Q 1366 3272 1645 3428 
Q 1925 3584 2291 3584 
Q 2894 3584 3203 3211 
Q 3513 2838 3513 2113 
z
" transform="scale(0.015625)"/>
       <path id="DejaVuSans-2c" d="M 750 794 
L 1409 794 
L 1409 256 
L 897 -744 
L 494 -744 
L 750 256 
L 750 794 
z
" transform="scale(0.015625)"/>
       <path id="DejaVuSans-20" transform="scale(0.015625)"/>
       <path id="DejaVuSans-25" d="M 4653 2053 
Q 4381 2053 4226 1822 
Q 4072 1591 4072 1178 
Q 4072 772 4226 539 
Q 4381 306 4653 306 
Q 4919 306 5073 539 
Q 5228 772 5228 1178 
Q 5228 1588 5073 1820 
Q 4919 2053 4653 2053 
z
M 4653 2450 
Q 5147 2450 5437 2106 
Q 5728 1763 5728 1178 
Q 5728 594 5436 251 
Q 5144 -91 4653 -91 
Q 4153 -91 3862 251 
Q 3572 594 3572 1178 
Q 3572 1766 3864 2108 
Q 4156 2450 4653 2450 
z
M 1428 4353 
Q 1159 4353 1004 4120 
Q 850 3888 850 3481 
Q 850 3069 1003 2837 
Q 1156 2606 1428 2606 
Q 1700 2606 1854 2837 
Q 2009 3069 2009 3481 
Q 2009 3884 1853 4118 
Q 1697 4353 1428 4353 
z
M 4250 4750 
L 4750 4750 
L 1831 -91 
L 1331 -91 
L 4250 4750 
z
M 1428 4750 
Q 1922 4750 2215 4408 
Q 2509 4066 2509 3481 
Q 2509 2891 2217 2550 
Q 1925 2209 1428 2209 
Q 931 2209 642 2551 
Q 353 2894 353 3481 
Q 353 4063 643 4406 
Q 934 4750 1428 4750 
z
" transform="scale(0.015625)"/>
      </defs>
      <use xlink:href="#DejaVuSans-44"/>
      <use xlink:href="#DejaVuSans-72" transform="translate(77.001953 0)"/>
      <use xlink:href="#DejaVuSans-61" transform="translate(118.115234 0)"/>
      <use xlink:href="#DejaVuSans-77" transform="translate(179.394531 0)"/>
      <use xlink:href="#DejaVuSans-64" transform="translate(261.181641 0)"/>
      <use xlink:href="#DejaVuSans-6f" transform="translate(324.658203 0)"/>
      <use xlink:href="#DejaVuSans-77" transform="translate(385.839844 0)"/>
      <use xlink:href="#DejaVuSans-6e" transform="translate(467.626953 0)"/>
      <use xlink:href="#DejaVuSans-2c" transform="translate(531.005859 0)"/>
      <use xlink:href="#DejaVuSans-20" transform="translate(562.792969 0)"/>
      <use xlink:href="#DejaVuSans-25" transform="translate(594.580078 0)"/>
     </g>
    </g>
   </g>
   <g id="line2d_63">
    <path d="M 58.429344 233.924781 
L 59.954799 243.358961 
L 60.004591 242.078608 
L 60.570412 251.378014 
L 61.652263 245.111023 
L 62.806538 258.386262 
L 63.195823 264.316319 
L 63.888389 252.523593 
L 64.811809 266.270542 
L 65.522481 254.140881 
L 66.296525 261.418678 
L 67.577544 246.52615 
L 67.876298 252.793141 
L 69.166371 245.043636 
L 69.19353 246.593537 
L 69.872516 239.989611 
L 70.768777 242.954639 
L 72.221806 249.086856 
L 73.308183 265.124963 
L 73.31271 233.924781 
L 73.77442 252.784113 
L 75.304401 255.785266 
L 75.313454 256.322213 
L 76.277614 244.10666 
L 77.56316 249.729299 
L 78.32815 244.952704 
L 79.328523 241.454353 
L 79.858131 249.998402 
L 80.442059 254.371341 
L 80.568803 238.090554 
L 81.446958 239.436074 
L 89.114969 239.436074 
L 90.373356 233.924781 
L 90.427675 241.559051 
L 91.699641 242.684468 
L 91.75396 239.978922 
L 95.252999 239.978922 
L 96.289584 244.355456 
L 96.583811 238.599478 
L 97.620396 233.924781 
L 98.312961 265.926527 
L 98.580029 257.401749 
L 99.31786 271.536095 
L 100.014952 257.410736 
L 102.930064 257.478 
L 104.455518 268.666939 
L 104.699953 268.330621 
L 105.197876 256.021379 
L 107.34347 252.052826 
L 107.366103 285.213788 
L 107.533586 260.662569 
L 108.556592 263.310595 
L 110.294795 257.182447 
L 110.575442 267.553159 
L 110.602602 263.916676 
L 111.729718 255.566233 
L 113.028844 254.556098 
L 113.938684 262.367803 
L 114.662936 251.391011 
L 115.373607 254.354071 
L 115.58183 260.886273 
L 116.740632 258.461951 
L 125.943151 258.461951 
L 126.640243 256.753261 
L 127.233223 264.574092 
L 127.681354 263.090831 
L 127.993687 271.653293 
L 129.15249 270.77682 
L 129.949166 265.11346 
L 130.985751 265.922511 
L 132.072128 274.147868 
L 132.560998 272.125239 
L 133.108713 283.45196 
L 134.860496 274.080447 
L 135.068718 289.317583 
L 135.254307 285.339747 
L 136.404056 319.298809 
L 136.68923 309.538268 
L 137.793714 324.449576 
L 138.237318 315.618611 
L 139.694873 291.535959 
L 139.789931 291.802181 
L 140.020787 297.060072 
L 141.292753 294.131626 
L 176.581901 294.131626 
L 177.478162 295.51482 
L 177.523427 292.509199 
L 178.120935 292.843156 
L 184.258965 292.843156 
L 185.680308 297.561488 
L 186.24613 291.957602 
L 187.101652 313.305737 
L 188.636159 310.491722 
L 188.803642 315.338793 
L 188.862488 315.006802 
L 189.595792 304.18389 
L 190.396995 312.682864 
L 191.125773 324.50175 
L 192.357001 326.228104 
L 192.37058 295.485721 
L 194.851141 322.022384 
L 194.964305 319.50822 
L 195.846987 322.007643 
L 196.530499 316.119205 
L 197.28191 313.075743 
L 197.938263 321.01521 
L 198.712306 323.926348 
L 199.282654 308.709037 
L 199.608567 315.325259 
L 201.106862 300.28739 
L 201.296978 305.732045 
L 202.568945 289.995664 
L 202.686636 291.589221 
L 203.43352 276.384025 
L 204.334307 280.746519 
L 205.475003 294.737706 
L 206.280733 296.338816 
L 207.231313 280.727993 
L 207.321844 286.13174 
L 208.01441 279.327022 
L 209.340695 309.6814 
L 209.345222 278.459754 
L 210.345594 294.457901 
L 214.94459 294.457901 
L 215.981175 298.241411 
L 216.447411 277.360267 
L 217.008706 286.221892 
L 217.493049 275.589521 
L 218.434576 292.440827 
L 218.937025 279.066774 
L 220.240678 275.589521 
L 220.322156 297.255485 
L 221.684654 272.703647 
L 221.956248 282.321636 
L 222.671447 275.842852 
L 223.92078 263.352825 
L 224.509234 270.365942 
L 225.305911 257.742331 
L 226.347022 244.584388 
L 226.360602 271.835357 
L 228.021853 267.663683 
L 228.696313 261.959649 
L 229.180656 259.141186 
L 229.538255 265.583388 
L 230.656318 263.905731 
L 231.611424 259.946461 
L 232.005236 263.368881 
L 232.734014 255.11481 
L 234.82529 256.840423 
L 234.893188 252.540587 
L 235.228155 254.421765 
L 235.377531 245.822093 
L 236.898459 254.421765 
L 237.170053 238.767673 
L 237.96673 241.723811 
L 241.031219 241.723811 
L 242.366557 241.035907 
L 242.54762 243.918094 
L 243.357876 233.924781 
L 243.371456 251.079776 
L 244.10476 245.433444 
L 245.598529 237.861121 
L 246.19151 241.278718 
L 246.94292 234.108466 
L 247.703384 233.924781 
L 248.631331 236.872637 
L 249.586438 242.16538 
L 249.799187 234.728741 
L 250.464593 251.410931 
L 251.673187 233.924781 
L 251.899516 233.924781 
L 253.316332 248.854776 
L 254.312178 233.924781 
L 254.846313 239.343135 
L 296.278018 239.343135 
L 297.649569 242.479769 
L 298.247076 239.59323 
L 299.251975 245.970467 
L 299.609574 246.910271 
L 300.867961 240.801549 
L 301.125975 234.155797 
L 301.886439 252.481962 
L 302.65143 243.083928 
L 303.941502 265.102178 
L 304.217623 257.919395 
L 305.421691 270.472482 
L 305.715918 271.74793 
L 306.612179 257.315236 
L 307.037677 260.134646 
L 307.861513 272.687733 
L 308.581238 262.081381 
L 309.147059 271.882187 
L 311.365079 260.671676 
L 311.405818 291.148156 
L 312.745683 267.642032 
L 313.030857 270.774945 
L 313.193814 270.374999 
L 314.13534 264.975723 
L 314.723795 268.508583 
L 316.140611 284.173149 
L 317.6208 275.707617 
L 317.752071 282.173417 
L 317.856182 279.107162 
L 319.082882 294.371782 
L 319.37711 295.571621 
L 319.639651 286.906116 
L 320.830139 290.638949 
L 330.032658 290.638949 
L 330.566793 288.851904 
L 330.707117 292.409024 
L 332.119407 292.006928 
L 332.381948 287.91796 
L 333.364214 287.720106 
L 334.251422 293.391902 
L 334.726712 291.940977 
L 335.736137 279.542169 
L 336.333645 280.267631 
L 336.808934 287.720106 
L 338.252911 276.442466 
L 338.850418 284.290648 
L 339.348341 276.376515 
L 340.235549 288.775324 
L 340.778737 285.741573 
L 342.308718 285.741573 
L 343.358883 301.459312 
L 343.662163 271.523004 
L 343.847752 272.444121 
L 362.257317 272.444121 
L 362.488172 266.378739 
L 362.709974 275.594599 
L 365.326332 275.528098 
L 366.498714 275.247472 
L 366.838207 280.634029 
L 367.182226 279.83602 
L 367.195806 284.49107 
L 369.753318 283.262104 
L 369.929855 279.338563 
L 370.079231 282.530596 
L 370.187869 274.550512 
L 372.152401 275.268062 
L 372.98529 255.937321 
L 373.125614 255.937321 
L 373.917764 266.614545 
L 374.537904 262.333376 
L 437.448188 262.333376 
L 437.760521 253.131835 
L 439.159231 270.41827 
L 440.109811 256.187119 
L 441.304826 252.529581 
L 441.77559 265.231215 
L 442.056237 261.241173 
L 442.341411 252.396579 
L 443.590744 253.128087 
L 452.793263 253.128087 
L 454.060703 255.180825 
L 454.219133 249.181629 
L 454.979597 253.181093 
L 455.771747 235.316822 
L 455.961863 240.182836 
L 456.382834 233.924781 
L 457.410366 233.924781 
L 458.265888 240.580529 
L 459.039931 233.924781 
L 459.415637 241.020732 
L 460.470328 238.146266 
L 465.07385 238.146266 
L 466.603831 239.671996 
L 466.793947 237.458159 
L 467.264711 243.227554 
L 468.188131 240.94663 
L 469.333354 246.380595 
L 469.817697 245.776821 
L 470.940287 236.384783 
L 471.229987 242.892124 
L 472.062876 233.924781 
L 472.796181 237.277901 
L 474.145099 249.013821 
L 474.280896 245.92895 
L 475.385379 233.924781 
L 475.960254 248.557914 
L 477.051157 233.924781 
L 477.544554 235.069021 
L 478.001737 244.828723 
L 478.884419 237.963278 
L 480.418926 237.963278 
L 481.622994 250.043695 
L 481.953434 249.773215 
L 485.017922 249.773215 
L 486.430212 248.539973 
L 486.584116 253.453478 
L 486.715386 249.482289 
L 488.091464 251.703462 
L 491.160479 251.703462 
L 492.409813 263.338915 
L 492.694987 255.522117 
L 551.001748 255.522117 
L 551.911589 256.1738 
L 552.156024 247.330239 
L 552.984386 244.490313 
L 554.03455 254.216127 
L 554.677324 249.185534 
L 555.573585 259.112572 
L 555.872338 257.167409 
L 556.836498 268.637162 
L 557.185044 262.533375 
L 557.723706 277.088559 
L 558.715025 269.509131 
L 559.56602 261.191883 
L 561.064315 247.911117 
L 561.630137 268.90546 
L 561.77046 260.521138 
L 562.060161 271.38722 
L 563.282335 267.362745 
L 566.346824 267.362745 
L 566.455461 268.14721 
L 566.459988 233.924781 
L 567.885858 260.829709 
L 568.551264 260.829709 
L 568.551264 260.829709 
" clip-path="url(#p379b920f5c)" style="fill: none; stroke: #7a738c; stroke-width: 1.5; stroke-linecap: square"/>
   </g>
   <g id="patch_13">
    <path d="M 53.328125 330.84327 
L 53.328125 229.309614 
" style="fill: none; stroke: #000000; stroke-width: 0.8; stroke-linejoin: miter; stroke-linecap: square"/>
   </g>
   <g id="patch_14">
    <path d="M 573.652483 330.84327 
L 573.652483 229.309614 
" style="fill: none; stroke: #000000; stroke-width: 0.8; stroke-linejoin: miter; stroke-linecap: square"/>
   </g>
   <g id="patch_15">
    <path d="M 53.328125 330.84327 
L 573.652483 330.84327 
" style="fill: none; stroke: #000000; stroke-width: 0.8; stroke-linejoin: miter; stroke-linecap: square"/>
   </g>
   <g id="patch_16">
    <path d="M 53.328125 229.309614 
L 573.652483 229.309614 
" style="fill: none; stroke: #000000; stroke-width: 0.8; stroke-linejoin: miter; stroke-linecap: square"/>
   </g>
  </g>
 </g>
 <defs>
  <clipPath id="peab7aed5dd">
   <rect x="53.328125" y="7.2" width="520.324358" height="101.533656"/>
  </clipPath>
  <clipPath id="p4460d24e7c">
   <rect x="53.328125" y="118.275479" width="520.324358" height="101.533656"/>
  </clipPath>
  <clipPath id="p379b920f5c">
   <rect x="53.328125" y="229.309614" width="520.324358" height="101.533656"/>
  </clipPath>
 </defs>
</svg>
