<?xml version="1.0" encoding="utf-8" standalone="no"?>
<!DOCTYPE svg PUBLIC "-//W3C//DTD SVG 1.1//EN"
  "http://www.w3.org/Graphics/SVG/1.1/DTD/svg11.dtd">
<svg xmlns:xlink="http://www.w3.org/1999/xlink"   viewBox="0 0 584.399523 368.39952" xmlns="http://www.w3.org/2000/svg" version="1.1" preserveAspectRatio="xMidYMid meet" style="width:100%;height:auto;aspect-ratio:8 / 5;display:block;">
 <metadata>
  <rdf:RDF xmlns:dc="http://purl.org/dc/elements/1.1/" xmlns:cc="http://creativecommons.org/ns#" xmlns:rdf="http://www.w3.org/1999/02/22-rdf-syntax-ns#">
   <cc:Work>
    <dc:type rdf:resource="http://purl.org/dc/dcmitype/StillImage"/>
    <dc:date>2025-10-22T19:43:34.839425</dc:date>
    <dc:format>image/svg+xml</dc:format>
    <dc:creator>
     <cc:Agent>
      <dc:title>Matplotlib v3.10.6, https://matplotlib.org/</dc:title>
     </cc:Agent>
    </dc:creator>
   </cc:Work>
  </rdf:RDF>
 </metadata>
 <defs>
  <style type="text/css">*{stroke-linejoin: round; stroke-linecap: butt}</style>
 </defs>
 <g id="figure_1">
  <g id="patch_1">
   <path d="M 0 368.39952 
L 584.399523 368.39952 
L 584.399523 0 
L 0 0 
z
" style="fill: #ffffff"/>
  </g>
  <g id="axes_1">
   <g id="patch_2">
    <path d="M 53.328125 108.747437 
L 573.657048 108.747437 
L 573.657048 7.2 
L 53.328125 7.2 
z
" style="fill: #ffffff"/>
   </g>
   <g id="matplotlib.axis_1">
    <g id="xtick_1">
     <g id="line2d_1">
      <defs>
       <path id="m7f088d9443" d="M 0 0 
L 0 3.5 
" style="stroke: #000000; stroke-width: 0.8"/>
      </defs>
      <g>
       <use xlink:href="#m7f088d9443" x="58.429389" y="108.747437" style="stroke: #000000; stroke-width: 0.8"/>
      </g>
     </g>
    </g>
    <g id="xtick_2">
     <g id="line2d_2">
      <g>
       <use xlink:href="#m7f088d9443" x="92.43771" y="108.747437" style="stroke: #000000; stroke-width: 0.8"/>
      </g>
     </g>
    </g>
    <g id="xtick_3">
     <g id="line2d_3">
      <g>
       <use xlink:href="#m7f088d9443" x="126.446032" y="108.747437" style="stroke: #000000; stroke-width: 0.8"/>
      </g>
     </g>
    </g>
    <g id="xtick_4">
     <g id="line2d_4">
      <g>
       <use xlink:href="#m7f088d9443" x="160.454353" y="108.747437" style="stroke: #000000; stroke-width: 0.8"/>
      </g>
     </g>
    </g>
    <g id="xtick_5">
     <g id="line2d_5">
      <g>
       <use xlink:href="#m7f088d9443" x="194.462675" y="108.747437" style="stroke: #000000; stroke-width: 0.8"/>
      </g>
     </g>
    </g>
    <g id="xtick_6">
     <g id="line2d_6">
      <g>
       <use xlink:href="#m7f088d9443" x="228.470996" y="108.747437" style="stroke: #000000; stroke-width: 0.8"/>
      </g>
     </g>
    </g>
    <g id="xtick_7">
     <g id="line2d_7">
      <g>
       <use xlink:href="#m7f088d9443" x="262.479317" y="108.747437" style="stroke: #000000; stroke-width: 0.8"/>
      </g>
     </g>
    </g>
    <g id="xtick_8">
     <g id="line2d_8">
      <g>
       <use xlink:href="#m7f088d9443" x="296.487639" y="108.747437" style="stroke: #000000; stroke-width: 0.8"/>
      </g>
     </g>
    </g>
    <g id="xtick_9">
     <g id="line2d_9">
      <g>
       <use xlink:href="#m7f088d9443" x="330.49596" y="108.747437" style="stroke: #000000; stroke-width: 0.8"/>
      </g>
     </g>
    </g>
    <g id="xtick_10">
     <g id="line2d_10">
      <g>
       <use xlink:href="#m7f088d9443" x="364.504282" y="108.747437" style="stroke: #000000; stroke-width: 0.8"/>
      </g>
     </g>
    </g>
    <g id="xtick_11">
     <g id="line2d_11">
      <g>
       <use xlink:href="#m7f088d9443" x="398.512603" y="108.747437" style="stroke: #000000; stroke-width: 0.8"/>
      </g>
     </g>
    </g>
    <g id="xtick_12">
     <g id="line2d_12">
      <g>
       <use xlink:href="#m7f088d9443" x="432.520924" y="108.747437" style="stroke: #000000; stroke-width: 0.8"/>
      </g>
     </g>
    </g>
    <g id="xtick_13">
     <g id="line2d_13">
      <g>
       <use xlink:href="#m7f088d9443" x="466.529246" y="108.747437" style="stroke: #000000; stroke-width: 0.8"/>
      </g>
     </g>
    </g>
    <g id="xtick_14">
     <g id="line2d_14">
      <g>
       <use xlink:href="#m7f088d9443" x="500.537567" y="108.747437" style="stroke: #000000; stroke-width: 0.8"/>
      </g>
     </g>
    </g>
    <g id="xtick_15">
     <g id="line2d_15">
      <g>
       <use xlink:href="#m7f088d9443" x="534.545889" y="108.747437" style="stroke: #000000; stroke-width: 0.8"/>
      </g>
     </g>
    </g>
    <g id="xtick_16">
     <g id="line2d_16">
      <g>
       <use xlink:href="#m7f088d9443" x="568.55421" y="108.747437" style="stroke: #000000; stroke-width: 0.8"/>
      </g>
     </g>
    </g>
   </g>
   <g id="matplotlib.axis_2">
    <g id="ytick_1">
     <g id="line2d_17">
      <defs>
       <path id="m967a3a9129" d="M 0 0 
L -3.5 0 
" style="stroke: #000000; stroke-width: 0.8"/>
      </defs>
      <g>
       <use xlink:href="#m967a3a9129" x="53.328125" y="83.863432" style="stroke: #000000; stroke-width: 0.8"/>
      </g>
     </g>
     <g id="text_1">
      <!-- 0.58 -->
      <g transform="translate(24.0625 87.662651) scale(0.1 -0.1)">
       <defs>
        <path id="DejaVuSans-30" d="M 2034 4250 
Q 1547 4250 1301 3770 
Q 1056 3291 1056 2328 
Q 1056 1369 1301 889 
Q 1547 409 2034 409 
Q 2525 409 2770 889 
Q 3016 1369 3016 2328 
Q 3016 3291 2770 3770 
Q 2525 4250 2034 4250 
z
M 2034 4750 
Q 2819 4750 3233 4129 
Q 3647 3509 3647 2328 
Q 3647 1150 3233 529 
Q 2819 -91 2034 -91 
Q 1250 -91 836 529 
Q 422 1150 422 2328 
Q 422 3509 836 4129 
Q 1250 4750 2034 4750 
z
" transform="scale(0.015625)"/>
        <path id="DejaVuSans-2e" d="M 684 794 
L 1344 794 
L 1344 0 
L 684 0 
L 684 794 
z
" transform="scale(0.015625)"/>
        <path id="DejaVuSans-35" d="M 691 4666 
L 3169 4666 
L 3169 4134 
L 1269 4134 
L 1269 2991 
Q 1406 3038 1543 3061 
Q 1681 3084 1819 3084 
Q 2600 3084 3056 2656 
Q 3513 2228 3513 1497 
Q 3513 744 3044 326 
Q 2575 -91 1722 -91 
Q 1428 -91 1123 -41 
Q 819 9 494 109 
L 494 744 
Q 775 591 1075 516 
Q 1375 441 1709 441 
Q 2250 441 2565 725 
Q 2881 1009 2881 1497 
Q 2881 1984 2565 2268 
Q 2250 2553 1709 2553 
Q 1456 2553 1204 2497 
Q 953 2441 691 2322 
L 691 4666 
z
" transform="scale(0.015625)"/>
        <path id="DejaVuSans-38" d="M 2034 2216 
Q 1584 2216 1326 1975 
Q 1069 1734 1069 1313 
Q 1069 891 1326 650 
Q 1584 409 2034 409 
Q 2484 409 2743 651 
Q 3003 894 3003 1313 
Q 3003 1734 2745 1975 
Q 2488 2216 2034 2216 
z
M 1403 2484 
Q 997 2584 770 2862 
Q 544 3141 544 3541 
Q 544 4100 942 4425 
Q 1341 4750 2034 4750 
Q 2731 4750 3128 4425 
Q 3525 4100 3525 3541 
Q 3525 3141 3298 2862 
Q 3072 2584 2669 2484 
Q 3125 2378 3379 2068 
Q 3634 1759 3634 1313 
Q 3634 634 3220 271 
Q 2806 -91 2034 -91 
Q 1263 -91 848 271 
Q 434 634 434 1313 
Q 434 1759 690 2068 
Q 947 2378 1403 2484 
z
M 1172 3481 
Q 1172 3119 1398 2916 
Q 1625 2713 2034 2713 
Q 2441 2713 2670 2916 
Q 2900 3119 2900 3481 
Q 2900 3844 2670 4047 
Q 2441 4250 2034 4250 
Q 1625 4250 1398 4047 
Q 1172 3844 1172 3481 
z
" transform="scale(0.015625)"/>
       </defs>
       <use xlink:href="#DejaVuSans-30"/>
       <use xlink:href="#DejaVuSans-2e" transform="translate(63.623047 0)"/>
       <use xlink:href="#DejaVuSans-35" transform="translate(95.410156 0)"/>
       <use xlink:href="#DejaVuSans-38" transform="translate(159.033203 0)"/>
      </g>
     </g>
    </g>
    <g id="ytick_2">
     <g id="line2d_18">
      <g>
       <use xlink:href="#m967a3a9129" x="53.328125" y="53.060679" style="stroke: #000000; stroke-width: 0.8"/>
      </g>
     </g>
     <g id="text_2">
      <!-- 0.59 -->
      <g transform="translate(24.0625 56.859898) scale(0.1 -0.1)">
       <defs>
        <path id="DejaVuSans-39" d="M 703 97 
L 703 672 
Q 941 559 1184 500 
Q 1428 441 1663 441 
Q 2288 441 2617 861 
Q 2947 1281 2994 2138 
Q 2813 1869 2534 1725 
Q 2256 1581 1919 1581 
Q 1219 1581 811 2004 
Q 403 2428 403 3163 
Q 403 3881 828 4315 
Q 1253 4750 1959 4750 
Q 2769 4750 3195 4129 
Q 3622 3509 3622 2328 
Q 3622 1225 3098 567 
Q 2575 -91 1691 -91 
Q 1453 -91 1209 -44 
Q 966 3 703 97 
z
M 1959 2075 
Q 2384 2075 2632 2365 
Q 2881 2656 2881 3163 
Q 2881 3666 2632 3958 
Q 2384 4250 1959 4250 
Q 1534 4250 1286 3958 
Q 1038 3666 1038 3163 
Q 1038 2656 1286 2365 
Q 1534 2075 1959 2075 
z
" transform="scale(0.015625)"/>
       </defs>
       <use xlink:href="#DejaVuSans-30"/>
       <use xlink:href="#DejaVuSans-2e" transform="translate(63.623047 0)"/>
       <use xlink:href="#DejaVuSans-35" transform="translate(95.410156 0)"/>
       <use xlink:href="#DejaVuSans-39" transform="translate(159.033203 0)"/>
      </g>
     </g>
    </g>
    <g id="ytick_3">
     <g id="line2d_19">
      <g>
       <use xlink:href="#m967a3a9129" x="53.328125" y="22.257926" style="stroke: #000000; stroke-width: 0.8"/>
      </g>
     </g>
     <g id="text_3">
      <!-- 0.60 -->
      <g transform="translate(24.0625 26.057145) scale(0.1 -0.1)">
       <defs>
        <path id="DejaVuSans-36" d="M 2113 2584 
Q 1688 2584 1439 2293 
Q 1191 2003 1191 1497 
Q 1191 994 1439 701 
Q 1688 409 2113 409 
Q 2538 409 2786 701 
Q 3034 994 3034 1497 
Q 3034 2003 2786 2293 
Q 2538 2584 2113 2584 
z
M 3366 4563 
L 3366 3988 
Q 3128 4100 2886 4159 
Q 2644 4219 2406 4219 
Q 1781 4219 1451 3797 
Q 1122 3375 1075 2522 
Q 1259 2794 1537 2939 
Q 1816 3084 2150 3084 
Q 2853 3084 3261 2657 
Q 3669 2231 3669 1497 
Q 3669 778 3244 343 
Q 2819 -91 2113 -91 
Q 1303 -91 875 529 
Q 447 1150 447 2328 
Q 447 3434 972 4092 
Q 1497 4750 2381 4750 
Q 2619 4750 2861 4703 
Q 3103 4656 3366 4563 
z
" transform="scale(0.015625)"/>
       </defs>
       <use xlink:href="#DejaVuSans-30"/>
       <use xlink:href="#DejaVuSans-2e" transform="translate(63.623047 0)"/>
       <use xlink:href="#DejaVuSans-36" transform="translate(95.410156 0)"/>
       <use xlink:href="#DejaVuSans-30" transform="translate(159.033203 0)"/>
      </g>
     </g>
    </g>
    <g id="text_4">
     <!-- Price -->
     <g transform="translate(14.798438 70.171375) rotate(-90) scale(0.1 -0.1)">
      <defs>
       <path id="DejaVuSans-50" d="M 1259 4147 
L 1259 2394 
L 2053 2394 
Q 2494 2394 2734 2622 
Q 2975 2850 2975 3272 
Q 2975 3691 2734 3919 
Q 2494 4147 2053 4147 
L 1259 4147 
z
M 628 4666 
L 2053 4666 
Q 2838 4666 3239 4311 
Q 3641 3956 3641 3272 
Q 3641 2581 3239 2228 
Q 2838 1875 2053 1875 
L 1259 1875 
L 1259 0 
L 628 0 
L 628 4666 
z
" transform="scale(0.015625)"/>
       <path id="DejaVuSans-72" d="M 2631 2963 
Q 2534 3019 2420 3045 
Q 2306 3072 2169 3072 
Q 1681 3072 1420 2755 
Q 1159 2438 1159 1844 
L 1159 0 
L 581 0 
L 581 3500 
L 1159 3500 
L 1159 2956 
Q 1341 3275 1631 3429 
Q 1922 3584 2338 3584 
Q 2397 3584 2469 3576 
Q 2541 3569 2628 3553 
L 2631 2963 
z
" transform="scale(0.015625)"/>
       <path id="DejaVuSans-69" d="M 603 3500 
L 1178 3500 
L 1178 0 
L 603 0 
L 603 3500 
z
M 603 4863 
L 1178 4863 
L 1178 4134 
L 603 4134 
L 603 4863 
z
" transform="scale(0.015625)"/>
       <path id="DejaVuSans-63" d="M 3122 3366 
L 3122 2828 
Q 2878 2963 2633 3030 
Q 2388 3097 2138 3097 
Q 1578 3097 1268 2742 
Q 959 2388 959 1747 
Q 959 1106 1268 751 
Q 1578 397 2138 397 
Q 2388 397 2633 464 
Q 2878 531 3122 666 
L 3122 134 
Q 2881 22 2623 -34 
Q 2366 -91 2075 -91 
Q 1284 -91 818 406 
Q 353 903 353 1747 
Q 353 2603 823 3093 
Q 1294 3584 2113 3584 
Q 2378 3584 2631 3529 
Q 2884 3475 3122 3366 
z
" transform="scale(0.015625)"/>
       <path id="DejaVuSans-65" d="M 3597 1894 
L 3597 1613 
L 953 1613 
Q 991 1019 1311 708 
Q 1631 397 2203 397 
Q 2534 397 2845 478 
Q 3156 559 3463 722 
L 3463 178 
Q 3153 47 2828 -22 
Q 2503 -91 2169 -91 
Q 1331 -91 842 396 
Q 353 884 353 1716 
Q 353 2575 817 3079 
Q 1281 3584 2069 3584 
Q 2775 3584 3186 3129 
Q 3597 2675 3597 1894 
z
M 3022 2063 
Q 3016 2534 2758 2815 
Q 2500 3097 2075 3097 
Q 1594 3097 1305 2825 
Q 1016 2553 972 2059 
L 3022 2063 
z
" transform="scale(0.015625)"/>
      </defs>
      <use xlink:href="#DejaVuSans-50"/>
      <use xlink:href="#DejaVuSans-72" transform="translate(58.552734 0)"/>
      <use xlink:href="#DejaVuSans-69" transform="translate(99.666016 0)"/>
      <use xlink:href="#DejaVuSans-63" transform="translate(127.449219 0)"/>
      <use xlink:href="#DejaVuSans-65" transform="translate(182.429688 0)"/>
     </g>
    </g>
   </g>
   <g id="line2d_20">
    <path d="M 58.429389 54.323592 
L 59.936737 50.226826 
L 60.294336 48.779096 
L 61.453138 52.167399 
L 61.511984 51.489739 
L 62.924274 54.539211 
L 63.54894 56.171757 
L 64.789221 48.501872 
L 66.092873 50.996895 
L 66.301095 50.442445 
L 67.043453 53.461115 
L 68.324472 54.015565 
L 69.062303 51.766964 
L 69.881612 54.015565 
L 71.035888 53.676734 
L 72.090579 52.352216 
L 73.407811 41.910083 
L 73.480236 60.607354 
L 73.801623 48.193844 
L 73.837835 53.337904 
L 75.453821 50.71967 
L 76.58999 55.032055 
L 76.848005 54.508409 
L 78.753691 58.728386 
L 79.09771 56.911023 
L 80.152401 56.418179 
L 81.075821 68.523661 
L 81.659749 63.81084 
L 82.148619 68.831689 
L 83.999986 65.720611 
L 84.520542 71.881161 
L 85.8423 62.270702 
L 86.068629 62.763546 
L 86.543919 66.090244 
L 87.775146 63.040771 
L 88.847943 66.27506 
L 90.391504 78.596162 
L 90.40961 49.425954 
L 90.708364 64.919739 
L 91.400929 63.225588 
L 92.188552 64.611712 
L 92.858485 67.322354 
L 94.098765 64.272881 
L 94.338673 67.075932 
L 95.723804 64.550106 
L 96.588379 68.523661 
L 97.647596 71.08029 
L 98.317529 63.317996 
L 98.326582 63.348799 
L 99.123258 65.720611 
L 100.055732 66.583088 
L 101.133056 62.363111 
L 101.477075 65.566597 
L 102.567978 58.944005 
L 102.952737 61.500634 
L 103.704148 58.574372 
L 104.699993 58.019922 
L 105.9448 60.884579 
L 107.424989 63.749235 
L 107.434042 51.705358 
L 107.619631 61.377423 
L 108.076815 59.22123 
L 109.235617 60.299326 
L 110.584535 56.140955 
L 110.602641 57.280656 
L 112.119042 61.439028 
L 112.345371 60.638156 
L 113.028883 63.81084 
L 114.011149 62.486322 
L 115.070366 64.765725 
L 115.821777 62.301505 
L 116.337806 66.059441 
L 116.763304 64.673317 
L 118.270652 67.907606 
L 119.153333 65.689808 
L 119.782526 73.513707 
L 119.999802 73.667721 
L 121.280821 71.788753 
L 121.47999 72.805244 
L 122.738377 70.864671 
L 122.896807 71.788753 
L 124.286464 69.139716 
L 124.413208 80.167102 
L 124.426788 63.13318 
L 126.119725 69.63256 
L 127.233261 65.5974 
L 127.554648 66.090244 
L 127.866981 63.934051 
L 129.976363 65.751414 
L 130.546711 63.441207 
L 130.990315 64.36529 
L 132.348286 59.375244 
L 133.276233 60.946184 
L 134.883166 61.654647 
L 135.1276 58.759189 
L 135.249818 60.422537 
L 136.299982 47.485381 
L 136.834118 55.463294 
L 137.96576 50.196023 
L 138.327886 51.705358 
L 139.699437 56.818615 
L 140.50064 56.972629 
L 141.27921 54.354395 
L 141.301843 55.186069 
L 141.324476 53.984762 
L 175.047426 53.984762 
L 175.418605 66.82951 
L 175.436711 44.89795 
L 176.717731 58.32795 
L 178.107388 55.617308 
L 178.528359 56.972629 
L 178.913117 52.660243 
L 180.03118 51.859372 
L 180.443098 54.539211 
L 181.280514 52.167399 
L 183.190727 43.665839 
L 184.200152 47.238959 
L 184.58491 46.530495 
L 185.779925 41.263225 
L 186.250688 43.234601 
L 187.083577 39.014624 
L 187.481916 40.308339 
L 187.635819 43.080587 
L 188.903259 40.986 
L 189.573191 44.097078 
L 190.397027 42.649349 
L 191.089592 39.877101 
L 192.433984 47.208156 
L 192.45209 34.240197 
L 193.628998 40.708775 
L 194.805907 37.905725 
L 195.050342 37.905725 
L 195.493945 41.571252 
L 196.919815 40.616367 
L 198.716864 35.564715 
L 199.359637 39.137835 
L 199.993357 40.708775 
L 201.043521 35.50311 
L 201.785879 34.671435 
L 202.587081 37.443683 
L 202.673086 36.858431 
L 203.768516 41.047605 
L 204.388657 35.995954 
L 205.280391 45.113569 
L 206.280763 42.402927 
L 207.240396 45.421596 
L 207.330927 44.559119 
L 207.747372 46.068454 
L 209.444836 41.509647 
L 209.892966 45.945243 
L 210.621744 43.819853 
L 211.214725 46.191665 
L 212.531957 46.499693 
L 213.410112 42.279716 
L 213.459904 43.080587 
L 214.931039 38.213752 
L 215.890672 37.166459 
L 216.442914 41.940885 
L 216.877465 38.583385 
L 217.560977 42.77256 
L 218.434605 37.690105 
L 219.276547 41.417238 
L 219.769943 41.971688 
L 220.326712 35.780335 
L 221.146021 37.28967 
L 221.508146 33.531734 
L 222.689581 35.441504 
L 223.468151 38.922215 
L 224.513789 36.950839 
L 225.373838 40.585564 
L 226.469268 38.244555 
L 226.921925 43.665839 
L 228.039988 38.429371 
L 228.741606 41.66366 
L 229.189737 42.55694 
L 229.701239 38.86061 
L 230.353065 40.677972 
L 230.832882 42.402927 
L 231.828727 41.294027 
L 232.910578 44.00467 
L 233.467346 42.002491 
L 234.974694 46.068454 
L 235.730631 43.419417 
L 237.328511 47.423775 
L 237.731375 38.121344 
L 238.129714 40.955197 
L 239.410733 31.745174 
L 239.564636 32.515243 
L 240.098772 29.773798 
L 241.090091 31.498752 
L 242.977671 28.418477 
L 243.421274 38.86061 
L 244.693241 30.297445 
L 245.272642 28.78811 
L 246.196062 29.096137 
L 246.834309 31.652766 
L 247.965951 30.482261 
L 248.255652 31.806779 
L 248.712835 31.067513 
L 250.107019 34.05538 
L 250.71358 30.205036 
L 251.78185 37.566894 
L 252.782222 34.825449 
L 253.334464 35.687926 
L 254.375575 40.64717 
L 255.10888 39.353454 
L 255.656595 34.979463 
L 256.910455 39.569073 
L 257.901774 35.225885 
L 258.322745 35.995954 
L 258.965518 34.024578 
L 260.079054 36.704417 
L 260.346122 34.979463 
L 260.984368 35.256688 
L 293.204497 35.256688 
L 294.517203 33.562536 
L 294.52173 41.232422 
L 294.897435 44.374303 
L 295.051338 34.271 
L 296.830281 37.659303 
L 297.803493 34.332605 
L 298.591116 35.626321 
L 299.256522 32.669257 
L 299.600542 32.638454 
L 300.691445 35.225885 
L 301.053571 37.320472 
L 301.949832 33.100495 
L 302.456808 33.346917 
L 303.561291 35.995954 
L 304.181431 36.18077 
L 305.417185 32.084004 
L 305.598248 32.453637 
L 306.489982 35.379899 
L 307.033171 34.917858 
L 307.807214 31.005908 
L 308.784953 33.439325 
L 309.663108 29.958614 
L 311.473736 15.604531 
L 311.478263 45.945243 
L 311.650273 30.513064 
L 313.537852 31.098316 
L 314.556331 34.856252 
L 315.348481 35.84194 
L 316.190423 31.313935 
L 316.81509 34.671435 
L 317.75209 31.005908 
L 318.363177 31.960793 
L 318.698143 28.480082 
L 319.725674 32.607651 
L 320.39108 29.712192 
L 321.925588 28.202857 
L 322.351085 32.638454 
L 322.378245 32.422835 
L 323.618525 27.401986 
L 324.32467 31.067513 
L 325.383888 26.077467 
L 325.628322 27.124761 
L 326.429525 25.122582 
L 328.448376 11.815793 
L 328.570593 30.02022 
L 328.697337 24.691343 
L 330.172999 25.184187 
L 331.38612 28.664899 
L 332.327647 30.02022 
L 332.988526 28.048844 
L 333.314439 29.588981 
L 334.111116 28.018041 
L 334.676937 29.12694 
L 335.49172 32.330426 
L 336.347241 32.176412 
L 337.460778 29.065334 
L 337.773111 31.25233 
L 338.895701 27.124761 
L 339.719537 26.354692 
L 340.484527 28.664899 
L 340.778754 27.34038 
L 341.466793 31.837582 
L 343.363426 20.317352 
L 343.893035 37.874922 
L 344.291373 28.510885 
L 345.472808 48.378661 
L 345.540706 26.385495 
L 346.92131 39.137835 
L 348.396972 49.364349 
L 348.591615 49.271941 
L 349.234388 42.464532 
L 350.06275 43.357812 
L 351.226079 50.504051 
L 352.484466 54.847239 
L 353.009548 48.009028 
L 353.077446 48.501872 
L 353.878649 55.30928 
L 355.109876 53.307101 
L 355.657591 50.288431 
L 356.309418 52.198202 
L 357.232838 61.377423 
L 357.794133 56.75701 
L 358.744713 61.100198 
L 359.215476 60.330129 
L 359.930674 57.219051 
L 361.121162 57.742698 
L 361.67793 59.252033 
L 362.479133 65.5974 
L 362.524399 50.627262 
L 364.457245 55.586505 
L 364.828423 59.313638 
L 365.616047 57.43467 
L 365.991752 60.822973 
L 367.005704 57.09584 
L 367.825013 62.825152 
L 369.187511 67.014326 
L 369.911762 59.252033 
L 370.255782 63.287193 
L 371.391951 59.252033 
L 371.826502 59.067216 
L 372.998883 65.135358 
L 373.587337 66.552285 
L 373.922304 63.13318 
L 375.04942 64.14967 
L 375.560922 67.229946 
L 376.126744 66.860313 
L 376.583927 65.289372 
L 378.534879 65.38178 
L 379.059961 67.445565 
L 379.14144 67.16834 
L 379.358715 65.843822 
L 380.675947 65.997836 
L 412.896076 65.997836 
L 413.51169 51.766964 
L 413.629381 78.411345 
L 414.697651 65.689808 
L 415.526014 69.29373 
L 416.186893 69.355336 
L 417.413594 66.213455 
L 417.549391 66.983524 
L 418.282695 64.550106 
L 419.038632 65.38178 
L 420.505241 68.708478 
L 420.70441 70.679854 
L 422.103121 64.673317 
L 422.890744 64.242079 
L 423.574256 66.121047 
L 424.312087 66.552285 
L 424.628947 63.595221 
L 425.661005 68.154028 
L 426.611585 64.334487 
L 426.810754 65.412583 
L 428.200411 62.794349 
L 428.336208 63.040771 
L 429.648914 61.777858 
L 430.486329 43.45022 
L 430.581387 67.476368 
L 431.432383 62.332308 
L 432.67719 64.611712 
L 432.880885 62.979166 
L 434.320335 68.554464 
L 434.913315 66.213455 
L 435.900108 68.708478 
L 436.090224 69.755771 
L 437.357663 65.38178 
L 437.597572 69.878982 
L 438.851432 64.303684 
L 439.009862 64.858134 
L 439.788432 62.517124 
L 441.590007 65.38178 
L 441.766543 62.609533 
L 442.06077 64.118868 
L 442.345944 67.815198 
L 444.29237 67.568776 
L 444.491539 64.550106 
L 445.971727 67.353157 
L 446.623553 65.38178 
L 447.5515 81.799648 
L 447.818568 64.426895 
L 448.221433 64.919739 
L 449.701621 67.753592 
L 450.498298 68.523661 
L 451.19539 63.47201 
L 451.525829 63.934051 
L 452.467356 66.983524 
L 453.340984 64.796528 
L 454.255351 67.969212 
L 455.020342 66.121047 
L 455.731013 70.895473 
L 455.943762 68.831689 
L 457.107091 72.404808 
L 458.270419 70.987882 
L 458.881506 76.840405 
L 458.999197 75.793111 
L 459.737028 81.060382 
L 460.470333 78.380542 
L 461.303222 81.15279 
L 462.009367 79.489441 
L 462.407705 80.906368 
L 464.403923 71.819556 
L 464.503507 83.247377 
L 465.177966 79.92068 
L 466.608362 77.918501 
L 467.749058 81.584029 
L 468.206242 79.335428 
L 469.392203 75.023042 
L 469.853913 75.762308 
L 470.949344 78.657767 
L 472.216783 79.058203 
L 472.470271 75.916322 
L 473.036093 74.160565 
L 474.271846 78.565359 
L 474.303532 78.103318 
L 475.67961 86.666483 
L 475.82446 85.06474 
L 476.625663 92.919442 
L 478.006267 90.54763 
L 478.843683 94.890818 
L 479.42761 96.430956 
L 481.536992 91.471713 
L 481.591311 97.940291 
L 482.089234 92.827034 
L 483.478891 95.753295 
L 483.628268 97.539855 
L 484.252934 93.689511 
L 485.144669 95.168043 
L 485.805548 93.289075 
L 486.584118 92.734625 
L 486.796867 94.24396 
L 488.544123 93.042653 
L 489.087312 96.9238 
L 489.639553 93.658708 
L 491.101636 97.81708 
L 491.192167 97.355038 
L 492.409815 93.289075 
L 492.853418 92.33419 
L 493.11596 95.599281 
L 495.048805 94.521185 
L 495.456197 92.026162 
L 496.442989 93.042653 
L 496.977124 91.410107 
L 497.429781 92.519006 
L 498.412047 90.763249 
L 531.053147 90.763249 
L 532.524283 104.131644 
L 532.528809 67.229946 
L 532.601235 93.781919 
L 532.651027 86.450864 
L 535.194959 89.777561 
L 535.548032 93.01185 
L 535.978056 91.748937 
L 536.620829 88.08341 
L 537.20023 89.469534 
L 538.177969 86.235244 
L 539.544994 88.268226 
L 540.165134 85.557584 
L 540.395989 85.157148 
L 541.514052 88.329832 
L 541.821859 87.682974 
L 542.69096 89.962378 
L 543.677753 86.697286 
L 544.813922 90.2088 
L 544.90898 89.777561 
L 545.090043 87.374946 
L 546.61097 89.007492 
L 547.276376 90.424419 
L 547.950835 89.007492 
L 549.173009 91.163685 
L 549.675459 79.551047 
L 549.784096 98.956782 
L 552.133387 91.995359 
L 552.368768 88.052607 
L 552.979855 91.040474 
L 554.129604 85.526781 
L 554.899121 88.453043 
L 555.772749 88.576254 
L 556.84102 82.816139 
L 557.438527 81.922859 
L 558.312155 86.050428 
L 558.710494 84.633501 
L 559.502643 87.159327 
L 561.068837 87.467355 
L 561.639185 82.292492 
L 562.17332 81.49162 
L 563.051475 85.249556 
L 563.553924 82.970153 
L 564.703673 85.865611 
L 564.966214 83.955841 
L 565.844369 86.235244 
L 566.586726 80.043891 
L 567.080122 87.313341 
L 567.971857 84.079052 
L 568.252504 85.495978 
L 568.555784 85.341965 
L 568.555784 85.341965 
" clip-path="url(#p813871b3a9)" style="fill: none; stroke: #4169e1; stroke-width: 1.5; stroke-linecap: square"/>
   </g>
   <g id="patch_3">
    <path d="M 53.328125 108.747437 
L 53.328125 7.2 
" style="fill: none; stroke: #000000; stroke-width: 0.8; stroke-linejoin: miter; stroke-linecap: square"/>
   </g>
   <g id="patch_4">
    <path d="M 573.657048 108.747437 
L 573.657048 7.2 
" style="fill: none; stroke: #000000; stroke-width: 0.8; stroke-linejoin: miter; stroke-linecap: square"/>
   </g>
   <g id="patch_5">
    <path d="M 53.328125 108.747437 
L 573.657048 108.747437 
" style="fill: none; stroke: #000000; stroke-width: 0.8; stroke-linejoin: miter; stroke-linecap: square"/>
   </g>
   <g id="patch_6">
    <path d="M 53.328125 7.2 
L 573.657048 7.2 
" style="fill: none; stroke: #000000; stroke-width: 0.8; stroke-linejoin: miter; stroke-linecap: square"/>
   </g>
  </g>
  <g id="axes_2">
   <g id="patch_7">
    <path d="M 53.328125 219.795353 
L 573.657048 219.795353 
L 573.657048 118.247917 
L 53.328125 118.247917 
z
" style="fill: #ffffff"/>
   </g>
   <g id="matplotlib.axis_3">
    <g id="xtick_17">
     <g id="line2d_21">
      <g>
       <use xlink:href="#m7f088d9443" x="58.429389" y="219.795353" style="stroke: #000000; stroke-width: 0.8"/>
      </g>
     </g>
    </g>
    <g id="xtick_18">
     <g id="line2d_22">
      <g>
       <use xlink:href="#m7f088d9443" x="92.43771" y="219.795353" style="stroke: #000000; stroke-width: 0.8"/>
      </g>
     </g>
    </g>
    <g id="xtick_19">
     <g id="line2d_23">
      <g>
       <use xlink:href="#m7f088d9443" x="126.446032" y="219.795353" style="stroke: #000000; stroke-width: 0.8"/>
      </g>
     </g>
    </g>
    <g id="xtick_20">
     <g id="line2d_24">
      <g>
       <use xlink:href="#m7f088d9443" x="160.454353" y="219.795353" style="stroke: #000000; stroke-width: 0.8"/>
      </g>
     </g>
    </g>
    <g id="xtick_21">
     <g id="line2d_25">
      <g>
       <use xlink:href="#m7f088d9443" x="194.462675" y="219.795353" style="stroke: #000000; stroke-width: 0.8"/>
      </g>
     </g>
    </g>
    <g id="xtick_22">
     <g id="line2d_26">
      <g>
       <use xlink:href="#m7f088d9443" x="228.470996" y="219.795353" style="stroke: #000000; stroke-width: 0.8"/>
      </g>
     </g>
    </g>
    <g id="xtick_23">
     <g id="line2d_27">
      <g>
       <use xlink:href="#m7f088d9443" x="262.479317" y="219.795353" style="stroke: #000000; stroke-width: 0.8"/>
      </g>
     </g>
    </g>
    <g id="xtick_24">
     <g id="line2d_28">
      <g>
       <use xlink:href="#m7f088d9443" x="296.487639" y="219.795353" style="stroke: #000000; stroke-width: 0.8"/>
      </g>
     </g>
    </g>
    <g id="xtick_25">
     <g id="line2d_29">
      <g>
       <use xlink:href="#m7f088d9443" x="330.49596" y="219.795353" style="stroke: #000000; stroke-width: 0.8"/>
      </g>
     </g>
    </g>
    <g id="xtick_26">
     <g id="line2d_30">
      <g>
       <use xlink:href="#m7f088d9443" x="364.504282" y="219.795353" style="stroke: #000000; stroke-width: 0.8"/>
      </g>
     </g>
    </g>
    <g id="xtick_27">
     <g id="line2d_31">
      <g>
       <use xlink:href="#m7f088d9443" x="398.512603" y="219.795353" style="stroke: #000000; stroke-width: 0.8"/>
      </g>
     </g>
    </g>
    <g id="xtick_28">
     <g id="line2d_32">
      <g>
       <use xlink:href="#m7f088d9443" x="432.520924" y="219.795353" style="stroke: #000000; stroke-width: 0.8"/>
      </g>
     </g>
    </g>
    <g id="xtick_29">
     <g id="line2d_33">
      <g>
       <use xlink:href="#m7f088d9443" x="466.529246" y="219.795353" style="stroke: #000000; stroke-width: 0.8"/>
      </g>
     </g>
    </g>
    <g id="xtick_30">
     <g id="line2d_34">
      <g>
       <use xlink:href="#m7f088d9443" x="500.537567" y="219.795353" style="stroke: #000000; stroke-width: 0.8"/>
      </g>
     </g>
    </g>
    <g id="xtick_31">
     <g id="line2d_35">
      <g>
       <use xlink:href="#m7f088d9443" x="534.545889" y="219.795353" style="stroke: #000000; stroke-width: 0.8"/>
      </g>
     </g>
    </g>
    <g id="xtick_32">
     <g id="line2d_36">
      <g>
       <use xlink:href="#m7f088d9443" x="568.55421" y="219.795353" style="stroke: #000000; stroke-width: 0.8"/>
      </g>
     </g>
    </g>
   </g>
   <g id="matplotlib.axis_4">
    <g id="ytick_4">
     <g id="line2d_37">
      <g>
       <use xlink:href="#m967a3a9129" x="53.328125" y="205.89833" style="stroke: #000000; stroke-width: 0.8"/>
      </g>
     </g>
     <g id="text_5">
      <!-- 1000 -->
      <g transform="translate(20.878125 209.697548) scale(0.1 -0.1)">
       <defs>
        <path id="DejaVuSans-31" d="M 794 531 
L 1825 531 
L 1825 4091 
L 703 3866 
L 703 4441 
L 1819 4666 
L 2450 4666 
L 2450 531 
L 3481 531 
L 3481 0 
L 794 0 
L 794 531 
z
" transform="scale(0.015625)"/>
       </defs>
       <use xlink:href="#DejaVuSans-31"/>
       <use xlink:href="#DejaVuSans-30" transform="translate(63.623047 0)"/>
       <use xlink:href="#DejaVuSans-30" transform="translate(127.246094 0)"/>
       <use xlink:href="#DejaVuSans-30" transform="translate(190.869141 0)"/>
      </g>
     </g>
    </g>
    <g id="ytick_5">
     <g id="line2d_38">
      <g>
       <use xlink:href="#m967a3a9129" x="53.328125" y="179.19008" style="stroke: #000000; stroke-width: 0.8"/>
      </g>
     </g>
     <g id="text_6">
      <!-- 1020 -->
      <g transform="translate(20.878125 182.989299) scale(0.1 -0.1)">
       <defs>
        <path id="DejaVuSans-32" d="M 1228 531 
L 3431 531 
L 3431 0 
L 469 0 
L 469 531 
Q 828 903 1448 1529 
Q 2069 2156 2228 2338 
Q 2531 2678 2651 2914 
Q 2772 3150 2772 3378 
Q 2772 3750 2511 3984 
Q 2250 4219 1831 4219 
Q 1534 4219 1204 4116 
Q 875 4013 500 3803 
L 500 4441 
Q 881 4594 1212 4672 
Q 1544 4750 1819 4750 
Q 2544 4750 2975 4387 
Q 3406 4025 3406 3419 
Q 3406 3131 3298 2873 
Q 3191 2616 2906 2266 
Q 2828 2175 2409 1742 
Q 1991 1309 1228 531 
z
" transform="scale(0.015625)"/>
       </defs>
       <use xlink:href="#DejaVuSans-31"/>
       <use xlink:href="#DejaVuSans-30" transform="translate(63.623047 0)"/>
       <use xlink:href="#DejaVuSans-32" transform="translate(127.246094 0)"/>
       <use xlink:href="#DejaVuSans-30" transform="translate(190.869141 0)"/>
      </g>
     </g>
    </g>
    <g id="ytick_6">
     <g id="line2d_39">
      <g>
       <use xlink:href="#m967a3a9129" x="53.328125" y="152.481831" style="stroke: #000000; stroke-width: 0.8"/>
      </g>
     </g>
     <g id="text_7">
      <!-- 1040 -->
      <g transform="translate(20.878125 156.28105) scale(0.1 -0.1)">
       <defs>
        <path id="DejaVuSans-34" d="M 2419 4116 
L 825 1625 
L 2419 1625 
L 2419 4116 
z
M 2253 4666 
L 3047 4666 
L 3047 1625 
L 3713 1625 
L 3713 1100 
L 3047 1100 
L 3047 0 
L 2419 0 
L 2419 1100 
L 313 1100 
L 313 1709 
L 2253 4666 
z
" transform="scale(0.015625)"/>
       </defs>
       <use xlink:href="#DejaVuSans-31"/>
       <use xlink:href="#DejaVuSans-30" transform="translate(63.623047 0)"/>
       <use xlink:href="#DejaVuSans-34" transform="translate(127.246094 0)"/>
       <use xlink:href="#DejaVuSans-30" transform="translate(190.869141 0)"/>
      </g>
     </g>
    </g>
    <g id="ytick_7">
     <g id="line2d_40">
      <g>
       <use xlink:href="#m967a3a9129" x="53.328125" y="125.773582" style="stroke: #000000; stroke-width: 0.8"/>
      </g>
     </g>
     <g id="text_8">
      <!-- 1060 -->
      <g transform="translate(20.878125 129.572801) scale(0.1 -0.1)">
       <use xlink:href="#DejaVuSans-31"/>
       <use xlink:href="#DejaVuSans-30" transform="translate(63.623047 0)"/>
       <use xlink:href="#DejaVuSans-36" transform="translate(127.246094 0)"/>
       <use xlink:href="#DejaVuSans-30" transform="translate(190.869141 0)"/>
      </g>
     </g>
    </g>
    <g id="text_9">
     <!-- Equity -->
     <g transform="translate(14.798438 184.832573) rotate(-90) scale(0.1 -0.1)">
      <defs>
       <path id="DejaVuSans-45" d="M 628 4666 
L 3578 4666 
L 3578 4134 
L 1259 4134 
L 1259 2753 
L 3481 2753 
L 3481 2222 
L 1259 2222 
L 1259 531 
L 3634 531 
L 3634 0 
L 628 0 
L 628 4666 
z
" transform="scale(0.015625)"/>
       <path id="DejaVuSans-71" d="M 947 1747 
Q 947 1113 1208 752 
Q 1469 391 1925 391 
Q 2381 391 2643 752 
Q 2906 1113 2906 1747 
Q 2906 2381 2643 2742 
Q 2381 3103 1925 3103 
Q 1469 3103 1208 2742 
Q 947 2381 947 1747 
z
M 2906 525 
Q 2725 213 2448 61 
Q 2172 -91 1784 -91 
Q 1150 -91 751 415 
Q 353 922 353 1747 
Q 353 2572 751 3078 
Q 1150 3584 1784 3584 
Q 2172 3584 2448 3432 
Q 2725 3281 2906 2969 
L 2906 3500 
L 3481 3500 
L 3481 -1331 
L 2906 -1331 
L 2906 525 
z
" transform="scale(0.015625)"/>
       <path id="DejaVuSans-75" d="M 544 1381 
L 544 3500 
L 1119 3500 
L 1119 1403 
Q 1119 906 1312 657 
Q 1506 409 1894 409 
Q 2359 409 2629 706 
Q 2900 1003 2900 1516 
L 2900 3500 
L 3475 3500 
L 3475 0 
L 2900 0 
L 2900 538 
Q 2691 219 2414 64 
Q 2138 -91 1772 -91 
Q 1169 -91 856 284 
Q 544 659 544 1381 
z
M 1991 3584 
L 1991 3584 
z
" transform="scale(0.015625)"/>
       <path id="DejaVuSans-74" d="M 1172 4494 
L 1172 3500 
L 2356 3500 
L 2356 3053 
L 1172 3053 
L 1172 1153 
Q 1172 725 1289 603 
Q 1406 481 1766 481 
L 2356 481 
L 2356 0 
L 1766 0 
Q 1100 0 847 248 
Q 594 497 594 1153 
L 594 3053 
L 172 3053 
L 172 3500 
L 594 3500 
L 594 4494 
L 1172 4494 
z
" transform="scale(0.015625)"/>
       <path id="DejaVuSans-79" d="M 2059 -325 
Q 1816 -950 1584 -1140 
Q 1353 -1331 966 -1331 
L 506 -1331 
L 506 -850 
L 844 -850 
Q 1081 -850 1212 -737 
Q 1344 -625 1503 -206 
L 1606 56 
L 191 3500 
L 800 3500 
L 1894 763 
L 2988 3500 
L 3597 3500 
L 2059 -325 
z
" transform="scale(0.015625)"/>
      </defs>
      <use xlink:href="#DejaVuSans-45"/>
      <use xlink:href="#DejaVuSans-71" transform="translate(63.183594 0)"/>
      <use xlink:href="#DejaVuSans-75" transform="translate(126.660156 0)"/>
      <use xlink:href="#DejaVuSans-69" transform="translate(190.039062 0)"/>
      <use xlink:href="#DejaVuSans-74" transform="translate(217.822266 0)"/>
      <use xlink:href="#DejaVuSans-79" transform="translate(257.03125 0)"/>
     </g>
    </g>
   </g>
   <g id="line2d_41">
    <path d="M 58.429389 205.89833 
L 59.936737 209.06444 
L 60.294336 210.128924 
L 61.453138 207.637579 
L 61.511984 208.135848 
L 62.924274 205.893637 
L 63.54894 204.693261 
L 64.789221 210.332761 
L 66.092873 208.498225 
L 66.301095 208.9059 
L 67.043453 206.686338 
L 68.324472 206.278663 
L 69.062303 207.93201 
L 69.881612 206.278663 
L 71.035888 206.527797 
L 72.090579 207.501687 
L 73.407811 215.179561 
L 73.480236 201.431863 
L 73.801623 210.559247 
L 73.837835 206.776932 
L 75.453821 208.702063 
L 76.58999 205.531259 
L 76.848005 205.916285 
L 78.753691 202.813428 
L 79.09771 204.149695 
L 80.152401 204.512072 
L 81.075821 195.611175 
L 81.659749 194.992793 
L 82.148619 198.732401 
L 83.999986 196.41522 
L 84.520542 201.003698 
L 85.8423 193.845673 
L 86.068629 194.212751 
L 86.543919 196.690529 
L 87.775146 194.419233 
L 88.847943 196.828183 
L 90.391504 206.005138 
L 90.40961 184.278698 
L 90.708364 195.818718 
L 91.400929 194.556887 
L 92.188552 195.589295 
L 93.510311 198.107247 
L 94.098765 198.382716 
L 94.338673 196.293743 
L 95.723804 198.176114 
L 96.588379 195.214824 
L 97.647596 193.309497 
L 98.317529 199.094344 
L 98.326582 199.071388 
L 99.123258 197.303796 
L 100.055732 196.661035 
L 100.621553 198.444595 
L 101.477075 199.154567 
L 102.567978 194.230567 
L 102.952737 196.13146 
L 103.704148 193.955739 
L 105.501196 194.706001 
L 105.9448 193.423471 
L 107.424989 191.293555 
L 107.434042 200.248364 
L 107.619631 193.057034 
L 108.076815 194.660197 
L 109.235617 193.858615 
L 110.584535 196.950429 
L 110.602641 196.103043 
L 112.119042 193.011229 
L 112.345371 193.60669 
L 113.028883 191.24775 
L 114.011149 192.23255 
L 115.070366 190.537778 
L 115.821777 192.369964 
L 116.337806 189.575881 
L 116.763304 190.606485 
L 118.270652 188.201741 
L 119.153333 189.850709 
L 119.782526 184.033519 
L 120.87343 185.273273 
L 121.280821 183.902339 
L 121.47999 184.669133 
L 122.738377 183.205254 
L 122.896807 183.902339 
L 124.286464 181.904028 
L 124.413208 190.222579 
L 124.426788 177.372973 
L 126.119725 182.275806 
L 127.233261 179.231867 
L 127.554648 179.603646 
L 127.866981 177.977114 
L 129.976363 179.348048 
L 130.546711 177.605335 
L 131.266436 176.72236 
L 131.565189 179.003483 
L 132.348286 179.409324 
L 133.276233 178.225641 
L 134.883166 177.691823 
L 135.1276 179.873513 
L 135.304137 185.815137 
L 136.834118 174.82082 
L 137.96576 178.759953 
L 138.327886 177.631196 
L 139.794495 173.715099 
L 140.020823 174.705641 
L 141.29279 174.129744 
L 176.581934 174.129744 
L 177.718103 173.520689 
L 178.107388 175.564297 
L 178.528359 174.542493 
L 178.913117 177.793688 
L 180.03118 178.397481 
L 181.113031 175.378615 
L 181.280514 175.517392 
L 183.190727 169.133693 
L 184.200152 171.816697 
L 184.58491 171.284722 
L 185.186944 168.740494 
L 186.250688 169.408076 
L 187.083577 172.576796 
L 187.481916 171.605364 
L 187.635819 169.523723 
L 188.903259 170.769309 
L 191.089592 176.113071 
L 192.433984 170.621001 
L 192.45209 180.335966 
L 193.628998 175.490021 
L 194.805907 177.589931 
L 195.050342 177.589931 
L 196.000921 173.280253 
L 196.535057 173.418147 
L 198.015245 176.014206 
L 198.227994 175.50771 
L 199.178574 177.800074 
L 199.993357 175.094448 
L 201.043521 178.969454 
L 201.785879 179.588538 
L 202.587081 177.524925 
L 202.673086 177.960577 
L 203.768516 174.842228 
L 204.388657 178.60259 
L 205.280391 171.815596 
L 206.280763 173.833351 
L 207.240396 171.586306 
L 207.330927 172.228319 
L 208.326773 171.076475 
L 208.915227 171.439431 
L 209.444836 174.926309 
L 210.621744 173.192609 
L 211.214725 171.412678 
L 212.531957 171.181518 
L 213.210943 173.909205 
L 213.459904 173.559169 
L 214.931039 169.917393 
L 215.664344 171.069854 
L 216.4746 168.760319 
L 216.877465 167.212442 
L 218.434605 173.932287 
L 219.276547 171.136868 
L 219.769943 170.721021 
L 220.326712 175.364651 
L 221.146021 174.232622 
L 221.508146 177.051143 
L 222.689581 175.61878 
L 223.468151 173.008182 
L 224.513789 174.486751 
L 225.373838 171.76064 
L 226.469268 173.51644 
L 226.921925 169.450376 
L 228.039988 173.377824 
L 228.741606 170.952047 
L 229.189737 170.282071 
L 229.701239 173.054387 
L 230.353065 171.691332 
L 230.832882 170.397584 
L 231.828727 171.229279 
L 232.910578 169.196247 
L 233.467346 170.697918 
L 234.585409 168.595579 
L 235.382085 168.686254 
L 235.730631 166.925379 
L 237.328511 169.937402 
L 237.731375 162.940242 
L 238.129714 165.071827 
L 239.410733 158.144175 
L 239.564636 158.72341 
L 240.098772 156.661333 
L 241.090091 157.958819 
L 242.52954 156.244283 
L 242.647231 156.614994 
L 243.421274 148.55103 
L 244.693241 154.992125 
L 245.272642 156.127426 
L 246.196062 155.895732 
L 246.834309 153.972671 
L 247.965951 154.853109 
L 248.255652 153.856824 
L 248.712835 154.41289 
L 250.107019 152.165458 
L 250.71358 155.061633 
L 251.78185 149.524145 
L 252.782222 151.586223 
L 253.334464 150.937479 
L 254.375575 147.207205 
L 255.10888 148.18032 
L 255.656595 151.470375 
L 256.910455 148.018134 
L 257.901774 151.28502 
L 258.146209 151.539884 
L 258.227687 150.844802 
L 296.273512 150.844802 
L 296.830281 150.002343 
L 297.803493 152.523388 
L 298.591116 151.542982 
L 299.256522 153.783911 
L 299.691073 153.921228 
L 300.691445 152.176511 
L 301.053571 150.594635 
L 302.284798 153.43195 
L 302.456808 152.034574 
L 303.896257 155.31639 
L 304.181431 153.546381 
L 305.47603 157.082638 
L 305.598248 156.897069 
L 306.489982 159.1007 
L 307.033171 158.752759 
L 308.481673 156.176473 
L 308.784953 156.130081 
L 309.663108 158.751242 
L 311.473736 169.560631 
L 311.478263 146.712458 
L 311.650273 158.333711 
L 313.537852 157.892985 
L 314.556331 155.063059 
L 315.348481 154.320784 
L 316.190423 157.730612 
L 316.81509 155.202236 
L 317.75209 157.962574 
L 318.363177 157.243494 
L 318.698143 159.864655 
L 319.725674 156.756376 
L 320.39108 158.93681 
L 321.925588 160.254471 
L 322.351085 156.916154 
L 322.613626 159.185104 
L 323.618525 155.968269 
L 324.093815 156.199696 
L 325.383888 162.053567 
L 325.628322 161.266716 
L 326.429525 162.770991 
L 327.131144 162.516421 
L 328.489115 139.215829 
L 328.597753 142.600138 
L 328.697337 136.278139 
L 330.172999 136.653122 
L 331.38612 139.301446 
L 331.992681 139.020208 
L 332.988526 140.636881 
L 333.314439 139.464389 
L 334.111116 140.660331 
L 334.676937 139.816137 
L 335.49172 137.377353 
L 336.347241 137.494602 
L 337.460778 139.863036 
L 337.773111 138.198098 
L 338.895701 141.340377 
L 339.719537 139.184293 
L 340.484527 140.940027 
L 340.778754 139.933406 
L 341.466793 143.351234 
L 343.363426 134.595976 
L 343.893035 147.939551 
L 344.291373 140.822978 
L 345.472808 155.922286 
L 345.540706 139.207703 
L 347.641035 148.684575 
L 348.396972 153.164666 
L 348.591615 153.094236 
L 349.234388 147.905918 
L 350.06275 148.586738 
L 351.226079 154.033298 
L 352.484466 157.343492 
L 353.009548 152.131698 
L 353.077446 152.507322 
L 353.878649 157.69564 
L 355.109876 156.169664 
L 355.657591 153.868962 
L 356.309418 155.324508 
L 357.232838 162.320521 
L 357.794133 158.799038 
L 358.744713 162.109232 
L 359.215476 161.522318 
L 359.930674 159.151186 
L 361.121162 159.550288 
L 361.67793 160.700639 
L 362.479133 165.536808 
L 362.524399 154.127204 
L 364.457245 157.906929 
L 364.828423 160.747592 
L 365.616047 159.315522 
L 365.991752 161.897943 
L 367.005704 159.05728 
L 367.825013 163.423919 
L 369.187511 166.616729 
L 369.911762 160.700639 
L 370.255782 163.776067 
L 371.391951 160.700639 
L 372.156941 162.314675 
L 372.998883 158.581903 
L 373.587337 159.379009 
L 373.895144 157.373286 
L 375.04942 156.398474 
L 375.560922 158.759483 
L 376.126744 158.476162 
L 376.583927 157.272047 
L 377.638618 157.973621 
L 378.113908 158.776364 
L 379.14144 158.327772 
L 414.430584 158.327772 
L 415.526014 157.871601 
L 415.693497 160.424375 
L 416.186893 157.824327 
L 417.413594 160.235281 
L 417.549391 159.644361 
L 418.282695 161.511668 
L 419.808149 160.016968 
L 420.505241 162.350401 
L 420.70441 163.858883 
L 422.103121 159.262727 
L 422.890744 158.932747 
L 423.574256 160.370519 
L 424.312087 160.700499 
L 424.628947 158.437776 
L 425.661005 161.926141 
L 426.611585 159.003457 
L 427.109508 158.225646 
L 428.200411 160.104837 
L 428.336208 159.916277 
L 429.648914 160.882648 
L 430.486329 174.906816 
L 430.581387 156.522193 
L 432.523286 160.562861 
L 432.67719 158.891285 
L 432.880885 160.139081 
L 434.320335 155.87774 
L 434.913315 157.667033 
L 435.900108 155.760024 
L 436.090224 154.959551 
L 437.357663 158.302702 
L 437.597572 154.865377 
L 438.851432 159.126719 
L 439.788432 158.649096 
L 440.096239 160.298063 
L 441.590007 160.839867 
L 441.766543 158.719766 
L 442.06077 159.874043 
L 442.345944 162.700844 
L 443.595278 161.38167 
L 444.89893 164.222562 
L 445.971727 162.342302 
L 446.623553 163.84651 
L 447.5515 151.319273 
L 447.818568 164.575111 
L 448.221433 164.199059 
L 449.701621 162.036759 
L 450.498298 161.449178 
L 451.19539 165.303712 
L 451.525829 164.951163 
L 452.467356 162.624341 
L 453.340984 164.293072 
L 454.255351 161.872236 
L 454.345883 162.130772 
L 455.731013 158.416569 
L 455.943762 159.996656 
L 457.107091 157.260983 
L 458.270419 158.345819 
L 458.881506 153.864976 
L 458.999197 154.666811 
L 459.737028 150.634052 
L 461.303222 154.445467 
L 462.009367 153.156821 
L 462.407705 154.254556 
L 464.403923 147.214729 
L 464.503507 156.068207 
L 465.177966 153.490914 
L 466.608362 151.939766 
L 467.749058 154.77956 
L 468.206242 153.037501 
L 469.392203 149.696567 
L 469.853913 150.269298 
L 470.949344 152.512497 
L 472.216783 152.822727 
L 472.470271 150.388617 
L 473.036093 149.02838 
L 473.828242 151.50234 
L 474.303532 149.47278 
L 475.67961 142.834925 
L 475.82446 144.076538 
L 476.625663 137.987859 
L 478.006267 139.826401 
L 478.843683 136.45972 
L 479.42761 135.265861 
L 480.323871 136.937263 
L 481.536992 133.600192 
L 481.591311 138.71816 
L 482.089234 134.672528 
L 483.478891 136.987799 
L 483.628268 138.401333 
L 484.252934 135.354924 
L 485.144669 136.524745 
L 485.805548 135.038097 
L 486.584118 134.599414 
L 486.796867 135.793607 
L 488.544123 134.843127 
L 489.087312 137.913908 
L 489.639553 135.330553 
L 491.101636 138.620675 
L 491.192167 138.255106 
L 492.409815 135.038097 
L 492.853418 134.282588 
L 493.11596 136.865943 
L 495.048805 136.012948 
L 495.456197 134.038875 
L 496.442989 134.843127 
L 496.977124 133.551449 
L 497.303037 133.917018 
L 497.348303 134.258216 
L 500.367526 134.160731 
L 534.126689 134.160731 
L 535.548032 137.20497 
L 535.978056 136.20739 
L 536.620829 133.311976 
L 537.20023 134.40688 
L 538.177969 131.852103 
L 539.544994 133.457963 
L 539.748689 131.852103 
L 540.395989 133.764094 
L 541.514052 131.257978 
L 541.821859 131.768934 
L 542.69096 129.968424 
L 543.677753 132.547533 
L 544.813922 129.773774 
L 544.90898 130.114411 
L 545.090043 132.012246 
L 546.61097 130.722692 
L 547.276376 129.603456 
L 547.950835 130.722692 
L 549.173009 129.019507 
L 549.675459 138.192375 
L 549.784096 122.863709 
L 552.133387 128.362564 
L 552.368768 131.476959 
L 552.979855 129.116831 
L 554.070759 133.277469 
L 554.899121 131.160654 
L 557.003976 140.402909 
L 557.438527 136.65434 
L 558.312155 139.895038 
L 558.710494 139.667532 
L 559.502643 137.684417 
L 561.068837 137.442574 
L 561.639185 141.50554 
L 562.17332 142.134332 
L 563.051475 139.183845 
L 563.553924 140.973485 
L 564.703673 138.700159 
L 564.966214 140.199587 
L 565.844369 138.409947 
L 566.586726 143.270995 
L 567.080122 137.563496 
L 567.971857 140.102849 
L 568.252504 138.990371 
L 568.555784 139.20803 
L 568.555784 139.20803 
" clip-path="url(#p5a852439c0)" style="fill: none; stroke: #2e8b57; stroke-width: 1.5; stroke-linecap: square"/>
   </g>
   <g id="patch_8">
    <path d="M 53.328125 219.795353 
L 53.328125 118.247917 
" style="fill: none; stroke: #000000; stroke-width: 0.8; stroke-linejoin: miter; stroke-linecap: square"/>
   </g>
   <g id="patch_9">
    <path d="M 573.657048 219.795353 
L 573.657048 118.247917 
" style="fill: none; stroke: #000000; stroke-width: 0.8; stroke-linejoin: miter; stroke-linecap: square"/>
   </g>
   <g id="patch_10">
    <path d="M 53.328125 219.795353 
L 573.657048 219.795353 
" style="fill: none; stroke: #000000; stroke-width: 0.8; stroke-linejoin: miter; stroke-linecap: square"/>
   </g>
   <g id="patch_11">
    <path d="M 53.328125 118.247917 
L 573.657048 118.247917 
" style="fill: none; stroke: #000000; stroke-width: 0.8; stroke-linejoin: miter; stroke-linecap: square"/>
   </g>
  </g>
  <g id="axes_3">
   <g id="patch_12">
    <path d="M 53.328125 330.84327 
L 573.657048 330.84327 
L 573.657048 229.295833 
L 53.328125 229.295833 
z
" style="fill: #ffffff"/>
   </g>
   <g id="matplotlib.axis_5">
    <g id="xtick_33">
     <g id="line2d_42">
      <g>
       <use xlink:href="#m7f088d9443" x="58.429389" y="330.84327" style="stroke: #000000; stroke-width: 0.8"/>
      </g>
     </g>
     <g id="text_10">
      <!-- Sep -->
      <g transform="translate(49.004389 345.441707) scale(0.1 -0.1)">
       <defs>
        <path id="DejaVuSans-53" d="M 3425 4513 
L 3425 3897 
Q 3066 4069 2747 4153 
Q 2428 4238 2131 4238 
Q 1616 4238 1336 4038 
Q 1056 3838 1056 3469 
Q 1056 3159 1242 3001 
Q 1428 2844 1947 2747 
L 2328 2669 
Q 3034 2534 3370 2195 
Q 3706 1856 3706 1288 
Q 3706 609 3251 259 
Q 2797 -91 1919 -91 
Q 1588 -91 1214 -16 
Q 841 59 441 206 
L 441 856 
Q 825 641 1194 531 
Q 1563 422 1919 422 
Q 2459 422 2753 634 
Q 3047 847 3047 1241 
Q 3047 1584 2836 1778 
Q 2625 1972 2144 2069 
L 1759 2144 
Q 1053 2284 737 2584 
Q 422 2884 422 3419 
Q 422 4038 858 4394 
Q 1294 4750 2059 4750 
Q 2388 4750 2728 4690 
Q 3069 4631 3425 4513 
z
" transform="scale(0.015625)"/>
        <path id="DejaVuSans-70" d="M 1159 525 
L 1159 -1331 
L 581 -1331 
L 581 3500 
L 1159 3500 
L 1159 2969 
Q 1341 3281 1617 3432 
Q 1894 3584 2278 3584 
Q 2916 3584 3314 3078 
Q 3713 2572 3713 1747 
Q 3713 922 3314 415 
Q 2916 -91 2278 -91 
Q 1894 -91 1617 61 
Q 1341 213 1159 525 
z
M 3116 1747 
Q 3116 2381 2855 2742 
Q 2594 3103 2138 3103 
Q 1681 3103 1420 2742 
Q 1159 2381 1159 1747 
Q 1159 1113 1420 752 
Q 1681 391 2138 391 
Q 2594 391 2855 752 
Q 3116 1113 3116 1747 
z
" transform="scale(0.015625)"/>
       </defs>
       <use xlink:href="#DejaVuSans-53"/>
       <use xlink:href="#DejaVuSans-65" transform="translate(63.476562 0)"/>
       <use xlink:href="#DejaVuSans-70" transform="translate(125 0)"/>
      </g>
     </g>
    </g>
    <g id="xtick_34">
     <g id="line2d_43">
      <g>
       <use xlink:href="#m7f088d9443" x="92.43771" y="330.84327" style="stroke: #000000; stroke-width: 0.8"/>
      </g>
     </g>
     <g id="text_11">
      <!-- 03 -->
      <g transform="translate(86.07521 345.441707) scale(0.1 -0.1)">
       <defs>
        <path id="DejaVuSans-33" d="M 2597 2516 
Q 3050 2419 3304 2112 
Q 3559 1806 3559 1356 
Q 3559 666 3084 287 
Q 2609 -91 1734 -91 
Q 1441 -91 1130 -33 
Q 819 25 488 141 
L 488 750 
Q 750 597 1062 519 
Q 1375 441 1716 441 
Q 2309 441 2620 675 
Q 2931 909 2931 1356 
Q 2931 1769 2642 2001 
Q 2353 2234 1838 2234 
L 1294 2234 
L 1294 2753 
L 1863 2753 
Q 2328 2753 2575 2939 
Q 2822 3125 2822 3475 
Q 2822 3834 2567 4026 
Q 2313 4219 1838 4219 
Q 1578 4219 1281 4162 
Q 984 4106 628 3988 
L 628 4550 
Q 988 4650 1302 4700 
Q 1616 4750 1894 4750 
Q 2613 4750 3031 4423 
Q 3450 4097 3450 3541 
Q 3450 3153 3228 2886 
Q 3006 2619 2597 2516 
z
" transform="scale(0.015625)"/>
       </defs>
       <use xlink:href="#DejaVuSans-30"/>
       <use xlink:href="#DejaVuSans-33" transform="translate(63.623047 0)"/>
      </g>
     </g>
    </g>
    <g id="xtick_35">
     <g id="line2d_44">
      <g>
       <use xlink:href="#m7f088d9443" x="126.446032" y="330.84327" style="stroke: #000000; stroke-width: 0.8"/>
      </g>
     </g>
     <g id="text_12">
      <!-- 05 -->
      <g transform="translate(120.083532 345.441707) scale(0.1 -0.1)">
       <use xlink:href="#DejaVuSans-30"/>
       <use xlink:href="#DejaVuSans-35" transform="translate(63.623047 0)"/>
      </g>
     </g>
    </g>
    <g id="xtick_36">
     <g id="line2d_45">
      <g>
       <use xlink:href="#m7f088d9443" x="160.454353" y="330.84327" style="stroke: #000000; stroke-width: 0.8"/>
      </g>
     </g>
     <g id="text_13">
      <!-- 07 -->
      <g transform="translate(154.091853 345.441707) scale(0.1 -0.1)">
       <defs>
        <path id="DejaVuSans-37" d="M 525 4666 
L 3525 4666 
L 3525 4397 
L 1831 0 
L 1172 0 
L 2766 4134 
L 525 4134 
L 525 4666 
z
" transform="scale(0.015625)"/>
       </defs>
       <use xlink:href="#DejaVuSans-30"/>
       <use xlink:href="#DejaVuSans-37" transform="translate(63.623047 0)"/>
      </g>
     </g>
    </g>
    <g id="xtick_37">
     <g id="line2d_46">
      <g>
       <use xlink:href="#m7f088d9443" x="194.462675" y="330.84327" style="stroke: #000000; stroke-width: 0.8"/>
      </g>
     </g>
     <g id="text_14">
      <!-- 09 -->
      <g transform="translate(188.100175 345.441707) scale(0.1 -0.1)">
       <use xlink:href="#DejaVuSans-30"/>
       <use xlink:href="#DejaVuSans-39" transform="translate(63.623047 0)"/>
      </g>
     </g>
    </g>
    <g id="xtick_38">
     <g id="line2d_47">
      <g>
       <use xlink:href="#m7f088d9443" x="228.470996" y="330.84327" style="stroke: #000000; stroke-width: 0.8"/>
      </g>
     </g>
     <g id="text_15">
      <!-- 11 -->
      <g transform="translate(222.108496 345.441707) scale(0.1 -0.1)">
       <use xlink:href="#DejaVuSans-31"/>
       <use xlink:href="#DejaVuSans-31" transform="translate(63.623047 0)"/>
      </g>
     </g>
    </g>
    <g id="xtick_39">
     <g id="line2d_48">
      <g>
       <use xlink:href="#m7f088d9443" x="262.479317" y="330.84327" style="stroke: #000000; stroke-width: 0.8"/>
      </g>
     </g>
     <g id="text_16">
      <!-- 13 -->
      <g transform="translate(256.116817 345.441707) scale(0.1 -0.1)">
       <use xlink:href="#DejaVuSans-31"/>
       <use xlink:href="#DejaVuSans-33" transform="translate(63.623047 0)"/>
      </g>
     </g>
    </g>
    <g id="xtick_40">
     <g id="line2d_49">
      <g>
       <use xlink:href="#m7f088d9443" x="296.487639" y="330.84327" style="stroke: #000000; stroke-width: 0.8"/>
      </g>
     </g>
     <g id="text_17">
      <!-- 15 -->
      <g transform="translate(290.125139 345.441707) scale(0.1 -0.1)">
       <use xlink:href="#DejaVuSans-31"/>
       <use xlink:href="#DejaVuSans-35" transform="translate(63.623047 0)"/>
      </g>
     </g>
    </g>
    <g id="xtick_41">
     <g id="line2d_50">
      <g>
       <use xlink:href="#m7f088d9443" x="330.49596" y="330.84327" style="stroke: #000000; stroke-width: 0.8"/>
      </g>
     </g>
     <g id="text_18">
      <!-- 17 -->
      <g transform="translate(324.13346 345.441707) scale(0.1 -0.1)">
       <use xlink:href="#DejaVuSans-31"/>
       <use xlink:href="#DejaVuSans-37" transform="translate(63.623047 0)"/>
      </g>
     </g>
    </g>
    <g id="xtick_42">
     <g id="line2d_51">
      <g>
       <use xlink:href="#m7f088d9443" x="364.504282" y="330.84327" style="stroke: #000000; stroke-width: 0.8"/>
      </g>
     </g>
     <g id="text_19">
      <!-- 19 -->
      <g transform="translate(358.141782 345.441707) scale(0.1 -0.1)">
       <use xlink:href="#DejaVuSans-31"/>
       <use xlink:href="#DejaVuSans-39" transform="translate(63.623047 0)"/>
      </g>
     </g>
    </g>
    <g id="xtick_43">
     <g id="line2d_52">
      <g>
       <use xlink:href="#m7f088d9443" x="398.512603" y="330.84327" style="stroke: #000000; stroke-width: 0.8"/>
      </g>
     </g>
     <g id="text_20">
      <!-- 21 -->
      <g transform="translate(392.150103 345.441707) scale(0.1 -0.1)">
       <use xlink:href="#DejaVuSans-32"/>
       <use xlink:href="#DejaVuSans-31" transform="translate(63.623047 0)"/>
      </g>
     </g>
    </g>
    <g id="xtick_44">
     <g id="line2d_53">
      <g>
       <use xlink:href="#m7f088d9443" x="432.520924" y="330.84327" style="stroke: #000000; stroke-width: 0.8"/>
      </g>
     </g>
     <g id="text_21">
      <!-- 23 -->
      <g transform="translate(426.158424 345.441707) scale(0.1 -0.1)">
       <use xlink:href="#DejaVuSans-32"/>
       <use xlink:href="#DejaVuSans-33" transform="translate(63.623047 0)"/>
      </g>
     </g>
    </g>
    <g id="xtick_45">
     <g id="line2d_54">
      <g>
       <use xlink:href="#m7f088d9443" x="466.529246" y="330.84327" style="stroke: #000000; stroke-width: 0.8"/>
      </g>
     </g>
     <g id="text_22">
      <!-- 25 -->
      <g transform="translate(460.166746 345.441707) scale(0.1 -0.1)">
       <use xlink:href="#DejaVuSans-32"/>
       <use xlink:href="#DejaVuSans-35" transform="translate(63.623047 0)"/>
      </g>
     </g>
    </g>
    <g id="xtick_46">
     <g id="line2d_55">
      <g>
       <use xlink:href="#m7f088d9443" x="500.537567" y="330.84327" style="stroke: #000000; stroke-width: 0.8"/>
      </g>
     </g>
     <g id="text_23">
      <!-- 27 -->
      <g transform="translate(494.175067 345.441707) scale(0.1 -0.1)">
       <use xlink:href="#DejaVuSans-32"/>
       <use xlink:href="#DejaVuSans-37" transform="translate(63.623047 0)"/>
      </g>
     </g>
    </g>
    <g id="xtick_47">
     <g id="line2d_56">
      <g>
       <use xlink:href="#m7f088d9443" x="534.545889" y="330.84327" style="stroke: #000000; stroke-width: 0.8"/>
      </g>
     </g>
     <g id="text_24">
      <!-- 29 -->
      <g transform="translate(528.183389 345.441707) scale(0.1 -0.1)">
       <use xlink:href="#DejaVuSans-32"/>
       <use xlink:href="#DejaVuSans-39" transform="translate(63.623047 0)"/>
      </g>
     </g>
    </g>
    <g id="xtick_48">
     <g id="line2d_57">
      <g>
       <use xlink:href="#m7f088d9443" x="568.55421" y="330.84327" style="stroke: #000000; stroke-width: 0.8"/>
      </g>
     </g>
     <g id="text_25">
      <!-- Oct -->
      <g transform="translate(559.908898 345.441707) scale(0.1 -0.1)">
       <defs>
        <path id="DejaVuSans-4f" d="M 2522 4238 
Q 1834 4238 1429 3725 
Q 1025 3213 1025 2328 
Q 1025 1447 1429 934 
Q 1834 422 2522 422 
Q 3209 422 3611 934 
Q 4013 1447 4013 2328 
Q 4013 3213 3611 3725 
Q 3209 4238 2522 4238 
z
M 2522 4750 
Q 3503 4750 4090 4092 
Q 4678 3434 4678 2328 
Q 4678 1225 4090 567 
Q 3503 -91 2522 -91 
Q 1538 -91 948 565 
Q 359 1222 359 2328 
Q 359 3434 948 4092 
Q 1538 4750 2522 4750 
z
" transform="scale(0.015625)"/>
       </defs>
       <use xlink:href="#DejaVuSans-4f"/>
       <use xlink:href="#DejaVuSans-63" transform="translate(78.710938 0)"/>
       <use xlink:href="#DejaVuSans-74" transform="translate(133.691406 0)"/>
      </g>
     </g>
    </g>
    <g id="text_26">
     <!-- Time -->
     <g transform="translate(301.258993 359.119832) scale(0.1 -0.1)">
      <defs>
       <path id="DejaVuSans-54" d="M -19 4666 
L 3928 4666 
L 3928 4134 
L 2272 4134 
L 2272 0 
L 1638 0 
L 1638 4134 
L -19 4134 
L -19 4666 
z
" transform="scale(0.015625)"/>
       <path id="DejaVuSans-6d" d="M 3328 2828 
Q 3544 3216 3844 3400 
Q 4144 3584 4550 3584 
Q 5097 3584 5394 3201 
Q 5691 2819 5691 2113 
L 5691 0 
L 5113 0 
L 5113 2094 
Q 5113 2597 4934 2840 
Q 4756 3084 4391 3084 
Q 3944 3084 3684 2787 
Q 3425 2491 3425 1978 
L 3425 0 
L 2847 0 
L 2847 2094 
Q 2847 2600 2669 2842 
Q 2491 3084 2119 3084 
Q 1678 3084 1418 2786 
Q 1159 2488 1159 1978 
L 1159 0 
L 581 0 
L 581 3500 
L 1159 3500 
L 1159 2956 
Q 1356 3278 1631 3431 
Q 1906 3584 2284 3584 
Q 2666 3584 2933 3390 
Q 3200 3197 3328 2828 
z
" transform="scale(0.015625)"/>
      </defs>
      <use xlink:href="#DejaVuSans-54"/>
      <use xlink:href="#DejaVuSans-69" transform="translate(57.958984 0)"/>
      <use xlink:href="#DejaVuSans-6d" transform="translate(85.742188 0)"/>
      <use xlink:href="#DejaVuSans-65" transform="translate(183.154297 0)"/>
     </g>
    </g>
    <g id="text_27">
     <!-- 2025-Oct -->
     <g transform="translate(527.033611 358.119832) scale(0.1 -0.1)">
      <defs>
       <path id="DejaVuSans-2d" d="M 313 2009 
L 1997 2009 
L 1997 1497 
L 313 1497 
L 313 2009 
z
" transform="scale(0.015625)"/>
      </defs>
      <use xlink:href="#DejaVuSans-32"/>
      <use xlink:href="#DejaVuSans-30" transform="translate(63.623047 0)"/>
      <use xlink:href="#DejaVuSans-32" transform="translate(127.246094 0)"/>
      <use xlink:href="#DejaVuSans-35" transform="translate(190.869141 0)"/>
      <use xlink:href="#DejaVuSans-2d" transform="translate(254.492188 0)"/>
      <use xlink:href="#DejaVuSans-4f" transform="translate(293.326172 0)"/>
      <use xlink:href="#DejaVuSans-63" transform="translate(372.037109 0)"/>
      <use xlink:href="#DejaVuSans-74" transform="translate(427.017578 0)"/>
     </g>
    </g>
   </g>
   <g id="matplotlib.axis_6">
    <g id="ytick_8">
     <g id="line2d_58">
      <g>
       <use xlink:href="#m967a3a9129" x="53.328125" y="330.557151" style="stroke: #000000; stroke-width: 0.8"/>
      </g>
     </g>
     <g id="text_28">
      <!-- 3 -->
      <g transform="translate(31.585938 334.35637) scale(0.1 -0.1)">
       <defs>
        <path id="DejaVuSans-2212" d="M 678 2272 
L 4684 2272 
L 4684 1741 
L 678 1741 
L 678 2272 
z
" transform="scale(0.015625)"/>
       </defs>
       <use xlink:href="#DejaVuSans-2212"/>
       <use xlink:href="#DejaVuSans-33" transform="translate(83.789062 0)"/>
      </g>
     </g>
    </g>
    <g id="ytick_9">
     <g id="line2d_59">
      <g>
       <use xlink:href="#m967a3a9129" x="53.328125" y="298.341976" style="stroke: #000000; stroke-width: 0.8"/>
      </g>
     </g>
     <g id="text_29">
      <!-- 2 -->
      <g transform="translate(31.585938 302.141195) scale(0.1 -0.1)">
       <use xlink:href="#DejaVuSans-2212"/>
       <use xlink:href="#DejaVuSans-32" transform="translate(83.789062 0)"/>
      </g>
     </g>
    </g>
    <g id="ytick_10">
     <g id="line2d_60">
      <g>
       <use xlink:href="#m967a3a9129" x="53.328125" y="266.126801" style="stroke: #000000; stroke-width: 0.8"/>
      </g>
     </g>
     <g id="text_30">
      <!-- 1 -->
      <g transform="translate(31.585938 269.92602) scale(0.1 -0.1)">
       <use xlink:href="#DejaVuSans-2212"/>
       <use xlink:href="#DejaVuSans-31" transform="translate(83.789062 0)"/>
      </g>
     </g>
    </g>
    <g id="ytick_11">
     <g id="line2d_61">
      <g>
       <use xlink:href="#m967a3a9129" x="53.328125" y="233.911626" style="stroke: #000000; stroke-width: 0.8"/>
      </g>
     </g>
     <g id="text_31">
      <!-- 0 -->
      <g transform="translate(39.965625 237.710845) scale(0.1 -0.1)">
       <use xlink:href="#DejaVuSans-30"/>
      </g>
     </g>
    </g>
    <g id="text_32">
     <!-- Drawdown, % -->
     <g transform="translate(14.798438 314.548458) rotate(-90) scale(0.1 -0.1)">
      <defs>
       <path id="DejaVuSans-44" d="M 1259 4147 
L 1259 519 
L 2022 519 
Q 2988 519 3436 956 
Q 3884 1394 3884 2338 
Q 3884 3275 3436 3711 
Q 2988 4147 2022 4147 
L 1259 4147 
z
M 628 4666 
L 1925 4666 
Q 3281 4666 3915 4102 
Q 4550 3538 4550 2338 
Q 4550 1131 3912 565 
Q 3275 0 1925 0 
L 628 0 
L 628 4666 
z
" transform="scale(0.015625)"/>
       <path id="DejaVuSans-61" d="M 2194 1759 
Q 1497 1759 1228 1600 
Q 959 1441 959 1056 
Q 959 750 1161 570 
Q 1363 391 1709 391 
Q 2188 391 2477 730 
Q 2766 1069 2766 1631 
L 2766 1759 
L 2194 1759 
z
M 3341 1997 
L 3341 0 
L 2766 0 
L 2766 531 
Q 2569 213 2275 61 
Q 1981 -91 1556 -91 
Q 1019 -91 701 211 
Q 384 513 384 1019 
Q 384 1609 779 1909 
Q 1175 2209 1959 2209 
L 2766 2209 
L 2766 2266 
Q 2766 2663 2505 2880 
Q 2244 3097 1772 3097 
Q 1472 3097 1187 3025 
Q 903 2953 641 2809 
L 641 3341 
Q 956 3463 1253 3523 
Q 1550 3584 1831 3584 
Q 2591 3584 2966 3190 
Q 3341 2797 3341 1997 
z
" transform="scale(0.015625)"/>
       <path id="DejaVuSans-77" d="M 269 3500 
L 844 3500 
L 1563 769 
L 2278 3500 
L 2956 3500 
L 3675 769 
L 4391 3500 
L 4966 3500 
L 4050 0 
L 3372 0 
L 2619 2869 
L 1863 0 
L 1184 0 
L 269 3500 
z
" transform="scale(0.015625)"/>
       <path id="DejaVuSans-64" d="M 2906 2969 
L 2906 4863 
L 3481 4863 
L 3481 0 
L 2906 0 
L 2906 525 
Q 2725 213 2448 61 
Q 2172 -91 1784 -91 
Q 1150 -91 751 415 
Q 353 922 353 1747 
Q 353 2572 751 3078 
Q 1150 3584 1784 3584 
Q 2172 3584 2448 3432 
Q 2725 3281 2906 2969 
z
M 947 1747 
Q 947 1113 1208 752 
Q 1469 391 1925 391 
Q 2381 391 2643 752 
Q 2906 1113 2906 1747 
Q 2906 2381 2643 2742 
Q 2381 3103 1925 3103 
Q 1469 3103 1208 2742 
Q 947 2381 947 1747 
z
" transform="scale(0.015625)"/>
       <path id="DejaVuSans-6f" d="M 1959 3097 
Q 1497 3097 1228 2736 
Q 959 2375 959 1747 
Q 959 1119 1226 758 
Q 1494 397 1959 397 
Q 2419 397 2687 759 
Q 2956 1122 2956 1747 
Q 2956 2369 2687 2733 
Q 2419 3097 1959 3097 
z
M 1959 3584 
Q 2709 3584 3137 3096 
Q 3566 2609 3566 1747 
Q 3566 888 3137 398 
Q 2709 -91 1959 -91 
Q 1206 -91 779 398 
Q 353 888 353 1747 
Q 353 2609 779 3096 
Q 1206 3584 1959 3584 
z
" transform="scale(0.015625)"/>
       <path id="DejaVuSans-6e" d="M 3513 2113 
L 3513 0 
L 2938 0 
L 2938 2094 
Q 2938 2591 2744 2837 
Q 2550 3084 2163 3084 
Q 1697 3084 1428 2787 
Q 1159 2491 1159 1978 
L 1159 0 
L 581 0 
L 581 3500 
L 1159 3500 
L 1159 2956 
Q 1366 3272 1645 3428 
Q 1925 3584 2291 3584 
Q 2894 3584 3203 3211 
Q 3513 2838 3513 2113 
z
" transform="scale(0.015625)"/>
       <path id="DejaVuSans-2c" d="M 750 794 
L 1409 794 
L 1409 256 
L 897 -744 
L 494 -744 
L 750 256 
L 750 794 
z
" transform="scale(0.015625)"/>
       <path id="DejaVuSans-20" transform="scale(0.015625)"/>
       <path id="DejaVuSans-25" d="M 4653 2053 
Q 4381 2053 4226 1822 
Q 4072 1591 4072 1178 
Q 4072 772 4226 539 
Q 4381 306 4653 306 
Q 4919 306 5073 539 
Q 5228 772 5228 1178 
Q 5228 1588 5073 1820 
Q 4919 2053 4653 2053 
z
M 4653 2450 
Q 5147 2450 5437 2106 
Q 5728 1763 5728 1178 
Q 5728 594 5436 251 
Q 5144 -91 4653 -91 
Q 4153 -91 3862 251 
Q 3572 594 3572 1178 
Q 3572 1766 3864 2108 
Q 4156 2450 4653 2450 
z
M 1428 4353 
Q 1159 4353 1004 4120 
Q 850 3888 850 3481 
Q 850 3069 1003 2837 
Q 1156 2606 1428 2606 
Q 1700 2606 1854 2837 
Q 2009 3069 2009 3481 
Q 2009 3884 1853 4118 
Q 1697 4353 1428 4353 
z
M 4250 4750 
L 4750 4750 
L 1831 -91 
L 1331 -91 
L 4250 4750 
z
M 1428 4750 
Q 1922 4750 2215 4408 
Q 2509 4066 2509 3481 
Q 2509 2891 2217 2550 
Q 1925 2209 1428 2209 
Q 931 2209 642 2551 
Q 353 2894 353 3481 
Q 353 4063 643 4406 
Q 934 4750 1428 4750 
z
" transform="scale(0.015625)"/>
      </defs>
      <use xlink:href="#DejaVuSans-44"/>
      <use xlink:href="#DejaVuSans-72" transform="translate(77.001953 0)"/>
      <use xlink:href="#DejaVuSans-61" transform="translate(118.115234 0)"/>
      <use xlink:href="#DejaVuSans-77" transform="translate(179.394531 0)"/>
      <use xlink:href="#DejaVuSans-64" transform="translate(261.181641 0)"/>
      <use xlink:href="#DejaVuSans-6f" transform="translate(324.658203 0)"/>
      <use xlink:href="#DejaVuSans-77" transform="translate(385.839844 0)"/>
      <use xlink:href="#DejaVuSans-6e" transform="translate(467.626953 0)"/>
      <use xlink:href="#DejaVuSans-2c" transform="translate(531.005859 0)"/>
      <use xlink:href="#DejaVuSans-20" transform="translate(562.792969 0)"/>
      <use xlink:href="#DejaVuSans-25" transform="translate(594.580078 0)"/>
     </g>
    </g>
   </g>
   <g id="line2d_62">
    <path d="M 58.429389 233.911626 
L 59.936737 241.549476 
L 60.294336 244.117412 
L 61.453138 238.107349 
L 61.511984 239.309362 
L 62.924274 233.911626 
L 63.467462 233.911626 
L 64.789221 247.503958 
L 66.092873 243.082356 
L 66.301095 244.064934 
L 67.043453 238.715342 
L 68.324472 237.732763 
L 69.062303 241.717664 
L 69.881612 237.732763 
L 71.035888 238.333228 
L 72.090579 240.680498 
L 73.407811 259.185721 
L 73.480236 233.911626 
L 73.801623 255.856913 
L 73.837835 246.76296 
L 75.453821 251.391619 
L 76.58999 243.767946 
L 76.848005 244.693677 
L 78.753691 237.233369 
L 79.09771 240.446203 
L 80.152401 241.317479 
L 80.659377 233.911626 
L 81.59185 233.911626 
L 82.148619 242.859895 
L 83.999986 237.315262 
L 84.520542 248.294733 
L 85.362484 233.911626 
L 86.068629 234.789236 
L 86.543919 240.713103 
L 87.775146 235.282891 
L 88.847943 241.042207 
L 90.40961 233.911626 
L 90.441296 282.929161 
L 90.708364 261.306982 
L 91.400929 258.311466 
L 92.188552 260.762343 
L 93.510311 266.739819 
L 94.098765 267.393766 
L 94.338673 262.434664 
L 95.723804 266.903306 
L 96.588379 259.873369 
L 97.647596 255.350232 
L 98.317529 269.083131 
L 98.326582 269.028635 
L 99.123258 264.832472 
L 100.055732 263.306594 
L 100.621553 267.540664 
L 101.477075 269.226098 
L 102.567978 257.536801 
L 102.952737 262.049413 
L 103.704148 256.884375 
L 105.501196 258.665454 
L 105.9448 255.6208 
L 107.424989 250.5645 
L 107.434042 271.822709 
L 107.619631 254.750899 
L 108.076815 258.556717 
L 109.235617 256.653808 
L 110.584535 263.993599 
L 110.602641 261.981952 
L 112.119042 254.642161 
L 112.345371 256.055751 
L 113.028883 250.455762 
L 114.011149 252.793621 
L 115.070366 248.770328 
L 115.821777 253.119834 
L 116.337806 246.486838 
L 116.763304 248.933435 
L 118.270652 243.224709 
L 119.153333 247.139264 
L 119.778 233.911626 
L 119.968116 233.911626 
L 120.87343 237.125726 
L 122.340039 233.911626 
L 123.041657 233.911626 
L 124.322677 236.389551 
L 124.413208 253.6249 
L 124.426788 233.911626 
L 126.119725 245.491746 
L 127.233261 238.302193 
L 127.554648 239.180306 
L 127.866981 235.33856 
L 129.976363 238.576603 
L 130.641769 233.911626 
L 131.565189 239.296895 
L 132.348286 240.255004 
L 133.276233 237.460567 
L 134.883166 236.200332 
L 135.1276 241.350861 
L 135.304137 255.377834 
L 136.702847 233.911626 
L 137.96576 243.198182 
L 139.169828 233.911626 
L 139.794495 233.911626 
L 140.020823 236.244954 
L 141.29279 234.888368 
L 176.581934 234.888368 
L 177.686417 233.911626 
L 178.107388 238.724879 
L 178.528359 236.318253 
L 178.913117 243.975701 
L 180.03118 245.397799 
L 181.113031 238.287548 
L 181.280514 238.614404 
L 182.07719 233.911626 
L 182.774282 233.911626 
L 184.200152 240.210626 
L 184.58491 238.961687 
L 185.0602 233.911626 
L 186.250688 235.478488 
L 187.083577 242.915693 
L 187.481916 240.635674 
L 187.635819 235.749919 
L 188.903259 238.673396 
L 191.089592 251.215576 
L 192.433984 238.325306 
L 192.45209 261.127002 
L 193.628998 249.753235 
L 194.805907 254.681867 
L 195.050342 254.681867 
L 196.000921 244.566754 
L 196.535057 244.890403 
L 198.015245 250.983531 
L 198.227994 249.794752 
L 199.178574 255.175087 
L 199.993357 248.824796 
L 201.043521 257.919704 
L 201.785879 259.372737 
L 202.587081 254.529295 
L 202.673086 255.551799 
L 203.768516 248.23282 
L 204.388657 257.058648 
L 205.280391 241.129104 
L 206.280763 245.864914 
L 207.240396 240.590944 
L 207.330927 242.097793 
L 208.326773 239.394335 
L 208.915227 240.246219 
L 209.444836 248.430162 
L 210.621744 244.36105 
L 211.214725 240.183428 
L 212.531957 239.64088 
L 213.210943 246.042949 
L 213.459904 245.221391 
L 214.931039 236.673889 
L 215.664344 239.378795 
L 216.483653 233.911626 
L 218.434605 249.666029 
L 219.276547 243.112283 
L 219.769943 242.137346 
L 220.326712 253.024146 
L 221.146021 250.37015 
L 221.508146 256.978059 
L 222.689581 253.619941 
L 223.468151 247.499501 
L 224.513789 250.965945 
L 225.373838 244.574689 
L 226.469268 248.691091 
L 226.921925 239.15837 
L 228.039988 248.366112 
L 228.741606 242.678978 
L 229.189737 241.108245 
L 229.701239 247.607828 
L 230.353065 244.4122 
L 230.832882 241.379061 
L 231.828727 243.328936 
L 232.910578 238.562575 
L 233.467346 242.083183 
L 234.585409 237.154333 
L 235.382085 237.366918 
L 235.617467 233.911626 
L 236.43225 233.911626 
L 237.328511 241.513518 
L 238.129714 238.893552 
L 238.260984 233.911626 
L 239.582743 233.911626 
L 240.66912 236.553011 
L 241.090091 236.930351 
L 242.22626 233.911626 
L 242.615545 233.911626 
L 244.036888 251.489771 
L 244.693241 248.810175 
L 245.272642 251.436179 
L 246.196062 250.90026 
L 246.834309 246.452132 
L 247.965951 248.488624 
L 248.255652 246.184172 
L 248.712835 247.470378 
L 250.107019 242.271963 
L 250.71358 248.970951 
L 251.78185 236.162486 
L 252.782222 240.932165 
L 253.334464 239.431592 
L 254.262411 233.911626 
L 255.10888 236.160316 
L 255.656595 243.763031 
L 256.910455 235.785534 
L 257.901774 243.334709 
L 258.146209 243.923652 
L 258.227687 242.317444 
L 296.273512 242.317444 
L 296.830281 240.370677 
L 297.803493 246.19635 
L 298.591116 243.93081 
L 299.256522 249.109186 
L 299.691073 249.426501 
L 300.691445 245.394781 
L 301.053571 241.739356 
L 302.284798 248.295869 
L 302.456808 245.06679 
L 303.896257 252.650464 
L 304.181431 248.560298 
L 305.47603 256.73194 
L 305.598248 256.303125 
L 306.489982 261.395311 
L 307.033171 260.591282 
L 308.481673 254.637958 
L 308.784953 254.530754 
L 309.663108 260.587776 
L 311.473736 285.566291 
L 311.478263 233.911626 
L 311.650273 260.756682 
L 313.537852 259.738606 
L 314.556331 253.201487 
L 315.348481 251.486833 
L 316.190423 259.363526 
L 316.81509 253.522985 
L 317.75209 259.899355 
L 318.363177 258.238284 
L 318.698143 264.293157 
L 319.725674 257.113042 
L 320.39108 262.149839 
L 321.925588 265.193631 
L 322.351085 257.482129 
L 322.613626 262.723397 
L 323.618525 255.292518 
L 324.093815 255.827114 
L 325.383888 269.349538 
L 325.628322 267.531913 
L 326.429525 271.006784 
L 327.131144 270.418729 
L 328.502695 233.911626 
L 328.597753 242.689885 
L 330.172999 234.771404 
L 331.38612 240.84359 
L 331.992681 240.198757 
L 332.988526 243.905533 
L 333.314439 241.217194 
L 334.111116 243.9593 
L 334.676937 242.023696 
L 335.49172 236.431951 
L 336.347241 236.700785 
L 337.460778 242.131229 
L 337.773111 238.313788 
L 338.895701 245.518536 
L 339.719537 240.574979 
L 340.484527 244.600598 
L 340.778754 242.292577 
L 341.466793 250.129115 
L 343.309107 233.911626 
L 343.893035 264.469746 
L 344.291373 248.172082 
L 345.472808 282.751007 
L 345.540706 244.472941 
L 347.641035 266.175925 
L 348.396972 276.43578 
L 348.591615 276.27449 
L 349.234388 264.392723 
L 350.06275 265.951869 
L 351.226079 278.425035 
L 352.484466 286.00571 
L 353.009548 274.07018 
L 353.077446 274.930398 
L 353.878649 286.812165 
L 355.109876 283.317527 
L 355.657591 278.04869 
L 356.309418 281.382036 
L 357.232838 297.403603 
L 357.794133 289.339056 
L 358.744713 296.91973 
L 359.215476 295.575639 
L 359.930674 290.145511 
L 361.121162 291.059493 
L 361.67793 293.693912 
L 362.479133 304.769223 
L 362.524399 278.64009 
L 364.457245 287.296037 
L 364.828423 293.801439 
L 365.616047 290.521856 
L 365.991752 296.435858 
L 367.005704 289.930456 
L 367.825013 299.930495 
L 369.187511 307.242351 
L 369.911762 293.693912 
L 370.255782 300.736949 
L 371.391951 293.693912 
L 372.156941 297.390216 
L 372.998883 288.841796 
L 373.587337 290.667247 
L 373.895144 286.073942 
L 375.04942 283.841523 
L 375.560922 289.24847 
L 376.126744 288.599637 
L 376.583927 285.842094 
L 377.638618 287.448768 
L 378.113908 289.28713 
L 379.14144 288.25981 
L 414.430584 288.25981 
L 415.526014 287.215132 
L 415.693497 293.061241 
L 416.186893 287.106871 
L 417.413594 292.628196 
L 417.549391 291.27493 
L 418.282695 295.55125 
L 419.808149 292.128238 
L 420.505241 297.472032 
L 420.70441 300.926607 
L 422.103121 290.400951 
L 422.890744 289.645262 
L 423.574256 292.937904 
L 424.312087 293.693592 
L 424.628947 288.51173 
L 425.661005 296.500433 
L 426.611585 289.807196 
L 427.109508 288.025931 
L 428.200411 292.329467 
L 428.336208 291.897645 
L 429.648914 294.110732 
L 430.486329 326.227477 
L 430.581387 284.124853 
L 432.523286 293.378388 
L 432.67719 289.550312 
L 432.880885 292.407889 
L 434.320335 282.648992 
L 434.913315 286.746651 
L 435.900108 282.379409 
L 436.090224 280.546246 
L 437.357663 288.202398 
L 437.597572 280.33058 
L 438.851432 290.089477 
L 439.788432 288.995674 
L 440.096239 292.771974 
L 441.590007 294.012758 
L 441.766543 289.157515 
L 442.06077 291.800925 
L 442.345944 298.274582 
L 443.595278 295.253542 
L 444.89893 301.759469 
L 445.971727 297.453484 
L 446.623553 300.898272 
L 447.5515 272.209646 
L 447.818568 302.566841 
L 448.221433 301.705644 
L 449.701621 296.753761 
L 450.498298 295.408141 
L 451.19539 304.23541 
L 451.525829 303.428038 
L 452.467356 298.099381 
L 453.340984 301.920943 
L 454.255351 296.376987 
L 454.345883 296.96906 
L 455.731013 288.463164 
L 455.943762 292.081721 
L 457.107091 285.816757 
L 458.270419 288.301139 
L 458.881506 278.039561 
L 458.999197 279.875843 
L 459.737028 270.640423 
L 460.470333 274.450395 
L 461.303222 279.368943 
L 462.009367 276.417814 
L 462.407705 278.931739 
L 464.403923 262.809831 
L 464.503507 283.085179 
L 465.177966 277.182922 
L 466.608362 273.630637 
L 467.749058 280.13405 
L 468.206242 276.144561 
L 469.392203 268.493487 
L 469.853913 269.805099 
L 470.949344 274.94225 
L 472.216783 275.652707 
L 472.470271 270.078352 
L 473.036093 266.963272 
L 473.828242 272.628888 
L 474.303532 267.980993 
L 475.67961 252.779642 
L 475.82446 255.62306 
L 476.625663 241.679376 
L 478.006267 245.889822 
L 478.843683 238.179784 
L 479.42761 235.445728 
L 480.323871 239.273406 
L 481.536992 233.911626 
L 481.591311 245.623994 
L 482.089234 236.365646 
L 483.478891 241.664098 
L 483.628268 244.898942 
L 484.252934 237.927295 
L 485.144669 240.604408 
L 485.805548 237.202244 
L 486.584118 236.198326 
L 486.796867 238.931212 
L 488.544123 236.756058 
L 489.087312 243.783479 
L 489.639553 237.871522 
L 491.101636 245.400901 
L 491.192167 244.564303 
L 492.409815 237.202244 
L 492.853418 235.473275 
L 493.11596 241.385232 
L 495.048805 239.433171 
L 495.456197 234.915543 
L 496.442989 236.756058 
L 496.936385 233.911626 
L 497.303037 234.748195 
L 497.348303 235.528992 
L 498.833018 235.305907 
L 534.126689 235.305907 
L 535.548032 242.272346 
L 535.978056 239.989483 
L 536.602723 233.911626 
L 537.20023 236.41678 
L 537.652887 233.911626 
L 539.544994 237.582047 
L 539.748689 233.911626 
L 540.395989 238.281751 
L 541.428047 233.911626 
L 541.867124 233.911626 
L 543.030453 237.354995 
L 543.677753 239.798677 
L 544.700758 233.911626 
L 544.90898 234.689054 
L 545.090043 239.020437 
L 547.013835 233.911626 
L 547.538917 236.410199 
L 547.950835 236.465723 
L 548.521183 233.911626 
L 549.548715 233.911626 
L 549.675459 255.662357 
L 552.133387 246.400394 
L 552.368768 253.473678 
L 552.979855 248.113455 
L 554.070759 257.562921 
L 554.899121 252.755298 
L 557.003976 273.745921 
L 557.438527 265.232327 
L 558.312155 272.592467 
L 558.710494 272.075763 
L 559.502643 267.571797 
L 561.068837 267.022533 
L 561.639185 276.25017 
L 562.17332 277.678257 
L 563.051475 270.977235 
L 563.553924 275.041789 
L 564.703673 269.878706 
L 564.966214 273.284144 
L 565.844369 269.219589 
L 566.586726 280.259798 
L 567.080122 267.297165 
L 567.971857 273.064438 
L 568.252504 270.537823 
L 568.555784 271.032161 
L 568.555784 271.032161 
" clip-path="url(#p30b93e037a)" style="fill: none; stroke: #7a738c; stroke-width: 1.5; stroke-linecap: square"/>
   </g>
   <g id="patch_13">
    <path d="M 53.328125 330.84327 
L 53.328125 229.295833 
" style="fill: none; stroke: #000000; stroke-width: 0.8; stroke-linejoin: miter; stroke-linecap: square"/>
   </g>
   <g id="patch_14">
    <path d="M 573.657048 330.84327 
L 573.657048 229.295833 
" style="fill: none; stroke: #000000; stroke-width: 0.8; stroke-linejoin: miter; stroke-linecap: square"/>
   </g>
   <g id="patch_15">
    <path d="M 53.328125 330.84327 
L 573.657048 330.84327 
" style="fill: none; stroke: #000000; stroke-width: 0.8; stroke-linejoin: miter; stroke-linecap: square"/>
   </g>
   <g id="patch_16">
    <path d="M 53.328125 229.295833 
L 573.657048 229.295833 
" style="fill: none; stroke: #000000; stroke-width: 0.8; stroke-linejoin: miter; stroke-linecap: square"/>
   </g>
  </g>
 </g>
 <defs>
  <clipPath id="p813871b3a9">
   <rect x="53.328125" y="7.2" width="520.328923" height="101.547437"/>
  </clipPath>
  <clipPath id="p5a852439c0">
   <rect x="53.328125" y="118.247917" width="520.328923" height="101.547437"/>
  </clipPath>
  <clipPath id="p30b93e037a">
   <rect x="53.328125" y="229.295833" width="520.328923" height="101.547437"/>
  </clipPath>
 </defs>
</svg>
