<?xml version="1.0" encoding="utf-8" standalone="no"?>
<!DOCTYPE svg PUBLIC "-//W3C//DTD SVG 1.1//EN"
  "http://www.w3.org/Graphics/SVG/1.1/DTD/svg11.dtd">
<svg xmlns:xlink="http://www.w3.org/1999/xlink"   viewBox="0 0 584.399528 368.39952" xmlns="http://www.w3.org/2000/svg" version="1.1" preserveAspectRatio="xMidYMid meet" style="width:100%;height:auto;aspect-ratio:8 / 5;display:block;">
 <metadata>
  <rdf:RDF xmlns:dc="http://purl.org/dc/elements/1.1/" xmlns:cc="http://creativecommons.org/ns#" xmlns:rdf="http://www.w3.org/1999/02/22-rdf-syntax-ns#">
   <cc:Work>
    <dc:type rdf:resource="http://purl.org/dc/dcmitype/StillImage"/>
    <dc:date>2025-10-22T19:44:00.934667</dc:date>
    <dc:format>image/svg+xml</dc:format>
    <dc:creator>
     <cc:Agent>
      <dc:title>Matplotlib v3.10.6, https://matplotlib.org/</dc:title>
     </cc:Agent>
    </dc:creator>
   </cc:Work>
  </rdf:RDF>
 </metadata>
 <defs>
  <style type="text/css">*{stroke-linejoin: round; stroke-linecap: butt}</style>
 </defs>
 <g id="figure_1">
  <g id="patch_1">
   <path d="M 0 368.39952 
L 584.399528 368.39952 
L 584.399528 0 
L 0 0 
z
" style="fill: #ffffff"/>
  </g>
  <g id="axes_1">
   <g id="patch_2">
    <path d="M 53.328125 108.641484 
L 573.657054 108.641484 
L 573.657054 7.2 
L 53.328125 7.2 
z
" style="fill: #ffffff"/>
   </g>
   <g id="matplotlib.axis_1">
    <g id="xtick_1">
     <g id="line2d_1">
      <defs>
       <path id="m94189278a6" d="M 0 0 
L 0 3.5 
" style="stroke: #000000; stroke-width: 0.8"/>
      </defs>
      <g>
       <use xlink:href="#m94189278a6" x="58.429389" y="108.641484" style="stroke: #000000; stroke-width: 0.8"/>
      </g>
     </g>
    </g>
    <g id="xtick_2">
     <g id="line2d_2">
      <g>
       <use xlink:href="#m94189278a6" x="92.437711" y="108.641484" style="stroke: #000000; stroke-width: 0.8"/>
      </g>
     </g>
    </g>
    <g id="xtick_3">
     <g id="line2d_3">
      <g>
       <use xlink:href="#m94189278a6" x="126.446033" y="108.641484" style="stroke: #000000; stroke-width: 0.8"/>
      </g>
     </g>
    </g>
    <g id="xtick_4">
     <g id="line2d_4">
      <g>
       <use xlink:href="#m94189278a6" x="160.454354" y="108.641484" style="stroke: #000000; stroke-width: 0.8"/>
      </g>
     </g>
    </g>
    <g id="xtick_5">
     <g id="line2d_5">
      <g>
       <use xlink:href="#m94189278a6" x="194.462676" y="108.641484" style="stroke: #000000; stroke-width: 0.8"/>
      </g>
     </g>
    </g>
    <g id="xtick_6">
     <g id="line2d_6">
      <g>
       <use xlink:href="#m94189278a6" x="228.470998" y="108.641484" style="stroke: #000000; stroke-width: 0.8"/>
      </g>
     </g>
    </g>
    <g id="xtick_7">
     <g id="line2d_7">
      <g>
       <use xlink:href="#m94189278a6" x="262.47932" y="108.641484" style="stroke: #000000; stroke-width: 0.8"/>
      </g>
     </g>
    </g>
    <g id="xtick_8">
     <g id="line2d_8">
      <g>
       <use xlink:href="#m94189278a6" x="296.487642" y="108.641484" style="stroke: #000000; stroke-width: 0.8"/>
      </g>
     </g>
    </g>
    <g id="xtick_9">
     <g id="line2d_9">
      <g>
       <use xlink:href="#m94189278a6" x="330.495963" y="108.641484" style="stroke: #000000; stroke-width: 0.8"/>
      </g>
     </g>
    </g>
    <g id="xtick_10">
     <g id="line2d_10">
      <g>
       <use xlink:href="#m94189278a6" x="364.504285" y="108.641484" style="stroke: #000000; stroke-width: 0.8"/>
      </g>
     </g>
    </g>
    <g id="xtick_11">
     <g id="line2d_11">
      <g>
       <use xlink:href="#m94189278a6" x="398.512607" y="108.641484" style="stroke: #000000; stroke-width: 0.8"/>
      </g>
     </g>
    </g>
    <g id="xtick_12">
     <g id="line2d_12">
      <g>
       <use xlink:href="#m94189278a6" x="432.520929" y="108.641484" style="stroke: #000000; stroke-width: 0.8"/>
      </g>
     </g>
    </g>
    <g id="xtick_13">
     <g id="line2d_13">
      <g>
       <use xlink:href="#m94189278a6" x="466.52925" y="108.641484" style="stroke: #000000; stroke-width: 0.8"/>
      </g>
     </g>
    </g>
    <g id="xtick_14">
     <g id="line2d_14">
      <g>
       <use xlink:href="#m94189278a6" x="500.537572" y="108.641484" style="stroke: #000000; stroke-width: 0.8"/>
      </g>
     </g>
    </g>
    <g id="xtick_15">
     <g id="line2d_15">
      <g>
       <use xlink:href="#m94189278a6" x="534.545894" y="108.641484" style="stroke: #000000; stroke-width: 0.8"/>
      </g>
     </g>
    </g>
    <g id="xtick_16">
     <g id="line2d_16">
      <g>
       <use xlink:href="#m94189278a6" x="568.554216" y="108.641484" style="stroke: #000000; stroke-width: 0.8"/>
      </g>
     </g>
    </g>
   </g>
   <g id="matplotlib.axis_2">
    <g id="ytick_1">
     <g id="line2d_17">
      <defs>
       <path id="m00d9c8afa0" d="M 0 0 
L -3.5 0 
" style="stroke: #000000; stroke-width: 0.8"/>
      </defs>
      <g>
       <use xlink:href="#m00d9c8afa0" x="53.328125" y="83.783443" style="stroke: #000000; stroke-width: 0.8"/>
      </g>
     </g>
     <g id="text_1">
      <!-- 0.58 -->
      <g transform="translate(24.0625 87.582662) scale(0.1 -0.1)">
       <defs>
        <path id="DejaVuSans-30" d="M 2034 4250 
Q 1547 4250 1301 3770 
Q 1056 3291 1056 2328 
Q 1056 1369 1301 889 
Q 1547 409 2034 409 
Q 2525 409 2770 889 
Q 3016 1369 3016 2328 
Q 3016 3291 2770 3770 
Q 2525 4250 2034 4250 
z
M 2034 4750 
Q 2819 4750 3233 4129 
Q 3647 3509 3647 2328 
Q 3647 1150 3233 529 
Q 2819 -91 2034 -91 
Q 1250 -91 836 529 
Q 422 1150 422 2328 
Q 422 3509 836 4129 
Q 1250 4750 2034 4750 
z
" transform="scale(0.015625)"/>
        <path id="DejaVuSans-2e" d="M 684 794 
L 1344 794 
L 1344 0 
L 684 0 
L 684 794 
z
" transform="scale(0.015625)"/>
        <path id="DejaVuSans-35" d="M 691 4666 
L 3169 4666 
L 3169 4134 
L 1269 4134 
L 1269 2991 
Q 1406 3038 1543 3061 
Q 1681 3084 1819 3084 
Q 2600 3084 3056 2656 
Q 3513 2228 3513 1497 
Q 3513 744 3044 326 
Q 2575 -91 1722 -91 
Q 1428 -91 1123 -41 
Q 819 9 494 109 
L 494 744 
Q 775 591 1075 516 
Q 1375 441 1709 441 
Q 2250 441 2565 725 
Q 2881 1009 2881 1497 
Q 2881 1984 2565 2268 
Q 2250 2553 1709 2553 
Q 1456 2553 1204 2497 
Q 953 2441 691 2322 
L 691 4666 
z
" transform="scale(0.015625)"/>
        <path id="DejaVuSans-38" d="M 2034 2216 
Q 1584 2216 1326 1975 
Q 1069 1734 1069 1313 
Q 1069 891 1326 650 
Q 1584 409 2034 409 
Q 2484 409 2743 651 
Q 3003 894 3003 1313 
Q 3003 1734 2745 1975 
Q 2488 2216 2034 2216 
z
M 1403 2484 
Q 997 2584 770 2862 
Q 544 3141 544 3541 
Q 544 4100 942 4425 
Q 1341 4750 2034 4750 
Q 2731 4750 3128 4425 
Q 3525 4100 3525 3541 
Q 3525 3141 3298 2862 
Q 3072 2584 2669 2484 
Q 3125 2378 3379 2068 
Q 3634 1759 3634 1313 
Q 3634 634 3220 271 
Q 2806 -91 2034 -91 
Q 1263 -91 848 271 
Q 434 634 434 1313 
Q 434 1759 690 2068 
Q 947 2378 1403 2484 
z
M 1172 3481 
Q 1172 3119 1398 2916 
Q 1625 2713 2034 2713 
Q 2441 2713 2670 2916 
Q 2900 3119 2900 3481 
Q 2900 3844 2670 4047 
Q 2441 4250 2034 4250 
Q 1625 4250 1398 4047 
Q 1172 3844 1172 3481 
z
" transform="scale(0.015625)"/>
       </defs>
       <use xlink:href="#DejaVuSans-30"/>
       <use xlink:href="#DejaVuSans-2e" transform="translate(63.623047 0)"/>
       <use xlink:href="#DejaVuSans-35" transform="translate(95.410156 0)"/>
       <use xlink:href="#DejaVuSans-38" transform="translate(159.033203 0)"/>
      </g>
     </g>
    </g>
    <g id="ytick_2">
     <g id="line2d_18">
      <g>
       <use xlink:href="#m00d9c8afa0" x="53.328125" y="53.012829" style="stroke: #000000; stroke-width: 0.8"/>
      </g>
     </g>
     <g id="text_2">
      <!-- 0.59 -->
      <g transform="translate(24.0625 56.812048) scale(0.1 -0.1)">
       <defs>
        <path id="DejaVuSans-39" d="M 703 97 
L 703 672 
Q 941 559 1184 500 
Q 1428 441 1663 441 
Q 2288 441 2617 861 
Q 2947 1281 2994 2138 
Q 2813 1869 2534 1725 
Q 2256 1581 1919 1581 
Q 1219 1581 811 2004 
Q 403 2428 403 3163 
Q 403 3881 828 4315 
Q 1253 4750 1959 4750 
Q 2769 4750 3195 4129 
Q 3622 3509 3622 2328 
Q 3622 1225 3098 567 
Q 2575 -91 1691 -91 
Q 1453 -91 1209 -44 
Q 966 3 703 97 
z
M 1959 2075 
Q 2384 2075 2632 2365 
Q 2881 2656 2881 3163 
Q 2881 3666 2632 3958 
Q 2384 4250 1959 4250 
Q 1534 4250 1286 3958 
Q 1038 3666 1038 3163 
Q 1038 2656 1286 2365 
Q 1534 2075 1959 2075 
z
" transform="scale(0.015625)"/>
       </defs>
       <use xlink:href="#DejaVuSans-30"/>
       <use xlink:href="#DejaVuSans-2e" transform="translate(63.623047 0)"/>
       <use xlink:href="#DejaVuSans-35" transform="translate(95.410156 0)"/>
       <use xlink:href="#DejaVuSans-39" transform="translate(159.033203 0)"/>
      </g>
     </g>
    </g>
    <g id="ytick_3">
     <g id="line2d_19">
      <g>
       <use xlink:href="#m00d9c8afa0" x="53.328125" y="22.242215" style="stroke: #000000; stroke-width: 0.8"/>
      </g>
     </g>
     <g id="text_3">
      <!-- 0.60 -->
      <g transform="translate(24.0625 26.041433) scale(0.1 -0.1)">
       <defs>
        <path id="DejaVuSans-36" d="M 2113 2584 
Q 1688 2584 1439 2293 
Q 1191 2003 1191 1497 
Q 1191 994 1439 701 
Q 1688 409 2113 409 
Q 2538 409 2786 701 
Q 3034 994 3034 1497 
Q 3034 2003 2786 2293 
Q 2538 2584 2113 2584 
z
M 3366 4563 
L 3366 3988 
Q 3128 4100 2886 4159 
Q 2644 4219 2406 4219 
Q 1781 4219 1451 3797 
Q 1122 3375 1075 2522 
Q 1259 2794 1537 2939 
Q 1816 3084 2150 3084 
Q 2853 3084 3261 2657 
Q 3669 2231 3669 1497 
Q 3669 778 3244 343 
Q 2819 -91 2113 -91 
Q 1303 -91 875 529 
Q 447 1150 447 2328 
Q 447 3434 972 4092 
Q 1497 4750 2381 4750 
Q 2619 4750 2861 4703 
Q 3103 4656 3366 4563 
z
" transform="scale(0.015625)"/>
       </defs>
       <use xlink:href="#DejaVuSans-30"/>
       <use xlink:href="#DejaVuSans-2e" transform="translate(63.623047 0)"/>
       <use xlink:href="#DejaVuSans-36" transform="translate(95.410156 0)"/>
       <use xlink:href="#DejaVuSans-30" transform="translate(159.033203 0)"/>
      </g>
     </g>
    </g>
    <g id="text_4">
     <!-- Price -->
     <g transform="translate(14.798438 70.118398) rotate(-90) scale(0.1 -0.1)">
      <defs>
       <path id="DejaVuSans-50" d="M 1259 4147 
L 1259 2394 
L 2053 2394 
Q 2494 2394 2734 2622 
Q 2975 2850 2975 3272 
Q 2975 3691 2734 3919 
Q 2494 4147 2053 4147 
L 1259 4147 
z
M 628 4666 
L 2053 4666 
Q 2838 4666 3239 4311 
Q 3641 3956 3641 3272 
Q 3641 2581 3239 2228 
Q 2838 1875 2053 1875 
L 1259 1875 
L 1259 0 
L 628 0 
L 628 4666 
z
" transform="scale(0.015625)"/>
       <path id="DejaVuSans-72" d="M 2631 2963 
Q 2534 3019 2420 3045 
Q 2306 3072 2169 3072 
Q 1681 3072 1420 2755 
Q 1159 2438 1159 1844 
L 1159 0 
L 581 0 
L 581 3500 
L 1159 3500 
L 1159 2956 
Q 1341 3275 1631 3429 
Q 1922 3584 2338 3584 
Q 2397 3584 2469 3576 
Q 2541 3569 2628 3553 
L 2631 2963 
z
" transform="scale(0.015625)"/>
       <path id="DejaVuSans-69" d="M 603 3500 
L 1178 3500 
L 1178 0 
L 603 0 
L 603 3500 
z
M 603 4863 
L 1178 4863 
L 1178 4134 
L 603 4134 
L 603 4863 
z
" transform="scale(0.015625)"/>
       <path id="DejaVuSans-63" d="M 3122 3366 
L 3122 2828 
Q 2878 2963 2633 3030 
Q 2388 3097 2138 3097 
Q 1578 3097 1268 2742 
Q 959 2388 959 1747 
Q 959 1106 1268 751 
Q 1578 397 2138 397 
Q 2388 397 2633 464 
Q 2878 531 3122 666 
L 3122 134 
Q 2881 22 2623 -34 
Q 2366 -91 2075 -91 
Q 1284 -91 818 406 
Q 353 903 353 1747 
Q 353 2603 823 3093 
Q 1294 3584 2113 3584 
Q 2378 3584 2631 3529 
Q 2884 3475 3122 3366 
z
" transform="scale(0.015625)"/>
       <path id="DejaVuSans-65" d="M 3597 1894 
L 3597 1613 
L 953 1613 
Q 991 1019 1311 708 
Q 1631 397 2203 397 
Q 2534 397 2845 478 
Q 3156 559 3463 722 
L 3463 178 
Q 3153 47 2828 -22 
Q 2503 -91 2169 -91 
Q 1331 -91 842 396 
Q 353 884 353 1716 
Q 353 2575 817 3079 
Q 1281 3584 2069 3584 
Q 2775 3584 3186 3129 
Q 3597 2675 3597 1894 
z
M 3022 2063 
Q 3016 2534 2758 2815 
Q 2500 3097 2075 3097 
Q 1594 3097 1305 2825 
Q 1016 2553 972 2059 
L 3022 2063 
z
" transform="scale(0.015625)"/>
      </defs>
      <use xlink:href="#DejaVuSans-50"/>
      <use xlink:href="#DejaVuSans-72" transform="translate(58.552734 0)"/>
      <use xlink:href="#DejaVuSans-69" transform="translate(99.666016 0)"/>
      <use xlink:href="#DejaVuSans-63" transform="translate(127.449219 0)"/>
      <use xlink:href="#DejaVuSans-65" transform="translate(182.429688 0)"/>
     </g>
    </g>
   </g>
   <g id="line2d_20">
    <path d="M 58.429389 54.274424 
L 59.936737 50.181932 
L 60.294336 48.735714 
L 61.453138 52.120481 
L 61.511984 51.443528 
L 62.924274 54.489818 
L 63.54894 56.120661 
L 64.789221 48.458778 
L 66.092873 50.951198 
L 66.301095 50.397327 
L 67.043453 53.412847 
L 68.324472 53.966718 
L 69.062303 51.720463 
L 69.881613 53.966718 
L 71.035888 53.628241 
L 72.090579 52.305105 
L 73.407811 41.873867 
L 73.480236 60.551629 
L 73.801623 48.151072 
L 73.837835 53.289764 
L 75.453821 50.674262 
L 76.58999 54.982148 
L 76.848005 54.459048 
L 78.753691 58.674622 
L 79.09771 56.859156 
L 80.152401 56.366826 
L 81.075822 68.459677 
L 81.659749 63.751773 
L 82.148619 68.767383 
L 83.999986 65.659551 
L 84.520542 71.813674 
L 85.842301 62.213243 
L 86.068629 62.705572 
L 86.543919 66.028799 
L 87.775146 62.982508 
L 88.847943 66.213422 
L 90.391504 78.521668 
L 90.40961 49.381896 
L 90.708364 64.859515 
L 91.400929 63.167132 
L 92.188553 64.551809 
L 92.858485 67.259623 
L 94.098765 64.213332 
L 94.338674 67.013458 
L 95.723804 64.490268 
L 96.588379 68.459677 
L 97.647597 71.013638 
L 98.317529 63.259443 
L 98.326582 63.290214 
L 99.123259 65.659551 
L 100.055732 66.521129 
L 101.133056 62.305554 
L 101.477075 65.505698 
L 102.567979 58.890016 
L 102.952738 61.443977 
L 103.704148 58.520769 
L 104.699994 57.966898 
L 105.944801 60.828565 
L 107.424989 63.690232 
L 107.434042 51.658922 
L 107.619632 61.320895 
L 108.076815 59.166952 
L 109.235618 60.243923 
L 110.584536 56.08989 
L 110.602642 57.228403 
L 112.119043 61.382436 
L 112.345372 60.5824 
L 113.028884 63.751773 
L 114.01115 62.428637 
L 115.070367 64.705662 
L 115.821778 62.244013 
L 116.337807 65.998028 
L 116.763304 64.61335 
L 118.270652 67.844265 
L 119.153334 65.628781 
L 119.782527 73.444517 
L 119.999802 73.59837 
L 121.280822 71.721362 
L 121.479991 72.736793 
L 122.738378 70.798244 
L 122.896808 71.721362 
L 124.286465 69.07509 
L 124.413209 80.090969 
L 124.426788 63.07482 
L 126.119726 69.567419 
L 127.233262 65.536469 
L 127.554649 66.028799 
L 127.866982 63.874856 
L 129.976364 65.690322 
L 130.546712 63.382526 
L 130.990316 64.305644 
L 132.348287 59.320805 
L 133.276234 60.890106 
L 134.883167 61.59783 
L 135.127601 58.705393 
L 135.249819 60.367006 
L 136.299983 47.443348 
L 136.834119 55.412937 
L 137.965761 50.151162 
L 138.327887 51.658922 
L 139.699438 56.766844 
L 140.500641 56.920697 
L 141.279211 54.305195 
L 141.301844 55.136001 
L 141.324477 53.935947 
L 175.047428 53.935947 
L 175.418606 66.767293 
L 175.436713 44.858616 
L 176.717732 58.274604 
L 178.107389 55.56679 
L 178.52836 56.920697 
L 178.913119 52.612811 
L 180.031182 51.812775 
L 180.4431 54.489818 
L 181.280515 52.120481 
L 183.190728 43.627792 
L 184.200153 47.197183 
L 184.584912 46.489459 
L 185.779927 41.227684 
L 186.25069 43.197003 
L 187.083579 38.981429 
L 187.481917 40.273795 
L 187.63582 43.04315 
L 188.90326 40.950748 
L 189.573193 44.05858 
L 190.397029 42.612361 
L 191.089594 39.843006 
L 192.433985 47.166412 
L 192.452092 34.211984 
L 193.629 40.673813 
L 194.805908 37.873687 
L 195.050343 37.873687 
L 195.493947 41.53539 
L 196.919817 40.581501 
L 198.716865 35.53512 
L 199.359638 39.104511 
L 199.993358 40.673813 
L 201.043523 35.473579 
L 201.78588 34.642772 
L 202.587083 37.412128 
L 202.673088 36.827486 
L 203.768518 41.012289 
L 204.388658 35.965909 
L 205.280393 45.07401 
L 206.280765 42.366196 
L 207.240398 45.381717 
L 207.330929 44.520139 
L 207.747374 46.0279 
L 209.444838 41.473849 
L 209.892968 45.904817 
L 210.621746 43.781645 
L 211.214727 46.150982 
L 212.531959 46.458688 
L 213.410113 42.243114 
L 213.459906 43.04315 
L 214.931041 38.181393 
L 215.890674 37.135192 
L 216.442916 41.904637 
L 216.877467 38.55064 
L 217.560979 42.735444 
L 218.434607 37.658292 
L 219.276549 41.381537 
L 219.769945 41.935408 
L 220.326713 35.750514 
L 221.146023 37.258274 
L 221.508148 33.50426 
L 222.689583 35.412038 
L 223.468153 38.889117 
L 224.513791 36.919798 
L 225.37384 40.55073 
L 226.46927 38.212164 
L 226.921927 43.627792 
L 228.03999 38.396787 
L 228.741608 41.627702 
L 229.189739 42.520049 
L 229.701241 38.827576 
L 230.353067 40.643042 
L 230.832884 42.366196 
L 231.828729 41.258454 
L 232.91058 43.966268 
L 233.467348 41.966178 
L 234.974696 46.0279 
L 235.730633 43.381627 
L 237.328513 47.381807 
L 237.731377 38.089081 
L 238.129716 40.919978 
L 239.410735 31.719564 
L 239.564638 32.488829 
L 240.098774 29.750245 
L 241.090093 31.473399 
L 242.977673 28.396338 
L 243.421277 38.827576 
L 244.693243 30.273345 
L 245.272644 28.765585 
L 246.196064 29.073291 
L 246.834311 31.627252 
L 247.965954 30.457969 
L 248.255654 31.781105 
L 248.712838 31.04261 
L 250.107021 34.02736 
L 250.713582 30.181033 
L 251.781853 37.53521 
L 252.782225 34.796625 
L 253.334466 35.658203 
L 254.375577 40.612271 
L 255.108882 39.319906 
L 255.656597 34.950478 
L 256.910457 39.5353 
L 257.901776 35.196643 
L 258.322747 35.965909 
L 258.96552 33.996589 
L 260.079056 36.673633 
L 260.346124 34.950478 
L 260.984371 35.227414 
L 293.2045 35.227414 
L 294.517206 33.53503 
L 294.521732 41.196913 
L 294.897438 44.335516 
L 295.051341 34.242754 
L 296.830283 37.627522 
L 297.803496 34.304296 
L 298.591119 35.596661 
L 299.256525 32.642682 
L 299.600544 32.611912 
L 300.691448 35.196643 
L 301.053574 37.289045 
L 301.949835 33.073471 
L 302.45681 33.319636 
L 303.561294 35.965909 
L 304.181434 36.150532 
L 305.417188 32.058041 
L 305.59825 32.427288 
L 306.489985 35.350496 
L 307.033173 34.888937 
L 307.807217 30.981069 
L 308.784956 33.411948 
L 309.663111 29.934868 
L 311.473739 15.595762 
L 311.478266 45.904817 
L 311.650275 30.488739 
L 313.537855 31.073381 
L 314.556334 34.827396 
L 315.348484 35.812056 
L 316.190426 31.288775 
L 316.815092 34.642772 
L 317.752093 30.981069 
L 318.36318 31.934958 
L 318.698146 28.457879 
L 319.725677 32.581141 
L 320.391083 29.688703 
L 321.925591 28.180943 
L 322.351088 32.611912 
L 322.378248 32.396517 
L 323.618528 27.380907 
L 324.324673 31.04261 
L 325.383891 26.057771 
L 325.628325 27.103972 
L 326.429528 25.103882 
L 328.448379 11.810977 
L 328.570596 29.99641 
L 328.69734 24.673093 
L 330.173002 25.165423 
L 331.386123 28.642502 
L 332.32765 29.99641 
L 332.988529 28.02709 
L 333.314442 29.565621 
L 334.111119 27.99632 
L 334.67694 29.104062 
L 335.491723 32.304206 
L 336.347245 32.150353 
L 337.460781 29.04252 
L 337.773114 31.227234 
L 338.895704 27.103972 
L 339.71954 26.334706 
L 340.48453 28.642502 
L 340.778757 27.319366 
L 341.466796 31.811876 
L 343.363429 20.303666 
L 343.893038 37.842916 
L 344.291376 28.488649 
L 345.472811 48.335696 
L 345.54071 26.365477 
L 346.921314 39.104511 
L 348.396976 49.320355 
L 348.591618 49.228043 
L 349.234391 42.427738 
L 350.062754 43.320085 
L 351.226082 50.458868 
L 352.484469 54.797525 
L 353.009551 47.966448 
L 353.07745 48.458778 
L 353.878653 55.259084 
L 355.10988 53.258994 
L 355.657595 50.243474 
L 356.309421 52.151252 
L 357.232841 61.320895 
L 357.794136 56.705303 
L 358.744716 61.043959 
L 359.215479 60.274694 
L 359.930678 57.166862 
L 361.121166 57.689962 
L 361.677934 59.197722 
L 362.479137 65.536469 
L 362.524402 50.58195 
L 364.457248 55.536019 
L 364.828427 59.259264 
L 365.61605 57.382256 
L 365.991756 60.767024 
L 367.005707 57.043779 
L 367.825017 62.767114 
L 369.187514 66.951917 
L 369.911766 59.197722 
L 370.255785 63.228673 
L 371.391954 59.197722 
L 371.826505 59.013099 
L 372.998887 65.07491 
L 373.587341 66.490358 
L 373.922307 63.07482 
L 375.049423 64.09025 
L 375.560926 67.167311 
L 376.126747 66.798064 
L 376.583931 65.228763 
L 378.534883 65.321075 
L 379.059965 67.382706 
L 379.141443 67.10577 
L 379.358719 65.782634 
L 380.675951 65.936487 
L 412.89608 65.936487 
L 413.511694 51.720463 
L 413.629385 78.337044 
L 414.697655 65.628781 
L 415.526018 69.228943 
L 416.186897 69.290484 
L 417.413598 66.151881 
L 417.549395 66.921147 
L 418.282699 64.490268 
L 419.038637 65.321075 
L 420.505245 68.644301 
L 420.704414 70.61362 
L 422.103125 64.61335 
L 422.890748 64.182562 
L 423.57426 66.059569 
L 424.312091 66.490358 
L 424.628951 63.536379 
L 425.661009 68.09043 
L 426.611589 64.274874 
L 426.810758 65.351845 
L 428.200415 62.736343 
L 428.336213 62.982508 
L 429.648918 61.720913 
L 430.486334 43.412397 
L 430.581392 67.413476 
L 431.432387 62.274784 
L 432.677194 64.551809 
L 432.880889 62.920967 
L 434.320339 68.490448 
L 434.91332 66.151881 
L 435.900112 68.644301 
L 436.090228 69.690502 
L 437.357668 65.321075 
L 437.597576 69.813584 
L 438.851436 64.244103 
L 439.009866 64.797974 
L 439.788436 62.459407 
L 441.590011 65.321075 
L 441.766548 62.551719 
L 442.060775 64.059479 
L 442.345949 67.751953 
L 444.292374 67.505788 
L 444.491543 64.490268 
L 445.971732 67.290394 
L 446.623558 65.321075 
L 447.551505 81.721812 
L 447.818572 64.367186 
L 448.221437 64.859515 
L 449.701626 67.690412 
L 450.498302 68.459677 
L 451.195394 63.413297 
L 451.525834 63.874856 
L 452.46736 66.921147 
L 453.340989 64.736433 
L 454.255356 67.905806 
L 455.020346 66.059569 
L 455.731018 70.829015 
L 455.943767 68.767383 
L 457.107095 72.336775 
L 458.270424 70.921326 
L 458.881511 76.767743 
L 458.999202 75.721542 
L 459.737033 80.983317 
L 460.470337 78.306274 
L 461.303226 81.075629 
L 462.009371 79.414016 
L 462.40771 80.829464 
L 464.403927 71.752133 
L 464.503512 83.168031 
L 465.177971 79.844805 
L 466.608367 77.844715 
L 467.749063 81.506418 
L 468.206246 79.260163 
L 469.392208 74.952277 
L 469.853918 75.690772 
L 470.949348 78.583209 
L 472.216788 78.983227 
L 472.470276 75.844625 
L 473.036097 74.0907 
L 474.271851 78.490897 
L 474.303537 78.029338 
L 475.679615 86.583569 
L 475.824465 84.983497 
L 476.625668 92.830004 
L 478.006272 90.460666 
L 478.843687 94.799323 
L 479.427615 96.337854 
L 481.536997 91.383785 
L 481.591316 97.845614 
L 482.089239 92.737692 
L 483.478896 95.6609 
L 483.628273 97.445596 
L 484.252939 93.599269 
L 485.144674 95.076259 
L 485.805553 93.199251 
L 486.584123 92.64538 
L 486.796872 94.15314 
L 488.544128 92.953086 
L 489.087317 96.830184 
L 489.639558 93.568498 
L 491.101641 97.722531 
L 491.192172 97.260972 
L 492.409819 93.199251 
L 492.853423 92.245362 
L 493.115965 95.507047 
L 495.04881 94.430076 
L 495.456202 91.937656 
L 496.442994 92.953086 
L 496.977129 91.322244 
L 497.429786 92.429986 
L 498.412052 90.676061 
L 531.053153 90.676061 
L 532.524288 104.030507 
L 532.528815 67.167311 
L 532.60124 93.691581 
L 532.651032 86.368175 
L 535.194965 89.691401 
L 535.548037 92.922316 
L 535.978062 91.66072 
L 536.620835 87.999017 
L 537.200236 89.383695 
L 538.177975 86.15278 
L 539.544999 88.183641 
L 540.165139 85.475827 
L 540.395995 85.075809 
L 541.514057 88.245182 
L 541.821864 87.598999 
L 542.690966 89.876025 
L 543.677758 86.61434 
L 544.813927 90.12219 
L 544.908985 89.691401 
L 545.090048 87.291293 
L 546.610976 88.922136 
L 547.276382 90.337584 
L 547.950841 88.922136 
L 549.173015 91.076079 
L 549.675464 79.475557 
L 549.784102 98.861044 
L 552.133392 91.906885 
L 552.368774 87.968247 
L 552.979861 90.952996 
L 554.12961 85.445056 
L 554.899127 88.368265 
L 555.772755 88.491347 
L 556.841026 82.737242 
L 557.438533 81.844894 
L 558.312161 85.968157 
L 558.710499 84.552708 
L 559.502649 87.075899 
L 561.068842 87.383605 
L 561.63919 82.214142 
L 562.173326 81.414106 
L 563.05148 85.168121 
L 563.55393 82.891095 
L 564.703679 85.783533 
L 564.96622 83.875755 
L 565.844374 86.15278 
L 566.586732 79.967887 
L 567.080128 87.229752 
L 567.971863 83.998837 
L 568.25251 85.414286 
L 568.55579 85.260433 
L 568.55579 85.260433 
" clip-path="url(#padf936c36b)" style="fill: none; stroke: #4169e1; stroke-width: 1.5; stroke-linecap: square"/>
   </g>
   <g id="patch_3">
    <path d="M 53.328125 108.641484 
L 53.328125 7.2 
" style="fill: none; stroke: #000000; stroke-width: 0.8; stroke-linejoin: miter; stroke-linecap: square"/>
   </g>
   <g id="patch_4">
    <path d="M 573.657054 108.641484 
L 573.657054 7.2 
" style="fill: none; stroke: #000000; stroke-width: 0.8; stroke-linejoin: miter; stroke-linecap: square"/>
   </g>
   <g id="patch_5">
    <path d="M 53.328125 108.641484 
L 573.657054 108.641484 
" style="fill: none; stroke: #000000; stroke-width: 0.8; stroke-linejoin: miter; stroke-linecap: square"/>
   </g>
   <g id="patch_6">
    <path d="M 53.328125 7.2 
L 573.657054 7.2 
" style="fill: none; stroke: #000000; stroke-width: 0.8; stroke-linejoin: miter; stroke-linecap: square"/>
   </g>
  </g>
  <g id="axes_2">
   <g id="patch_7">
    <path d="M 53.328125 219.901306 
L 573.657054 219.901306 
L 573.657054 118.459822 
L 53.328125 118.459822 
z
" style="fill: #ffffff"/>
   </g>
   <g id="matplotlib.axis_3">
    <g id="xtick_17">
     <g id="line2d_21">
      <g>
       <use xlink:href="#m94189278a6" x="58.429389" y="219.901306" style="stroke: #000000; stroke-width: 0.8"/>
      </g>
     </g>
    </g>
    <g id="xtick_18">
     <g id="line2d_22">
      <g>
       <use xlink:href="#m94189278a6" x="92.437711" y="219.901306" style="stroke: #000000; stroke-width: 0.8"/>
      </g>
     </g>
    </g>
    <g id="xtick_19">
     <g id="line2d_23">
      <g>
       <use xlink:href="#m94189278a6" x="126.446033" y="219.901306" style="stroke: #000000; stroke-width: 0.8"/>
      </g>
     </g>
    </g>
    <g id="xtick_20">
     <g id="line2d_24">
      <g>
       <use xlink:href="#m94189278a6" x="160.454354" y="219.901306" style="stroke: #000000; stroke-width: 0.8"/>
      </g>
     </g>
    </g>
    <g id="xtick_21">
     <g id="line2d_25">
      <g>
       <use xlink:href="#m94189278a6" x="194.462676" y="219.901306" style="stroke: #000000; stroke-width: 0.8"/>
      </g>
     </g>
    </g>
    <g id="xtick_22">
     <g id="line2d_26">
      <g>
       <use xlink:href="#m94189278a6" x="228.470998" y="219.901306" style="stroke: #000000; stroke-width: 0.8"/>
      </g>
     </g>
    </g>
    <g id="xtick_23">
     <g id="line2d_27">
      <g>
       <use xlink:href="#m94189278a6" x="262.47932" y="219.901306" style="stroke: #000000; stroke-width: 0.8"/>
      </g>
     </g>
    </g>
    <g id="xtick_24">
     <g id="line2d_28">
      <g>
       <use xlink:href="#m94189278a6" x="296.487642" y="219.901306" style="stroke: #000000; stroke-width: 0.8"/>
      </g>
     </g>
    </g>
    <g id="xtick_25">
     <g id="line2d_29">
      <g>
       <use xlink:href="#m94189278a6" x="330.495963" y="219.901306" style="stroke: #000000; stroke-width: 0.8"/>
      </g>
     </g>
    </g>
    <g id="xtick_26">
     <g id="line2d_30">
      <g>
       <use xlink:href="#m94189278a6" x="364.504285" y="219.901306" style="stroke: #000000; stroke-width: 0.8"/>
      </g>
     </g>
    </g>
    <g id="xtick_27">
     <g id="line2d_31">
      <g>
       <use xlink:href="#m94189278a6" x="398.512607" y="219.901306" style="stroke: #000000; stroke-width: 0.8"/>
      </g>
     </g>
    </g>
    <g id="xtick_28">
     <g id="line2d_32">
      <g>
       <use xlink:href="#m94189278a6" x="432.520929" y="219.901306" style="stroke: #000000; stroke-width: 0.8"/>
      </g>
     </g>
    </g>
    <g id="xtick_29">
     <g id="line2d_33">
      <g>
       <use xlink:href="#m94189278a6" x="466.52925" y="219.901306" style="stroke: #000000; stroke-width: 0.8"/>
      </g>
     </g>
    </g>
    <g id="xtick_30">
     <g id="line2d_34">
      <g>
       <use xlink:href="#m94189278a6" x="500.537572" y="219.901306" style="stroke: #000000; stroke-width: 0.8"/>
      </g>
     </g>
    </g>
    <g id="xtick_31">
     <g id="line2d_35">
      <g>
       <use xlink:href="#m94189278a6" x="534.545894" y="219.901306" style="stroke: #000000; stroke-width: 0.8"/>
      </g>
     </g>
    </g>
    <g id="xtick_32">
     <g id="line2d_36">
      <g>
       <use xlink:href="#m94189278a6" x="568.554216" y="219.901306" style="stroke: #000000; stroke-width: 0.8"/>
      </g>
     </g>
    </g>
   </g>
   <g id="matplotlib.axis_4">
    <g id="ytick_4">
     <g id="line2d_37">
      <g>
       <use xlink:href="#m00d9c8afa0" x="53.328125" y="201.471725" style="stroke: #000000; stroke-width: 0.8"/>
      </g>
     </g>
     <g id="text_5">
      <!-- 1000 -->
      <g transform="translate(20.878125 205.270944) scale(0.1 -0.1)">
       <defs>
        <path id="DejaVuSans-31" d="M 794 531 
L 1825 531 
L 1825 4091 
L 703 3866 
L 703 4441 
L 1819 4666 
L 2450 4666 
L 2450 531 
L 3481 531 
L 3481 0 
L 794 0 
L 794 531 
z
" transform="scale(0.015625)"/>
       </defs>
       <use xlink:href="#DejaVuSans-31"/>
       <use xlink:href="#DejaVuSans-30" transform="translate(63.623047 0)"/>
       <use xlink:href="#DejaVuSans-30" transform="translate(127.246094 0)"/>
       <use xlink:href="#DejaVuSans-30" transform="translate(190.869141 0)"/>
      </g>
     </g>
    </g>
    <g id="ytick_5">
     <g id="line2d_38">
      <g>
       <use xlink:href="#m00d9c8afa0" x="53.328125" y="161.706447" style="stroke: #000000; stroke-width: 0.8"/>
      </g>
     </g>
     <g id="text_6">
      <!-- 1020 -->
      <g transform="translate(20.878125 165.505665) scale(0.1 -0.1)">
       <defs>
        <path id="DejaVuSans-32" d="M 1228 531 
L 3431 531 
L 3431 0 
L 469 0 
L 469 531 
Q 828 903 1448 1529 
Q 2069 2156 2228 2338 
Q 2531 2678 2651 2914 
Q 2772 3150 2772 3378 
Q 2772 3750 2511 3984 
Q 2250 4219 1831 4219 
Q 1534 4219 1204 4116 
Q 875 4013 500 3803 
L 500 4441 
Q 881 4594 1212 4672 
Q 1544 4750 1819 4750 
Q 2544 4750 2975 4387 
Q 3406 4025 3406 3419 
Q 3406 3131 3298 2873 
Q 3191 2616 2906 2266 
Q 2828 2175 2409 1742 
Q 1991 1309 1228 531 
z
" transform="scale(0.015625)"/>
       </defs>
       <use xlink:href="#DejaVuSans-31"/>
       <use xlink:href="#DejaVuSans-30" transform="translate(63.623047 0)"/>
       <use xlink:href="#DejaVuSans-32" transform="translate(127.246094 0)"/>
       <use xlink:href="#DejaVuSans-30" transform="translate(190.869141 0)"/>
      </g>
     </g>
    </g>
    <g id="ytick_6">
     <g id="line2d_39">
      <g>
       <use xlink:href="#m00d9c8afa0" x="53.328125" y="121.941169" style="stroke: #000000; stroke-width: 0.8"/>
      </g>
     </g>
     <g id="text_7">
      <!-- 1040 -->
      <g transform="translate(20.878125 125.740387) scale(0.1 -0.1)">
       <defs>
        <path id="DejaVuSans-34" d="M 2419 4116 
L 825 1625 
L 2419 1625 
L 2419 4116 
z
M 2253 4666 
L 3047 4666 
L 3047 1625 
L 3713 1625 
L 3713 1100 
L 3047 1100 
L 3047 0 
L 2419 0 
L 2419 1100 
L 313 1100 
L 313 1709 
L 2253 4666 
z
" transform="scale(0.015625)"/>
       </defs>
       <use xlink:href="#DejaVuSans-31"/>
       <use xlink:href="#DejaVuSans-30" transform="translate(63.623047 0)"/>
       <use xlink:href="#DejaVuSans-34" transform="translate(127.246094 0)"/>
       <use xlink:href="#DejaVuSans-30" transform="translate(190.869141 0)"/>
      </g>
     </g>
    </g>
    <g id="text_8">
     <!-- Equity -->
     <g transform="translate(14.798438 184.991502) rotate(-90) scale(0.1 -0.1)">
      <defs>
       <path id="DejaVuSans-45" d="M 628 4666 
L 3578 4666 
L 3578 4134 
L 1259 4134 
L 1259 2753 
L 3481 2753 
L 3481 2222 
L 1259 2222 
L 1259 531 
L 3634 531 
L 3634 0 
L 628 0 
L 628 4666 
z
" transform="scale(0.015625)"/>
       <path id="DejaVuSans-71" d="M 947 1747 
Q 947 1113 1208 752 
Q 1469 391 1925 391 
Q 2381 391 2643 752 
Q 2906 1113 2906 1747 
Q 2906 2381 2643 2742 
Q 2381 3103 1925 3103 
Q 1469 3103 1208 2742 
Q 947 2381 947 1747 
z
M 2906 525 
Q 2725 213 2448 61 
Q 2172 -91 1784 -91 
Q 1150 -91 751 415 
Q 353 922 353 1747 
Q 353 2572 751 3078 
Q 1150 3584 1784 3584 
Q 2172 3584 2448 3432 
Q 2725 3281 2906 2969 
L 2906 3500 
L 3481 3500 
L 3481 -1331 
L 2906 -1331 
L 2906 525 
z
" transform="scale(0.015625)"/>
       <path id="DejaVuSans-75" d="M 544 1381 
L 544 3500 
L 1119 3500 
L 1119 1403 
Q 1119 906 1312 657 
Q 1506 409 1894 409 
Q 2359 409 2629 706 
Q 2900 1003 2900 1516 
L 2900 3500 
L 3475 3500 
L 3475 0 
L 2900 0 
L 2900 538 
Q 2691 219 2414 64 
Q 2138 -91 1772 -91 
Q 1169 -91 856 284 
Q 544 659 544 1381 
z
M 1991 3584 
L 1991 3584 
z
" transform="scale(0.015625)"/>
       <path id="DejaVuSans-74" d="M 1172 4494 
L 1172 3500 
L 2356 3500 
L 2356 3053 
L 1172 3053 
L 1172 1153 
Q 1172 725 1289 603 
Q 1406 481 1766 481 
L 2356 481 
L 2356 0 
L 1766 0 
Q 1100 0 847 248 
Q 594 497 594 1153 
L 594 3053 
L 172 3053 
L 172 3500 
L 594 3500 
L 594 4494 
L 1172 4494 
z
" transform="scale(0.015625)"/>
       <path id="DejaVuSans-79" d="M 2059 -325 
Q 1816 -950 1584 -1140 
Q 1353 -1331 966 -1331 
L 506 -1331 
L 506 -850 
L 844 -850 
Q 1081 -850 1212 -737 
Q 1344 -625 1503 -206 
L 1606 56 
L 191 3500 
L 800 3500 
L 1894 763 
L 2988 3500 
L 3597 3500 
L 2059 -325 
z
" transform="scale(0.015625)"/>
      </defs>
      <use xlink:href="#DejaVuSans-45"/>
      <use xlink:href="#DejaVuSans-71" transform="translate(63.183594 0)"/>
      <use xlink:href="#DejaVuSans-75" transform="translate(126.660156 0)"/>
      <use xlink:href="#DejaVuSans-69" transform="translate(190.039062 0)"/>
      <use xlink:href="#DejaVuSans-74" transform="translate(217.822266 0)"/>
      <use xlink:href="#DejaVuSans-79" transform="translate(257.03125 0)"/>
     </g>
    </g>
   </g>
   <g id="line2d_40">
    <path d="M 58.429389 201.471725 
L 59.936737 206.185672 
L 60.294336 207.770557 
L 61.453138 204.061251 
L 61.511984 204.803112 
L 62.924274 201.464738 
L 63.54894 199.677527 
L 64.789221 208.074045 
L 66.092873 205.342648 
L 66.301095 205.949625 
L 67.043453 202.644971 
L 68.324472 202.037994 
L 69.062303 204.499624 
L 69.881613 202.037994 
L 71.035888 202.408925 
L 72.090579 203.858926 
L 73.407811 215.29033 
L 73.480236 194.82171 
L 73.801623 208.411255 
L 73.837835 202.779855 
L 75.453821 205.646136 
L 76.58999 200.925203 
L 76.848005 201.498459 
L 78.753691 196.878688 
L 79.09771 198.868224 
L 80.152401 199.407759 
L 81.075822 186.155424 
L 81.447001 187.908914 
L 92.184026 187.908914 
L 93.510311 190.154904 
L 93.641582 187.728247 
L 94.098765 190.565043 
L 94.338674 187.454821 
L 95.723804 190.257438 
L 96.588379 185.848443 
L 97.647597 183.011648 
L 98.317529 191.624569 
L 98.326582 191.59039 
L 99.123259 188.958665 
L 99.86109 190.633399 
L 100.055732 188.001673 
L 101.395597 190.22326 
L 104.460086 190.22326 
L 105.501197 190.827061 
L 105.944801 188.923099 
L 107.424989 185.761163 
L 107.434042 199.054894 
L 107.619632 188.37911 
L 108.076815 190.759062 
L 109.235618 189.569086 
L 110.584536 194.158993 
L 110.602642 192.901019 
L 112.119043 188.311111 
L 112.345372 189.195094 
L 113.028884 185.693164 
L 114.01115 187.155135 
L 115.070367 184.639186 
L 115.821778 187.359131 
L 116.337807 183.211215 
L 116.763304 184.741184 
L 118.270652 181.171256 
L 119.153334 183.619206 
L 119.782527 174.983381 
L 119.999802 174.813384 
L 120.054121 175.765365 
L 124.413209 175.731366 
L 130.551239 175.731366 
L 132.348287 180.425662 
L 133.276234 178.679529 
L 134.883167 177.892057 
L 135.127601 181.11042 
L 135.249819 179.261573 
L 135.304138 189.875324 
L 136.834119 179.558141 
L 137.965761 185.355024 
L 138.327887 183.693929 
L 139.794496 177.930946 
L 140.020824 179.388641 
L 141.292791 178.541144 
L 176.581935 178.541144 
L 177.718104 177.645286 
L 178.107389 180.651223 
L 178.52836 179.148254 
L 178.913119 183.930427 
L 180.031182 184.818545 
L 180.4431 181.846766 
L 181.189984 182.154191 
L 185.358955 182.149542 
L 185.779927 184.924442 
L 186.25069 182.758666 
L 187.083579 187.394781 
L 187.481917 185.97349 
L 187.63582 182.927867 
L 190.007743 184.141785 
L 191.089594 188.502047 
L 192.433985 180.457532 
L 192.452092 194.687536 
L 193.629 187.589434 
L 194.805908 190.665278 
L 195.050343 190.665278 
L 195.493947 186.643021 
L 196.535058 187.352831 
L 198.015247 191.224457 
L 198.227996 190.483034 
L 199.178576 193.070345 
L 199.993358 189.110042 
L 201.043523 194.782002 
L 201.78588 195.688173 
L 202.587083 192.667603 
L 202.673088 193.305279 
L 203.768518 188.740861 
L 204.388658 194.245012 
L 205.280393 184.310691 
L 206.280765 187.264138 
L 207.240398 183.975072 
L 207.330929 184.914805 
L 207.747374 183.270272 
L 209.444838 188.437997 
L 209.892968 183.562137 
L 210.621746 185.898487 
L 211.214727 183.291256 
L 212.531959 182.952655 
L 213.210944 186.948151 
L 213.41464 186.372529 
L 216.483655 186.372529 
L 218.013636 189.642882 
L 218.434607 192.039894 
L 219.276549 187.954846 
L 219.769945 187.347153 
L 220.326713 194.133058 
L 221.146023 192.478783 
L 221.508148 196.597591 
L 222.689583 194.504426 
L 223.468153 190.689465 
L 224.513791 192.850151 
L 225.37384 188.866386 
L 226.46927 191.432201 
L 226.921927 185.490314 
L 228.03999 191.229636 
L 228.741608 187.684761 
L 229.189739 186.7057 
L 229.701241 190.756986 
L 230.353067 188.765104 
L 230.832884 186.874503 
L 231.828729 188.089889 
L 232.91058 185.118946 
L 233.467348 187.313393 
L 234.585411 184.241167 
L 234.897744 184.274928 
L 234.974696 182.856977 
L 236.432252 183.498431 
L 242.565755 183.498431 
L 243.018412 183.866038 
L 243.421277 172.595922 
L 244.693243 181.920601 
L 245.272644 183.56416 
L 246.196064 183.22874 
L 246.834311 180.444753 
L 247.965954 181.719349 
L 248.255654 180.277043 
L 248.712838 181.082051 
L 250.107021 177.828476 
L 250.713582 182.021227 
L 251.781853 174.004687 
L 252.782225 176.989926 
L 253.334466 176.050749 
L 254.375577 170.650485 
L 255.108882 172.05925 
L 255.656597 176.822216 
L 256.910457 171.824456 
L 257.901776 176.553879 
L 258.146211 176.922842 
L 258.227689 175.916581 
L 296.273515 175.916581 
L 296.830283 174.695991 
L 297.803496 178.34859 
L 298.591119 176.928135 
L 299.256525 180.17489 
L 299.691076 180.37352 
L 300.691448 177.847431 
L 301.053574 175.55711 
L 301.628448 178.723142 
L 302.416071 178.318967 
L 303.89626 180.814303 
L 304.181434 178.248488 
L 305.208965 182.637382 
L 305.485086 182.569861 
L 307.015067 182.569861 
L 307.807217 184.586112 
L 308.481676 181.995723 
L 308.784956 181.92844 
L 309.663111 185.729921 
L 311.473739 201.406825 
L 311.478266 168.270021 
L 311.650275 185.124375 
L 313.537855 184.485188 
L 314.556334 180.380934 
L 315.348484 179.304409 
L 316.190426 184.249698 
L 316.815092 180.582783 
L 317.752093 184.586112 
L 318.36318 183.543228 
L 318.698146 187.344709 
L 319.725677 182.836758 
L 320.391083 185.999052 
L 321.925591 187.808941 
L 322.351088 182.970302 
L 322.378248 183.205514 
L 322.44162 185.524028 
L 324.514789 184.581714 
L 325.383891 190.018741 
L 325.628325 188.877637 
L 326.429528 191.05916 
L 327.131147 190.689979 
L 328.570596 171.061096 
L 328.597756 176.56306 
L 330.037205 172.254293 
L 331.567186 172.254293 
L 332.32765 171.510523 
L 332.988529 173.669937 
L 333.314442 171.982895 
L 334.111119 173.703678 
L 334.67694 172.489008 
L 335.491723 168.979961 
L 336.347245 169.148665 
L 337.460781 172.556489 
L 337.773114 170.16089 
L 338.895704 174.682162 
L 339.24425 173.467492 
L 346.91226 173.467492 
L 347.369444 173.768903 
L 347.641038 170.474827 
L 348.451294 170.848382 
L 371.464379 170.848382 
L 372.156945 171.733101 
L 372.998887 166.270306 
L 373.184476 167.266665 
L 373.302167 165.548805 
L 374.537921 165.85802 
L 376.067902 165.85802 
L 377.344395 166.262837 
L 377.489245 165.571716 
L 377.638622 165.848164 
L 378.113912 167.023069 
L 379.141443 166.366505 
L 414.430588 166.366505 
L 415.526018 165.699217 
L 415.693501 169.433415 
L 416.186897 165.630065 
L 417.413598 169.156808 
L 417.549395 168.29241 
L 418.282699 171.023907 
L 419.038637 170.090358 
L 419.19254 169.122232 
L 420.573144 169.467991 
L 426.711174 169.467991 
L 428.200415 171.422639 
L 428.336213 171.146986 
L 429.648918 172.559708 
L 430.486334 193.061393 
L 430.581392 166.185234 
L 432.52329 172.100821 
L 432.677194 169.658636 
L 432.880889 171.481676 
L 434.320339 165.255825 
L 434.91332 167.869994 
L 435.900112 165.08384 
L 436.090228 163.914343 
L 437.357668 168.798712 
L 437.597576 163.776755 
L 438.851436 170.002606 
L 439.009866 169.383461 
L 439.218088 171.619264 
L 440.521741 170.346576 
L 443.586229 170.346576 
L 443.789925 169.81954 
L 444.898934 174.032249 
L 445.971732 171.278901 
L 446.623558 173.481579 
L 447.551505 155.137399 
L 447.818572 174.548502 
L 448.221437 173.997832 
L 449.701626 170.831482 
L 450.498302 169.971061 
L 451.195394 175.615424 
L 451.525834 175.099171 
L 452.46736 171.691903 
L 453.340989 174.135499 
L 454.255356 170.590564 
L 455.020346 171.616524 
L 455.731018 166.269585 
L 455.943767 168.580842 
L 457.107095 164.579262 
L 458.270424 166.166096 
L 458.881511 159.611784 
L 458.999202 160.784661 
L 459.737033 154.88578 
L 460.470337 157.576497 
L 472.74187 157.576497 
L 473.828247 158.855343 
L 474.271851 155.36594 
L 474.303537 155.88935 
L 475.679615 146.188809 
L 475.824465 148.003299 
L 476.625668 139.105321 
L 478.006272 141.792161 
L 478.843687 136.872103 
L 479.427615 135.127401 
L 480.323876 137.569984 
L 480.45062 136.453375 
L 480.4642 136.837209 
L 481.953441 136.627845 
L 538.730217 136.627845 
L 540.395995 138.952733 
L 541.514057 135.301306 
L 541.821864 136.045772 
L 542.690966 133.422417 
L 543.677758 137.180196 
L 544.813927 133.138811 
L 544.908985 133.635121 
L 545.090048 136.400279 
L 546.610976 134.52139 
L 547.276382 132.890655 
L 547.950841 134.52139 
L 549.173015 132.039838 
L 549.675464 145.404769 
L 549.784102 123.070799 
L 552.133392 131.082667 
L 552.368774 135.620363 
L 552.979861 132.181641 
L 554.12961 138.527324 
L 554.899127 135.159503 
L 555.609798 137.838927 
L 555.953818 143.004025 
L 557.144306 142.933362 
L 558.674287 143.342729 
L 558.710499 143.695845 
L 559.502649 140.800296 
L 561.068842 140.447181 
L 561.63919 146.379524 
L 562.173326 147.297625 
L 563.05148 142.989613 
L 563.55393 145.602669 
L 564.703679 142.283382 
L 564.96622 144.472699 
L 565.844374 141.859643 
L 566.586732 148.957268 
L 567.080128 140.623738 
L 567.971863 144.331453 
L 568.25251 142.707121 
L 568.55579 143.024925 
L 568.55579 143.024925 
" clip-path="url(#pd2eb1524d8)" style="fill: none; stroke: #2e8b57; stroke-width: 1.5; stroke-linecap: square"/>
   </g>
   <g id="patch_8">
    <path d="M 53.328125 219.901306 
L 53.328125 118.459822 
" style="fill: none; stroke: #000000; stroke-width: 0.8; stroke-linejoin: miter; stroke-linecap: square"/>
   </g>
   <g id="patch_9">
    <path d="M 573.657054 219.901306 
L 573.657054 118.459822 
" style="fill: none; stroke: #000000; stroke-width: 0.8; stroke-linejoin: miter; stroke-linecap: square"/>
   </g>
   <g id="patch_10">
    <path d="M 53.328125 219.901306 
L 573.657054 219.901306 
" style="fill: none; stroke: #000000; stroke-width: 0.8; stroke-linejoin: miter; stroke-linecap: square"/>
   </g>
   <g id="patch_11">
    <path d="M 53.328125 118.459822 
L 573.657054 118.459822 
" style="fill: none; stroke: #000000; stroke-width: 0.8; stroke-linejoin: miter; stroke-linecap: square"/>
   </g>
  </g>
  <g id="axes_3">
   <g id="patch_12">
    <path d="M 53.328125 330.84327 
L 573.657054 330.84327 
L 573.657054 229.401786 
L 53.328125 229.401786 
z
" style="fill: #ffffff"/>
   </g>
   <g id="matplotlib.axis_5">
    <g id="xtick_33">
     <g id="line2d_41">
      <g>
       <use xlink:href="#m94189278a6" x="58.429389" y="330.84327" style="stroke: #000000; stroke-width: 0.8"/>
      </g>
     </g>
     <g id="text_9">
      <!-- Sep -->
      <g transform="translate(49.004389 345.441707) scale(0.1 -0.1)">
       <defs>
        <path id="DejaVuSans-53" d="M 3425 4513 
L 3425 3897 
Q 3066 4069 2747 4153 
Q 2428 4238 2131 4238 
Q 1616 4238 1336 4038 
Q 1056 3838 1056 3469 
Q 1056 3159 1242 3001 
Q 1428 2844 1947 2747 
L 2328 2669 
Q 3034 2534 3370 2195 
Q 3706 1856 3706 1288 
Q 3706 609 3251 259 
Q 2797 -91 1919 -91 
Q 1588 -91 1214 -16 
Q 841 59 441 206 
L 441 856 
Q 825 641 1194 531 
Q 1563 422 1919 422 
Q 2459 422 2753 634 
Q 3047 847 3047 1241 
Q 3047 1584 2836 1778 
Q 2625 1972 2144 2069 
L 1759 2144 
Q 1053 2284 737 2584 
Q 422 2884 422 3419 
Q 422 4038 858 4394 
Q 1294 4750 2059 4750 
Q 2388 4750 2728 4690 
Q 3069 4631 3425 4513 
z
" transform="scale(0.015625)"/>
        <path id="DejaVuSans-70" d="M 1159 525 
L 1159 -1331 
L 581 -1331 
L 581 3500 
L 1159 3500 
L 1159 2969 
Q 1341 3281 1617 3432 
Q 1894 3584 2278 3584 
Q 2916 3584 3314 3078 
Q 3713 2572 3713 1747 
Q 3713 922 3314 415 
Q 2916 -91 2278 -91 
Q 1894 -91 1617 61 
Q 1341 213 1159 525 
z
M 3116 1747 
Q 3116 2381 2855 2742 
Q 2594 3103 2138 3103 
Q 1681 3103 1420 2742 
Q 1159 2381 1159 1747 
Q 1159 1113 1420 752 
Q 1681 391 2138 391 
Q 2594 391 2855 752 
Q 3116 1113 3116 1747 
z
" transform="scale(0.015625)"/>
       </defs>
       <use xlink:href="#DejaVuSans-53"/>
       <use xlink:href="#DejaVuSans-65" transform="translate(63.476562 0)"/>
       <use xlink:href="#DejaVuSans-70" transform="translate(125 0)"/>
      </g>
     </g>
    </g>
    <g id="xtick_34">
     <g id="line2d_42">
      <g>
       <use xlink:href="#m94189278a6" x="92.437711" y="330.84327" style="stroke: #000000; stroke-width: 0.8"/>
      </g>
     </g>
     <g id="text_10">
      <!-- 03 -->
      <g transform="translate(86.075211 345.441707) scale(0.1 -0.1)">
       <defs>
        <path id="DejaVuSans-33" d="M 2597 2516 
Q 3050 2419 3304 2112 
Q 3559 1806 3559 1356 
Q 3559 666 3084 287 
Q 2609 -91 1734 -91 
Q 1441 -91 1130 -33 
Q 819 25 488 141 
L 488 750 
Q 750 597 1062 519 
Q 1375 441 1716 441 
Q 2309 441 2620 675 
Q 2931 909 2931 1356 
Q 2931 1769 2642 2001 
Q 2353 2234 1838 2234 
L 1294 2234 
L 1294 2753 
L 1863 2753 
Q 2328 2753 2575 2939 
Q 2822 3125 2822 3475 
Q 2822 3834 2567 4026 
Q 2313 4219 1838 4219 
Q 1578 4219 1281 4162 
Q 984 4106 628 3988 
L 628 4550 
Q 988 4650 1302 4700 
Q 1616 4750 1894 4750 
Q 2613 4750 3031 4423 
Q 3450 4097 3450 3541 
Q 3450 3153 3228 2886 
Q 3006 2619 2597 2516 
z
" transform="scale(0.015625)"/>
       </defs>
       <use xlink:href="#DejaVuSans-30"/>
       <use xlink:href="#DejaVuSans-33" transform="translate(63.623047 0)"/>
      </g>
     </g>
    </g>
    <g id="xtick_35">
     <g id="line2d_43">
      <g>
       <use xlink:href="#m94189278a6" x="126.446033" y="330.84327" style="stroke: #000000; stroke-width: 0.8"/>
      </g>
     </g>
     <g id="text_11">
      <!-- 05 -->
      <g transform="translate(120.083533 345.441707) scale(0.1 -0.1)">
       <use xlink:href="#DejaVuSans-30"/>
       <use xlink:href="#DejaVuSans-35" transform="translate(63.623047 0)"/>
      </g>
     </g>
    </g>
    <g id="xtick_36">
     <g id="line2d_44">
      <g>
       <use xlink:href="#m94189278a6" x="160.454354" y="330.84327" style="stroke: #000000; stroke-width: 0.8"/>
      </g>
     </g>
     <g id="text_12">
      <!-- 07 -->
      <g transform="translate(154.091854 345.441707) scale(0.1 -0.1)">
       <defs>
        <path id="DejaVuSans-37" d="M 525 4666 
L 3525 4666 
L 3525 4397 
L 1831 0 
L 1172 0 
L 2766 4134 
L 525 4134 
L 525 4666 
z
" transform="scale(0.015625)"/>
       </defs>
       <use xlink:href="#DejaVuSans-30"/>
       <use xlink:href="#DejaVuSans-37" transform="translate(63.623047 0)"/>
      </g>
     </g>
    </g>
    <g id="xtick_37">
     <g id="line2d_45">
      <g>
       <use xlink:href="#m94189278a6" x="194.462676" y="330.84327" style="stroke: #000000; stroke-width: 0.8"/>
      </g>
     </g>
     <g id="text_13">
      <!-- 09 -->
      <g transform="translate(188.100176 345.441707) scale(0.1 -0.1)">
       <use xlink:href="#DejaVuSans-30"/>
       <use xlink:href="#DejaVuSans-39" transform="translate(63.623047 0)"/>
      </g>
     </g>
    </g>
    <g id="xtick_38">
     <g id="line2d_46">
      <g>
       <use xlink:href="#m94189278a6" x="228.470998" y="330.84327" style="stroke: #000000; stroke-width: 0.8"/>
      </g>
     </g>
     <g id="text_14">
      <!-- 11 -->
      <g transform="translate(222.108498 345.441707) scale(0.1 -0.1)">
       <use xlink:href="#DejaVuSans-31"/>
       <use xlink:href="#DejaVuSans-31" transform="translate(63.623047 0)"/>
      </g>
     </g>
    </g>
    <g id="xtick_39">
     <g id="line2d_47">
      <g>
       <use xlink:href="#m94189278a6" x="262.47932" y="330.84327" style="stroke: #000000; stroke-width: 0.8"/>
      </g>
     </g>
     <g id="text_15">
      <!-- 13 -->
      <g transform="translate(256.11682 345.441707) scale(0.1 -0.1)">
       <use xlink:href="#DejaVuSans-31"/>
       <use xlink:href="#DejaVuSans-33" transform="translate(63.623047 0)"/>
      </g>
     </g>
    </g>
    <g id="xtick_40">
     <g id="line2d_48">
      <g>
       <use xlink:href="#m94189278a6" x="296.487642" y="330.84327" style="stroke: #000000; stroke-width: 0.8"/>
      </g>
     </g>
     <g id="text_16">
      <!-- 15 -->
      <g transform="translate(290.125142 345.441707) scale(0.1 -0.1)">
       <use xlink:href="#DejaVuSans-31"/>
       <use xlink:href="#DejaVuSans-35" transform="translate(63.623047 0)"/>
      </g>
     </g>
    </g>
    <g id="xtick_41">
     <g id="line2d_49">
      <g>
       <use xlink:href="#m94189278a6" x="330.495963" y="330.84327" style="stroke: #000000; stroke-width: 0.8"/>
      </g>
     </g>
     <g id="text_17">
      <!-- 17 -->
      <g transform="translate(324.133463 345.441707) scale(0.1 -0.1)">
       <use xlink:href="#DejaVuSans-31"/>
       <use xlink:href="#DejaVuSans-37" transform="translate(63.623047 0)"/>
      </g>
     </g>
    </g>
    <g id="xtick_42">
     <g id="line2d_50">
      <g>
       <use xlink:href="#m94189278a6" x="364.504285" y="330.84327" style="stroke: #000000; stroke-width: 0.8"/>
      </g>
     </g>
     <g id="text_18">
      <!-- 19 -->
      <g transform="translate(358.141785 345.441707) scale(0.1 -0.1)">
       <use xlink:href="#DejaVuSans-31"/>
       <use xlink:href="#DejaVuSans-39" transform="translate(63.623047 0)"/>
      </g>
     </g>
    </g>
    <g id="xtick_43">
     <g id="line2d_51">
      <g>
       <use xlink:href="#m94189278a6" x="398.512607" y="330.84327" style="stroke: #000000; stroke-width: 0.8"/>
      </g>
     </g>
     <g id="text_19">
      <!-- 21 -->
      <g transform="translate(392.150107 345.441707) scale(0.1 -0.1)">
       <use xlink:href="#DejaVuSans-32"/>
       <use xlink:href="#DejaVuSans-31" transform="translate(63.623047 0)"/>
      </g>
     </g>
    </g>
    <g id="xtick_44">
     <g id="line2d_52">
      <g>
       <use xlink:href="#m94189278a6" x="432.520929" y="330.84327" style="stroke: #000000; stroke-width: 0.8"/>
      </g>
     </g>
     <g id="text_20">
      <!-- 23 -->
      <g transform="translate(426.158429 345.441707) scale(0.1 -0.1)">
       <use xlink:href="#DejaVuSans-32"/>
       <use xlink:href="#DejaVuSans-33" transform="translate(63.623047 0)"/>
      </g>
     </g>
    </g>
    <g id="xtick_45">
     <g id="line2d_53">
      <g>
       <use xlink:href="#m94189278a6" x="466.52925" y="330.84327" style="stroke: #000000; stroke-width: 0.8"/>
      </g>
     </g>
     <g id="text_21">
      <!-- 25 -->
      <g transform="translate(460.16675 345.441707) scale(0.1 -0.1)">
       <use xlink:href="#DejaVuSans-32"/>
       <use xlink:href="#DejaVuSans-35" transform="translate(63.623047 0)"/>
      </g>
     </g>
    </g>
    <g id="xtick_46">
     <g id="line2d_54">
      <g>
       <use xlink:href="#m94189278a6" x="500.537572" y="330.84327" style="stroke: #000000; stroke-width: 0.8"/>
      </g>
     </g>
     <g id="text_22">
      <!-- 27 -->
      <g transform="translate(494.175072 345.441707) scale(0.1 -0.1)">
       <use xlink:href="#DejaVuSans-32"/>
       <use xlink:href="#DejaVuSans-37" transform="translate(63.623047 0)"/>
      </g>
     </g>
    </g>
    <g id="xtick_47">
     <g id="line2d_55">
      <g>
       <use xlink:href="#m94189278a6" x="534.545894" y="330.84327" style="stroke: #000000; stroke-width: 0.8"/>
      </g>
     </g>
     <g id="text_23">
      <!-- 29 -->
      <g transform="translate(528.183394 345.441707) scale(0.1 -0.1)">
       <use xlink:href="#DejaVuSans-32"/>
       <use xlink:href="#DejaVuSans-39" transform="translate(63.623047 0)"/>
      </g>
     </g>
    </g>
    <g id="xtick_48">
     <g id="line2d_56">
      <g>
       <use xlink:href="#m94189278a6" x="568.554216" y="330.84327" style="stroke: #000000; stroke-width: 0.8"/>
      </g>
     </g>
     <g id="text_24">
      <!-- Oct -->
      <g transform="translate(559.908903 345.441707) scale(0.1 -0.1)">
       <defs>
        <path id="DejaVuSans-4f" d="M 2522 4238 
Q 1834 4238 1429 3725 
Q 1025 3213 1025 2328 
Q 1025 1447 1429 934 
Q 1834 422 2522 422 
Q 3209 422 3611 934 
Q 4013 1447 4013 2328 
Q 4013 3213 3611 3725 
Q 3209 4238 2522 4238 
z
M 2522 4750 
Q 3503 4750 4090 4092 
Q 4678 3434 4678 2328 
Q 4678 1225 4090 567 
Q 3503 -91 2522 -91 
Q 1538 -91 948 565 
Q 359 1222 359 2328 
Q 359 3434 948 4092 
Q 1538 4750 2522 4750 
z
" transform="scale(0.015625)"/>
       </defs>
       <use xlink:href="#DejaVuSans-4f"/>
       <use xlink:href="#DejaVuSans-63" transform="translate(78.710938 0)"/>
       <use xlink:href="#DejaVuSans-74" transform="translate(133.691406 0)"/>
      </g>
     </g>
    </g>
    <g id="text_25">
     <!-- Time -->
     <g transform="translate(301.258996 359.119832) scale(0.1 -0.1)">
      <defs>
       <path id="DejaVuSans-54" d="M -19 4666 
L 3928 4666 
L 3928 4134 
L 2272 4134 
L 2272 0 
L 1638 0 
L 1638 4134 
L -19 4134 
L -19 4666 
z
" transform="scale(0.015625)"/>
       <path id="DejaVuSans-6d" d="M 3328 2828 
Q 3544 3216 3844 3400 
Q 4144 3584 4550 3584 
Q 5097 3584 5394 3201 
Q 5691 2819 5691 2113 
L 5691 0 
L 5113 0 
L 5113 2094 
Q 5113 2597 4934 2840 
Q 4756 3084 4391 3084 
Q 3944 3084 3684 2787 
Q 3425 2491 3425 1978 
L 3425 0 
L 2847 0 
L 2847 2094 
Q 2847 2600 2669 2842 
Q 2491 3084 2119 3084 
Q 1678 3084 1418 2786 
Q 1159 2488 1159 1978 
L 1159 0 
L 581 0 
L 581 3500 
L 1159 3500 
L 1159 2956 
Q 1356 3278 1631 3431 
Q 1906 3584 2284 3584 
Q 2666 3584 2933 3390 
Q 3200 3197 3328 2828 
z
" transform="scale(0.015625)"/>
      </defs>
      <use xlink:href="#DejaVuSans-54"/>
      <use xlink:href="#DejaVuSans-69" transform="translate(57.958984 0)"/>
      <use xlink:href="#DejaVuSans-6d" transform="translate(85.742188 0)"/>
      <use xlink:href="#DejaVuSans-65" transform="translate(183.154297 0)"/>
     </g>
    </g>
    <g id="text_26">
     <!-- 2025-Oct -->
     <g transform="translate(527.033617 358.119832) scale(0.1 -0.1)">
      <defs>
       <path id="DejaVuSans-2d" d="M 313 2009 
L 1997 2009 
L 1997 1497 
L 313 1497 
L 313 2009 
z
" transform="scale(0.015625)"/>
      </defs>
      <use xlink:href="#DejaVuSans-32"/>
      <use xlink:href="#DejaVuSans-30" transform="translate(63.623047 0)"/>
      <use xlink:href="#DejaVuSans-32" transform="translate(127.246094 0)"/>
      <use xlink:href="#DejaVuSans-35" transform="translate(190.869141 0)"/>
      <use xlink:href="#DejaVuSans-2d" transform="translate(254.492188 0)"/>
      <use xlink:href="#DejaVuSans-4f" transform="translate(293.326172 0)"/>
      <use xlink:href="#DejaVuSans-63" transform="translate(372.037109 0)"/>
      <use xlink:href="#DejaVuSans-74" transform="translate(427.017578 0)"/>
     </g>
    </g>
   </g>
   <g id="matplotlib.axis_6">
    <g id="ytick_7">
     <g id="line2d_57">
      <g>
       <use xlink:href="#m00d9c8afa0" x="53.328125" y="320.776975" style="stroke: #000000; stroke-width: 0.8"/>
      </g>
     </g>
     <g id="text_27">
      <!-- 1.5 -->
      <g transform="translate(22.045313 324.576194) scale(0.1 -0.1)">
       <defs>
        <path id="DejaVuSans-2212" d="M 678 2272 
L 4684 2272 
L 4684 1741 
L 678 1741 
L 678 2272 
z
" transform="scale(0.015625)"/>
       </defs>
       <use xlink:href="#DejaVuSans-2212"/>
       <use xlink:href="#DejaVuSans-31" transform="translate(83.789062 0)"/>
       <use xlink:href="#DejaVuSans-2e" transform="translate(147.412109 0)"/>
       <use xlink:href="#DejaVuSans-35" transform="translate(179.199219 0)"/>
      </g>
     </g>
    </g>
    <g id="ytick_8">
     <g id="line2d_58">
      <g>
       <use xlink:href="#m00d9c8afa0" x="53.328125" y="291.855571" style="stroke: #000000; stroke-width: 0.8"/>
      </g>
     </g>
     <g id="text_28">
      <!-- 1.0 -->
      <g transform="translate(22.045313 295.65479) scale(0.1 -0.1)">
       <use xlink:href="#DejaVuSans-2212"/>
       <use xlink:href="#DejaVuSans-31" transform="translate(83.789062 0)"/>
       <use xlink:href="#DejaVuSans-2e" transform="translate(147.412109 0)"/>
       <use xlink:href="#DejaVuSans-30" transform="translate(179.199219 0)"/>
      </g>
     </g>
    </g>
    <g id="ytick_9">
     <g id="line2d_59">
      <g>
       <use xlink:href="#m00d9c8afa0" x="53.328125" y="262.934167" style="stroke: #000000; stroke-width: 0.8"/>
      </g>
     </g>
     <g id="text_29">
      <!-- 0.5 -->
      <g transform="translate(22.045313 266.733386) scale(0.1 -0.1)">
       <use xlink:href="#DejaVuSans-2212"/>
       <use xlink:href="#DejaVuSans-30" transform="translate(83.789062 0)"/>
       <use xlink:href="#DejaVuSans-2e" transform="translate(147.412109 0)"/>
       <use xlink:href="#DejaVuSans-35" transform="translate(179.199219 0)"/>
      </g>
     </g>
    </g>
    <g id="ytick_10">
     <g id="line2d_60">
      <g>
       <use xlink:href="#m00d9c8afa0" x="53.328125" y="234.012763" style="stroke: #000000; stroke-width: 0.8"/>
      </g>
     </g>
     <g id="text_30">
      <!-- 0.0 -->
      <g transform="translate(30.425 237.811981) scale(0.1 -0.1)">
       <use xlink:href="#DejaVuSans-30"/>
       <use xlink:href="#DejaVuSans-2e" transform="translate(63.623047 0)"/>
       <use xlink:href="#DejaVuSans-30" transform="translate(95.410156 0)"/>
      </g>
     </g>
    </g>
    <g id="text_31">
     <!-- Drawdown, % -->
     <g transform="translate(14.798438 314.601434) rotate(-90) scale(0.1 -0.1)">
      <defs>
       <path id="DejaVuSans-44" d="M 1259 4147 
L 1259 519 
L 2022 519 
Q 2988 519 3436 956 
Q 3884 1394 3884 2338 
Q 3884 3275 3436 3711 
Q 2988 4147 2022 4147 
L 1259 4147 
z
M 628 4666 
L 1925 4666 
Q 3281 4666 3915 4102 
Q 4550 3538 4550 2338 
Q 4550 1131 3912 565 
Q 3275 0 1925 0 
L 628 0 
L 628 4666 
z
" transform="scale(0.015625)"/>
       <path id="DejaVuSans-61" d="M 2194 1759 
Q 1497 1759 1228 1600 
Q 959 1441 959 1056 
Q 959 750 1161 570 
Q 1363 391 1709 391 
Q 2188 391 2477 730 
Q 2766 1069 2766 1631 
L 2766 1759 
L 2194 1759 
z
M 3341 1997 
L 3341 0 
L 2766 0 
L 2766 531 
Q 2569 213 2275 61 
Q 1981 -91 1556 -91 
Q 1019 -91 701 211 
Q 384 513 384 1019 
Q 384 1609 779 1909 
Q 1175 2209 1959 2209 
L 2766 2209 
L 2766 2266 
Q 2766 2663 2505 2880 
Q 2244 3097 1772 3097 
Q 1472 3097 1187 3025 
Q 903 2953 641 2809 
L 641 3341 
Q 956 3463 1253 3523 
Q 1550 3584 1831 3584 
Q 2591 3584 2966 3190 
Q 3341 2797 3341 1997 
z
" transform="scale(0.015625)"/>
       <path id="DejaVuSans-77" d="M 269 3500 
L 844 3500 
L 1563 769 
L 2278 3500 
L 2956 3500 
L 3675 769 
L 4391 3500 
L 4966 3500 
L 4050 0 
L 3372 0 
L 2619 2869 
L 1863 0 
L 1184 0 
L 269 3500 
z
" transform="scale(0.015625)"/>
       <path id="DejaVuSans-64" d="M 2906 2969 
L 2906 4863 
L 3481 4863 
L 3481 0 
L 2906 0 
L 2906 525 
Q 2725 213 2448 61 
Q 2172 -91 1784 -91 
Q 1150 -91 751 415 
Q 353 922 353 1747 
Q 353 2572 751 3078 
Q 1150 3584 1784 3584 
Q 2172 3584 2448 3432 
Q 2725 3281 2906 2969 
z
M 947 1747 
Q 947 1113 1208 752 
Q 1469 391 1925 391 
Q 2381 391 2643 752 
Q 2906 1113 2906 1747 
Q 2906 2381 2643 2742 
Q 2381 3103 1925 3103 
Q 1469 3103 1208 2742 
Q 947 2381 947 1747 
z
" transform="scale(0.015625)"/>
       <path id="DejaVuSans-6f" d="M 1959 3097 
Q 1497 3097 1228 2736 
Q 959 2375 959 1747 
Q 959 1119 1226 758 
Q 1494 397 1959 397 
Q 2419 397 2687 759 
Q 2956 1122 2956 1747 
Q 2956 2369 2687 2733 
Q 2419 3097 1959 3097 
z
M 1959 3584 
Q 2709 3584 3137 3096 
Q 3566 2609 3566 1747 
Q 3566 888 3137 398 
Q 2709 -91 1959 -91 
Q 1206 -91 779 398 
Q 353 888 353 1747 
Q 353 2609 779 3096 
Q 1206 3584 1959 3584 
z
" transform="scale(0.015625)"/>
       <path id="DejaVuSans-6e" d="M 3513 2113 
L 3513 0 
L 2938 0 
L 2938 2094 
Q 2938 2591 2744 2837 
Q 2550 3084 2163 3084 
Q 1697 3084 1428 2787 
Q 1159 2491 1159 1978 
L 1159 0 
L 581 0 
L 581 3500 
L 1159 3500 
L 1159 2956 
Q 1366 3272 1645 3428 
Q 1925 3584 2291 3584 
Q 2894 3584 3203 3211 
Q 3513 2838 3513 2113 
z
" transform="scale(0.015625)"/>
       <path id="DejaVuSans-2c" d="M 750 794 
L 1409 794 
L 1409 256 
L 897 -744 
L 494 -744 
L 750 256 
L 750 794 
z
" transform="scale(0.015625)"/>
       <path id="DejaVuSans-20" transform="scale(0.015625)"/>
       <path id="DejaVuSans-25" d="M 4653 2053 
Q 4381 2053 4226 1822 
Q 4072 1591 4072 1178 
Q 4072 772 4226 539 
Q 4381 306 4653 306 
Q 4919 306 5073 539 
Q 5228 772 5228 1178 
Q 5228 1588 5073 1820 
Q 4919 2053 4653 2053 
z
M 4653 2450 
Q 5147 2450 5437 2106 
Q 5728 1763 5728 1178 
Q 5728 594 5436 251 
Q 5144 -91 4653 -91 
Q 4153 -91 3862 251 
Q 3572 594 3572 1178 
Q 3572 1766 3864 2108 
Q 4156 2450 4653 2450 
z
M 1428 4353 
Q 1159 4353 1004 4120 
Q 850 3888 850 3481 
Q 850 3069 1003 2837 
Q 1156 2606 1428 2606 
Q 1700 2606 1854 2837 
Q 2009 3069 2009 3481 
Q 2009 3884 1853 4118 
Q 1697 4353 1428 4353 
z
M 4250 4750 
L 4750 4750 
L 1831 -91 
L 1331 -91 
L 4250 4750 
z
M 1428 4750 
Q 1922 4750 2215 4408 
Q 2509 4066 2509 3481 
Q 2509 2891 2217 2550 
Q 1925 2209 1428 2209 
Q 931 2209 642 2551 
Q 353 2894 353 3481 
Q 353 4063 643 4406 
Q 934 4750 1428 4750 
z
" transform="scale(0.015625)"/>
      </defs>
      <use xlink:href="#DejaVuSans-44"/>
      <use xlink:href="#DejaVuSans-72" transform="translate(77.001953 0)"/>
      <use xlink:href="#DejaVuSans-61" transform="translate(118.115234 0)"/>
      <use xlink:href="#DejaVuSans-77" transform="translate(179.394531 0)"/>
      <use xlink:href="#DejaVuSans-64" transform="translate(261.181641 0)"/>
      <use xlink:href="#DejaVuSans-6f" transform="translate(324.658203 0)"/>
      <use xlink:href="#DejaVuSans-77" transform="translate(385.839844 0)"/>
      <use xlink:href="#DejaVuSans-6e" transform="translate(467.626953 0)"/>
      <use xlink:href="#DejaVuSans-2c" transform="translate(531.005859 0)"/>
      <use xlink:href="#DejaVuSans-20" transform="translate(562.792969 0)"/>
      <use xlink:href="#DejaVuSans-25" transform="translate(594.580078 0)"/>
     </g>
    </g>
   </g>
   <g id="line2d_61">
    <path d="M 58.429389 234.012763 
L 59.936737 247.726633 
L 60.294336 252.337398 
L 61.453138 241.546244 
L 61.511984 243.704475 
L 62.924274 234.012763 
L 63.467462 234.012763 
L 64.789221 258.417989 
L 66.092873 250.478939 
L 66.301095 252.243173 
L 67.043453 242.637903 
L 68.324472 240.87367 
L 69.062303 248.028615 
L 69.881613 240.87367 
L 71.035888 241.951812 
L 72.090579 246.166369 
L 73.407811 279.392762 
L 73.480236 234.012763 
L 73.801623 273.415839 
L 73.837835 257.087517 
L 75.453821 265.39834 
L 76.58999 251.709926 
L 76.848005 253.372091 
L 78.753691 239.977 
L 79.09771 245.745689 
L 80.152401 247.310079 
L 80.659377 234.012763 
L 81.447001 239.075039 
L 92.184026 239.075039 
L 93.510311 245.55915 
L 93.641582 238.553461 
L 94.098765 246.74321 
L 94.338674 237.764087 
L 95.723804 245.855165 
L 96.5748 234.012763 
L 97.597804 234.012763 
L 98.317529 258.839073 
L 98.326582 258.740556 
L 99.123259 251.154739 
L 99.86109 255.982077 
L 100.055732 248.39626 
L 101.395597 254.799872 
L 104.460086 254.799872 
L 105.501197 256.540296 
L 105.944801 251.052223 
L 107.424989 241.938102 
L 107.434042 280.256613 
L 107.619632 249.484202 
L 108.076815 256.344294 
L 109.235618 252.914248 
L 110.584536 266.144424 
L 110.602642 262.518376 
L 112.119043 249.2882 
L 112.345372 251.836234 
L 113.028884 241.742099 
L 114.01115 245.956155 
L 115.070367 238.704058 
L 115.821778 246.544163 
L 116.337807 234.588004 
L 117.320073 234.012763 
L 118.125802 240.771288 
L 118.279706 234.012763 
L 119.153334 246.631173 
L 119.968116 234.012763 
L 120.054121 236.745634 
L 121.344194 236.648032 
L 130.551239 236.648032 
L 132.348287 250.124049 
L 133.276234 245.111387 
L 134.883167 242.850775 
L 135.127601 252.089799 
L 135.249819 246.782275 
L 135.304138 277.251397 
L 136.834119 247.633638 
L 137.965761 264.274875 
L 138.327887 259.506333 
L 139.794496 242.962414 
L 140.020824 247.147052 
L 141.292791 244.714123 
L 176.581935 244.714123 
L 177.718104 242.142364 
L 178.107389 250.771572 
L 178.52836 246.456968 
L 178.913119 260.185254 
L 180.031182 262.734792 
L 180.4431 254.203643 
L 181.189984 255.086176 
L 185.358955 255.072828 
L 185.779927 263.038795 
L 186.25069 256.821455 
L 187.083579 270.130449 
L 187.481917 266.05032 
L 187.63582 257.307185 
L 190.007743 260.792003 
L 191.089594 273.309103 
L 192.433985 250.215538 
L 192.452092 291.06592 
L 193.629 270.689245 
L 194.805908 279.519137 
L 195.050343 279.519137 
L 195.493947 267.972355 
L 196.535058 270.010022 
L 198.015247 281.124384 
L 198.227996 278.995963 
L 199.178576 286.423416 
L 199.993358 275.054487 
L 201.043523 291.337105 
L 201.78588 293.93847 
L 202.587083 285.267253 
L 202.673088 287.097844 
L 203.768518 273.994671 
L 204.388658 289.795556 
L 205.280393 261.276886 
L 206.280765 269.755409 
L 207.240398 260.313418 
L 207.330929 263.01113 
L 207.747374 258.290134 
L 209.444838 273.125232 
L 209.892968 259.127997 
L 210.621746 265.835006 
L 211.214727 258.350373 
L 212.531959 257.378343 
L 213.210944 268.848299 
L 213.41464 267.195848 
L 216.483655 267.195848 
L 218.013636 276.584123 
L 218.434607 283.465275 
L 219.276549 271.738241 
L 219.769945 269.993724 
L 220.326713 289.474168 
L 221.146023 284.725204 
L 221.508148 296.549155 
L 222.689583 290.540262 
L 223.468153 279.58857 
L 224.513791 285.791298 
L 225.37384 274.355018 
L 226.46927 281.720757 
L 226.921927 264.663254 
L 228.03999 281.139252 
L 228.741608 270.9629 
L 229.189739 268.152289 
L 229.701241 279.782405 
L 230.353067 274.064265 
L 230.832884 268.636877 
L 231.828729 272.125912 
L 232.91058 263.59716 
L 233.467348 269.896806 
L 234.585411 261.077302 
L 234.897744 261.17422 
L 234.974696 257.103679 
L 236.432252 258.945114 
L 242.565755 258.945114 
L 243.421277 234.012763 
L 244.03689 265.561091 
L 244.693243 260.751894 
L 245.272644 265.464907 
L 246.196064 264.503067 
L 246.834311 256.519801 
L 247.965954 260.174791 
L 248.255654 256.038882 
L 248.712838 258.347296 
L 250.107021 249.017455 
L 250.713582 261.040446 
L 251.781853 238.052488 
L 252.782225 246.612857 
L 253.334466 243.919707 
L 254.262413 234.012763 
L 255.108882 238.048595 
L 255.656597 251.693553 
L 256.910457 237.375957 
L 257.901776 250.924823 
L 258.146211 251.981827 
L 258.227689 249.099089 
L 296.273515 249.099089 
L 296.830283 245.602338 
L 297.803496 256.066316 
L 298.591119 251.996991 
L 299.256525 261.298305 
L 299.691076 261.867339 
L 300.691448 254.630592 
L 301.053574 248.069274 
L 301.628448 257.139331 
L 302.416071 255.981451 
L 303.89626 263.130097 
L 304.181434 255.779543 
L 305.208965 268.352858 
L 305.485086 268.159423 
L 307.015067 268.159423 
L 307.807217 273.935586 
L 308.481676 266.514631 
L 308.784956 266.321878 
L 309.663111 277.212372 
L 311.478266 234.012763 
L 311.482792 326.232293 
L 311.632169 275.020613 
L 311.650275 282.240304 
L 313.537855 280.411316 
L 314.556334 268.667284 
L 315.348484 265.586882 
L 316.190426 279.737478 
L 316.815092 269.244859 
L 317.752093 280.700103 
L 318.36318 277.715964 
L 318.698146 288.593633 
L 319.725677 275.69445 
L 320.391083 284.743131 
L 321.925591 289.922 
L 322.351088 276.076576 
L 322.378248 276.749618 
L 322.44162 283.383883 
L 324.514789 280.687519 
L 325.383891 296.245187 
L 325.628325 292.979997 
L 326.429528 299.222271 
L 327.131147 298.165886 
L 328.570596 241.999226 
L 328.597756 257.742706 
L 330.037205 245.413475 
L 331.567186 245.413475 
L 332.32765 243.285231 
L 332.988529 249.46424 
L 333.314442 244.636889 
L 334.111119 249.560787 
L 334.67694 246.085094 
L 335.491723 236.044204 
L 336.347245 236.526939 
L 337.460781 246.278188 
L 337.773114 239.42335 
L 338.895704 252.360651 
L 339.24425 248.884958 
L 346.91226 248.884958 
L 347.369444 249.747425 
L 347.641038 240.32166 
L 348.451294 241.390561 
L 371.464379 241.390561 
L 372.156945 243.92212 
L 372.840457 234.012763 
L 373.026046 234.012763 
L 373.184476 238.431172 
L 374.537921 234.89637 
L 376.067902 234.89637 
L 377.344395 236.053167 
L 377.489245 234.078233 
L 377.638622 234.868207 
L 378.113912 238.225595 
L 379.141443 236.349407 
L 414.430588 236.349407 
L 415.526018 234.442579 
L 415.693501 245.113358 
L 416.186897 234.244972 
L 417.413598 244.32293 
L 417.549395 241.852842 
L 418.282699 249.65832 
L 419.038637 246.990625 
L 419.19254 244.224126 
L 420.573144 245.212162 
L 426.711174 245.212162 
L 428.200415 250.797729 
L 428.336213 250.010028 
L 429.648918 254.046995 
L 430.486334 312.632251 
L 430.581392 235.831412 
L 432.52329 252.735689 
L 432.677194 245.756946 
L 432.880889 250.96643 
L 434.315812 234.012763 
L 434.91332 241.481886 
L 435.963484 234.012763 
L 437.357668 247.958989 
L 437.597576 234.012763 
L 438.851436 251.788084 
L 439.009866 250.020372 
L 439.218088 256.403775 
L 440.521741 252.770146 
L 443.586229 252.770146 
L 443.789925 251.265416 
L 444.898934 263.293048 
L 445.971732 255.432012 
L 446.623558 261.720841 
L 447.551505 234.012763 
L 447.818572 289.197745 
L 448.221437 287.632214 
L 449.701626 278.630408 
L 450.498302 276.184265 
L 451.195394 292.230962 
L 451.525834 290.763276 
L 452.46736 281.076551 
L 453.340989 288.023596 
L 454.255356 277.945488 
L 455.020346 280.862249 
L 455.731018 265.661118 
L 455.943767 272.23193 
L 457.107095 260.855599 
L 458.270424 265.366902 
L 458.881511 246.733258 
L 458.999202 250.067699 
L 459.696294 234.012763 
L 460.470337 241.661418 
L 472.74187 241.661418 
L 473.828247 245.296675 
L 474.398595 234.012763 
L 475.584557 238.85512 
L 475.86973 234.012763 
L 477.132644 241.788476 
L 477.549088 234.012763 
L 478.006272 241.788211 
L 478.89348 234.012763 
L 480.323876 240.889296 
L 480.45062 237.745738 
L 480.4642 238.826336 
L 481.953441 238.236919 
L 538.730217 238.236919 
L 540.165139 243.484666 
L 540.395995 244.782111 
L 541.514057 234.502352 
L 541.948608 234.012763 
L 543.030459 240.195448 
L 543.677758 244.583161 
L 544.700763 234.012763 
L 544.908985 235.408661 
L 545.090048 243.185805 
L 547.013841 234.012763 
L 547.538923 238.499036 
L 547.950841 238.598731 
L 548.521189 234.012763 
L 549.54872 234.012763 
L 549.675464 273.066933 
L 552.133392 256.436765 
L 552.368774 269.137085 
L 552.979861 259.512624 
L 554.12961 277.273227 
L 554.899127 267.847209 
L 555.609798 275.34651 
L 555.953818 289.802834 
L 557.144306 289.605059 
L 558.674287 290.750815 
L 558.710499 291.739132 
L 559.502649 283.634932 
L 561.068842 282.646615 
L 561.63919 299.250342 
L 562.173326 301.819966 
L 563.05148 289.762498 
L 563.55393 297.076044 
L 564.703679 287.785864 
L 564.96622 293.91343 
L 565.844374 286.599883 
L 566.586732 306.465057 
L 567.080128 283.140773 
L 567.971863 293.518103 
L 568.25251 288.971844 
L 568.55579 289.861329 
L 568.55579 289.861329 
" clip-path="url(#p7c316a3dc4)" style="fill: none; stroke: #7a738c; stroke-width: 1.5; stroke-linecap: square"/>
   </g>
   <g id="patch_13">
    <path d="M 53.328125 330.84327 
L 53.328125 229.401786 
" style="fill: none; stroke: #000000; stroke-width: 0.8; stroke-linejoin: miter; stroke-linecap: square"/>
   </g>
   <g id="patch_14">
    <path d="M 573.657054 330.84327 
L 573.657054 229.401786 
" style="fill: none; stroke: #000000; stroke-width: 0.8; stroke-linejoin: miter; stroke-linecap: square"/>
   </g>
   <g id="patch_15">
    <path d="M 53.328125 330.84327 
L 573.657054 330.84327 
" style="fill: none; stroke: #000000; stroke-width: 0.8; stroke-linejoin: miter; stroke-linecap: square"/>
   </g>
   <g id="patch_16">
    <path d="M 53.328125 229.401786 
L 573.657054 229.401786 
" style="fill: none; stroke: #000000; stroke-width: 0.8; stroke-linejoin: miter; stroke-linecap: square"/>
   </g>
  </g>
 </g>
 <defs>
  <clipPath id="padf936c36b">
   <rect x="53.328125" y="7.2" width="520.328929" height="101.441484"/>
  </clipPath>
  <clipPath id="pd2eb1524d8">
   <rect x="53.328125" y="118.459822" width="520.328929" height="101.441484"/>
  </clipPath>
  <clipPath id="p7c316a3dc4">
   <rect x="53.328125" y="229.401786" width="520.328929" height="101.441484"/>
  </clipPath>
 </defs>
</svg>
