<?xml version="1.0" encoding="utf-8" standalone="no"?>
<!DOCTYPE svg PUBLIC "-//W3C//DTD SVG 1.1//EN"
  "http://www.w3.org/Graphics/SVG/1.1/DTD/svg11.dtd">
<svg xmlns:xlink="http://www.w3.org/1999/xlink"   viewBox="0 0 584.399528 368.39952" xmlns="http://www.w3.org/2000/svg" version="1.1" preserveAspectRatio="xMidYMid meet" style="width:100%;height:auto;aspect-ratio:8 / 5;display:block;">
 <metadata>
  <rdf:RDF xmlns:dc="http://purl.org/dc/elements/1.1/" xmlns:cc="http://creativecommons.org/ns#" xmlns:rdf="http://www.w3.org/1999/02/22-rdf-syntax-ns#">
   <cc:Work>
    <dc:type rdf:resource="http://purl.org/dc/dcmitype/StillImage"/>
    <dc:date>2025-10-22T19:43:48.215836</dc:date>
    <dc:format>image/svg+xml</dc:format>
    <dc:creator>
     <cc:Agent>
      <dc:title>Matplotlib v3.10.6, https://matplotlib.org/</dc:title>
     </cc:Agent>
    </dc:creator>
   </cc:Work>
  </rdf:RDF>
 </metadata>
 <defs>
  <style type="text/css">*{stroke-linejoin: round; stroke-linecap: butt}</style>
 </defs>
 <g id="figure_1">
  <g id="patch_1">
   <path d="M 0 368.39952 
L 584.399528 368.39952 
L 584.399528 0 
L 0 0 
z
" style="fill: #ffffff"/>
  </g>
  <g id="axes_1">
   <g id="patch_2">
    <path d="M 53.328125 108.747437 
L 573.657054 108.747437 
L 573.657054 7.2 
L 53.328125 7.2 
z
" style="fill: #ffffff"/>
   </g>
   <g id="matplotlib.axis_1">
    <g id="xtick_1">
     <g id="line2d_1">
      <defs>
       <path id="ma2612fb474" d="M 0 0 
L 0 3.5 
" style="stroke: #000000; stroke-width: 0.8"/>
      </defs>
      <g>
       <use xlink:href="#ma2612fb474" x="58.429389" y="108.747437" style="stroke: #000000; stroke-width: 0.8"/>
      </g>
     </g>
    </g>
    <g id="xtick_2">
     <g id="line2d_2">
      <g>
       <use xlink:href="#ma2612fb474" x="92.437711" y="108.747437" style="stroke: #000000; stroke-width: 0.8"/>
      </g>
     </g>
    </g>
    <g id="xtick_3">
     <g id="line2d_3">
      <g>
       <use xlink:href="#ma2612fb474" x="126.446033" y="108.747437" style="stroke: #000000; stroke-width: 0.8"/>
      </g>
     </g>
    </g>
    <g id="xtick_4">
     <g id="line2d_4">
      <g>
       <use xlink:href="#ma2612fb474" x="160.454354" y="108.747437" style="stroke: #000000; stroke-width: 0.8"/>
      </g>
     </g>
    </g>
    <g id="xtick_5">
     <g id="line2d_5">
      <g>
       <use xlink:href="#ma2612fb474" x="194.462676" y="108.747437" style="stroke: #000000; stroke-width: 0.8"/>
      </g>
     </g>
    </g>
    <g id="xtick_6">
     <g id="line2d_6">
      <g>
       <use xlink:href="#ma2612fb474" x="228.470998" y="108.747437" style="stroke: #000000; stroke-width: 0.8"/>
      </g>
     </g>
    </g>
    <g id="xtick_7">
     <g id="line2d_7">
      <g>
       <use xlink:href="#ma2612fb474" x="262.47932" y="108.747437" style="stroke: #000000; stroke-width: 0.8"/>
      </g>
     </g>
    </g>
    <g id="xtick_8">
     <g id="line2d_8">
      <g>
       <use xlink:href="#ma2612fb474" x="296.487642" y="108.747437" style="stroke: #000000; stroke-width: 0.8"/>
      </g>
     </g>
    </g>
    <g id="xtick_9">
     <g id="line2d_9">
      <g>
       <use xlink:href="#ma2612fb474" x="330.495963" y="108.747437" style="stroke: #000000; stroke-width: 0.8"/>
      </g>
     </g>
    </g>
    <g id="xtick_10">
     <g id="line2d_10">
      <g>
       <use xlink:href="#ma2612fb474" x="364.504285" y="108.747437" style="stroke: #000000; stroke-width: 0.8"/>
      </g>
     </g>
    </g>
    <g id="xtick_11">
     <g id="line2d_11">
      <g>
       <use xlink:href="#ma2612fb474" x="398.512607" y="108.747437" style="stroke: #000000; stroke-width: 0.8"/>
      </g>
     </g>
    </g>
    <g id="xtick_12">
     <g id="line2d_12">
      <g>
       <use xlink:href="#ma2612fb474" x="432.520929" y="108.747437" style="stroke: #000000; stroke-width: 0.8"/>
      </g>
     </g>
    </g>
    <g id="xtick_13">
     <g id="line2d_13">
      <g>
       <use xlink:href="#ma2612fb474" x="466.52925" y="108.747437" style="stroke: #000000; stroke-width: 0.8"/>
      </g>
     </g>
    </g>
    <g id="xtick_14">
     <g id="line2d_14">
      <g>
       <use xlink:href="#ma2612fb474" x="500.537572" y="108.747437" style="stroke: #000000; stroke-width: 0.8"/>
      </g>
     </g>
    </g>
    <g id="xtick_15">
     <g id="line2d_15">
      <g>
       <use xlink:href="#ma2612fb474" x="534.545894" y="108.747437" style="stroke: #000000; stroke-width: 0.8"/>
      </g>
     </g>
    </g>
    <g id="xtick_16">
     <g id="line2d_16">
      <g>
       <use xlink:href="#ma2612fb474" x="568.554216" y="108.747437" style="stroke: #000000; stroke-width: 0.8"/>
      </g>
     </g>
    </g>
   </g>
   <g id="matplotlib.axis_2">
    <g id="ytick_1">
     <g id="line2d_17">
      <defs>
       <path id="mbdb055c8c2" d="M 0 0 
L -3.5 0 
" style="stroke: #000000; stroke-width: 0.8"/>
      </defs>
      <g>
       <use xlink:href="#mbdb055c8c2" x="53.328125" y="83.863432" style="stroke: #000000; stroke-width: 0.8"/>
      </g>
     </g>
     <g id="text_1">
      <!-- 0.58 -->
      <g transform="translate(24.0625 87.662651) scale(0.1 -0.1)">
       <defs>
        <path id="DejaVuSans-30" d="M 2034 4250 
Q 1547 4250 1301 3770 
Q 1056 3291 1056 2328 
Q 1056 1369 1301 889 
Q 1547 409 2034 409 
Q 2525 409 2770 889 
Q 3016 1369 3016 2328 
Q 3016 3291 2770 3770 
Q 2525 4250 2034 4250 
z
M 2034 4750 
Q 2819 4750 3233 4129 
Q 3647 3509 3647 2328 
Q 3647 1150 3233 529 
Q 2819 -91 2034 -91 
Q 1250 -91 836 529 
Q 422 1150 422 2328 
Q 422 3509 836 4129 
Q 1250 4750 2034 4750 
z
" transform="scale(0.015625)"/>
        <path id="DejaVuSans-2e" d="M 684 794 
L 1344 794 
L 1344 0 
L 684 0 
L 684 794 
z
" transform="scale(0.015625)"/>
        <path id="DejaVuSans-35" d="M 691 4666 
L 3169 4666 
L 3169 4134 
L 1269 4134 
L 1269 2991 
Q 1406 3038 1543 3061 
Q 1681 3084 1819 3084 
Q 2600 3084 3056 2656 
Q 3513 2228 3513 1497 
Q 3513 744 3044 326 
Q 2575 -91 1722 -91 
Q 1428 -91 1123 -41 
Q 819 9 494 109 
L 494 744 
Q 775 591 1075 516 
Q 1375 441 1709 441 
Q 2250 441 2565 725 
Q 2881 1009 2881 1497 
Q 2881 1984 2565 2268 
Q 2250 2553 1709 2553 
Q 1456 2553 1204 2497 
Q 953 2441 691 2322 
L 691 4666 
z
" transform="scale(0.015625)"/>
        <path id="DejaVuSans-38" d="M 2034 2216 
Q 1584 2216 1326 1975 
Q 1069 1734 1069 1313 
Q 1069 891 1326 650 
Q 1584 409 2034 409 
Q 2484 409 2743 651 
Q 3003 894 3003 1313 
Q 3003 1734 2745 1975 
Q 2488 2216 2034 2216 
z
M 1403 2484 
Q 997 2584 770 2862 
Q 544 3141 544 3541 
Q 544 4100 942 4425 
Q 1341 4750 2034 4750 
Q 2731 4750 3128 4425 
Q 3525 4100 3525 3541 
Q 3525 3141 3298 2862 
Q 3072 2584 2669 2484 
Q 3125 2378 3379 2068 
Q 3634 1759 3634 1313 
Q 3634 634 3220 271 
Q 2806 -91 2034 -91 
Q 1263 -91 848 271 
Q 434 634 434 1313 
Q 434 1759 690 2068 
Q 947 2378 1403 2484 
z
M 1172 3481 
Q 1172 3119 1398 2916 
Q 1625 2713 2034 2713 
Q 2441 2713 2670 2916 
Q 2900 3119 2900 3481 
Q 2900 3844 2670 4047 
Q 2441 4250 2034 4250 
Q 1625 4250 1398 4047 
Q 1172 3844 1172 3481 
z
" transform="scale(0.015625)"/>
       </defs>
       <use xlink:href="#DejaVuSans-30"/>
       <use xlink:href="#DejaVuSans-2e" transform="translate(63.623047 0)"/>
       <use xlink:href="#DejaVuSans-35" transform="translate(95.410156 0)"/>
       <use xlink:href="#DejaVuSans-38" transform="translate(159.033203 0)"/>
      </g>
     </g>
    </g>
    <g id="ytick_2">
     <g id="line2d_18">
      <g>
       <use xlink:href="#mbdb055c8c2" x="53.328125" y="53.060679" style="stroke: #000000; stroke-width: 0.8"/>
      </g>
     </g>
     <g id="text_2">
      <!-- 0.59 -->
      <g transform="translate(24.0625 56.859898) scale(0.1 -0.1)">
       <defs>
        <path id="DejaVuSans-39" d="M 703 97 
L 703 672 
Q 941 559 1184 500 
Q 1428 441 1663 441 
Q 2288 441 2617 861 
Q 2947 1281 2994 2138 
Q 2813 1869 2534 1725 
Q 2256 1581 1919 1581 
Q 1219 1581 811 2004 
Q 403 2428 403 3163 
Q 403 3881 828 4315 
Q 1253 4750 1959 4750 
Q 2769 4750 3195 4129 
Q 3622 3509 3622 2328 
Q 3622 1225 3098 567 
Q 2575 -91 1691 -91 
Q 1453 -91 1209 -44 
Q 966 3 703 97 
z
M 1959 2075 
Q 2384 2075 2632 2365 
Q 2881 2656 2881 3163 
Q 2881 3666 2632 3958 
Q 2384 4250 1959 4250 
Q 1534 4250 1286 3958 
Q 1038 3666 1038 3163 
Q 1038 2656 1286 2365 
Q 1534 2075 1959 2075 
z
" transform="scale(0.015625)"/>
       </defs>
       <use xlink:href="#DejaVuSans-30"/>
       <use xlink:href="#DejaVuSans-2e" transform="translate(63.623047 0)"/>
       <use xlink:href="#DejaVuSans-35" transform="translate(95.410156 0)"/>
       <use xlink:href="#DejaVuSans-39" transform="translate(159.033203 0)"/>
      </g>
     </g>
    </g>
    <g id="ytick_3">
     <g id="line2d_19">
      <g>
       <use xlink:href="#mbdb055c8c2" x="53.328125" y="22.257926" style="stroke: #000000; stroke-width: 0.8"/>
      </g>
     </g>
     <g id="text_3">
      <!-- 0.60 -->
      <g transform="translate(24.0625 26.057145) scale(0.1 -0.1)">
       <defs>
        <path id="DejaVuSans-36" d="M 2113 2584 
Q 1688 2584 1439 2293 
Q 1191 2003 1191 1497 
Q 1191 994 1439 701 
Q 1688 409 2113 409 
Q 2538 409 2786 701 
Q 3034 994 3034 1497 
Q 3034 2003 2786 2293 
Q 2538 2584 2113 2584 
z
M 3366 4563 
L 3366 3988 
Q 3128 4100 2886 4159 
Q 2644 4219 2406 4219 
Q 1781 4219 1451 3797 
Q 1122 3375 1075 2522 
Q 1259 2794 1537 2939 
Q 1816 3084 2150 3084 
Q 2853 3084 3261 2657 
Q 3669 2231 3669 1497 
Q 3669 778 3244 343 
Q 2819 -91 2113 -91 
Q 1303 -91 875 529 
Q 447 1150 447 2328 
Q 447 3434 972 4092 
Q 1497 4750 2381 4750 
Q 2619 4750 2861 4703 
Q 3103 4656 3366 4563 
z
" transform="scale(0.015625)"/>
       </defs>
       <use xlink:href="#DejaVuSans-30"/>
       <use xlink:href="#DejaVuSans-2e" transform="translate(63.623047 0)"/>
       <use xlink:href="#DejaVuSans-36" transform="translate(95.410156 0)"/>
       <use xlink:href="#DejaVuSans-30" transform="translate(159.033203 0)"/>
      </g>
     </g>
    </g>
    <g id="text_4">
     <!-- Price -->
     <g transform="translate(14.798438 70.171375) rotate(-90) scale(0.1 -0.1)">
      <defs>
       <path id="DejaVuSans-50" d="M 1259 4147 
L 1259 2394 
L 2053 2394 
Q 2494 2394 2734 2622 
Q 2975 2850 2975 3272 
Q 2975 3691 2734 3919 
Q 2494 4147 2053 4147 
L 1259 4147 
z
M 628 4666 
L 2053 4666 
Q 2838 4666 3239 4311 
Q 3641 3956 3641 3272 
Q 3641 2581 3239 2228 
Q 2838 1875 2053 1875 
L 1259 1875 
L 1259 0 
L 628 0 
L 628 4666 
z
" transform="scale(0.015625)"/>
       <path id="DejaVuSans-72" d="M 2631 2963 
Q 2534 3019 2420 3045 
Q 2306 3072 2169 3072 
Q 1681 3072 1420 2755 
Q 1159 2438 1159 1844 
L 1159 0 
L 581 0 
L 581 3500 
L 1159 3500 
L 1159 2956 
Q 1341 3275 1631 3429 
Q 1922 3584 2338 3584 
Q 2397 3584 2469 3576 
Q 2541 3569 2628 3553 
L 2631 2963 
z
" transform="scale(0.015625)"/>
       <path id="DejaVuSans-69" d="M 603 3500 
L 1178 3500 
L 1178 0 
L 603 0 
L 603 3500 
z
M 603 4863 
L 1178 4863 
L 1178 4134 
L 603 4134 
L 603 4863 
z
" transform="scale(0.015625)"/>
       <path id="DejaVuSans-63" d="M 3122 3366 
L 3122 2828 
Q 2878 2963 2633 3030 
Q 2388 3097 2138 3097 
Q 1578 3097 1268 2742 
Q 959 2388 959 1747 
Q 959 1106 1268 751 
Q 1578 397 2138 397 
Q 2388 397 2633 464 
Q 2878 531 3122 666 
L 3122 134 
Q 2881 22 2623 -34 
Q 2366 -91 2075 -91 
Q 1284 -91 818 406 
Q 353 903 353 1747 
Q 353 2603 823 3093 
Q 1294 3584 2113 3584 
Q 2378 3584 2631 3529 
Q 2884 3475 3122 3366 
z
" transform="scale(0.015625)"/>
       <path id="DejaVuSans-65" d="M 3597 1894 
L 3597 1613 
L 953 1613 
Q 991 1019 1311 708 
Q 1631 397 2203 397 
Q 2534 397 2845 478 
Q 3156 559 3463 722 
L 3463 178 
Q 3153 47 2828 -22 
Q 2503 -91 2169 -91 
Q 1331 -91 842 396 
Q 353 884 353 1716 
Q 353 2575 817 3079 
Q 1281 3584 2069 3584 
Q 2775 3584 3186 3129 
Q 3597 2675 3597 1894 
z
M 3022 2063 
Q 3016 2534 2758 2815 
Q 2500 3097 2075 3097 
Q 1594 3097 1305 2825 
Q 1016 2553 972 2059 
L 3022 2063 
z
" transform="scale(0.015625)"/>
      </defs>
      <use xlink:href="#DejaVuSans-50"/>
      <use xlink:href="#DejaVuSans-72" transform="translate(58.552734 0)"/>
      <use xlink:href="#DejaVuSans-69" transform="translate(99.666016 0)"/>
      <use xlink:href="#DejaVuSans-63" transform="translate(127.449219 0)"/>
      <use xlink:href="#DejaVuSans-65" transform="translate(182.429688 0)"/>
     </g>
    </g>
   </g>
   <g id="line2d_20">
    <path d="M 58.429389 54.323592 
L 59.936737 50.226826 
L 60.294336 48.779096 
L 61.453138 52.167399 
L 61.511984 51.489739 
L 62.924274 54.539211 
L 63.54894 56.171757 
L 64.789221 48.501872 
L 66.092873 50.996895 
L 66.301095 50.442445 
L 67.043453 53.461115 
L 68.324472 54.015565 
L 69.062303 51.766964 
L 69.881613 54.015565 
L 71.035888 53.676734 
L 72.090579 52.352216 
L 73.407811 41.910083 
L 73.480236 60.607354 
L 73.801623 48.193844 
L 73.837835 53.337904 
L 75.453821 50.71967 
L 76.58999 55.032055 
L 76.848005 54.508409 
L 78.753691 58.728386 
L 79.09771 56.911023 
L 80.152401 56.418179 
L 81.075822 68.523661 
L 81.659749 63.81084 
L 82.148619 68.831689 
L 83.999986 65.720611 
L 84.520542 71.881161 
L 85.842301 62.270702 
L 86.068629 62.763546 
L 86.543919 66.090244 
L 87.775146 63.040771 
L 88.847943 66.27506 
L 90.391504 78.596162 
L 90.40961 49.425954 
L 90.708364 64.919739 
L 91.400929 63.225588 
L 92.188553 64.611712 
L 92.858485 67.322354 
L 94.098765 64.272881 
L 94.338674 67.075932 
L 95.723804 64.550106 
L 96.588379 68.523661 
L 97.647597 71.08029 
L 98.317529 63.317996 
L 98.326582 63.348799 
L 99.123259 65.720611 
L 100.055732 66.583088 
L 101.133056 62.363111 
L 101.477075 65.566597 
L 102.567979 58.944005 
L 102.952738 61.500634 
L 103.704148 58.574372 
L 104.699994 58.019922 
L 105.944801 60.884579 
L 107.424989 63.749235 
L 107.434042 51.705358 
L 107.619632 61.377423 
L 108.076815 59.22123 
L 109.235618 60.299326 
L 110.584536 56.140955 
L 110.602642 57.280656 
L 112.119043 61.439028 
L 112.345372 60.638156 
L 113.028884 63.81084 
L 114.01115 62.486322 
L 115.070367 64.765725 
L 115.821778 62.301505 
L 116.337807 66.059441 
L 116.763304 64.673317 
L 118.270652 67.907606 
L 119.153334 65.689808 
L 119.782527 73.513707 
L 119.999802 73.667721 
L 121.280822 71.788753 
L 121.479991 72.805244 
L 122.738378 70.864671 
L 122.896808 71.788753 
L 124.286465 69.139716 
L 124.413209 80.167102 
L 124.426788 63.13318 
L 126.119726 69.63256 
L 127.233262 65.5974 
L 127.554649 66.090244 
L 127.866982 63.934051 
L 129.976364 65.751414 
L 130.546712 63.441207 
L 130.990316 64.36529 
L 132.348287 59.375244 
L 133.276234 60.946184 
L 134.883167 61.654647 
L 135.127601 58.759189 
L 135.249819 60.422537 
L 136.299983 47.485381 
L 136.834119 55.463294 
L 137.965761 50.196023 
L 138.327887 51.705358 
L 139.699438 56.818615 
L 140.500641 56.972629 
L 141.279211 54.354395 
L 141.301844 55.186069 
L 141.324477 53.984762 
L 175.047428 53.984762 
L 175.418606 66.82951 
L 175.436713 44.89795 
L 176.717732 58.32795 
L 178.107389 55.617308 
L 178.52836 56.972629 
L 178.913119 52.660243 
L 180.031182 51.859372 
L 180.4431 54.539211 
L 181.280515 52.167399 
L 183.190728 43.665839 
L 184.200153 47.238959 
L 184.584912 46.530495 
L 185.779927 41.263225 
L 186.25069 43.234601 
L 187.083579 39.014624 
L 187.481917 40.308339 
L 187.63582 43.080587 
L 188.90326 40.986 
L 189.573193 44.097078 
L 190.397029 42.649349 
L 191.089594 39.877101 
L 192.433985 47.208156 
L 192.452092 34.240197 
L 193.629 40.708775 
L 194.805908 37.905725 
L 195.050343 37.905725 
L 195.493947 41.571252 
L 196.919817 40.616367 
L 198.716865 35.564715 
L 199.359638 39.137835 
L 199.993358 40.708775 
L 201.043523 35.50311 
L 201.78588 34.671435 
L 202.587083 37.443683 
L 202.673088 36.858431 
L 203.768518 41.047605 
L 204.388658 35.995954 
L 205.280393 45.113569 
L 206.280765 42.402927 
L 207.240398 45.421596 
L 207.330929 44.559119 
L 207.747374 46.068454 
L 209.444838 41.509647 
L 209.892968 45.945243 
L 210.621746 43.819853 
L 211.214727 46.191665 
L 212.531959 46.499693 
L 213.410113 42.279716 
L 213.459906 43.080587 
L 214.931041 38.213752 
L 215.890674 37.166459 
L 216.442916 41.940885 
L 216.877467 38.583385 
L 217.560979 42.77256 
L 218.434607 37.690105 
L 219.276549 41.417238 
L 219.769945 41.971688 
L 220.326713 35.780335 
L 221.146023 37.28967 
L 221.508148 33.531734 
L 222.689583 35.441504 
L 223.468153 38.922215 
L 224.513791 36.950839 
L 225.37384 40.585564 
L 226.46927 38.244555 
L 226.921927 43.665839 
L 228.03999 38.429371 
L 228.741608 41.66366 
L 229.189739 42.55694 
L 229.701241 38.86061 
L 230.353067 40.677972 
L 230.832884 42.402927 
L 231.828729 41.294027 
L 232.91058 44.00467 
L 233.467348 42.002491 
L 234.974696 46.068454 
L 235.730633 43.419417 
L 237.328513 47.423775 
L 237.731377 38.121344 
L 238.129716 40.955197 
L 239.410735 31.745174 
L 239.564638 32.515243 
L 240.098774 29.773798 
L 241.090093 31.498752 
L 242.977673 28.418477 
L 243.421277 38.86061 
L 244.693243 30.297445 
L 245.272644 28.78811 
L 246.196064 29.096137 
L 246.834311 31.652766 
L 247.965954 30.482261 
L 248.255654 31.806779 
L 248.712838 31.067513 
L 250.107021 34.05538 
L 250.713582 30.205036 
L 251.781853 37.566894 
L 252.782225 34.825449 
L 253.334466 35.687926 
L 254.375577 40.64717 
L 255.108882 39.353454 
L 255.656597 34.979463 
L 256.910457 39.569073 
L 257.901776 35.225885 
L 258.322747 35.995954 
L 258.96552 34.024578 
L 260.079056 36.704417 
L 260.346124 34.979463 
L 260.984371 35.256688 
L 293.2045 35.256688 
L 294.517206 33.562536 
L 294.521732 41.232422 
L 294.897438 44.374303 
L 295.051341 34.271 
L 296.830283 37.659303 
L 297.803496 34.332605 
L 298.591119 35.626321 
L 299.256525 32.669257 
L 299.600544 32.638454 
L 300.691448 35.225885 
L 301.053574 37.320472 
L 301.949835 33.100495 
L 302.45681 33.346917 
L 303.561294 35.995954 
L 304.181434 36.18077 
L 305.417188 32.084004 
L 305.59825 32.453637 
L 306.489985 35.379899 
L 307.033173 34.917858 
L 307.807217 31.005908 
L 308.784956 33.439325 
L 309.663111 29.958614 
L 311.473739 15.604531 
L 311.478266 45.945243 
L 311.650275 30.513064 
L 313.537855 31.098316 
L 314.556334 34.856252 
L 315.348484 35.84194 
L 316.190426 31.313935 
L 316.815092 34.671435 
L 317.752093 31.005908 
L 318.36318 31.960793 
L 318.698146 28.480082 
L 319.725677 32.607651 
L 320.391083 29.712192 
L 321.925591 28.202857 
L 322.351088 32.638454 
L 322.378248 32.422835 
L 323.618528 27.401986 
L 324.324673 31.067513 
L 325.383891 26.077467 
L 325.628325 27.124761 
L 326.429528 25.122582 
L 328.448379 11.815793 
L 328.570596 30.02022 
L 328.69734 24.691343 
L 330.173002 25.184187 
L 331.386123 28.664899 
L 332.32765 30.02022 
L 332.988529 28.048844 
L 333.314442 29.588981 
L 334.111119 28.018041 
L 334.67694 29.12694 
L 335.491723 32.330426 
L 336.347245 32.176412 
L 337.460781 29.065334 
L 337.773114 31.25233 
L 338.895704 27.124761 
L 339.71954 26.354692 
L 340.48453 28.664899 
L 340.778757 27.34038 
L 341.466796 31.837582 
L 343.363429 20.317352 
L 343.893038 37.874922 
L 344.291376 28.510885 
L 345.472811 48.378661 
L 345.54071 26.385495 
L 346.921314 39.137835 
L 348.396976 49.364349 
L 348.591618 49.271941 
L 349.234391 42.464532 
L 350.062754 43.357812 
L 351.226082 50.504051 
L 352.484469 54.847239 
L 353.009551 48.009028 
L 353.07745 48.501872 
L 353.878653 55.30928 
L 355.10988 53.307101 
L 355.657595 50.288431 
L 356.309421 52.198202 
L 357.232841 61.377423 
L 357.794136 56.75701 
L 358.744716 61.100198 
L 359.215479 60.330129 
L 359.930678 57.219051 
L 361.121166 57.742698 
L 361.677934 59.252033 
L 362.479137 65.5974 
L 362.524402 50.627262 
L 364.457248 55.586505 
L 364.828427 59.313638 
L 365.61605 57.43467 
L 365.991756 60.822973 
L 367.005707 57.09584 
L 367.825017 62.825152 
L 369.187514 67.014326 
L 369.911766 59.252033 
L 370.255785 63.287193 
L 371.391954 59.252033 
L 371.826505 59.067216 
L 372.998887 65.135358 
L 373.587341 66.552285 
L 373.922307 63.13318 
L 375.049423 64.14967 
L 375.560926 67.229946 
L 376.126747 66.860313 
L 376.583931 65.289372 
L 378.534883 65.38178 
L 379.059965 67.445565 
L 379.141443 67.16834 
L 379.358719 65.843822 
L 380.675951 65.997836 
L 412.89608 65.997836 
L 413.511694 51.766964 
L 413.629385 78.411345 
L 414.697655 65.689808 
L 415.526018 69.29373 
L 416.186897 69.355336 
L 417.413598 66.213455 
L 417.549395 66.983524 
L 418.282699 64.550106 
L 419.038637 65.38178 
L 420.505245 68.708478 
L 420.704414 70.679854 
L 422.103125 64.673317 
L 422.890748 64.242079 
L 423.57426 66.121047 
L 424.312091 66.552285 
L 424.628951 63.595221 
L 425.661009 68.154028 
L 426.611589 64.334487 
L 426.810758 65.412583 
L 428.200415 62.794349 
L 428.336213 63.040771 
L 429.648918 61.777858 
L 430.486334 43.45022 
L 430.581392 67.476368 
L 431.432387 62.332308 
L 432.677194 64.611712 
L 432.880889 62.979166 
L 434.320339 68.554464 
L 434.91332 66.213455 
L 435.900112 68.708478 
L 436.090228 69.755771 
L 437.357668 65.38178 
L 437.597576 69.878982 
L 438.851436 64.303684 
L 439.009866 64.858134 
L 439.788436 62.517124 
L 441.590011 65.38178 
L 441.766548 62.609533 
L 442.060775 64.118868 
L 442.345949 67.815198 
L 444.292374 67.568776 
L 444.491543 64.550106 
L 445.971732 67.353157 
L 446.623558 65.38178 
L 447.551505 81.799648 
L 447.818572 64.426895 
L 448.221437 64.919739 
L 449.701626 67.753592 
L 450.498302 68.523661 
L 451.195394 63.47201 
L 451.525834 63.934051 
L 452.46736 66.983524 
L 453.340989 64.796528 
L 454.255356 67.969212 
L 455.020346 66.121047 
L 455.731018 70.895473 
L 455.943767 68.831689 
L 457.107095 72.404808 
L 458.270424 70.987882 
L 458.881511 76.840405 
L 458.999202 75.793111 
L 459.737033 81.060382 
L 460.470337 78.380542 
L 461.303226 81.15279 
L 462.009371 79.489441 
L 462.40771 80.906368 
L 464.403927 71.819556 
L 464.503512 83.247377 
L 465.177971 79.92068 
L 466.608367 77.918501 
L 467.749063 81.584029 
L 468.206246 79.335428 
L 469.392208 75.023042 
L 469.853918 75.762308 
L 470.949348 78.657767 
L 472.216788 79.058203 
L 472.470276 75.916322 
L 473.036097 74.160565 
L 474.271851 78.565359 
L 474.303537 78.103318 
L 475.679615 86.666483 
L 475.824465 85.06474 
L 476.625668 92.919442 
L 478.006272 90.54763 
L 478.843687 94.890818 
L 479.427615 96.430956 
L 481.536997 91.471713 
L 481.591316 97.940291 
L 482.089239 92.827034 
L 483.478896 95.753295 
L 483.628273 97.539855 
L 484.252939 93.689511 
L 485.144674 95.168043 
L 485.805553 93.289075 
L 486.584123 92.734625 
L 486.796872 94.24396 
L 488.544128 93.042653 
L 489.087317 96.9238 
L 489.639558 93.658708 
L 491.101641 97.81708 
L 491.192172 97.355038 
L 492.409819 93.289075 
L 492.853423 92.33419 
L 493.115965 95.599281 
L 495.04881 94.521185 
L 495.456202 92.026162 
L 496.442994 93.042653 
L 496.977129 91.410107 
L 497.429786 92.519006 
L 498.412052 90.763249 
L 531.053153 90.763249 
L 532.524288 104.131644 
L 532.528815 67.229946 
L 532.60124 93.781919 
L 532.651032 86.450864 
L 535.194965 89.777561 
L 535.548037 93.01185 
L 535.978062 91.748937 
L 536.620835 88.08341 
L 537.200236 89.469534 
L 538.177975 86.235244 
L 539.544999 88.268226 
L 540.165139 85.557584 
L 540.395995 85.157148 
L 541.514057 88.329832 
L 541.821864 87.682974 
L 542.690966 89.962378 
L 543.677758 86.697286 
L 544.813927 90.2088 
L 544.908985 89.777561 
L 545.090048 87.374946 
L 546.610976 89.007492 
L 547.276382 90.424419 
L 547.950841 89.007492 
L 549.173015 91.163685 
L 549.675464 79.551047 
L 549.784102 98.956782 
L 552.133392 91.995359 
L 552.368774 88.052607 
L 552.979861 91.040474 
L 554.12961 85.526781 
L 554.899127 88.453043 
L 555.772755 88.576254 
L 556.841026 82.816139 
L 557.438533 81.922859 
L 558.312161 86.050428 
L 558.710499 84.633501 
L 559.502649 87.159327 
L 561.068842 87.467355 
L 561.63919 82.292492 
L 562.173326 81.49162 
L 563.05148 85.249556 
L 563.55393 82.970153 
L 564.703679 85.865611 
L 564.96622 83.955841 
L 565.844374 86.235244 
L 566.586732 80.043891 
L 567.080128 87.313341 
L 567.971863 84.079052 
L 568.25251 85.495978 
L 568.55579 85.341965 
L 568.55579 85.341965 
" clip-path="url(#p9ac26e9e1c)" style="fill: none; stroke: #4169e1; stroke-width: 1.5; stroke-linecap: square"/>
   </g>
   <g id="patch_3">
    <path d="M 53.328125 108.747437 
L 53.328125 7.2 
" style="fill: none; stroke: #000000; stroke-width: 0.8; stroke-linejoin: miter; stroke-linecap: square"/>
   </g>
   <g id="patch_4">
    <path d="M 573.657054 108.747437 
L 573.657054 7.2 
" style="fill: none; stroke: #000000; stroke-width: 0.8; stroke-linejoin: miter; stroke-linecap: square"/>
   </g>
   <g id="patch_5">
    <path d="M 53.328125 108.747437 
L 573.657054 108.747437 
" style="fill: none; stroke: #000000; stroke-width: 0.8; stroke-linejoin: miter; stroke-linecap: square"/>
   </g>
   <g id="patch_6">
    <path d="M 53.328125 7.2 
L 573.657054 7.2 
" style="fill: none; stroke: #000000; stroke-width: 0.8; stroke-linejoin: miter; stroke-linecap: square"/>
   </g>
  </g>
  <g id="axes_2">
   <g id="patch_7">
    <path d="M 53.328125 219.795353 
L 573.657054 219.795353 
L 573.657054 118.247917 
L 53.328125 118.247917 
z
" style="fill: #ffffff"/>
   </g>
   <g id="matplotlib.axis_3">
    <g id="xtick_17">
     <g id="line2d_21">
      <g>
       <use xlink:href="#ma2612fb474" x="58.429389" y="219.795353" style="stroke: #000000; stroke-width: 0.8"/>
      </g>
     </g>
    </g>
    <g id="xtick_18">
     <g id="line2d_22">
      <g>
       <use xlink:href="#ma2612fb474" x="92.437711" y="219.795353" style="stroke: #000000; stroke-width: 0.8"/>
      </g>
     </g>
    </g>
    <g id="xtick_19">
     <g id="line2d_23">
      <g>
       <use xlink:href="#ma2612fb474" x="126.446033" y="219.795353" style="stroke: #000000; stroke-width: 0.8"/>
      </g>
     </g>
    </g>
    <g id="xtick_20">
     <g id="line2d_24">
      <g>
       <use xlink:href="#ma2612fb474" x="160.454354" y="219.795353" style="stroke: #000000; stroke-width: 0.8"/>
      </g>
     </g>
    </g>
    <g id="xtick_21">
     <g id="line2d_25">
      <g>
       <use xlink:href="#ma2612fb474" x="194.462676" y="219.795353" style="stroke: #000000; stroke-width: 0.8"/>
      </g>
     </g>
    </g>
    <g id="xtick_22">
     <g id="line2d_26">
      <g>
       <use xlink:href="#ma2612fb474" x="228.470998" y="219.795353" style="stroke: #000000; stroke-width: 0.8"/>
      </g>
     </g>
    </g>
    <g id="xtick_23">
     <g id="line2d_27">
      <g>
       <use xlink:href="#ma2612fb474" x="262.47932" y="219.795353" style="stroke: #000000; stroke-width: 0.8"/>
      </g>
     </g>
    </g>
    <g id="xtick_24">
     <g id="line2d_28">
      <g>
       <use xlink:href="#ma2612fb474" x="296.487642" y="219.795353" style="stroke: #000000; stroke-width: 0.8"/>
      </g>
     </g>
    </g>
    <g id="xtick_25">
     <g id="line2d_29">
      <g>
       <use xlink:href="#ma2612fb474" x="330.495963" y="219.795353" style="stroke: #000000; stroke-width: 0.8"/>
      </g>
     </g>
    </g>
    <g id="xtick_26">
     <g id="line2d_30">
      <g>
       <use xlink:href="#ma2612fb474" x="364.504285" y="219.795353" style="stroke: #000000; stroke-width: 0.8"/>
      </g>
     </g>
    </g>
    <g id="xtick_27">
     <g id="line2d_31">
      <g>
       <use xlink:href="#ma2612fb474" x="398.512607" y="219.795353" style="stroke: #000000; stroke-width: 0.8"/>
      </g>
     </g>
    </g>
    <g id="xtick_28">
     <g id="line2d_32">
      <g>
       <use xlink:href="#ma2612fb474" x="432.520929" y="219.795353" style="stroke: #000000; stroke-width: 0.8"/>
      </g>
     </g>
    </g>
    <g id="xtick_29">
     <g id="line2d_33">
      <g>
       <use xlink:href="#ma2612fb474" x="466.52925" y="219.795353" style="stroke: #000000; stroke-width: 0.8"/>
      </g>
     </g>
    </g>
    <g id="xtick_30">
     <g id="line2d_34">
      <g>
       <use xlink:href="#ma2612fb474" x="500.537572" y="219.795353" style="stroke: #000000; stroke-width: 0.8"/>
      </g>
     </g>
    </g>
    <g id="xtick_31">
     <g id="line2d_35">
      <g>
       <use xlink:href="#ma2612fb474" x="534.545894" y="219.795353" style="stroke: #000000; stroke-width: 0.8"/>
      </g>
     </g>
    </g>
    <g id="xtick_32">
     <g id="line2d_36">
      <g>
       <use xlink:href="#ma2612fb474" x="568.554216" y="219.795353" style="stroke: #000000; stroke-width: 0.8"/>
      </g>
     </g>
    </g>
   </g>
   <g id="matplotlib.axis_4">
    <g id="ytick_4">
     <g id="line2d_37">
      <g>
       <use xlink:href="#mbdb055c8c2" x="53.328125" y="200.939244" style="stroke: #000000; stroke-width: 0.8"/>
      </g>
     </g>
     <g id="text_5">
      <!-- 1000 -->
      <g transform="translate(20.878125 204.738463) scale(0.1 -0.1)">
       <defs>
        <path id="DejaVuSans-31" d="M 794 531 
L 1825 531 
L 1825 4091 
L 703 3866 
L 703 4441 
L 1819 4666 
L 2450 4666 
L 2450 531 
L 3481 531 
L 3481 0 
L 794 0 
L 794 531 
z
" transform="scale(0.015625)"/>
       </defs>
       <use xlink:href="#DejaVuSans-31"/>
       <use xlink:href="#DejaVuSans-30" transform="translate(63.623047 0)"/>
       <use xlink:href="#DejaVuSans-30" transform="translate(127.246094 0)"/>
       <use xlink:href="#DejaVuSans-30" transform="translate(190.869141 0)"/>
      </g>
     </g>
    </g>
    <g id="ytick_5">
     <g id="line2d_38">
      <g>
       <use xlink:href="#mbdb055c8c2" x="53.328125" y="180.172371" style="stroke: #000000; stroke-width: 0.8"/>
      </g>
     </g>
     <g id="text_6">
      <!-- 1010 -->
      <g transform="translate(20.878125 183.97159) scale(0.1 -0.1)">
       <use xlink:href="#DejaVuSans-31"/>
       <use xlink:href="#DejaVuSans-30" transform="translate(63.623047 0)"/>
       <use xlink:href="#DejaVuSans-31" transform="translate(127.246094 0)"/>
       <use xlink:href="#DejaVuSans-30" transform="translate(190.869141 0)"/>
      </g>
     </g>
    </g>
    <g id="ytick_6">
     <g id="line2d_39">
      <g>
       <use xlink:href="#mbdb055c8c2" x="53.328125" y="159.405498" style="stroke: #000000; stroke-width: 0.8"/>
      </g>
     </g>
     <g id="text_7">
      <!-- 1020 -->
      <g transform="translate(20.878125 163.204717) scale(0.1 -0.1)">
       <defs>
        <path id="DejaVuSans-32" d="M 1228 531 
L 3431 531 
L 3431 0 
L 469 0 
L 469 531 
Q 828 903 1448 1529 
Q 2069 2156 2228 2338 
Q 2531 2678 2651 2914 
Q 2772 3150 2772 3378 
Q 2772 3750 2511 3984 
Q 2250 4219 1831 4219 
Q 1534 4219 1204 4116 
Q 875 4013 500 3803 
L 500 4441 
Q 881 4594 1212 4672 
Q 1544 4750 1819 4750 
Q 2544 4750 2975 4387 
Q 3406 4025 3406 3419 
Q 3406 3131 3298 2873 
Q 3191 2616 2906 2266 
Q 2828 2175 2409 1742 
Q 1991 1309 1228 531 
z
" transform="scale(0.015625)"/>
       </defs>
       <use xlink:href="#DejaVuSans-31"/>
       <use xlink:href="#DejaVuSans-30" transform="translate(63.623047 0)"/>
       <use xlink:href="#DejaVuSans-32" transform="translate(127.246094 0)"/>
       <use xlink:href="#DejaVuSans-30" transform="translate(190.869141 0)"/>
      </g>
     </g>
    </g>
    <g id="ytick_7">
     <g id="line2d_40">
      <g>
       <use xlink:href="#mbdb055c8c2" x="53.328125" y="138.638625" style="stroke: #000000; stroke-width: 0.8"/>
      </g>
     </g>
     <g id="text_8">
      <!-- 1030 -->
      <g transform="translate(20.878125 142.437844) scale(0.1 -0.1)">
       <defs>
        <path id="DejaVuSans-33" d="M 2597 2516 
Q 3050 2419 3304 2112 
Q 3559 1806 3559 1356 
Q 3559 666 3084 287 
Q 2609 -91 1734 -91 
Q 1441 -91 1130 -33 
Q 819 25 488 141 
L 488 750 
Q 750 597 1062 519 
Q 1375 441 1716 441 
Q 2309 441 2620 675 
Q 2931 909 2931 1356 
Q 2931 1769 2642 2001 
Q 2353 2234 1838 2234 
L 1294 2234 
L 1294 2753 
L 1863 2753 
Q 2328 2753 2575 2939 
Q 2822 3125 2822 3475 
Q 2822 3834 2567 4026 
Q 2313 4219 1838 4219 
Q 1578 4219 1281 4162 
Q 984 4106 628 3988 
L 628 4550 
Q 988 4650 1302 4700 
Q 1616 4750 1894 4750 
Q 2613 4750 3031 4423 
Q 3450 4097 3450 3541 
Q 3450 3153 3228 2886 
Q 3006 2619 2597 2516 
z
" transform="scale(0.015625)"/>
       </defs>
       <use xlink:href="#DejaVuSans-31"/>
       <use xlink:href="#DejaVuSans-30" transform="translate(63.623047 0)"/>
       <use xlink:href="#DejaVuSans-33" transform="translate(127.246094 0)"/>
       <use xlink:href="#DejaVuSans-30" transform="translate(190.869141 0)"/>
      </g>
     </g>
    </g>
    <g id="text_9">
     <!-- Equity -->
     <g transform="translate(14.798438 184.832572) rotate(-90) scale(0.1 -0.1)">
      <defs>
       <path id="DejaVuSans-45" d="M 628 4666 
L 3578 4666 
L 3578 4134 
L 1259 4134 
L 1259 2753 
L 3481 2753 
L 3481 2222 
L 1259 2222 
L 1259 531 
L 3634 531 
L 3634 0 
L 628 0 
L 628 4666 
z
" transform="scale(0.015625)"/>
       <path id="DejaVuSans-71" d="M 947 1747 
Q 947 1113 1208 752 
Q 1469 391 1925 391 
Q 2381 391 2643 752 
Q 2906 1113 2906 1747 
Q 2906 2381 2643 2742 
Q 2381 3103 1925 3103 
Q 1469 3103 1208 2742 
Q 947 2381 947 1747 
z
M 2906 525 
Q 2725 213 2448 61 
Q 2172 -91 1784 -91 
Q 1150 -91 751 415 
Q 353 922 353 1747 
Q 353 2572 751 3078 
Q 1150 3584 1784 3584 
Q 2172 3584 2448 3432 
Q 2725 3281 2906 2969 
L 2906 3500 
L 3481 3500 
L 3481 -1331 
L 2906 -1331 
L 2906 525 
z
" transform="scale(0.015625)"/>
       <path id="DejaVuSans-75" d="M 544 1381 
L 544 3500 
L 1119 3500 
L 1119 1403 
Q 1119 906 1312 657 
Q 1506 409 1894 409 
Q 2359 409 2629 706 
Q 2900 1003 2900 1516 
L 2900 3500 
L 3475 3500 
L 3475 0 
L 2900 0 
L 2900 538 
Q 2691 219 2414 64 
Q 2138 -91 1772 -91 
Q 1169 -91 856 284 
Q 544 659 544 1381 
z
M 1991 3584 
L 1991 3584 
z
" transform="scale(0.015625)"/>
       <path id="DejaVuSans-74" d="M 1172 4494 
L 1172 3500 
L 2356 3500 
L 2356 3053 
L 1172 3053 
L 1172 1153 
Q 1172 725 1289 603 
Q 1406 481 1766 481 
L 2356 481 
L 2356 0 
L 1766 0 
Q 1100 0 847 248 
Q 594 497 594 1153 
L 594 3053 
L 172 3053 
L 172 3500 
L 594 3500 
L 594 4494 
L 1172 4494 
z
" transform="scale(0.015625)"/>
       <path id="DejaVuSans-79" d="M 2059 -325 
Q 1816 -950 1584 -1140 
Q 1353 -1331 966 -1331 
L 506 -1331 
L 506 -850 
L 844 -850 
Q 1081 -850 1212 -737 
Q 1344 -625 1503 -206 
L 1606 56 
L 191 3500 
L 800 3500 
L 1894 763 
L 2988 3500 
L 3597 3500 
L 2059 -325 
z
" transform="scale(0.015625)"/>
      </defs>
      <use xlink:href="#DejaVuSans-45"/>
      <use xlink:href="#DejaVuSans-71" transform="translate(63.183594 0)"/>
      <use xlink:href="#DejaVuSans-75" transform="translate(126.660156 0)"/>
      <use xlink:href="#DejaVuSans-69" transform="translate(190.039062 0)"/>
      <use xlink:href="#DejaVuSans-74" transform="translate(217.822266 0)"/>
      <use xlink:href="#DejaVuSans-79" transform="translate(257.03125 0)"/>
     </g>
    </g>
   </g>
   <g id="line2d_41">
    <path d="M 58.429389 200.939244 
L 79.907967 200.939244 
L 81.333836 201.921615 
L 81.374575 199.901019 
L 81.659749 198.164016 
L 82.148619 203.942211 
L 83.999986 200.361857 
L 84.520542 207.451667 
L 85.842301 196.391563 
L 86.068629 196.958748 
L 86.543919 200.787246 
L 87.775146 197.277789 
L 88.847943 200.99994 
L 90.391504 215.179561 
L 90.40961 181.609308 
L 90.708364 199.440182 
L 91.400929 197.490484 
L 92.188553 199.085691 
L 92.858485 202.205208 
L 93.72306 200.751797 
L 99.856563 200.751797 
L 100.621554 201.202364 
L 101.133056 198.617615 
L 101.477075 202.299997 
L 102.567979 194.687381 
L 102.952738 197.626205 
L 103.704148 194.262491 
L 104.478192 195.076864 
L 104.699994 193.625155 
L 105.99912 194.793603 
L 119.80516 194.793603 
L 120.873431 196.066269 
L 121.280822 193.961298 
L 121.479991 195.138655 
L 122.738378 192.890973 
L 122.896808 193.961298 
L 124.286465 190.893034 
L 124.413209 203.665574 
L 124.426788 183.935924 
L 126.119726 191.463873 
L 127.233262 186.790123 
L 127.554649 187.360962 
L 127.866982 184.863538 
L 129.976364 186.96851 
L 130.546712 184.292698 
L 131.266437 182.936954 
L 131.56519 185.486294 
L 132.085746 183.623514 
L 135.507833 183.651505 
L 136.14608 177.472529 
L 179.65095 177.472529 
L 180.506472 177.856664 
L 181.113032 175.222677 
L 181.280515 175.436244 
L 183.190728 165.612184 
L 184.200153 169.741136 
L 184.584912 168.922465 
L 185.186946 165.007078 
L 185.793506 165.469806 
L 187.328014 165.469806 
L 188.835362 166.425403 
L 188.90326 165.856557 
L 189.885526 169.686044 
L 190.397029 169.295191 
L 194.996024 169.295191 
L 195.543739 169.964819 
L 196.000923 166.240488 
L 196.92887 166.626638 
L 198.069566 166.555615 
L 198.965827 168.182847 
L 199.604073 167.473866 
L 207.272084 167.473866 
L 208.059707 168.251533 
L 208.326775 167.1837 
L 208.915229 167.356276 
L 208.974074 168.174948 
L 210.345625 167.783409 
L 211.875606 167.783409 
L 213.265263 168.205152 
L 213.410113 166.854142 
L 213.459906 167.778517 
L 214.931041 162.161161 
L 215.664346 163.938805 
L 216.474602 160.37638 
L 216.877467 157.988771 
L 217.560979 162.835261 
L 218.018162 162.478902 
L 234.893218 162.478902 
L 235.382087 163.401172 
L 235.730633 160.689683 
L 237.328513 165.327756 
L 237.731377 154.553155 
L 238.129716 157.835484 
L 239.410735 147.167915 
L 239.564638 148.059852 
L 240.098774 144.884556 
L 241.090093 146.882495 
L 242.529542 144.242361 
L 242.647233 144.813201 
L 242.977673 143.314746 
L 244.104789 143.421779 
L 299.347056 143.421779 
L 299.63223 143.812656 
L 301.949835 143.01977 
L 302.284801 145.4529 
L 302.45681 143.306021 
L 303.561294 146.383215 
L 303.950579 145.882276 
L 305.476033 146.736699 
L 305.59825 146.451113 
L 306.489985 149.842448 
L 307.033173 149.306974 
L 307.712159 146.129829 
L 319.291127 146.129829 
L 320.680784 147.126651 
L 320.726049 146.127681 
L 320.830161 146.662844 
L 322.360141 146.662844 
L 322.613629 147.980138 
L 323.618528 143.023854 
L 324.093818 143.380421 
L 324.324673 147.267004 
L 325.433683 146.910437 
L 326.963664 146.910437 
L 327.76034 147.300836 
L 328.69734 126.592056 
L 328.71092 132.333681 
L 330.173002 127.166218 
L 331.761829 132.405451 
L 331.992684 130.790619 
L 333.10622 131.687748 
L 337.705216 131.687748 
L 339.026974 132.475366 
L 339.131086 131.220112 
L 339.71954 129.89313 
L 340.48453 132.582959 
L 340.778757 131.04079 
L 341.466796 136.276991 
L 343.363429 122.863709 
L 343.893038 143.306411 
L 344.291376 132.403637 
L 345.472811 155.536168 
L 345.54071 129.928994 
L 346.921314 144.776851 
L 348.396976 153.996265 
L 348.591618 153.888547 
L 349.234391 145.953338 
L 350.062754 146.99461 
L 351.226082 155.324784 
L 352.484469 160.387519 
L 353.009551 152.416404 
L 353.07745 152.990899 
L 353.878653 160.926108 
L 355.10988 158.592223 
L 355.657595 155.073443 
L 356.309421 157.29961 
L 357.232841 167.999575 
L 357.794136 162.613687 
L 358.744716 167.676422 
L 359.215479 166.778774 
L 359.930678 163.152276 
L 361.121166 163.762676 
L 361.677934 165.522066 
L 362.479137 172.918687 
L 362.524402 155.468408 
L 364.457248 161.249262 
L 364.828427 165.593878 
L 365.61605 163.403617 
L 365.991756 167.353269 
L 367.005707 163.008652 
L 367.825017 169.687154 
L 369.187514 174.570359 
L 369.911766 165.522066 
L 370.255785 170.225742 
L 371.391954 165.522066 
L 371.545858 167.496892 
L 371.826505 165.306631 
L 373.587341 168.460018 
L 373.895148 165.399188 
L 375.049423 163.911559 
L 375.560926 167.514611 
L 376.126747 167.082245 
L 376.583931 165.244688 
L 377.606936 166.361634 
L 419.03411 166.361634 
L 419.808154 165.702715 
L 420.505245 169.269737 
L 420.704414 171.575691 
L 422.103125 164.549739 
L 422.890748 164.045311 
L 423.57426 166.243173 
L 424.312091 166.747601 
L 424.628951 163.28867 
L 425.661009 168.621188 
L 426.611589 164.153403 
L 426.810758 165.414471 
L 427.109512 162.964396 
L 428.245681 163.829128 
L 429.775662 163.829128 
L 431.043102 165.043939 
L 431.133633 163.35148 
L 431.432387 163.495519 
L 431.989155 164.539802 
L 438.982707 164.539802 
L 439.788436 163.197675 
L 440.096243 165.718358 
L 441.590011 166.546583 
L 441.766548 163.305705 
L 442.060775 165.070183 
L 442.345949 169.391354 
L 443.595282 167.374807 
L 444.079625 169.853376 
L 445.125263 168.702393 
L 454.327781 168.702393 
L 454.490738 169.304089 
L 454.803071 167.250349 
L 455.866815 167.682715 
L 458.931303 167.682715 
L 460.366226 169.337335 
L 460.443178 167.306833 
L 460.470337 167.705681 
L 461.303226 170.968988 
L 462.009371 169.011004 
L 462.40771 170.678916 
L 464.403927 159.982523 
L 464.503512 173.434597 
L 465.177971 169.518629 
L 466.608367 167.161797 
L 467.749063 171.476613 
L 468.206246 168.829709 
L 469.392208 163.753455 
L 469.853918 164.62367 
L 470.949348 168.032012 
L 472.216788 168.503379 
L 472.470276 164.804965 
L 473.036097 162.738204 
L 473.40275 165.820215 
L 474.280904 165.167554 
L 480.414407 165.167554 
L 481.536997 161.083953 
L 481.591316 168.776834 
L 482.089239 162.695795 
L 483.478896 166.175908 
L 483.628273 168.300608 
L 484.252939 163.721512 
L 485.144674 165.479885 
L 485.805553 163.245287 
L 486.584123 162.585897 
L 486.796872 164.380902 
L 488.544128 162.952224 
L 489.087317 167.567953 
L 489.639558 163.68488 
L 491.101641 168.630303 
L 491.192172 168.080811 
L 492.409819 163.245287 
L 492.853423 162.109671 
L 493.115965 165.992744 
L 495.04881 164.710597 
L 495.456202 161.743343 
L 496.442994 162.952224 
L 496.977129 161.010688 
L 497.303042 161.560179 
L 497.348308 162.073038 
L 498.833023 161.926507 
L 534.126694 161.926507 
L 535.548037 166.502672 
L 535.978062 165.003283 
L 536.620835 160.651398 
L 537.200236 162.297069 
L 538.177975 158.45717 
L 539.544999 160.870821 
L 539.748695 158.45717 
L 540.264724 159.115439 
L 554.075291 159.115439 
L 555.600745 160.912587 
L 556.841026 160.861637 
L 557.003982 165.456433 
L 557.438533 159.804105 
L 558.312161 164.690633 
L 558.678813 163.523701 
L 568.55579 163.523701 
L 568.55579 163.523701 
" clip-path="url(#p247ef6da8b)" style="fill: none; stroke: #2e8b57; stroke-width: 1.5; stroke-linecap: square"/>
   </g>
   <g id="patch_8">
    <path d="M 53.328125 219.795353 
L 53.328125 118.247917 
" style="fill: none; stroke: #000000; stroke-width: 0.8; stroke-linejoin: miter; stroke-linecap: square"/>
   </g>
   <g id="patch_9">
    <path d="M 573.657054 219.795353 
L 573.657054 118.247917 
" style="fill: none; stroke: #000000; stroke-width: 0.8; stroke-linejoin: miter; stroke-linecap: square"/>
   </g>
   <g id="patch_10">
    <path d="M 53.328125 219.795353 
L 573.657054 219.795353 
" style="fill: none; stroke: #000000; stroke-width: 0.8; stroke-linejoin: miter; stroke-linecap: square"/>
   </g>
   <g id="patch_11">
    <path d="M 53.328125 118.247917 
L 573.657054 118.247917 
" style="fill: none; stroke: #000000; stroke-width: 0.8; stroke-linejoin: miter; stroke-linecap: square"/>
   </g>
  </g>
  <g id="axes_3">
   <g id="patch_12">
    <path d="M 53.328125 330.84327 
L 573.657054 330.84327 
L 573.657054 229.295833 
L 53.328125 229.295833 
z
" style="fill: #ffffff"/>
   </g>
   <g id="matplotlib.axis_5">
    <g id="xtick_33">
     <g id="line2d_42">
      <g>
       <use xlink:href="#ma2612fb474" x="58.429389" y="330.84327" style="stroke: #000000; stroke-width: 0.8"/>
      </g>
     </g>
     <g id="text_10">
      <!-- Sep -->
      <g transform="translate(49.004389 345.441707) scale(0.1 -0.1)">
       <defs>
        <path id="DejaVuSans-53" d="M 3425 4513 
L 3425 3897 
Q 3066 4069 2747 4153 
Q 2428 4238 2131 4238 
Q 1616 4238 1336 4038 
Q 1056 3838 1056 3469 
Q 1056 3159 1242 3001 
Q 1428 2844 1947 2747 
L 2328 2669 
Q 3034 2534 3370 2195 
Q 3706 1856 3706 1288 
Q 3706 609 3251 259 
Q 2797 -91 1919 -91 
Q 1588 -91 1214 -16 
Q 841 59 441 206 
L 441 856 
Q 825 641 1194 531 
Q 1563 422 1919 422 
Q 2459 422 2753 634 
Q 3047 847 3047 1241 
Q 3047 1584 2836 1778 
Q 2625 1972 2144 2069 
L 1759 2144 
Q 1053 2284 737 2584 
Q 422 2884 422 3419 
Q 422 4038 858 4394 
Q 1294 4750 2059 4750 
Q 2388 4750 2728 4690 
Q 3069 4631 3425 4513 
z
" transform="scale(0.015625)"/>
        <path id="DejaVuSans-70" d="M 1159 525 
L 1159 -1331 
L 581 -1331 
L 581 3500 
L 1159 3500 
L 1159 2969 
Q 1341 3281 1617 3432 
Q 1894 3584 2278 3584 
Q 2916 3584 3314 3078 
Q 3713 2572 3713 1747 
Q 3713 922 3314 415 
Q 2916 -91 2278 -91 
Q 1894 -91 1617 61 
Q 1341 213 1159 525 
z
M 3116 1747 
Q 3116 2381 2855 2742 
Q 2594 3103 2138 3103 
Q 1681 3103 1420 2742 
Q 1159 2381 1159 1747 
Q 1159 1113 1420 752 
Q 1681 391 2138 391 
Q 2594 391 2855 752 
Q 3116 1113 3116 1747 
z
" transform="scale(0.015625)"/>
       </defs>
       <use xlink:href="#DejaVuSans-53"/>
       <use xlink:href="#DejaVuSans-65" transform="translate(63.476562 0)"/>
       <use xlink:href="#DejaVuSans-70" transform="translate(125 0)"/>
      </g>
     </g>
    </g>
    <g id="xtick_34">
     <g id="line2d_43">
      <g>
       <use xlink:href="#ma2612fb474" x="92.437711" y="330.84327" style="stroke: #000000; stroke-width: 0.8"/>
      </g>
     </g>
     <g id="text_11">
      <!-- 03 -->
      <g transform="translate(86.075211 345.441707) scale(0.1 -0.1)">
       <use xlink:href="#DejaVuSans-30"/>
       <use xlink:href="#DejaVuSans-33" transform="translate(63.623047 0)"/>
      </g>
     </g>
    </g>
    <g id="xtick_35">
     <g id="line2d_44">
      <g>
       <use xlink:href="#ma2612fb474" x="126.446033" y="330.84327" style="stroke: #000000; stroke-width: 0.8"/>
      </g>
     </g>
     <g id="text_12">
      <!-- 05 -->
      <g transform="translate(120.083533 345.441707) scale(0.1 -0.1)">
       <use xlink:href="#DejaVuSans-30"/>
       <use xlink:href="#DejaVuSans-35" transform="translate(63.623047 0)"/>
      </g>
     </g>
    </g>
    <g id="xtick_36">
     <g id="line2d_45">
      <g>
       <use xlink:href="#ma2612fb474" x="160.454354" y="330.84327" style="stroke: #000000; stroke-width: 0.8"/>
      </g>
     </g>
     <g id="text_13">
      <!-- 07 -->
      <g transform="translate(154.091854 345.441707) scale(0.1 -0.1)">
       <defs>
        <path id="DejaVuSans-37" d="M 525 4666 
L 3525 4666 
L 3525 4397 
L 1831 0 
L 1172 0 
L 2766 4134 
L 525 4134 
L 525 4666 
z
" transform="scale(0.015625)"/>
       </defs>
       <use xlink:href="#DejaVuSans-30"/>
       <use xlink:href="#DejaVuSans-37" transform="translate(63.623047 0)"/>
      </g>
     </g>
    </g>
    <g id="xtick_37">
     <g id="line2d_46">
      <g>
       <use xlink:href="#ma2612fb474" x="194.462676" y="330.84327" style="stroke: #000000; stroke-width: 0.8"/>
      </g>
     </g>
     <g id="text_14">
      <!-- 09 -->
      <g transform="translate(188.100176 345.441707) scale(0.1 -0.1)">
       <use xlink:href="#DejaVuSans-30"/>
       <use xlink:href="#DejaVuSans-39" transform="translate(63.623047 0)"/>
      </g>
     </g>
    </g>
    <g id="xtick_38">
     <g id="line2d_47">
      <g>
       <use xlink:href="#ma2612fb474" x="228.470998" y="330.84327" style="stroke: #000000; stroke-width: 0.8"/>
      </g>
     </g>
     <g id="text_15">
      <!-- 11 -->
      <g transform="translate(222.108498 345.441707) scale(0.1 -0.1)">
       <use xlink:href="#DejaVuSans-31"/>
       <use xlink:href="#DejaVuSans-31" transform="translate(63.623047 0)"/>
      </g>
     </g>
    </g>
    <g id="xtick_39">
     <g id="line2d_48">
      <g>
       <use xlink:href="#ma2612fb474" x="262.47932" y="330.84327" style="stroke: #000000; stroke-width: 0.8"/>
      </g>
     </g>
     <g id="text_16">
      <!-- 13 -->
      <g transform="translate(256.11682 345.441707) scale(0.1 -0.1)">
       <use xlink:href="#DejaVuSans-31"/>
       <use xlink:href="#DejaVuSans-33" transform="translate(63.623047 0)"/>
      </g>
     </g>
    </g>
    <g id="xtick_40">
     <g id="line2d_49">
      <g>
       <use xlink:href="#ma2612fb474" x="296.487642" y="330.84327" style="stroke: #000000; stroke-width: 0.8"/>
      </g>
     </g>
     <g id="text_17">
      <!-- 15 -->
      <g transform="translate(290.125142 345.441707) scale(0.1 -0.1)">
       <use xlink:href="#DejaVuSans-31"/>
       <use xlink:href="#DejaVuSans-35" transform="translate(63.623047 0)"/>
      </g>
     </g>
    </g>
    <g id="xtick_41">
     <g id="line2d_50">
      <g>
       <use xlink:href="#ma2612fb474" x="330.495963" y="330.84327" style="stroke: #000000; stroke-width: 0.8"/>
      </g>
     </g>
     <g id="text_18">
      <!-- 17 -->
      <g transform="translate(324.133463 345.441707) scale(0.1 -0.1)">
       <use xlink:href="#DejaVuSans-31"/>
       <use xlink:href="#DejaVuSans-37" transform="translate(63.623047 0)"/>
      </g>
     </g>
    </g>
    <g id="xtick_42">
     <g id="line2d_51">
      <g>
       <use xlink:href="#ma2612fb474" x="364.504285" y="330.84327" style="stroke: #000000; stroke-width: 0.8"/>
      </g>
     </g>
     <g id="text_19">
      <!-- 19 -->
      <g transform="translate(358.141785 345.441707) scale(0.1 -0.1)">
       <use xlink:href="#DejaVuSans-31"/>
       <use xlink:href="#DejaVuSans-39" transform="translate(63.623047 0)"/>
      </g>
     </g>
    </g>
    <g id="xtick_43">
     <g id="line2d_52">
      <g>
       <use xlink:href="#ma2612fb474" x="398.512607" y="330.84327" style="stroke: #000000; stroke-width: 0.8"/>
      </g>
     </g>
     <g id="text_20">
      <!-- 21 -->
      <g transform="translate(392.150107 345.441707) scale(0.1 -0.1)">
       <use xlink:href="#DejaVuSans-32"/>
       <use xlink:href="#DejaVuSans-31" transform="translate(63.623047 0)"/>
      </g>
     </g>
    </g>
    <g id="xtick_44">
     <g id="line2d_53">
      <g>
       <use xlink:href="#ma2612fb474" x="432.520929" y="330.84327" style="stroke: #000000; stroke-width: 0.8"/>
      </g>
     </g>
     <g id="text_21">
      <!-- 23 -->
      <g transform="translate(426.158429 345.441707) scale(0.1 -0.1)">
       <use xlink:href="#DejaVuSans-32"/>
       <use xlink:href="#DejaVuSans-33" transform="translate(63.623047 0)"/>
      </g>
     </g>
    </g>
    <g id="xtick_45">
     <g id="line2d_54">
      <g>
       <use xlink:href="#ma2612fb474" x="466.52925" y="330.84327" style="stroke: #000000; stroke-width: 0.8"/>
      </g>
     </g>
     <g id="text_22">
      <!-- 25 -->
      <g transform="translate(460.16675 345.441707) scale(0.1 -0.1)">
       <use xlink:href="#DejaVuSans-32"/>
       <use xlink:href="#DejaVuSans-35" transform="translate(63.623047 0)"/>
      </g>
     </g>
    </g>
    <g id="xtick_46">
     <g id="line2d_55">
      <g>
       <use xlink:href="#ma2612fb474" x="500.537572" y="330.84327" style="stroke: #000000; stroke-width: 0.8"/>
      </g>
     </g>
     <g id="text_23">
      <!-- 27 -->
      <g transform="translate(494.175072 345.441707) scale(0.1 -0.1)">
       <use xlink:href="#DejaVuSans-32"/>
       <use xlink:href="#DejaVuSans-37" transform="translate(63.623047 0)"/>
      </g>
     </g>
    </g>
    <g id="xtick_47">
     <g id="line2d_56">
      <g>
       <use xlink:href="#ma2612fb474" x="534.545894" y="330.84327" style="stroke: #000000; stroke-width: 0.8"/>
      </g>
     </g>
     <g id="text_24">
      <!-- 29 -->
      <g transform="translate(528.183394 345.441707) scale(0.1 -0.1)">
       <use xlink:href="#DejaVuSans-32"/>
       <use xlink:href="#DejaVuSans-39" transform="translate(63.623047 0)"/>
      </g>
     </g>
    </g>
    <g id="xtick_48">
     <g id="line2d_57">
      <g>
       <use xlink:href="#ma2612fb474" x="568.554216" y="330.84327" style="stroke: #000000; stroke-width: 0.8"/>
      </g>
     </g>
     <g id="text_25">
      <!-- Oct -->
      <g transform="translate(559.908903 345.441707) scale(0.1 -0.1)">
       <defs>
        <path id="DejaVuSans-4f" d="M 2522 4238 
Q 1834 4238 1429 3725 
Q 1025 3213 1025 2328 
Q 1025 1447 1429 934 
Q 1834 422 2522 422 
Q 3209 422 3611 934 
Q 4013 1447 4013 2328 
Q 4013 3213 3611 3725 
Q 3209 4238 2522 4238 
z
M 2522 4750 
Q 3503 4750 4090 4092 
Q 4678 3434 4678 2328 
Q 4678 1225 4090 567 
Q 3503 -91 2522 -91 
Q 1538 -91 948 565 
Q 359 1222 359 2328 
Q 359 3434 948 4092 
Q 1538 4750 2522 4750 
z
" transform="scale(0.015625)"/>
       </defs>
       <use xlink:href="#DejaVuSans-4f"/>
       <use xlink:href="#DejaVuSans-63" transform="translate(78.710938 0)"/>
       <use xlink:href="#DejaVuSans-74" transform="translate(133.691406 0)"/>
      </g>
     </g>
    </g>
    <g id="text_26">
     <!-- Time -->
     <g transform="translate(301.258996 359.119832) scale(0.1 -0.1)">
      <defs>
       <path id="DejaVuSans-54" d="M -19 4666 
L 3928 4666 
L 3928 4134 
L 2272 4134 
L 2272 0 
L 1638 0 
L 1638 4134 
L -19 4134 
L -19 4666 
z
" transform="scale(0.015625)"/>
       <path id="DejaVuSans-6d" d="M 3328 2828 
Q 3544 3216 3844 3400 
Q 4144 3584 4550 3584 
Q 5097 3584 5394 3201 
Q 5691 2819 5691 2113 
L 5691 0 
L 5113 0 
L 5113 2094 
Q 5113 2597 4934 2840 
Q 4756 3084 4391 3084 
Q 3944 3084 3684 2787 
Q 3425 2491 3425 1978 
L 3425 0 
L 2847 0 
L 2847 2094 
Q 2847 2600 2669 2842 
Q 2491 3084 2119 3084 
Q 1678 3084 1418 2786 
Q 1159 2488 1159 1978 
L 1159 0 
L 581 0 
L 581 3500 
L 1159 3500 
L 1159 2956 
Q 1356 3278 1631 3431 
Q 1906 3584 2284 3584 
Q 2666 3584 2933 3390 
Q 3200 3197 3328 2828 
z
" transform="scale(0.015625)"/>
      </defs>
      <use xlink:href="#DejaVuSans-54"/>
      <use xlink:href="#DejaVuSans-69" transform="translate(57.958984 0)"/>
      <use xlink:href="#DejaVuSans-6d" transform="translate(85.742188 0)"/>
      <use xlink:href="#DejaVuSans-65" transform="translate(183.154297 0)"/>
     </g>
    </g>
    <g id="text_27">
     <!-- 2025-Oct -->
     <g transform="translate(527.033617 358.119832) scale(0.1 -0.1)">
      <defs>
       <path id="DejaVuSans-2d" d="M 313 2009 
L 1997 2009 
L 1997 1497 
L 313 1497 
L 313 2009 
z
" transform="scale(0.015625)"/>
      </defs>
      <use xlink:href="#DejaVuSans-32"/>
      <use xlink:href="#DejaVuSans-30" transform="translate(63.623047 0)"/>
      <use xlink:href="#DejaVuSans-32" transform="translate(127.246094 0)"/>
      <use xlink:href="#DejaVuSans-35" transform="translate(190.869141 0)"/>
      <use xlink:href="#DejaVuSans-2d" transform="translate(254.492188 0)"/>
      <use xlink:href="#DejaVuSans-4f" transform="translate(293.326172 0)"/>
      <use xlink:href="#DejaVuSans-63" transform="translate(372.037109 0)"/>
      <use xlink:href="#DejaVuSans-74" transform="translate(427.017578 0)"/>
     </g>
    </g>
   </g>
   <g id="matplotlib.axis_6">
    <g id="ytick_8">
     <g id="line2d_58">
      <g>
       <use xlink:href="#mbdb055c8c2" x="53.328125" y="310.852896" style="stroke: #000000; stroke-width: 0.8"/>
      </g>
     </g>
     <g id="text_28">
      <!-- 2 -->
      <g transform="translate(31.585938 314.652115) scale(0.1 -0.1)">
       <defs>
        <path id="DejaVuSans-2212" d="M 678 2272 
L 4684 2272 
L 4684 1741 
L 678 1741 
L 678 2272 
z
" transform="scale(0.015625)"/>
       </defs>
       <use xlink:href="#DejaVuSans-2212"/>
       <use xlink:href="#DejaVuSans-32" transform="translate(83.789062 0)"/>
      </g>
     </g>
    </g>
    <g id="ytick_9">
     <g id="line2d_59">
      <g>
       <use xlink:href="#mbdb055c8c2" x="53.328125" y="272.382261" style="stroke: #000000; stroke-width: 0.8"/>
      </g>
     </g>
     <g id="text_29">
      <!-- 1 -->
      <g transform="translate(31.585938 276.18148) scale(0.1 -0.1)">
       <use xlink:href="#DejaVuSans-2212"/>
       <use xlink:href="#DejaVuSans-31" transform="translate(83.789062 0)"/>
      </g>
     </g>
    </g>
    <g id="ytick_10">
     <g id="line2d_60">
      <g>
       <use xlink:href="#mbdb055c8c2" x="53.328125" y="233.911626" style="stroke: #000000; stroke-width: 0.8"/>
      </g>
     </g>
     <g id="text_30">
      <!-- 0 -->
      <g transform="translate(39.965625 237.710845) scale(0.1 -0.1)">
       <use xlink:href="#DejaVuSans-30"/>
      </g>
     </g>
    </g>
    <g id="text_31">
     <!-- Drawdown, % -->
     <g transform="translate(14.798438 314.548458) rotate(-90) scale(0.1 -0.1)">
      <defs>
       <path id="DejaVuSans-44" d="M 1259 4147 
L 1259 519 
L 2022 519 
Q 2988 519 3436 956 
Q 3884 1394 3884 2338 
Q 3884 3275 3436 3711 
Q 2988 4147 2022 4147 
L 1259 4147 
z
M 628 4666 
L 1925 4666 
Q 3281 4666 3915 4102 
Q 4550 3538 4550 2338 
Q 4550 1131 3912 565 
Q 3275 0 1925 0 
L 628 0 
L 628 4666 
z
" transform="scale(0.015625)"/>
       <path id="DejaVuSans-61" d="M 2194 1759 
Q 1497 1759 1228 1600 
Q 959 1441 959 1056 
Q 959 750 1161 570 
Q 1363 391 1709 391 
Q 2188 391 2477 730 
Q 2766 1069 2766 1631 
L 2766 1759 
L 2194 1759 
z
M 3341 1997 
L 3341 0 
L 2766 0 
L 2766 531 
Q 2569 213 2275 61 
Q 1981 -91 1556 -91 
Q 1019 -91 701 211 
Q 384 513 384 1019 
Q 384 1609 779 1909 
Q 1175 2209 1959 2209 
L 2766 2209 
L 2766 2266 
Q 2766 2663 2505 2880 
Q 2244 3097 1772 3097 
Q 1472 3097 1187 3025 
Q 903 2953 641 2809 
L 641 3341 
Q 956 3463 1253 3523 
Q 1550 3584 1831 3584 
Q 2591 3584 2966 3190 
Q 3341 2797 3341 1997 
z
" transform="scale(0.015625)"/>
       <path id="DejaVuSans-77" d="M 269 3500 
L 844 3500 
L 1563 769 
L 2278 3500 
L 2956 3500 
L 3675 769 
L 4391 3500 
L 4966 3500 
L 4050 0 
L 3372 0 
L 2619 2869 
L 1863 0 
L 1184 0 
L 269 3500 
z
" transform="scale(0.015625)"/>
       <path id="DejaVuSans-64" d="M 2906 2969 
L 2906 4863 
L 3481 4863 
L 3481 0 
L 2906 0 
L 2906 525 
Q 2725 213 2448 61 
Q 2172 -91 1784 -91 
Q 1150 -91 751 415 
Q 353 922 353 1747 
Q 353 2572 751 3078 
Q 1150 3584 1784 3584 
Q 2172 3584 2448 3432 
Q 2725 3281 2906 2969 
z
M 947 1747 
Q 947 1113 1208 752 
Q 1469 391 1925 391 
Q 2381 391 2643 752 
Q 2906 1113 2906 1747 
Q 2906 2381 2643 2742 
Q 2381 3103 1925 3103 
Q 1469 3103 1208 2742 
Q 947 2381 947 1747 
z
" transform="scale(0.015625)"/>
       <path id="DejaVuSans-6f" d="M 1959 3097 
Q 1497 3097 1228 2736 
Q 959 2375 959 1747 
Q 959 1119 1226 758 
Q 1494 397 1959 397 
Q 2419 397 2687 759 
Q 2956 1122 2956 1747 
Q 2956 2369 2687 2733 
Q 2419 3097 1959 3097 
z
M 1959 3584 
Q 2709 3584 3137 3096 
Q 3566 2609 3566 1747 
Q 3566 888 3137 398 
Q 2709 -91 1959 -91 
Q 1206 -91 779 398 
Q 353 888 353 1747 
Q 353 2609 779 3096 
Q 1206 3584 1959 3584 
z
" transform="scale(0.015625)"/>
       <path id="DejaVuSans-6e" d="M 3513 2113 
L 3513 0 
L 2938 0 
L 2938 2094 
Q 2938 2591 2744 2837 
Q 2550 3084 2163 3084 
Q 1697 3084 1428 2787 
Q 1159 2491 1159 1978 
L 1159 0 
L 581 0 
L 581 3500 
L 1159 3500 
L 1159 2956 
Q 1366 3272 1645 3428 
Q 1925 3584 2291 3584 
Q 2894 3584 3203 3211 
Q 3513 2838 3513 2113 
z
" transform="scale(0.015625)"/>
       <path id="DejaVuSans-2c" d="M 750 794 
L 1409 794 
L 1409 256 
L 897 -744 
L 494 -744 
L 750 256 
L 750 794 
z
" transform="scale(0.015625)"/>
       <path id="DejaVuSans-20" transform="scale(0.015625)"/>
       <path id="DejaVuSans-25" d="M 4653 2053 
Q 4381 2053 4226 1822 
Q 4072 1591 4072 1178 
Q 4072 772 4226 539 
Q 4381 306 4653 306 
Q 4919 306 5073 539 
Q 5228 772 5228 1178 
Q 5228 1588 5073 1820 
Q 4919 2053 4653 2053 
z
M 4653 2450 
Q 5147 2450 5437 2106 
Q 5728 1763 5728 1178 
Q 5728 594 5436 251 
Q 5144 -91 4653 -91 
Q 4153 -91 3862 251 
Q 3572 594 3572 1178 
Q 3572 1766 3864 2108 
Q 4156 2450 4653 2450 
z
M 1428 4353 
Q 1159 4353 1004 4120 
Q 850 3888 850 3481 
Q 850 3069 1003 2837 
Q 1156 2606 1428 2606 
Q 1700 2606 1854 2837 
Q 2009 3069 2009 3481 
Q 2009 3884 1853 4118 
Q 1697 4353 1428 4353 
z
M 4250 4750 
L 4750 4750 
L 1831 -91 
L 1331 -91 
L 4250 4750 
z
M 1428 4750 
Q 1922 4750 2215 4408 
Q 2509 4066 2509 3481 
Q 2509 2891 2217 2550 
Q 1925 2209 1428 2209 
Q 931 2209 642 2551 
Q 353 2894 353 3481 
Q 353 4063 643 4406 
Q 934 4750 1428 4750 
z
" transform="scale(0.015625)"/>
      </defs>
      <use xlink:href="#DejaVuSans-44"/>
      <use xlink:href="#DejaVuSans-72" transform="translate(77.001953 0)"/>
      <use xlink:href="#DejaVuSans-61" transform="translate(118.115234 0)"/>
      <use xlink:href="#DejaVuSans-77" transform="translate(179.394531 0)"/>
      <use xlink:href="#DejaVuSans-64" transform="translate(261.181641 0)"/>
      <use xlink:href="#DejaVuSans-6f" transform="translate(324.658203 0)"/>
      <use xlink:href="#DejaVuSans-77" transform="translate(385.839844 0)"/>
      <use xlink:href="#DejaVuSans-6e" transform="translate(467.626953 0)"/>
      <use xlink:href="#DejaVuSans-2c" transform="translate(531.005859 0)"/>
      <use xlink:href="#DejaVuSans-20" transform="translate(562.792969 0)"/>
      <use xlink:href="#DejaVuSans-25" transform="translate(594.580078 0)"/>
     </g>
    </g>
   </g>
   <g id="line2d_61">
    <path d="M 58.429389 233.911626 
L 79.912493 233.911626 
L 81.419841 236.996544 
L 81.523952 233.911626 
L 82.148619 244.601448 
L 83.999986 237.977693 
L 84.520542 251.09404 
L 85.362484 233.911626 
L 86.068629 234.96004 
L 86.543919 242.036835 
L 87.775146 235.549773 
L 88.847943 242.42999 
L 90.40961 233.911626 
L 90.441296 292.469007 
L 90.708364 266.638695 
L 91.400929 263.060189 
L 92.188553 265.988058 
L 92.858485 271.713668 
L 93.72306 269.046054 
L 99.856563 269.046054 
L 100.621554 269.873034 
L 101.133056 265.128944 
L 101.477075 271.887647 
L 102.567979 257.915329 
L 102.952738 263.309294 
L 103.704148 257.135479 
L 104.478192 258.630192 
L 104.699994 255.965703 
L 105.99912 258.110292 
L 119.80516 258.110292 
L 120.873431 260.446163 
L 121.280822 256.582664 
L 121.479991 258.743604 
L 122.738378 254.618173 
L 122.896808 256.582664 
L 124.286465 250.951124 
L 124.413209 274.394049 
L 124.426788 238.181933 
L 126.119726 251.998852 
L 127.233262 243.420575 
L 127.554649 244.468304 
L 127.866982 239.884491 
L 129.976364 243.74799 
L 130.546712 238.836763 
L 131.266437 236.348408 
L 131.56519 241.027507 
L 132.085746 237.608532 
L 135.150234 237.608532 
L 135.598365 233.911626 
L 135.906172 239.965344 
L 136.689268 233.911626 
L 179.655476 233.911626 
L 181.171878 235.539929 
L 181.189984 233.911626 
L 182.502689 236.574828 
L 182.774284 233.911626 
L 184.200153 241.432571 
L 184.584912 239.941349 
L 185.060202 233.911626 
L 185.793506 234.754249 
L 187.328014 234.754249 
L 188.835362 236.494385 
L 188.90326 235.45852 
L 189.885526 242.431987 
L 190.397029 241.720246 
L 194.996024 241.720246 
L 195.543739 242.939632 
L 196.000923 236.157655 
L 196.92887 236.860831 
L 198.069566 236.731499 
L 198.965827 239.694676 
L 199.604073 238.403627 
L 207.272084 238.403627 
L 208.059707 239.819752 
L 208.326775 237.875237 
L 208.915229 238.189497 
L 208.974074 239.680291 
L 210.345625 238.967303 
L 211.875606 238.967303 
L 213.265263 239.735292 
L 213.410113 237.275114 
L 213.459906 238.958394 
L 213.908036 233.911626 
L 214.976307 233.911626 
L 215.664346 238.629576 
L 216.483655 233.911626 
L 217.560979 242.707824 
L 218.018162 242.061045 
L 234.893218 242.061045 
L 235.382087 243.734931 
L 235.730633 238.813679 
L 237.328513 247.23161 
L 237.346619 233.911626 
L 238.129716 239.85929 
L 238.260986 233.911626 
L 239.582745 233.911626 
L 240.669122 237.065043 
L 241.090093 237.515531 
L 242.226262 233.911626 
L 242.615547 233.911626 
L 242.647233 235.198261 
L 244.104789 234.10455 
L 299.347056 234.10455 
L 299.63223 234.8091 
L 301.886463 233.911626 
L 302.284801 238.296698 
L 302.45681 234.427517 
L 303.561294 239.973344 
L 303.950579 239.070535 
L 305.476033 240.610407 
L 305.59825 240.095713 
L 306.489985 246.207695 
L 307.033173 245.242646 
L 307.712159 239.516684 
L 319.291127 239.516684 
L 320.680784 241.313191 
L 320.726049 239.512813 
L 320.830161 240.477301 
L 322.360141 240.477301 
L 322.613629 242.851376 
L 323.618528 233.918986 
L 324.093818 234.561604 
L 324.324673 241.56614 
L 325.433683 240.923522 
L 326.963664 240.923522 
L 327.76034 241.627114 
L 328.448379 233.911626 
L 328.633968 233.911626 
L 328.71092 244.180358 
L 330.173002 234.938499 
L 331.761829 244.308717 
L 331.992684 241.420636 
L 333.10622 243.025125 
L 337.705216 243.025125 
L 339.026974 244.433757 
L 339.131086 242.188772 
L 339.71954 239.815502 
L 340.48453 244.626185 
L 340.778757 241.86806 
L 341.466796 251.232855 
L 343.281951 233.911626 
L 343.893038 270.409551 
L 344.291376 250.943991 
L 345.472811 292.244275 
L 345.54071 246.525821 
L 346.921314 273.034841 
L 348.396976 289.494968 
L 348.591618 289.302651 
L 349.234391 275.135313 
L 350.062754 276.994376 
L 351.226082 291.866875 
L 352.484469 300.905765 
L 353.009551 286.674321 
L 353.07745 287.700011 
L 353.878653 301.867349 
L 355.10988 297.700485 
L 355.657595 291.418136 
L 356.309421 295.392683 
L 357.232841 314.496152 
L 357.794136 304.880312 
L 358.744716 313.919202 
L 359.215479 312.316562 
L 359.930678 305.841896 
L 361.121166 306.931691 
L 361.677934 310.072866 
L 362.479137 323.27862 
L 362.524402 292.123297 
L 364.457248 302.444299 
L 364.828427 310.201077 
L 365.61605 306.290635 
L 365.991756 313.342252 
L 367.005707 305.585474 
L 367.825017 317.509116 
L 369.187514 326.227477 
L 369.911766 310.072866 
L 370.255785 318.4707 
L 371.391954 310.072866 
L 371.545858 313.598674 
L 371.826505 309.688232 
L 373.587341 315.318216 
L 373.895148 309.853482 
L 375.049423 307.197503 
L 375.560926 313.630309 
L 376.126747 312.858372 
L 376.583931 309.577641 
L 377.606936 311.571811 
L 419.03411 311.571811 
L 419.808154 310.395392 
L 420.505245 316.76387 
L 420.704414 320.880866 
L 422.103125 308.336894 
L 422.890748 307.436301 
L 423.57426 311.360313 
L 424.312091 312.260906 
L 424.628951 306.085412 
L 425.661009 315.605965 
L 426.611589 307.629286 
L 426.810758 309.880768 
L 427.109512 305.50646 
L 428.245681 307.050333 
L 429.775662 307.050333 
L 431.043102 309.219228 
L 431.133633 306.197552 
L 431.432387 306.454716 
L 431.989155 308.319154 
L 438.982707 308.319154 
L 439.788436 305.922952 
L 440.096243 310.423321 
L 441.590011 311.902014 
L 441.766548 306.115825 
L 442.060775 309.266083 
L 442.345949 316.981001 
L 443.595282 313.380706 
L 444.079625 317.805886 
L 445.125263 315.750947 
L 454.327781 315.750947 
L 454.490738 316.8252 
L 454.803071 313.158501 
L 455.866815 313.930438 
L 458.931303 313.930438 
L 460.366226 316.884557 
L 460.443178 313.259346 
L 460.470337 313.971441 
L 461.303226 319.797673 
L 462.009371 316.301934 
L 462.40771 319.279785 
L 464.403927 300.182693 
L 464.503512 324.199714 
L 465.177971 317.208237 
L 466.608367 313.000403 
L 467.749063 320.703975 
L 468.206246 315.978254 
L 469.392208 306.915228 
L 469.853918 308.468889 
L 470.949348 314.554064 
L 472.216788 315.395631 
L 472.470276 308.792569 
L 473.036097 305.102622 
L 473.40275 310.605174 
L 474.280904 309.439928 
L 480.414407 309.439928 
L 481.536997 302.149162 
L 481.591316 315.883852 
L 482.089239 305.026907 
L 483.478896 311.240219 
L 483.628273 315.033609 
L 484.252939 306.858199 
L 485.144674 309.997556 
L 485.805553 306.007956 
L 486.584123 304.830697 
L 486.796872 308.035458 
L 488.544128 305.48473 
L 489.087317 313.725544 
L 489.639558 306.792795 
L 491.101641 315.622239 
L 491.192172 314.64119 
L 492.409819 306.007956 
L 492.853423 303.980454 
L 493.115965 310.913202 
L 495.04881 308.624087 
L 495.456202 303.326421 
L 496.442994 305.48473 
L 496.977129 302.018355 
L 497.303042 302.999405 
L 497.348308 303.915051 
L 498.833023 303.653438 
L 534.126694 303.653438 
L 535.548037 311.823616 
L 535.978062 309.146642 
L 536.620835 301.376888 
L 537.200236 304.31503 
L 538.177975 297.459364 
L 539.544999 301.76864 
L 539.748695 297.459364 
L 540.264724 298.634621 
L 554.075291 298.634621 
L 555.600745 301.843209 
L 556.841026 301.752244 
L 557.003982 309.955685 
L 557.438533 299.864151 
L 558.312161 308.588445 
L 558.678813 306.505031 
L 568.55579 306.505031 
L 568.55579 306.505031 
" clip-path="url(#p38ae8a3f4a)" style="fill: none; stroke: #7a738c; stroke-width: 1.5; stroke-linecap: square"/>
   </g>
   <g id="patch_13">
    <path d="M 53.328125 330.84327 
L 53.328125 229.295833 
" style="fill: none; stroke: #000000; stroke-width: 0.8; stroke-linejoin: miter; stroke-linecap: square"/>
   </g>
   <g id="patch_14">
    <path d="M 573.657054 330.84327 
L 573.657054 229.295833 
" style="fill: none; stroke: #000000; stroke-width: 0.8; stroke-linejoin: miter; stroke-linecap: square"/>
   </g>
   <g id="patch_15">
    <path d="M 53.328125 330.84327 
L 573.657054 330.84327 
" style="fill: none; stroke: #000000; stroke-width: 0.8; stroke-linejoin: miter; stroke-linecap: square"/>
   </g>
   <g id="patch_16">
    <path d="M 53.328125 229.295833 
L 573.657054 229.295833 
" style="fill: none; stroke: #000000; stroke-width: 0.8; stroke-linejoin: miter; stroke-linecap: square"/>
   </g>
  </g>
 </g>
 <defs>
  <clipPath id="p9ac26e9e1c">
   <rect x="53.328125" y="7.2" width="520.328929" height="101.547437"/>
  </clipPath>
  <clipPath id="p247ef6da8b">
   <rect x="53.328125" y="118.247917" width="520.328929" height="101.547437"/>
  </clipPath>
  <clipPath id="p38ae8a3f4a">
   <rect x="53.328125" y="229.295833" width="520.328929" height="101.547437"/>
  </clipPath>
 </defs>
</svg>
