<?xml version="1.0" encoding="utf-8" standalone="no"?>
<!DOCTYPE svg PUBLIC "-//W3C//DTD SVG 1.1//EN"
  "http://www.w3.org/Graphics/SVG/1.1/DTD/svg11.dtd">
<svg xmlns:xlink="http://www.w3.org/1999/xlink"   viewBox="0 0 584.399528 368.39952" xmlns="http://www.w3.org/2000/svg" version="1.1" preserveAspectRatio="xMidYMid meet" style="width:100%;height:auto;aspect-ratio:8 / 5;display:block;">
 <metadata>
  <rdf:RDF xmlns:dc="http://purl.org/dc/elements/1.1/" xmlns:cc="http://creativecommons.org/ns#" xmlns:rdf="http://www.w3.org/1999/02/22-rdf-syntax-ns#">
   <cc:Work>
    <dc:type rdf:resource="http://purl.org/dc/dcmitype/StillImage"/>
    <dc:date>2025-10-22T19:16:52.564366</dc:date>
    <dc:format>image/svg+xml</dc:format>
    <dc:creator>
     <cc:Agent>
      <dc:title>Matplotlib v3.10.6, https://matplotlib.org/</dc:title>
     </cc:Agent>
    </dc:creator>
   </cc:Work>
  </rdf:RDF>
 </metadata>
 <defs>
  <style type="text/css">*{stroke-linejoin: round; stroke-linecap: butt}</style>
 </defs>
 <g id="figure_1">
  <g id="patch_1">
   <path d="M 0 368.39952 
L 584.399528 368.39952 
L 584.399528 0 
L 0 0 
z
" style="fill: #ffffff"/>
  </g>
  <g id="axes_1">
   <g id="patch_2">
    <path d="M 53.328125 108.747437 
L 573.657054 108.747437 
L 573.657054 7.2 
L 53.328125 7.2 
z
" style="fill: #ffffff"/>
   </g>
   <g id="matplotlib.axis_1">
    <g id="xtick_1">
     <g id="line2d_1">
      <defs>
       <path id="m480fc6d06d" d="M 0 0 
L 0 3.5 
" style="stroke: #000000; stroke-width: 0.8"/>
      </defs>
      <g>
       <use xlink:href="#m480fc6d06d" x="58.429389" y="108.747437" style="stroke: #000000; stroke-width: 0.8"/>
      </g>
     </g>
    </g>
    <g id="xtick_2">
     <g id="line2d_2">
      <g>
       <use xlink:href="#m480fc6d06d" x="92.437711" y="108.747437" style="stroke: #000000; stroke-width: 0.8"/>
      </g>
     </g>
    </g>
    <g id="xtick_3">
     <g id="line2d_3">
      <g>
       <use xlink:href="#m480fc6d06d" x="126.446033" y="108.747437" style="stroke: #000000; stroke-width: 0.8"/>
      </g>
     </g>
    </g>
    <g id="xtick_4">
     <g id="line2d_4">
      <g>
       <use xlink:href="#m480fc6d06d" x="160.454354" y="108.747437" style="stroke: #000000; stroke-width: 0.8"/>
      </g>
     </g>
    </g>
    <g id="xtick_5">
     <g id="line2d_5">
      <g>
       <use xlink:href="#m480fc6d06d" x="194.462676" y="108.747437" style="stroke: #000000; stroke-width: 0.8"/>
      </g>
     </g>
    </g>
    <g id="xtick_6">
     <g id="line2d_6">
      <g>
       <use xlink:href="#m480fc6d06d" x="228.470998" y="108.747437" style="stroke: #000000; stroke-width: 0.8"/>
      </g>
     </g>
    </g>
    <g id="xtick_7">
     <g id="line2d_7">
      <g>
       <use xlink:href="#m480fc6d06d" x="262.47932" y="108.747437" style="stroke: #000000; stroke-width: 0.8"/>
      </g>
     </g>
    </g>
    <g id="xtick_8">
     <g id="line2d_8">
      <g>
       <use xlink:href="#m480fc6d06d" x="296.487642" y="108.747437" style="stroke: #000000; stroke-width: 0.8"/>
      </g>
     </g>
    </g>
    <g id="xtick_9">
     <g id="line2d_9">
      <g>
       <use xlink:href="#m480fc6d06d" x="330.495963" y="108.747437" style="stroke: #000000; stroke-width: 0.8"/>
      </g>
     </g>
    </g>
    <g id="xtick_10">
     <g id="line2d_10">
      <g>
       <use xlink:href="#m480fc6d06d" x="364.504285" y="108.747437" style="stroke: #000000; stroke-width: 0.8"/>
      </g>
     </g>
    </g>
    <g id="xtick_11">
     <g id="line2d_11">
      <g>
       <use xlink:href="#m480fc6d06d" x="398.512607" y="108.747437" style="stroke: #000000; stroke-width: 0.8"/>
      </g>
     </g>
    </g>
    <g id="xtick_12">
     <g id="line2d_12">
      <g>
       <use xlink:href="#m480fc6d06d" x="432.520929" y="108.747437" style="stroke: #000000; stroke-width: 0.8"/>
      </g>
     </g>
    </g>
    <g id="xtick_13">
     <g id="line2d_13">
      <g>
       <use xlink:href="#m480fc6d06d" x="466.52925" y="108.747437" style="stroke: #000000; stroke-width: 0.8"/>
      </g>
     </g>
    </g>
    <g id="xtick_14">
     <g id="line2d_14">
      <g>
       <use xlink:href="#m480fc6d06d" x="500.537572" y="108.747437" style="stroke: #000000; stroke-width: 0.8"/>
      </g>
     </g>
    </g>
    <g id="xtick_15">
     <g id="line2d_15">
      <g>
       <use xlink:href="#m480fc6d06d" x="534.545894" y="108.747437" style="stroke: #000000; stroke-width: 0.8"/>
      </g>
     </g>
    </g>
    <g id="xtick_16">
     <g id="line2d_16">
      <g>
       <use xlink:href="#m480fc6d06d" x="568.554216" y="108.747437" style="stroke: #000000; stroke-width: 0.8"/>
      </g>
     </g>
    </g>
   </g>
   <g id="matplotlib.axis_2">
    <g id="ytick_1">
     <g id="line2d_17">
      <defs>
       <path id="med20b9bdc7" d="M 0 0 
L -3.5 0 
" style="stroke: #000000; stroke-width: 0.8"/>
      </defs>
      <g>
       <use xlink:href="#med20b9bdc7" x="53.328125" y="77.450762" style="stroke: #000000; stroke-width: 0.8"/>
      </g>
     </g>
     <g id="text_1">
      <!-- 0.79 -->
      <g transform="translate(24.0625 81.249981) scale(0.1 -0.1)">
       <defs>
        <path id="DejaVuSans-30" d="M 2034 4250 
Q 1547 4250 1301 3770 
Q 1056 3291 1056 2328 
Q 1056 1369 1301 889 
Q 1547 409 2034 409 
Q 2525 409 2770 889 
Q 3016 1369 3016 2328 
Q 3016 3291 2770 3770 
Q 2525 4250 2034 4250 
z
M 2034 4750 
Q 2819 4750 3233 4129 
Q 3647 3509 3647 2328 
Q 3647 1150 3233 529 
Q 2819 -91 2034 -91 
Q 1250 -91 836 529 
Q 422 1150 422 2328 
Q 422 3509 836 4129 
Q 1250 4750 2034 4750 
z
" transform="scale(0.015625)"/>
        <path id="DejaVuSans-2e" d="M 684 794 
L 1344 794 
L 1344 0 
L 684 0 
L 684 794 
z
" transform="scale(0.015625)"/>
        <path id="DejaVuSans-37" d="M 525 4666 
L 3525 4666 
L 3525 4397 
L 1831 0 
L 1172 0 
L 2766 4134 
L 525 4134 
L 525 4666 
z
" transform="scale(0.015625)"/>
        <path id="DejaVuSans-39" d="M 703 97 
L 703 672 
Q 941 559 1184 500 
Q 1428 441 1663 441 
Q 2288 441 2617 861 
Q 2947 1281 2994 2138 
Q 2813 1869 2534 1725 
Q 2256 1581 1919 1581 
Q 1219 1581 811 2004 
Q 403 2428 403 3163 
Q 403 3881 828 4315 
Q 1253 4750 1959 4750 
Q 2769 4750 3195 4129 
Q 3622 3509 3622 2328 
Q 3622 1225 3098 567 
Q 2575 -91 1691 -91 
Q 1453 -91 1209 -44 
Q 966 3 703 97 
z
M 1959 2075 
Q 2384 2075 2632 2365 
Q 2881 2656 2881 3163 
Q 2881 3666 2632 3958 
Q 2384 4250 1959 4250 
Q 1534 4250 1286 3958 
Q 1038 3666 1038 3163 
Q 1038 2656 1286 2365 
Q 1534 2075 1959 2075 
z
" transform="scale(0.015625)"/>
       </defs>
       <use xlink:href="#DejaVuSans-30"/>
       <use xlink:href="#DejaVuSans-2e" transform="translate(63.623047 0)"/>
       <use xlink:href="#DejaVuSans-37" transform="translate(95.410156 0)"/>
       <use xlink:href="#DejaVuSans-39" transform="translate(159.033203 0)"/>
      </g>
     </g>
    </g>
    <g id="ytick_2">
     <g id="line2d_18">
      <g>
       <use xlink:href="#med20b9bdc7" x="53.328125" y="39.335217" style="stroke: #000000; stroke-width: 0.8"/>
      </g>
     </g>
     <g id="text_2">
      <!-- 0.80 -->
      <g transform="translate(24.0625 43.134435) scale(0.1 -0.1)">
       <defs>
        <path id="DejaVuSans-38" d="M 2034 2216 
Q 1584 2216 1326 1975 
Q 1069 1734 1069 1313 
Q 1069 891 1326 650 
Q 1584 409 2034 409 
Q 2484 409 2743 651 
Q 3003 894 3003 1313 
Q 3003 1734 2745 1975 
Q 2488 2216 2034 2216 
z
M 1403 2484 
Q 997 2584 770 2862 
Q 544 3141 544 3541 
Q 544 4100 942 4425 
Q 1341 4750 2034 4750 
Q 2731 4750 3128 4425 
Q 3525 4100 3525 3541 
Q 3525 3141 3298 2862 
Q 3072 2584 2669 2484 
Q 3125 2378 3379 2068 
Q 3634 1759 3634 1313 
Q 3634 634 3220 271 
Q 2806 -91 2034 -91 
Q 1263 -91 848 271 
Q 434 634 434 1313 
Q 434 1759 690 2068 
Q 947 2378 1403 2484 
z
M 1172 3481 
Q 1172 3119 1398 2916 
Q 1625 2713 2034 2713 
Q 2441 2713 2670 2916 
Q 2900 3119 2900 3481 
Q 2900 3844 2670 4047 
Q 2441 4250 2034 4250 
Q 1625 4250 1398 4047 
Q 1172 3844 1172 3481 
z
" transform="scale(0.015625)"/>
       </defs>
       <use xlink:href="#DejaVuSans-30"/>
       <use xlink:href="#DejaVuSans-2e" transform="translate(63.623047 0)"/>
       <use xlink:href="#DejaVuSans-38" transform="translate(95.410156 0)"/>
       <use xlink:href="#DejaVuSans-30" transform="translate(159.033203 0)"/>
      </g>
     </g>
    </g>
    <g id="text_3">
     <!-- Price -->
     <g transform="translate(14.798438 70.171375) rotate(-90) scale(0.1 -0.1)">
      <defs>
       <path id="DejaVuSans-50" d="M 1259 4147 
L 1259 2394 
L 2053 2394 
Q 2494 2394 2734 2622 
Q 2975 2850 2975 3272 
Q 2975 3691 2734 3919 
Q 2494 4147 2053 4147 
L 1259 4147 
z
M 628 4666 
L 2053 4666 
Q 2838 4666 3239 4311 
Q 3641 3956 3641 3272 
Q 3641 2581 3239 2228 
Q 2838 1875 2053 1875 
L 1259 1875 
L 1259 0 
L 628 0 
L 628 4666 
z
" transform="scale(0.015625)"/>
       <path id="DejaVuSans-72" d="M 2631 2963 
Q 2534 3019 2420 3045 
Q 2306 3072 2169 3072 
Q 1681 3072 1420 2755 
Q 1159 2438 1159 1844 
L 1159 0 
L 581 0 
L 581 3500 
L 1159 3500 
L 1159 2956 
Q 1341 3275 1631 3429 
Q 1922 3584 2338 3584 
Q 2397 3584 2469 3576 
Q 2541 3569 2628 3553 
L 2631 2963 
z
" transform="scale(0.015625)"/>
       <path id="DejaVuSans-69" d="M 603 3500 
L 1178 3500 
L 1178 0 
L 603 0 
L 603 3500 
z
M 603 4863 
L 1178 4863 
L 1178 4134 
L 603 4134 
L 603 4863 
z
" transform="scale(0.015625)"/>
       <path id="DejaVuSans-63" d="M 3122 3366 
L 3122 2828 
Q 2878 2963 2633 3030 
Q 2388 3097 2138 3097 
Q 1578 3097 1268 2742 
Q 959 2388 959 1747 
Q 959 1106 1268 751 
Q 1578 397 2138 397 
Q 2388 397 2633 464 
Q 2878 531 3122 666 
L 3122 134 
Q 2881 22 2623 -34 
Q 2366 -91 2075 -91 
Q 1284 -91 818 406 
Q 353 903 353 1747 
Q 353 2603 823 3093 
Q 1294 3584 2113 3584 
Q 2378 3584 2631 3529 
Q 2884 3475 3122 3366 
z
" transform="scale(0.015625)"/>
       <path id="DejaVuSans-65" d="M 3597 1894 
L 3597 1613 
L 953 1613 
Q 991 1019 1311 708 
Q 1631 397 2203 397 
Q 2534 397 2845 478 
Q 3156 559 3463 722 
L 3463 178 
Q 3153 47 2828 -22 
Q 2503 -91 2169 -91 
Q 1331 -91 842 396 
Q 353 884 353 1716 
Q 353 2575 817 3079 
Q 1281 3584 2069 3584 
Q 2775 3584 3186 3129 
Q 3597 2675 3597 1894 
z
M 3022 2063 
Q 3016 2534 2758 2815 
Q 2500 3097 2075 3097 
Q 1594 3097 1305 2825 
Q 1016 2553 972 2059 
L 3022 2063 
z
" transform="scale(0.015625)"/>
      </defs>
      <use xlink:href="#DejaVuSans-50"/>
      <use xlink:href="#DejaVuSans-72" transform="translate(58.552734 0)"/>
      <use xlink:href="#DejaVuSans-69" transform="translate(99.666016 0)"/>
      <use xlink:href="#DejaVuSans-63" transform="translate(127.449219 0)"/>
      <use xlink:href="#DejaVuSans-65" transform="translate(182.429688 0)"/>
     </g>
    </g>
   </g>
   <g id="line2d_19">
    <path d="M 58.429389 36.438435 
L 59.520293 34.647004 
L 59.954843 38.229866 
L 60.036322 37.50567 
L 60.574983 41.774611 
L 61.625148 40.059412 
L 62.752264 43.07054 
L 63.788849 39.868834 
L 64.114762 44.137775 
L 64.707742 44.557046 
L 65.671902 40.821723 
L 66.301095 43.451695 
L 67.48253 34.608889 
L 67.65454 34.265849 
L 69.030617 39.411448 
L 69.193574 36.819591 
L 69.70055 32.664996 
L 70.741661 34.151502 
L 72.230903 37.50567 
L 73.308227 40.783607 
L 73.480236 34.68512 
L 73.905734 35.3712 
L 75.304444 38.839714 
L 75.322551 39.525794 
L 76.236918 33.465422 
L 76.90685 33.465422 
L 77.38214 35.066275 
L 79.09771 36.019164 
L 79.518681 32.169494 
L 80.179561 35.409315 
L 81.419841 22.602492 
L 81.596377 26.032891 
L 82.157672 17.380662 
L 84.004513 24.92754 
L 84.407378 16.122849 
L 84.520542 16.160965 
L 85.5526 31.978916 
L 86.177267 30.187486 
L 87.521658 23.250456 
L 87.843045 25.156234 
L 88.861523 18.562244 
L 90.314552 18.295435 
L 90.577093 25.575505 
L 90.654045 24.813194 
L 90.694784 17.799933 
L 92.193079 20.086866 
L 93.383567 16.999507 
L 94.085186 19.858173 
L 95.311886 16.847045 
L 96.276046 20.239328 
L 97.652123 13.72157 
L 98.317529 23.364803 
L 98.584597 20.925408 
L 99.354114 27.443166 
L 99.865616 24.355807 
L 100.712085 20.124982 
L 101.798462 17.91428 
L 102.617771 28.586633 
L 103.409921 28.624748 
L 104.002902 24.775078 
L 104.496298 27.405051 
L 105.211496 23.059879 
L 106.691685 22.030759 
L 107.375197 29.844446 
L 107.619632 27.32882 
L 108.054183 19.820057 
L 109.996081 22.640608 
L 110.589062 25.804198 
L 110.611695 25.080002 
L 111.458164 22.145105 
L 112.576227 21.878297 
L 112.784449 23.441034 
L 113.848193 24.050883 
L 115.07942 18.486013 
L 115.87157 23.13611 
L 116.17485 19.133977 
L 116.957947 23.250456 
L 117.804416 16.961391 
L 119.18502 21.230332 
L 119.778 13.912148 
L 120.171812 13.149837 
L 120.801005 16.88516 
L 121.82401 11.815793 
L 122.76101 16.313427 
L 124.327204 25.156234 
L 124.413209 12.196948 
L 124.449421 22.335683 
L 125.956769 17.495009 
L 127.233262 21.268448 
L 127.6316 19.743826 
L 127.980146 23.174225 
L 129.039364 23.174225 
L 129.958258 20.658599 
L 131.452026 21.649603 
L 132.045007 26.071007 
L 132.565562 24.279576 
L 133.063485 29.005904 
L 134.89222 24.24146 
L 135.136655 31.216605 
L 135.267925 29.768215 
L 136.408621 49.664529 
L 136.834119 44.061544 
L 137.961235 55.801132 
L 138.241882 52.332618 
L 139.699438 44.671393 
L 140.016298 47.26325 
L 140.51422 44.709508 
L 141.315423 47.377597 
L 141.324477 45.509935 
L 175.047428 45.509935 
L 175.604196 51.799 
L 176.165491 38.915946 
L 176.613621 41.279109 
L 178.102863 45.586166 
L 178.68679 44.557046 
L 179.374829 47.873099 
L 180.185085 44.747624 
L 181.117559 50.0838 
L 181.606428 48.559179 
L 182.448371 53.781008 
L 182.724491 52.675657 
L 183.177148 57.70691 
L 184.670917 51.951462 
L 185.291057 57.935603 
L 185.90667 55.191284 
L 187.088105 64.948863 
L 187.6494 60.374998 
L 188.346492 66.054214 
L 188.898734 64.605823 
L 189.595826 59.422109 
L 190.401555 61.175424 
L 191.066961 67.045218 
L 192.420406 59.460225 
L 192.85043 68.607956 
L 193.606367 64.643939 
L 194.86928 68.56984 
L 195.51658 66.473485 
L 195.942078 69.59896 
L 197.286469 65.596827 
L 197.924715 69.217804 
L 199.020146 71.542853 
L 199.287213 67.655067 
L 199.699131 71.04735 
L 200.40075 60.641807 
L 201.333223 68.531724 
L 202.559924 62.013966 
L 202.700247 63.805397 
L 203.451658 56.029826 
L 204.388658 65.025094 
L 205.370924 52.637542 
L 205.991064 55.64867 
L 207.235871 48.864103 
L 207.344509 50.731765 
L 208.150238 47.072672 
L 209.345253 46.882095 
L 209.471997 59.688918 
L 210.9205 52.256386 
L 211.549693 46.805863 
L 212.531959 44.976317 
L 213.047988 49.626414 
L 213.459906 48.29237 
L 214.944621 51.379729 
L 215.284114 54.314626 
L 216.451969 45.395588 
L 216.777882 51.11292 
L 217.488554 45.471819 
L 218.439133 52.332618 
L 219.330868 46.119784 
L 220.222602 42.651269 
L 221.191288 53.247391 
L 222.037757 47.911214 
L 222.70769 48.902218 
L 223.821226 42.498807 
L 224.513791 44.976317 
L 225.432685 41.126647 
L 226.347052 38.649137 
L 226.437584 47.491943 
L 228.021883 45.014433 
L 228.732555 42.079536 
L 229.148999 42.231998 
L 229.637869 44.4427 
L 230.986787 44.290237 
L 231.253855 42.689385 
L 232.009792 44.366469 
L 232.928686 39.487679 
L 233.512614 43.375464 
L 233.815894 40.059412 
L 236.201397 40.135643 
L 236.396039 43.184887 
L 237.188189 37.696248 
L 237.794749 51.875231 
L 237.989392 47.110788 
L 238.627638 58.583567 
L 239.781914 53.971586 
L 239.94487 56.639674 
L 241.130832 52.942466 
L 241.904875 56.33475 
L 243.353378 61.366002 
L 243.484649 51.417844 
L 244.104789 56.449097 
L 245.47634 53.971586 
L 246.205118 54.810128 
L 246.865997 51.951462 
L 247.182857 53.399853 
L 248.513669 50.541187 
L 248.880321 51.036689 
L 249.735843 53.781008 
L 250.709055 56.296634 
L 251.763746 49.130912 
L 252.374833 47.225134 
L 253.447631 53.628546 
L 254.375577 44.480815 
L 255.108882 46.539055 
L 255.805974 52.942466 
L 256.896877 48.482947 
L 257.734293 54.352741 
L 258.20053 52.599426 
L 258.956467 55.191284 
L 260.296332 54.314626 
L 260.328018 51.45596 
L 260.984371 53.247391 
L 293.2045 53.247391 
L 294.490046 57.401985 
L 294.526259 45.967321 
L 295.060394 55.229399 
L 296.422892 51.417844 
L 297.667699 52.980582 
L 298.115829 50.960458 
L 299.609598 54.27651 
L 300.877037 51.265382 
L 301.139578 49.550183 
L 302.397965 54.810128 
L 302.678612 52.675657 
L 303.918893 59.917611 
L 304.801574 56.944599 
L 305.412661 60.718038 
L 305.59825 59.650802 
L 306.001115 56.296634 
L 307.042227 57.859372 
L 307.897748 63.576704 
L 308.843802 59.574571 
L 309.264773 62.738162 
L 311.378681 56.220403 
L 311.433 64.415246 
L 311.668382 57.478216 
L 311.795126 63.767281 
L 314.212314 60.679922 
L 314.556334 58.926607 
L 314.728343 59.84138 
L 316.149687 65.025094 
L 316.806039 62.433237 
L 317.756619 65.215672 
L 317.856204 63.957859 
L 318.766044 71.04735 
L 319.594407 67.273911 
L 320.449929 74.47775 
L 321.93917 77.2983 
L 322.351088 69.675191 
L 322.405407 70.551848 
L 323.618528 87.132111 
L 324.582688 82.86317 
L 325.374837 91.59163 
L 325.451789 90.257585 
L 325.71433 94.374064 
L 328.371427 87.246457 
L 328.430273 96.584766 
L 328.561543 93.916678 
L 328.575123 88.580501 
L 330.716191 93.573638 
L 331.639611 88.199346 
L 332.223539 90.410048 
L 334.115645 89.990777 
L 334.568302 87.741959 
L 335.460037 89.457159 
L 336.170708 85.531258 
L 336.175235 85.645604 
L 337.433622 91.553514 
L 338.850438 91.667861 
L 339.352888 86.446031 
L 340.738018 93.116251 
L 340.796864 91.667861 
L 341.874187 87.932537 
L 343.363429 104.131644 
L 343.897564 79.813926 
L 344.25969 88.542386 
L 345.38228 87.39892 
L 345.631241 77.679455 
L 347.319652 84.502138 
L 348.401502 78.632344 
L 348.876792 78.67046 
L 349.637256 81.872165 
L 350.049174 80.004504 
L 351.203449 73.296168 
L 351.927701 71.619084 
L 353.05029 83.701712 
L 353.493894 79.928273 
L 354.390155 88.046884 
L 354.589324 86.598493 
L 355.883923 79.356539 
L 356.354687 81.071739 
L 357.214735 63.00497 
L 358.423329 71.619084 
L 358.69945 65.025094 
L 359.238112 66.168561 
L 359.989523 70.208808 
L 361.107586 69.713306 
L 361.686987 66.130445 
L 362.384079 62.890624 
L 362.719045 74.515865 
L 364.701683 64.910748 
L 365.149813 68.493609 
L 366.281456 64.300899 
L 367.467418 69.637075 
L 367.924601 64.872632 
L 368.45421 67.159565 
L 369.558693 59.079069 
L 369.934399 63.957859 
L 370.771814 56.182288 
L 371.867244 60.108189 
L 372.976254 53.590431 
L 373.587341 52.218271 
L 374.311592 61.366002 
L 374.890993 61.747157 
L 375.583559 56.410981 
L 376.570351 59.727033 
L 377.588829 56.372865 
L 378.534883 57.897487 
L 379.327033 54.314626 
L 379.376825 59.002838 
L 380.675951 57.668794 
L 412.89608 57.668794 
L 413.434742 75.697447 
L 413.51622 52.180155 
L 414.48038 55.64867 
L 415.643709 51.11292 
L 416.241216 53.93347 
L 417.345699 50.350609 
L 417.848148 52.065809 
L 418.785149 49.512067 
L 419.043163 50.236263 
L 420.333236 56.33475 
L 420.622936 54.96259 
L 421.926589 62.547584 
L 422.424511 59.040954 
L 422.936014 64.491477 
L 424.244193 62.814393 
L 424.805487 66.664063 
L 425.298884 60.413113 
L 425.796806 64.453361 
L 426.760966 63.043086 
L 428.123464 67.769414 
L 428.594227 66.816525 
L 429.72587 69.027227 
L 430.481807 59.955727 
L 431.165319 69.637075 
L 431.799039 69.141573 
L 432.726986 67.083334 
L 433.772624 73.677323 
L 434.487822 70.894888 
L 435.619465 68.074338 
L 436.954803 66.435369 
L 437.366721 69.408382 
L 438.299194 64.567708 
L 438.81975 71.04735 
L 439.163769 71.695315 
L 439.974026 66.930872 
L 441.31389 66.549716 
L 441.775601 70.704311 
L 442.445533 69.484613 
L 443.346321 65.025094 
L 443.617915 65.901752 
L 445.084524 73.79167 
L 445.193161 73.677323 
L 446.220693 70.056346 
L 447.402128 76.002371 
L 447.406655 64.605823 
L 448.198804 73.410514 
L 449.706152 70.399386 
L 449.778578 71.085466 
L 450.502829 68.493609 
L 451.480568 69.637075 
L 452.372302 67.655067 
L 453.350042 70.361271 
L 454.255356 66.625947 
L 454.495264 68.112453 
L 455.726491 61.061078 
L 455.95282 63.119317 
L 457.233839 57.70691 
L 457.460168 57.478216 
L 458.270424 63.195548 
L 459.356801 61.785273 
L 459.732506 57.058945 
L 460.47939 58.659798 
L 461.303226 55.534323 
L 462.204014 57.935603 
L 463.113855 55.801132 
L 464.403927 63.919743 
L 464.535198 55.839248 
L 465.101019 61.632811 
L 465.214183 55.839248 
L 467.269246 61.137309 
L 467.803382 57.70691 
L 468.414469 59.765149 
L 468.790174 58.011834 
L 470.025928 59.650802 
L 470.917662 56.258519 
L 471.890875 58.392989 
L 472.194155 51.303498 
L 472.814295 53.17116 
L 474.149634 57.973718 
L 475.086634 56.601559 
L 475.670561 39.792603 
L 476.209223 47.834983 
L 477.300127 36.324088 
L 478.006272 39.754488 
L 478.952325 34.075271 
L 480.310296 40.326221 
L 481.478151 43.41358 
L 481.496258 34.265849 
L 482.093765 44.137775 
L 482.102818 35.828586 
L 483.60564 36.514666 
L 484.651277 40.631145 
L 485.026983 39.182754 
L 486.190311 42.117651 
L 486.715394 41.279109 
L 487.887775 43.108656 
L 488.512442 44.290237 
L 489.150689 38.915946 
L 489.707457 43.794735 
L 491.269124 37.886826 
L 492.414346 44.709508 
L 493.070699 41.927074 
L 493.989593 48.521063 
L 494.274767 43.832851 
L 495.247979 47.415712 
L 495.831907 46.691517 
L 496.972603 49.245258 
L 497.959395 49.74076 
L 498.36226 45.967321 
L 498.833023 46.348477 
L 531.053153 46.348477 
L 532.460916 57.70691 
L 532.551448 39.716372 
L 532.605766 40.897954 
L 532.610293 55.534323 
L 534.525032 48.444832 
L 535.204018 53.056813 
L 535.665728 51.303498 
L 536.611781 55.115052 
L 538.467675 55.877363 
L 538.594419 53.133044 
L 539.454468 50.922342 
L 540.119874 56.982714 
L 540.377888 57.36387 
L 541.781125 50.503071 
L 541.903343 51.608422 
L 542.939927 43.985313 
L 543.388058 45.852975 
L 543.72755 54.162164 
L 544.881826 47.26325 
L 545.683029 51.684653 
L 546.597396 50.617418 
L 547.326174 48.101792 
L 547.946314 50.198147 
L 549.471769 41.965189 
L 549.725257 52.408849 
L 551.499672 49.473952 
L 552.183184 45.662397 
L 552.649421 49.626414 
L 552.975334 46.805863 
L 554.790489 47.720637 
L 555.102822 51.989578 
L 555.854233 47.644405 
L 556.732388 56.487212 
L 557.334422 57.516332 
L 558.312161 49.054681 
L 559.566021 46.005437 
L 560.077524 50.960458 
L 561.086949 45.052548 
L 561.634664 55.572439 
L 562.11448 58.354874 
L 562.530925 49.092796 
L 563.861737 62.585699 
L 564.703679 53.590431 
L 564.943587 55.496208 
L 565.812688 52.713773 
L 566.545993 61.21354 
L 566.609365 48.711641 
L 567.976389 54.467088 
L 568.524104 52.561311 
L 568.55579 52.637542 
" clip-path="url(#pdce6449a03)" style="fill: none; stroke: #4169e1; stroke-width: 1.5; stroke-linecap: square"/>
   </g>
   <g id="patch_3">
    <path d="M 53.328125 108.747437 
L 53.328125 7.2 
" style="fill: none; stroke: #000000; stroke-width: 0.8; stroke-linejoin: miter; stroke-linecap: square"/>
   </g>
   <g id="patch_4">
    <path d="M 573.657054 108.747437 
L 573.657054 7.2 
" style="fill: none; stroke: #000000; stroke-width: 0.8; stroke-linejoin: miter; stroke-linecap: square"/>
   </g>
   <g id="patch_5">
    <path d="M 53.328125 108.747437 
L 573.657054 108.747437 
" style="fill: none; stroke: #000000; stroke-width: 0.8; stroke-linejoin: miter; stroke-linecap: square"/>
   </g>
   <g id="patch_6">
    <path d="M 53.328125 7.2 
L 573.657054 7.2 
" style="fill: none; stroke: #000000; stroke-width: 0.8; stroke-linejoin: miter; stroke-linecap: square"/>
   </g>
  </g>
  <g id="axes_2">
   <g id="patch_7">
    <path d="M 53.328125 219.795353 
L 573.657054 219.795353 
L 573.657054 118.247917 
L 53.328125 118.247917 
z
" style="fill: #ffffff"/>
   </g>
   <g id="matplotlib.axis_3">
    <g id="xtick_17">
     <g id="line2d_20">
      <g>
       <use xlink:href="#m480fc6d06d" x="58.429389" y="219.795353" style="stroke: #000000; stroke-width: 0.8"/>
      </g>
     </g>
    </g>
    <g id="xtick_18">
     <g id="line2d_21">
      <g>
       <use xlink:href="#m480fc6d06d" x="92.437711" y="219.795353" style="stroke: #000000; stroke-width: 0.8"/>
      </g>
     </g>
    </g>
    <g id="xtick_19">
     <g id="line2d_22">
      <g>
       <use xlink:href="#m480fc6d06d" x="126.446033" y="219.795353" style="stroke: #000000; stroke-width: 0.8"/>
      </g>
     </g>
    </g>
    <g id="xtick_20">
     <g id="line2d_23">
      <g>
       <use xlink:href="#m480fc6d06d" x="160.454354" y="219.795353" style="stroke: #000000; stroke-width: 0.8"/>
      </g>
     </g>
    </g>
    <g id="xtick_21">
     <g id="line2d_24">
      <g>
       <use xlink:href="#m480fc6d06d" x="194.462676" y="219.795353" style="stroke: #000000; stroke-width: 0.8"/>
      </g>
     </g>
    </g>
    <g id="xtick_22">
     <g id="line2d_25">
      <g>
       <use xlink:href="#m480fc6d06d" x="228.470998" y="219.795353" style="stroke: #000000; stroke-width: 0.8"/>
      </g>
     </g>
    </g>
    <g id="xtick_23">
     <g id="line2d_26">
      <g>
       <use xlink:href="#m480fc6d06d" x="262.47932" y="219.795353" style="stroke: #000000; stroke-width: 0.8"/>
      </g>
     </g>
    </g>
    <g id="xtick_24">
     <g id="line2d_27">
      <g>
       <use xlink:href="#m480fc6d06d" x="296.487642" y="219.795353" style="stroke: #000000; stroke-width: 0.8"/>
      </g>
     </g>
    </g>
    <g id="xtick_25">
     <g id="line2d_28">
      <g>
       <use xlink:href="#m480fc6d06d" x="330.495963" y="219.795353" style="stroke: #000000; stroke-width: 0.8"/>
      </g>
     </g>
    </g>
    <g id="xtick_26">
     <g id="line2d_29">
      <g>
       <use xlink:href="#m480fc6d06d" x="364.504285" y="219.795353" style="stroke: #000000; stroke-width: 0.8"/>
      </g>
     </g>
    </g>
    <g id="xtick_27">
     <g id="line2d_30">
      <g>
       <use xlink:href="#m480fc6d06d" x="398.512607" y="219.795353" style="stroke: #000000; stroke-width: 0.8"/>
      </g>
     </g>
    </g>
    <g id="xtick_28">
     <g id="line2d_31">
      <g>
       <use xlink:href="#m480fc6d06d" x="432.520929" y="219.795353" style="stroke: #000000; stroke-width: 0.8"/>
      </g>
     </g>
    </g>
    <g id="xtick_29">
     <g id="line2d_32">
      <g>
       <use xlink:href="#m480fc6d06d" x="466.52925" y="219.795353" style="stroke: #000000; stroke-width: 0.8"/>
      </g>
     </g>
    </g>
    <g id="xtick_30">
     <g id="line2d_33">
      <g>
       <use xlink:href="#m480fc6d06d" x="500.537572" y="219.795353" style="stroke: #000000; stroke-width: 0.8"/>
      </g>
     </g>
    </g>
    <g id="xtick_31">
     <g id="line2d_34">
      <g>
       <use xlink:href="#m480fc6d06d" x="534.545894" y="219.795353" style="stroke: #000000; stroke-width: 0.8"/>
      </g>
     </g>
    </g>
    <g id="xtick_32">
     <g id="line2d_35">
      <g>
       <use xlink:href="#m480fc6d06d" x="568.554216" y="219.795353" style="stroke: #000000; stroke-width: 0.8"/>
      </g>
     </g>
    </g>
   </g>
   <g id="matplotlib.axis_4">
    <g id="ytick_3">
     <g id="line2d_36">
      <g>
       <use xlink:href="#med20b9bdc7" x="53.328125" y="203.95847" style="stroke: #000000; stroke-width: 0.8"/>
      </g>
     </g>
     <g id="text_4">
      <!-- 1000 -->
      <g transform="translate(20.878125 207.757689) scale(0.1 -0.1)">
       <defs>
        <path id="DejaVuSans-31" d="M 794 531 
L 1825 531 
L 1825 4091 
L 703 3866 
L 703 4441 
L 1819 4666 
L 2450 4666 
L 2450 531 
L 3481 531 
L 3481 0 
L 794 0 
L 794 531 
z
" transform="scale(0.015625)"/>
       </defs>
       <use xlink:href="#DejaVuSans-31"/>
       <use xlink:href="#DejaVuSans-30" transform="translate(63.623047 0)"/>
       <use xlink:href="#DejaVuSans-30" transform="translate(127.246094 0)"/>
       <use xlink:href="#DejaVuSans-30" transform="translate(190.869141 0)"/>
      </g>
     </g>
    </g>
    <g id="ytick_4">
     <g id="line2d_37">
      <g>
       <use xlink:href="#med20b9bdc7" x="53.328125" y="168.891192" style="stroke: #000000; stroke-width: 0.8"/>
      </g>
     </g>
     <g id="text_5">
      <!-- 1005 -->
      <g transform="translate(20.878125 172.690411) scale(0.1 -0.1)">
       <defs>
        <path id="DejaVuSans-35" d="M 691 4666 
L 3169 4666 
L 3169 4134 
L 1269 4134 
L 1269 2991 
Q 1406 3038 1543 3061 
Q 1681 3084 1819 3084 
Q 2600 3084 3056 2656 
Q 3513 2228 3513 1497 
Q 3513 744 3044 326 
Q 2575 -91 1722 -91 
Q 1428 -91 1123 -41 
Q 819 9 494 109 
L 494 744 
Q 775 591 1075 516 
Q 1375 441 1709 441 
Q 2250 441 2565 725 
Q 2881 1009 2881 1497 
Q 2881 1984 2565 2268 
Q 2250 2553 1709 2553 
Q 1456 2553 1204 2497 
Q 953 2441 691 2322 
L 691 4666 
z
" transform="scale(0.015625)"/>
       </defs>
       <use xlink:href="#DejaVuSans-31"/>
       <use xlink:href="#DejaVuSans-30" transform="translate(63.623047 0)"/>
       <use xlink:href="#DejaVuSans-30" transform="translate(127.246094 0)"/>
       <use xlink:href="#DejaVuSans-35" transform="translate(190.869141 0)"/>
      </g>
     </g>
    </g>
    <g id="ytick_5">
     <g id="line2d_38">
      <g>
       <use xlink:href="#med20b9bdc7" x="53.328125" y="133.823915" style="stroke: #000000; stroke-width: 0.8"/>
      </g>
     </g>
     <g id="text_6">
      <!-- 1010 -->
      <g transform="translate(20.878125 137.623133) scale(0.1 -0.1)">
       <use xlink:href="#DejaVuSans-31"/>
       <use xlink:href="#DejaVuSans-30" transform="translate(63.623047 0)"/>
       <use xlink:href="#DejaVuSans-31" transform="translate(127.246094 0)"/>
       <use xlink:href="#DejaVuSans-30" transform="translate(190.869141 0)"/>
      </g>
     </g>
    </g>
    <g id="text_7">
     <!-- Equity -->
     <g transform="translate(14.798438 184.832573) rotate(-90) scale(0.1 -0.1)">
      <defs>
       <path id="DejaVuSans-45" d="M 628 4666 
L 3578 4666 
L 3578 4134 
L 1259 4134 
L 1259 2753 
L 3481 2753 
L 3481 2222 
L 1259 2222 
L 1259 531 
L 3634 531 
L 3634 0 
L 628 0 
L 628 4666 
z
" transform="scale(0.015625)"/>
       <path id="DejaVuSans-71" d="M 947 1747 
Q 947 1113 1208 752 
Q 1469 391 1925 391 
Q 2381 391 2643 752 
Q 2906 1113 2906 1747 
Q 2906 2381 2643 2742 
Q 2381 3103 1925 3103 
Q 1469 3103 1208 2742 
Q 947 2381 947 1747 
z
M 2906 525 
Q 2725 213 2448 61 
Q 2172 -91 1784 -91 
Q 1150 -91 751 415 
Q 353 922 353 1747 
Q 353 2572 751 3078 
Q 1150 3584 1784 3584 
Q 2172 3584 2448 3432 
Q 2725 3281 2906 2969 
L 2906 3500 
L 3481 3500 
L 3481 -1331 
L 2906 -1331 
L 2906 525 
z
" transform="scale(0.015625)"/>
       <path id="DejaVuSans-75" d="M 544 1381 
L 544 3500 
L 1119 3500 
L 1119 1403 
Q 1119 906 1312 657 
Q 1506 409 1894 409 
Q 2359 409 2629 706 
Q 2900 1003 2900 1516 
L 2900 3500 
L 3475 3500 
L 3475 0 
L 2900 0 
L 2900 538 
Q 2691 219 2414 64 
Q 2138 -91 1772 -91 
Q 1169 -91 856 284 
Q 544 659 544 1381 
z
M 1991 3584 
L 1991 3584 
z
" transform="scale(0.015625)"/>
       <path id="DejaVuSans-74" d="M 1172 4494 
L 1172 3500 
L 2356 3500 
L 2356 3053 
L 1172 3053 
L 1172 1153 
Q 1172 725 1289 603 
Q 1406 481 1766 481 
L 2356 481 
L 2356 0 
L 1766 0 
Q 1100 0 847 248 
Q 594 497 594 1153 
L 594 3053 
L 172 3053 
L 172 3500 
L 594 3500 
L 594 4494 
L 1172 4494 
z
" transform="scale(0.015625)"/>
       <path id="DejaVuSans-79" d="M 2059 -325 
Q 1816 -950 1584 -1140 
Q 1353 -1331 966 -1331 
L 506 -1331 
L 506 -850 
L 844 -850 
Q 1081 -850 1212 -737 
Q 1344 -625 1503 -206 
L 1606 56 
L 191 3500 
L 800 3500 
L 1894 763 
L 2988 3500 
L 3597 3500 
L 2059 -325 
z
" transform="scale(0.015625)"/>
      </defs>
      <use xlink:href="#DejaVuSans-45"/>
      <use xlink:href="#DejaVuSans-71" transform="translate(63.183594 0)"/>
      <use xlink:href="#DejaVuSans-75" transform="translate(126.660156 0)"/>
      <use xlink:href="#DejaVuSans-69" transform="translate(190.039062 0)"/>
      <use xlink:href="#DejaVuSans-74" transform="translate(217.822266 0)"/>
      <use xlink:href="#DejaVuSans-79" transform="translate(257.03125 0)"/>
     </g>
    </g>
   </g>
   <g id="line2d_39">
    <path d="M 58.429389 203.95847 
L 63.032911 203.95847 
L 64.114762 214.215211 
L 64.707742 215.179561 
L 65.671902 206.588078 
L 66.101926 207.114087 
L 76.843478 207.114087 
L 78.079232 209.563423 
L 79.09771 213.321092 
L 79.518681 204.494939 
L 80.179561 211.92289 
L 81.202566 183.434514 
L 81.447001 184.745329 
L 105.994593 184.745329 
L 107.506468 186.76409 
L 107.5291 175.910627 
L 107.619632 186.676562 
L 108.054183 169.433561 
L 109.996081 175.910627 
L 110.589062 183.175445 
L 110.611695 181.512415 
L 111.458164 174.772764 
L 112.576227 174.160069 
L 112.784449 177.748714 
L 113.848193 179.149161 
L 115.07942 166.370084 
L 115.87157 177.04849 
L 116.17485 167.858058 
L 116.957947 177.311074 
L 117.804416 162.868967 
L 119.18502 172.672094 
L 119.778 155.866733 
L 120.171812 154.116174 
L 120.420773 160.505713 
L 121.344194 159.542905 
L 199.604073 159.542905 
L 200.971097 166.46731 
L 201.138581 162.465432 
L 201.333223 168.156992 
L 203.451658 157.051875 
L 204.388658 177.989845 
L 205.370924 149.155776 
L 205.742103 154.567709 
L 233.35871 154.567709 
L 233.512614 159.864578 
L 233.815894 152.18253 
L 236.201397 152.359129 
L 236.396039 159.423081 
L 236.477517 158.628387 
L 236.568049 154.036817 
L 237.966759 154.478315 
L 245.63477 154.478315 
L 246.865997 152.610138 
L 247.051586 156.688042 
L 247.182857 155.978841 
L 248.323553 151.900938 
L 331.571713 151.900938 
L 333.09264 152.774636 
L 334.115645 155.914209 
L 334.640728 150.980594 
L 336.175235 150.980594 
L 337.433622 162.798774 
L 337.736902 152.213926 
L 338.850438 163.06788 
L 339.24425 153.559458 
L 368.395365 153.559458 
L 369.717123 152.036788 
L 369.907239 159.862682 
L 369.934399 158.173 
L 370.771814 140.031154 
L 371.468906 148.212771 
L 372.998887 148.212771 
L 373.990206 143.667687 
L 374.311592 152.916471 
L 374.637505 147.669565 
L 374.890993 153.805778 
L 376.072428 149.8039 
L 426.711174 149.8039 
L 428.372425 163.231764 
L 428.594227 159.137729 
L 429.780189 161.718751 
L 437.448199 161.718751 
L 438.37162 160.283464 
L 438.81975 175.134877 
L 439.163769 176.646697 
L 439.675272 169.354387 
L 442.056248 169.354387 
L 443.586229 171.384241 
L 443.617915 171.029079 
L 445.084524 189.408681 
L 445.193161 189.14231 
L 445.26106 184.969164 
L 451.258766 184.969164 
L 451.480568 187.26196 
L 452.372302 182.648509 
L 452.7978 183.446991 
L 471.207363 183.446991 
L 471.890875 190.243687 
L 472.194155 173.806953 
L 472.814295 178.13706 
L 474.149634 189.271622 
L 475.086634 186.090319 
L 475.670561 147.119351 
L 476.290702 149.770691 
L 477.300127 128.085788 
L 478.006272 136.051671 
L 478.952325 122.863709 
L 480.310296 137.379318 
L 481.478151 144.548613 
L 481.496258 123.306258 
L 482.093765 146.230299 
L 482.102818 126.93516 
L 483.60564 128.528337 
L 484.651277 138.087396 
L 485.026983 134.724024 
L 485.339316 140.211632 
L 486.556964 139.769083 
L 543.329212 139.769083 
L 543.72755 148.198661 
L 544.881826 132.127608 
L 544.931618 135.14648 
L 546.402754 133.637044 
L 559.824036 133.544384 
L 560.077524 142.416406 
L 560.317432 143.392328 
L 561.086949 128.664773 
L 561.747828 134.431587 
L 568.55579 134.431587 
L 568.55579 134.431587 
" clip-path="url(#p13d77c2740)" style="fill: none; stroke: #2e8b57; stroke-width: 1.5; stroke-linecap: square"/>
   </g>
   <g id="patch_8">
    <path d="M 53.328125 219.795353 
L 53.328125 118.247917 
" style="fill: none; stroke: #000000; stroke-width: 0.8; stroke-linejoin: miter; stroke-linecap: square"/>
   </g>
   <g id="patch_9">
    <path d="M 573.657054 219.795353 
L 573.657054 118.247917 
" style="fill: none; stroke: #000000; stroke-width: 0.8; stroke-linejoin: miter; stroke-linecap: square"/>
   </g>
   <g id="patch_10">
    <path d="M 53.328125 219.795353 
L 573.657054 219.795353 
" style="fill: none; stroke: #000000; stroke-width: 0.8; stroke-linejoin: miter; stroke-linecap: square"/>
   </g>
   <g id="patch_11">
    <path d="M 53.328125 118.247917 
L 573.657054 118.247917 
" style="fill: none; stroke: #000000; stroke-width: 0.8; stroke-linejoin: miter; stroke-linecap: square"/>
   </g>
  </g>
  <g id="axes_3">
   <g id="patch_12">
    <path d="M 53.328125 330.84327 
L 573.657054 330.84327 
L 573.657054 229.295833 
L 53.328125 229.295833 
z
" style="fill: #ffffff"/>
   </g>
   <g id="matplotlib.axis_5">
    <g id="xtick_33">
     <g id="line2d_40">
      <g>
       <use xlink:href="#m480fc6d06d" x="58.429389" y="330.84327" style="stroke: #000000; stroke-width: 0.8"/>
      </g>
     </g>
     <g id="text_8">
      <!-- Sep -->
      <g transform="translate(49.004389 345.441708) scale(0.1 -0.1)">
       <defs>
        <path id="DejaVuSans-53" d="M 3425 4513 
L 3425 3897 
Q 3066 4069 2747 4153 
Q 2428 4238 2131 4238 
Q 1616 4238 1336 4038 
Q 1056 3838 1056 3469 
Q 1056 3159 1242 3001 
Q 1428 2844 1947 2747 
L 2328 2669 
Q 3034 2534 3370 2195 
Q 3706 1856 3706 1288 
Q 3706 609 3251 259 
Q 2797 -91 1919 -91 
Q 1588 -91 1214 -16 
Q 841 59 441 206 
L 441 856 
Q 825 641 1194 531 
Q 1563 422 1919 422 
Q 2459 422 2753 634 
Q 3047 847 3047 1241 
Q 3047 1584 2836 1778 
Q 2625 1972 2144 2069 
L 1759 2144 
Q 1053 2284 737 2584 
Q 422 2884 422 3419 
Q 422 4038 858 4394 
Q 1294 4750 2059 4750 
Q 2388 4750 2728 4690 
Q 3069 4631 3425 4513 
z
" transform="scale(0.015625)"/>
        <path id="DejaVuSans-70" d="M 1159 525 
L 1159 -1331 
L 581 -1331 
L 581 3500 
L 1159 3500 
L 1159 2969 
Q 1341 3281 1617 3432 
Q 1894 3584 2278 3584 
Q 2916 3584 3314 3078 
Q 3713 2572 3713 1747 
Q 3713 922 3314 415 
Q 2916 -91 2278 -91 
Q 1894 -91 1617 61 
Q 1341 213 1159 525 
z
M 3116 1747 
Q 3116 2381 2855 2742 
Q 2594 3103 2138 3103 
Q 1681 3103 1420 2742 
Q 1159 2381 1159 1747 
Q 1159 1113 1420 752 
Q 1681 391 2138 391 
Q 2594 391 2855 752 
Q 3116 1113 3116 1747 
z
" transform="scale(0.015625)"/>
       </defs>
       <use xlink:href="#DejaVuSans-53"/>
       <use xlink:href="#DejaVuSans-65" transform="translate(63.476562 0)"/>
       <use xlink:href="#DejaVuSans-70" transform="translate(125 0)"/>
      </g>
     </g>
    </g>
    <g id="xtick_34">
     <g id="line2d_41">
      <g>
       <use xlink:href="#m480fc6d06d" x="92.437711" y="330.84327" style="stroke: #000000; stroke-width: 0.8"/>
      </g>
     </g>
     <g id="text_9">
      <!-- 03 -->
      <g transform="translate(86.075211 345.441708) scale(0.1 -0.1)">
       <defs>
        <path id="DejaVuSans-33" d="M 2597 2516 
Q 3050 2419 3304 2112 
Q 3559 1806 3559 1356 
Q 3559 666 3084 287 
Q 2609 -91 1734 -91 
Q 1441 -91 1130 -33 
Q 819 25 488 141 
L 488 750 
Q 750 597 1062 519 
Q 1375 441 1716 441 
Q 2309 441 2620 675 
Q 2931 909 2931 1356 
Q 2931 1769 2642 2001 
Q 2353 2234 1838 2234 
L 1294 2234 
L 1294 2753 
L 1863 2753 
Q 2328 2753 2575 2939 
Q 2822 3125 2822 3475 
Q 2822 3834 2567 4026 
Q 2313 4219 1838 4219 
Q 1578 4219 1281 4162 
Q 984 4106 628 3988 
L 628 4550 
Q 988 4650 1302 4700 
Q 1616 4750 1894 4750 
Q 2613 4750 3031 4423 
Q 3450 4097 3450 3541 
Q 3450 3153 3228 2886 
Q 3006 2619 2597 2516 
z
" transform="scale(0.015625)"/>
       </defs>
       <use xlink:href="#DejaVuSans-30"/>
       <use xlink:href="#DejaVuSans-33" transform="translate(63.623047 0)"/>
      </g>
     </g>
    </g>
    <g id="xtick_35">
     <g id="line2d_42">
      <g>
       <use xlink:href="#m480fc6d06d" x="126.446033" y="330.84327" style="stroke: #000000; stroke-width: 0.8"/>
      </g>
     </g>
     <g id="text_10">
      <!-- 05 -->
      <g transform="translate(120.083533 345.441708) scale(0.1 -0.1)">
       <use xlink:href="#DejaVuSans-30"/>
       <use xlink:href="#DejaVuSans-35" transform="translate(63.623047 0)"/>
      </g>
     </g>
    </g>
    <g id="xtick_36">
     <g id="line2d_43">
      <g>
       <use xlink:href="#m480fc6d06d" x="160.454354" y="330.84327" style="stroke: #000000; stroke-width: 0.8"/>
      </g>
     </g>
     <g id="text_11">
      <!-- 07 -->
      <g transform="translate(154.091854 345.441708) scale(0.1 -0.1)">
       <use xlink:href="#DejaVuSans-30"/>
       <use xlink:href="#DejaVuSans-37" transform="translate(63.623047 0)"/>
      </g>
     </g>
    </g>
    <g id="xtick_37">
     <g id="line2d_44">
      <g>
       <use xlink:href="#m480fc6d06d" x="194.462676" y="330.84327" style="stroke: #000000; stroke-width: 0.8"/>
      </g>
     </g>
     <g id="text_12">
      <!-- 09 -->
      <g transform="translate(188.100176 345.441708) scale(0.1 -0.1)">
       <use xlink:href="#DejaVuSans-30"/>
       <use xlink:href="#DejaVuSans-39" transform="translate(63.623047 0)"/>
      </g>
     </g>
    </g>
    <g id="xtick_38">
     <g id="line2d_45">
      <g>
       <use xlink:href="#m480fc6d06d" x="228.470998" y="330.84327" style="stroke: #000000; stroke-width: 0.8"/>
      </g>
     </g>
     <g id="text_13">
      <!-- 11 -->
      <g transform="translate(222.108498 345.441708) scale(0.1 -0.1)">
       <use xlink:href="#DejaVuSans-31"/>
       <use xlink:href="#DejaVuSans-31" transform="translate(63.623047 0)"/>
      </g>
     </g>
    </g>
    <g id="xtick_39">
     <g id="line2d_46">
      <g>
       <use xlink:href="#m480fc6d06d" x="262.47932" y="330.84327" style="stroke: #000000; stroke-width: 0.8"/>
      </g>
     </g>
     <g id="text_14">
      <!-- 13 -->
      <g transform="translate(256.11682 345.441708) scale(0.1 -0.1)">
       <use xlink:href="#DejaVuSans-31"/>
       <use xlink:href="#DejaVuSans-33" transform="translate(63.623047 0)"/>
      </g>
     </g>
    </g>
    <g id="xtick_40">
     <g id="line2d_47">
      <g>
       <use xlink:href="#m480fc6d06d" x="296.487642" y="330.84327" style="stroke: #000000; stroke-width: 0.8"/>
      </g>
     </g>
     <g id="text_15">
      <!-- 15 -->
      <g transform="translate(290.125142 345.441708) scale(0.1 -0.1)">
       <use xlink:href="#DejaVuSans-31"/>
       <use xlink:href="#DejaVuSans-35" transform="translate(63.623047 0)"/>
      </g>
     </g>
    </g>
    <g id="xtick_41">
     <g id="line2d_48">
      <g>
       <use xlink:href="#m480fc6d06d" x="330.495963" y="330.84327" style="stroke: #000000; stroke-width: 0.8"/>
      </g>
     </g>
     <g id="text_16">
      <!-- 17 -->
      <g transform="translate(324.133463 345.441708) scale(0.1 -0.1)">
       <use xlink:href="#DejaVuSans-31"/>
       <use xlink:href="#DejaVuSans-37" transform="translate(63.623047 0)"/>
      </g>
     </g>
    </g>
    <g id="xtick_42">
     <g id="line2d_49">
      <g>
       <use xlink:href="#m480fc6d06d" x="364.504285" y="330.84327" style="stroke: #000000; stroke-width: 0.8"/>
      </g>
     </g>
     <g id="text_17">
      <!-- 19 -->
      <g transform="translate(358.141785 345.441708) scale(0.1 -0.1)">
       <use xlink:href="#DejaVuSans-31"/>
       <use xlink:href="#DejaVuSans-39" transform="translate(63.623047 0)"/>
      </g>
     </g>
    </g>
    <g id="xtick_43">
     <g id="line2d_50">
      <g>
       <use xlink:href="#m480fc6d06d" x="398.512607" y="330.84327" style="stroke: #000000; stroke-width: 0.8"/>
      </g>
     </g>
     <g id="text_18">
      <!-- 21 -->
      <g transform="translate(392.150107 345.441708) scale(0.1 -0.1)">
       <defs>
        <path id="DejaVuSans-32" d="M 1228 531 
L 3431 531 
L 3431 0 
L 469 0 
L 469 531 
Q 828 903 1448 1529 
Q 2069 2156 2228 2338 
Q 2531 2678 2651 2914 
Q 2772 3150 2772 3378 
Q 2772 3750 2511 3984 
Q 2250 4219 1831 4219 
Q 1534 4219 1204 4116 
Q 875 4013 500 3803 
L 500 4441 
Q 881 4594 1212 4672 
Q 1544 4750 1819 4750 
Q 2544 4750 2975 4387 
Q 3406 4025 3406 3419 
Q 3406 3131 3298 2873 
Q 3191 2616 2906 2266 
Q 2828 2175 2409 1742 
Q 1991 1309 1228 531 
z
" transform="scale(0.015625)"/>
       </defs>
       <use xlink:href="#DejaVuSans-32"/>
       <use xlink:href="#DejaVuSans-31" transform="translate(63.623047 0)"/>
      </g>
     </g>
    </g>
    <g id="xtick_44">
     <g id="line2d_51">
      <g>
       <use xlink:href="#m480fc6d06d" x="432.520929" y="330.84327" style="stroke: #000000; stroke-width: 0.8"/>
      </g>
     </g>
     <g id="text_19">
      <!-- 23 -->
      <g transform="translate(426.158429 345.441708) scale(0.1 -0.1)">
       <use xlink:href="#DejaVuSans-32"/>
       <use xlink:href="#DejaVuSans-33" transform="translate(63.623047 0)"/>
      </g>
     </g>
    </g>
    <g id="xtick_45">
     <g id="line2d_52">
      <g>
       <use xlink:href="#m480fc6d06d" x="466.52925" y="330.84327" style="stroke: #000000; stroke-width: 0.8"/>
      </g>
     </g>
     <g id="text_20">
      <!-- 25 -->
      <g transform="translate(460.16675 345.441708) scale(0.1 -0.1)">
       <use xlink:href="#DejaVuSans-32"/>
       <use xlink:href="#DejaVuSans-35" transform="translate(63.623047 0)"/>
      </g>
     </g>
    </g>
    <g id="xtick_46">
     <g id="line2d_53">
      <g>
       <use xlink:href="#m480fc6d06d" x="500.537572" y="330.84327" style="stroke: #000000; stroke-width: 0.8"/>
      </g>
     </g>
     <g id="text_21">
      <!-- 27 -->
      <g transform="translate(494.175072 345.441708) scale(0.1 -0.1)">
       <use xlink:href="#DejaVuSans-32"/>
       <use xlink:href="#DejaVuSans-37" transform="translate(63.623047 0)"/>
      </g>
     </g>
    </g>
    <g id="xtick_47">
     <g id="line2d_54">
      <g>
       <use xlink:href="#m480fc6d06d" x="534.545894" y="330.84327" style="stroke: #000000; stroke-width: 0.8"/>
      </g>
     </g>
     <g id="text_22">
      <!-- 29 -->
      <g transform="translate(528.183394 345.441708) scale(0.1 -0.1)">
       <use xlink:href="#DejaVuSans-32"/>
       <use xlink:href="#DejaVuSans-39" transform="translate(63.623047 0)"/>
      </g>
     </g>
    </g>
    <g id="xtick_48">
     <g id="line2d_55">
      <g>
       <use xlink:href="#m480fc6d06d" x="568.554216" y="330.84327" style="stroke: #000000; stroke-width: 0.8"/>
      </g>
     </g>
     <g id="text_23">
      <!-- Oct -->
      <g transform="translate(559.908903 345.441708) scale(0.1 -0.1)">
       <defs>
        <path id="DejaVuSans-4f" d="M 2522 4238 
Q 1834 4238 1429 3725 
Q 1025 3213 1025 2328 
Q 1025 1447 1429 934 
Q 1834 422 2522 422 
Q 3209 422 3611 934 
Q 4013 1447 4013 2328 
Q 4013 3213 3611 3725 
Q 3209 4238 2522 4238 
z
M 2522 4750 
Q 3503 4750 4090 4092 
Q 4678 3434 4678 2328 
Q 4678 1225 4090 567 
Q 3503 -91 2522 -91 
Q 1538 -91 948 565 
Q 359 1222 359 2328 
Q 359 3434 948 4092 
Q 1538 4750 2522 4750 
z
" transform="scale(0.015625)"/>
       </defs>
       <use xlink:href="#DejaVuSans-4f"/>
       <use xlink:href="#DejaVuSans-63" transform="translate(78.710938 0)"/>
       <use xlink:href="#DejaVuSans-74" transform="translate(133.691406 0)"/>
      </g>
     </g>
    </g>
    <g id="text_24">
     <!-- Time -->
     <g transform="translate(301.258996 359.119833) scale(0.1 -0.1)">
      <defs>
       <path id="DejaVuSans-54" d="M -19 4666 
L 3928 4666 
L 3928 4134 
L 2272 4134 
L 2272 0 
L 1638 0 
L 1638 4134 
L -19 4134 
L -19 4666 
z
" transform="scale(0.015625)"/>
       <path id="DejaVuSans-6d" d="M 3328 2828 
Q 3544 3216 3844 3400 
Q 4144 3584 4550 3584 
Q 5097 3584 5394 3201 
Q 5691 2819 5691 2113 
L 5691 0 
L 5113 0 
L 5113 2094 
Q 5113 2597 4934 2840 
Q 4756 3084 4391 3084 
Q 3944 3084 3684 2787 
Q 3425 2491 3425 1978 
L 3425 0 
L 2847 0 
L 2847 2094 
Q 2847 2600 2669 2842 
Q 2491 3084 2119 3084 
Q 1678 3084 1418 2786 
Q 1159 2488 1159 1978 
L 1159 0 
L 581 0 
L 581 3500 
L 1159 3500 
L 1159 2956 
Q 1356 3278 1631 3431 
Q 1906 3584 2284 3584 
Q 2666 3584 2933 3390 
Q 3200 3197 3328 2828 
z
" transform="scale(0.015625)"/>
      </defs>
      <use xlink:href="#DejaVuSans-54"/>
      <use xlink:href="#DejaVuSans-69" transform="translate(57.958984 0)"/>
      <use xlink:href="#DejaVuSans-6d" transform="translate(85.742188 0)"/>
      <use xlink:href="#DejaVuSans-65" transform="translate(183.154297 0)"/>
     </g>
    </g>
    <g id="text_25">
     <!-- 2025-Oct -->
     <g transform="translate(527.033617 358.119833) scale(0.1 -0.1)">
      <defs>
       <path id="DejaVuSans-2d" d="M 313 2009 
L 1997 2009 
L 1997 1497 
L 313 1497 
L 313 2009 
z
" transform="scale(0.015625)"/>
      </defs>
      <use xlink:href="#DejaVuSans-32"/>
      <use xlink:href="#DejaVuSans-30" transform="translate(63.623047 0)"/>
      <use xlink:href="#DejaVuSans-32" transform="translate(127.246094 0)"/>
      <use xlink:href="#DejaVuSans-35" transform="translate(190.869141 0)"/>
      <use xlink:href="#DejaVuSans-2d" transform="translate(254.492188 0)"/>
      <use xlink:href="#DejaVuSans-4f" transform="translate(293.326172 0)"/>
      <use xlink:href="#DejaVuSans-63" transform="translate(372.037109 0)"/>
      <use xlink:href="#DejaVuSans-74" transform="translate(427.017578 0)"/>
     </g>
    </g>
   </g>
   <g id="matplotlib.axis_6">
    <g id="ytick_6">
     <g id="line2d_56">
      <g>
       <use xlink:href="#med20b9bdc7" x="53.328125" y="311.98233" style="stroke: #000000; stroke-width: 0.8"/>
      </g>
     </g>
     <g id="text_26">
      <!-- −0.6 -->
      <g transform="translate(22.045313 315.781548) scale(0.1 -0.1)">
       <defs>
        <path id="DejaVuSans-2212" d="M 678 2272 
L 4684 2272 
L 4684 1741 
L 678 1741 
L 678 2272 
z
" transform="scale(0.015625)"/>
        <path id="DejaVuSans-36" d="M 2113 2584 
Q 1688 2584 1439 2293 
Q 1191 2003 1191 1497 
Q 1191 994 1439 701 
Q 1688 409 2113 409 
Q 2538 409 2786 701 
Q 3034 994 3034 1497 
Q 3034 2003 2786 2293 
Q 2538 2584 2113 2584 
z
M 3366 4563 
L 3366 3988 
Q 3128 4100 2886 4159 
Q 2644 4219 2406 4219 
Q 1781 4219 1451 3797 
Q 1122 3375 1075 2522 
Q 1259 2794 1537 2939 
Q 1816 3084 2150 3084 
Q 2853 3084 3261 2657 
Q 3669 2231 3669 1497 
Q 3669 778 3244 343 
Q 2819 -91 2113 -91 
Q 1303 -91 875 529 
Q 447 1150 447 2328 
Q 447 3434 972 4092 
Q 1497 4750 2381 4750 
Q 2619 4750 2861 4703 
Q 3103 4656 3366 4563 
z
" transform="scale(0.015625)"/>
       </defs>
       <use xlink:href="#DejaVuSans-2212"/>
       <use xlink:href="#DejaVuSans-30" transform="translate(83.789062 0)"/>
       <use xlink:href="#DejaVuSans-2e" transform="translate(147.412109 0)"/>
       <use xlink:href="#DejaVuSans-36" transform="translate(179.199219 0)"/>
      </g>
     </g>
    </g>
    <g id="ytick_7">
     <g id="line2d_57">
      <g>
       <use xlink:href="#med20b9bdc7" x="53.328125" y="285.958762" style="stroke: #000000; stroke-width: 0.8"/>
      </g>
     </g>
     <g id="text_27">
      <!-- −0.4 -->
      <g transform="translate(22.045313 289.75798) scale(0.1 -0.1)">
       <defs>
        <path id="DejaVuSans-34" d="M 2419 4116 
L 825 1625 
L 2419 1625 
L 2419 4116 
z
M 2253 4666 
L 3047 4666 
L 3047 1625 
L 3713 1625 
L 3713 1100 
L 3047 1100 
L 3047 0 
L 2419 0 
L 2419 1100 
L 313 1100 
L 313 1709 
L 2253 4666 
z
" transform="scale(0.015625)"/>
       </defs>
       <use xlink:href="#DejaVuSans-2212"/>
       <use xlink:href="#DejaVuSans-30" transform="translate(83.789062 0)"/>
       <use xlink:href="#DejaVuSans-2e" transform="translate(147.412109 0)"/>
       <use xlink:href="#DejaVuSans-34" transform="translate(179.199219 0)"/>
      </g>
     </g>
    </g>
    <g id="ytick_8">
     <g id="line2d_58">
      <g>
       <use xlink:href="#med20b9bdc7" x="53.328125" y="259.935194" style="stroke: #000000; stroke-width: 0.8"/>
      </g>
     </g>
     <g id="text_28">
      <!-- −0.2 -->
      <g transform="translate(22.045313 263.734413) scale(0.1 -0.1)">
       <use xlink:href="#DejaVuSans-2212"/>
       <use xlink:href="#DejaVuSans-30" transform="translate(83.789062 0)"/>
       <use xlink:href="#DejaVuSans-2e" transform="translate(147.412109 0)"/>
       <use xlink:href="#DejaVuSans-32" transform="translate(179.199219 0)"/>
      </g>
     </g>
    </g>
    <g id="ytick_9">
     <g id="line2d_59">
      <g>
       <use xlink:href="#med20b9bdc7" x="53.328125" y="233.911626" style="stroke: #000000; stroke-width: 0.8"/>
      </g>
     </g>
     <g id="text_29">
      <!-- 0.0 -->
      <g transform="translate(30.425 237.710845) scale(0.1 -0.1)">
       <use xlink:href="#DejaVuSans-30"/>
       <use xlink:href="#DejaVuSans-2e" transform="translate(63.623047 0)"/>
       <use xlink:href="#DejaVuSans-30" transform="translate(95.410156 0)"/>
      </g>
     </g>
    </g>
    <g id="text_30">
     <!-- Drawdown, % -->
     <g transform="translate(14.798438 314.548458) rotate(-90) scale(0.1 -0.1)">
      <defs>
       <path id="DejaVuSans-44" d="M 1259 4147 
L 1259 519 
L 2022 519 
Q 2988 519 3436 956 
Q 3884 1394 3884 2338 
Q 3884 3275 3436 3711 
Q 2988 4147 2022 4147 
L 1259 4147 
z
M 628 4666 
L 1925 4666 
Q 3281 4666 3915 4102 
Q 4550 3538 4550 2338 
Q 4550 1131 3912 565 
Q 3275 0 1925 0 
L 628 0 
L 628 4666 
z
" transform="scale(0.015625)"/>
       <path id="DejaVuSans-61" d="M 2194 1759 
Q 1497 1759 1228 1600 
Q 959 1441 959 1056 
Q 959 750 1161 570 
Q 1363 391 1709 391 
Q 2188 391 2477 730 
Q 2766 1069 2766 1631 
L 2766 1759 
L 2194 1759 
z
M 3341 1997 
L 3341 0 
L 2766 0 
L 2766 531 
Q 2569 213 2275 61 
Q 1981 -91 1556 -91 
Q 1019 -91 701 211 
Q 384 513 384 1019 
Q 384 1609 779 1909 
Q 1175 2209 1959 2209 
L 2766 2209 
L 2766 2266 
Q 2766 2663 2505 2880 
Q 2244 3097 1772 3097 
Q 1472 3097 1187 3025 
Q 903 2953 641 2809 
L 641 3341 
Q 956 3463 1253 3523 
Q 1550 3584 1831 3584 
Q 2591 3584 2966 3190 
Q 3341 2797 3341 1997 
z
" transform="scale(0.015625)"/>
       <path id="DejaVuSans-77" d="M 269 3500 
L 844 3500 
L 1563 769 
L 2278 3500 
L 2956 3500 
L 3675 769 
L 4391 3500 
L 4966 3500 
L 4050 0 
L 3372 0 
L 2619 2869 
L 1863 0 
L 1184 0 
L 269 3500 
z
" transform="scale(0.015625)"/>
       <path id="DejaVuSans-64" d="M 2906 2969 
L 2906 4863 
L 3481 4863 
L 3481 0 
L 2906 0 
L 2906 525 
Q 2725 213 2448 61 
Q 2172 -91 1784 -91 
Q 1150 -91 751 415 
Q 353 922 353 1747 
Q 353 2572 751 3078 
Q 1150 3584 1784 3584 
Q 2172 3584 2448 3432 
Q 2725 3281 2906 2969 
z
M 947 1747 
Q 947 1113 1208 752 
Q 1469 391 1925 391 
Q 2381 391 2643 752 
Q 2906 1113 2906 1747 
Q 2906 2381 2643 2742 
Q 2381 3103 1925 3103 
Q 1469 3103 1208 2742 
Q 947 2381 947 1747 
z
" transform="scale(0.015625)"/>
       <path id="DejaVuSans-6f" d="M 1959 3097 
Q 1497 3097 1228 2736 
Q 959 2375 959 1747 
Q 959 1119 1226 758 
Q 1494 397 1959 397 
Q 2419 397 2687 759 
Q 2956 1122 2956 1747 
Q 2956 2369 2687 2733 
Q 2419 3097 1959 3097 
z
M 1959 3584 
Q 2709 3584 3137 3096 
Q 3566 2609 3566 1747 
Q 3566 888 3137 398 
Q 2709 -91 1959 -91 
Q 1206 -91 779 398 
Q 353 888 353 1747 
Q 353 2609 779 3096 
Q 1206 3584 1959 3584 
z
" transform="scale(0.015625)"/>
       <path id="DejaVuSans-6e" d="M 3513 2113 
L 3513 0 
L 2938 0 
L 2938 2094 
Q 2938 2591 2744 2837 
Q 2550 3084 2163 3084 
Q 1697 3084 1428 2787 
Q 1159 2491 1159 1978 
L 1159 0 
L 581 0 
L 581 3500 
L 1159 3500 
L 1159 2956 
Q 1366 3272 1645 3428 
Q 1925 3584 2291 3584 
Q 2894 3584 3203 3211 
Q 3513 2838 3513 2113 
z
" transform="scale(0.015625)"/>
       <path id="DejaVuSans-2c" d="M 750 794 
L 1409 794 
L 1409 256 
L 897 -744 
L 494 -744 
L 750 256 
L 750 794 
z
" transform="scale(0.015625)"/>
       <path id="DejaVuSans-20" transform="scale(0.015625)"/>
       <path id="DejaVuSans-25" d="M 4653 2053 
Q 4381 2053 4226 1822 
Q 4072 1591 4072 1178 
Q 4072 772 4226 539 
Q 4381 306 4653 306 
Q 4919 306 5073 539 
Q 5228 772 5228 1178 
Q 5228 1588 5073 1820 
Q 4919 2053 4653 2053 
z
M 4653 2450 
Q 5147 2450 5437 2106 
Q 5728 1763 5728 1178 
Q 5728 594 5436 251 
Q 5144 -91 4653 -91 
Q 4153 -91 3862 251 
Q 3572 594 3572 1178 
Q 3572 1766 3864 2108 
Q 4156 2450 4653 2450 
z
M 1428 4353 
Q 1159 4353 1004 4120 
Q 850 3888 850 3481 
Q 850 3069 1003 2837 
Q 1156 2606 1428 2606 
Q 1700 2606 1854 2837 
Q 2009 3069 2009 3481 
Q 2009 3884 1853 4118 
Q 1697 4353 1428 4353 
z
M 4250 4750 
L 4750 4750 
L 1831 -91 
L 1331 -91 
L 4250 4750 
z
M 1428 4750 
Q 1922 4750 2215 4408 
Q 2509 4066 2509 3481 
Q 2509 2891 2217 2550 
Q 1925 2209 1428 2209 
Q 931 2209 642 2551 
Q 353 2894 353 3481 
Q 353 4063 643 4406 
Q 934 4750 1428 4750 
z
" transform="scale(0.015625)"/>
      </defs>
      <use xlink:href="#DejaVuSans-44"/>
      <use xlink:href="#DejaVuSans-72" transform="translate(77.001953 0)"/>
      <use xlink:href="#DejaVuSans-61" transform="translate(118.115234 0)"/>
      <use xlink:href="#DejaVuSans-77" transform="translate(179.394531 0)"/>
      <use xlink:href="#DejaVuSans-64" transform="translate(261.181641 0)"/>
      <use xlink:href="#DejaVuSans-6f" transform="translate(324.658203 0)"/>
      <use xlink:href="#DejaVuSans-77" transform="translate(385.839844 0)"/>
      <use xlink:href="#DejaVuSans-6e" transform="translate(467.626953 0)"/>
      <use xlink:href="#DejaVuSans-2c" transform="translate(531.005859 0)"/>
      <use xlink:href="#DejaVuSans-20" transform="translate(562.792969 0)"/>
      <use xlink:href="#DejaVuSans-25" transform="translate(594.580078 0)"/>
     </g>
    </g>
   </g>
   <g id="line2d_60">
    <path d="M 58.429389 233.911626 
L 63.032911 233.911626 
L 64.114762 252.940547 
L 64.707742 254.729667 
L 65.671902 238.790232 
L 66.101926 239.766115 
L 76.843478 239.766115 
L 78.079232 244.310271 
L 79.09771 251.281725 
L 79.518681 234.906915 
L 80.564319 233.911626 
L 80.921918 249.289176 
L 81.447001 236.336432 
L 105.994593 236.336432 
L 107.483835 233.911626 
L 107.506468 252.352306 
L 107.560786 233.911626 
L 108.973076 256.211267 
L 109.996081 245.869404 
L 110.589062 259.281507 
L 110.611695 256.211267 
L 111.458164 243.768714 
L 112.576227 242.637572 
L 112.784449 249.262828 
L 113.848193 251.848294 
L 114.051889 233.911626 
L 115.87157 253.617236 
L 116.17485 236.65749 
L 116.957947 254.1018 
L 117.315546 233.911626 
L 118.40645 233.911626 
L 119.18502 256.988846 
L 119.809686 233.911626 
L 120.420773 245.682232 
L 121.344194 243.908579 
L 199.604073 243.908579 
L 200.971097 256.664498 
L 201.138581 249.292365 
L 201.333223 259.777176 
L 203.451658 239.319681 
L 204.388658 277.890948 
L 205.25776 233.911626 
L 205.742103 243.874321 
L 233.35871 243.874321 
L 233.512614 253.625199 
L 233.815894 239.483504 
L 236.201397 239.8086 
L 236.396039 252.812458 
L 236.477517 251.349524 
L 236.568049 242.897016 
L 237.966759 243.709757 
L 245.63477 243.709757 
L 246.865997 240.270677 
L 247.051586 247.77759 
L 247.182857 246.47204 
L 248.323553 238.965127 
L 331.571713 238.965127 
L 333.09264 240.573497 
L 334.115645 246.353061 
L 334.640728 237.270889 
L 336.175235 237.270889 
L 337.433622 259.026687 
L 337.736902 239.5413 
L 338.850438 259.522078 
L 339.24425 242.018256 
L 368.395365 242.018256 
L 369.717123 239.21521 
L 369.907239 253.621708 
L 370.251258 233.911626 
L 371.156573 252.714026 
L 371.468906 248.953546 
L 372.998887 248.953546 
L 373.990206 240.5974 
L 374.311592 257.60131 
L 374.637505 247.954861 
L 374.890993 259.236301 
L 376.072428 251.87884 
L 426.711174 251.87884 
L 428.372425 276.565997 
L 428.594227 269.039105 
L 429.780189 273.78432 
L 437.448199 273.78432 
L 438.37162 271.145542 
L 438.81975 298.449897 
L 439.163769 301.229382 
L 439.675272 287.822453 
L 442.056248 287.822453 
L 443.586229 291.554344 
L 443.617915 290.901379 
L 445.084524 324.692318 
L 445.193161 324.202594 
L 445.26106 316.530255 
L 451.258766 316.530255 
L 451.480568 320.745567 
L 452.372302 312.263727 
L 452.7978 313.731737 
L 471.207363 313.731737 
L 471.890875 326.227477 
L 472.194155 296.008505 
L 472.814295 303.969417 
L 474.149634 324.440334 
L 475.086634 318.591501 
L 475.670561 246.943292 
L 476.290702 251.817786 
L 476.462711 233.911626 
L 478.006272 248.532242 
L 478.40461 233.911626 
L 478.884427 233.911626 
L 480.310296 260.534027 
L 481.478151 273.682896 
L 481.496258 234.723284 
L 482.093765 276.767198 
L 482.102818 241.378885 
L 483.60564 244.300856 
L 484.651277 261.832681 
L 485.026983 255.664076 
L 485.339316 265.728642 
L 486.556964 264.916983 
L 543.329212 264.916983 
L 543.72755 280.377279 
L 544.881826 250.902111 
L 544.931618 256.438883 
L 546.402754 253.670497 
L 558.674287 253.670497 
L 559.824036 253.500554 
L 560.077524 269.772315 
L 560.317432 271.562209 
L 561.086949 244.551086 
L 561.747828 255.12773 
L 568.55579 255.12773 
L 568.55579 255.12773 
" clip-path="url(#p3d1ea67bc2)" style="fill: none; stroke: #7a738c; stroke-width: 1.5; stroke-linecap: square"/>
   </g>
   <g id="patch_13">
    <path d="M 53.328125 330.84327 
L 53.328125 229.295833 
" style="fill: none; stroke: #000000; stroke-width: 0.8; stroke-linejoin: miter; stroke-linecap: square"/>
   </g>
   <g id="patch_14">
    <path d="M 573.657054 330.84327 
L 573.657054 229.295833 
" style="fill: none; stroke: #000000; stroke-width: 0.8; stroke-linejoin: miter; stroke-linecap: square"/>
   </g>
   <g id="patch_15">
    <path d="M 53.328125 330.84327 
L 573.657054 330.84327 
" style="fill: none; stroke: #000000; stroke-width: 0.8; stroke-linejoin: miter; stroke-linecap: square"/>
   </g>
   <g id="patch_16">
    <path d="M 53.328125 229.295833 
L 573.657054 229.295833 
" style="fill: none; stroke: #000000; stroke-width: 0.8; stroke-linejoin: miter; stroke-linecap: square"/>
   </g>
  </g>
 </g>
 <defs>
  <clipPath id="pdce6449a03">
   <rect x="53.328125" y="7.2" width="520.328929" height="101.547437"/>
  </clipPath>
  <clipPath id="p13d77c2740">
   <rect x="53.328125" y="118.247917" width="520.328929" height="101.547437"/>
  </clipPath>
  <clipPath id="p3d1ea67bc2">
   <rect x="53.328125" y="229.295833" width="520.328929" height="101.547437"/>
  </clipPath>
 </defs>
</svg>
