<?xml version="1.0" encoding="utf-8" standalone="no"?>
<!DOCTYPE svg PUBLIC "-//W3C//DTD SVG 1.1//EN"
  "http://www.w3.org/Graphics/SVG/1.1/DTD/svg11.dtd">
<svg xmlns:xlink="http://www.w3.org/1999/xlink"   viewBox="0 0 584.399531 368.39952" xmlns="http://www.w3.org/2000/svg" version="1.1" preserveAspectRatio="xMidYMid meet" style="width:100%;height:auto;aspect-ratio:8 / 5;display:block;">
 <metadata>
  <rdf:RDF xmlns:dc="http://purl.org/dc/elements/1.1/" xmlns:cc="http://creativecommons.org/ns#" xmlns:rdf="http://www.w3.org/1999/02/22-rdf-syntax-ns#">
   <cc:Work>
    <dc:type rdf:resource="http://purl.org/dc/dcmitype/StillImage"/>
    <dc:date>2025-10-22T19:17:11.083816</dc:date>
    <dc:format>image/svg+xml</dc:format>
    <dc:creator>
     <cc:Agent>
      <dc:title>Matplotlib v3.10.6, https://matplotlib.org/</dc:title>
     </cc:Agent>
    </dc:creator>
   </cc:Work>
  </rdf:RDF>
 </metadata>
 <defs>
  <style type="text/css">*{stroke-linejoin: round; stroke-linecap: butt}</style>
 </defs>
 <g id="figure_1">
  <g id="patch_1">
   <path d="M 0 368.39952 
L 584.399531 368.39952 
L 584.399531 0 
L 0 0 
z
" style="fill: #ffffff"/>
  </g>
  <g id="axes_1">
   <g id="patch_2">
    <path d="M 58.523438 108.747437 
L 573.605602 108.747437 
L 573.605602 7.2 
L 58.523438 7.2 
z
" style="fill: #ffffff"/>
   </g>
   <g id="matplotlib.axis_1">
    <g id="xtick_1">
     <g id="line2d_1">
      <defs>
       <path id="m316e165267" d="M 0 0 
L 0 3.5 
" style="stroke: #000000; stroke-width: 0.8"/>
      </defs>
      <g>
       <use xlink:href="#m316e165267" x="63.573263" y="108.747437" style="stroke: #000000; stroke-width: 0.8"/>
      </g>
     </g>
    </g>
    <g id="xtick_2">
     <g id="line2d_2">
      <g>
       <use xlink:href="#m316e165267" x="97.23866" y="108.747437" style="stroke: #000000; stroke-width: 0.8"/>
      </g>
     </g>
    </g>
    <g id="xtick_3">
     <g id="line2d_3">
      <g>
       <use xlink:href="#m316e165267" x="130.904057" y="108.747437" style="stroke: #000000; stroke-width: 0.8"/>
      </g>
     </g>
    </g>
    <g id="xtick_4">
     <g id="line2d_4">
      <g>
       <use xlink:href="#m316e165267" x="164.569454" y="108.747437" style="stroke: #000000; stroke-width: 0.8"/>
      </g>
     </g>
    </g>
    <g id="xtick_5">
     <g id="line2d_5">
      <g>
       <use xlink:href="#m316e165267" x="198.234851" y="108.747437" style="stroke: #000000; stroke-width: 0.8"/>
      </g>
     </g>
    </g>
    <g id="xtick_6">
     <g id="line2d_6">
      <g>
       <use xlink:href="#m316e165267" x="231.900248" y="108.747437" style="stroke: #000000; stroke-width: 0.8"/>
      </g>
     </g>
    </g>
    <g id="xtick_7">
     <g id="line2d_7">
      <g>
       <use xlink:href="#m316e165267" x="265.565645" y="108.747437" style="stroke: #000000; stroke-width: 0.8"/>
      </g>
     </g>
    </g>
    <g id="xtick_8">
     <g id="line2d_8">
      <g>
       <use xlink:href="#m316e165267" x="299.231042" y="108.747437" style="stroke: #000000; stroke-width: 0.8"/>
      </g>
     </g>
    </g>
    <g id="xtick_9">
     <g id="line2d_9">
      <g>
       <use xlink:href="#m316e165267" x="332.896439" y="108.747437" style="stroke: #000000; stroke-width: 0.8"/>
      </g>
     </g>
    </g>
    <g id="xtick_10">
     <g id="line2d_10">
      <g>
       <use xlink:href="#m316e165267" x="366.561836" y="108.747437" style="stroke: #000000; stroke-width: 0.8"/>
      </g>
     </g>
    </g>
    <g id="xtick_11">
     <g id="line2d_11">
      <g>
       <use xlink:href="#m316e165267" x="400.227233" y="108.747437" style="stroke: #000000; stroke-width: 0.8"/>
      </g>
     </g>
    </g>
    <g id="xtick_12">
     <g id="line2d_12">
      <g>
       <use xlink:href="#m316e165267" x="433.89263" y="108.747437" style="stroke: #000000; stroke-width: 0.8"/>
      </g>
     </g>
    </g>
    <g id="xtick_13">
     <g id="line2d_13">
      <g>
       <use xlink:href="#m316e165267" x="467.558027" y="108.747437" style="stroke: #000000; stroke-width: 0.8"/>
      </g>
     </g>
    </g>
    <g id="xtick_14">
     <g id="line2d_14">
      <g>
       <use xlink:href="#m316e165267" x="501.223424" y="108.747437" style="stroke: #000000; stroke-width: 0.8"/>
      </g>
     </g>
    </g>
    <g id="xtick_15">
     <g id="line2d_15">
      <g>
       <use xlink:href="#m316e165267" x="534.888821" y="108.747437" style="stroke: #000000; stroke-width: 0.8"/>
      </g>
     </g>
    </g>
    <g id="xtick_16">
     <g id="line2d_16">
      <g>
       <use xlink:href="#m316e165267" x="568.554218" y="108.747437" style="stroke: #000000; stroke-width: 0.8"/>
      </g>
     </g>
    </g>
   </g>
   <g id="matplotlib.axis_2">
    <g id="ytick_1">
     <g id="line2d_17">
      <defs>
       <path id="m1494f379cc" d="M 0 0 
L -3.5 0 
" style="stroke: #000000; stroke-width: 0.8"/>
      </defs>
      <g>
       <use xlink:href="#m1494f379cc" x="58.523438" y="77.450762" style="stroke: #000000; stroke-width: 0.8"/>
      </g>
     </g>
     <g id="text_1">
      <!-- 0.79 -->
      <g transform="translate(29.257813 81.249981) scale(0.1 -0.1)">
       <defs>
        <path id="DejaVuSans-30" d="M 2034 4250 
Q 1547 4250 1301 3770 
Q 1056 3291 1056 2328 
Q 1056 1369 1301 889 
Q 1547 409 2034 409 
Q 2525 409 2770 889 
Q 3016 1369 3016 2328 
Q 3016 3291 2770 3770 
Q 2525 4250 2034 4250 
z
M 2034 4750 
Q 2819 4750 3233 4129 
Q 3647 3509 3647 2328 
Q 3647 1150 3233 529 
Q 2819 -91 2034 -91 
Q 1250 -91 836 529 
Q 422 1150 422 2328 
Q 422 3509 836 4129 
Q 1250 4750 2034 4750 
z
" transform="scale(0.015625)"/>
        <path id="DejaVuSans-2e" d="M 684 794 
L 1344 794 
L 1344 0 
L 684 0 
L 684 794 
z
" transform="scale(0.015625)"/>
        <path id="DejaVuSans-37" d="M 525 4666 
L 3525 4666 
L 3525 4397 
L 1831 0 
L 1172 0 
L 2766 4134 
L 525 4134 
L 525 4666 
z
" transform="scale(0.015625)"/>
        <path id="DejaVuSans-39" d="M 703 97 
L 703 672 
Q 941 559 1184 500 
Q 1428 441 1663 441 
Q 2288 441 2617 861 
Q 2947 1281 2994 2138 
Q 2813 1869 2534 1725 
Q 2256 1581 1919 1581 
Q 1219 1581 811 2004 
Q 403 2428 403 3163 
Q 403 3881 828 4315 
Q 1253 4750 1959 4750 
Q 2769 4750 3195 4129 
Q 3622 3509 3622 2328 
Q 3622 1225 3098 567 
Q 2575 -91 1691 -91 
Q 1453 -91 1209 -44 
Q 966 3 703 97 
z
M 1959 2075 
Q 2384 2075 2632 2365 
Q 2881 2656 2881 3163 
Q 2881 3666 2632 3958 
Q 2384 4250 1959 4250 
Q 1534 4250 1286 3958 
Q 1038 3666 1038 3163 
Q 1038 2656 1286 2365 
Q 1534 2075 1959 2075 
z
" transform="scale(0.015625)"/>
       </defs>
       <use xlink:href="#DejaVuSans-30"/>
       <use xlink:href="#DejaVuSans-2e" transform="translate(63.623047 0)"/>
       <use xlink:href="#DejaVuSans-37" transform="translate(95.410156 0)"/>
       <use xlink:href="#DejaVuSans-39" transform="translate(159.033203 0)"/>
      </g>
     </g>
    </g>
    <g id="ytick_2">
     <g id="line2d_18">
      <g>
       <use xlink:href="#m1494f379cc" x="58.523438" y="39.335217" style="stroke: #000000; stroke-width: 0.8"/>
      </g>
     </g>
     <g id="text_2">
      <!-- 0.80 -->
      <g transform="translate(29.257813 43.134435) scale(0.1 -0.1)">
       <defs>
        <path id="DejaVuSans-38" d="M 2034 2216 
Q 1584 2216 1326 1975 
Q 1069 1734 1069 1313 
Q 1069 891 1326 650 
Q 1584 409 2034 409 
Q 2484 409 2743 651 
Q 3003 894 3003 1313 
Q 3003 1734 2745 1975 
Q 2488 2216 2034 2216 
z
M 1403 2484 
Q 997 2584 770 2862 
Q 544 3141 544 3541 
Q 544 4100 942 4425 
Q 1341 4750 2034 4750 
Q 2731 4750 3128 4425 
Q 3525 4100 3525 3541 
Q 3525 3141 3298 2862 
Q 3072 2584 2669 2484 
Q 3125 2378 3379 2068 
Q 3634 1759 3634 1313 
Q 3634 634 3220 271 
Q 2806 -91 2034 -91 
Q 1263 -91 848 271 
Q 434 634 434 1313 
Q 434 1759 690 2068 
Q 947 2378 1403 2484 
z
M 1172 3481 
Q 1172 3119 1398 2916 
Q 1625 2713 2034 2713 
Q 2441 2713 2670 2916 
Q 2900 3119 2900 3481 
Q 2900 3844 2670 4047 
Q 2441 4250 2034 4250 
Q 1625 4250 1398 4047 
Q 1172 3844 1172 3481 
z
" transform="scale(0.015625)"/>
       </defs>
       <use xlink:href="#DejaVuSans-30"/>
       <use xlink:href="#DejaVuSans-2e" transform="translate(63.623047 0)"/>
       <use xlink:href="#DejaVuSans-38" transform="translate(95.410156 0)"/>
       <use xlink:href="#DejaVuSans-30" transform="translate(159.033203 0)"/>
      </g>
     </g>
    </g>
    <g id="text_3">
     <!-- Price -->
     <g transform="translate(14.798438 70.171375) rotate(-90) scale(0.1 -0.1)">
      <defs>
       <path id="DejaVuSans-50" d="M 1259 4147 
L 1259 2394 
L 2053 2394 
Q 2494 2394 2734 2622 
Q 2975 2850 2975 3272 
Q 2975 3691 2734 3919 
Q 2494 4147 2053 4147 
L 1259 4147 
z
M 628 4666 
L 2053 4666 
Q 2838 4666 3239 4311 
Q 3641 3956 3641 3272 
Q 3641 2581 3239 2228 
Q 2838 1875 2053 1875 
L 1259 1875 
L 1259 0 
L 628 0 
L 628 4666 
z
" transform="scale(0.015625)"/>
       <path id="DejaVuSans-72" d="M 2631 2963 
Q 2534 3019 2420 3045 
Q 2306 3072 2169 3072 
Q 1681 3072 1420 2755 
Q 1159 2438 1159 1844 
L 1159 0 
L 581 0 
L 581 3500 
L 1159 3500 
L 1159 2956 
Q 1341 3275 1631 3429 
Q 1922 3584 2338 3584 
Q 2397 3584 2469 3576 
Q 2541 3569 2628 3553 
L 2631 2963 
z
" transform="scale(0.015625)"/>
       <path id="DejaVuSans-69" d="M 603 3500 
L 1178 3500 
L 1178 0 
L 603 0 
L 603 3500 
z
M 603 4863 
L 1178 4863 
L 1178 4134 
L 603 4134 
L 603 4863 
z
" transform="scale(0.015625)"/>
       <path id="DejaVuSans-63" d="M 3122 3366 
L 3122 2828 
Q 2878 2963 2633 3030 
Q 2388 3097 2138 3097 
Q 1578 3097 1268 2742 
Q 959 2388 959 1747 
Q 959 1106 1268 751 
Q 1578 397 2138 397 
Q 2388 397 2633 464 
Q 2878 531 3122 666 
L 3122 134 
Q 2881 22 2623 -34 
Q 2366 -91 2075 -91 
Q 1284 -91 818 406 
Q 353 903 353 1747 
Q 353 2603 823 3093 
Q 1294 3584 2113 3584 
Q 2378 3584 2631 3529 
Q 2884 3475 3122 3366 
z
" transform="scale(0.015625)"/>
       <path id="DejaVuSans-65" d="M 3597 1894 
L 3597 1613 
L 953 1613 
Q 991 1019 1311 708 
Q 1631 397 2203 397 
Q 2534 397 2845 478 
Q 3156 559 3463 722 
L 3463 178 
Q 3153 47 2828 -22 
Q 2503 -91 2169 -91 
Q 1331 -91 842 396 
Q 353 884 353 1716 
Q 353 2575 817 3079 
Q 1281 3584 2069 3584 
Q 2775 3584 3186 3129 
Q 3597 2675 3597 1894 
z
M 3022 2063 
Q 3016 2534 2758 2815 
Q 2500 3097 2075 3097 
Q 1594 3097 1305 2825 
Q 1016 2553 972 2059 
L 3022 2063 
z
" transform="scale(0.015625)"/>
      </defs>
      <use xlink:href="#DejaVuSans-50"/>
      <use xlink:href="#DejaVuSans-72" transform="translate(58.552734 0)"/>
      <use xlink:href="#DejaVuSans-69" transform="translate(99.666016 0)"/>
      <use xlink:href="#DejaVuSans-63" transform="translate(127.449219 0)"/>
      <use xlink:href="#DejaVuSans-65" transform="translate(182.429688 0)"/>
     </g>
    </g>
   </g>
   <g id="line2d_19">
    <path d="M 63.573263 36.438435 
L 64.653166 34.647004 
L 65.083335 38.229866 
L 65.163992 37.50567 
L 65.697222 41.774611 
L 66.736797 40.059412 
L 67.852548 43.07054 
L 68.87868 39.868834 
L 69.201307 44.137775 
L 69.788308 44.557046 
L 70.742745 40.821723 
L 71.365594 43.451695 
L 72.535116 34.608889 
L 72.705391 34.265849 
L 74.067593 39.411448 
L 74.228906 36.819591 
L 74.73077 32.664996 
L 75.761383 34.151502 
L 77.235608 37.50567 
L 78.302069 40.783607 
L 78.472344 34.68512 
L 78.893551 35.3712 
L 80.278157 38.839714 
L 80.296081 39.525794 
L 81.201228 33.465422 
L 81.864405 33.465422 
L 82.334903 35.066275 
L 84.033174 36.019164 
L 84.4499 32.169494 
L 85.104115 35.409315 
L 86.331889 22.602492 
L 86.506645 26.032891 
L 87.06228 17.380662 
L 88.890498 24.92754 
L 89.289301 16.122849 
L 89.401324 16.160965 
L 90.422975 31.978916 
L 91.041343 30.187486 
L 92.372178 23.250456 
L 92.690324 25.156234 
L 93.698533 18.562244 
L 95.13691 18.295435 
L 95.396804 25.575505 
L 95.47298 24.813194 
L 95.513308 17.799933 
L 96.996495 20.086866 
L 98.174979 16.999507 
L 98.869522 19.858173 
L 100.083853 16.847045 
L 101.038291 20.239328 
L 102.400492 13.72157 
L 103.059189 23.364803 
L 103.323563 20.925408 
L 104.085321 27.443166 
L 104.591666 24.355807 
L 105.429599 20.124982 
L 106.505021 17.91428 
L 107.316069 28.586633 
L 108.100231 28.624748 
L 108.687233 24.775078 
L 109.175654 27.405051 
L 109.88364 23.059879 
L 111.348903 22.030759 
L 112.025523 29.844446 
L 112.267493 27.32882 
L 112.697662 19.820057 
L 114.619979 22.640608 
L 115.206981 25.804198 
L 115.229386 25.080002 
L 116.067319 22.145105 
L 117.174108 21.878297 
L 117.38023 23.441034 
L 118.433248 24.050883 
L 119.65206 18.486013 
L 120.436222 23.13611 
L 120.736444 19.133977 
L 121.511645 23.250456 
L 122.349578 16.961391 
L 123.716261 21.230332 
L 124.303262 13.912148 
L 124.693103 13.149837 
L 125.315952 16.88516 
L 126.328641 11.815793 
L 127.256193 16.313427 
L 128.806593 25.156234 
L 128.891731 12.196948 
L 128.927578 22.335683 
L 130.419727 17.495009 
L 131.683348 21.268448 
L 132.07767 19.743826 
L 132.422701 23.174225 
L 133.471238 23.174225 
L 134.380866 20.658599 
L 135.859572 21.649603 
L 136.446573 26.071007 
L 136.96188 24.279576 
L 137.454782 29.005904 
L 139.265076 24.24146 
L 139.507046 31.216605 
L 139.636993 29.768215 
L 140.766187 49.664529 
L 141.187394 44.061544 
L 142.303145 55.801132 
L 142.580962 52.332618 
L 144.02382 44.671393 
L 144.337485 47.26325 
L 144.830387 44.709508 
L 145.623511 47.377597 
L 145.632473 45.509935 
L 179.015377 45.509935 
L 179.566531 51.799 
L 180.122166 38.915946 
L 180.565778 41.279109 
L 182.040002 45.586166 
L 182.618042 44.557046 
L 183.299143 47.873099 
L 184.101229 44.747624 
L 185.0243 50.0838 
L 185.50824 48.559179 
L 186.341692 53.781008 
L 186.615029 52.675657 
L 187.063121 57.70691 
L 188.541827 51.951462 
L 189.155714 57.935603 
L 189.76512 55.191284 
L 190.934642 64.948863 
L 191.490277 60.374998 
L 192.18034 66.054214 
L 192.727013 64.605823 
L 193.417075 59.422109 
L 194.21468 61.175424 
L 194.873377 67.045218 
L 196.213174 59.460225 
L 196.638862 68.607956 
L 197.387176 64.643939 
L 198.637355 68.56984 
L 199.278127 66.473485 
L 199.699335 69.59896 
L 201.03017 65.596827 
L 201.66198 69.217804 
L 202.746365 71.542853 
L 203.010739 67.655067 
L 203.418504 71.04735 
L 204.113047 60.641807 
L 205.036118 68.531724 
L 206.250449 62.013966 
L 206.389358 63.805397 
L 207.133192 56.029826 
L 208.060744 65.025094 
L 209.033105 52.637542 
L 209.646992 55.64867 
L 210.879247 48.864103 
L 210.986789 50.731765 
L 211.784394 47.072672 
L 212.967358 46.882095 
L 213.092824 59.688918 
L 214.526721 52.256386 
L 215.14957 46.805863 
L 216.121931 44.976317 
L 216.632757 49.626414 
L 217.040521 48.29237 
L 218.510265 51.379729 
L 218.846334 54.314626 
L 220.002413 45.395588 
L 220.32504 51.11292 
L 221.028546 45.471819 
L 221.96954 52.332618 
L 222.852283 46.119784 
L 223.735025 42.651269 
L 224.693944 53.247391 
L 225.531877 47.911214 
L 226.195054 48.902218 
L 227.297362 42.498807 
L 227.982944 44.976317 
L 228.892572 41.126647 
L 229.797719 38.649137 
L 229.887338 47.491943 
L 231.455662 45.014433 
L 232.159168 42.079536 
L 232.571413 42.231998 
L 233.055353 44.4427 
L 234.390669 44.290237 
L 234.655044 42.689385 
L 235.403358 44.366469 
L 236.312987 39.487679 
L 236.891026 43.375464 
L 237.191248 40.059412 
L 239.552697 40.135643 
L 239.745376 43.184887 
L 240.529539 37.696248 
L 241.129983 51.875231 
L 241.322663 47.110788 
L 241.954473 58.583567 
L 243.09711 53.971586 
L 243.258423 56.639674 
L 244.432426 52.942466 
L 245.198664 56.33475 
L 246.632561 61.366002 
L 246.762508 51.417844 
L 247.376395 56.449097 
L 248.734115 53.971586 
L 249.455545 54.810128 
L 250.10976 51.951462 
L 250.423425 53.399853 
L 251.740817 50.541187 
L 252.103772 51.036689 
L 252.950667 53.781008 
L 253.914067 56.296634 
L 254.958123 49.130912 
L 255.563048 47.225134 
L 256.625027 53.628546 
L 257.543617 44.480815 
L 258.269527 46.539055 
L 258.95959 52.942466 
L 260.039493 48.482947 
L 260.868465 54.352741 
L 261.33 52.599426 
L 262.078315 55.191284 
L 263.404669 54.314626 
L 263.436036 51.45596 
L 264.08577 53.247391 
L 295.981006 53.247391 
L 297.25359 57.401985 
L 297.289437 45.967321 
L 297.818186 55.229399 
L 299.166945 51.417844 
L 300.3992 52.980582 
L 300.842812 50.960458 
L 302.321518 54.27651 
L 303.576177 51.265382 
L 303.836071 49.550183 
L 305.081768 54.810128 
L 305.359586 52.675657 
L 306.58736 59.917611 
L 307.461141 56.944599 
L 308.066066 60.718038 
L 308.249784 59.650802 
L 308.648586 56.296634 
L 309.679199 57.859372 
L 310.526094 63.576704 
L 311.462608 59.574571 
L 311.879334 62.738162 
L 313.971927 56.220403 
L 314.025698 64.415246 
L 314.258706 57.478216 
L 314.384172 63.767281 
L 316.776987 60.679922 
L 317.117538 58.926607 
L 317.287813 59.84138 
L 318.694824 65.025094 
L 319.344558 62.433237 
L 320.285553 65.215672 
L 320.384133 63.957859 
L 321.284799 71.04735 
L 322.104809 67.273911 
L 322.951704 74.47775 
L 324.425929 77.2983 
L 324.833693 69.675191 
L 324.887464 70.551848 
L 326.088353 87.132111 
L 327.04279 82.86317 
L 327.826952 91.59163 
L 327.903128 90.257585 
L 328.163022 94.374064 
L 330.793326 87.246457 
L 330.851578 96.584766 
L 330.981525 93.916678 
L 330.994968 88.580501 
L 333.114446 93.573638 
L 334.028555 88.199346 
L 334.606594 90.410048 
L 336.479622 89.990777 
L 336.927714 87.741959 
L 337.810457 89.457159 
L 338.513963 85.531258 
L 338.518443 85.645604 
L 339.764141 91.553514 
L 341.166671 91.667861 
L 341.664054 86.446031 
L 343.035218 93.116251 
L 343.09347 91.667861 
L 344.15993 87.932537 
L 345.634155 104.131644 
L 346.162904 79.813926 
L 346.521379 88.542386 
L 347.632648 87.39892 
L 347.879099 77.679455 
L 349.550485 84.502138 
L 350.621426 78.632344 
L 351.091924 78.67046 
L 351.844719 81.872165 
L 352.252484 80.004504 
L 353.39512 73.296168 
L 354.112068 71.619084 
L 355.223338 83.701712 
L 355.662469 79.928273 
L 356.549692 88.046884 
L 356.746853 86.598493 
L 358.028398 79.356539 
L 358.494415 81.071739 
L 359.345791 63.00497 
L 360.542198 71.619084 
L 360.815535 65.025094 
L 361.348765 66.168561 
L 362.092599 70.208808 
L 363.199388 69.713306 
L 363.772946 66.130445 
L 364.463009 62.890624 
L 364.794598 74.515865 
L 366.757243 64.910748 
L 367.200855 68.493609 
L 368.321087 64.300899 
L 369.49509 69.637075 
L 369.947663 64.872632 
L 370.471932 67.159565 
L 371.565278 59.079069 
L 371.937195 63.957859 
L 372.766166 56.182288 
L 373.85055 60.108189 
L 374.948377 53.590431 
L 375.553303 52.218271 
L 376.270251 61.366002 
L 376.843809 61.747157 
L 377.529391 56.410981 
L 378.506233 59.727033 
L 379.514442 56.372865 
L 380.450955 57.897487 
L 381.235118 54.314626 
L 381.284408 59.002838 
L 382.570434 57.668794 
L 414.46567 57.668794 
L 414.9989 75.697447 
L 415.079557 52.180155 
L 416.033994 55.64867 
L 417.185592 51.11292 
L 417.777075 53.93347 
L 418.870421 50.350609 
L 419.367804 52.065809 
L 420.295356 49.512067 
L 420.550768 50.236263 
L 421.827832 56.33475 
L 422.114612 54.96259 
L 423.405119 62.547584 
L 423.898021 59.040954 
L 424.404365 64.491477 
L 425.699353 62.814393 
L 426.254988 66.664063 
L 426.743409 60.413113 
L 427.236311 64.453361 
L 428.190748 63.043086 
L 429.539507 67.769414 
L 430.005524 66.816525 
L 431.125755 69.027227 
L 431.87407 59.955727 
L 432.55069 69.637075 
L 433.17802 69.141573 
L 434.09661 67.083334 
L 435.131704 73.677323 
L 435.83969 70.894888 
L 436.959922 68.074338 
L 438.281795 66.435369 
L 438.68956 69.408382 
L 439.61263 64.567708 
L 440.127937 71.04735 
L 440.468487 71.695315 
L 441.270573 66.930872 
L 442.596928 66.549716 
L 443.053982 70.704311 
L 443.717159 69.484613 
L 444.608864 65.025094 
L 444.877719 65.901752 
L 446.32954 73.79167 
L 446.437082 73.677323 
L 447.454252 70.056346 
L 448.623774 76.002371 
L 448.628255 64.605823 
L 449.412417 73.410514 
L 450.904566 70.399386 
L 450.976261 71.085466 
L 451.693209 68.493609 
L 452.661089 69.637075 
L 453.543832 67.655067 
L 454.511712 70.361271 
L 455.407897 66.625947 
L 455.645386 68.112453 
L 456.864198 61.061078 
L 457.088245 63.119317 
L 458.356347 57.70691 
L 458.580393 57.478216 
L 459.382479 63.195548 
L 460.457901 61.785273 
L 460.829818 57.058945 
L 461.569171 58.659798 
L 462.3847 55.534323 
L 463.276404 57.935603 
L 464.177071 55.801132 
L 465.454135 63.919743 
L 465.584082 55.839248 
L 466.144197 61.632811 
L 466.256221 55.839248 
L 468.290561 61.137309 
L 468.819311 57.70691 
L 469.424236 59.765149 
L 469.796153 58.011834 
L 471.019446 59.650802 
L 471.902188 56.258519 
L 472.865587 58.392989 
L 473.16581 51.303498 
L 473.779697 53.17116 
L 475.10157 57.973718 
L 476.029122 56.601559 
L 476.607161 39.792603 
L 477.140392 47.834983 
L 478.220295 36.324088 
L 478.919319 39.754488 
L 479.855833 34.075271 
L 481.200111 40.326221 
L 482.35619 43.41358 
L 482.374114 34.265849 
L 482.965596 44.137775 
L 482.974558 35.828586 
L 484.462226 36.514666 
L 485.49732 40.631145 
L 485.869237 39.182754 
L 487.020835 42.117651 
L 487.540622 41.279109 
L 489.31955 44.290237 
L 489.951361 38.915946 
L 490.502515 43.794735 
L 492.048435 37.886826 
L 493.182109 44.709508 
L 493.831843 41.927074 
L 494.741472 48.521063 
L 495.02377 43.832851 
L 495.987169 47.415712 
L 496.565209 46.691517 
L 497.694402 49.245258 
L 498.671244 49.74076 
L 499.070047 45.967321 
L 499.536063 46.348477 
L 531.431299 46.348477 
L 532.824868 57.70691 
L 532.914486 39.716372 
L 532.968257 40.897954 
L 532.972738 55.534323 
L 534.86817 48.444832 
L 535.540309 53.056813 
L 535.997364 51.303498 
L 536.933877 55.115052 
L 538.771057 55.877363 
L 538.896523 53.133044 
L 539.747899 50.922342 
L 540.406595 56.982714 
L 540.662008 57.36387 
L 542.051096 50.503071 
L 542.172081 51.608422 
L 543.198213 43.985313 
L 543.641825 45.852975 
L 543.977894 54.162164 
L 545.12053 47.26325 
L 545.913654 51.684653 
L 546.818802 50.617418 
L 547.540231 48.101792 
L 548.154118 50.198147 
L 549.66419 41.965189 
L 549.915122 52.408849 
L 551.671645 49.473952 
L 552.348265 45.662397 
L 552.809801 49.626414 
L 553.132427 46.805863 
L 554.929279 47.720637 
L 555.238463 51.989578 
L 555.982297 47.644405 
L 556.851596 56.487212 
L 557.44756 57.516332 
L 558.41544 49.054681 
L 559.656657 46.005437 
L 560.163001 50.960458 
L 561.162248 45.052548 
L 561.70444 55.572439 
L 562.179418 58.354874 
L 562.591664 49.092796 
L 563.909056 62.585699 
L 564.742508 53.590431 
L 564.979997 55.496208 
L 565.840335 52.713773 
L 566.566245 61.21354 
L 566.628978 48.711641 
L 567.982218 54.467088 
L 568.52441 52.561311 
L 568.555777 52.637542 
" clip-path="url(#pffcdb9e092)" style="fill: none; stroke: #4169e1; stroke-width: 1.5; stroke-linecap: square"/>
   </g>
   <g id="patch_3">
    <path d="M 58.523438 108.747437 
L 58.523438 7.2 
" style="fill: none; stroke: #000000; stroke-width: 0.8; stroke-linejoin: miter; stroke-linecap: square"/>
   </g>
   <g id="patch_4">
    <path d="M 573.605602 108.747437 
L 573.605602 7.2 
" style="fill: none; stroke: #000000; stroke-width: 0.8; stroke-linejoin: miter; stroke-linecap: square"/>
   </g>
   <g id="patch_5">
    <path d="M 58.523438 108.747437 
L 573.605602 108.747437 
" style="fill: none; stroke: #000000; stroke-width: 0.8; stroke-linejoin: miter; stroke-linecap: square"/>
   </g>
   <g id="patch_6">
    <path d="M 58.523438 7.2 
L 573.605602 7.2 
" style="fill: none; stroke: #000000; stroke-width: 0.8; stroke-linejoin: miter; stroke-linecap: square"/>
   </g>
  </g>
  <g id="axes_2">
   <g id="patch_7">
    <path d="M 58.523438 219.795353 
L 573.605602 219.795353 
L 573.605602 118.247917 
L 58.523438 118.247917 
z
" style="fill: #ffffff"/>
   </g>
   <g id="matplotlib.axis_3">
    <g id="xtick_17">
     <g id="line2d_20">
      <g>
       <use xlink:href="#m316e165267" x="63.573263" y="219.795353" style="stroke: #000000; stroke-width: 0.8"/>
      </g>
     </g>
    </g>
    <g id="xtick_18">
     <g id="line2d_21">
      <g>
       <use xlink:href="#m316e165267" x="97.23866" y="219.795353" style="stroke: #000000; stroke-width: 0.8"/>
      </g>
     </g>
    </g>
    <g id="xtick_19">
     <g id="line2d_22">
      <g>
       <use xlink:href="#m316e165267" x="130.904057" y="219.795353" style="stroke: #000000; stroke-width: 0.8"/>
      </g>
     </g>
    </g>
    <g id="xtick_20">
     <g id="line2d_23">
      <g>
       <use xlink:href="#m316e165267" x="164.569454" y="219.795353" style="stroke: #000000; stroke-width: 0.8"/>
      </g>
     </g>
    </g>
    <g id="xtick_21">
     <g id="line2d_24">
      <g>
       <use xlink:href="#m316e165267" x="198.234851" y="219.795353" style="stroke: #000000; stroke-width: 0.8"/>
      </g>
     </g>
    </g>
    <g id="xtick_22">
     <g id="line2d_25">
      <g>
       <use xlink:href="#m316e165267" x="231.900248" y="219.795353" style="stroke: #000000; stroke-width: 0.8"/>
      </g>
     </g>
    </g>
    <g id="xtick_23">
     <g id="line2d_26">
      <g>
       <use xlink:href="#m316e165267" x="265.565645" y="219.795353" style="stroke: #000000; stroke-width: 0.8"/>
      </g>
     </g>
    </g>
    <g id="xtick_24">
     <g id="line2d_27">
      <g>
       <use xlink:href="#m316e165267" x="299.231042" y="219.795353" style="stroke: #000000; stroke-width: 0.8"/>
      </g>
     </g>
    </g>
    <g id="xtick_25">
     <g id="line2d_28">
      <g>
       <use xlink:href="#m316e165267" x="332.896439" y="219.795353" style="stroke: #000000; stroke-width: 0.8"/>
      </g>
     </g>
    </g>
    <g id="xtick_26">
     <g id="line2d_29">
      <g>
       <use xlink:href="#m316e165267" x="366.561836" y="219.795353" style="stroke: #000000; stroke-width: 0.8"/>
      </g>
     </g>
    </g>
    <g id="xtick_27">
     <g id="line2d_30">
      <g>
       <use xlink:href="#m316e165267" x="400.227233" y="219.795353" style="stroke: #000000; stroke-width: 0.8"/>
      </g>
     </g>
    </g>
    <g id="xtick_28">
     <g id="line2d_31">
      <g>
       <use xlink:href="#m316e165267" x="433.89263" y="219.795353" style="stroke: #000000; stroke-width: 0.8"/>
      </g>
     </g>
    </g>
    <g id="xtick_29">
     <g id="line2d_32">
      <g>
       <use xlink:href="#m316e165267" x="467.558027" y="219.795353" style="stroke: #000000; stroke-width: 0.8"/>
      </g>
     </g>
    </g>
    <g id="xtick_30">
     <g id="line2d_33">
      <g>
       <use xlink:href="#m316e165267" x="501.223424" y="219.795353" style="stroke: #000000; stroke-width: 0.8"/>
      </g>
     </g>
    </g>
    <g id="xtick_31">
     <g id="line2d_34">
      <g>
       <use xlink:href="#m316e165267" x="534.888821" y="219.795353" style="stroke: #000000; stroke-width: 0.8"/>
      </g>
     </g>
    </g>
    <g id="xtick_32">
     <g id="line2d_35">
      <g>
       <use xlink:href="#m316e165267" x="568.554218" y="219.795353" style="stroke: #000000; stroke-width: 0.8"/>
      </g>
     </g>
    </g>
   </g>
   <g id="matplotlib.axis_4">
    <g id="ytick_3">
     <g id="line2d_36">
      <g>
       <use xlink:href="#m1494f379cc" x="58.523438" y="199.504904" style="stroke: #000000; stroke-width: 0.8"/>
      </g>
     </g>
     <g id="text_4">
      <!-- 1000 -->
      <g transform="translate(26.073438 203.304122) scale(0.1 -0.1)">
       <defs>
        <path id="DejaVuSans-31" d="M 794 531 
L 1825 531 
L 1825 4091 
L 703 3866 
L 703 4441 
L 1819 4666 
L 2450 4666 
L 2450 531 
L 3481 531 
L 3481 0 
L 794 0 
L 794 531 
z
" transform="scale(0.015625)"/>
       </defs>
       <use xlink:href="#DejaVuSans-31"/>
       <use xlink:href="#DejaVuSans-30" transform="translate(63.623047 0)"/>
       <use xlink:href="#DejaVuSans-30" transform="translate(127.246094 0)"/>
       <use xlink:href="#DejaVuSans-30" transform="translate(190.869141 0)"/>
      </g>
     </g>
    </g>
    <g id="ytick_4">
     <g id="line2d_37">
      <g>
       <use xlink:href="#m1494f379cc" x="58.523438" y="178.976346" style="stroke: #000000; stroke-width: 0.8"/>
      </g>
     </g>
     <g id="text_5">
      <!-- 1005 -->
      <g transform="translate(26.073438 182.775565) scale(0.1 -0.1)">
       <defs>
        <path id="DejaVuSans-35" d="M 691 4666 
L 3169 4666 
L 3169 4134 
L 1269 4134 
L 1269 2991 
Q 1406 3038 1543 3061 
Q 1681 3084 1819 3084 
Q 2600 3084 3056 2656 
Q 3513 2228 3513 1497 
Q 3513 744 3044 326 
Q 2575 -91 1722 -91 
Q 1428 -91 1123 -41 
Q 819 9 494 109 
L 494 744 
Q 775 591 1075 516 
Q 1375 441 1709 441 
Q 2250 441 2565 725 
Q 2881 1009 2881 1497 
Q 2881 1984 2565 2268 
Q 2250 2553 1709 2553 
Q 1456 2553 1204 2497 
Q 953 2441 691 2322 
L 691 4666 
z
" transform="scale(0.015625)"/>
       </defs>
       <use xlink:href="#DejaVuSans-31"/>
       <use xlink:href="#DejaVuSans-30" transform="translate(63.623047 0)"/>
       <use xlink:href="#DejaVuSans-30" transform="translate(127.246094 0)"/>
       <use xlink:href="#DejaVuSans-35" transform="translate(190.869141 0)"/>
      </g>
     </g>
    </g>
    <g id="ytick_5">
     <g id="line2d_38">
      <g>
       <use xlink:href="#m1494f379cc" x="58.523438" y="158.447789" style="stroke: #000000; stroke-width: 0.8"/>
      </g>
     </g>
     <g id="text_6">
      <!-- 1010 -->
      <g transform="translate(26.073438 162.247008) scale(0.1 -0.1)">
       <use xlink:href="#DejaVuSans-31"/>
       <use xlink:href="#DejaVuSans-30" transform="translate(63.623047 0)"/>
       <use xlink:href="#DejaVuSans-31" transform="translate(127.246094 0)"/>
       <use xlink:href="#DejaVuSans-30" transform="translate(190.869141 0)"/>
      </g>
     </g>
    </g>
    <g id="ytick_6">
     <g id="line2d_39">
      <g>
       <use xlink:href="#m1494f379cc" x="58.523438" y="137.919232" style="stroke: #000000; stroke-width: 0.8"/>
      </g>
     </g>
     <g id="text_7">
      <!-- 1015 -->
      <g transform="translate(26.073438 141.718451) scale(0.1 -0.1)">
       <use xlink:href="#DejaVuSans-31"/>
       <use xlink:href="#DejaVuSans-30" transform="translate(63.623047 0)"/>
       <use xlink:href="#DejaVuSans-31" transform="translate(127.246094 0)"/>
       <use xlink:href="#DejaVuSans-35" transform="translate(190.869141 0)"/>
      </g>
     </g>
    </g>
    <g id="text_8">
     <!-- Equity -->
     <g transform="translate(14.798438 184.832573) rotate(-90) scale(0.1 -0.1)">
      <defs>
       <path id="DejaVuSans-45" d="M 628 4666 
L 3578 4666 
L 3578 4134 
L 1259 4134 
L 1259 2753 
L 3481 2753 
L 3481 2222 
L 1259 2222 
L 1259 531 
L 3634 531 
L 3634 0 
L 628 0 
L 628 4666 
z
" transform="scale(0.015625)"/>
       <path id="DejaVuSans-71" d="M 947 1747 
Q 947 1113 1208 752 
Q 1469 391 1925 391 
Q 2381 391 2643 752 
Q 2906 1113 2906 1747 
Q 2906 2381 2643 2742 
Q 2381 3103 1925 3103 
Q 1469 3103 1208 2742 
Q 947 2381 947 1747 
z
M 2906 525 
Q 2725 213 2448 61 
Q 2172 -91 1784 -91 
Q 1150 -91 751 415 
Q 353 922 353 1747 
Q 353 2572 751 3078 
Q 1150 3584 1784 3584 
Q 2172 3584 2448 3432 
Q 2725 3281 2906 2969 
L 2906 3500 
L 3481 3500 
L 3481 -1331 
L 2906 -1331 
L 2906 525 
z
" transform="scale(0.015625)"/>
       <path id="DejaVuSans-75" d="M 544 1381 
L 544 3500 
L 1119 3500 
L 1119 1403 
Q 1119 906 1312 657 
Q 1506 409 1894 409 
Q 2359 409 2629 706 
Q 2900 1003 2900 1516 
L 2900 3500 
L 3475 3500 
L 3475 0 
L 2900 0 
L 2900 538 
Q 2691 219 2414 64 
Q 2138 -91 1772 -91 
Q 1169 -91 856 284 
Q 544 659 544 1381 
z
M 1991 3584 
L 1991 3584 
z
" transform="scale(0.015625)"/>
       <path id="DejaVuSans-74" d="M 1172 4494 
L 1172 3500 
L 2356 3500 
L 2356 3053 
L 1172 3053 
L 1172 1153 
Q 1172 725 1289 603 
Q 1406 481 1766 481 
L 2356 481 
L 2356 0 
L 1766 0 
Q 1100 0 847 248 
Q 594 497 594 1153 
L 594 3053 
L 172 3053 
L 172 3500 
L 594 3500 
L 594 4494 
L 1172 4494 
z
" transform="scale(0.015625)"/>
       <path id="DejaVuSans-79" d="M 2059 -325 
Q 1816 -950 1584 -1140 
Q 1353 -1331 966 -1331 
L 506 -1331 
L 506 -850 
L 844 -850 
Q 1081 -850 1212 -737 
Q 1344 -625 1503 -206 
L 1606 56 
L 191 3500 
L 800 3500 
L 1894 763 
L 2988 3500 
L 3597 3500 
L 2059 -325 
z
" transform="scale(0.015625)"/>
      </defs>
      <use xlink:href="#DejaVuSans-45"/>
      <use xlink:href="#DejaVuSans-71" transform="translate(63.183594 0)"/>
      <use xlink:href="#DejaVuSans-75" transform="translate(126.660156 0)"/>
      <use xlink:href="#DejaVuSans-69" transform="translate(190.039062 0)"/>
      <use xlink:href="#DejaVuSans-74" transform="translate(217.822266 0)"/>
      <use xlink:href="#DejaVuSans-79" transform="translate(257.03125 0)"/>
     </g>
    </g>
   </g>
   <g id="line2d_40">
    <path d="M 63.573263 199.504904 
L 87.873328 199.504904 
L 88.890498 195.988284 
L 89.289301 207.777136 
L 89.401324 207.726102 
L 90.422975 186.546995 
L 91.041343 188.945593 
L 92.372178 198.23378 
L 92.690324 195.68208 
L 93.698533 204.510961 
L 95.13691 204.868199 
L 95.396804 195.120706 
L 95.47298 196.141386 
L 95.513308 205.531641 
L 96.996495 202.469601 
L 98.174979 206.603355 
L 98.511048 205.123369 
L 106.101738 205.123369 
L 107.217489 208.341981 
L 107.316069 202.983411 
L 108.100231 202.932377 
L 108.687233 208.086811 
L 109.175654 204.565465 
L 109.88364 210.38334 
L 110.663321 210.026102 
L 136.482421 210.026102 
L 137.454782 208.805444 
L 137.710195 212.476935 
L 139.265076 215.179561 
L 139.507046 205.847853 
L 139.636993 207.785585 
L 140.085086 189.785078 
L 141.044004 190.244015 
L 183.57696 190.244015 
L 185.087033 190.602582 
L 185.50824 192.047629 
L 186.341692 184.977224 
L 186.615029 186.473879 
L 187.063121 179.661518 
L 188.541827 187.454446 
L 189.155714 179.351866 
L 189.76512 183.067699 
L 190.934642 169.855848 
L 191.490277 176.048903 
L 192.18034 168.359193 
L 192.727013 170.320327 
L 193.417075 177.339123 
L 194.21468 174.965118 
L 194.873377 167.017364 
L 196.213174 177.287514 
L 196.638862 164.901403 
L 197.387176 170.268718 
L 198.637355 164.953012 
L 199.278127 167.791496 
L 199.699335 163.559575 
L 201.204926 169.755859 
L 201.66198 165.897311 
L 202.746365 162.716617 
L 203.010739 168.035155 
L 203.418504 163.39447 
L 204.113047 177.629382 
L 205.300493 171.416766 
L 206.250449 179.498859 
L 206.389358 177.048159 
L 206.667176 182.575268 
L 207.881507 181.79313 
L 239.776743 181.79313 
L 240.529539 186.17612 
L 241.129983 166.992922 
L 241.322663 173.438889 
L 241.954473 157.917 
L 243.09711 164.156696 
L 243.258423 160.546955 
L 244.432426 165.549025 
L 245.198664 160.959497 
L 246.632561 154.152555 
L 246.762508 167.611735 
L 247.376395 160.804793 
L 247.833449 163.073774 
L 248.895429 162.197122 
L 251.929016 162.197122 
L 253.224004 161.933436 
L 253.318103 164.170269 
L 253.914067 157.823906 
L 254.958123 167.603547 
L 255.361406 165.834888 
L 255.563048 170.204515 
L 257.543617 174.758774 
L 257.857282 169.007411 
L 258.269527 171.960814 
L 258.95959 163.256049 
L 260.039493 169.318296 
L 260.868465 161.338928 
L 261.33 163.722375 
L 262.078315 160.199018 
L 262.566736 161.546184 
L 306.614245 161.546184 
L 307.461141 165.295045 
L 308.066066 160.132934 
L 308.249784 161.592925 
L 308.648586 166.181468 
L 310.526094 163.4115 
L 310.812874 169.042894 
L 311.462608 168.886466 
L 311.879334 164.558636 
L 313.971927 173.475009 
L 314.025698 162.264364 
L 314.258706 171.754306 
L 314.384172 163.150787 
L 315.732931 168.156471 
L 315.746374 168.782181 
L 317.251965 168.365041 
L 318.757557 169.974524 
L 319.344558 172.268796 
L 320.285553 168.462391 
L 320.384133 170.183095 
L 321.284799 160.484583 
L 322.104809 165.646694 
L 322.951704 155.791755 
L 324.425929 151.933207 
L 324.833693 162.361714 
L 324.887464 161.162436 
L 326.088353 138.480433 
L 327.04279 144.320397 
L 327.593944 134.93474 
L 327.885204 135.404023 
L 341.552031 135.404023 
L 342.60953 138.252201 
L 343.035218 131.838628 
L 343.138279 135.972997 
L 344.59458 134.912903 
L 352.189751 134.912903 
L 353.39512 143.297096 
L 354.112068 145.620272 
L 355.223338 128.882846 
L 355.662469 134.109992 
L 356.549692 122.863709 
L 356.746853 124.870088 
L 358.028398 134.901984 
L 358.494415 132.526008 
L 359.345791 157.552948 
L 360.542198 145.620272 
L 360.815535 154.754577 
L 361.348765 153.170593 
L 362.092599 147.573852 
L 363.199388 148.260244 
L 363.772946 153.223393 
L 364.463009 157.711346 
L 364.794598 141.607514 
L 366.757243 154.912975 
L 367.200855 149.949827 
L 368.321087 155.757766 
L 369.49509 148.365843 
L 369.947663 154.965774 
L 370.471932 151.797808 
L 371.184399 159.770524 
L 371.937195 154.279382 
L 376.951352 154.273783 
L 377.529391 159.705147 
L 378.506233 155.161602 
L 379.514442 159.757371 
L 379.854992 160.018495 
L 380.03871 158.138407 
L 381.0514 159.705147 
L 419.027253 159.705147 
L 420.295356 161.157639 
L 420.550768 160.170051 
L 421.827832 151.853522 
L 422.114612 153.724741 
L 423.405119 143.381058 
L 423.898021 148.163062 
L 424.404365 140.730164 
L 425.699353 143.01721 
L 426.254988 137.767401 
L 426.743409 146.291843 
L 427.236311 140.782143 
L 428.141458 141.561817 
L 429.656011 141.561817 
L 430.659739 142.49922 
L 431.125755 140.556274 
L 431.87407 153.054142 
L 431.990574 140.346226 
L 432.698561 143.759509 
L 460.036694 143.759509 
L 460.457901 140.508595 
L 460.829818 146.999724 
L 461.569171 144.801116 
L 462.3847 149.093637 
L 463.276404 145.795725 
L 464.177071 148.727203 
L 465.454135 137.577117 
L 465.584082 148.674855 
L 466.144197 140.717986 
L 466.256221 148.674855 
L 468.290561 141.398508 
L 468.819311 146.109811 
L 469.164342 143.49242 
L 469.231556 144.382333 
L 470.674414 144.068246 
L 487.379309 144.068246 
L 488.620526 145.264876 
L 488.701182 143.546882 
L 489.31955 141.933009 
L 489.951361 149.273528 
L 490.502515 142.609795 
L 490.91476 147.607595 
L 491.940892 146.566387 
L 493.446484 148.074116 
L 493.831843 148.022096 
L 494.741472 139.022746 
L 495.02377 145.421128 
L 495.310549 140.583327 
L 496.497995 141.623715 
L 568.555777 141.623715 
L 568.555777 141.623715 
" clip-path="url(#p75605cfcbd)" style="fill: none; stroke: #2e8b57; stroke-width: 1.5; stroke-linecap: square"/>
   </g>
   <g id="patch_8">
    <path d="M 58.523438 219.795353 
L 58.523438 118.247917 
" style="fill: none; stroke: #000000; stroke-width: 0.8; stroke-linejoin: miter; stroke-linecap: square"/>
   </g>
   <g id="patch_9">
    <path d="M 573.605602 219.795353 
L 573.605602 118.247917 
" style="fill: none; stroke: #000000; stroke-width: 0.8; stroke-linejoin: miter; stroke-linecap: square"/>
   </g>
   <g id="patch_10">
    <path d="M 58.523438 219.795353 
L 573.605602 219.795353 
" style="fill: none; stroke: #000000; stroke-width: 0.8; stroke-linejoin: miter; stroke-linecap: square"/>
   </g>
   <g id="patch_11">
    <path d="M 58.523438 118.247917 
L 573.605602 118.247917 
" style="fill: none; stroke: #000000; stroke-width: 0.8; stroke-linejoin: miter; stroke-linecap: square"/>
   </g>
  </g>
  <g id="axes_3">
   <g id="patch_12">
    <path d="M 58.523438 330.84327 
L 573.605602 330.84327 
L 573.605602 229.295833 
L 58.523438 229.295833 
z
" style="fill: #ffffff"/>
   </g>
   <g id="matplotlib.axis_5">
    <g id="xtick_33">
     <g id="line2d_41">
      <g>
       <use xlink:href="#m316e165267" x="63.573263" y="330.84327" style="stroke: #000000; stroke-width: 0.8"/>
      </g>
     </g>
     <g id="text_9">
      <!-- Sep -->
      <g transform="translate(54.148263 345.441708) scale(0.1 -0.1)">
       <defs>
        <path id="DejaVuSans-53" d="M 3425 4513 
L 3425 3897 
Q 3066 4069 2747 4153 
Q 2428 4238 2131 4238 
Q 1616 4238 1336 4038 
Q 1056 3838 1056 3469 
Q 1056 3159 1242 3001 
Q 1428 2844 1947 2747 
L 2328 2669 
Q 3034 2534 3370 2195 
Q 3706 1856 3706 1288 
Q 3706 609 3251 259 
Q 2797 -91 1919 -91 
Q 1588 -91 1214 -16 
Q 841 59 441 206 
L 441 856 
Q 825 641 1194 531 
Q 1563 422 1919 422 
Q 2459 422 2753 634 
Q 3047 847 3047 1241 
Q 3047 1584 2836 1778 
Q 2625 1972 2144 2069 
L 1759 2144 
Q 1053 2284 737 2584 
Q 422 2884 422 3419 
Q 422 4038 858 4394 
Q 1294 4750 2059 4750 
Q 2388 4750 2728 4690 
Q 3069 4631 3425 4513 
z
" transform="scale(0.015625)"/>
        <path id="DejaVuSans-70" d="M 1159 525 
L 1159 -1331 
L 581 -1331 
L 581 3500 
L 1159 3500 
L 1159 2969 
Q 1341 3281 1617 3432 
Q 1894 3584 2278 3584 
Q 2916 3584 3314 3078 
Q 3713 2572 3713 1747 
Q 3713 922 3314 415 
Q 2916 -91 2278 -91 
Q 1894 -91 1617 61 
Q 1341 213 1159 525 
z
M 3116 1747 
Q 3116 2381 2855 2742 
Q 2594 3103 2138 3103 
Q 1681 3103 1420 2742 
Q 1159 2381 1159 1747 
Q 1159 1113 1420 752 
Q 1681 391 2138 391 
Q 2594 391 2855 752 
Q 3116 1113 3116 1747 
z
" transform="scale(0.015625)"/>
       </defs>
       <use xlink:href="#DejaVuSans-53"/>
       <use xlink:href="#DejaVuSans-65" transform="translate(63.476562 0)"/>
       <use xlink:href="#DejaVuSans-70" transform="translate(125 0)"/>
      </g>
     </g>
    </g>
    <g id="xtick_34">
     <g id="line2d_42">
      <g>
       <use xlink:href="#m316e165267" x="97.23866" y="330.84327" style="stroke: #000000; stroke-width: 0.8"/>
      </g>
     </g>
     <g id="text_10">
      <!-- 03 -->
      <g transform="translate(90.87616 345.441708) scale(0.1 -0.1)">
       <defs>
        <path id="DejaVuSans-33" d="M 2597 2516 
Q 3050 2419 3304 2112 
Q 3559 1806 3559 1356 
Q 3559 666 3084 287 
Q 2609 -91 1734 -91 
Q 1441 -91 1130 -33 
Q 819 25 488 141 
L 488 750 
Q 750 597 1062 519 
Q 1375 441 1716 441 
Q 2309 441 2620 675 
Q 2931 909 2931 1356 
Q 2931 1769 2642 2001 
Q 2353 2234 1838 2234 
L 1294 2234 
L 1294 2753 
L 1863 2753 
Q 2328 2753 2575 2939 
Q 2822 3125 2822 3475 
Q 2822 3834 2567 4026 
Q 2313 4219 1838 4219 
Q 1578 4219 1281 4162 
Q 984 4106 628 3988 
L 628 4550 
Q 988 4650 1302 4700 
Q 1616 4750 1894 4750 
Q 2613 4750 3031 4423 
Q 3450 4097 3450 3541 
Q 3450 3153 3228 2886 
Q 3006 2619 2597 2516 
z
" transform="scale(0.015625)"/>
       </defs>
       <use xlink:href="#DejaVuSans-30"/>
       <use xlink:href="#DejaVuSans-33" transform="translate(63.623047 0)"/>
      </g>
     </g>
    </g>
    <g id="xtick_35">
     <g id="line2d_43">
      <g>
       <use xlink:href="#m316e165267" x="130.904057" y="330.84327" style="stroke: #000000; stroke-width: 0.8"/>
      </g>
     </g>
     <g id="text_11">
      <!-- 05 -->
      <g transform="translate(124.541557 345.441708) scale(0.1 -0.1)">
       <use xlink:href="#DejaVuSans-30"/>
       <use xlink:href="#DejaVuSans-35" transform="translate(63.623047 0)"/>
      </g>
     </g>
    </g>
    <g id="xtick_36">
     <g id="line2d_44">
      <g>
       <use xlink:href="#m316e165267" x="164.569454" y="330.84327" style="stroke: #000000; stroke-width: 0.8"/>
      </g>
     </g>
     <g id="text_12">
      <!-- 07 -->
      <g transform="translate(158.206954 345.441708) scale(0.1 -0.1)">
       <use xlink:href="#DejaVuSans-30"/>
       <use xlink:href="#DejaVuSans-37" transform="translate(63.623047 0)"/>
      </g>
     </g>
    </g>
    <g id="xtick_37">
     <g id="line2d_45">
      <g>
       <use xlink:href="#m316e165267" x="198.234851" y="330.84327" style="stroke: #000000; stroke-width: 0.8"/>
      </g>
     </g>
     <g id="text_13">
      <!-- 09 -->
      <g transform="translate(191.872351 345.441708) scale(0.1 -0.1)">
       <use xlink:href="#DejaVuSans-30"/>
       <use xlink:href="#DejaVuSans-39" transform="translate(63.623047 0)"/>
      </g>
     </g>
    </g>
    <g id="xtick_38">
     <g id="line2d_46">
      <g>
       <use xlink:href="#m316e165267" x="231.900248" y="330.84327" style="stroke: #000000; stroke-width: 0.8"/>
      </g>
     </g>
     <g id="text_14">
      <!-- 11 -->
      <g transform="translate(225.537748 345.441708) scale(0.1 -0.1)">
       <use xlink:href="#DejaVuSans-31"/>
       <use xlink:href="#DejaVuSans-31" transform="translate(63.623047 0)"/>
      </g>
     </g>
    </g>
    <g id="xtick_39">
     <g id="line2d_47">
      <g>
       <use xlink:href="#m316e165267" x="265.565645" y="330.84327" style="stroke: #000000; stroke-width: 0.8"/>
      </g>
     </g>
     <g id="text_15">
      <!-- 13 -->
      <g transform="translate(259.203145 345.441708) scale(0.1 -0.1)">
       <use xlink:href="#DejaVuSans-31"/>
       <use xlink:href="#DejaVuSans-33" transform="translate(63.623047 0)"/>
      </g>
     </g>
    </g>
    <g id="xtick_40">
     <g id="line2d_48">
      <g>
       <use xlink:href="#m316e165267" x="299.231042" y="330.84327" style="stroke: #000000; stroke-width: 0.8"/>
      </g>
     </g>
     <g id="text_16">
      <!-- 15 -->
      <g transform="translate(292.868542 345.441708) scale(0.1 -0.1)">
       <use xlink:href="#DejaVuSans-31"/>
       <use xlink:href="#DejaVuSans-35" transform="translate(63.623047 0)"/>
      </g>
     </g>
    </g>
    <g id="xtick_41">
     <g id="line2d_49">
      <g>
       <use xlink:href="#m316e165267" x="332.896439" y="330.84327" style="stroke: #000000; stroke-width: 0.8"/>
      </g>
     </g>
     <g id="text_17">
      <!-- 17 -->
      <g transform="translate(326.533939 345.441708) scale(0.1 -0.1)">
       <use xlink:href="#DejaVuSans-31"/>
       <use xlink:href="#DejaVuSans-37" transform="translate(63.623047 0)"/>
      </g>
     </g>
    </g>
    <g id="xtick_42">
     <g id="line2d_50">
      <g>
       <use xlink:href="#m316e165267" x="366.561836" y="330.84327" style="stroke: #000000; stroke-width: 0.8"/>
      </g>
     </g>
     <g id="text_18">
      <!-- 19 -->
      <g transform="translate(360.199336 345.441708) scale(0.1 -0.1)">
       <use xlink:href="#DejaVuSans-31"/>
       <use xlink:href="#DejaVuSans-39" transform="translate(63.623047 0)"/>
      </g>
     </g>
    </g>
    <g id="xtick_43">
     <g id="line2d_51">
      <g>
       <use xlink:href="#m316e165267" x="400.227233" y="330.84327" style="stroke: #000000; stroke-width: 0.8"/>
      </g>
     </g>
     <g id="text_19">
      <!-- 21 -->
      <g transform="translate(393.864733 345.441708) scale(0.1 -0.1)">
       <defs>
        <path id="DejaVuSans-32" d="M 1228 531 
L 3431 531 
L 3431 0 
L 469 0 
L 469 531 
Q 828 903 1448 1529 
Q 2069 2156 2228 2338 
Q 2531 2678 2651 2914 
Q 2772 3150 2772 3378 
Q 2772 3750 2511 3984 
Q 2250 4219 1831 4219 
Q 1534 4219 1204 4116 
Q 875 4013 500 3803 
L 500 4441 
Q 881 4594 1212 4672 
Q 1544 4750 1819 4750 
Q 2544 4750 2975 4387 
Q 3406 4025 3406 3419 
Q 3406 3131 3298 2873 
Q 3191 2616 2906 2266 
Q 2828 2175 2409 1742 
Q 1991 1309 1228 531 
z
" transform="scale(0.015625)"/>
       </defs>
       <use xlink:href="#DejaVuSans-32"/>
       <use xlink:href="#DejaVuSans-31" transform="translate(63.623047 0)"/>
      </g>
     </g>
    </g>
    <g id="xtick_44">
     <g id="line2d_52">
      <g>
       <use xlink:href="#m316e165267" x="433.89263" y="330.84327" style="stroke: #000000; stroke-width: 0.8"/>
      </g>
     </g>
     <g id="text_20">
      <!-- 23 -->
      <g transform="translate(427.53013 345.441708) scale(0.1 -0.1)">
       <use xlink:href="#DejaVuSans-32"/>
       <use xlink:href="#DejaVuSans-33" transform="translate(63.623047 0)"/>
      </g>
     </g>
    </g>
    <g id="xtick_45">
     <g id="line2d_53">
      <g>
       <use xlink:href="#m316e165267" x="467.558027" y="330.84327" style="stroke: #000000; stroke-width: 0.8"/>
      </g>
     </g>
     <g id="text_21">
      <!-- 25 -->
      <g transform="translate(461.195527 345.441708) scale(0.1 -0.1)">
       <use xlink:href="#DejaVuSans-32"/>
       <use xlink:href="#DejaVuSans-35" transform="translate(63.623047 0)"/>
      </g>
     </g>
    </g>
    <g id="xtick_46">
     <g id="line2d_54">
      <g>
       <use xlink:href="#m316e165267" x="501.223424" y="330.84327" style="stroke: #000000; stroke-width: 0.8"/>
      </g>
     </g>
     <g id="text_22">
      <!-- 27 -->
      <g transform="translate(494.860924 345.441708) scale(0.1 -0.1)">
       <use xlink:href="#DejaVuSans-32"/>
       <use xlink:href="#DejaVuSans-37" transform="translate(63.623047 0)"/>
      </g>
     </g>
    </g>
    <g id="xtick_47">
     <g id="line2d_55">
      <g>
       <use xlink:href="#m316e165267" x="534.888821" y="330.84327" style="stroke: #000000; stroke-width: 0.8"/>
      </g>
     </g>
     <g id="text_23">
      <!-- 29 -->
      <g transform="translate(528.526321 345.441708) scale(0.1 -0.1)">
       <use xlink:href="#DejaVuSans-32"/>
       <use xlink:href="#DejaVuSans-39" transform="translate(63.623047 0)"/>
      </g>
     </g>
    </g>
    <g id="xtick_48">
     <g id="line2d_56">
      <g>
       <use xlink:href="#m316e165267" x="568.554218" y="330.84327" style="stroke: #000000; stroke-width: 0.8"/>
      </g>
     </g>
     <g id="text_24">
      <!-- Oct -->
      <g transform="translate(559.908906 345.441708) scale(0.1 -0.1)">
       <defs>
        <path id="DejaVuSans-4f" d="M 2522 4238 
Q 1834 4238 1429 3725 
Q 1025 3213 1025 2328 
Q 1025 1447 1429 934 
Q 1834 422 2522 422 
Q 3209 422 3611 934 
Q 4013 1447 4013 2328 
Q 4013 3213 3611 3725 
Q 3209 4238 2522 4238 
z
M 2522 4750 
Q 3503 4750 4090 4092 
Q 4678 3434 4678 2328 
Q 4678 1225 4090 567 
Q 3503 -91 2522 -91 
Q 1538 -91 948 565 
Q 359 1222 359 2328 
Q 359 3434 948 4092 
Q 1538 4750 2522 4750 
z
" transform="scale(0.015625)"/>
       </defs>
       <use xlink:href="#DejaVuSans-4f"/>
       <use xlink:href="#DejaVuSans-63" transform="translate(78.710938 0)"/>
       <use xlink:href="#DejaVuSans-74" transform="translate(133.691406 0)"/>
      </g>
     </g>
    </g>
    <g id="text_25">
     <!-- Time -->
     <g transform="translate(303.830926 359.119833) scale(0.1 -0.1)">
      <defs>
       <path id="DejaVuSans-54" d="M -19 4666 
L 3928 4666 
L 3928 4134 
L 2272 4134 
L 2272 0 
L 1638 0 
L 1638 4134 
L -19 4134 
L -19 4666 
z
" transform="scale(0.015625)"/>
       <path id="DejaVuSans-6d" d="M 3328 2828 
Q 3544 3216 3844 3400 
Q 4144 3584 4550 3584 
Q 5097 3584 5394 3201 
Q 5691 2819 5691 2113 
L 5691 0 
L 5113 0 
L 5113 2094 
Q 5113 2597 4934 2840 
Q 4756 3084 4391 3084 
Q 3944 3084 3684 2787 
Q 3425 2491 3425 1978 
L 3425 0 
L 2847 0 
L 2847 2094 
Q 2847 2600 2669 2842 
Q 2491 3084 2119 3084 
Q 1678 3084 1418 2786 
Q 1159 2488 1159 1978 
L 1159 0 
L 581 0 
L 581 3500 
L 1159 3500 
L 1159 2956 
Q 1356 3278 1631 3431 
Q 1906 3584 2284 3584 
Q 2666 3584 2933 3390 
Q 3200 3197 3328 2828 
z
" transform="scale(0.015625)"/>
      </defs>
      <use xlink:href="#DejaVuSans-54"/>
      <use xlink:href="#DejaVuSans-69" transform="translate(57.958984 0)"/>
      <use xlink:href="#DejaVuSans-6d" transform="translate(85.742188 0)"/>
      <use xlink:href="#DejaVuSans-65" transform="translate(183.154297 0)"/>
     </g>
    </g>
    <g id="text_26">
     <!-- 2025-Oct -->
     <g transform="translate(526.982165 358.119833) scale(0.1 -0.1)">
      <defs>
       <path id="DejaVuSans-2d" d="M 313 2009 
L 1997 2009 
L 1997 1497 
L 313 1497 
L 313 2009 
z
" transform="scale(0.015625)"/>
      </defs>
      <use xlink:href="#DejaVuSans-32"/>
      <use xlink:href="#DejaVuSans-30" transform="translate(63.623047 0)"/>
      <use xlink:href="#DejaVuSans-32" transform="translate(127.246094 0)"/>
      <use xlink:href="#DejaVuSans-35" transform="translate(190.869141 0)"/>
      <use xlink:href="#DejaVuSans-2d" transform="translate(254.492188 0)"/>
      <use xlink:href="#DejaVuSans-4f" transform="translate(293.326172 0)"/>
      <use xlink:href="#DejaVuSans-63" transform="translate(372.037109 0)"/>
      <use xlink:href="#DejaVuSans-74" transform="translate(427.017578 0)"/>
     </g>
    </g>
   </g>
   <g id="matplotlib.axis_6">
    <g id="ytick_7">
     <g id="line2d_57">
      <g>
       <use xlink:href="#m1494f379cc" x="58.523438" y="309.530161" style="stroke: #000000; stroke-width: 0.8"/>
      </g>
     </g>
     <g id="text_27">
      <!-- 0.75 -->
      <g transform="translate(20.878125 313.329379) scale(0.1 -0.1)">
       <defs>
        <path id="DejaVuSans-2212" d="M 678 2272 
L 4684 2272 
L 4684 1741 
L 678 1741 
L 678 2272 
z
" transform="scale(0.015625)"/>
       </defs>
       <use xlink:href="#DejaVuSans-2212"/>
       <use xlink:href="#DejaVuSans-30" transform="translate(83.789062 0)"/>
       <use xlink:href="#DejaVuSans-2e" transform="translate(147.412109 0)"/>
       <use xlink:href="#DejaVuSans-37" transform="translate(179.199219 0)"/>
       <use xlink:href="#DejaVuSans-35" transform="translate(242.822266 0)"/>
      </g>
     </g>
    </g>
    <g id="ytick_8">
     <g id="line2d_58">
      <g>
       <use xlink:href="#m1494f379cc" x="58.523438" y="284.323982" style="stroke: #000000; stroke-width: 0.8"/>
      </g>
     </g>
     <g id="text_28">
      <!-- 0.50 -->
      <g transform="translate(20.878125 288.123201) scale(0.1 -0.1)">
       <use xlink:href="#DejaVuSans-2212"/>
       <use xlink:href="#DejaVuSans-30" transform="translate(83.789062 0)"/>
       <use xlink:href="#DejaVuSans-2e" transform="translate(147.412109 0)"/>
       <use xlink:href="#DejaVuSans-35" transform="translate(179.199219 0)"/>
       <use xlink:href="#DejaVuSans-30" transform="translate(242.822266 0)"/>
      </g>
     </g>
    </g>
    <g id="ytick_9">
     <g id="line2d_59">
      <g>
       <use xlink:href="#m1494f379cc" x="58.523438" y="259.117804" style="stroke: #000000; stroke-width: 0.8"/>
      </g>
     </g>
     <g id="text_29">
      <!-- 0.25 -->
      <g transform="translate(20.878125 262.917023) scale(0.1 -0.1)">
       <use xlink:href="#DejaVuSans-2212"/>
       <use xlink:href="#DejaVuSans-30" transform="translate(83.789062 0)"/>
       <use xlink:href="#DejaVuSans-2e" transform="translate(147.412109 0)"/>
       <use xlink:href="#DejaVuSans-32" transform="translate(179.199219 0)"/>
       <use xlink:href="#DejaVuSans-35" transform="translate(242.822266 0)"/>
      </g>
     </g>
    </g>
    <g id="ytick_10">
     <g id="line2d_60">
      <g>
       <use xlink:href="#m1494f379cc" x="58.523438" y="233.911626" style="stroke: #000000; stroke-width: 0.8"/>
      </g>
     </g>
     <g id="text_30">
      <!-- 0.00 -->
      <g transform="translate(29.257813 237.710845) scale(0.1 -0.1)">
       <use xlink:href="#DejaVuSans-30"/>
       <use xlink:href="#DejaVuSans-2e" transform="translate(63.623047 0)"/>
       <use xlink:href="#DejaVuSans-30" transform="translate(95.410156 0)"/>
       <use xlink:href="#DejaVuSans-30" transform="translate(159.033203 0)"/>
      </g>
     </g>
    </g>
    <g id="text_31">
     <!-- Drawdown, % -->
     <g transform="translate(14.798438 314.548458) rotate(-90) scale(0.1 -0.1)">
      <defs>
       <path id="DejaVuSans-44" d="M 1259 4147 
L 1259 519 
L 2022 519 
Q 2988 519 3436 956 
Q 3884 1394 3884 2338 
Q 3884 3275 3436 3711 
Q 2988 4147 2022 4147 
L 1259 4147 
z
M 628 4666 
L 1925 4666 
Q 3281 4666 3915 4102 
Q 4550 3538 4550 2338 
Q 4550 1131 3912 565 
Q 3275 0 1925 0 
L 628 0 
L 628 4666 
z
" transform="scale(0.015625)"/>
       <path id="DejaVuSans-61" d="M 2194 1759 
Q 1497 1759 1228 1600 
Q 959 1441 959 1056 
Q 959 750 1161 570 
Q 1363 391 1709 391 
Q 2188 391 2477 730 
Q 2766 1069 2766 1631 
L 2766 1759 
L 2194 1759 
z
M 3341 1997 
L 3341 0 
L 2766 0 
L 2766 531 
Q 2569 213 2275 61 
Q 1981 -91 1556 -91 
Q 1019 -91 701 211 
Q 384 513 384 1019 
Q 384 1609 779 1909 
Q 1175 2209 1959 2209 
L 2766 2209 
L 2766 2266 
Q 2766 2663 2505 2880 
Q 2244 3097 1772 3097 
Q 1472 3097 1187 3025 
Q 903 2953 641 2809 
L 641 3341 
Q 956 3463 1253 3523 
Q 1550 3584 1831 3584 
Q 2591 3584 2966 3190 
Q 3341 2797 3341 1997 
z
" transform="scale(0.015625)"/>
       <path id="DejaVuSans-77" d="M 269 3500 
L 844 3500 
L 1563 769 
L 2278 3500 
L 2956 3500 
L 3675 769 
L 4391 3500 
L 4966 3500 
L 4050 0 
L 3372 0 
L 2619 2869 
L 1863 0 
L 1184 0 
L 269 3500 
z
" transform="scale(0.015625)"/>
       <path id="DejaVuSans-64" d="M 2906 2969 
L 2906 4863 
L 3481 4863 
L 3481 0 
L 2906 0 
L 2906 525 
Q 2725 213 2448 61 
Q 2172 -91 1784 -91 
Q 1150 -91 751 415 
Q 353 922 353 1747 
Q 353 2572 751 3078 
Q 1150 3584 1784 3584 
Q 2172 3584 2448 3432 
Q 2725 3281 2906 2969 
z
M 947 1747 
Q 947 1113 1208 752 
Q 1469 391 1925 391 
Q 2381 391 2643 752 
Q 2906 1113 2906 1747 
Q 2906 2381 2643 2742 
Q 2381 3103 1925 3103 
Q 1469 3103 1208 2742 
Q 947 2381 947 1747 
z
" transform="scale(0.015625)"/>
       <path id="DejaVuSans-6f" d="M 1959 3097 
Q 1497 3097 1228 2736 
Q 959 2375 959 1747 
Q 959 1119 1226 758 
Q 1494 397 1959 397 
Q 2419 397 2687 759 
Q 2956 1122 2956 1747 
Q 2956 2369 2687 2733 
Q 2419 3097 1959 3097 
z
M 1959 3584 
Q 2709 3584 3137 3096 
Q 3566 2609 3566 1747 
Q 3566 888 3137 398 
Q 2709 -91 1959 -91 
Q 1206 -91 779 398 
Q 353 888 353 1747 
Q 353 2609 779 3096 
Q 1206 3584 1959 3584 
z
" transform="scale(0.015625)"/>
       <path id="DejaVuSans-6e" d="M 3513 2113 
L 3513 0 
L 2938 0 
L 2938 2094 
Q 2938 2591 2744 2837 
Q 2550 3084 2163 3084 
Q 1697 3084 1428 2787 
Q 1159 2491 1159 1978 
L 1159 0 
L 581 0 
L 581 3500 
L 1159 3500 
L 1159 2956 
Q 1366 3272 1645 3428 
Q 1925 3584 2291 3584 
Q 2894 3584 3203 3211 
Q 3513 2838 3513 2113 
z
" transform="scale(0.015625)"/>
       <path id="DejaVuSans-2c" d="M 750 794 
L 1409 794 
L 1409 256 
L 897 -744 
L 494 -744 
L 750 256 
L 750 794 
z
" transform="scale(0.015625)"/>
       <path id="DejaVuSans-20" transform="scale(0.015625)"/>
       <path id="DejaVuSans-25" d="M 4653 2053 
Q 4381 2053 4226 1822 
Q 4072 1591 4072 1178 
Q 4072 772 4226 539 
Q 4381 306 4653 306 
Q 4919 306 5073 539 
Q 5228 772 5228 1178 
Q 5228 1588 5073 1820 
Q 4919 2053 4653 2053 
z
M 4653 2450 
Q 5147 2450 5437 2106 
Q 5728 1763 5728 1178 
Q 5728 594 5436 251 
Q 5144 -91 4653 -91 
Q 4153 -91 3862 251 
Q 3572 594 3572 1178 
Q 3572 1766 3864 2108 
Q 4156 2450 4653 2450 
z
M 1428 4353 
Q 1159 4353 1004 4120 
Q 850 3888 850 3481 
Q 850 3069 1003 2837 
Q 1156 2606 1428 2606 
Q 1700 2606 1854 2837 
Q 2009 3069 2009 3481 
Q 2009 3884 1853 4118 
Q 1697 4353 1428 4353 
z
M 4250 4750 
L 4750 4750 
L 1831 -91 
L 1331 -91 
L 4250 4750 
z
M 1428 4750 
Q 1922 4750 2215 4408 
Q 2509 4066 2509 3481 
Q 2509 2891 2217 2550 
Q 1925 2209 1428 2209 
Q 931 2209 642 2551 
Q 353 2894 353 3481 
Q 353 4063 643 4406 
Q 934 4750 1428 4750 
z
" transform="scale(0.015625)"/>
      </defs>
      <use xlink:href="#DejaVuSans-44"/>
      <use xlink:href="#DejaVuSans-72" transform="translate(77.001953 0)"/>
      <use xlink:href="#DejaVuSans-61" transform="translate(118.115234 0)"/>
      <use xlink:href="#DejaVuSans-77" transform="translate(179.394531 0)"/>
      <use xlink:href="#DejaVuSans-64" transform="translate(261.181641 0)"/>
      <use xlink:href="#DejaVuSans-6f" transform="translate(324.658203 0)"/>
      <use xlink:href="#DejaVuSans-77" transform="translate(385.839844 0)"/>
      <use xlink:href="#DejaVuSans-6e" transform="translate(467.626953 0)"/>
      <use xlink:href="#DejaVuSans-2c" transform="translate(531.005859 0)"/>
      <use xlink:href="#DejaVuSans-20" transform="translate(562.792969 0)"/>
      <use xlink:href="#DejaVuSans-25" transform="translate(594.580078 0)"/>
     </g>
    </g>
   </g>
   <g id="line2d_61">
    <path d="M 63.573263 233.911626 
L 87.877809 233.911626 
L 89.289301 262.836953 
L 89.401324 262.711735 
L 89.992806 233.911626 
L 91.041343 239.783375 
L 92.372178 262.520785 
L 92.690324 256.274244 
L 93.698533 277.887277 
L 95.13691 278.761793 
L 95.396804 254.900005 
L 95.47298 257.398622 
L 95.513308 280.385894 
L 96.996495 272.890044 
L 98.174979 283.009441 
L 98.511048 279.386447 
L 106.101738 279.386447 
L 107.217489 287.265585 
L 107.316069 274.147848 
L 108.100231 274.022917 
L 108.687233 286.640931 
L 109.175654 278.020703 
L 109.88364 292.262818 
L 110.663321 291.388302 
L 136.482421 291.388302 
L 137.454782 288.400139 
L 137.710195 297.387922 
L 139.265076 304.003929 
L 139.507046 281.15998 
L 139.636993 285.903532 
L 140.085086 241.838429 
L 141.044004 242.961902 
L 183.57696 242.961902 
L 185.087033 243.839673 
L 185.50824 247.377135 
L 185.996661 233.911626 
L 186.673281 233.911626 
L 188.116139 250.308146 
L 188.541827 252.956815 
L 189.155714 233.911626 
L 189.679982 233.911626 
L 189.76512 244.000025 
L 191.490277 249.010987 
L 192.041431 233.911626 
L 192.727013 238.69136 
L 193.417075 255.797778 
L 194.21468 250.011784 
L 194.761353 233.911626 
L 196.136998 233.911626 
L 196.213174 262.695706 
L 197.387176 246.982079 
L 198.637355 234.037303 
L 198.794187 233.911626 
L 200.277374 242.706196 
L 201.204926 248.995893 
L 201.66198 239.602624 
L 202.374448 233.911626 
L 203.010739 246.85647 
L 203.418504 235.561459 
L 204.113047 270.207953 
L 205.300493 255.087005 
L 206.250449 274.758091 
L 206.389358 268.79331 
L 206.667176 282.245795 
L 207.881507 280.342142 
L 239.776743 280.342142 
L 240.529539 291.009943 
L 241.129983 244.319767 
L 241.322663 260.008671 
L 241.797641 233.911626 
L 243.09711 249.080909 
L 243.258423 240.30529 
L 244.432426 252.46579 
L 245.198664 241.308218 
L 246.632561 233.911626 
L 246.762508 266.602472 
L 247.376395 250.06917 
L 247.833449 255.580271 
L 248.895429 253.450982 
L 251.929016 253.450982 
L 253.224004 252.810518 
L 253.318103 258.243535 
L 253.914067 242.828928 
L 254.958123 266.582585 
L 255.361406 262.286711 
L 255.563048 272.900046 
L 257.543617 283.961834 
L 257.857282 269.992415 
L 258.269527 277.165901 
L 258.95959 256.022996 
L 260.039493 270.747519 
L 260.868465 251.366523 
L 261.33 257.155652 
L 262.078315 248.597809 
L 262.566736 251.869926 
L 306.614245 251.869926 
L 307.461141 260.97549 
L 308.066066 248.437298 
L 308.249784 251.983453 
L 308.648586 263.128513 
L 310.526094 256.40057 
L 310.812874 270.078598 
L 311.462608 269.698652 
L 311.879334 259.186835 
L 313.971927 280.843712 
L 314.025698 253.614305 
L 314.258706 276.664315 
L 314.384172 255.767328 
L 315.732931 267.925575 
L 315.746374 269.445356 
L 317.251965 268.432168 
L 318.757557 272.341425 
L 319.344558 277.913955 
L 320.285553 268.668621 
L 320.384133 272.848018 
L 321.284799 249.291415 
L 322.104809 261.829607 
L 322.951704 237.893058 
L 324.367677 233.911626 
L 324.833693 259.227772 
L 324.887464 256.316415 
L 325.438618 233.911626 
L 327.04279 248.042896 
L 327.432631 233.911626 
L 327.885204 235.046209 
L 341.552031 235.046209 
L 342.60953 241.932235 
L 342.882866 233.911626 
L 343.09347 238.777687 
L 343.138279 243.899857 
L 344.59458 241.338772 
L 352.189751 241.338772 
L 353.39512 261.594161 
L 354.112068 267.206726 
L 355.129239 233.911626 
L 355.662469 246.530959 
L 356.204661 233.911626 
L 356.746853 238.748439 
L 358.028398 262.932506 
L 358.494415 257.204701 
L 359.345791 317.537584 
L 360.542198 288.771273 
L 360.815535 310.791502 
L 361.348765 306.972965 
L 362.092599 293.480802 
L 363.199388 295.135501 
L 363.772946 307.10025 
L 364.463009 317.919438 
L 364.794598 279.097646 
L 366.757243 311.173356 
L 367.200855 299.208607 
L 368.321087 313.209909 
L 369.49509 295.39007 
L 369.947663 311.300641 
L 370.471932 303.663567 
L 371.184399 322.883536 
L 371.937195 309.645941 
L 376.951352 309.632445 
L 377.529391 322.725929 
L 378.506233 311.772726 
L 379.514442 322.851828 
L 379.854992 323.481322 
L 380.03871 318.948962 
L 381.0514 322.725929 
L 419.027253 322.725929 
L 420.295356 326.227477 
L 420.550768 323.846682 
L 421.827832 303.797879 
L 422.114612 308.308859 
L 423.405119 283.37316 
L 423.898021 294.901222 
L 424.404365 276.982604 
L 425.699353 282.496025 
L 426.254988 269.840218 
L 426.743409 290.390241 
L 427.236311 277.107909 
L 428.141458 278.987484 
L 429.656011 278.987484 
L 430.659739 281.247299 
L 431.125755 276.563405 
L 431.87407 306.692235 
L 431.990574 276.057038 
L 432.698561 284.2855 
L 460.036694 284.2855 
L 460.457901 276.448462 
L 460.829818 292.096743 
L 461.569171 286.796519 
L 462.3847 297.144576 
L 463.276404 289.194239 
L 464.177071 296.261205 
L 465.454135 269.381496 
L 465.584082 296.135009 
L 466.144197 276.953245 
L 466.256221 296.135009 
L 468.290561 278.593791 
L 468.819311 289.951414 
L 469.164342 283.641624 
L 469.231556 285.786952 
L 470.674414 285.029778 
L 487.379309 285.029778 
L 488.620526 287.914514 
L 488.701182 283.772915 
L 489.31955 279.882323 
L 489.951361 297.578243 
L 490.502515 281.513862 
L 490.91476 293.562148 
L 491.940892 291.052088 
L 493.446484 294.686798 
L 493.831843 294.561394 
L 494.741472 272.866502 
L 495.02377 288.291194 
L 495.310549 276.628622 
L 496.497995 279.136702 
L 568.555777 279.136702 
L 568.555777 279.136702 
" clip-path="url(#p72d178564a)" style="fill: none; stroke: #7a738c; stroke-width: 1.5; stroke-linecap: square"/>
   </g>
   <g id="patch_13">
    <path d="M 58.523438 330.84327 
L 58.523438 229.295833 
" style="fill: none; stroke: #000000; stroke-width: 0.8; stroke-linejoin: miter; stroke-linecap: square"/>
   </g>
   <g id="patch_14">
    <path d="M 573.605602 330.84327 
L 573.605602 229.295833 
" style="fill: none; stroke: #000000; stroke-width: 0.8; stroke-linejoin: miter; stroke-linecap: square"/>
   </g>
   <g id="patch_15">
    <path d="M 58.523438 330.84327 
L 573.605602 330.84327 
" style="fill: none; stroke: #000000; stroke-width: 0.8; stroke-linejoin: miter; stroke-linecap: square"/>
   </g>
   <g id="patch_16">
    <path d="M 58.523438 229.295833 
L 573.605602 229.295833 
" style="fill: none; stroke: #000000; stroke-width: 0.8; stroke-linejoin: miter; stroke-linecap: square"/>
   </g>
  </g>
 </g>
 <defs>
  <clipPath id="pffcdb9e092">
   <rect x="58.523438" y="7.2" width="515.082165" height="101.547437"/>
  </clipPath>
  <clipPath id="p75605cfcbd">
   <rect x="58.523438" y="118.247917" width="515.082165" height="101.547437"/>
  </clipPath>
  <clipPath id="p72d178564a">
   <rect x="58.523438" y="229.295833" width="515.082165" height="101.547437"/>
  </clipPath>
 </defs>
</svg>
