<?xml version="1.0" encoding="utf-8" standalone="no"?>
<!DOCTYPE svg PUBLIC "-//W3C//DTD SVG 1.1//EN"
  "http://www.w3.org/Graphics/SVG/1.1/DTD/svg11.dtd">
<svg xmlns:xlink="http://www.w3.org/1999/xlink"   viewBox="0 0 584.399528 368.39952" xmlns="http://www.w3.org/2000/svg" version="1.1" preserveAspectRatio="xMidYMid meet" style="width:100%;height:auto;aspect-ratio:8 / 5;display:block;">
 <metadata>
  <rdf:RDF xmlns:dc="http://purl.org/dc/elements/1.1/" xmlns:cc="http://creativecommons.org/ns#" xmlns:rdf="http://www.w3.org/1999/02/22-rdf-syntax-ns#">
   <cc:Work>
    <dc:type rdf:resource="http://purl.org/dc/dcmitype/StillImage"/>
    <dc:date>2025-10-22T20:25:04.024429</dc:date>
    <dc:format>image/svg+xml</dc:format>
    <dc:creator>
     <cc:Agent>
      <dc:title>Matplotlib v3.10.6, https://matplotlib.org/</dc:title>
     </cc:Agent>
    </dc:creator>
   </cc:Work>
  </rdf:RDF>
 </metadata>
 <defs>
  <style type="text/css">*{stroke-linejoin: round; stroke-linecap: butt}</style>
 </defs>
 <g id="figure_1">
  <g id="patch_1">
   <path d="M 0 368.39952 
L 584.399528 368.39952 
L 584.399528 -0 
L 0 -0 
z
" style="fill: #ffffff"/>
  </g>
  <g id="axes_1">
   <g id="patch_2">
    <path d="M 53.328125 108.747437 
L 573.657054 108.747437 
L 573.657054 7.2 
L 53.328125 7.2 
z
" style="fill: #ffffff"/>
   </g>
   <g id="matplotlib.axis_1">
    <g id="xtick_1">
     <g id="line2d_1">
      <defs>
       <path id="m95897009a7" d="M 0 0 
L 0 3.5 
" style="stroke: #000000; stroke-width: 0.8"/>
      </defs>
      <g>
       <use xlink:href="#m95897009a7" x="58.429389" y="108.747437" style="stroke: #000000; stroke-width: 0.8"/>
      </g>
     </g>
    </g>
    <g id="xtick_2">
     <g id="line2d_2">
      <g>
       <use xlink:href="#m95897009a7" x="92.437711" y="108.747437" style="stroke: #000000; stroke-width: 0.8"/>
      </g>
     </g>
    </g>
    <g id="xtick_3">
     <g id="line2d_3">
      <g>
       <use xlink:href="#m95897009a7" x="126.446033" y="108.747437" style="stroke: #000000; stroke-width: 0.8"/>
      </g>
     </g>
    </g>
    <g id="xtick_4">
     <g id="line2d_4">
      <g>
       <use xlink:href="#m95897009a7" x="160.454354" y="108.747437" style="stroke: #000000; stroke-width: 0.8"/>
      </g>
     </g>
    </g>
    <g id="xtick_5">
     <g id="line2d_5">
      <g>
       <use xlink:href="#m95897009a7" x="194.462676" y="108.747437" style="stroke: #000000; stroke-width: 0.8"/>
      </g>
     </g>
    </g>
    <g id="xtick_6">
     <g id="line2d_6">
      <g>
       <use xlink:href="#m95897009a7" x="228.470998" y="108.747437" style="stroke: #000000; stroke-width: 0.8"/>
      </g>
     </g>
    </g>
    <g id="xtick_7">
     <g id="line2d_7">
      <g>
       <use xlink:href="#m95897009a7" x="262.47932" y="108.747437" style="stroke: #000000; stroke-width: 0.8"/>
      </g>
     </g>
    </g>
    <g id="xtick_8">
     <g id="line2d_8">
      <g>
       <use xlink:href="#m95897009a7" x="296.487642" y="108.747437" style="stroke: #000000; stroke-width: 0.8"/>
      </g>
     </g>
    </g>
    <g id="xtick_9">
     <g id="line2d_9">
      <g>
       <use xlink:href="#m95897009a7" x="330.495963" y="108.747437" style="stroke: #000000; stroke-width: 0.8"/>
      </g>
     </g>
    </g>
    <g id="xtick_10">
     <g id="line2d_10">
      <g>
       <use xlink:href="#m95897009a7" x="364.504285" y="108.747437" style="stroke: #000000; stroke-width: 0.8"/>
      </g>
     </g>
    </g>
    <g id="xtick_11">
     <g id="line2d_11">
      <g>
       <use xlink:href="#m95897009a7" x="398.512607" y="108.747437" style="stroke: #000000; stroke-width: 0.8"/>
      </g>
     </g>
    </g>
    <g id="xtick_12">
     <g id="line2d_12">
      <g>
       <use xlink:href="#m95897009a7" x="432.520929" y="108.747437" style="stroke: #000000; stroke-width: 0.8"/>
      </g>
     </g>
    </g>
    <g id="xtick_13">
     <g id="line2d_13">
      <g>
       <use xlink:href="#m95897009a7" x="466.52925" y="108.747437" style="stroke: #000000; stroke-width: 0.8"/>
      </g>
     </g>
    </g>
    <g id="xtick_14">
     <g id="line2d_14">
      <g>
       <use xlink:href="#m95897009a7" x="500.537572" y="108.747437" style="stroke: #000000; stroke-width: 0.8"/>
      </g>
     </g>
    </g>
    <g id="xtick_15">
     <g id="line2d_15">
      <g>
       <use xlink:href="#m95897009a7" x="534.545894" y="108.747437" style="stroke: #000000; stroke-width: 0.8"/>
      </g>
     </g>
    </g>
    <g id="xtick_16">
     <g id="line2d_16">
      <g>
       <use xlink:href="#m95897009a7" x="568.554216" y="108.747437" style="stroke: #000000; stroke-width: 0.8"/>
      </g>
     </g>
    </g>
   </g>
   <g id="matplotlib.axis_2">
    <g id="ytick_1">
     <g id="line2d_17">
      <defs>
       <path id="m5e12a5e499" d="M 0 0 
L -3.5 0 
" style="stroke: #000000; stroke-width: 0.8"/>
      </defs>
      <g>
       <use xlink:href="#m5e12a5e499" x="53.328125" y="94.250805" style="stroke: #000000; stroke-width: 0.8"/>
      </g>
     </g>
     <g id="text_1">
      <!-- 146 -->
      <g transform="translate(27.240625 98.050023) scale(0.1 -0.1)">
       <defs>
        <path id="DejaVuSans-31" d="M 794 531 
L 1825 531 
L 1825 4091 
L 703 3866 
L 703 4441 
L 1819 4666 
L 2450 4666 
L 2450 531 
L 3481 531 
L 3481 0 
L 794 0 
L 794 531 
z
" transform="scale(0.015625)"/>
        <path id="DejaVuSans-34" d="M 2419 4116 
L 825 1625 
L 2419 1625 
L 2419 4116 
z
M 2253 4666 
L 3047 4666 
L 3047 1625 
L 3713 1625 
L 3713 1100 
L 3047 1100 
L 3047 0 
L 2419 0 
L 2419 1100 
L 313 1100 
L 313 1709 
L 2253 4666 
z
" transform="scale(0.015625)"/>
        <path id="DejaVuSans-36" d="M 2113 2584 
Q 1688 2584 1439 2293 
Q 1191 2003 1191 1497 
Q 1191 994 1439 701 
Q 1688 409 2113 409 
Q 2538 409 2786 701 
Q 3034 994 3034 1497 
Q 3034 2003 2786 2293 
Q 2538 2584 2113 2584 
z
M 3366 4563 
L 3366 3988 
Q 3128 4100 2886 4159 
Q 2644 4219 2406 4219 
Q 1781 4219 1451 3797 
Q 1122 3375 1075 2522 
Q 1259 2794 1537 2939 
Q 1816 3084 2150 3084 
Q 2853 3084 3261 2657 
Q 3669 2231 3669 1497 
Q 3669 778 3244 343 
Q 2819 -91 2113 -91 
Q 1303 -91 875 529 
Q 447 1150 447 2328 
Q 447 3434 972 4092 
Q 1497 4750 2381 4750 
Q 2619 4750 2861 4703 
Q 3103 4656 3366 4563 
z
" transform="scale(0.015625)"/>
       </defs>
       <use xlink:href="#DejaVuSans-31"/>
       <use xlink:href="#DejaVuSans-34" transform="translate(63.623047 0)"/>
       <use xlink:href="#DejaVuSans-36" transform="translate(127.246094 0)"/>
      </g>
     </g>
    </g>
    <g id="ytick_2">
     <g id="line2d_18">
      <g>
       <use xlink:href="#m5e12a5e499" x="53.328125" y="53.672408" style="stroke: #000000; stroke-width: 0.8"/>
      </g>
     </g>
     <g id="text_2">
      <!-- 148 -->
      <g transform="translate(27.240625 57.471627) scale(0.1 -0.1)">
       <defs>
        <path id="DejaVuSans-38" d="M 2034 2216 
Q 1584 2216 1326 1975 
Q 1069 1734 1069 1313 
Q 1069 891 1326 650 
Q 1584 409 2034 409 
Q 2484 409 2743 651 
Q 3003 894 3003 1313 
Q 3003 1734 2745 1975 
Q 2488 2216 2034 2216 
z
M 1403 2484 
Q 997 2584 770 2862 
Q 544 3141 544 3541 
Q 544 4100 942 4425 
Q 1341 4750 2034 4750 
Q 2731 4750 3128 4425 
Q 3525 4100 3525 3541 
Q 3525 3141 3298 2862 
Q 3072 2584 2669 2484 
Q 3125 2378 3379 2068 
Q 3634 1759 3634 1313 
Q 3634 634 3220 271 
Q 2806 -91 2034 -91 
Q 1263 -91 848 271 
Q 434 634 434 1313 
Q 434 1759 690 2068 
Q 947 2378 1403 2484 
z
M 1172 3481 
Q 1172 3119 1398 2916 
Q 1625 2713 2034 2713 
Q 2441 2713 2670 2916 
Q 2900 3119 2900 3481 
Q 2900 3844 2670 4047 
Q 2441 4250 2034 4250 
Q 1625 4250 1398 4047 
Q 1172 3844 1172 3481 
z
" transform="scale(0.015625)"/>
       </defs>
       <use xlink:href="#DejaVuSans-31"/>
       <use xlink:href="#DejaVuSans-34" transform="translate(63.623047 0)"/>
       <use xlink:href="#DejaVuSans-38" transform="translate(127.246094 0)"/>
      </g>
     </g>
    </g>
    <g id="ytick_3">
     <g id="line2d_19">
      <g>
       <use xlink:href="#m5e12a5e499" x="53.328125" y="13.094012" style="stroke: #000000; stroke-width: 0.8"/>
      </g>
     </g>
     <g id="text_3">
      <!-- 150 -->
      <g transform="translate(27.240625 16.893231) scale(0.1 -0.1)">
       <defs>
        <path id="DejaVuSans-35" d="M 691 4666 
L 3169 4666 
L 3169 4134 
L 1269 4134 
L 1269 2991 
Q 1406 3038 1543 3061 
Q 1681 3084 1819 3084 
Q 2600 3084 3056 2656 
Q 3513 2228 3513 1497 
Q 3513 744 3044 326 
Q 2575 -91 1722 -91 
Q 1428 -91 1123 -41 
Q 819 9 494 109 
L 494 744 
Q 775 591 1075 516 
Q 1375 441 1709 441 
Q 2250 441 2565 725 
Q 2881 1009 2881 1497 
Q 2881 1984 2565 2268 
Q 2250 2553 1709 2553 
Q 1456 2553 1204 2497 
Q 953 2441 691 2322 
L 691 4666 
z
" transform="scale(0.015625)"/>
        <path id="DejaVuSans-30" d="M 2034 4250 
Q 1547 4250 1301 3770 
Q 1056 3291 1056 2328 
Q 1056 1369 1301 889 
Q 1547 409 2034 409 
Q 2525 409 2770 889 
Q 3016 1369 3016 2328 
Q 3016 3291 2770 3770 
Q 2525 4250 2034 4250 
z
M 2034 4750 
Q 2819 4750 3233 4129 
Q 3647 3509 3647 2328 
Q 3647 1150 3233 529 
Q 2819 -91 2034 -91 
Q 1250 -91 836 529 
Q 422 1150 422 2328 
Q 422 3509 836 4129 
Q 1250 4750 2034 4750 
z
" transform="scale(0.015625)"/>
       </defs>
       <use xlink:href="#DejaVuSans-31"/>
       <use xlink:href="#DejaVuSans-35" transform="translate(63.623047 0)"/>
       <use xlink:href="#DejaVuSans-30" transform="translate(127.246094 0)"/>
      </g>
     </g>
    </g>
    <g id="text_4">
     <!-- Price -->
     <g transform="translate(14.798438 70.171375) rotate(-90) scale(0.1 -0.1)">
      <defs>
       <path id="DejaVuSans-50" d="M 1259 4147 
L 1259 2394 
L 2053 2394 
Q 2494 2394 2734 2622 
Q 2975 2850 2975 3272 
Q 2975 3691 2734 3919 
Q 2494 4147 2053 4147 
L 1259 4147 
z
M 628 4666 
L 2053 4666 
Q 2838 4666 3239 4311 
Q 3641 3956 3641 3272 
Q 3641 2581 3239 2228 
Q 2838 1875 2053 1875 
L 1259 1875 
L 1259 0 
L 628 0 
L 628 4666 
z
" transform="scale(0.015625)"/>
       <path id="DejaVuSans-72" d="M 2631 2963 
Q 2534 3019 2420 3045 
Q 2306 3072 2169 3072 
Q 1681 3072 1420 2755 
Q 1159 2438 1159 1844 
L 1159 0 
L 581 0 
L 581 3500 
L 1159 3500 
L 1159 2956 
Q 1341 3275 1631 3429 
Q 1922 3584 2338 3584 
Q 2397 3584 2469 3576 
Q 2541 3569 2628 3553 
L 2631 2963 
z
" transform="scale(0.015625)"/>
       <path id="DejaVuSans-69" d="M 603 3500 
L 1178 3500 
L 1178 0 
L 603 0 
L 603 3500 
z
M 603 4863 
L 1178 4863 
L 1178 4134 
L 603 4134 
L 603 4863 
z
" transform="scale(0.015625)"/>
       <path id="DejaVuSans-63" d="M 3122 3366 
L 3122 2828 
Q 2878 2963 2633 3030 
Q 2388 3097 2138 3097 
Q 1578 3097 1268 2742 
Q 959 2388 959 1747 
Q 959 1106 1268 751 
Q 1578 397 2138 397 
Q 2388 397 2633 464 
Q 2878 531 3122 666 
L 3122 134 
Q 2881 22 2623 -34 
Q 2366 -91 2075 -91 
Q 1284 -91 818 406 
Q 353 903 353 1747 
Q 353 2603 823 3093 
Q 1294 3584 2113 3584 
Q 2378 3584 2631 3529 
Q 2884 3475 3122 3366 
z
" transform="scale(0.015625)"/>
       <path id="DejaVuSans-65" d="M 3597 1894 
L 3597 1613 
L 953 1613 
Q 991 1019 1311 708 
Q 1631 397 2203 397 
Q 2534 397 2845 478 
Q 3156 559 3463 722 
L 3463 178 
Q 3153 47 2828 -22 
Q 2503 -91 2169 -91 
Q 1331 -91 842 396 
Q 353 884 353 1716 
Q 353 2575 817 3079 
Q 1281 3584 2069 3584 
Q 2775 3584 3186 3129 
Q 3597 2675 3597 1894 
z
M 3022 2063 
Q 3016 2534 2758 2815 
Q 2500 3097 2075 3097 
Q 1594 3097 1305 2825 
Q 1016 2553 972 2059 
L 3022 2063 
z
" transform="scale(0.015625)"/>
      </defs>
      <use xlink:href="#DejaVuSans-50"/>
      <use xlink:href="#DejaVuSans-72" transform="translate(58.552734 0)"/>
      <use xlink:href="#DejaVuSans-69" transform="translate(99.666016 0)"/>
      <use xlink:href="#DejaVuSans-63" transform="translate(127.449219 0)"/>
      <use xlink:href="#DejaVuSans-65" transform="translate(182.429688 0)"/>
     </g>
    </g>
   </g>
   <g id="line2d_20">
    <path d="M 58.429389 71.384878 
L 59.520293 66.211133 
L 60.574983 77.106432 
L 61.987274 72.683387 
L 62.774897 77.207878 
L 63.164182 78.283206 
L 64.214346 69.782032 
L 64.820907 75.118091 
L 66.074767 71.10083 
L 66.301095 72.744255 
L 67.464424 69.193645 
L 67.808443 70.553021 
L 68.885767 67.915425 
L 69.320318 67.671955 
L 70.112468 69.883478 
L 70.746188 69.132777 
L 72.212797 70.390708 
L 73.380652 80.291836 
L 73.416864 59.617143 
L 73.846889 68.158896 
L 75.322551 73.068882 
L 76.811792 62.214161 
L 76.857058 62.863415 
L 78.16071 58.663551 
L 78.912121 59.738879 
L 79.858174 53.8753 
L 80.089029 54.869471 
L 81.193513 37.907701 
L 81.596377 48.701555 
L 82.786865 39.307656 
L 83.316474 43.26405 
L 84.538648 34.559984 
L 85.661238 54.585422 
L 86.050523 52.35361 
L 87.517132 46.571189 
L 87.711774 48.518952 
L 88.879629 42.980001 
L 90.391504 51.055102 
L 90.518248 43.730701 
L 91.075016 47.56536 
L 91.681577 42.452482 
L 92.387722 43.365496 
L 93.714007 35.858492 
L 94.089712 39.084475 
L 94.940708 35.046924 
L 95.266621 34.945478 
L 96.276046 43.629255 
L 97.045563 42.980001 
L 97.674756 30.644168 
L 98.616283 38.029437 
L 99.376747 44.887186 
L 100.119104 38.658402 
L 101.083264 42.635085 
L 101.540447 37.522207 
L 102.549873 52.150718 
L 103.034216 48.397217 
L 104.38766 55.457858 
L 104.722627 55.90422 
L 105.220549 52.414478 
L 106.61926 50.324691 
L 107.320878 53.8753 
L 107.574366 50.649318 
L 108.95497 54.666579 
L 109.968922 50.324691 
L 110.580009 57.243307 
L 110.611695 55.90422 
L 112.128096 48.782712 
L 112.476642 47.910276 
L 112.74371 50.973945 
L 114.468333 51.034813 
L 115.06584 45.232102 
L 115.446072 45.516151 
L 115.867043 50.162377 
L 117.908527 45.739332 
L 118.121276 50.446426 
L 118.302338 48.032011 
L 120.257817 37.907701 
L 121.285348 41.4786 
L 121.556943 40.078646 
L 124.376996 45.942224 
L 124.417735 39.794597 
L 124.621431 46.692924 
L 125.956769 44.197353 
L 127.269475 50.933367 
L 127.663286 48.600109 
L 128.007306 51.84638 
L 129.048417 51.176837 
L 129.917519 48.863868 
L 130.741354 50.629029 
L 131.012949 48.113168 
L 132.158171 49.188496 
L 133.063485 51.886959 
L 134.638732 48.620398 
L 135.05065 55.315833 
L 135.154761 52.35361 
L 136.413147 73.88045 
L 137.015181 69.802321 
L 137.676061 77.694819 
L 138.237355 74.509415 
L 139.699438 64.567708 
L 140.722443 63.75614 
L 141.1751 66.880676 
L 141.301844 65.358986 
L 141.315423 66.089398 
L 142.827298 65.744481 
L 175.051954 65.744481 
L 176.577408 44.684294 
L 176.844476 49.005893 
L 177.713578 42.330747 
L 178.415196 45.901645 
L 178.976491 53.63183 
L 179.660003 52.820262 
L 180.470259 48.681266 
L 181.647168 50.304401 
L 182.692805 61.686642 
L 183.186202 64.466262 
L 184.177521 58.298346 
L 184.399322 60.043217 
L 184.761448 56.086823 
L 186.246163 56.269426 
L 187.088105 62.843126 
L 187.939101 56.512896 
L 188.726724 62.579366 
L 189.06169 62.680812 
L 189.283492 58.298346 
L 190.397029 60.672182 
L 191.496985 67.04299 
L 192.343454 53.733276 
L 192.34798 72.500784 
L 193.497729 64.567708 
L 194.837594 70.208105 
L 195.059396 70.350129 
L 195.548266 65.76477 
L 196.883604 65.703903 
L 198.716865 77.370192 
L 199.282687 71.324011 
L 199.988832 67.489352 
L 200.980151 86.662644 
L 201.500706 87.77855 
L 202.59161 81.71208 
L 202.691194 82.584516 
L 203.433552 74.12392 
L 204.388658 82.645383 
L 205.280393 66.79952 
L 205.982011 70.268972 
L 207.249451 65.967662 
L 207.344509 67.489352 
L 208.774905 64.405394 
L 209.345253 74.347101 
L 209.354306 61.138833 
L 210.829968 67.185014 
L 211.549693 64.283659 
L 212.527432 62.518499 
L 213.115886 67.813979 
L 214.138891 68.280631 
L 214.347114 64.587997 
L 215.14379 68.219763 
L 216.420283 62.112715 
L 216.949892 65.845927 
L 217.511186 62.680812 
L 218.520612 65.866216 
L 219.330868 63.228621 
L 220.326713 70.83707 
L 220.602834 61.382304 
L 221.512675 68.503812 
L 222.404409 64.932913 
L 222.965704 65.663324 
L 223.653743 68.80815 
L 224.509265 68.889307 
L 226.351579 60.489579 
L 226.369685 70.350129 
L 228.035463 68.179185 
L 228.732555 64.851757 
L 229.180685 64.202502 
L 229.483966 67.205303 
L 230.602029 64.222791 
L 231.701985 65.602457 
L 231.964526 65.358986 
L 233.114275 58.095454 
L 233.589565 60.46929 
L 234.893218 55.965088 
L 235.006382 56.289715 
L 236.074653 53.8753 
L 237.328513 50.466715 
L 237.391885 66.150265 
L 237.993918 62.335896 
L 238.899233 73.758714 
L 239.560112 69.518272 
L 239.94487 74.103631 
L 241.461272 67.732823 
L 242.022566 72.176157 
L 243.421277 74.712307 
L 243.425803 63.330067 
L 244.122895 71.283432 
L 245.598557 68.625547 
L 245.675509 70.370418 
L 246.865997 64.953202 
L 247.544982 65.845927 
L 248.463876 63.127175 
L 249.106649 62.660523 
L 249.704157 67.245882 
L 250.727162 68.990753 
L 251.763746 55.092652 
L 252.311461 54.078192 
L 253.443104 60.043217 
L 254.452529 52.414478 
L 254.868974 56.188269 
L 255.656597 61.848955 
L 257.000988 56.249136 
L 257.88367 63.208331 
L 258.96552 64.486551 
L 259.418177 61.72722 
L 259.594713 62.315607 
L 260.110742 59.19107 
L 260.984371 60.306976 
L 293.2045 60.306976 
L 294.45836 72.439917 
L 294.47194 50.243534 
L 294.834066 70.126948 
L 295.019655 51.60291 
L 296.291621 59.353384 
L 297.658646 63.025729 
L 297.925713 61.524328 
L 299.582438 66.921255 
L 301.0581 61.625774 
L 301.890989 66.272 
L 302.751038 64.405394 
L 303.89626 68.990753 
L 304.806101 64.222791 
L 305.421714 68.848729 
L 305.734048 69.173356 
L 306.725367 64.648865 
L 307.033173 64.547419 
L 307.888695 68.869018 
L 308.803062 66.393736 
L 309.219507 69.031331 
L 311.428473 62.98515 
L 311.44658 70.918227 
L 311.790599 69.335669 
L 311.799652 63.99961 
L 313.325107 67.063279 
L 314.497488 63.005439 
L 314.8913 66.454603 
L 316.163266 73.61669 
L 316.362435 71.283432 
L 317.435233 75.686188 
L 317.86073 73.61669 
L 318.81131 80.149812 
L 320.119489 76.66007 
L 320.735103 72.338471 
L 321.93917 76.335443 
L 322.351088 68.828439 
L 322.391827 69.802321 
L 323.614002 82.97001 
L 324.609847 80.555596 
L 325.365784 86.358307 
L 325.465369 85.567028 
L 325.723383 88.630697 
L 328.375954 93.378369 
L 328.385007 77.065854 
L 328.620389 78.42523 
L 328.837664 89.158216 
L 330.711664 89.604578 
L 331.23222 83.091746 
L 331.635085 82.056997 
L 331.870466 84.633725 
L 333.296336 83.112035 
L 334.120172 86.601777 
L 334.803684 84.775749 
L 336.166182 80.312125 
L 336.229554 80.575885 
L 337.628264 89.766892 
L 338.130713 89.949495 
L 339.352888 84.451122 
L 340.647487 89.746603 
L 340.928134 89.543711 
L 341.647859 86.378596 
L 343.363429 104.131644 
L 343.802506 81.042537 
L 344.255163 84.897484 
L 345.042787 72.947147 
L 345.445652 70.999384 
L 345.948101 79.662871 
L 346.957526 78.567254 
L 348.464874 71.121119 
L 349.637256 76.964408 
L 350.062754 74.773174 
L 351.50673 68.341499 
L 351.927701 63.167753 
L 353.009551 73.170328 
L 353.07745 73.068882 
L 353.819807 64.385105 
L 355.186832 69.376248 
L 356.110252 64.973492 
L 356.354687 66.393736 
L 357.237368 48.31606 
L 358.418803 55.66075 
L 359.287904 53.652119 
L 360.093634 57.628802 
L 361.170958 56.817234 
L 361.677934 53.408649 
L 362.393132 61.341725 
L 362.565142 47.971144 
L 364.5342 55.518725 
L 364.819374 51.440597 
L 365.462147 51.663778 
L 366.847277 55.376701 
L 366.86991 55.356412 
L 367.51721 69.924056 
L 368.45421 65.399565 
L 369.359524 54.38253 
L 369.934399 58.663551 
L 370.48664 53.1246 
L 371.473433 56.573764 
L 372.976254 49.57399 
L 373.587341 47.849408 
L 374.338752 57.628802 
L 374.945312 57.851983 
L 375.271225 54.768025 
L 376.552245 56.817234 
L 377.077327 54.544844 
L 377.729153 55.336123 
L 378.860796 53.692698 
L 379.358719 53.36807 
L 379.385878 55.863642 
L 412.89608 55.863642 
L 413.534327 57.446199 
L 413.584119 52.779684 
L 414.61165 54.747736 
L 415.602969 49.776882 
L 416.232163 51.724645 
L 417.16011 46.469743 
L 417.906994 47.524781 
L 418.060897 45.962513 
L 419.301178 47.463914 
L 420.333236 53.652119 
L 420.622936 51.09568 
L 422.026173 57.567934 
L 422.270608 54.768025 
L 423.289086 57.243307 
L 424.728536 55.031785 
L 424.977497 59.069335 
L 425.873758 54.057903 
L 426.502951 57.263596 
L 426.892237 55.924509 
L 428.223048 60.550446 
L 428.295473 60.489579 
L 428.834135 58.1969 
L 430.400329 47.037841 
L 430.540652 64.324237 
L 432.034421 60.104084 
L 432.396546 58.298346 
L 433.772624 61.767798 
L 434.320339 58.501237 
L 434.447083 59.231649 
L 434.777523 56.370872 
L 436.081175 57.040415 
L 437.366721 60.95623 
L 438.000441 57.527356 
L 438.919335 63.634405 
L 439.163769 63.695272 
L 440.096243 58.338924 
L 441.504006 56.289715 
L 441.825393 59.880903 
L 442.468166 61.382304 
L 443.577176 55.275255 
L 443.789925 55.254966 
L 445.093577 63.532959 
L 445.496442 64.567708 
L 447.406655 55.437569 
L 447.411181 67.753112 
L 449.375713 60.449001 
L 449.629201 63.330067 
L 449.778578 61.99098 
L 450.172389 57.385332 
L 451.408143 58.846154 
L 452.766114 54.341952 
L 453.368148 57.101283 
L 454.178404 51.643489 
L 454.572216 53.38836 
L 455.776284 47.687095 
L 456.532221 49.147917 
L 457.36511 45.069788 
L 457.514487 45.840778 
L 458.926777 38.435221 
L 459.976941 41.4786 
L 460.311907 37.907701 
L 460.945627 39.632283 
L 461.303226 37.542496 
L 462.194961 39.084475 
L 463.272284 35.615022 
L 464.462773 32.287593 
L 464.670995 42.919133 
L 465.291135 36.264276 
L 466.60384 39.95691 
L 467.278299 42.351036 
L 467.803382 36.304855 
L 468.681536 37.907701 
L 469.396735 40.809057 
L 470.07572 41.519179 
L 470.949348 36.325144 
L 471.275261 36.832374 
L 471.678126 40.423562 
L 473.036097 39.71344 
L 473.398223 37.096133 
L 474.280904 37.806255 
L 475.647929 26.383437 
L 476.209223 30.278963 
L 477.209595 19.505399 
L 477.354446 20.215521 
L 478.875373 15.508427 
L 479.002117 14.737437 
L 480.29219 18.490939 
L 481.419306 11.815793 
L 481.663741 20.74304 
L 481.989654 20.438702 
L 483.202775 14.230207 
L 483.60564 14.67657 
L 484.252939 20.398123 
L 485.135621 16.604043 
L 486.072621 19.667712 
L 487.131838 20.864775 
L 488.086945 17.557636 
L 488.806669 15.508427 
L 489.684824 20.012629 
L 491.269124 14.047604 
L 492.627095 21.372005 
L 493.337766 17.557636 
L 494.052965 23.745841 
L 494.528255 24.740012 
L 495.04881 21.331427 
L 496.356989 22.142994 
L 496.968076 25.003771 
L 497.393574 22.041548 
L 497.647062 23.745841 
L 498.833023 22.873406 
L 531.053153 22.873406 
L 532.519762 28.818141 
L 532.524288 18.044576 
L 532.60124 27.539921 
L 532.700824 18.937301 
L 534.538612 24.861747 
L 535.652149 32.63251 
L 535.910163 30.725325 
L 536.820004 35.736757 
L 537.45825 33.748416 
L 538.472202 37.988858 
L 539.400149 36.487458 
L 540.1244 42.980001 
L 540.979922 44.116196 
L 541.486898 40.748189 
L 541.817338 41.701781 
L 542.677386 37.522207 
L 543.43785 37.136712 
L 544.38843 43.568388 
L 545.176053 40.382984 
L 545.683029 43.345206 
L 546.787512 40.46414 
L 547.443865 42.472771 
L 549.431029 28.655827 
L 549.440083 50.892788 
L 549.494401 50.101509 
L 551.160179 43.487231 
L 552.183184 36.629482 
L 552.69016 41.458311 
L 552.988914 37.603363 
L 554.084344 40.585876 
L 555.591692 48.762422 
L 555.908552 46.733503 
L 557.076407 54.686868 
L 557.180518 51.724645 
L 557.954562 57.020126 
L 558.678813 55.681039 
L 559.502649 51.765224 
L 561.068842 52.515924 
L 561.643717 59.353384 
L 562.205012 60.550446 
L 562.73462 53.327492 
L 563.85721 60.651892 
L 564.717258 55.985377 
L 564.943587 57.547645 
L 565.862481 54.341952 
L 566.432829 66.29229 
L 566.437355 47.382757 
L 567.980916 57.507067 
L 568.55579 53.023154 
L 568.55579 53.023154 
" clip-path="url(#p187282dd5b)" style="fill: none; stroke: #4169e1; stroke-width: 1.5; stroke-linecap: square"/>
   </g>
   <g id="patch_3">
    <path d="M 53.328125 108.747437 
L 53.328125 7.2 
" style="fill: none; stroke: #000000; stroke-width: 0.8; stroke-linejoin: miter; stroke-linecap: square"/>
   </g>
   <g id="patch_4">
    <path d="M 573.657054 108.747437 
L 573.657054 7.2 
" style="fill: none; stroke: #000000; stroke-width: 0.8; stroke-linejoin: miter; stroke-linecap: square"/>
   </g>
   <g id="patch_5">
    <path d="M 53.328125 108.747437 
L 573.657054 108.747437 
" style="fill: none; stroke: #000000; stroke-width: 0.8; stroke-linejoin: miter; stroke-linecap: square"/>
   </g>
   <g id="patch_6">
    <path d="M 53.328125 7.2 
L 573.657054 7.2 
" style="fill: none; stroke: #000000; stroke-width: 0.8; stroke-linejoin: miter; stroke-linecap: square"/>
   </g>
  </g>
  <g id="axes_2">
   <g id="patch_7">
    <path d="M 53.328125 219.795353 
L 573.657054 219.795353 
L 573.657054 118.247917 
L 53.328125 118.247917 
z
" style="fill: #ffffff"/>
   </g>
   <g id="matplotlib.axis_3">
    <g id="xtick_17">
     <g id="line2d_21">
      <g>
       <use xlink:href="#m95897009a7" x="58.429389" y="219.795353" style="stroke: #000000; stroke-width: 0.8"/>
      </g>
     </g>
    </g>
    <g id="xtick_18">
     <g id="line2d_22">
      <g>
       <use xlink:href="#m95897009a7" x="92.437711" y="219.795353" style="stroke: #000000; stroke-width: 0.8"/>
      </g>
     </g>
    </g>
    <g id="xtick_19">
     <g id="line2d_23">
      <g>
       <use xlink:href="#m95897009a7" x="126.446033" y="219.795353" style="stroke: #000000; stroke-width: 0.8"/>
      </g>
     </g>
    </g>
    <g id="xtick_20">
     <g id="line2d_24">
      <g>
       <use xlink:href="#m95897009a7" x="160.454354" y="219.795353" style="stroke: #000000; stroke-width: 0.8"/>
      </g>
     </g>
    </g>
    <g id="xtick_21">
     <g id="line2d_25">
      <g>
       <use xlink:href="#m95897009a7" x="194.462676" y="219.795353" style="stroke: #000000; stroke-width: 0.8"/>
      </g>
     </g>
    </g>
    <g id="xtick_22">
     <g id="line2d_26">
      <g>
       <use xlink:href="#m95897009a7" x="228.470998" y="219.795353" style="stroke: #000000; stroke-width: 0.8"/>
      </g>
     </g>
    </g>
    <g id="xtick_23">
     <g id="line2d_27">
      <g>
       <use xlink:href="#m95897009a7" x="262.47932" y="219.795353" style="stroke: #000000; stroke-width: 0.8"/>
      </g>
     </g>
    </g>
    <g id="xtick_24">
     <g id="line2d_28">
      <g>
       <use xlink:href="#m95897009a7" x="296.487642" y="219.795353" style="stroke: #000000; stroke-width: 0.8"/>
      </g>
     </g>
    </g>
    <g id="xtick_25">
     <g id="line2d_29">
      <g>
       <use xlink:href="#m95897009a7" x="330.495963" y="219.795353" style="stroke: #000000; stroke-width: 0.8"/>
      </g>
     </g>
    </g>
    <g id="xtick_26">
     <g id="line2d_30">
      <g>
       <use xlink:href="#m95897009a7" x="364.504285" y="219.795353" style="stroke: #000000; stroke-width: 0.8"/>
      </g>
     </g>
    </g>
    <g id="xtick_27">
     <g id="line2d_31">
      <g>
       <use xlink:href="#m95897009a7" x="398.512607" y="219.795353" style="stroke: #000000; stroke-width: 0.8"/>
      </g>
     </g>
    </g>
    <g id="xtick_28">
     <g id="line2d_32">
      <g>
       <use xlink:href="#m95897009a7" x="432.520929" y="219.795353" style="stroke: #000000; stroke-width: 0.8"/>
      </g>
     </g>
    </g>
    <g id="xtick_29">
     <g id="line2d_33">
      <g>
       <use xlink:href="#m95897009a7" x="466.52925" y="219.795353" style="stroke: #000000; stroke-width: 0.8"/>
      </g>
     </g>
    </g>
    <g id="xtick_30">
     <g id="line2d_34">
      <g>
       <use xlink:href="#m95897009a7" x="500.537572" y="219.795353" style="stroke: #000000; stroke-width: 0.8"/>
      </g>
     </g>
    </g>
    <g id="xtick_31">
     <g id="line2d_35">
      <g>
       <use xlink:href="#m95897009a7" x="534.545894" y="219.795353" style="stroke: #000000; stroke-width: 0.8"/>
      </g>
     </g>
    </g>
    <g id="xtick_32">
     <g id="line2d_36">
      <g>
       <use xlink:href="#m95897009a7" x="568.554216" y="219.795353" style="stroke: #000000; stroke-width: 0.8"/>
      </g>
     </g>
    </g>
   </g>
   <g id="matplotlib.axis_4">
    <g id="ytick_4">
     <g id="line2d_37">
      <g>
       <use xlink:href="#m5e12a5e499" x="53.328125" y="205.293213" style="stroke: #000000; stroke-width: 0.8"/>
      </g>
     </g>
     <g id="text_5">
      <!-- 1000 -->
      <g transform="translate(20.878125 209.092432) scale(0.1 -0.1)">
       <use xlink:href="#DejaVuSans-31"/>
       <use xlink:href="#DejaVuSans-30" transform="translate(63.623047 0)"/>
       <use xlink:href="#DejaVuSans-30" transform="translate(127.246094 0)"/>
       <use xlink:href="#DejaVuSans-30" transform="translate(190.869141 0)"/>
      </g>
     </g>
    </g>
    <g id="ytick_5">
     <g id="line2d_38">
      <g>
       <use xlink:href="#m5e12a5e499" x="53.328125" y="180.398593" style="stroke: #000000; stroke-width: 0.8"/>
      </g>
     </g>
     <g id="text_6">
      <!-- 1010 -->
      <g transform="translate(20.878125 184.197811) scale(0.1 -0.1)">
       <use xlink:href="#DejaVuSans-31"/>
       <use xlink:href="#DejaVuSans-30" transform="translate(63.623047 0)"/>
       <use xlink:href="#DejaVuSans-31" transform="translate(127.246094 0)"/>
       <use xlink:href="#DejaVuSans-30" transform="translate(190.869141 0)"/>
      </g>
     </g>
    </g>
    <g id="ytick_6">
     <g id="line2d_39">
      <g>
       <use xlink:href="#m5e12a5e499" x="53.328125" y="155.503972" style="stroke: #000000; stroke-width: 0.8"/>
      </g>
     </g>
     <g id="text_7">
      <!-- 1020 -->
      <g transform="translate(20.878125 159.303191) scale(0.1 -0.1)">
       <defs>
        <path id="DejaVuSans-32" d="M 1228 531 
L 3431 531 
L 3431 0 
L 469 0 
L 469 531 
Q 828 903 1448 1529 
Q 2069 2156 2228 2338 
Q 2531 2678 2651 2914 
Q 2772 3150 2772 3378 
Q 2772 3750 2511 3984 
Q 2250 4219 1831 4219 
Q 1534 4219 1204 4116 
Q 875 4013 500 3803 
L 500 4441 
Q 881 4594 1212 4672 
Q 1544 4750 1819 4750 
Q 2544 4750 2975 4387 
Q 3406 4025 3406 3419 
Q 3406 3131 3298 2873 
Q 3191 2616 2906 2266 
Q 2828 2175 2409 1742 
Q 1991 1309 1228 531 
z
" transform="scale(0.015625)"/>
       </defs>
       <use xlink:href="#DejaVuSans-31"/>
       <use xlink:href="#DejaVuSans-30" transform="translate(63.623047 0)"/>
       <use xlink:href="#DejaVuSans-32" transform="translate(127.246094 0)"/>
       <use xlink:href="#DejaVuSans-30" transform="translate(190.869141 0)"/>
      </g>
     </g>
    </g>
    <g id="ytick_7">
     <g id="line2d_40">
      <g>
       <use xlink:href="#m5e12a5e499" x="53.328125" y="130.609352" style="stroke: #000000; stroke-width: 0.8"/>
      </g>
     </g>
     <g id="text_8">
      <!-- 1030 -->
      <g transform="translate(20.878125 134.40857) scale(0.1 -0.1)">
       <defs>
        <path id="DejaVuSans-33" d="M 2597 2516 
Q 3050 2419 3304 2112 
Q 3559 1806 3559 1356 
Q 3559 666 3084 287 
Q 2609 -91 1734 -91 
Q 1441 -91 1130 -33 
Q 819 25 488 141 
L 488 750 
Q 750 597 1062 519 
Q 1375 441 1716 441 
Q 2309 441 2620 675 
Q 2931 909 2931 1356 
Q 2931 1769 2642 2001 
Q 2353 2234 1838 2234 
L 1294 2234 
L 1294 2753 
L 1863 2753 
Q 2328 2753 2575 2939 
Q 2822 3125 2822 3475 
Q 2822 3834 2567 4026 
Q 2313 4219 1838 4219 
Q 1578 4219 1281 4162 
Q 984 4106 628 3988 
L 628 4550 
Q 988 4650 1302 4700 
Q 1616 4750 1894 4750 
Q 2613 4750 3031 4423 
Q 3450 4097 3450 3541 
Q 3450 3153 3228 2886 
Q 3006 2619 2597 2516 
z
" transform="scale(0.015625)"/>
       </defs>
       <use xlink:href="#DejaVuSans-31"/>
       <use xlink:href="#DejaVuSans-30" transform="translate(63.623047 0)"/>
       <use xlink:href="#DejaVuSans-33" transform="translate(127.246094 0)"/>
       <use xlink:href="#DejaVuSans-30" transform="translate(190.869141 0)"/>
      </g>
     </g>
    </g>
    <g id="text_9">
     <!-- Equity -->
     <g transform="translate(14.798438 184.832572) rotate(-90) scale(0.1 -0.1)">
      <defs>
       <path id="DejaVuSans-45" d="M 628 4666 
L 3578 4666 
L 3578 4134 
L 1259 4134 
L 1259 2753 
L 3481 2753 
L 3481 2222 
L 1259 2222 
L 1259 531 
L 3634 531 
L 3634 0 
L 628 0 
L 628 4666 
z
" transform="scale(0.015625)"/>
       <path id="DejaVuSans-71" d="M 947 1747 
Q 947 1113 1208 752 
Q 1469 391 1925 391 
Q 2381 391 2643 752 
Q 2906 1113 2906 1747 
Q 2906 2381 2643 2742 
Q 2381 3103 1925 3103 
Q 1469 3103 1208 2742 
Q 947 2381 947 1747 
z
M 2906 525 
Q 2725 213 2448 61 
Q 2172 -91 1784 -91 
Q 1150 -91 751 415 
Q 353 922 353 1747 
Q 353 2572 751 3078 
Q 1150 3584 1784 3584 
Q 2172 3584 2448 3432 
Q 2725 3281 2906 2969 
L 2906 3500 
L 3481 3500 
L 3481 -1331 
L 2906 -1331 
L 2906 525 
z
" transform="scale(0.015625)"/>
       <path id="DejaVuSans-75" d="M 544 1381 
L 544 3500 
L 1119 3500 
L 1119 1403 
Q 1119 906 1312 657 
Q 1506 409 1894 409 
Q 2359 409 2629 706 
Q 2900 1003 2900 1516 
L 2900 3500 
L 3475 3500 
L 3475 0 
L 2900 0 
L 2900 538 
Q 2691 219 2414 64 
Q 2138 -91 1772 -91 
Q 1169 -91 856 284 
Q 544 659 544 1381 
z
M 1991 3584 
L 1991 3584 
z
" transform="scale(0.015625)"/>
       <path id="DejaVuSans-74" d="M 1172 4494 
L 1172 3500 
L 2356 3500 
L 2356 3053 
L 1172 3053 
L 1172 1153 
Q 1172 725 1289 603 
Q 1406 481 1766 481 
L 2356 481 
L 2356 0 
L 1766 0 
Q 1100 0 847 248 
Q 594 497 594 1153 
L 594 3053 
L 172 3053 
L 172 3500 
L 594 3500 
L 594 4494 
L 1172 4494 
z
" transform="scale(0.015625)"/>
       <path id="DejaVuSans-79" d="M 2059 -325 
Q 1816 -950 1584 -1140 
Q 1353 -1331 966 -1331 
L 506 -1331 
L 506 -850 
L 844 -850 
Q 1081 -850 1212 -737 
Q 1344 -625 1503 -206 
L 1606 56 
L 191 3500 
L 800 3500 
L 1894 763 
L 2988 3500 
L 3597 3500 
L 2059 -325 
z
" transform="scale(0.015625)"/>
      </defs>
      <use xlink:href="#DejaVuSans-45"/>
      <use xlink:href="#DejaVuSans-71" transform="translate(63.183594 0)"/>
      <use xlink:href="#DejaVuSans-75" transform="translate(126.660156 0)"/>
      <use xlink:href="#DejaVuSans-69" transform="translate(190.039062 0)"/>
      <use xlink:href="#DejaVuSans-74" transform="translate(217.822266 0)"/>
      <use xlink:href="#DejaVuSans-79" transform="translate(257.03125 0)"/>
     </g>
    </g>
   </g>
   <g id="line2d_41">
    <path d="M 58.429389 205.293213 
L 58.442969 205.598302 
L 59.520293 201.923857 
L 60.574983 209.944903 
L 61.987274 206.688687 
L 62.774897 210.019587 
L 63.164182 210.811236 
L 63.8658 204.657286 
L 64.567419 206.016532 
L 67.636434 206.016532 
L 68.41953 207.173451 
L 69.320318 205.888888 
L 70.112468 207.516997 
L 70.746188 206.964336 
L 72.212797 207.890416 
L 73.380652 215.179561 
L 73.416864 199.95899 
L 73.846889 206.247371 
L 75.322551 209.86207 
L 76.811792 201.870897 
L 76.857058 202.348873 
L 78.16071 199.256962 
L 78.912121 200.04861 
L 79.858174 195.731883 
L 80.089029 196.463785 
L 81.193513 183.976644 
L 81.596377 191.923006 
L 82.071667 186.052855 
L 83.999986 186.98968 
L 84.538648 193.09882 
L 85.661238 178.356226 
L 86.050523 179.999271 
L 87.517132 184.256251 
L 87.711774 182.822321 
L 88.254963 185.540813 
L 89.119538 185.301825 
L 92.184026 185.301825 
L 92.926384 186.179074 
L 93.714007 182.40007 
L 94.089712 184.775017 
L 94.940708 181.802599 
L 95.266621 181.727915 
L 96.276046 188.120854 
L 97.045563 187.642877 
L 97.674756 178.56132 
L 98.616283 183.998305 
L 99.376747 189.046934 
L 100.119104 184.461345 
L 101.083264 187.388952 
L 101.540447 183.624886 
L 102.549873 194.394298 
L 102.939158 193.587713 
L 103.034216 191.630995 
L 104.464612 193.064926 
L 107.5291 193.064926 
L 108.180927 194.03017 
L 108.95497 191.132436 
L 109.968922 194.328905 
L 110.580009 189.235466 
L 110.611695 190.221293 
L 111.019086 193.731434 
L 113.209947 193.009247 
L 113.427222 194.786723 
L 114.468333 195.279637 
L 115.06584 191.00772 
L 115.446072 191.216835 
L 115.867043 194.637355 
L 117.908527 191.381139 
L 118.121276 194.84647 
L 118.302338 193.068994 
L 120.257817 185.615545 
L 120.850798 187.930745 
L 121.344194 187.885934 
L 124.408682 187.885934 
L 124.472054 191.720001 
L 124.621431 187.014917 
L 125.956769 188.85214 
L 127.387166 185.993879 
L 127.663286 186.143246 
L 128.482596 189.169917 
L 129.917519 188.656633 
L 130.257011 189.657397 
L 130.741354 189.956132 
L 131.012949 188.103972 
L 132.158171 188.895621 
L 133.063485 190.882212 
L 134.638732 188.477392 
L 135.05065 193.406527 
L 135.906172 193.771871 
L 136.413147 187.513364 
L 136.689268 189.350587 
L 176.586462 189.350587 
L 178.116442 191.84046 
L 178.415196 191.108558 
L 178.976491 196.799468 
L 179.660003 196.201997 
L 180.470259 193.154896 
L 181.647168 194.349838 
L 182.516269 199.033304 
L 183.186202 193.671003 
L 184.177521 198.211782 
L 184.399322 196.927219 
L 185.779927 201.416565 
L 186.246163 198.653262 
L 187.088105 203.492776 
L 187.939101 198.832503 
L 188.726724 203.298598 
L 189.06169 203.373282 
L 189.283492 200.146939 
L 190.397029 201.894542 
L 192.34798 210.60268 
L 192.50641 182.702573 
L 193.497729 185.361318 
L 194.837594 181.208895 
L 195.059396 181.104338 
L 195.548266 184.480049 
L 196.535058 182.80713 
L 198.065039 187.937511 
L 198.716865 191.223601 
L 199.282687 186.772443 
L 199.988832 183.949393 
L 200.980151 198.064643 
L 201.500706 198.886165 
L 202.59161 194.42007 
L 202.691194 195.062351 
L 203.433552 188.833717 
L 204.388658 195.107162 
L 205.280393 183.441543 
L 205.982011 185.995731 
L 207.249451 182.829135 
L 207.344509 183.949393 
L 208.774905 181.679004 
L 209.345253 188.998022 
L 209.354306 179.274183 
L 210.829968 183.725341 
L 211.549693 181.589383 
L 212.527432 180.289884 
L 213.115886 184.188381 
L 214.138891 184.531927 
L 214.347114 181.813434 
L 215.14379 184.487117 
L 216.420283 179.991148 
L 216.949892 182.739514 
L 217.511186 180.409378 
L 218.520612 182.754451 
L 219.330868 180.812671 
L 220.326713 186.41396 
L 220.602834 179.453424 
L 221.512675 184.696232 
L 222.404409 182.06736 
L 222.965704 182.605083 
L 223.106028 184.367623 
L 224.156192 183.605847 
L 225.686173 183.605847 
L 226.451163 179.236145 
L 226.564328 183.687303 
L 228.035463 183.776924 
L 228.732555 181.327293 
L 229.180685 180.849317 
L 229.483966 183.059959 
L 230.602029 180.864253 
L 231.701985 181.879954 
L 231.964526 181.700713 
L 233.114275 176.353348 
L 233.589565 178.100951 
L 234.893218 174.784987 
L 235.006382 175.023975 
L 236.074653 173.2465 
L 237.328513 170.737122 
L 237.391885 182.283247 
L 238.899233 181.06463 
L 239.157247 185.441104 
L 239.560112 184.186416 
L 239.94487 180.810705 
L 241.461272 185.500852 
L 242.022566 182.229698 
L 242.570281 183.499324 
L 243.543494 177.980133 
L 246.187011 181.213248 
L 246.865997 177.882348 
L 247.544982 178.539566 
L 248.463876 176.538038 
L 249.106649 176.194493 
L 249.704157 179.570203 
L 250.727162 180.854766 
L 251.763746 170.623077 
L 252.311461 169.876238 
L 253.443104 174.267649 
L 254.452529 168.651423 
L 254.868974 171.429662 
L 254.927819 173.087644 
L 257.000988 173.723526 
L 257.88367 168.600213 
L 257.956095 169.287305 
L 258.567182 167.987806 
L 259.449863 168.510593 
L 296.273515 168.510593 
L 296.82123 168.309397 
L 297.658646 170.624597 
L 297.925713 169.519276 
L 299.582438 173.492457 
L 301.0581 169.59396 
L 301.890989 173.014481 
L 302.751038 171.640298 
L 303.89626 175.016008 
L 304.806101 171.505867 
L 305.421714 174.911451 
L 305.734048 175.150439 
L 306.725367 171.819539 
L 307.033173 171.744855 
L 307.888695 174.926388 
L 308.803062 173.104101 
L 309.219507 175.045882 
L 311.428473 170.594724 
L 311.44658 176.435002 
L 311.790599 175.269933 
L 311.799652 171.341562 
L 314.56086 173.395485 
L 314.687604 170.856234 
L 314.8913 171.065348 
L 316.163266 165.792668 
L 316.362435 167.510397 
L 317.435233 164.269117 
L 317.86073 165.792668 
L 318.81131 160.983027 
L 320.119489 163.552152 
L 320.735103 166.733684 
L 322.265083 167.889943 
L 322.351088 164.245371 
L 322.391827 164.962336 
L 323.614002 174.656301 
L 324.609847 172.878825 
L 325.365784 177.150742 
L 325.465369 176.568208 
L 325.723383 178.82366 
L 328.375954 182.318865 
L 328.385007 170.3097 
L 328.620389 174.018725 
L 328.837664 166.117172 
L 330.711664 173.306058 
L 331.23222 168.511355 
L 331.635085 167.749579 
L 331.870466 169.646549 
L 333.296336 168.526291 
L 334.120172 171.095416 
L 334.803684 169.751107 
L 336.166182 166.465017 
L 336.229554 166.659195 
L 337.628264 173.425553 
L 338.130713 173.559984 
L 339.352888 169.512118 
L 340.647487 173.410616 
L 340.928134 173.261248 
L 341.647859 170.931112 
L 343.363429 184.000787 
L 343.802506 167.002741 
L 344.255163 169.840727 
L 345.042787 161.042968 
L 345.445652 159.609038 
L 345.948101 165.98704 
L 346.957526 165.180454 
L 348.464874 159.698659 
L 349.637256 164.000449 
L 351.198923 158.010804 
L 351.927701 163.857666 
L 353.009551 156.493837 
L 353.07745 156.568521 
L 353.819807 162.961459 
L 355.186832 159.287013 
L 355.449373 161.691834 
L 356.66702 160.744033 
L 357.12873 155.381732 
L 357.862035 156.959094 
L 358.418803 154.240601 
L 359.287904 155.719341 
L 360.093634 152.791734 
L 361.170958 153.389205 
L 361.677934 155.898583 
L 362.393132 150.058305 
L 362.565142 159.901638 
L 364.5342 154.345158 
L 364.819374 157.34745 
L 365.462147 157.183145 
L 366.847277 154.449716 
L 366.86991 154.464653 
L 367.010234 151.955275 
L 368.399891 152.239074 
L 369.929872 152.239074 
L 370.48664 150.38056 
L 371.115833 154.443362 
L 371.473433 152.919811 
L 372.976254 147.766625 
L 373.587341 146.496999 
L 374.338752 153.696523 
L 374.945312 153.860828 
L 375.271225 151.590438 
L 376.552245 153.099052 
L 377.077327 151.426134 
L 377.729153 152.008668 
L 378.313081 150.978031 
L 379.141443 151.157272 
L 414.430588 151.157272 
L 415.602969 150.404793 
L 415.698027 151.495177 
L 416.232163 151.838723 
L 417.16011 147.970099 
L 417.906994 148.746811 
L 418.060897 147.59668 
L 419.301178 148.702001 
L 420.333236 153.257717 
L 420.622936 151.375683 
L 422.026173 156.140514 
L 422.270608 154.079239 
L 423.289086 155.901525 
L 424.728536 154.273417 
L 424.977497 157.245835 
L 425.873758 153.556452 
L 426.502951 155.916462 
L 426.892237 154.930635 
L 428.223048 158.336219 
L 428.295473 158.291409 
L 428.834135 156.603554 
L 430.400329 148.388329 
L 430.540652 161.114459 
L 432.034421 159.539298 
L 432.396546 158.209926 
L 433.772624 160.764114 
L 434.320339 158.359293 
L 434.447083 158.897017 
L 434.777523 156.790932 
L 436.081175 157.283846 
L 437.366721 160.166643 
L 438.000441 157.642328 
L 438.919335 162.138297 
L 439.163769 162.183107 
L 440.096243 158.239799 
L 441.504006 156.731185 
L 441.825393 159.374994 
L 442.468166 160.480315 
L 443.577176 155.984347 
L 443.789925 155.96941 
L 445.093577 162.063613 
L 445.496442 162.825388 
L 447.406655 156.103841 
L 447.474553 165.520923 
L 449.375713 160.278116 
L 449.629201 162.399138 
L 449.778578 161.413311 
L 450.172389 158.022663 
L 451.408143 159.098111 
L 452.766114 155.782148 
L 453.368148 157.813549 
L 454.178404 153.795557 
L 454.572216 155.080119 
L 455.776284 150.882886 
L 456.532221 151.958334 
L 457.36511 148.956043 
L 457.514487 149.52364 
L 458.926777 144.071718 
L 459.23911 143.743109 
L 459.352274 145.894004 
L 460.470337 144.997798 
L 462.004845 144.997798 
L 463.534826 145.412601 
L 464.462773 148.444766 
L 464.670995 140.617897 
L 465.291135 145.517159 
L 466.60384 142.798666 
L 467.278299 141.036127 
L 467.803382 145.487285 
L 468.156454 142.201195 
L 469.396735 145.229545 
L 470.07572 145.752332 
L 470.949348 141.928518 
L 471.275261 142.301938 
L 471.678126 144.945746 
L 473.036097 144.422959 
L 473.398223 142.496116 
L 474.280904 143.018903 
L 475.647929 134.6095 
L 476.209223 137.47736 
L 477.209595 129.545934 
L 477.354446 130.068721 
L 477.530982 127.454786 
L 478.884427 128.45555 
L 480.414407 128.45555 
L 481.591316 130.501478 
L 481.663741 125.318418 
L 481.989654 125.54247 
L 483.202775 130.113122 
L 483.487949 129.067548 
L 486.552437 129.067548 
L 487.131838 130.336194 
L 488.086945 127.9015 
L 488.806669 126.392886 
L 489.684824 129.70885 
L 491.269124 125.317439 
L 492.627095 130.709613 
L 493.337766 127.9015 
L 494.052965 132.457216 
L 494.528255 133.189118 
L 495.04881 130.67974 
L 496.356989 131.277211 
L 496.968076 133.383296 
L 497.352835 131.456452 
L 541.794705 131.456452 
L 541.939555 132.079698 
L 542.677386 129.391079 
L 543.43785 129.10728 
L 544.38843 133.842237 
L 545.176053 131.497164 
L 545.683029 133.677932 
L 546.787512 131.556911 
L 547.443865 133.035651 
L 549.431029 122.863709 
L 549.440083 139.234412 
L 549.494401 138.651878 
L 551.160179 133.78249 
L 552.183184 128.733861 
L 552.69016 132.288813 
L 552.988914 129.450826 
L 554.084344 131.646531 
L 555.591692 137.666051 
L 555.908552 136.172373 
L 557.076407 142.027588 
L 557.180518 139.846819 
L 557.954562 143.745317 
L 558.678813 142.75949 
L 559.502649 139.876693 
L 561.068842 140.429353 
L 561.643717 145.463046 
L 562.205012 146.344315 
L 562.549031 141.161255 
L 563.85721 145.725691 
L 564.717258 142.290233 
L 564.943587 143.440365 
L 565.862481 141.080355 
L 566.432829 149.878114 
L 566.437355 135.957042 
L 567.980916 143.410491 
L 568.55579 140.348453 
L 568.55579 140.348453 
" clip-path="url(#pd09a8abdff)" style="fill: none; stroke: #2e8b57; stroke-width: 1.5; stroke-linecap: square"/>
   </g>
   <g id="patch_8">
    <path d="M 53.328125 219.795353 
L 53.328125 118.247917 
" style="fill: none; stroke: #000000; stroke-width: 0.8; stroke-linejoin: miter; stroke-linecap: square"/>
   </g>
   <g id="patch_9">
    <path d="M 573.657054 219.795353 
L 573.657054 118.247917 
" style="fill: none; stroke: #000000; stroke-width: 0.8; stroke-linejoin: miter; stroke-linecap: square"/>
   </g>
   <g id="patch_10">
    <path d="M 53.328125 219.795353 
L 573.657054 219.795353 
" style="fill: none; stroke: #000000; stroke-width: 0.8; stroke-linejoin: miter; stroke-linecap: square"/>
   </g>
   <g id="patch_11">
    <path d="M 53.328125 118.247917 
L 573.657054 118.247917 
" style="fill: none; stroke: #000000; stroke-width: 0.8; stroke-linejoin: miter; stroke-linecap: square"/>
   </g>
  </g>
  <g id="axes_3">
   <g id="patch_12">
    <path d="M 53.328125 330.84327 
L 573.657054 330.84327 
L 573.657054 229.295833 
L 53.328125 229.295833 
z
" style="fill: #ffffff"/>
   </g>
   <g id="matplotlib.axis_5">
    <g id="xtick_33">
     <g id="line2d_42">
      <g>
       <use xlink:href="#m95897009a7" x="58.429389" y="330.84327" style="stroke: #000000; stroke-width: 0.8"/>
      </g>
     </g>
     <g id="text_10">
      <!-- Sep -->
      <g transform="translate(49.004389 345.441707) scale(0.1 -0.1)">
       <defs>
        <path id="DejaVuSans-53" d="M 3425 4513 
L 3425 3897 
Q 3066 4069 2747 4153 
Q 2428 4238 2131 4238 
Q 1616 4238 1336 4038 
Q 1056 3838 1056 3469 
Q 1056 3159 1242 3001 
Q 1428 2844 1947 2747 
L 2328 2669 
Q 3034 2534 3370 2195 
Q 3706 1856 3706 1288 
Q 3706 609 3251 259 
Q 2797 -91 1919 -91 
Q 1588 -91 1214 -16 
Q 841 59 441 206 
L 441 856 
Q 825 641 1194 531 
Q 1563 422 1919 422 
Q 2459 422 2753 634 
Q 3047 847 3047 1241 
Q 3047 1584 2836 1778 
Q 2625 1972 2144 2069 
L 1759 2144 
Q 1053 2284 737 2584 
Q 422 2884 422 3419 
Q 422 4038 858 4394 
Q 1294 4750 2059 4750 
Q 2388 4750 2728 4690 
Q 3069 4631 3425 4513 
z
" transform="scale(0.015625)"/>
        <path id="DejaVuSans-70" d="M 1159 525 
L 1159 -1331 
L 581 -1331 
L 581 3500 
L 1159 3500 
L 1159 2969 
Q 1341 3281 1617 3432 
Q 1894 3584 2278 3584 
Q 2916 3584 3314 3078 
Q 3713 2572 3713 1747 
Q 3713 922 3314 415 
Q 2916 -91 2278 -91 
Q 1894 -91 1617 61 
Q 1341 213 1159 525 
z
M 3116 1747 
Q 3116 2381 2855 2742 
Q 2594 3103 2138 3103 
Q 1681 3103 1420 2742 
Q 1159 2381 1159 1747 
Q 1159 1113 1420 752 
Q 1681 391 2138 391 
Q 2594 391 2855 752 
Q 3116 1113 3116 1747 
z
" transform="scale(0.015625)"/>
       </defs>
       <use xlink:href="#DejaVuSans-53"/>
       <use xlink:href="#DejaVuSans-65" transform="translate(63.476562 0)"/>
       <use xlink:href="#DejaVuSans-70" transform="translate(125 0)"/>
      </g>
     </g>
    </g>
    <g id="xtick_34">
     <g id="line2d_43">
      <g>
       <use xlink:href="#m95897009a7" x="92.437711" y="330.84327" style="stroke: #000000; stroke-width: 0.8"/>
      </g>
     </g>
     <g id="text_11">
      <!-- 03 -->
      <g transform="translate(86.075211 345.441707) scale(0.1 -0.1)">
       <use xlink:href="#DejaVuSans-30"/>
       <use xlink:href="#DejaVuSans-33" transform="translate(63.623047 0)"/>
      </g>
     </g>
    </g>
    <g id="xtick_35">
     <g id="line2d_44">
      <g>
       <use xlink:href="#m95897009a7" x="126.446033" y="330.84327" style="stroke: #000000; stroke-width: 0.8"/>
      </g>
     </g>
     <g id="text_12">
      <!-- 05 -->
      <g transform="translate(120.083533 345.441707) scale(0.1 -0.1)">
       <use xlink:href="#DejaVuSans-30"/>
       <use xlink:href="#DejaVuSans-35" transform="translate(63.623047 0)"/>
      </g>
     </g>
    </g>
    <g id="xtick_36">
     <g id="line2d_45">
      <g>
       <use xlink:href="#m95897009a7" x="160.454354" y="330.84327" style="stroke: #000000; stroke-width: 0.8"/>
      </g>
     </g>
     <g id="text_13">
      <!-- 07 -->
      <g transform="translate(154.091854 345.441707) scale(0.1 -0.1)">
       <defs>
        <path id="DejaVuSans-37" d="M 525 4666 
L 3525 4666 
L 3525 4397 
L 1831 0 
L 1172 0 
L 2766 4134 
L 525 4134 
L 525 4666 
z
" transform="scale(0.015625)"/>
       </defs>
       <use xlink:href="#DejaVuSans-30"/>
       <use xlink:href="#DejaVuSans-37" transform="translate(63.623047 0)"/>
      </g>
     </g>
    </g>
    <g id="xtick_37">
     <g id="line2d_46">
      <g>
       <use xlink:href="#m95897009a7" x="194.462676" y="330.84327" style="stroke: #000000; stroke-width: 0.8"/>
      </g>
     </g>
     <g id="text_14">
      <!-- 09 -->
      <g transform="translate(188.100176 345.441707) scale(0.1 -0.1)">
       <defs>
        <path id="DejaVuSans-39" d="M 703 97 
L 703 672 
Q 941 559 1184 500 
Q 1428 441 1663 441 
Q 2288 441 2617 861 
Q 2947 1281 2994 2138 
Q 2813 1869 2534 1725 
Q 2256 1581 1919 1581 
Q 1219 1581 811 2004 
Q 403 2428 403 3163 
Q 403 3881 828 4315 
Q 1253 4750 1959 4750 
Q 2769 4750 3195 4129 
Q 3622 3509 3622 2328 
Q 3622 1225 3098 567 
Q 2575 -91 1691 -91 
Q 1453 -91 1209 -44 
Q 966 3 703 97 
z
M 1959 2075 
Q 2384 2075 2632 2365 
Q 2881 2656 2881 3163 
Q 2881 3666 2632 3958 
Q 2384 4250 1959 4250 
Q 1534 4250 1286 3958 
Q 1038 3666 1038 3163 
Q 1038 2656 1286 2365 
Q 1534 2075 1959 2075 
z
" transform="scale(0.015625)"/>
       </defs>
       <use xlink:href="#DejaVuSans-30"/>
       <use xlink:href="#DejaVuSans-39" transform="translate(63.623047 0)"/>
      </g>
     </g>
    </g>
    <g id="xtick_38">
     <g id="line2d_47">
      <g>
       <use xlink:href="#m95897009a7" x="228.470998" y="330.84327" style="stroke: #000000; stroke-width: 0.8"/>
      </g>
     </g>
     <g id="text_15">
      <!-- 11 -->
      <g transform="translate(222.108498 345.441707) scale(0.1 -0.1)">
       <use xlink:href="#DejaVuSans-31"/>
       <use xlink:href="#DejaVuSans-31" transform="translate(63.623047 0)"/>
      </g>
     </g>
    </g>
    <g id="xtick_39">
     <g id="line2d_48">
      <g>
       <use xlink:href="#m95897009a7" x="262.47932" y="330.84327" style="stroke: #000000; stroke-width: 0.8"/>
      </g>
     </g>
     <g id="text_16">
      <!-- 13 -->
      <g transform="translate(256.11682 345.441707) scale(0.1 -0.1)">
       <use xlink:href="#DejaVuSans-31"/>
       <use xlink:href="#DejaVuSans-33" transform="translate(63.623047 0)"/>
      </g>
     </g>
    </g>
    <g id="xtick_40">
     <g id="line2d_49">
      <g>
       <use xlink:href="#m95897009a7" x="296.487642" y="330.84327" style="stroke: #000000; stroke-width: 0.8"/>
      </g>
     </g>
     <g id="text_17">
      <!-- 15 -->
      <g transform="translate(290.125142 345.441707) scale(0.1 -0.1)">
       <use xlink:href="#DejaVuSans-31"/>
       <use xlink:href="#DejaVuSans-35" transform="translate(63.623047 0)"/>
      </g>
     </g>
    </g>
    <g id="xtick_41">
     <g id="line2d_50">
      <g>
       <use xlink:href="#m95897009a7" x="330.495963" y="330.84327" style="stroke: #000000; stroke-width: 0.8"/>
      </g>
     </g>
     <g id="text_18">
      <!-- 17 -->
      <g transform="translate(324.133463 345.441707) scale(0.1 -0.1)">
       <use xlink:href="#DejaVuSans-31"/>
       <use xlink:href="#DejaVuSans-37" transform="translate(63.623047 0)"/>
      </g>
     </g>
    </g>
    <g id="xtick_42">
     <g id="line2d_51">
      <g>
       <use xlink:href="#m95897009a7" x="364.504285" y="330.84327" style="stroke: #000000; stroke-width: 0.8"/>
      </g>
     </g>
     <g id="text_19">
      <!-- 19 -->
      <g transform="translate(358.141785 345.441707) scale(0.1 -0.1)">
       <use xlink:href="#DejaVuSans-31"/>
       <use xlink:href="#DejaVuSans-39" transform="translate(63.623047 0)"/>
      </g>
     </g>
    </g>
    <g id="xtick_43">
     <g id="line2d_52">
      <g>
       <use xlink:href="#m95897009a7" x="398.512607" y="330.84327" style="stroke: #000000; stroke-width: 0.8"/>
      </g>
     </g>
     <g id="text_20">
      <!-- 21 -->
      <g transform="translate(392.150107 345.441707) scale(0.1 -0.1)">
       <use xlink:href="#DejaVuSans-32"/>
       <use xlink:href="#DejaVuSans-31" transform="translate(63.623047 0)"/>
      </g>
     </g>
    </g>
    <g id="xtick_44">
     <g id="line2d_53">
      <g>
       <use xlink:href="#m95897009a7" x="432.520929" y="330.84327" style="stroke: #000000; stroke-width: 0.8"/>
      </g>
     </g>
     <g id="text_21">
      <!-- 23 -->
      <g transform="translate(426.158429 345.441707) scale(0.1 -0.1)">
       <use xlink:href="#DejaVuSans-32"/>
       <use xlink:href="#DejaVuSans-33" transform="translate(63.623047 0)"/>
      </g>
     </g>
    </g>
    <g id="xtick_45">
     <g id="line2d_54">
      <g>
       <use xlink:href="#m95897009a7" x="466.52925" y="330.84327" style="stroke: #000000; stroke-width: 0.8"/>
      </g>
     </g>
     <g id="text_22">
      <!-- 25 -->
      <g transform="translate(460.16675 345.441707) scale(0.1 -0.1)">
       <use xlink:href="#DejaVuSans-32"/>
       <use xlink:href="#DejaVuSans-35" transform="translate(63.623047 0)"/>
      </g>
     </g>
    </g>
    <g id="xtick_46">
     <g id="line2d_55">
      <g>
       <use xlink:href="#m95897009a7" x="500.537572" y="330.84327" style="stroke: #000000; stroke-width: 0.8"/>
      </g>
     </g>
     <g id="text_23">
      <!-- 27 -->
      <g transform="translate(494.175072 345.441707) scale(0.1 -0.1)">
       <use xlink:href="#DejaVuSans-32"/>
       <use xlink:href="#DejaVuSans-37" transform="translate(63.623047 0)"/>
      </g>
     </g>
    </g>
    <g id="xtick_47">
     <g id="line2d_56">
      <g>
       <use xlink:href="#m95897009a7" x="534.545894" y="330.84327" style="stroke: #000000; stroke-width: 0.8"/>
      </g>
     </g>
     <g id="text_24">
      <!-- 29 -->
      <g transform="translate(528.183394 345.441707) scale(0.1 -0.1)">
       <use xlink:href="#DejaVuSans-32"/>
       <use xlink:href="#DejaVuSans-39" transform="translate(63.623047 0)"/>
      </g>
     </g>
    </g>
    <g id="xtick_48">
     <g id="line2d_57">
      <g>
       <use xlink:href="#m95897009a7" x="568.554216" y="330.84327" style="stroke: #000000; stroke-width: 0.8"/>
      </g>
     </g>
     <g id="text_25">
      <!-- Oct -->
      <g transform="translate(559.908903 345.441707) scale(0.1 -0.1)">
       <defs>
        <path id="DejaVuSans-4f" d="M 2522 4238 
Q 1834 4238 1429 3725 
Q 1025 3213 1025 2328 
Q 1025 1447 1429 934 
Q 1834 422 2522 422 
Q 3209 422 3611 934 
Q 4013 1447 4013 2328 
Q 4013 3213 3611 3725 
Q 3209 4238 2522 4238 
z
M 2522 4750 
Q 3503 4750 4090 4092 
Q 4678 3434 4678 2328 
Q 4678 1225 4090 567 
Q 3503 -91 2522 -91 
Q 1538 -91 948 565 
Q 359 1222 359 2328 
Q 359 3434 948 4092 
Q 1538 4750 2522 4750 
z
" transform="scale(0.015625)"/>
       </defs>
       <use xlink:href="#DejaVuSans-4f"/>
       <use xlink:href="#DejaVuSans-63" transform="translate(78.710938 0)"/>
       <use xlink:href="#DejaVuSans-74" transform="translate(133.691406 0)"/>
      </g>
     </g>
    </g>
    <g id="text_26">
     <!-- Time -->
     <g transform="translate(301.258996 359.119832) scale(0.1 -0.1)">
      <defs>
       <path id="DejaVuSans-54" d="M -19 4666 
L 3928 4666 
L 3928 4134 
L 2272 4134 
L 2272 0 
L 1638 0 
L 1638 4134 
L -19 4134 
L -19 4666 
z
" transform="scale(0.015625)"/>
       <path id="DejaVuSans-6d" d="M 3328 2828 
Q 3544 3216 3844 3400 
Q 4144 3584 4550 3584 
Q 5097 3584 5394 3201 
Q 5691 2819 5691 2113 
L 5691 0 
L 5113 0 
L 5113 2094 
Q 5113 2597 4934 2840 
Q 4756 3084 4391 3084 
Q 3944 3084 3684 2787 
Q 3425 2491 3425 1978 
L 3425 0 
L 2847 0 
L 2847 2094 
Q 2847 2600 2669 2842 
Q 2491 3084 2119 3084 
Q 1678 3084 1418 2786 
Q 1159 2488 1159 1978 
L 1159 0 
L 581 0 
L 581 3500 
L 1159 3500 
L 1159 2956 
Q 1356 3278 1631 3431 
Q 1906 3584 2284 3584 
Q 2666 3584 2933 3390 
Q 3200 3197 3328 2828 
z
" transform="scale(0.015625)"/>
      </defs>
      <use xlink:href="#DejaVuSans-54"/>
      <use xlink:href="#DejaVuSans-69" transform="translate(57.958984 0)"/>
      <use xlink:href="#DejaVuSans-6d" transform="translate(85.742188 0)"/>
      <use xlink:href="#DejaVuSans-65" transform="translate(183.154297 0)"/>
     </g>
    </g>
    <g id="text_27">
     <!-- 2025-Oct -->
     <g transform="translate(527.033617 358.119832) scale(0.1 -0.1)">
      <defs>
       <path id="DejaVuSans-2d" d="M 313 2009 
L 1997 2009 
L 1997 1497 
L 313 1497 
L 313 2009 
z
" transform="scale(0.015625)"/>
      </defs>
      <use xlink:href="#DejaVuSans-32"/>
      <use xlink:href="#DejaVuSans-30" transform="translate(63.623047 0)"/>
      <use xlink:href="#DejaVuSans-32" transform="translate(127.246094 0)"/>
      <use xlink:href="#DejaVuSans-35" transform="translate(190.869141 0)"/>
      <use xlink:href="#DejaVuSans-2d" transform="translate(254.492188 0)"/>
      <use xlink:href="#DejaVuSans-4f" transform="translate(293.326172 0)"/>
      <use xlink:href="#DejaVuSans-63" transform="translate(372.037109 0)"/>
      <use xlink:href="#DejaVuSans-74" transform="translate(427.017578 0)"/>
     </g>
    </g>
   </g>
   <g id="matplotlib.axis_6">
    <g id="ytick_8">
     <g id="line2d_58">
      <g>
       <use xlink:href="#m5e12a5e499" x="53.328125" y="305.951646" style="stroke: #000000; stroke-width: 0.8"/>
      </g>
     </g>
     <g id="text_28">
      <!-- 1.0 -->
      <g transform="translate(22.045313 309.750865) scale(0.1 -0.1)">
       <defs>
        <path id="DejaVuSans-2212" d="M 678 2272 
L 4684 2272 
L 4684 1741 
L 678 1741 
L 678 2272 
z
" transform="scale(0.015625)"/>
        <path id="DejaVuSans-2e" d="M 684 794 
L 1344 794 
L 1344 0 
L 684 0 
L 684 794 
z
" transform="scale(0.015625)"/>
       </defs>
       <use xlink:href="#DejaVuSans-2212"/>
       <use xlink:href="#DejaVuSans-31" transform="translate(83.789062 0)"/>
       <use xlink:href="#DejaVuSans-2e" transform="translate(147.412109 0)"/>
       <use xlink:href="#DejaVuSans-30" transform="translate(179.199219 0)"/>
      </g>
     </g>
    </g>
    <g id="ytick_9">
     <g id="line2d_59">
      <g>
       <use xlink:href="#m5e12a5e499" x="53.328125" y="269.931636" style="stroke: #000000; stroke-width: 0.8"/>
      </g>
     </g>
     <g id="text_29">
      <!-- 0.5 -->
      <g transform="translate(22.045313 273.730855) scale(0.1 -0.1)">
       <use xlink:href="#DejaVuSans-2212"/>
       <use xlink:href="#DejaVuSans-30" transform="translate(83.789062 0)"/>
       <use xlink:href="#DejaVuSans-2e" transform="translate(147.412109 0)"/>
       <use xlink:href="#DejaVuSans-35" transform="translate(179.199219 0)"/>
      </g>
     </g>
    </g>
    <g id="ytick_10">
     <g id="line2d_60">
      <g>
       <use xlink:href="#m5e12a5e499" x="53.328125" y="233.911626" style="stroke: #000000; stroke-width: 0.8"/>
      </g>
     </g>
     <g id="text_30">
      <!-- 0.0 -->
      <g transform="translate(30.425 237.710845) scale(0.1 -0.1)">
       <use xlink:href="#DejaVuSans-30"/>
       <use xlink:href="#DejaVuSans-2e" transform="translate(63.623047 0)"/>
       <use xlink:href="#DejaVuSans-30" transform="translate(95.410156 0)"/>
      </g>
     </g>
    </g>
    <g id="text_31">
     <!-- Drawdown, % -->
     <g transform="translate(14.798438 314.548458) rotate(-90) scale(0.1 -0.1)">
      <defs>
       <path id="DejaVuSans-44" d="M 1259 4147 
L 1259 519 
L 2022 519 
Q 2988 519 3436 956 
Q 3884 1394 3884 2338 
Q 3884 3275 3436 3711 
Q 2988 4147 2022 4147 
L 1259 4147 
z
M 628 4666 
L 1925 4666 
Q 3281 4666 3915 4102 
Q 4550 3538 4550 2338 
Q 4550 1131 3912 565 
Q 3275 0 1925 0 
L 628 0 
L 628 4666 
z
" transform="scale(0.015625)"/>
       <path id="DejaVuSans-61" d="M 2194 1759 
Q 1497 1759 1228 1600 
Q 959 1441 959 1056 
Q 959 750 1161 570 
Q 1363 391 1709 391 
Q 2188 391 2477 730 
Q 2766 1069 2766 1631 
L 2766 1759 
L 2194 1759 
z
M 3341 1997 
L 3341 0 
L 2766 0 
L 2766 531 
Q 2569 213 2275 61 
Q 1981 -91 1556 -91 
Q 1019 -91 701 211 
Q 384 513 384 1019 
Q 384 1609 779 1909 
Q 1175 2209 1959 2209 
L 2766 2209 
L 2766 2266 
Q 2766 2663 2505 2880 
Q 2244 3097 1772 3097 
Q 1472 3097 1187 3025 
Q 903 2953 641 2809 
L 641 3341 
Q 956 3463 1253 3523 
Q 1550 3584 1831 3584 
Q 2591 3584 2966 3190 
Q 3341 2797 3341 1997 
z
" transform="scale(0.015625)"/>
       <path id="DejaVuSans-77" d="M 269 3500 
L 844 3500 
L 1563 769 
L 2278 3500 
L 2956 3500 
L 3675 769 
L 4391 3500 
L 4966 3500 
L 4050 0 
L 3372 0 
L 2619 2869 
L 1863 0 
L 1184 0 
L 269 3500 
z
" transform="scale(0.015625)"/>
       <path id="DejaVuSans-64" d="M 2906 2969 
L 2906 4863 
L 3481 4863 
L 3481 0 
L 2906 0 
L 2906 525 
Q 2725 213 2448 61 
Q 2172 -91 1784 -91 
Q 1150 -91 751 415 
Q 353 922 353 1747 
Q 353 2572 751 3078 
Q 1150 3584 1784 3584 
Q 2172 3584 2448 3432 
Q 2725 3281 2906 2969 
z
M 947 1747 
Q 947 1113 1208 752 
Q 1469 391 1925 391 
Q 2381 391 2643 752 
Q 2906 1113 2906 1747 
Q 2906 2381 2643 2742 
Q 2381 3103 1925 3103 
Q 1469 3103 1208 2742 
Q 947 2381 947 1747 
z
" transform="scale(0.015625)"/>
       <path id="DejaVuSans-6f" d="M 1959 3097 
Q 1497 3097 1228 2736 
Q 959 2375 959 1747 
Q 959 1119 1226 758 
Q 1494 397 1959 397 
Q 2419 397 2687 759 
Q 2956 1122 2956 1747 
Q 2956 2369 2687 2733 
Q 2419 3097 1959 3097 
z
M 1959 3584 
Q 2709 3584 3137 3096 
Q 3566 2609 3566 1747 
Q 3566 888 3137 398 
Q 2709 -91 1959 -91 
Q 1206 -91 779 398 
Q 353 888 353 1747 
Q 353 2609 779 3096 
Q 1206 3584 1959 3584 
z
" transform="scale(0.015625)"/>
       <path id="DejaVuSans-6e" d="M 3513 2113 
L 3513 0 
L 2938 0 
L 2938 2094 
Q 2938 2591 2744 2837 
Q 2550 3084 2163 3084 
Q 1697 3084 1428 2787 
Q 1159 2491 1159 1978 
L 1159 0 
L 581 0 
L 581 3500 
L 1159 3500 
L 1159 2956 
Q 1366 3272 1645 3428 
Q 1925 3584 2291 3584 
Q 2894 3584 3203 3211 
Q 3513 2838 3513 2113 
z
" transform="scale(0.015625)"/>
       <path id="DejaVuSans-2c" d="M 750 794 
L 1409 794 
L 1409 256 
L 897 -744 
L 494 -744 
L 750 256 
L 750 794 
z
" transform="scale(0.015625)"/>
       <path id="DejaVuSans-20" transform="scale(0.015625)"/>
       <path id="DejaVuSans-25" d="M 4653 2053 
Q 4381 2053 4226 1822 
Q 4072 1591 4072 1178 
Q 4072 772 4226 539 
Q 4381 306 4653 306 
Q 4919 306 5073 539 
Q 5228 772 5228 1178 
Q 5228 1588 5073 1820 
Q 4919 2053 4653 2053 
z
M 4653 2450 
Q 5147 2450 5437 2106 
Q 5728 1763 5728 1178 
Q 5728 594 5436 251 
Q 5144 -91 4653 -91 
Q 4153 -91 3862 251 
Q 3572 594 3572 1178 
Q 3572 1766 3864 2108 
Q 4156 2450 4653 2450 
z
M 1428 4353 
Q 1159 4353 1004 4120 
Q 850 3888 850 3481 
Q 850 3069 1003 2837 
Q 1156 2606 1428 2606 
Q 1700 2606 1854 2837 
Q 2009 3069 2009 3481 
Q 2009 3884 1853 4118 
Q 1697 4353 1428 4353 
z
M 4250 4750 
L 4750 4750 
L 1831 -91 
L 1331 -91 
L 4250 4750 
z
M 1428 4750 
Q 1922 4750 2215 4408 
Q 2509 4066 2509 3481 
Q 2509 2891 2217 2550 
Q 1925 2209 1428 2209 
Q 931 2209 642 2551 
Q 353 2894 353 3481 
Q 353 4063 643 4406 
Q 934 4750 1428 4750 
z
" transform="scale(0.015625)"/>
      </defs>
      <use xlink:href="#DejaVuSans-44"/>
      <use xlink:href="#DejaVuSans-72" transform="translate(77.001953 0)"/>
      <use xlink:href="#DejaVuSans-61" transform="translate(118.115234 0)"/>
      <use xlink:href="#DejaVuSans-77" transform="translate(179.394531 0)"/>
      <use xlink:href="#DejaVuSans-64" transform="translate(261.181641 0)"/>
      <use xlink:href="#DejaVuSans-6f" transform="translate(324.658203 0)"/>
      <use xlink:href="#DejaVuSans-77" transform="translate(385.839844 0)"/>
      <use xlink:href="#DejaVuSans-6e" transform="translate(467.626953 0)"/>
      <use xlink:href="#DejaVuSans-2c" transform="translate(531.005859 0)"/>
      <use xlink:href="#DejaVuSans-20" transform="translate(562.792969 0)"/>
      <use xlink:href="#DejaVuSans-25" transform="translate(594.580078 0)"/>
     </g>
    </g>
   </g>
   <g id="line2d_61">
    <path d="M 58.429389 233.911626 
L 59.954843 243.062731 
L 59.963896 242.760572 
L 60.574983 257.091548 
L 61.987274 247.681449 
L 62.774897 257.307376 
L 63.164182 259.595152 
L 63.8658 241.810929 
L 64.567419 245.738998 
L 67.636434 245.738998 
L 68.41953 249.082362 
L 69.320318 245.370122 
L 70.112468 250.075171 
L 70.746188 248.478044 
L 72.212797 251.154311 
L 73.321806 233.911626 
L 73.434971 277.776456 
L 73.846889 252.070027 
L 75.322551 262.507872 
L 76.811792 239.43247 
L 76.857058 240.812681 
L 77.047174 233.911626 
L 78.409672 233.911626 
L 78.912121 240.461902 
L 79.966812 233.911626 
L 81.437947 251.525869 
L 81.596377 256.711571 
L 82.071667 239.868754 
L 83.999986 242.556722 
L 84.538648 260.085251 
L 85.357958 233.911626 
L 86.050523 238.615371 
L 87.517132 250.802346 
L 87.711774 246.69726 
L 88.254963 254.47982 
L 89.119538 253.795638 
L 92.184026 253.795638 
L 92.926384 256.307045 
L 93.714007 245.488432 
L 94.089712 252.287481 
L 94.940708 243.777979 
L 95.266621 243.564172 
L 96.276046 261.866016 
L 97.045563 260.497654 
L 97.674756 234.498773 
L 98.616283 250.063893 
L 99.376747 264.517218 
L 100.119104 251.389493 
L 101.083264 259.770712 
L 101.540447 248.99486 
L 102.549873 279.825769 
L 102.939158 277.516658 
L 103.034216 271.914926 
L 104.464612 276.020012 
L 107.5291 276.020012 
L 108.180927 278.783334 
L 108.95497 270.487638 
L 109.968922 279.63856 
L 110.580009 265.056951 
L 110.611695 267.879198 
L 111.019086 277.928108 
L 113.209947 275.860615 
L 113.427222 280.949212 
L 114.468333 282.360335 
L 115.06584 270.130599 
L 115.446072 270.729257 
L 115.867043 280.521599 
L 117.908527 271.199631 
L 118.121276 281.120257 
L 118.302338 276.03166 
L 120.257817 254.693763 
L 120.850798 261.321767 
L 121.344194 261.193483 
L 124.408682 261.193483 
L 124.472054 272.169732 
L 124.621431 258.699917 
L 125.956769 263.959559 
L 127.387166 255.776864 
L 127.663286 256.204478 
L 128.482596 264.869297 
L 129.917519 263.399856 
L 130.257011 266.264864 
L 130.741354 267.120091 
L 131.012949 261.817687 
L 132.158171 264.084037 
L 133.063485 269.771292 
L 134.638732 262.88672 
L 135.05065 276.997955 
L 135.906172 278.043871 
L 136.413147 260.126879 
L 136.689268 265.386521 
L 176.586462 265.386521 
L 178.116442 272.514585 
L 178.415196 270.41928 
L 178.976491 286.711342 
L 179.660003 285.000889 
L 180.470259 276.277581 
L 181.647168 279.698486 
L 182.516269 293.106417 
L 183.186202 277.755104 
L 184.177521 290.754544 
L 184.399322 287.077071 
L 185.779927 299.929267 
L 186.246163 292.018424 
L 187.088105 305.87309 
L 187.939101 292.531559 
L 188.726724 305.317193 
L 189.06169 305.531 
L 189.283492 296.294555 
L 190.397029 301.297629 
L 192.34798 326.227477 
L 192.50641 246.354442 
L 193.497729 253.965957 
L 194.837594 242.078311 
L 195.059396 241.778981 
L 195.548266 251.443039 
L 196.535058 246.653772 
L 198.065039 261.341138 
L 198.716865 270.748628 
L 199.282687 258.005755 
L 199.988832 249.923866 
L 200.980151 290.333311 
L 201.500706 292.685184 
L 202.59161 279.89955 
L 202.691194 281.738286 
L 203.433552 263.906817 
L 204.388658 281.86657 
L 205.280393 248.469982 
L 205.982011 255.782167 
L 207.249451 246.716768 
L 207.344509 249.923866 
L 208.774905 243.424146 
L 209.345253 264.377192 
L 209.354306 236.539574 
L 210.829968 249.282447 
L 211.549693 243.167578 
L 212.527432 239.447344 
L 213.115886 250.608047 
L 214.138891 251.591558 
L 214.347114 243.808998 
L 215.14379 251.463274 
L 216.420283 238.592117 
L 216.949892 246.4602 
L 217.511186 239.789434 
L 218.520612 246.502961 
L 219.330868 240.94399 
L 220.326713 256.979484 
L 220.602834 237.05271 
L 221.512675 252.061932 
L 222.404409 244.53594 
L 222.965704 246.075348 
L 223.106028 251.121183 
L 224.156192 248.940356 
L 225.686173 248.940356 
L 226.451163 236.430678 
L 226.564328 249.173551 
L 228.035463 249.430118 
L 228.732555 242.417262 
L 229.180685 241.0489 
L 229.483966 247.377575 
L 230.602029 241.091662 
L 231.701985 243.999431 
L 231.964526 243.486295 
L 232.73857 233.911626 
L 233.589565 238.910721 
L 233.788734 233.911626 
L 234.897744 233.911626 
L 235.739686 237.453686 
L 237.328513 233.911626 
L 237.391885 266.866345 
L 238.899233 263.388194 
L 239.157247 275.879439 
L 239.560112 272.298331 
L 239.94487 262.663446 
L 241.461272 276.049968 
L 242.022566 266.713508 
L 242.570281 270.337248 
L 243.543494 254.584483 
L 246.187011 263.812376 
L 246.865997 254.305387 
L 247.544982 256.181205 
L 248.463876 250.468486 
L 249.106649 249.487944 
L 249.704157 259.12283 
L 250.727162 262.789202 
L 251.763746 233.911626 
L 251.90407 233.911626 
L 253.275621 244.139874 
L 253.443104 246.44123 
L 254.352945 233.911626 
L 254.868974 241.834675 
L 254.927819 246.562946 
L 257.000988 248.37637 
L 257.919882 233.911626 
L 257.956095 236.254291 
L 259.449863 235.402131 
L 296.273515 235.402131 
L 296.82123 234.828508 
L 297.658646 241.429314 
L 297.925713 238.277962 
L 299.582438 249.605797 
L 301.0581 238.490891 
L 301.890989 248.24305 
L 302.751038 244.325152 
L 303.89626 253.949554 
L 304.806101 243.941879 
L 305.421714 253.651453 
L 305.734048 254.332827 
L 306.725367 244.836182 
L 307.033173 244.623253 
L 307.888695 253.694039 
L 308.803062 248.498565 
L 309.219507 254.034726 
L 311.428473 241.344143 
L 311.44658 257.99521 
L 311.790599 254.673513 
L 311.799652 243.473435 
L 314.56086 249.329322 
L 314.687604 242.089727 
L 314.8913 242.685929 
L 315.149314 233.911626 
L 316.520865 233.911626 
L 317.616295 240.375162 
L 317.87431 233.911626 
L 319.245861 244.528655 
L 320.119489 241.216142 
L 320.735103 250.261851 
L 322.265083 253.549317 
L 322.351088 243.187096 
L 322.391827 245.225566 
L 323.614002 272.787374 
L 324.609847 267.733668 
L 325.365784 279.87955 
L 325.465369 278.223293 
L 325.723383 284.635979 
L 328.375954 294.573519 
L 328.385007 260.429152 
L 328.620389 270.974623 
L 328.837664 248.508988 
L 330.711664 268.948375 
L 331.23222 255.316109 
L 331.635085 253.150235 
L 331.870466 258.543686 
L 333.296336 255.358577 
L 334.120172 262.663094 
L 334.803684 258.840963 
L 336.166182 249.497977 
L 336.229554 250.050063 
L 337.628264 269.28812 
L 338.130713 269.670333 
L 339.352888 258.161473 
L 340.647487 269.245652 
L 340.928134 268.820971 
L 341.647859 262.195944 
L 343.363429 299.355548 
L 343.802506 251.026829 
L 344.255163 259.095772 
L 345.042787 234.08205 
L 345.391333 233.911626 
L 345.948101 252.035684 
L 346.957526 249.743649 
L 348.464874 234.166297 
L 349.637256 246.390486 
L 350.741739 233.911626 
L 351.927701 250.515902 
L 352.805855 233.911626 
L 353.07745 234.123591 
L 353.819807 252.267799 
L 355.186832 241.839118 
L 355.449373 248.664393 
L 356.66702 245.974378 
L 357.110624 233.911626 
L 357.794136 233.911626 
L 358.794508 241.577955 
L 359.450861 233.911626 
L 360.333542 238.991378 
L 361.170958 235.604877 
L 361.677934 242.71653 
L 362.393132 233.911626 
L 362.565142 261.777966 
L 364.5342 246.04765 
L 364.819374 254.547095 
L 365.462147 254.081951 
L 366.847277 246.34365 
L 366.86991 246.385936 
L 367.010234 239.281922 
L 368.399891 240.085352 
L 369.929872 240.085352 
L 370.48664 234.823925 
L 371.115833 246.325662 
L 371.473433 242.01251 
L 372.840457 233.911626 
L 373.560182 233.911626 
L 374.338752 254.264895 
L 374.945312 254.729389 
L 375.271225 248.310931 
L 376.552245 252.575827 
L 377.077327 247.846437 
L 377.729153 249.493278 
L 378.313081 246.579636 
L 379.141443 247.086356 
L 414.430588 247.086356 
L 415.602969 244.959077 
L 415.698027 248.041626 
L 416.232163 249.01284 
L 417.16011 238.076124 
L 417.906994 240.271913 
L 418.060897 237.020457 
L 419.301178 240.145233 
L 420.333236 253.024376 
L 420.622936 247.703812 
L 422.026173 261.174129 
L 422.270608 255.346845 
L 423.289086 260.498502 
L 424.728536 255.895792 
L 424.977497 264.298905 
L 425.873758 253.86891 
L 426.502951 260.540729 
L 426.892237 257.753767 
L 428.223048 267.381454 
L 428.295473 267.254774 
L 428.834135 262.483157 
L 430.400329 239.258472 
L 430.540652 275.235621 
L 432.034421 270.782596 
L 432.396546 267.024419 
L 433.772624 274.245185 
L 434.320339 267.446686 
L 434.447083 268.966847 
L 434.777523 263.012883 
L 436.081175 264.406364 
L 437.366721 272.556117 
L 438.000441 265.419805 
L 438.919335 278.130041 
L 439.163769 278.256721 
L 440.096243 267.108873 
L 441.504006 262.843976 
L 441.825393 270.318102 
L 442.468166 273.442878 
L 443.577176 260.732641 
L 443.789925 260.690414 
L 445.093577 277.918908 
L 445.496442 280.07247 
L 447.406655 261.070454 
L 447.474553 287.692827 
L 449.375713 272.871255 
L 449.629201 278.867446 
L 449.778578 276.080484 
L 450.172389 266.495023 
L 451.408143 269.535345 
L 452.766114 260.161018 
L 453.368148 265.903849 
L 454.178404 254.544867 
L 454.572216 258.176363 
L 455.776284 246.31066 
L 456.532221 249.350983 
L 457.36511 240.863416 
L 457.514487 242.468031 
L 458.537492 233.911626 
L 459.180265 233.911626 
L 459.352274 239.985707 
L 460.470337 237.45484 
L 462.004845 237.45484 
L 463.534826 238.626234 
L 464.471826 233.911626 
L 464.824898 249.204635 
L 465.291135 247.730103 
L 466.60384 240.062533 
L 467.278299 235.091252 
L 467.803382 247.645844 
L 468.156454 238.377353 
L 469.396735 246.918882 
L 470.07572 248.393415 
L 470.949348 237.608262 
L 471.275261 238.6615 
L 471.678126 246.118422 
L 473.036097 244.643889 
L 473.398223 239.209183 
L 474.280904 240.683716 
L 475.389914 233.911626 
L 476.209223 241.981507 
L 476.317861 233.911626 
L 477.449504 233.911626 
L 477.95648 236.71983 
L 480.414407 236.71983 
L 481.627528 233.911626 
L 481.71806 244.130016 
L 481.989654 234.539806 
L 483.202775 247.354671 
L 483.487949 244.423166 
L 486.552437 244.423166 
L 487.131838 247.980104 
L 488.086945 241.153885 
L 488.806669 236.924141 
L 489.684824 246.221201 
L 491.269124 233.911626 
L 492.627095 249.029812 
L 493.337766 241.156629 
L 494.052965 253.929611 
L 494.528255 255.981664 
L 495.04881 248.946054 
L 496.356989 250.6212 
L 496.968076 256.526086 
L 497.352835 251.123743 
L 541.794705 251.123743 
L 541.939555 252.871154 
L 542.677386 245.333001 
L 543.43785 244.537307 
L 544.38843 257.812833 
L 545.176053 251.237888 
L 545.683029 257.352168 
L 546.787512 251.405402 
L 547.443865 255.551386 
L 549.431029 233.911626 
L 549.440083 279.766815 
L 549.494401 278.135107 
L 551.160179 264.495698 
L 552.183184 250.354226 
L 552.69016 260.311831 
L 552.988914 252.362482 
L 554.084344 258.512767 
L 555.591692 275.373754 
L 555.908552 271.189886 
L 557.076407 287.590647 
L 557.180518 281.482201 
L 557.954562 292.402095 
L 558.678813 289.640743 
L 559.502649 281.565878 
L 561.068842 283.113909 
L 561.643717 297.213543 
L 562.205012 299.682025 
L 562.549031 285.164004 
L 563.85721 297.949226 
L 564.717258 288.32633 
L 564.943587 291.547908 
L 565.862481 284.937398 
L 566.432829 309.580378 
L 566.437355 270.586732 
L 567.980916 291.464231 
L 568.55579 282.887302 
L 568.55579 282.887302 
" clip-path="url(#p212d35bcfb)" style="fill: none; stroke: #7a738c; stroke-width: 1.5; stroke-linecap: square"/>
   </g>
   <g id="patch_13">
    <path d="M 53.328125 330.84327 
L 53.328125 229.295833 
" style="fill: none; stroke: #000000; stroke-width: 0.8; stroke-linejoin: miter; stroke-linecap: square"/>
   </g>
   <g id="patch_14">
    <path d="M 573.657054 330.84327 
L 573.657054 229.295833 
" style="fill: none; stroke: #000000; stroke-width: 0.8; stroke-linejoin: miter; stroke-linecap: square"/>
   </g>
   <g id="patch_15">
    <path d="M 53.328125 330.84327 
L 573.657054 330.84327 
" style="fill: none; stroke: #000000; stroke-width: 0.8; stroke-linejoin: miter; stroke-linecap: square"/>
   </g>
   <g id="patch_16">
    <path d="M 53.328125 229.295833 
L 573.657054 229.295833 
" style="fill: none; stroke: #000000; stroke-width: 0.8; stroke-linejoin: miter; stroke-linecap: square"/>
   </g>
  </g>
 </g>
 <defs>
  <clipPath id="p187282dd5b">
   <rect x="53.328125" y="7.2" width="520.328929" height="101.547437"/>
  </clipPath>
  <clipPath id="pd09a8abdff">
   <rect x="53.328125" y="118.247917" width="520.328929" height="101.547437"/>
  </clipPath>
  <clipPath id="p212d35bcfb">
   <rect x="53.328125" y="229.295833" width="520.328929" height="101.547437"/>
  </clipPath>
 </defs>
</svg>
