<?xml version="1.0" encoding="utf-8" standalone="no"?>
<!DOCTYPE svg PUBLIC "-//W3C//DTD SVG 1.1//EN"
  "http://www.w3.org/Graphics/SVG/1.1/DTD/svg11.dtd">
<svg xmlns:xlink="http://www.w3.org/1999/xlink"   viewBox="0 0 584.399528 368.39952" xmlns="http://www.w3.org/2000/svg" version="1.1" preserveAspectRatio="xMidYMid meet" style="width:100%;height:auto;aspect-ratio:8 / 5;display:block;">
 <metadata>
  <rdf:RDF xmlns:dc="http://purl.org/dc/elements/1.1/" xmlns:cc="http://creativecommons.org/ns#" xmlns:rdf="http://www.w3.org/1999/02/22-rdf-syntax-ns#">
   <cc:Work>
    <dc:type rdf:resource="http://purl.org/dc/dcmitype/StillImage"/>
    <dc:date>2025-10-22T20:25:25.518423</dc:date>
    <dc:format>image/svg+xml</dc:format>
    <dc:creator>
     <cc:Agent>
      <dc:title>Matplotlib v3.10.6, https://matplotlib.org/</dc:title>
     </cc:Agent>
    </dc:creator>
   </cc:Work>
  </rdf:RDF>
 </metadata>
 <defs>
  <style type="text/css">*{stroke-linejoin: round; stroke-linecap: butt}</style>
 </defs>
 <g id="figure_1">
  <g id="patch_1">
   <path d="M 0 368.39952 
L 584.399528 368.39952 
L 584.399528 -0 
L 0 -0 
z
" style="fill: #ffffff"/>
  </g>
  <g id="axes_1">
   <g id="patch_2">
    <path d="M 53.328125 108.747437 
L 573.657054 108.747437 
L 573.657054 7.2 
L 53.328125 7.2 
z
" style="fill: #ffffff"/>
   </g>
   <g id="matplotlib.axis_1">
    <g id="xtick_1">
     <g id="line2d_1">
      <defs>
       <path id="mb85cc180d6" d="M 0 0 
L 0 3.5 
" style="stroke: #000000; stroke-width: 0.8"/>
      </defs>
      <g>
       <use xlink:href="#mb85cc180d6" x="58.429389" y="108.747437" style="stroke: #000000; stroke-width: 0.8"/>
      </g>
     </g>
    </g>
    <g id="xtick_2">
     <g id="line2d_2">
      <g>
       <use xlink:href="#mb85cc180d6" x="92.437711" y="108.747437" style="stroke: #000000; stroke-width: 0.8"/>
      </g>
     </g>
    </g>
    <g id="xtick_3">
     <g id="line2d_3">
      <g>
       <use xlink:href="#mb85cc180d6" x="126.446033" y="108.747437" style="stroke: #000000; stroke-width: 0.8"/>
      </g>
     </g>
    </g>
    <g id="xtick_4">
     <g id="line2d_4">
      <g>
       <use xlink:href="#mb85cc180d6" x="160.454354" y="108.747437" style="stroke: #000000; stroke-width: 0.8"/>
      </g>
     </g>
    </g>
    <g id="xtick_5">
     <g id="line2d_5">
      <g>
       <use xlink:href="#mb85cc180d6" x="194.462676" y="108.747437" style="stroke: #000000; stroke-width: 0.8"/>
      </g>
     </g>
    </g>
    <g id="xtick_6">
     <g id="line2d_6">
      <g>
       <use xlink:href="#mb85cc180d6" x="228.470998" y="108.747437" style="stroke: #000000; stroke-width: 0.8"/>
      </g>
     </g>
    </g>
    <g id="xtick_7">
     <g id="line2d_7">
      <g>
       <use xlink:href="#mb85cc180d6" x="262.47932" y="108.747437" style="stroke: #000000; stroke-width: 0.8"/>
      </g>
     </g>
    </g>
    <g id="xtick_8">
     <g id="line2d_8">
      <g>
       <use xlink:href="#mb85cc180d6" x="296.487642" y="108.747437" style="stroke: #000000; stroke-width: 0.8"/>
      </g>
     </g>
    </g>
    <g id="xtick_9">
     <g id="line2d_9">
      <g>
       <use xlink:href="#mb85cc180d6" x="330.495963" y="108.747437" style="stroke: #000000; stroke-width: 0.8"/>
      </g>
     </g>
    </g>
    <g id="xtick_10">
     <g id="line2d_10">
      <g>
       <use xlink:href="#mb85cc180d6" x="364.504285" y="108.747437" style="stroke: #000000; stroke-width: 0.8"/>
      </g>
     </g>
    </g>
    <g id="xtick_11">
     <g id="line2d_11">
      <g>
       <use xlink:href="#mb85cc180d6" x="398.512607" y="108.747437" style="stroke: #000000; stroke-width: 0.8"/>
      </g>
     </g>
    </g>
    <g id="xtick_12">
     <g id="line2d_12">
      <g>
       <use xlink:href="#mb85cc180d6" x="432.520929" y="108.747437" style="stroke: #000000; stroke-width: 0.8"/>
      </g>
     </g>
    </g>
    <g id="xtick_13">
     <g id="line2d_13">
      <g>
       <use xlink:href="#mb85cc180d6" x="466.52925" y="108.747437" style="stroke: #000000; stroke-width: 0.8"/>
      </g>
     </g>
    </g>
    <g id="xtick_14">
     <g id="line2d_14">
      <g>
       <use xlink:href="#mb85cc180d6" x="500.537572" y="108.747437" style="stroke: #000000; stroke-width: 0.8"/>
      </g>
     </g>
    </g>
    <g id="xtick_15">
     <g id="line2d_15">
      <g>
       <use xlink:href="#mb85cc180d6" x="534.545894" y="108.747437" style="stroke: #000000; stroke-width: 0.8"/>
      </g>
     </g>
    </g>
    <g id="xtick_16">
     <g id="line2d_16">
      <g>
       <use xlink:href="#mb85cc180d6" x="568.554216" y="108.747437" style="stroke: #000000; stroke-width: 0.8"/>
      </g>
     </g>
    </g>
   </g>
   <g id="matplotlib.axis_2">
    <g id="ytick_1">
     <g id="line2d_17">
      <defs>
       <path id="m5a970a0555" d="M 0 0 
L -3.5 0 
" style="stroke: #000000; stroke-width: 0.8"/>
      </defs>
      <g>
       <use xlink:href="#m5a970a0555" x="53.328125" y="94.250805" style="stroke: #000000; stroke-width: 0.8"/>
      </g>
     </g>
     <g id="text_1">
      <!-- 146 -->
      <g transform="translate(27.240625 98.050023) scale(0.1 -0.1)">
       <defs>
        <path id="DejaVuSans-31" d="M 794 531 
L 1825 531 
L 1825 4091 
L 703 3866 
L 703 4441 
L 1819 4666 
L 2450 4666 
L 2450 531 
L 3481 531 
L 3481 0 
L 794 0 
L 794 531 
z
" transform="scale(0.015625)"/>
        <path id="DejaVuSans-34" d="M 2419 4116 
L 825 1625 
L 2419 1625 
L 2419 4116 
z
M 2253 4666 
L 3047 4666 
L 3047 1625 
L 3713 1625 
L 3713 1100 
L 3047 1100 
L 3047 0 
L 2419 0 
L 2419 1100 
L 313 1100 
L 313 1709 
L 2253 4666 
z
" transform="scale(0.015625)"/>
        <path id="DejaVuSans-36" d="M 2113 2584 
Q 1688 2584 1439 2293 
Q 1191 2003 1191 1497 
Q 1191 994 1439 701 
Q 1688 409 2113 409 
Q 2538 409 2786 701 
Q 3034 994 3034 1497 
Q 3034 2003 2786 2293 
Q 2538 2584 2113 2584 
z
M 3366 4563 
L 3366 3988 
Q 3128 4100 2886 4159 
Q 2644 4219 2406 4219 
Q 1781 4219 1451 3797 
Q 1122 3375 1075 2522 
Q 1259 2794 1537 2939 
Q 1816 3084 2150 3084 
Q 2853 3084 3261 2657 
Q 3669 2231 3669 1497 
Q 3669 778 3244 343 
Q 2819 -91 2113 -91 
Q 1303 -91 875 529 
Q 447 1150 447 2328 
Q 447 3434 972 4092 
Q 1497 4750 2381 4750 
Q 2619 4750 2861 4703 
Q 3103 4656 3366 4563 
z
" transform="scale(0.015625)"/>
       </defs>
       <use xlink:href="#DejaVuSans-31"/>
       <use xlink:href="#DejaVuSans-34" transform="translate(63.623047 0)"/>
       <use xlink:href="#DejaVuSans-36" transform="translate(127.246094 0)"/>
      </g>
     </g>
    </g>
    <g id="ytick_2">
     <g id="line2d_18">
      <g>
       <use xlink:href="#m5a970a0555" x="53.328125" y="53.672408" style="stroke: #000000; stroke-width: 0.8"/>
      </g>
     </g>
     <g id="text_2">
      <!-- 148 -->
      <g transform="translate(27.240625 57.471627) scale(0.1 -0.1)">
       <defs>
        <path id="DejaVuSans-38" d="M 2034 2216 
Q 1584 2216 1326 1975 
Q 1069 1734 1069 1313 
Q 1069 891 1326 650 
Q 1584 409 2034 409 
Q 2484 409 2743 651 
Q 3003 894 3003 1313 
Q 3003 1734 2745 1975 
Q 2488 2216 2034 2216 
z
M 1403 2484 
Q 997 2584 770 2862 
Q 544 3141 544 3541 
Q 544 4100 942 4425 
Q 1341 4750 2034 4750 
Q 2731 4750 3128 4425 
Q 3525 4100 3525 3541 
Q 3525 3141 3298 2862 
Q 3072 2584 2669 2484 
Q 3125 2378 3379 2068 
Q 3634 1759 3634 1313 
Q 3634 634 3220 271 
Q 2806 -91 2034 -91 
Q 1263 -91 848 271 
Q 434 634 434 1313 
Q 434 1759 690 2068 
Q 947 2378 1403 2484 
z
M 1172 3481 
Q 1172 3119 1398 2916 
Q 1625 2713 2034 2713 
Q 2441 2713 2670 2916 
Q 2900 3119 2900 3481 
Q 2900 3844 2670 4047 
Q 2441 4250 2034 4250 
Q 1625 4250 1398 4047 
Q 1172 3844 1172 3481 
z
" transform="scale(0.015625)"/>
       </defs>
       <use xlink:href="#DejaVuSans-31"/>
       <use xlink:href="#DejaVuSans-34" transform="translate(63.623047 0)"/>
       <use xlink:href="#DejaVuSans-38" transform="translate(127.246094 0)"/>
      </g>
     </g>
    </g>
    <g id="ytick_3">
     <g id="line2d_19">
      <g>
       <use xlink:href="#m5a970a0555" x="53.328125" y="13.094012" style="stroke: #000000; stroke-width: 0.8"/>
      </g>
     </g>
     <g id="text_3">
      <!-- 150 -->
      <g transform="translate(27.240625 16.893231) scale(0.1 -0.1)">
       <defs>
        <path id="DejaVuSans-35" d="M 691 4666 
L 3169 4666 
L 3169 4134 
L 1269 4134 
L 1269 2991 
Q 1406 3038 1543 3061 
Q 1681 3084 1819 3084 
Q 2600 3084 3056 2656 
Q 3513 2228 3513 1497 
Q 3513 744 3044 326 
Q 2575 -91 1722 -91 
Q 1428 -91 1123 -41 
Q 819 9 494 109 
L 494 744 
Q 775 591 1075 516 
Q 1375 441 1709 441 
Q 2250 441 2565 725 
Q 2881 1009 2881 1497 
Q 2881 1984 2565 2268 
Q 2250 2553 1709 2553 
Q 1456 2553 1204 2497 
Q 953 2441 691 2322 
L 691 4666 
z
" transform="scale(0.015625)"/>
        <path id="DejaVuSans-30" d="M 2034 4250 
Q 1547 4250 1301 3770 
Q 1056 3291 1056 2328 
Q 1056 1369 1301 889 
Q 1547 409 2034 409 
Q 2525 409 2770 889 
Q 3016 1369 3016 2328 
Q 3016 3291 2770 3770 
Q 2525 4250 2034 4250 
z
M 2034 4750 
Q 2819 4750 3233 4129 
Q 3647 3509 3647 2328 
Q 3647 1150 3233 529 
Q 2819 -91 2034 -91 
Q 1250 -91 836 529 
Q 422 1150 422 2328 
Q 422 3509 836 4129 
Q 1250 4750 2034 4750 
z
" transform="scale(0.015625)"/>
       </defs>
       <use xlink:href="#DejaVuSans-31"/>
       <use xlink:href="#DejaVuSans-35" transform="translate(63.623047 0)"/>
       <use xlink:href="#DejaVuSans-30" transform="translate(127.246094 0)"/>
      </g>
     </g>
    </g>
    <g id="text_4">
     <!-- Price -->
     <g transform="translate(14.798438 70.171375) rotate(-90) scale(0.1 -0.1)">
      <defs>
       <path id="DejaVuSans-50" d="M 1259 4147 
L 1259 2394 
L 2053 2394 
Q 2494 2394 2734 2622 
Q 2975 2850 2975 3272 
Q 2975 3691 2734 3919 
Q 2494 4147 2053 4147 
L 1259 4147 
z
M 628 4666 
L 2053 4666 
Q 2838 4666 3239 4311 
Q 3641 3956 3641 3272 
Q 3641 2581 3239 2228 
Q 2838 1875 2053 1875 
L 1259 1875 
L 1259 0 
L 628 0 
L 628 4666 
z
" transform="scale(0.015625)"/>
       <path id="DejaVuSans-72" d="M 2631 2963 
Q 2534 3019 2420 3045 
Q 2306 3072 2169 3072 
Q 1681 3072 1420 2755 
Q 1159 2438 1159 1844 
L 1159 0 
L 581 0 
L 581 3500 
L 1159 3500 
L 1159 2956 
Q 1341 3275 1631 3429 
Q 1922 3584 2338 3584 
Q 2397 3584 2469 3576 
Q 2541 3569 2628 3553 
L 2631 2963 
z
" transform="scale(0.015625)"/>
       <path id="DejaVuSans-69" d="M 603 3500 
L 1178 3500 
L 1178 0 
L 603 0 
L 603 3500 
z
M 603 4863 
L 1178 4863 
L 1178 4134 
L 603 4134 
L 603 4863 
z
" transform="scale(0.015625)"/>
       <path id="DejaVuSans-63" d="M 3122 3366 
L 3122 2828 
Q 2878 2963 2633 3030 
Q 2388 3097 2138 3097 
Q 1578 3097 1268 2742 
Q 959 2388 959 1747 
Q 959 1106 1268 751 
Q 1578 397 2138 397 
Q 2388 397 2633 464 
Q 2878 531 3122 666 
L 3122 134 
Q 2881 22 2623 -34 
Q 2366 -91 2075 -91 
Q 1284 -91 818 406 
Q 353 903 353 1747 
Q 353 2603 823 3093 
Q 1294 3584 2113 3584 
Q 2378 3584 2631 3529 
Q 2884 3475 3122 3366 
z
" transform="scale(0.015625)"/>
       <path id="DejaVuSans-65" d="M 3597 1894 
L 3597 1613 
L 953 1613 
Q 991 1019 1311 708 
Q 1631 397 2203 397 
Q 2534 397 2845 478 
Q 3156 559 3463 722 
L 3463 178 
Q 3153 47 2828 -22 
Q 2503 -91 2169 -91 
Q 1331 -91 842 396 
Q 353 884 353 1716 
Q 353 2575 817 3079 
Q 1281 3584 2069 3584 
Q 2775 3584 3186 3129 
Q 3597 2675 3597 1894 
z
M 3022 2063 
Q 3016 2534 2758 2815 
Q 2500 3097 2075 3097 
Q 1594 3097 1305 2825 
Q 1016 2553 972 2059 
L 3022 2063 
z
" transform="scale(0.015625)"/>
      </defs>
      <use xlink:href="#DejaVuSans-50"/>
      <use xlink:href="#DejaVuSans-72" transform="translate(58.552734 0)"/>
      <use xlink:href="#DejaVuSans-69" transform="translate(99.666016 0)"/>
      <use xlink:href="#DejaVuSans-63" transform="translate(127.449219 0)"/>
      <use xlink:href="#DejaVuSans-65" transform="translate(182.429688 0)"/>
     </g>
    </g>
   </g>
   <g id="line2d_20">
    <path d="M 58.429389 71.384878 
L 59.520293 66.211133 
L 60.574983 77.106432 
L 61.987274 72.683387 
L 62.774897 77.207878 
L 63.164182 78.283206 
L 64.214346 69.782032 
L 64.820907 75.118091 
L 66.074767 71.10083 
L 66.301095 72.744255 
L 67.464424 69.193645 
L 67.808443 70.553021 
L 68.885767 67.915425 
L 69.320318 67.671955 
L 70.112468 69.883478 
L 70.746188 69.132777 
L 72.212797 70.390708 
L 73.380652 80.291836 
L 73.416864 59.617143 
L 73.846889 68.158896 
L 75.322551 73.068882 
L 76.811792 62.214161 
L 76.857058 62.863415 
L 78.16071 58.663551 
L 78.912121 59.738879 
L 79.858174 53.8753 
L 80.089029 54.869471 
L 81.193513 37.907701 
L 81.596377 48.701555 
L 82.786865 39.307656 
L 83.316474 43.26405 
L 84.538648 34.559984 
L 85.661238 54.585422 
L 86.050523 52.35361 
L 87.517132 46.571189 
L 87.711774 48.518952 
L 88.879629 42.980001 
L 90.391504 51.055102 
L 90.518248 43.730701 
L 91.075016 47.56536 
L 91.681577 42.452482 
L 92.387722 43.365496 
L 93.714007 35.858492 
L 94.089712 39.084475 
L 94.940708 35.046924 
L 95.266621 34.945478 
L 96.276046 43.629255 
L 97.045563 42.980001 
L 97.674756 30.644168 
L 98.616283 38.029437 
L 99.376747 44.887186 
L 100.119104 38.658402 
L 101.083264 42.635085 
L 101.540447 37.522207 
L 102.549873 52.150718 
L 103.034216 48.397217 
L 104.38766 55.457858 
L 104.722627 55.90422 
L 105.220549 52.414478 
L 106.61926 50.324691 
L 107.320878 53.8753 
L 107.574366 50.649318 
L 108.95497 54.666579 
L 109.968922 50.324691 
L 110.580009 57.243307 
L 110.611695 55.90422 
L 112.128096 48.782712 
L 112.476642 47.910276 
L 112.74371 50.973945 
L 114.468333 51.034813 
L 115.06584 45.232102 
L 115.446072 45.516151 
L 115.867043 50.162377 
L 117.908527 45.739332 
L 118.121276 50.446426 
L 118.302338 48.032011 
L 120.257817 37.907701 
L 121.285348 41.4786 
L 121.556943 40.078646 
L 124.376996 45.942224 
L 124.417735 39.794597 
L 124.621431 46.692924 
L 125.956769 44.197353 
L 127.269475 50.933367 
L 127.663286 48.600109 
L 128.007306 51.84638 
L 129.048417 51.176837 
L 129.917519 48.863868 
L 130.741354 50.629029 
L 131.012949 48.113168 
L 132.158171 49.188496 
L 133.063485 51.886959 
L 134.638732 48.620398 
L 135.05065 55.315833 
L 135.154761 52.35361 
L 136.413147 73.88045 
L 137.015181 69.802321 
L 137.676061 77.694819 
L 138.237355 74.509415 
L 139.699438 64.567708 
L 140.722443 63.75614 
L 141.1751 66.880676 
L 141.301844 65.358986 
L 141.315423 66.089398 
L 142.827298 65.744481 
L 175.051954 65.744481 
L 176.577408 44.684294 
L 176.844476 49.005893 
L 177.713578 42.330747 
L 178.415196 45.901645 
L 178.976491 53.63183 
L 179.660003 52.820262 
L 180.470259 48.681266 
L 181.647168 50.304401 
L 182.692805 61.686642 
L 183.186202 64.466262 
L 184.177521 58.298346 
L 184.399322 60.043217 
L 184.761448 56.086823 
L 186.246163 56.269426 
L 187.088105 62.843126 
L 187.939101 56.512896 
L 188.726724 62.579366 
L 189.06169 62.680812 
L 189.283492 58.298346 
L 190.397029 60.672182 
L 191.496985 67.04299 
L 192.343454 53.733276 
L 192.34798 72.500784 
L 193.497729 64.567708 
L 194.837594 70.208105 
L 195.059396 70.350129 
L 195.548266 65.76477 
L 196.883604 65.703903 
L 198.716865 77.370192 
L 199.282687 71.324011 
L 199.988832 67.489352 
L 200.980151 86.662644 
L 201.500706 87.77855 
L 202.59161 81.71208 
L 202.691194 82.584516 
L 203.433552 74.12392 
L 204.388658 82.645383 
L 205.280393 66.79952 
L 205.982011 70.268972 
L 207.249451 65.967662 
L 207.344509 67.489352 
L 208.774905 64.405394 
L 209.345253 74.347101 
L 209.354306 61.138833 
L 210.829968 67.185014 
L 211.549693 64.283659 
L 212.527432 62.518499 
L 213.115886 67.813979 
L 214.138891 68.280631 
L 214.347114 64.587997 
L 215.14379 68.219763 
L 216.420283 62.112715 
L 216.949892 65.845927 
L 217.511186 62.680812 
L 218.520612 65.866216 
L 219.330868 63.228621 
L 220.326713 70.83707 
L 220.602834 61.382304 
L 221.512675 68.503812 
L 222.404409 64.932913 
L 222.965704 65.663324 
L 223.653743 68.80815 
L 224.509265 68.889307 
L 226.351579 60.489579 
L 226.369685 70.350129 
L 228.035463 68.179185 
L 228.732555 64.851757 
L 229.180685 64.202502 
L 229.483966 67.205303 
L 230.602029 64.222791 
L 231.701985 65.602457 
L 231.964526 65.358986 
L 233.114275 58.095454 
L 233.589565 60.46929 
L 234.893218 55.965088 
L 235.006382 56.289715 
L 236.074653 53.8753 
L 237.328513 50.466715 
L 237.391885 66.150265 
L 237.993918 62.335896 
L 238.899233 73.758714 
L 239.560112 69.518272 
L 239.94487 74.103631 
L 241.461272 67.732823 
L 242.022566 72.176157 
L 243.421277 74.712307 
L 243.425803 63.330067 
L 244.122895 71.283432 
L 245.598557 68.625547 
L 245.675509 70.370418 
L 246.865997 64.953202 
L 247.544982 65.845927 
L 248.463876 63.127175 
L 249.106649 62.660523 
L 249.704157 67.245882 
L 250.727162 68.990753 
L 251.763746 55.092652 
L 252.311461 54.078192 
L 253.443104 60.043217 
L 254.452529 52.414478 
L 254.868974 56.188269 
L 255.656597 61.848955 
L 257.000988 56.249136 
L 257.88367 63.208331 
L 258.96552 64.486551 
L 259.418177 61.72722 
L 259.594713 62.315607 
L 260.110742 59.19107 
L 260.984371 60.306976 
L 293.2045 60.306976 
L 294.45836 72.439917 
L 294.47194 50.243534 
L 294.834066 70.126948 
L 295.019655 51.60291 
L 296.291621 59.353384 
L 297.658646 63.025729 
L 297.925713 61.524328 
L 299.582438 66.921255 
L 301.0581 61.625774 
L 301.890989 66.272 
L 302.751038 64.405394 
L 303.89626 68.990753 
L 304.806101 64.222791 
L 305.421714 68.848729 
L 305.734048 69.173356 
L 306.725367 64.648865 
L 307.033173 64.547419 
L 307.888695 68.869018 
L 308.803062 66.393736 
L 309.219507 69.031331 
L 311.428473 62.98515 
L 311.44658 70.918227 
L 311.790599 69.335669 
L 311.799652 63.99961 
L 313.325107 67.063279 
L 314.497488 63.005439 
L 314.8913 66.454603 
L 316.163266 73.61669 
L 316.362435 71.283432 
L 317.435233 75.686188 
L 317.86073 73.61669 
L 318.81131 80.149812 
L 320.119489 76.66007 
L 320.735103 72.338471 
L 321.93917 76.335443 
L 322.351088 68.828439 
L 322.391827 69.802321 
L 323.614002 82.97001 
L 324.609847 80.555596 
L 325.365784 86.358307 
L 325.465369 85.567028 
L 325.723383 88.630697 
L 328.375954 93.378369 
L 328.385007 77.065854 
L 328.620389 78.42523 
L 328.837664 89.158216 
L 330.711664 89.604578 
L 331.23222 83.091746 
L 331.635085 82.056997 
L 331.870466 84.633725 
L 333.296336 83.112035 
L 334.120172 86.601777 
L 334.803684 84.775749 
L 336.166182 80.312125 
L 336.229554 80.575885 
L 337.628264 89.766892 
L 338.130713 89.949495 
L 339.352888 84.451122 
L 340.647487 89.746603 
L 340.928134 89.543711 
L 341.647859 86.378596 
L 343.363429 104.131644 
L 343.802506 81.042537 
L 344.255163 84.897484 
L 345.042787 72.947147 
L 345.445652 70.999384 
L 345.948101 79.662871 
L 346.957526 78.567254 
L 348.464874 71.121119 
L 349.637256 76.964408 
L 350.062754 74.773174 
L 351.50673 68.341499 
L 351.927701 63.167753 
L 353.009551 73.170328 
L 353.07745 73.068882 
L 353.819807 64.385105 
L 355.186832 69.376248 
L 356.110252 64.973492 
L 356.354687 66.393736 
L 357.237368 48.31606 
L 358.418803 55.66075 
L 359.287904 53.652119 
L 360.093634 57.628802 
L 361.170958 56.817234 
L 361.677934 53.408649 
L 362.393132 61.341725 
L 362.565142 47.971144 
L 364.5342 55.518725 
L 364.819374 51.440597 
L 365.462147 51.663778 
L 366.847277 55.376701 
L 366.86991 55.356412 
L 367.51721 69.924056 
L 368.45421 65.399565 
L 369.359524 54.38253 
L 369.934399 58.663551 
L 370.48664 53.1246 
L 371.473433 56.573764 
L 372.976254 49.57399 
L 373.587341 47.849408 
L 374.338752 57.628802 
L 374.945312 57.851983 
L 375.271225 54.768025 
L 376.552245 56.817234 
L 377.077327 54.544844 
L 377.729153 55.336123 
L 378.860796 53.692698 
L 379.358719 53.36807 
L 379.385878 55.863642 
L 412.89608 55.863642 
L 413.534327 57.446199 
L 413.584119 52.779684 
L 414.61165 54.747736 
L 415.602969 49.776882 
L 416.232163 51.724645 
L 417.16011 46.469743 
L 417.906994 47.524781 
L 418.060897 45.962513 
L 419.301178 47.463914 
L 420.333236 53.652119 
L 420.622936 51.09568 
L 422.026173 57.567934 
L 422.270608 54.768025 
L 423.289086 57.243307 
L 424.728536 55.031785 
L 424.977497 59.069335 
L 425.873758 54.057903 
L 426.502951 57.263596 
L 426.892237 55.924509 
L 428.223048 60.550446 
L 428.295473 60.489579 
L 428.834135 58.1969 
L 430.400329 47.037841 
L 430.540652 64.324237 
L 432.034421 60.104084 
L 432.396546 58.298346 
L 433.772624 61.767798 
L 434.320339 58.501237 
L 434.447083 59.231649 
L 434.777523 56.370872 
L 436.081175 57.040415 
L 437.366721 60.95623 
L 438.000441 57.527356 
L 438.919335 63.634405 
L 439.163769 63.695272 
L 440.096243 58.338924 
L 441.504006 56.289715 
L 441.825393 59.880903 
L 442.468166 61.382304 
L 443.577176 55.275255 
L 443.789925 55.254966 
L 445.093577 63.532959 
L 445.496442 64.567708 
L 447.406655 55.437569 
L 447.411181 67.753112 
L 449.375713 60.449001 
L 449.629201 63.330067 
L 449.778578 61.99098 
L 450.172389 57.385332 
L 451.408143 58.846154 
L 452.766114 54.341952 
L 453.368148 57.101283 
L 454.178404 51.643489 
L 454.572216 53.38836 
L 455.776284 47.687095 
L 456.532221 49.147917 
L 457.36511 45.069788 
L 457.514487 45.840778 
L 458.926777 38.435221 
L 459.976941 41.4786 
L 460.311907 37.907701 
L 460.945627 39.632283 
L 461.303226 37.542496 
L 462.194961 39.084475 
L 463.272284 35.615022 
L 464.462773 32.287593 
L 464.670995 42.919133 
L 465.291135 36.264276 
L 466.60384 39.95691 
L 467.278299 42.351036 
L 467.803382 36.304855 
L 468.681536 37.907701 
L 469.396735 40.809057 
L 470.07572 41.519179 
L 470.949348 36.325144 
L 471.275261 36.832374 
L 471.678126 40.423562 
L 473.036097 39.71344 
L 473.398223 37.096133 
L 474.280904 37.806255 
L 475.647929 26.383437 
L 476.209223 30.278963 
L 477.209595 19.505399 
L 477.354446 20.215521 
L 478.875373 15.508427 
L 479.002117 14.737437 
L 480.29219 18.490939 
L 481.419306 11.815793 
L 481.663741 20.74304 
L 481.989654 20.438702 
L 483.202775 14.230207 
L 483.60564 14.67657 
L 484.252939 20.398123 
L 485.135621 16.604043 
L 486.072621 19.667712 
L 487.131838 20.864775 
L 488.086945 17.557636 
L 488.806669 15.508427 
L 489.684824 20.012629 
L 491.269124 14.047604 
L 492.627095 21.372005 
L 493.337766 17.557636 
L 494.052965 23.745841 
L 494.528255 24.740012 
L 495.04881 21.331427 
L 496.356989 22.142994 
L 496.968076 25.003771 
L 497.393574 22.041548 
L 497.647062 23.745841 
L 498.833023 22.873406 
L 531.053153 22.873406 
L 532.519762 28.818141 
L 532.524288 18.044576 
L 532.60124 27.539921 
L 532.700824 18.937301 
L 534.538612 24.861747 
L 535.652149 32.63251 
L 535.910163 30.725325 
L 536.820004 35.736757 
L 537.45825 33.748416 
L 538.472202 37.988858 
L 539.400149 36.487458 
L 540.1244 42.980001 
L 540.979922 44.116196 
L 541.486898 40.748189 
L 541.817338 41.701781 
L 542.677386 37.522207 
L 543.43785 37.136712 
L 544.38843 43.568388 
L 545.176053 40.382984 
L 545.683029 43.345206 
L 546.787512 40.46414 
L 547.443865 42.472771 
L 549.431029 28.655827 
L 549.440083 50.892788 
L 549.494401 50.101509 
L 551.160179 43.487231 
L 552.183184 36.629482 
L 552.69016 41.458311 
L 552.988914 37.603363 
L 554.084344 40.585876 
L 555.591692 48.762422 
L 555.908552 46.733503 
L 557.076407 54.686868 
L 557.180518 51.724645 
L 557.954562 57.020126 
L 558.678813 55.681039 
L 559.502649 51.765224 
L 561.068842 52.515924 
L 561.643717 59.353384 
L 562.205012 60.550446 
L 562.73462 53.327492 
L 563.85721 60.651892 
L 564.717258 55.985377 
L 564.943587 57.547645 
L 565.862481 54.341952 
L 566.432829 66.29229 
L 566.437355 47.382757 
L 567.980916 57.507067 
L 568.55579 53.023154 
L 568.55579 53.023154 
" clip-path="url(#pa34d456f08)" style="fill: none; stroke: #4169e1; stroke-width: 1.5; stroke-linecap: square"/>
   </g>
   <g id="patch_3">
    <path d="M 53.328125 108.747437 
L 53.328125 7.2 
" style="fill: none; stroke: #000000; stroke-width: 0.8; stroke-linejoin: miter; stroke-linecap: square"/>
   </g>
   <g id="patch_4">
    <path d="M 573.657054 108.747437 
L 573.657054 7.2 
" style="fill: none; stroke: #000000; stroke-width: 0.8; stroke-linejoin: miter; stroke-linecap: square"/>
   </g>
   <g id="patch_5">
    <path d="M 53.328125 108.747437 
L 573.657054 108.747437 
" style="fill: none; stroke: #000000; stroke-width: 0.8; stroke-linejoin: miter; stroke-linecap: square"/>
   </g>
   <g id="patch_6">
    <path d="M 53.328125 7.2 
L 573.657054 7.2 
" style="fill: none; stroke: #000000; stroke-width: 0.8; stroke-linejoin: miter; stroke-linecap: square"/>
   </g>
  </g>
  <g id="axes_2">
   <g id="patch_7">
    <path d="M 53.328125 219.795353 
L 573.657054 219.795353 
L 573.657054 118.247917 
L 53.328125 118.247917 
z
" style="fill: #ffffff"/>
   </g>
   <g id="matplotlib.axis_3">
    <g id="xtick_17">
     <g id="line2d_21">
      <g>
       <use xlink:href="#mb85cc180d6" x="58.429389" y="219.795353" style="stroke: #000000; stroke-width: 0.8"/>
      </g>
     </g>
    </g>
    <g id="xtick_18">
     <g id="line2d_22">
      <g>
       <use xlink:href="#mb85cc180d6" x="92.437711" y="219.795353" style="stroke: #000000; stroke-width: 0.8"/>
      </g>
     </g>
    </g>
    <g id="xtick_19">
     <g id="line2d_23">
      <g>
       <use xlink:href="#mb85cc180d6" x="126.446033" y="219.795353" style="stroke: #000000; stroke-width: 0.8"/>
      </g>
     </g>
    </g>
    <g id="xtick_20">
     <g id="line2d_24">
      <g>
       <use xlink:href="#mb85cc180d6" x="160.454354" y="219.795353" style="stroke: #000000; stroke-width: 0.8"/>
      </g>
     </g>
    </g>
    <g id="xtick_21">
     <g id="line2d_25">
      <g>
       <use xlink:href="#mb85cc180d6" x="194.462676" y="219.795353" style="stroke: #000000; stroke-width: 0.8"/>
      </g>
     </g>
    </g>
    <g id="xtick_22">
     <g id="line2d_26">
      <g>
       <use xlink:href="#mb85cc180d6" x="228.470998" y="219.795353" style="stroke: #000000; stroke-width: 0.8"/>
      </g>
     </g>
    </g>
    <g id="xtick_23">
     <g id="line2d_27">
      <g>
       <use xlink:href="#mb85cc180d6" x="262.47932" y="219.795353" style="stroke: #000000; stroke-width: 0.8"/>
      </g>
     </g>
    </g>
    <g id="xtick_24">
     <g id="line2d_28">
      <g>
       <use xlink:href="#mb85cc180d6" x="296.487642" y="219.795353" style="stroke: #000000; stroke-width: 0.8"/>
      </g>
     </g>
    </g>
    <g id="xtick_25">
     <g id="line2d_29">
      <g>
       <use xlink:href="#mb85cc180d6" x="330.495963" y="219.795353" style="stroke: #000000; stroke-width: 0.8"/>
      </g>
     </g>
    </g>
    <g id="xtick_26">
     <g id="line2d_30">
      <g>
       <use xlink:href="#mb85cc180d6" x="364.504285" y="219.795353" style="stroke: #000000; stroke-width: 0.8"/>
      </g>
     </g>
    </g>
    <g id="xtick_27">
     <g id="line2d_31">
      <g>
       <use xlink:href="#mb85cc180d6" x="398.512607" y="219.795353" style="stroke: #000000; stroke-width: 0.8"/>
      </g>
     </g>
    </g>
    <g id="xtick_28">
     <g id="line2d_32">
      <g>
       <use xlink:href="#mb85cc180d6" x="432.520929" y="219.795353" style="stroke: #000000; stroke-width: 0.8"/>
      </g>
     </g>
    </g>
    <g id="xtick_29">
     <g id="line2d_33">
      <g>
       <use xlink:href="#mb85cc180d6" x="466.52925" y="219.795353" style="stroke: #000000; stroke-width: 0.8"/>
      </g>
     </g>
    </g>
    <g id="xtick_30">
     <g id="line2d_34">
      <g>
       <use xlink:href="#mb85cc180d6" x="500.537572" y="219.795353" style="stroke: #000000; stroke-width: 0.8"/>
      </g>
     </g>
    </g>
    <g id="xtick_31">
     <g id="line2d_35">
      <g>
       <use xlink:href="#mb85cc180d6" x="534.545894" y="219.795353" style="stroke: #000000; stroke-width: 0.8"/>
      </g>
     </g>
    </g>
    <g id="xtick_32">
     <g id="line2d_36">
      <g>
       <use xlink:href="#mb85cc180d6" x="568.554216" y="219.795353" style="stroke: #000000; stroke-width: 0.8"/>
      </g>
     </g>
    </g>
   </g>
   <g id="matplotlib.axis_4">
    <g id="ytick_4">
     <g id="line2d_37">
      <g>
       <use xlink:href="#m5a970a0555" x="53.328125" y="203.066629" style="stroke: #000000; stroke-width: 0.8"/>
      </g>
     </g>
     <g id="text_5">
      <!-- 1000 -->
      <g transform="translate(20.878125 206.865847) scale(0.1 -0.1)">
       <use xlink:href="#DejaVuSans-31"/>
       <use xlink:href="#DejaVuSans-30" transform="translate(63.623047 0)"/>
       <use xlink:href="#DejaVuSans-30" transform="translate(127.246094 0)"/>
       <use xlink:href="#DejaVuSans-30" transform="translate(190.869141 0)"/>
      </g>
     </g>
    </g>
    <g id="ytick_5">
     <g id="line2d_38">
      <g>
       <use xlink:href="#m5a970a0555" x="53.328125" y="176.128845" style="stroke: #000000; stroke-width: 0.8"/>
      </g>
     </g>
     <g id="text_6">
      <!-- 1005 -->
      <g transform="translate(20.878125 179.928064) scale(0.1 -0.1)">
       <use xlink:href="#DejaVuSans-31"/>
       <use xlink:href="#DejaVuSans-30" transform="translate(63.623047 0)"/>
       <use xlink:href="#DejaVuSans-30" transform="translate(127.246094 0)"/>
       <use xlink:href="#DejaVuSans-35" transform="translate(190.869141 0)"/>
      </g>
     </g>
    </g>
    <g id="ytick_6">
     <g id="line2d_39">
      <g>
       <use xlink:href="#m5a970a0555" x="53.328125" y="149.191061" style="stroke: #000000; stroke-width: 0.8"/>
      </g>
     </g>
     <g id="text_7">
      <!-- 1010 -->
      <g transform="translate(20.878125 152.99028) scale(0.1 -0.1)">
       <use xlink:href="#DejaVuSans-31"/>
       <use xlink:href="#DejaVuSans-30" transform="translate(63.623047 0)"/>
       <use xlink:href="#DejaVuSans-31" transform="translate(127.246094 0)"/>
       <use xlink:href="#DejaVuSans-30" transform="translate(190.869141 0)"/>
      </g>
     </g>
    </g>
    <g id="ytick_7">
     <g id="line2d_40">
      <g>
       <use xlink:href="#m5a970a0555" x="53.328125" y="122.253278" style="stroke: #000000; stroke-width: 0.8"/>
      </g>
     </g>
     <g id="text_8">
      <!-- 1015 -->
      <g transform="translate(20.878125 126.052496) scale(0.1 -0.1)">
       <use xlink:href="#DejaVuSans-31"/>
       <use xlink:href="#DejaVuSans-30" transform="translate(63.623047 0)"/>
       <use xlink:href="#DejaVuSans-31" transform="translate(127.246094 0)"/>
       <use xlink:href="#DejaVuSans-35" transform="translate(190.869141 0)"/>
      </g>
     </g>
    </g>
    <g id="text_9">
     <!-- Equity -->
     <g transform="translate(14.798438 184.832572) rotate(-90) scale(0.1 -0.1)">
      <defs>
       <path id="DejaVuSans-45" d="M 628 4666 
L 3578 4666 
L 3578 4134 
L 1259 4134 
L 1259 2753 
L 3481 2753 
L 3481 2222 
L 1259 2222 
L 1259 531 
L 3634 531 
L 3634 0 
L 628 0 
L 628 4666 
z
" transform="scale(0.015625)"/>
       <path id="DejaVuSans-71" d="M 947 1747 
Q 947 1113 1208 752 
Q 1469 391 1925 391 
Q 2381 391 2643 752 
Q 2906 1113 2906 1747 
Q 2906 2381 2643 2742 
Q 2381 3103 1925 3103 
Q 1469 3103 1208 2742 
Q 947 2381 947 1747 
z
M 2906 525 
Q 2725 213 2448 61 
Q 2172 -91 1784 -91 
Q 1150 -91 751 415 
Q 353 922 353 1747 
Q 353 2572 751 3078 
Q 1150 3584 1784 3584 
Q 2172 3584 2448 3432 
Q 2725 3281 2906 2969 
L 2906 3500 
L 3481 3500 
L 3481 -1331 
L 2906 -1331 
L 2906 525 
z
" transform="scale(0.015625)"/>
       <path id="DejaVuSans-75" d="M 544 1381 
L 544 3500 
L 1119 3500 
L 1119 1403 
Q 1119 906 1312 657 
Q 1506 409 1894 409 
Q 2359 409 2629 706 
Q 2900 1003 2900 1516 
L 2900 3500 
L 3475 3500 
L 3475 0 
L 2900 0 
L 2900 538 
Q 2691 219 2414 64 
Q 2138 -91 1772 -91 
Q 1169 -91 856 284 
Q 544 659 544 1381 
z
M 1991 3584 
L 1991 3584 
z
" transform="scale(0.015625)"/>
       <path id="DejaVuSans-74" d="M 1172 4494 
L 1172 3500 
L 2356 3500 
L 2356 3053 
L 1172 3053 
L 1172 1153 
Q 1172 725 1289 603 
Q 1406 481 1766 481 
L 2356 481 
L 2356 0 
L 1766 0 
Q 1100 0 847 248 
Q 594 497 594 1153 
L 594 3053 
L 172 3053 
L 172 3500 
L 594 3500 
L 594 4494 
L 1172 4494 
z
" transform="scale(0.015625)"/>
       <path id="DejaVuSans-79" d="M 2059 -325 
Q 1816 -950 1584 -1140 
Q 1353 -1331 966 -1331 
L 506 -1331 
L 506 -850 
L 844 -850 
Q 1081 -850 1212 -737 
Q 1344 -625 1503 -206 
L 1606 56 
L 191 3500 
L 800 3500 
L 1894 763 
L 2988 3500 
L 3597 3500 
L 2059 -325 
z
" transform="scale(0.015625)"/>
      </defs>
      <use xlink:href="#DejaVuSans-45"/>
      <use xlink:href="#DejaVuSans-71" transform="translate(63.183594 0)"/>
      <use xlink:href="#DejaVuSans-75" transform="translate(126.660156 0)"/>
      <use xlink:href="#DejaVuSans-69" transform="translate(190.039062 0)"/>
      <use xlink:href="#DejaVuSans-74" transform="translate(217.822266 0)"/>
      <use xlink:href="#DejaVuSans-79" transform="translate(257.03125 0)"/>
     </g>
    </g>
   </g>
   <g id="line2d_41">
    <path d="M 58.429389 203.066629 
L 82.976981 203.066629 
L 83.999986 201.958497 
L 84.538648 215.179561 
L 85.661238 183.27445 
L 86.050523 186.830237 
L 87.517132 196.042959 
L 87.711774 192.939727 
L 88.254963 198.822939 
L 89.119538 198.305733 
L 107.5291 198.305733 
L 108.180927 200.394661 
L 108.95497 194.123545 
L 109.968922 201.041168 
L 110.580009 190.018227 
L 110.611695 192.151699 
L 111.019086 199.748154 
L 112.137149 198.196538 
L 124.408682 198.196538 
L 124.472054 206.494013 
L 124.621431 196.311531 
L 125.956769 200.287548 
L 126.843977 194.630613 
L 127.482224 194.662939 
L 128.482596 196.17034 
L 129.016731 195.911738 
L 135.150234 195.911738 
L 135.906172 200.937016 
L 136.413147 187.392698 
L 136.689268 191.368715 
L 181.185457 191.368715 
L 182.516269 194.360516 
L 182.692805 187.18429 
L 183.186202 182.755719 
L 184.177521 192.582622 
L 184.399322 189.802643 
L 184.761448 196.106084 
L 185.793506 195.459577 
L 191.927009 195.459577 
L 192.37514 196.544952 
L 192.50641 164.625062 
L 193.497729 170.378973 
L 194.837594 161.392528 
L 195.059396 161.166251 
L 195.548266 168.471778 
L 196.535058 164.85134 
L 237.962232 164.85134 
L 238.899233 163.701042 
L 239.157247 173.172367 
L 239.560112 170.457039 
L 239.94487 163.151512 
L 241.461272 173.301668 
L 242.022566 166.222419 
L 242.570281 168.970073 
L 243.543494 157.025743 
L 245.598557 162.844304 
L 245.675509 160.064325 
L 245.734354 162.359424 
L 247.173804 161.583616 
L 256.376322 161.583616 
L 257.000988 163.024408 
L 257.88367 151.936817 
L 257.956095 153.423782 
L 258.567182 150.611478 
L 259.449863 151.742865 
L 313.153097 151.742865 
L 314.56086 152.276485 
L 314.687604 146.781177 
L 314.8913 147.233732 
L 316.163266 135.822886 
L 316.362435 139.540301 
L 317.435233 132.525702 
L 317.86073 135.822886 
L 318.81131 125.414127 
L 320.119489 130.974085 
L 320.735103 137.859383 
L 320.916165 135.24103 
L 321.46388 138.50589 
L 322.364668 138.053335 
L 328.498171 138.053335 
L 328.620389 145.627647 
L 328.837664 128.527542 
L 330.037205 136.350274 
L 349.985802 136.350274 
L 351.50673 139.661708 
L 351.927701 147.90467 
L 353.009551 131.968277 
L 353.07745 132.129904 
L 353.819807 145.96515 
L 355.186832 138.013116 
L 355.449373 143.217496 
L 356.123832 139.952636 
L 357.653812 139.952636 
L 357.862035 143.20465 
L 358.418803 137.321438 
L 359.287904 140.521646 
L 360.093634 134.18588 
L 361.170958 135.478893 
L 361.677934 140.90955 
L 362.393132 128.270342 
L 362.565142 149.572742 
L 364.5342 137.547715 
L 364.819374 144.045108 
L 365.462147 143.68953 
L 366.847277 137.773992 
L 366.86991 137.806318 
L 367.010234 132.37566 
L 368.399891 132.989842 
L 462.004845 132.989842 
L 463.534826 133.887536 
L 464.462773 140.44958 
L 464.670995 123.511102 
L 465.291135 134.113813 
L 466.60384 128.230601 
L 467.278299 124.416211 
L 467.803382 134.049163 
L 468.156454 126.937588 
L 468.265092 129.911519 
L 469.677382 129.652916 
L 480.414407 129.652916 
L 481.591316 134.080602 
L 481.663741 122.863709 
L 481.989654 123.348589 
L 483.202775 133.240144 
L 483.487949 130.97737 
L 568.55579 130.97737 
L 568.55579 130.97737 
" clip-path="url(#paeeaf3da4d)" style="fill: none; stroke: #2e8b57; stroke-width: 1.5; stroke-linecap: square"/>
   </g>
   <g id="patch_8">
    <path d="M 53.328125 219.795353 
L 53.328125 118.247917 
" style="fill: none; stroke: #000000; stroke-width: 0.8; stroke-linejoin: miter; stroke-linecap: square"/>
   </g>
   <g id="patch_9">
    <path d="M 573.657054 219.795353 
L 573.657054 118.247917 
" style="fill: none; stroke: #000000; stroke-width: 0.8; stroke-linejoin: miter; stroke-linecap: square"/>
   </g>
   <g id="patch_10">
    <path d="M 53.328125 219.795353 
L 573.657054 219.795353 
" style="fill: none; stroke: #000000; stroke-width: 0.8; stroke-linejoin: miter; stroke-linecap: square"/>
   </g>
   <g id="patch_11">
    <path d="M 53.328125 118.247917 
L 573.657054 118.247917 
" style="fill: none; stroke: #000000; stroke-width: 0.8; stroke-linejoin: miter; stroke-linecap: square"/>
   </g>
  </g>
  <g id="axes_3">
   <g id="patch_12">
    <path d="M 53.328125 330.84327 
L 573.657054 330.84327 
L 573.657054 229.295833 
L 53.328125 229.295833 
z
" style="fill: #ffffff"/>
   </g>
   <g id="matplotlib.axis_5">
    <g id="xtick_33">
     <g id="line2d_42">
      <g>
       <use xlink:href="#mb85cc180d6" x="58.429389" y="330.84327" style="stroke: #000000; stroke-width: 0.8"/>
      </g>
     </g>
     <g id="text_10">
      <!-- Sep -->
      <g transform="translate(49.004389 345.441707) scale(0.1 -0.1)">
       <defs>
        <path id="DejaVuSans-53" d="M 3425 4513 
L 3425 3897 
Q 3066 4069 2747 4153 
Q 2428 4238 2131 4238 
Q 1616 4238 1336 4038 
Q 1056 3838 1056 3469 
Q 1056 3159 1242 3001 
Q 1428 2844 1947 2747 
L 2328 2669 
Q 3034 2534 3370 2195 
Q 3706 1856 3706 1288 
Q 3706 609 3251 259 
Q 2797 -91 1919 -91 
Q 1588 -91 1214 -16 
Q 841 59 441 206 
L 441 856 
Q 825 641 1194 531 
Q 1563 422 1919 422 
Q 2459 422 2753 634 
Q 3047 847 3047 1241 
Q 3047 1584 2836 1778 
Q 2625 1972 2144 2069 
L 1759 2144 
Q 1053 2284 737 2584 
Q 422 2884 422 3419 
Q 422 4038 858 4394 
Q 1294 4750 2059 4750 
Q 2388 4750 2728 4690 
Q 3069 4631 3425 4513 
z
" transform="scale(0.015625)"/>
        <path id="DejaVuSans-70" d="M 1159 525 
L 1159 -1331 
L 581 -1331 
L 581 3500 
L 1159 3500 
L 1159 2969 
Q 1341 3281 1617 3432 
Q 1894 3584 2278 3584 
Q 2916 3584 3314 3078 
Q 3713 2572 3713 1747 
Q 3713 922 3314 415 
Q 2916 -91 2278 -91 
Q 1894 -91 1617 61 
Q 1341 213 1159 525 
z
M 3116 1747 
Q 3116 2381 2855 2742 
Q 2594 3103 2138 3103 
Q 1681 3103 1420 2742 
Q 1159 2381 1159 1747 
Q 1159 1113 1420 752 
Q 1681 391 2138 391 
Q 2594 391 2855 752 
Q 3116 1113 3116 1747 
z
" transform="scale(0.015625)"/>
       </defs>
       <use xlink:href="#DejaVuSans-53"/>
       <use xlink:href="#DejaVuSans-65" transform="translate(63.476562 0)"/>
       <use xlink:href="#DejaVuSans-70" transform="translate(125 0)"/>
      </g>
     </g>
    </g>
    <g id="xtick_34">
     <g id="line2d_43">
      <g>
       <use xlink:href="#mb85cc180d6" x="92.437711" y="330.84327" style="stroke: #000000; stroke-width: 0.8"/>
      </g>
     </g>
     <g id="text_11">
      <!-- 03 -->
      <g transform="translate(86.075211 345.441707) scale(0.1 -0.1)">
       <defs>
        <path id="DejaVuSans-33" d="M 2597 2516 
Q 3050 2419 3304 2112 
Q 3559 1806 3559 1356 
Q 3559 666 3084 287 
Q 2609 -91 1734 -91 
Q 1441 -91 1130 -33 
Q 819 25 488 141 
L 488 750 
Q 750 597 1062 519 
Q 1375 441 1716 441 
Q 2309 441 2620 675 
Q 2931 909 2931 1356 
Q 2931 1769 2642 2001 
Q 2353 2234 1838 2234 
L 1294 2234 
L 1294 2753 
L 1863 2753 
Q 2328 2753 2575 2939 
Q 2822 3125 2822 3475 
Q 2822 3834 2567 4026 
Q 2313 4219 1838 4219 
Q 1578 4219 1281 4162 
Q 984 4106 628 3988 
L 628 4550 
Q 988 4650 1302 4700 
Q 1616 4750 1894 4750 
Q 2613 4750 3031 4423 
Q 3450 4097 3450 3541 
Q 3450 3153 3228 2886 
Q 3006 2619 2597 2516 
z
" transform="scale(0.015625)"/>
       </defs>
       <use xlink:href="#DejaVuSans-30"/>
       <use xlink:href="#DejaVuSans-33" transform="translate(63.623047 0)"/>
      </g>
     </g>
    </g>
    <g id="xtick_35">
     <g id="line2d_44">
      <g>
       <use xlink:href="#mb85cc180d6" x="126.446033" y="330.84327" style="stroke: #000000; stroke-width: 0.8"/>
      </g>
     </g>
     <g id="text_12">
      <!-- 05 -->
      <g transform="translate(120.083533 345.441707) scale(0.1 -0.1)">
       <use xlink:href="#DejaVuSans-30"/>
       <use xlink:href="#DejaVuSans-35" transform="translate(63.623047 0)"/>
      </g>
     </g>
    </g>
    <g id="xtick_36">
     <g id="line2d_45">
      <g>
       <use xlink:href="#mb85cc180d6" x="160.454354" y="330.84327" style="stroke: #000000; stroke-width: 0.8"/>
      </g>
     </g>
     <g id="text_13">
      <!-- 07 -->
      <g transform="translate(154.091854 345.441707) scale(0.1 -0.1)">
       <defs>
        <path id="DejaVuSans-37" d="M 525 4666 
L 3525 4666 
L 3525 4397 
L 1831 0 
L 1172 0 
L 2766 4134 
L 525 4134 
L 525 4666 
z
" transform="scale(0.015625)"/>
       </defs>
       <use xlink:href="#DejaVuSans-30"/>
       <use xlink:href="#DejaVuSans-37" transform="translate(63.623047 0)"/>
      </g>
     </g>
    </g>
    <g id="xtick_37">
     <g id="line2d_46">
      <g>
       <use xlink:href="#mb85cc180d6" x="194.462676" y="330.84327" style="stroke: #000000; stroke-width: 0.8"/>
      </g>
     </g>
     <g id="text_14">
      <!-- 09 -->
      <g transform="translate(188.100176 345.441707) scale(0.1 -0.1)">
       <defs>
        <path id="DejaVuSans-39" d="M 703 97 
L 703 672 
Q 941 559 1184 500 
Q 1428 441 1663 441 
Q 2288 441 2617 861 
Q 2947 1281 2994 2138 
Q 2813 1869 2534 1725 
Q 2256 1581 1919 1581 
Q 1219 1581 811 2004 
Q 403 2428 403 3163 
Q 403 3881 828 4315 
Q 1253 4750 1959 4750 
Q 2769 4750 3195 4129 
Q 3622 3509 3622 2328 
Q 3622 1225 3098 567 
Q 2575 -91 1691 -91 
Q 1453 -91 1209 -44 
Q 966 3 703 97 
z
M 1959 2075 
Q 2384 2075 2632 2365 
Q 2881 2656 2881 3163 
Q 2881 3666 2632 3958 
Q 2384 4250 1959 4250 
Q 1534 4250 1286 3958 
Q 1038 3666 1038 3163 
Q 1038 2656 1286 2365 
Q 1534 2075 1959 2075 
z
" transform="scale(0.015625)"/>
       </defs>
       <use xlink:href="#DejaVuSans-30"/>
       <use xlink:href="#DejaVuSans-39" transform="translate(63.623047 0)"/>
      </g>
     </g>
    </g>
    <g id="xtick_38">
     <g id="line2d_47">
      <g>
       <use xlink:href="#mb85cc180d6" x="228.470998" y="330.84327" style="stroke: #000000; stroke-width: 0.8"/>
      </g>
     </g>
     <g id="text_15">
      <!-- 11 -->
      <g transform="translate(222.108498 345.441707) scale(0.1 -0.1)">
       <use xlink:href="#DejaVuSans-31"/>
       <use xlink:href="#DejaVuSans-31" transform="translate(63.623047 0)"/>
      </g>
     </g>
    </g>
    <g id="xtick_39">
     <g id="line2d_48">
      <g>
       <use xlink:href="#mb85cc180d6" x="262.47932" y="330.84327" style="stroke: #000000; stroke-width: 0.8"/>
      </g>
     </g>
     <g id="text_16">
      <!-- 13 -->
      <g transform="translate(256.11682 345.441707) scale(0.1 -0.1)">
       <use xlink:href="#DejaVuSans-31"/>
       <use xlink:href="#DejaVuSans-33" transform="translate(63.623047 0)"/>
      </g>
     </g>
    </g>
    <g id="xtick_40">
     <g id="line2d_49">
      <g>
       <use xlink:href="#mb85cc180d6" x="296.487642" y="330.84327" style="stroke: #000000; stroke-width: 0.8"/>
      </g>
     </g>
     <g id="text_17">
      <!-- 15 -->
      <g transform="translate(290.125142 345.441707) scale(0.1 -0.1)">
       <use xlink:href="#DejaVuSans-31"/>
       <use xlink:href="#DejaVuSans-35" transform="translate(63.623047 0)"/>
      </g>
     </g>
    </g>
    <g id="xtick_41">
     <g id="line2d_50">
      <g>
       <use xlink:href="#mb85cc180d6" x="330.495963" y="330.84327" style="stroke: #000000; stroke-width: 0.8"/>
      </g>
     </g>
     <g id="text_18">
      <!-- 17 -->
      <g transform="translate(324.133463 345.441707) scale(0.1 -0.1)">
       <use xlink:href="#DejaVuSans-31"/>
       <use xlink:href="#DejaVuSans-37" transform="translate(63.623047 0)"/>
      </g>
     </g>
    </g>
    <g id="xtick_42">
     <g id="line2d_51">
      <g>
       <use xlink:href="#mb85cc180d6" x="364.504285" y="330.84327" style="stroke: #000000; stroke-width: 0.8"/>
      </g>
     </g>
     <g id="text_19">
      <!-- 19 -->
      <g transform="translate(358.141785 345.441707) scale(0.1 -0.1)">
       <use xlink:href="#DejaVuSans-31"/>
       <use xlink:href="#DejaVuSans-39" transform="translate(63.623047 0)"/>
      </g>
     </g>
    </g>
    <g id="xtick_43">
     <g id="line2d_52">
      <g>
       <use xlink:href="#mb85cc180d6" x="398.512607" y="330.84327" style="stroke: #000000; stroke-width: 0.8"/>
      </g>
     </g>
     <g id="text_20">
      <!-- 21 -->
      <g transform="translate(392.150107 345.441707) scale(0.1 -0.1)">
       <defs>
        <path id="DejaVuSans-32" d="M 1228 531 
L 3431 531 
L 3431 0 
L 469 0 
L 469 531 
Q 828 903 1448 1529 
Q 2069 2156 2228 2338 
Q 2531 2678 2651 2914 
Q 2772 3150 2772 3378 
Q 2772 3750 2511 3984 
Q 2250 4219 1831 4219 
Q 1534 4219 1204 4116 
Q 875 4013 500 3803 
L 500 4441 
Q 881 4594 1212 4672 
Q 1544 4750 1819 4750 
Q 2544 4750 2975 4387 
Q 3406 4025 3406 3419 
Q 3406 3131 3298 2873 
Q 3191 2616 2906 2266 
Q 2828 2175 2409 1742 
Q 1991 1309 1228 531 
z
" transform="scale(0.015625)"/>
       </defs>
       <use xlink:href="#DejaVuSans-32"/>
       <use xlink:href="#DejaVuSans-31" transform="translate(63.623047 0)"/>
      </g>
     </g>
    </g>
    <g id="xtick_44">
     <g id="line2d_53">
      <g>
       <use xlink:href="#mb85cc180d6" x="432.520929" y="330.84327" style="stroke: #000000; stroke-width: 0.8"/>
      </g>
     </g>
     <g id="text_21">
      <!-- 23 -->
      <g transform="translate(426.158429 345.441707) scale(0.1 -0.1)">
       <use xlink:href="#DejaVuSans-32"/>
       <use xlink:href="#DejaVuSans-33" transform="translate(63.623047 0)"/>
      </g>
     </g>
    </g>
    <g id="xtick_45">
     <g id="line2d_54">
      <g>
       <use xlink:href="#mb85cc180d6" x="466.52925" y="330.84327" style="stroke: #000000; stroke-width: 0.8"/>
      </g>
     </g>
     <g id="text_22">
      <!-- 25 -->
      <g transform="translate(460.16675 345.441707) scale(0.1 -0.1)">
       <use xlink:href="#DejaVuSans-32"/>
       <use xlink:href="#DejaVuSans-35" transform="translate(63.623047 0)"/>
      </g>
     </g>
    </g>
    <g id="xtick_46">
     <g id="line2d_55">
      <g>
       <use xlink:href="#mb85cc180d6" x="500.537572" y="330.84327" style="stroke: #000000; stroke-width: 0.8"/>
      </g>
     </g>
     <g id="text_23">
      <!-- 27 -->
      <g transform="translate(494.175072 345.441707) scale(0.1 -0.1)">
       <use xlink:href="#DejaVuSans-32"/>
       <use xlink:href="#DejaVuSans-37" transform="translate(63.623047 0)"/>
      </g>
     </g>
    </g>
    <g id="xtick_47">
     <g id="line2d_56">
      <g>
       <use xlink:href="#mb85cc180d6" x="534.545894" y="330.84327" style="stroke: #000000; stroke-width: 0.8"/>
      </g>
     </g>
     <g id="text_24">
      <!-- 29 -->
      <g transform="translate(528.183394 345.441707) scale(0.1 -0.1)">
       <use xlink:href="#DejaVuSans-32"/>
       <use xlink:href="#DejaVuSans-39" transform="translate(63.623047 0)"/>
      </g>
     </g>
    </g>
    <g id="xtick_48">
     <g id="line2d_57">
      <g>
       <use xlink:href="#mb85cc180d6" x="568.554216" y="330.84327" style="stroke: #000000; stroke-width: 0.8"/>
      </g>
     </g>
     <g id="text_25">
      <!-- Oct -->
      <g transform="translate(559.908903 345.441707) scale(0.1 -0.1)">
       <defs>
        <path id="DejaVuSans-4f" d="M 2522 4238 
Q 1834 4238 1429 3725 
Q 1025 3213 1025 2328 
Q 1025 1447 1429 934 
Q 1834 422 2522 422 
Q 3209 422 3611 934 
Q 4013 1447 4013 2328 
Q 4013 3213 3611 3725 
Q 3209 4238 2522 4238 
z
M 2522 4750 
Q 3503 4750 4090 4092 
Q 4678 3434 4678 2328 
Q 4678 1225 4090 567 
Q 3503 -91 2522 -91 
Q 1538 -91 948 565 
Q 359 1222 359 2328 
Q 359 3434 948 4092 
Q 1538 4750 2522 4750 
z
" transform="scale(0.015625)"/>
       </defs>
       <use xlink:href="#DejaVuSans-4f"/>
       <use xlink:href="#DejaVuSans-63" transform="translate(78.710938 0)"/>
       <use xlink:href="#DejaVuSans-74" transform="translate(133.691406 0)"/>
      </g>
     </g>
    </g>
    <g id="text_26">
     <!-- Time -->
     <g transform="translate(301.258996 359.119832) scale(0.1 -0.1)">
      <defs>
       <path id="DejaVuSans-54" d="M -19 4666 
L 3928 4666 
L 3928 4134 
L 2272 4134 
L 2272 0 
L 1638 0 
L 1638 4134 
L -19 4134 
L -19 4666 
z
" transform="scale(0.015625)"/>
       <path id="DejaVuSans-6d" d="M 3328 2828 
Q 3544 3216 3844 3400 
Q 4144 3584 4550 3584 
Q 5097 3584 5394 3201 
Q 5691 2819 5691 2113 
L 5691 0 
L 5113 0 
L 5113 2094 
Q 5113 2597 4934 2840 
Q 4756 3084 4391 3084 
Q 3944 3084 3684 2787 
Q 3425 2491 3425 1978 
L 3425 0 
L 2847 0 
L 2847 2094 
Q 2847 2600 2669 2842 
Q 2491 3084 2119 3084 
Q 1678 3084 1418 2786 
Q 1159 2488 1159 1978 
L 1159 0 
L 581 0 
L 581 3500 
L 1159 3500 
L 1159 2956 
Q 1356 3278 1631 3431 
Q 1906 3584 2284 3584 
Q 2666 3584 2933 3390 
Q 3200 3197 3328 2828 
z
" transform="scale(0.015625)"/>
      </defs>
      <use xlink:href="#DejaVuSans-54"/>
      <use xlink:href="#DejaVuSans-69" transform="translate(57.958984 0)"/>
      <use xlink:href="#DejaVuSans-6d" transform="translate(85.742188 0)"/>
      <use xlink:href="#DejaVuSans-65" transform="translate(183.154297 0)"/>
     </g>
    </g>
    <g id="text_27">
     <!-- 2025-Oct -->
     <g transform="translate(527.033617 358.119832) scale(0.1 -0.1)">
      <defs>
       <path id="DejaVuSans-2d" d="M 313 2009 
L 1997 2009 
L 1997 1497 
L 313 1497 
L 313 2009 
z
" transform="scale(0.015625)"/>
      </defs>
      <use xlink:href="#DejaVuSans-32"/>
      <use xlink:href="#DejaVuSans-30" transform="translate(63.623047 0)"/>
      <use xlink:href="#DejaVuSans-32" transform="translate(127.246094 0)"/>
      <use xlink:href="#DejaVuSans-35" transform="translate(190.869141 0)"/>
      <use xlink:href="#DejaVuSans-2d" transform="translate(254.492188 0)"/>
      <use xlink:href="#DejaVuSans-4f" transform="translate(293.326172 0)"/>
      <use xlink:href="#DejaVuSans-63" transform="translate(372.037109 0)"/>
      <use xlink:href="#DejaVuSans-74" transform="translate(427.017578 0)"/>
     </g>
    </g>
   </g>
   <g id="matplotlib.axis_6">
    <g id="ytick_8">
     <g id="line2d_58">
      <g>
       <use xlink:href="#m5a970a0555" x="53.328125" y="313.179107" style="stroke: #000000; stroke-width: 0.8"/>
      </g>
     </g>
     <g id="text_28">
      <!-- 0.4 -->
      <g transform="translate(22.045313 316.978326) scale(0.1 -0.1)">
       <defs>
        <path id="DejaVuSans-2212" d="M 678 2272 
L 4684 2272 
L 4684 1741 
L 678 1741 
L 678 2272 
z
" transform="scale(0.015625)"/>
        <path id="DejaVuSans-2e" d="M 684 794 
L 1344 794 
L 1344 0 
L 684 0 
L 684 794 
z
" transform="scale(0.015625)"/>
       </defs>
       <use xlink:href="#DejaVuSans-2212"/>
       <use xlink:href="#DejaVuSans-30" transform="translate(83.789062 0)"/>
       <use xlink:href="#DejaVuSans-2e" transform="translate(147.412109 0)"/>
       <use xlink:href="#DejaVuSans-34" transform="translate(179.199219 0)"/>
      </g>
     </g>
    </g>
    <g id="ytick_9">
     <g id="line2d_59">
      <g>
       <use xlink:href="#m5a970a0555" x="53.328125" y="273.545367" style="stroke: #000000; stroke-width: 0.8"/>
      </g>
     </g>
     <g id="text_29">
      <!-- 0.2 -->
      <g transform="translate(22.045313 277.344585) scale(0.1 -0.1)">
       <use xlink:href="#DejaVuSans-2212"/>
       <use xlink:href="#DejaVuSans-30" transform="translate(83.789062 0)"/>
       <use xlink:href="#DejaVuSans-2e" transform="translate(147.412109 0)"/>
       <use xlink:href="#DejaVuSans-32" transform="translate(179.199219 0)"/>
      </g>
     </g>
    </g>
    <g id="ytick_10">
     <g id="line2d_60">
      <g>
       <use xlink:href="#m5a970a0555" x="53.328125" y="233.911626" style="stroke: #000000; stroke-width: 0.8"/>
      </g>
     </g>
     <g id="text_30">
      <!-- 0.0 -->
      <g transform="translate(30.425 237.710845) scale(0.1 -0.1)">
       <use xlink:href="#DejaVuSans-30"/>
       <use xlink:href="#DejaVuSans-2e" transform="translate(63.623047 0)"/>
       <use xlink:href="#DejaVuSans-30" transform="translate(95.410156 0)"/>
      </g>
     </g>
    </g>
    <g id="text_31">
     <!-- Drawdown, % -->
     <g transform="translate(14.798438 314.548458) rotate(-90) scale(0.1 -0.1)">
      <defs>
       <path id="DejaVuSans-44" d="M 1259 4147 
L 1259 519 
L 2022 519 
Q 2988 519 3436 956 
Q 3884 1394 3884 2338 
Q 3884 3275 3436 3711 
Q 2988 4147 2022 4147 
L 1259 4147 
z
M 628 4666 
L 1925 4666 
Q 3281 4666 3915 4102 
Q 4550 3538 4550 2338 
Q 4550 1131 3912 565 
Q 3275 0 1925 0 
L 628 0 
L 628 4666 
z
" transform="scale(0.015625)"/>
       <path id="DejaVuSans-61" d="M 2194 1759 
Q 1497 1759 1228 1600 
Q 959 1441 959 1056 
Q 959 750 1161 570 
Q 1363 391 1709 391 
Q 2188 391 2477 730 
Q 2766 1069 2766 1631 
L 2766 1759 
L 2194 1759 
z
M 3341 1997 
L 3341 0 
L 2766 0 
L 2766 531 
Q 2569 213 2275 61 
Q 1981 -91 1556 -91 
Q 1019 -91 701 211 
Q 384 513 384 1019 
Q 384 1609 779 1909 
Q 1175 2209 1959 2209 
L 2766 2209 
L 2766 2266 
Q 2766 2663 2505 2880 
Q 2244 3097 1772 3097 
Q 1472 3097 1187 3025 
Q 903 2953 641 2809 
L 641 3341 
Q 956 3463 1253 3523 
Q 1550 3584 1831 3584 
Q 2591 3584 2966 3190 
Q 3341 2797 3341 1997 
z
" transform="scale(0.015625)"/>
       <path id="DejaVuSans-77" d="M 269 3500 
L 844 3500 
L 1563 769 
L 2278 3500 
L 2956 3500 
L 3675 769 
L 4391 3500 
L 4966 3500 
L 4050 0 
L 3372 0 
L 2619 2869 
L 1863 0 
L 1184 0 
L 269 3500 
z
" transform="scale(0.015625)"/>
       <path id="DejaVuSans-64" d="M 2906 2969 
L 2906 4863 
L 3481 4863 
L 3481 0 
L 2906 0 
L 2906 525 
Q 2725 213 2448 61 
Q 2172 -91 1784 -91 
Q 1150 -91 751 415 
Q 353 922 353 1747 
Q 353 2572 751 3078 
Q 1150 3584 1784 3584 
Q 2172 3584 2448 3432 
Q 2725 3281 2906 2969 
z
M 947 1747 
Q 947 1113 1208 752 
Q 1469 391 1925 391 
Q 2381 391 2643 752 
Q 2906 1113 2906 1747 
Q 2906 2381 2643 2742 
Q 2381 3103 1925 3103 
Q 1469 3103 1208 2742 
Q 947 2381 947 1747 
z
" transform="scale(0.015625)"/>
       <path id="DejaVuSans-6f" d="M 1959 3097 
Q 1497 3097 1228 2736 
Q 959 2375 959 1747 
Q 959 1119 1226 758 
Q 1494 397 1959 397 
Q 2419 397 2687 759 
Q 2956 1122 2956 1747 
Q 2956 2369 2687 2733 
Q 2419 3097 1959 3097 
z
M 1959 3584 
Q 2709 3584 3137 3096 
Q 3566 2609 3566 1747 
Q 3566 888 3137 398 
Q 2709 -91 1959 -91 
Q 1206 -91 779 398 
Q 353 888 353 1747 
Q 353 2609 779 3096 
Q 1206 3584 1959 3584 
z
" transform="scale(0.015625)"/>
       <path id="DejaVuSans-6e" d="M 3513 2113 
L 3513 0 
L 2938 0 
L 2938 2094 
Q 2938 2591 2744 2837 
Q 2550 3084 2163 3084 
Q 1697 3084 1428 2787 
Q 1159 2491 1159 1978 
L 1159 0 
L 581 0 
L 581 3500 
L 1159 3500 
L 1159 2956 
Q 1366 3272 1645 3428 
Q 1925 3584 2291 3584 
Q 2894 3584 3203 3211 
Q 3513 2838 3513 2113 
z
" transform="scale(0.015625)"/>
       <path id="DejaVuSans-2c" d="M 750 794 
L 1409 794 
L 1409 256 
L 897 -744 
L 494 -744 
L 750 256 
L 750 794 
z
" transform="scale(0.015625)"/>
       <path id="DejaVuSans-20" transform="scale(0.015625)"/>
       <path id="DejaVuSans-25" d="M 4653 2053 
Q 4381 2053 4226 1822 
Q 4072 1591 4072 1178 
Q 4072 772 4226 539 
Q 4381 306 4653 306 
Q 4919 306 5073 539 
Q 5228 772 5228 1178 
Q 5228 1588 5073 1820 
Q 4919 2053 4653 2053 
z
M 4653 2450 
Q 5147 2450 5437 2106 
Q 5728 1763 5728 1178 
Q 5728 594 5436 251 
Q 5144 -91 4653 -91 
Q 4153 -91 3862 251 
Q 3572 594 3572 1178 
Q 3572 1766 3864 2108 
Q 4156 2450 4653 2450 
z
M 1428 4353 
Q 1159 4353 1004 4120 
Q 850 3888 850 3481 
Q 850 3069 1003 2837 
Q 1156 2606 1428 2606 
Q 1700 2606 1854 2837 
Q 2009 3069 2009 3481 
Q 2009 3884 1853 4118 
Q 1697 4353 1428 4353 
z
M 4250 4750 
L 4750 4750 
L 1831 -91 
L 1331 -91 
L 4250 4750 
z
M 1428 4750 
Q 1922 4750 2215 4408 
Q 2509 4066 2509 3481 
Q 2509 2891 2217 2550 
Q 1925 2209 1428 2209 
Q 931 2209 642 2551 
Q 353 2894 353 3481 
Q 353 4063 643 4406 
Q 934 4750 1428 4750 
z
" transform="scale(0.015625)"/>
      </defs>
      <use xlink:href="#DejaVuSans-44"/>
      <use xlink:href="#DejaVuSans-72" transform="translate(77.001953 0)"/>
      <use xlink:href="#DejaVuSans-61" transform="translate(118.115234 0)"/>
      <use xlink:href="#DejaVuSans-77" transform="translate(179.394531 0)"/>
      <use xlink:href="#DejaVuSans-64" transform="translate(261.181641 0)"/>
      <use xlink:href="#DejaVuSans-6f" transform="translate(324.658203 0)"/>
      <use xlink:href="#DejaVuSans-77" transform="translate(385.839844 0)"/>
      <use xlink:href="#DejaVuSans-6e" transform="translate(467.626953 0)"/>
      <use xlink:href="#DejaVuSans-2c" transform="translate(531.005859 0)"/>
      <use xlink:href="#DejaVuSans-20" transform="translate(562.792969 0)"/>
      <use xlink:href="#DejaVuSans-25" transform="translate(594.580078 0)"/>
     </g>
    </g>
   </g>
   <g id="line2d_61">
    <path d="M 58.429389 233.911626 
L 82.981508 233.911626 
L 84.538648 282.532225 
L 84.846455 233.911626 
L 86.050523 246.942888 
L 87.517132 280.705702 
L 87.711774 269.332964 
L 88.254963 290.893779 
L 89.119538 288.998323 
L 107.5291 288.998323 
L 108.180927 296.653834 
L 108.95497 273.671427 
L 109.968922 299.023154 
L 110.580009 258.626243 
L 110.611695 266.445 
L 111.019086 294.284514 
L 112.137149 288.598145 
L 124.408682 288.598145 
L 124.472054 319.00676 
L 124.621431 281.689965 
L 125.956769 296.261285 
L 126.843977 275.529732 
L 127.482224 275.648198 
L 128.482596 281.172529 
L 129.016731 280.224801 
L 135.150234 280.224801 
L 135.906172 298.641457 
L 136.413147 249.004196 
L 136.689268 263.575516 
L 181.185457 263.575516 
L 182.516269 274.539878 
L 182.692805 248.240422 
L 183.172622 233.911626 
L 184.177521 269.92184 
L 184.399322 259.73474 
L 184.761448 282.833397 
L 185.793506 280.464304 
L 191.927009 280.464304 
L 192.379666 233.911626 
L 192.384193 326.227477 
L 194.040918 233.911626 
L 194.57958 257.868722 
L 195.050343 233.911626 
L 195.548266 260.575927 
L 196.535058 247.36176 
L 237.962232 247.36176 
L 238.899233 243.163313 
L 239.157247 277.732517 
L 239.560112 267.821892 
L 239.94487 241.157591 
L 241.461272 278.204452 
L 242.022566 252.366036 
L 243.511808 233.911626 
L 243.548021 264.563995 
L 244.122895 239.688419 
L 245.598557 255.132497 
L 245.675509 244.993636 
L 245.734354 253.364091 
L 247.173804 250.534642 
L 256.376322 250.534642 
L 257.000988 255.789354 
L 257.322375 233.911626 
L 257.919882 233.911626 
L 257.956095 240.389367 
L 259.449863 238.033041 
L 313.153097 238.033041 
L 314.56086 239.976912 
L 314.692131 233.911626 
L 315.402802 247.659887 
L 316.520865 233.911626 
L 317.616295 251.751035 
L 317.87431 233.911626 
L 319.245861 263.214579 
L 320.119489 254.072058 
L 320.735103 279.038174 
L 320.916165 269.544017 
L 321.46388 281.38241 
L 322.364668 279.741444 
L 328.498171 279.741444 
L 328.620389 307.20593 
L 328.837664 245.200882 
L 330.037205 273.56614 
L 349.985802 273.56614 
L 351.50673 285.573412 
L 351.927701 315.462424 
L 353.009551 257.677001 
L 353.07745 258.26306 
L 353.819807 308.429715 
L 355.186832 279.59561 
L 355.449373 298.466711 
L 356.123832 286.628318 
L 357.653812 286.628318 
L 357.862035 298.420131 
L 358.418803 277.087582 
L 359.287904 288.691551 
L 360.093634 265.718036 
L 361.170958 270.406508 
L 361.677934 290.098093 
L 362.393132 244.268274 
L 362.565142 321.510858 
L 364.5342 277.908064 
L 364.819374 301.467638 
L 365.462147 300.178309 
L 366.847277 278.728547 
L 366.86991 278.845759 
L 367.010234 259.154174 
L 368.399891 261.381199 
L 462.004845 261.381199 
L 463.534826 264.636241 
L 464.462773 288.430239 
L 464.643835 233.911626 
L 465.291135 272.343718 
L 466.60384 251.018594 
L 467.278299 237.192414 
L 467.803382 272.109376 
L 468.156454 246.331753 
L 468.265092 257.111486 
L 469.677382 256.174118 
L 480.414407 256.174118 
L 481.591316 272.223336 
L 481.663741 233.911626 
L 481.989654 235.668983 
L 483.202775 271.519068 
L 483.487949 263.318068 
L 568.55579 263.318068 
L 568.55579 263.318068 
" clip-path="url(#pe08c86eea4)" style="fill: none; stroke: #7a738c; stroke-width: 1.5; stroke-linecap: square"/>
   </g>
   <g id="patch_13">
    <path d="M 53.328125 330.84327 
L 53.328125 229.295833 
" style="fill: none; stroke: #000000; stroke-width: 0.8; stroke-linejoin: miter; stroke-linecap: square"/>
   </g>
   <g id="patch_14">
    <path d="M 573.657054 330.84327 
L 573.657054 229.295833 
" style="fill: none; stroke: #000000; stroke-width: 0.8; stroke-linejoin: miter; stroke-linecap: square"/>
   </g>
   <g id="patch_15">
    <path d="M 53.328125 330.84327 
L 573.657054 330.84327 
" style="fill: none; stroke: #000000; stroke-width: 0.8; stroke-linejoin: miter; stroke-linecap: square"/>
   </g>
   <g id="patch_16">
    <path d="M 53.328125 229.295833 
L 573.657054 229.295833 
" style="fill: none; stroke: #000000; stroke-width: 0.8; stroke-linejoin: miter; stroke-linecap: square"/>
   </g>
  </g>
 </g>
 <defs>
  <clipPath id="pa34d456f08">
   <rect x="53.328125" y="7.2" width="520.328929" height="101.547437"/>
  </clipPath>
  <clipPath id="paeeaf3da4d">
   <rect x="53.328125" y="118.247917" width="520.328929" height="101.547437"/>
  </clipPath>
  <clipPath id="pe08c86eea4">
   <rect x="53.328125" y="229.295833" width="520.328929" height="101.547437"/>
  </clipPath>
 </defs>
</svg>
