<?xml version="1.0" encoding="utf-8" standalone="no"?>
<!DOCTYPE svg PUBLIC "-//W3C//DTD SVG 1.1//EN"
  "http://www.w3.org/Graphics/SVG/1.1/DTD/svg11.dtd">
<svg xmlns:xlink="http://www.w3.org/1999/xlink"   viewBox="0 0 584.399528 368.39952" xmlns="http://www.w3.org/2000/svg" version="1.1" preserveAspectRatio="xMidYMid meet" style="width:100%;height:auto;aspect-ratio:8 / 5;display:block;">
 <metadata>
  <rdf:RDF xmlns:dc="http://purl.org/dc/elements/1.1/" xmlns:cc="http://creativecommons.org/ns#" xmlns:rdf="http://www.w3.org/1999/02/22-rdf-syntax-ns#">
   <cc:Work>
    <dc:type rdf:resource="http://purl.org/dc/dcmitype/StillImage"/>
    <dc:date>2025-10-22T20:25:13.828172</dc:date>
    <dc:format>image/svg+xml</dc:format>
    <dc:creator>
     <cc:Agent>
      <dc:title>Matplotlib v3.10.6, https://matplotlib.org/</dc:title>
     </cc:Agent>
    </dc:creator>
   </cc:Work>
  </rdf:RDF>
 </metadata>
 <defs>
  <style type="text/css">*{stroke-linejoin: round; stroke-linecap: butt}</style>
 </defs>
 <g id="figure_1">
  <g id="patch_1">
   <path d="M 0 368.39952 
L 584.399528 368.39952 
L 584.399528 -0 
L 0 -0 
z
" style="fill: #ffffff"/>
  </g>
  <g id="axes_1">
   <g id="patch_2">
    <path d="M 53.328125 108.677049 
L 573.657054 108.677049 
L 573.657054 7.2 
L 53.328125 7.2 
z
" style="fill: #ffffff"/>
   </g>
   <g id="matplotlib.axis_1">
    <g id="xtick_1">
     <g id="line2d_1">
      <defs>
       <path id="meb61ddcb0a" d="M 0 0 
L 0 3.5 
" style="stroke: #000000; stroke-width: 0.8"/>
      </defs>
      <g>
       <use xlink:href="#meb61ddcb0a" x="58.429389" y="108.677049" style="stroke: #000000; stroke-width: 0.8"/>
      </g>
     </g>
    </g>
    <g id="xtick_2">
     <g id="line2d_2">
      <g>
       <use xlink:href="#meb61ddcb0a" x="92.437711" y="108.677049" style="stroke: #000000; stroke-width: 0.8"/>
      </g>
     </g>
    </g>
    <g id="xtick_3">
     <g id="line2d_3">
      <g>
       <use xlink:href="#meb61ddcb0a" x="126.446033" y="108.677049" style="stroke: #000000; stroke-width: 0.8"/>
      </g>
     </g>
    </g>
    <g id="xtick_4">
     <g id="line2d_4">
      <g>
       <use xlink:href="#meb61ddcb0a" x="160.454354" y="108.677049" style="stroke: #000000; stroke-width: 0.8"/>
      </g>
     </g>
    </g>
    <g id="xtick_5">
     <g id="line2d_5">
      <g>
       <use xlink:href="#meb61ddcb0a" x="194.462676" y="108.677049" style="stroke: #000000; stroke-width: 0.8"/>
      </g>
     </g>
    </g>
    <g id="xtick_6">
     <g id="line2d_6">
      <g>
       <use xlink:href="#meb61ddcb0a" x="228.470998" y="108.677049" style="stroke: #000000; stroke-width: 0.8"/>
      </g>
     </g>
    </g>
    <g id="xtick_7">
     <g id="line2d_7">
      <g>
       <use xlink:href="#meb61ddcb0a" x="262.47932" y="108.677049" style="stroke: #000000; stroke-width: 0.8"/>
      </g>
     </g>
    </g>
    <g id="xtick_8">
     <g id="line2d_8">
      <g>
       <use xlink:href="#meb61ddcb0a" x="296.487642" y="108.677049" style="stroke: #000000; stroke-width: 0.8"/>
      </g>
     </g>
    </g>
    <g id="xtick_9">
     <g id="line2d_9">
      <g>
       <use xlink:href="#meb61ddcb0a" x="330.495963" y="108.677049" style="stroke: #000000; stroke-width: 0.8"/>
      </g>
     </g>
    </g>
    <g id="xtick_10">
     <g id="line2d_10">
      <g>
       <use xlink:href="#meb61ddcb0a" x="364.504285" y="108.677049" style="stroke: #000000; stroke-width: 0.8"/>
      </g>
     </g>
    </g>
    <g id="xtick_11">
     <g id="line2d_11">
      <g>
       <use xlink:href="#meb61ddcb0a" x="398.512607" y="108.677049" style="stroke: #000000; stroke-width: 0.8"/>
      </g>
     </g>
    </g>
    <g id="xtick_12">
     <g id="line2d_12">
      <g>
       <use xlink:href="#meb61ddcb0a" x="432.520929" y="108.677049" style="stroke: #000000; stroke-width: 0.8"/>
      </g>
     </g>
    </g>
    <g id="xtick_13">
     <g id="line2d_13">
      <g>
       <use xlink:href="#meb61ddcb0a" x="466.52925" y="108.677049" style="stroke: #000000; stroke-width: 0.8"/>
      </g>
     </g>
    </g>
    <g id="xtick_14">
     <g id="line2d_14">
      <g>
       <use xlink:href="#meb61ddcb0a" x="500.537572" y="108.677049" style="stroke: #000000; stroke-width: 0.8"/>
      </g>
     </g>
    </g>
    <g id="xtick_15">
     <g id="line2d_15">
      <g>
       <use xlink:href="#meb61ddcb0a" x="534.545894" y="108.677049" style="stroke: #000000; stroke-width: 0.8"/>
      </g>
     </g>
    </g>
    <g id="xtick_16">
     <g id="line2d_16">
      <g>
       <use xlink:href="#meb61ddcb0a" x="568.554216" y="108.677049" style="stroke: #000000; stroke-width: 0.8"/>
      </g>
     </g>
    </g>
   </g>
   <g id="matplotlib.axis_2">
    <g id="ytick_1">
     <g id="line2d_17">
      <defs>
       <path id="m5b2a5f48d4" d="M 0 0 
L -3.5 0 
" style="stroke: #000000; stroke-width: 0.8"/>
      </defs>
      <g>
       <use xlink:href="#m5b2a5f48d4" x="53.328125" y="94.190465" style="stroke: #000000; stroke-width: 0.8"/>
      </g>
     </g>
     <g id="text_1">
      <!-- 146 -->
      <g transform="translate(27.240625 97.989684) scale(0.1 -0.1)">
       <defs>
        <path id="DejaVuSans-31" d="M 794 531 
L 1825 531 
L 1825 4091 
L 703 3866 
L 703 4441 
L 1819 4666 
L 2450 4666 
L 2450 531 
L 3481 531 
L 3481 0 
L 794 0 
L 794 531 
z
" transform="scale(0.015625)"/>
        <path id="DejaVuSans-34" d="M 2419 4116 
L 825 1625 
L 2419 1625 
L 2419 4116 
z
M 2253 4666 
L 3047 4666 
L 3047 1625 
L 3713 1625 
L 3713 1100 
L 3047 1100 
L 3047 0 
L 2419 0 
L 2419 1100 
L 313 1100 
L 313 1709 
L 2253 4666 
z
" transform="scale(0.015625)"/>
        <path id="DejaVuSans-36" d="M 2113 2584 
Q 1688 2584 1439 2293 
Q 1191 2003 1191 1497 
Q 1191 994 1439 701 
Q 1688 409 2113 409 
Q 2538 409 2786 701 
Q 3034 994 3034 1497 
Q 3034 2003 2786 2293 
Q 2538 2584 2113 2584 
z
M 3366 4563 
L 3366 3988 
Q 3128 4100 2886 4159 
Q 2644 4219 2406 4219 
Q 1781 4219 1451 3797 
Q 1122 3375 1075 2522 
Q 1259 2794 1537 2939 
Q 1816 3084 2150 3084 
Q 2853 3084 3261 2657 
Q 3669 2231 3669 1497 
Q 3669 778 3244 343 
Q 2819 -91 2113 -91 
Q 1303 -91 875 529 
Q 447 1150 447 2328 
Q 447 3434 972 4092 
Q 1497 4750 2381 4750 
Q 2619 4750 2861 4703 
Q 3103 4656 3366 4563 
z
" transform="scale(0.015625)"/>
       </defs>
       <use xlink:href="#DejaVuSans-31"/>
       <use xlink:href="#DejaVuSans-34" transform="translate(63.623047 0)"/>
       <use xlink:href="#DejaVuSans-36" transform="translate(127.246094 0)"/>
      </g>
     </g>
    </g>
    <g id="ytick_2">
     <g id="line2d_18">
      <g>
       <use xlink:href="#m5b2a5f48d4" x="53.328125" y="53.640196" style="stroke: #000000; stroke-width: 0.8"/>
      </g>
     </g>
     <g id="text_2">
      <!-- 148 -->
      <g transform="translate(27.240625 57.439415) scale(0.1 -0.1)">
       <defs>
        <path id="DejaVuSans-38" d="M 2034 2216 
Q 1584 2216 1326 1975 
Q 1069 1734 1069 1313 
Q 1069 891 1326 650 
Q 1584 409 2034 409 
Q 2484 409 2743 651 
Q 3003 894 3003 1313 
Q 3003 1734 2745 1975 
Q 2488 2216 2034 2216 
z
M 1403 2484 
Q 997 2584 770 2862 
Q 544 3141 544 3541 
Q 544 4100 942 4425 
Q 1341 4750 2034 4750 
Q 2731 4750 3128 4425 
Q 3525 4100 3525 3541 
Q 3525 3141 3298 2862 
Q 3072 2584 2669 2484 
Q 3125 2378 3379 2068 
Q 3634 1759 3634 1313 
Q 3634 634 3220 271 
Q 2806 -91 2034 -91 
Q 1263 -91 848 271 
Q 434 634 434 1313 
Q 434 1759 690 2068 
Q 947 2378 1403 2484 
z
M 1172 3481 
Q 1172 3119 1398 2916 
Q 1625 2713 2034 2713 
Q 2441 2713 2670 2916 
Q 2900 3119 2900 3481 
Q 2900 3844 2670 4047 
Q 2441 4250 2034 4250 
Q 1625 4250 1398 4047 
Q 1172 3844 1172 3481 
z
" transform="scale(0.015625)"/>
       </defs>
       <use xlink:href="#DejaVuSans-31"/>
       <use xlink:href="#DejaVuSans-34" transform="translate(63.623047 0)"/>
       <use xlink:href="#DejaVuSans-38" transform="translate(127.246094 0)"/>
      </g>
     </g>
    </g>
    <g id="ytick_3">
     <g id="line2d_19">
      <g>
       <use xlink:href="#m5b2a5f48d4" x="53.328125" y="13.089927" style="stroke: #000000; stroke-width: 0.8"/>
      </g>
     </g>
     <g id="text_3">
      <!-- 150 -->
      <g transform="translate(27.240625 16.889145) scale(0.1 -0.1)">
       <defs>
        <path id="DejaVuSans-35" d="M 691 4666 
L 3169 4666 
L 3169 4134 
L 1269 4134 
L 1269 2991 
Q 1406 3038 1543 3061 
Q 1681 3084 1819 3084 
Q 2600 3084 3056 2656 
Q 3513 2228 3513 1497 
Q 3513 744 3044 326 
Q 2575 -91 1722 -91 
Q 1428 -91 1123 -41 
Q 819 9 494 109 
L 494 744 
Q 775 591 1075 516 
Q 1375 441 1709 441 
Q 2250 441 2565 725 
Q 2881 1009 2881 1497 
Q 2881 1984 2565 2268 
Q 2250 2553 1709 2553 
Q 1456 2553 1204 2497 
Q 953 2441 691 2322 
L 691 4666 
z
" transform="scale(0.015625)"/>
        <path id="DejaVuSans-30" d="M 2034 4250 
Q 1547 4250 1301 3770 
Q 1056 3291 1056 2328 
Q 1056 1369 1301 889 
Q 1547 409 2034 409 
Q 2525 409 2770 889 
Q 3016 1369 3016 2328 
Q 3016 3291 2770 3770 
Q 2525 4250 2034 4250 
z
M 2034 4750 
Q 2819 4750 3233 4129 
Q 3647 3509 3647 2328 
Q 3647 1150 3233 529 
Q 2819 -91 2034 -91 
Q 1250 -91 836 529 
Q 422 1150 422 2328 
Q 422 3509 836 4129 
Q 1250 4750 2034 4750 
z
" transform="scale(0.015625)"/>
       </defs>
       <use xlink:href="#DejaVuSans-31"/>
       <use xlink:href="#DejaVuSans-35" transform="translate(63.623047 0)"/>
       <use xlink:href="#DejaVuSans-30" transform="translate(127.246094 0)"/>
      </g>
     </g>
    </g>
    <g id="text_4">
     <!-- Price -->
     <g transform="translate(14.798438 70.136181) rotate(-90) scale(0.1 -0.1)">
      <defs>
       <path id="DejaVuSans-50" d="M 1259 4147 
L 1259 2394 
L 2053 2394 
Q 2494 2394 2734 2622 
Q 2975 2850 2975 3272 
Q 2975 3691 2734 3919 
Q 2494 4147 2053 4147 
L 1259 4147 
z
M 628 4666 
L 2053 4666 
Q 2838 4666 3239 4311 
Q 3641 3956 3641 3272 
Q 3641 2581 3239 2228 
Q 2838 1875 2053 1875 
L 1259 1875 
L 1259 0 
L 628 0 
L 628 4666 
z
" transform="scale(0.015625)"/>
       <path id="DejaVuSans-72" d="M 2631 2963 
Q 2534 3019 2420 3045 
Q 2306 3072 2169 3072 
Q 1681 3072 1420 2755 
Q 1159 2438 1159 1844 
L 1159 0 
L 581 0 
L 581 3500 
L 1159 3500 
L 1159 2956 
Q 1341 3275 1631 3429 
Q 1922 3584 2338 3584 
Q 2397 3584 2469 3576 
Q 2541 3569 2628 3553 
L 2631 2963 
z
" transform="scale(0.015625)"/>
       <path id="DejaVuSans-69" d="M 603 3500 
L 1178 3500 
L 1178 0 
L 603 0 
L 603 3500 
z
M 603 4863 
L 1178 4863 
L 1178 4134 
L 603 4134 
L 603 4863 
z
" transform="scale(0.015625)"/>
       <path id="DejaVuSans-63" d="M 3122 3366 
L 3122 2828 
Q 2878 2963 2633 3030 
Q 2388 3097 2138 3097 
Q 1578 3097 1268 2742 
Q 959 2388 959 1747 
Q 959 1106 1268 751 
Q 1578 397 2138 397 
Q 2388 397 2633 464 
Q 2878 531 3122 666 
L 3122 134 
Q 2881 22 2623 -34 
Q 2366 -91 2075 -91 
Q 1284 -91 818 406 
Q 353 903 353 1747 
Q 353 2603 823 3093 
Q 1294 3584 2113 3584 
Q 2378 3584 2631 3529 
Q 2884 3475 3122 3366 
z
" transform="scale(0.015625)"/>
       <path id="DejaVuSans-65" d="M 3597 1894 
L 3597 1613 
L 953 1613 
Q 991 1019 1311 708 
Q 1631 397 2203 397 
Q 2534 397 2845 478 
Q 3156 559 3463 722 
L 3463 178 
Q 3153 47 2828 -22 
Q 2503 -91 2169 -91 
Q 1331 -91 842 396 
Q 353 884 353 1716 
Q 353 2575 817 3079 
Q 1281 3584 2069 3584 
Q 2775 3584 3186 3129 
Q 3597 2675 3597 1894 
z
M 3022 2063 
Q 3016 2534 2758 2815 
Q 2500 3097 2075 3097 
Q 1594 3097 1305 2825 
Q 1016 2553 972 2059 
L 3022 2063 
z
" transform="scale(0.015625)"/>
      </defs>
      <use xlink:href="#DejaVuSans-50"/>
      <use xlink:href="#DejaVuSans-72" transform="translate(58.552734 0)"/>
      <use xlink:href="#DejaVuSans-69" transform="translate(99.666016 0)"/>
      <use xlink:href="#DejaVuSans-63" transform="translate(127.449219 0)"/>
      <use xlink:href="#DejaVuSans-65" transform="translate(182.429688 0)"/>
     </g>
    </g>
   </g>
   <g id="line2d_20">
    <path d="M 58.429389 71.340389 
L 59.520293 66.170229 
L 60.574983 77.057977 
L 61.987274 72.637997 
L 62.774897 77.159352 
L 63.164182 78.233934 
L 64.214346 69.738653 
L 64.820907 75.071013 
L 66.074767 71.056537 
L 66.301095 72.698823 
L 67.464424 69.150674 
L 67.808443 70.509108 
L 68.885767 67.873341 
L 69.320318 67.630039 
L 70.112468 69.840029 
L 70.746188 69.089849 
L 72.212797 70.346907 
L 73.380652 80.241173 
L 73.416864 59.58081 
L 73.846889 68.116642 
L 75.322551 73.023225 
L 76.811792 62.176028 
L 76.857058 62.824832 
L 78.16071 58.627879 
L 78.912121 59.702461 
L 79.858174 53.842947 
L 80.089029 54.836429 
L 81.193513 37.886416 
L 81.596377 48.672788 
L 82.786865 39.285401 
L 83.316474 43.239052 
L 84.538648 34.541019 
L 85.661238 54.552577 
L 86.050523 52.322312 
L 87.517132 46.543899 
L 87.711774 48.490312 
L 88.879629 42.9552 
L 90.391504 51.024704 
L 90.518248 43.70538 
L 91.075016 47.53738 
L 91.681577 42.428047 
L 92.387722 43.340428 
L 93.714007 35.838628 
L 94.089712 39.062374 
L 94.940708 35.027622 
L 95.266621 34.926247 
L 96.276046 43.604004 
L 97.045563 42.9552 
L 97.674756 30.627918 
L 98.616283 38.008067 
L 99.376747 44.861063 
L 100.119104 38.636596 
L 101.083264 42.610523 
L 101.540447 37.501189 
L 102.549873 52.119561 
L 103.034216 48.368661 
L 104.38766 55.424408 
L 104.722627 55.870461 
L 105.220549 52.383138 
L 106.61926 50.294799 
L 107.320878 53.842947 
L 107.574366 50.619201 
L 108.95497 54.633678 
L 109.968922 50.294799 
L 110.580009 57.20862 
L 110.611695 55.870461 
L 112.128096 48.753889 
L 112.476642 47.882058 
L 112.74371 50.943603 
L 114.468333 51.004429 
L 115.06584 45.20574 
L 115.446072 45.489592 
L 115.867043 50.132598 
L 117.908527 45.712618 
L 118.121276 50.41645 
L 118.302338 48.003709 
L 120.257817 37.886416 
L 121.285348 41.45484 
L 121.556943 40.055856 
L 124.376996 45.91537 
L 124.417735 39.772004 
L 124.621431 46.66555 
L 125.956769 44.171708 
L 127.269475 50.903053 
L 127.663286 48.571412 
L 128.007306 51.815434 
L 129.048417 51.146354 
L 129.917519 48.834989 
L 130.741354 50.598926 
L 131.012949 48.084809 
L 132.158171 49.159391 
L 133.063485 51.855984 
L 134.638732 48.591687 
L 135.05065 55.282482 
L 135.154761 52.322312 
L 136.413147 73.83423 
L 137.015181 69.758928 
L 137.676061 77.645956 
L 138.237355 74.462759 
L 139.699438 64.527943 
L 140.722443 63.716938 
L 141.1751 66.839309 
L 141.301844 65.318674 
L 141.315423 66.048578 
L 142.827298 65.703901 
L 175.051954 65.703901 
L 176.577408 44.658311 
L 176.844476 48.976915 
L 177.713578 42.306396 
L 178.415196 45.874819 
L 178.976491 53.599646 
L 179.660003 52.78864 
L 180.470259 48.652513 
L 181.647168 50.274524 
L 182.692805 61.648874 
L 183.186202 64.426568 
L 184.177521 58.262927 
L 184.399322 60.006588 
L 184.761448 56.052937 
L 186.246163 56.235413 
L 187.088105 62.804557 
L 187.939101 56.478715 
L 188.726724 62.54098 
L 189.06169 62.642356 
L 189.283492 58.262927 
L 190.397029 60.635117 
L 191.496985 67.00151 
L 192.343454 53.701021 
L 192.34798 72.455521 
L 193.497729 64.527943 
L 194.837594 70.164431 
L 195.059396 70.306357 
L 195.548266 65.724176 
L 196.883604 65.663351 
L 198.716865 77.321553 
L 199.282687 71.279563 
L 199.988832 67.447563 
L 200.980151 86.607565 
L 201.500706 87.722697 
L 202.59161 81.660432 
L 202.691194 82.532263 
L 203.433552 74.077532 
L 204.388658 82.593088 
L 205.280393 66.758208 
L 205.982011 70.225256 
L 207.249451 65.926928 
L 207.344509 67.447563 
L 208.774905 64.365742 
L 209.345253 74.300558 
L 209.354306 61.101446 
L 210.829968 67.143436 
L 211.549693 64.244091 
L 212.527432 62.480155 
L 213.115886 67.771965 
L 214.138891 68.238293 
L 214.347114 64.548218 
L 215.14379 68.177468 
L 216.420283 62.074652 
L 216.949892 65.805277 
L 217.511186 62.642356 
L 218.520612 65.825552 
L 219.330868 63.189784 
L 220.326713 70.79296 
L 220.602834 61.344747 
L 221.512675 68.461319 
L 222.404409 64.892896 
L 222.965704 65.622801 
L 223.653743 68.765447 
L 224.509265 68.846547 
L 226.351579 60.452641 
L 226.369685 70.306357 
L 228.035463 68.136917 
L 228.732555 64.811795 
L 229.180685 64.162991 
L 229.483966 67.163711 
L 230.602029 64.183266 
L 231.701985 65.561975 
L 231.964526 65.318674 
L 233.114275 58.060175 
L 233.589565 60.432366 
L 234.893218 55.931286 
L 235.006382 56.255688 
L 236.074653 53.842947 
L 237.328513 50.436725 
L 237.391885 66.109404 
L 237.993918 62.297679 
L 238.899233 73.712579 
L 239.560112 69.475076 
L 239.94487 74.057257 
L 241.461272 67.690864 
L 242.022566 72.131119 
L 243.421277 74.665511 
L 243.425803 63.29116 
L 244.122895 71.239013 
L 245.598557 68.58297 
L 245.675509 70.326632 
L 246.865997 64.913171 
L 247.544982 65.805277 
L 248.463876 63.088409 
L 249.106649 62.622081 
L 249.704157 67.204261 
L 250.727162 68.947923 
L 251.763746 55.059455 
L 252.311461 54.045699 
L 253.443104 60.006588 
L 254.452529 52.383138 
L 254.868974 56.154313 
L 255.656597 61.811075 
L 257.000988 56.215138 
L 257.88367 63.169509 
L 258.96552 64.446843 
L 259.418177 61.689425 
L 259.594713 62.277403 
L 260.110742 59.155033 
L 260.984371 60.270165 
L 293.2045 60.270165 
L 294.45836 72.394696 
L 294.47194 50.213698 
L 294.834066 70.08333 
L 295.019655 51.572132 
L 296.291621 59.317234 
L 297.658646 62.987033 
L 297.925713 61.486673 
L 299.582438 66.879859 
L 301.0581 61.588049 
L 301.890989 66.231055 
L 302.751038 64.365742 
L 303.89626 68.947923 
L 304.806101 64.183266 
L 305.421714 68.805997 
L 305.734048 69.130399 
L 306.725367 64.609044 
L 307.033173 64.507668 
L 307.888695 68.826272 
L 308.803062 66.352705 
L 309.219507 68.988473 
L 311.428473 62.946483 
L 311.44658 70.874061 
L 311.790599 69.2926 
L 311.799652 63.96024 
L 313.325107 67.021785 
L 314.497488 62.966758 
L 314.8913 66.413531 
L 316.163266 73.570653 
L 316.362435 71.239013 
L 317.435233 75.638717 
L 317.86073 73.570653 
L 318.81131 80.099247 
L 320.119489 76.611924 
L 320.735103 72.29332 
L 321.93917 76.287521 
L 322.351088 68.785722 
L 322.391827 69.758928 
L 323.614002 82.917491 
L 324.609847 80.50475 
L 325.365784 86.303438 
L 325.465369 85.512708 
L 325.723383 88.574253 
L 328.375954 93.318635 
L 328.385007 77.017426 
L 328.620389 78.37586 
L 328.837664 89.101407 
L 330.711664 89.54746 
L 331.23222 83.039141 
L 331.635085 82.005109 
L 331.870466 84.580052 
L 333.296336 83.059416 
L 334.120172 86.54674 
L 334.803684 84.721978 
L 336.166182 80.261448 
L 336.229554 80.525025 
L 337.628264 89.709661 
L 338.130713 89.892137 
L 339.352888 84.397575 
L 340.647487 89.689386 
L 340.928134 89.486634 
L 341.647859 86.323713 
L 343.363429 104.064456 
L 343.802506 80.991353 
L 344.255163 84.843628 
L 345.042787 72.901574 
L 345.445652 70.955161 
L 345.948101 79.612644 
L 346.957526 78.517786 
L 348.464874 71.076812 
L 349.637256 76.916051 
L 350.062754 74.726336 
L 351.50673 68.299118 
L 351.927701 63.128959 
L 353.009551 73.1246 
L 353.07745 73.023225 
L 353.819807 64.345467 
L 355.186832 69.33315 
L 356.110252 64.933446 
L 356.354687 66.352705 
L 357.237368 48.28756 
L 358.418803 55.627159 
L 359.287904 53.619921 
L 360.093634 57.593847 
L 361.170958 56.782842 
L 361.677934 53.376619 
L 362.393132 61.304197 
L 362.565142 47.942883 
L 364.5342 55.485233 
L 364.819374 51.409931 
L 365.462147 51.632958 
L 366.847277 55.343307 
L 366.86991 55.323032 
L 367.51721 69.880579 
L 368.45421 65.359224 
L 369.359524 54.349826 
L 369.934399 58.627879 
L 370.48664 53.092767 
L 371.473433 56.53954 
L 372.976254 49.544619 
L 373.587341 47.821232 
L 374.338752 57.593847 
L 374.945312 57.816874 
L 375.271225 54.735053 
L 376.552245 56.782842 
L 377.077327 54.512027 
L 377.729153 55.302757 
L 378.860796 53.660471 
L 379.358719 53.336069 
L 379.385878 55.829911 
L 412.89608 55.829911 
L 413.534327 57.411371 
L 413.584119 52.74809 
L 414.61165 54.714778 
L 415.602969 49.74737 
L 416.232163 51.693783 
L 417.16011 46.442523 
L 417.906994 47.49683 
L 418.060897 45.935645 
L 419.301178 47.436005 
L 420.333236 53.619921 
L 420.622936 51.065254 
L 422.026173 57.533022 
L 422.270608 54.735053 
L 423.289086 57.20862 
L 424.728536 54.99863 
L 424.977497 59.033382 
L 425.873758 54.025424 
L 426.502951 57.228895 
L 426.892237 55.890736 
L 428.223048 60.513467 
L 428.295473 60.452641 
L 428.834135 58.161551 
L 430.400329 47.010227 
L 430.540652 64.284642 
L 432.034421 60.067414 
L 432.396546 58.262927 
L 433.772624 61.729975 
L 434.320339 58.465678 
L 434.447083 59.195583 
L 434.777523 56.336789 
L 436.081175 57.005868 
L 437.366721 60.918969 
L 438.000441 57.492472 
L 438.919335 63.595287 
L 439.163769 63.656113 
L 440.096243 58.303477 
L 441.504006 56.255688 
L 441.825393 59.844387 
L 442.468166 61.344747 
L 443.577176 55.241932 
L 443.789925 55.221657 
L 445.093577 63.493911 
L 445.496442 64.527943 
L 447.406655 55.404133 
L 447.411181 67.71114 
L 449.375713 60.412091 
L 449.629201 63.29116 
L 449.778578 61.953001 
L 450.172389 57.350546 
L 451.408143 58.810355 
L 452.766114 54.309275 
L 453.368148 57.066694 
L 454.178404 51.612683 
L 454.572216 53.356344 
L 455.776284 47.659031 
L 456.532221 49.118841 
L 457.36511 45.043539 
L 457.514487 45.813994 
L 458.926777 38.41357 
L 459.976941 41.45484 
L 460.311907 37.886416 
L 460.945627 39.609803 
L 461.303226 37.521464 
L 462.194961 39.062374 
L 463.272284 35.595326 
L 464.462773 32.270204 
L 464.670995 42.894375 
L 465.291135 36.24413 
L 466.60384 39.934205 
L 467.278299 42.326671 
L 467.803382 36.284681 
L 468.681536 37.886416 
L 469.396735 40.785761 
L 470.07572 41.49539 
L 470.949348 36.304956 
L 471.275261 36.811834 
L 471.678126 40.400533 
L 473.036097 39.690903 
L 473.398223 37.075411 
L 474.280904 37.785041 
L 475.647929 26.37014 
L 476.209223 30.262966 
L 477.209595 19.496869 
L 477.354446 20.206499 
L 478.875373 15.502668 
L 479.002117 14.732213 
L 480.29219 18.483112 
L 481.419306 11.812593 
L 481.663741 20.733652 
L 481.989654 20.429525 
L 483.202775 14.225334 
L 483.60564 14.671387 
L 484.252939 20.388975 
L 485.135621 16.597525 
L 486.072621 19.65907 
L 487.131838 20.855303 
L 488.086945 17.550456 
L 488.806669 15.502668 
L 489.684824 20.003748 
L 491.269124 14.042858 
L 492.627095 21.362182 
L 493.337766 17.550456 
L 494.052965 23.734372 
L 494.528255 24.727854 
L 495.04881 21.321631 
L 496.356989 22.132637 
L 496.968076 24.991431 
L 497.393574 22.031261 
L 497.647062 23.734372 
L 498.833023 22.862542 
L 531.053153 22.862542 
L 532.519762 28.803156 
L 532.524288 18.037059 
L 532.60124 27.525823 
L 532.700824 18.929165 
L 534.538612 24.849505 
L 535.652149 32.614881 
L 535.910163 30.709019 
L 536.820004 35.716977 
L 537.45825 33.730014 
L 538.472202 37.967517 
L 539.400149 36.467157 
L 540.1244 42.9552 
L 540.979922 44.090608 
L 541.486898 40.724935 
L 541.817338 41.677867 
L 542.677386 37.501189 
L 543.43785 37.115961 
L 544.38843 43.543179 
L 545.176053 40.359983 
L 545.683029 43.320152 
L 546.787512 40.441083 
L 547.443865 42.448322 
L 549.431029 28.640955 
L 549.440083 50.862503 
L 549.494401 50.071772 
L 551.160179 43.462078 
L 552.183184 36.609083 
L 552.69016 41.434565 
L 552.988914 37.582289 
L 554.084344 40.562734 
L 555.591692 48.733613 
L 555.908552 46.7061 
L 557.076407 54.653953 
L 557.180518 51.693783 
L 557.954562 56.985593 
L 558.678813 55.647434 
L 559.502649 51.734333 
L 561.068842 52.484513 
L 561.643717 59.317234 
L 562.205012 60.513467 
L 562.73462 53.295519 
L 563.85721 60.614842 
L 564.717258 55.951561 
L 564.943587 57.512747 
L 565.862481 54.309275 
L 566.432829 66.25133 
L 566.437355 47.354904 
L 567.980916 57.472196 
L 568.55579 52.991392 
L 568.55579 52.991392 
" clip-path="url(#p159c7eb581)" style="fill: none; stroke: #4169e1; stroke-width: 1.5; stroke-linecap: square"/>
   </g>
   <g id="patch_3">
    <path d="M 53.328125 108.677049 
L 53.328125 7.2 
" style="fill: none; stroke: #000000; stroke-width: 0.8; stroke-linejoin: miter; stroke-linecap: square"/>
   </g>
   <g id="patch_4">
    <path d="M 573.657054 108.677049 
L 573.657054 7.2 
" style="fill: none; stroke: #000000; stroke-width: 0.8; stroke-linejoin: miter; stroke-linecap: square"/>
   </g>
   <g id="patch_5">
    <path d="M 53.328125 108.677049 
L 573.657054 108.677049 
" style="fill: none; stroke: #000000; stroke-width: 0.8; stroke-linejoin: miter; stroke-linecap: square"/>
   </g>
   <g id="patch_6">
    <path d="M 53.328125 7.2 
L 573.657054 7.2 
" style="fill: none; stroke: #000000; stroke-width: 0.8; stroke-linejoin: miter; stroke-linecap: square"/>
   </g>
  </g>
  <g id="axes_2">
   <g id="patch_7">
    <path d="M 53.328125 219.865741 
L 573.657054 219.865741 
L 573.657054 118.388692 
L 53.328125 118.388692 
z
" style="fill: #ffffff"/>
   </g>
   <g id="matplotlib.axis_3">
    <g id="xtick_17">
     <g id="line2d_21">
      <g>
       <use xlink:href="#meb61ddcb0a" x="58.429389" y="219.865741" style="stroke: #000000; stroke-width: 0.8"/>
      </g>
     </g>
    </g>
    <g id="xtick_18">
     <g id="line2d_22">
      <g>
       <use xlink:href="#meb61ddcb0a" x="92.437711" y="219.865741" style="stroke: #000000; stroke-width: 0.8"/>
      </g>
     </g>
    </g>
    <g id="xtick_19">
     <g id="line2d_23">
      <g>
       <use xlink:href="#meb61ddcb0a" x="126.446033" y="219.865741" style="stroke: #000000; stroke-width: 0.8"/>
      </g>
     </g>
    </g>
    <g id="xtick_20">
     <g id="line2d_24">
      <g>
       <use xlink:href="#meb61ddcb0a" x="160.454354" y="219.865741" style="stroke: #000000; stroke-width: 0.8"/>
      </g>
     </g>
    </g>
    <g id="xtick_21">
     <g id="line2d_25">
      <g>
       <use xlink:href="#meb61ddcb0a" x="194.462676" y="219.865741" style="stroke: #000000; stroke-width: 0.8"/>
      </g>
     </g>
    </g>
    <g id="xtick_22">
     <g id="line2d_26">
      <g>
       <use xlink:href="#meb61ddcb0a" x="228.470998" y="219.865741" style="stroke: #000000; stroke-width: 0.8"/>
      </g>
     </g>
    </g>
    <g id="xtick_23">
     <g id="line2d_27">
      <g>
       <use xlink:href="#meb61ddcb0a" x="262.47932" y="219.865741" style="stroke: #000000; stroke-width: 0.8"/>
      </g>
     </g>
    </g>
    <g id="xtick_24">
     <g id="line2d_28">
      <g>
       <use xlink:href="#meb61ddcb0a" x="296.487642" y="219.865741" style="stroke: #000000; stroke-width: 0.8"/>
      </g>
     </g>
    </g>
    <g id="xtick_25">
     <g id="line2d_29">
      <g>
       <use xlink:href="#meb61ddcb0a" x="330.495963" y="219.865741" style="stroke: #000000; stroke-width: 0.8"/>
      </g>
     </g>
    </g>
    <g id="xtick_26">
     <g id="line2d_30">
      <g>
       <use xlink:href="#meb61ddcb0a" x="364.504285" y="219.865741" style="stroke: #000000; stroke-width: 0.8"/>
      </g>
     </g>
    </g>
    <g id="xtick_27">
     <g id="line2d_31">
      <g>
       <use xlink:href="#meb61ddcb0a" x="398.512607" y="219.865741" style="stroke: #000000; stroke-width: 0.8"/>
      </g>
     </g>
    </g>
    <g id="xtick_28">
     <g id="line2d_32">
      <g>
       <use xlink:href="#meb61ddcb0a" x="432.520929" y="219.865741" style="stroke: #000000; stroke-width: 0.8"/>
      </g>
     </g>
    </g>
    <g id="xtick_29">
     <g id="line2d_33">
      <g>
       <use xlink:href="#meb61ddcb0a" x="466.52925" y="219.865741" style="stroke: #000000; stroke-width: 0.8"/>
      </g>
     </g>
    </g>
    <g id="xtick_30">
     <g id="line2d_34">
      <g>
       <use xlink:href="#meb61ddcb0a" x="500.537572" y="219.865741" style="stroke: #000000; stroke-width: 0.8"/>
      </g>
     </g>
    </g>
    <g id="xtick_31">
     <g id="line2d_35">
      <g>
       <use xlink:href="#meb61ddcb0a" x="534.545894" y="219.865741" style="stroke: #000000; stroke-width: 0.8"/>
      </g>
     </g>
    </g>
    <g id="xtick_32">
     <g id="line2d_36">
      <g>
       <use xlink:href="#meb61ddcb0a" x="568.554216" y="219.865741" style="stroke: #000000; stroke-width: 0.8"/>
      </g>
     </g>
    </g>
   </g>
   <g id="matplotlib.axis_4">
    <g id="ytick_4">
     <g id="line2d_37">
      <g>
       <use xlink:href="#m5b2a5f48d4" x="53.328125" y="198.059932" style="stroke: #000000; stroke-width: 0.8"/>
      </g>
     </g>
     <g id="text_5">
      <!-- 1000 -->
      <g transform="translate(20.878125 201.859151) scale(0.1 -0.1)">
       <use xlink:href="#DejaVuSans-31"/>
       <use xlink:href="#DejaVuSans-30" transform="translate(63.623047 0)"/>
       <use xlink:href="#DejaVuSans-30" transform="translate(127.246094 0)"/>
       <use xlink:href="#DejaVuSans-30" transform="translate(190.869141 0)"/>
      </g>
     </g>
    </g>
    <g id="ytick_5">
     <g id="line2d_38">
      <g>
       <use xlink:href="#m5b2a5f48d4" x="53.328125" y="160.018333" style="stroke: #000000; stroke-width: 0.8"/>
      </g>
     </g>
     <g id="text_6">
      <!-- 1010 -->
      <g transform="translate(20.878125 163.817551) scale(0.1 -0.1)">
       <use xlink:href="#DejaVuSans-31"/>
       <use xlink:href="#DejaVuSans-30" transform="translate(63.623047 0)"/>
       <use xlink:href="#DejaVuSans-31" transform="translate(127.246094 0)"/>
       <use xlink:href="#DejaVuSans-30" transform="translate(190.869141 0)"/>
      </g>
     </g>
    </g>
    <g id="ytick_6">
     <g id="line2d_39">
      <g>
       <use xlink:href="#m5b2a5f48d4" x="53.328125" y="121.976733" style="stroke: #000000; stroke-width: 0.8"/>
      </g>
     </g>
     <g id="text_7">
      <!-- 1020 -->
      <g transform="translate(20.878125 125.775952) scale(0.1 -0.1)">
       <defs>
        <path id="DejaVuSans-32" d="M 1228 531 
L 3431 531 
L 3431 0 
L 469 0 
L 469 531 
Q 828 903 1448 1529 
Q 2069 2156 2228 2338 
Q 2531 2678 2651 2914 
Q 2772 3150 2772 3378 
Q 2772 3750 2511 3984 
Q 2250 4219 1831 4219 
Q 1534 4219 1204 4116 
Q 875 4013 500 3803 
L 500 4441 
Q 881 4594 1212 4672 
Q 1544 4750 1819 4750 
Q 2544 4750 2975 4387 
Q 3406 4025 3406 3419 
Q 3406 3131 3298 2873 
Q 3191 2616 2906 2266 
Q 2828 2175 2409 1742 
Q 1991 1309 1228 531 
z
" transform="scale(0.015625)"/>
       </defs>
       <use xlink:href="#DejaVuSans-31"/>
       <use xlink:href="#DejaVuSans-30" transform="translate(63.623047 0)"/>
       <use xlink:href="#DejaVuSans-32" transform="translate(127.246094 0)"/>
       <use xlink:href="#DejaVuSans-30" transform="translate(190.869141 0)"/>
      </g>
     </g>
    </g>
    <g id="text_8">
     <!-- Equity -->
     <g transform="translate(14.798438 184.938154) rotate(-90) scale(0.1 -0.1)">
      <defs>
       <path id="DejaVuSans-45" d="M 628 4666 
L 3578 4666 
L 3578 4134 
L 1259 4134 
L 1259 2753 
L 3481 2753 
L 3481 2222 
L 1259 2222 
L 1259 531 
L 3634 531 
L 3634 0 
L 628 0 
L 628 4666 
z
" transform="scale(0.015625)"/>
       <path id="DejaVuSans-71" d="M 947 1747 
Q 947 1113 1208 752 
Q 1469 391 1925 391 
Q 2381 391 2643 752 
Q 2906 1113 2906 1747 
Q 2906 2381 2643 2742 
Q 2381 3103 1925 3103 
Q 1469 3103 1208 2742 
Q 947 2381 947 1747 
z
M 2906 525 
Q 2725 213 2448 61 
Q 2172 -91 1784 -91 
Q 1150 -91 751 415 
Q 353 922 353 1747 
Q 353 2572 751 3078 
Q 1150 3584 1784 3584 
Q 2172 3584 2448 3432 
Q 2725 3281 2906 2969 
L 2906 3500 
L 3481 3500 
L 3481 -1331 
L 2906 -1331 
L 2906 525 
z
" transform="scale(0.015625)"/>
       <path id="DejaVuSans-75" d="M 544 1381 
L 544 3500 
L 1119 3500 
L 1119 1403 
Q 1119 906 1312 657 
Q 1506 409 1894 409 
Q 2359 409 2629 706 
Q 2900 1003 2900 1516 
L 2900 3500 
L 3475 3500 
L 3475 0 
L 2900 0 
L 2900 538 
Q 2691 219 2414 64 
Q 2138 -91 1772 -91 
Q 1169 -91 856 284 
Q 544 659 544 1381 
z
M 1991 3584 
L 1991 3584 
z
" transform="scale(0.015625)"/>
       <path id="DejaVuSans-74" d="M 1172 4494 
L 1172 3500 
L 2356 3500 
L 2356 3053 
L 1172 3053 
L 1172 1153 
Q 1172 725 1289 603 
Q 1406 481 1766 481 
L 2356 481 
L 2356 0 
L 1766 0 
Q 1100 0 847 248 
Q 594 497 594 1153 
L 594 3053 
L 172 3053 
L 172 3500 
L 594 3500 
L 594 4494 
L 1172 4494 
z
" transform="scale(0.015625)"/>
       <path id="DejaVuSans-79" d="M 2059 -325 
Q 1816 -950 1584 -1140 
Q 1353 -1331 966 -1331 
L 506 -1331 
L 506 -850 
L 844 -850 
Q 1081 -850 1212 -737 
Q 1344 -625 1503 -206 
L 1606 56 
L 191 3500 
L 800 3500 
L 1894 763 
L 2988 3500 
L 3597 3500 
L 2059 -325 
z
" transform="scale(0.015625)"/>
      </defs>
      <use xlink:href="#DejaVuSans-45"/>
      <use xlink:href="#DejaVuSans-71" transform="translate(63.183594 0)"/>
      <use xlink:href="#DejaVuSans-75" transform="translate(126.660156 0)"/>
      <use xlink:href="#DejaVuSans-69" transform="translate(190.039062 0)"/>
      <use xlink:href="#DejaVuSans-74" transform="translate(217.822266 0)"/>
      <use xlink:href="#DejaVuSans-79" transform="translate(257.03125 0)"/>
     </g>
    </g>
   </g>
   <g id="line2d_40">
    <path d="M 58.429389 198.059932 
L 58.442969 198.526141 
L 59.520293 192.911201 
L 60.574983 205.168204 
L 61.987274 200.192363 
L 62.774897 205.282329 
L 63.164182 206.492052 
L 63.8658 197.088168 
L 64.567419 199.16524 
L 67.636434 199.16524 
L 68.41953 200.933133 
L 69.320318 198.970187 
L 70.112468 201.458107 
L 70.746188 200.613584 
L 72.212797 202.028731 
L 73.380652 213.167312 
L 73.416864 189.908678 
L 73.846889 199.517986 
L 75.322551 205.041626 
L 76.811792 192.830273 
L 76.857058 193.560671 
L 78.16071 188.835905 
L 78.912121 190.045628 
L 79.858174 183.449214 
L 80.089029 184.567637 
L 81.193513 165.485971 
L 81.596377 177.628849 
L 82.071667 168.65864 
L 82.981508 170.872661 
L 92.184026 170.872661 
L 92.926384 172.21319 
L 93.714007 166.438475 
L 94.089712 170.067643 
L 94.940708 165.525476 
L 95.266621 165.411352 
L 96.276046 175.180434 
L 97.045563 174.450036 
L 97.674756 160.57246 
L 98.616283 168.880745 
L 99.376747 176.595582 
L 100.119104 169.588319 
L 101.083264 174.062011 
L 101.540447 168.310121 
L 102.549873 184.766917 
L 102.939158 183.53437 
L 103.034216 180.5443 
L 104.464612 182.735496 
L 113.209947 182.727516 
L 113.427222 185.443687 
L 114.468333 186.19691 
L 115.06584 179.668972 
L 115.446072 179.988521 
L 115.867043 185.215437 
L 117.908527 180.239596 
L 118.121276 185.534986 
L 118.302338 182.818816 
L 120.257817 171.429161 
L 120.850798 174.96703 
L 121.344194 174.898555 
L 125.94319 174.898555 
L 127.269475 177.355493 
L 127.387166 174.502373 
L 127.663286 174.730623 
L 128.007306 178.382616 
L 129.917519 177.689564 
L 130.257011 179.218836 
L 130.741354 179.675335 
L 131.012949 176.84504 
L 132.158171 178.054763 
L 133.063485 181.090483 
L 134.638732 177.415664 
L 135.05065 184.947901 
L 135.154761 181.957831 
L 176.586462 181.957831 
L 178.116442 185.76262 
L 178.415196 184.644197 
L 178.976491 193.340506 
L 179.660003 192.427508 
L 180.470259 187.771216 
L 181.647168 189.597213 
L 182.285414 194.641529 
L 184.258999 194.641529 
L 185.779927 197.507353 
L 186.246163 193.284736 
L 187.088105 200.680023 
L 187.939101 193.558635 
L 188.726724 200.383298 
L 189.06169 200.497423 
L 189.283492 195.567232 
L 190.397029 198.237752 
L 191.496985 205.404789 
L 192.343454 190.431616 
L 192.34798 211.544703 
L 193.466043 190.68269 
L 196.535058 190.68269 
L 198.065039 198.522452 
L 198.716865 203.543943 
L 199.282687 196.742105 
L 199.988832 192.428188 
L 200.980151 213.997775 
L 201.500706 215.253148 
L 202.59161 208.428485 
L 202.691194 209.409958 
L 203.433552 199.89195 
L 204.388658 209.478433 
L 205.280393 191.652139 
L 205.982011 195.555208 
L 207.249451 190.716316 
L 207.344509 192.428188 
L 208.774905 188.958794 
L 209.345253 200.143024 
L 209.354306 185.283976 
L 210.829968 192.085814 
L 211.549693 188.821844 
L 212.527432 186.836073 
L 213.115886 192.793387 
L 214.138891 193.318362 
L 214.347114 189.164219 
L 215.14379 193.249887 
L 216.420283 186.379574 
L 216.949892 190.579366 
L 217.511186 187.018673 
L 218.520612 190.602191 
L 219.330868 187.634947 
L 220.326713 196.194306 
L 220.602834 185.557875 
L 221.512675 193.569436 
L 222.404409 189.552243 
L 222.965704 190.373942 
L 223.106028 193.067287 
L 224.156192 191.903214 
L 225.686173 191.903214 
L 226.451163 185.22585 
L 226.564328 192.027688 
L 228.035463 192.164637 
L 228.732555 188.421344 
L 229.180685 187.690945 
L 229.483966 191.069039 
L 230.602029 187.71377 
L 231.701985 189.265868 
L 231.964526 188.991968 
L 233.114275 180.820632 
L 233.589565 183.491153 
L 234.893218 178.424012 
L 235.006382 178.789211 
L 236.074653 176.073041 
L 237.328513 172.238448 
L 237.391885 189.882141 
L 237.966759 188.832193 
L 245.63477 188.832193 
L 246.187011 190.554414 
L 246.865997 185.464448 
L 247.544982 186.468746 
L 248.463876 183.410202 
L 249.106649 182.885228 
L 249.704157 188.043669 
L 250.727162 190.006615 
L 251.763746 174.371518 
L 252.311461 173.23027 
L 253.443104 179.940808 
L 254.452529 171.358623 
L 254.868974 175.604066 
L 254.927819 178.137636 
L 259.449863 178.091986 
L 296.273515 178.091986 
L 296.82123 177.784539 
L 297.658646 181.322407 
L 297.925713 179.63336 
L 299.582438 185.7048 
L 301.0581 179.747485 
L 301.890989 184.974401 
L 302.751038 182.874505 
L 303.89626 188.032945 
L 304.806101 182.66908 
L 305.421714 187.873171 
L 305.734048 188.23837 
L 306.725367 183.148404 
L 307.033173 183.034279 
L 307.888695 187.895996 
L 308.803062 185.111351 
L 309.219507 188.078595 
L 311.428473 181.276757 
L 311.44658 190.201317 
L 311.790599 188.42097 
L 311.799652 182.418005 
L 313.157623 185.179825 
L 320.825634 185.179825 
L 322.265083 186.80976 
L 322.351088 181.24047 
L 322.391827 182.336068 
L 323.614002 197.149467 
L 324.609847 194.433297 
L 325.365784 200.961235 
L 325.465369 200.071062 
L 325.723383 203.517631 
L 328.375954 208.858671 
L 328.385007 190.507404 
L 329.946674 190.582448 
L 330.032679 192.682344 
L 330.711664 196.288688 
L 331.23222 188.961876 
L 331.635085 187.797803 
L 331.870466 190.696573 
L 333.296336 188.984701 
L 334.120172 192.910594 
L 334.803684 190.856347 
L 336.166182 185.834856 
L 336.229554 186.131581 
L 337.628264 196.471287 
L 338.130713 196.676712 
L 339.352888 190.491148 
L 340.647487 196.448462 
L 340.928134 196.220213 
L 341.647859 192.659519 
L 343.363429 212.631359 
L 343.802506 186.656555 
L 344.255163 190.993297 
L 345.042787 177.549396 
L 345.445652 175.3582 
L 345.948101 185.104457 
L 346.957526 183.87191 
L 348.464874 175.495149 
L 349.637256 182.068738 
L 351.198923 172.915929 
L 351.520309 173.691978 
L 356.119305 173.691978 
L 356.66702 174.548959 
L 357.12873 166.354799 
L 357.658339 166.468923 
L 369.929872 166.468923 
L 370.48664 163.628919 
L 371.115833 169.837308 
L 371.473433 167.509162 
L 372.976254 159.634551 
L 373.587341 157.694429 
L 374.338752 168.69606 
L 374.945312 168.947134 
L 375.271225 165.47774 
L 376.552245 167.783061 
L 377.077327 165.226666 
L 377.729153 166.116839 
L 378.313081 164.541917 
L 379.141443 164.815816 
L 414.430588 164.815816 
L 415.602969 163.66595 
L 415.698027 165.332172 
L 416.232163 165.857146 
L 417.16011 159.945481 
L 417.906994 161.132379 
L 418.060897 159.374857 
L 419.301178 161.063904 
L 420.333236 168.025517 
L 420.622936 165.149572 
L 422.026173 172.430734 
L 422.270608 169.28089 
L 423.289086 172.065535 
L 424.728536 169.577614 
L 424.977497 174.119781 
L 425.873758 168.482016 
L 426.502951 172.08836 
L 426.892237 170.581913 
L 428.223048 175.786003 
L 428.295473 175.717528 
L 428.834135 173.138308 
L 430.400329 160.58458 
L 430.540652 180.031446 
L 432.034421 177.624435 
L 432.396546 175.593014 
L 433.772624 179.496082 
L 434.320339 175.821263 
L 434.447083 176.642962 
L 434.777523 173.424643 
L 436.081175 174.177866 
L 437.366721 178.583083 
L 438.000441 174.725665 
L 438.919335 181.595978 
L 439.163769 181.664453 
L 440.096243 175.638664 
L 441.504006 173.333343 
L 441.825393 177.373361 
L 442.468166 179.062408 
L 443.577176 172.192095 
L 443.789925 172.16927 
L 445.093577 181.481853 
L 445.496442 182.645926 
L 447.406655 172.374694 
L 447.474553 186.764987 
L 449.375713 178.753426 
L 449.629201 181.99457 
L 449.778578 180.488123 
L 450.172389 175.306857 
L 451.408143 176.950254 
L 452.766114 171.883113 
L 453.368148 174.987308 
L 454.178404 168.847394 
L 454.572216 170.81034 
L 455.776284 164.396527 
L 456.532221 166.039924 
L 457.36511 161.452107 
L 457.514487 162.319455 
L 458.926777 153.988345 
L 459.23911 153.486196 
L 459.352274 156.77299 
L 460.470337 155.403492 
L 468.142874 155.403492 
L 469.396735 158.113833 
L 470.07572 158.912707 
L 470.949348 153.069517 
L 471.275261 153.640141 
L 471.678126 157.680159 
L 473.036097 156.881285 
L 473.398223 153.936866 
L 474.280904 154.735739 
L 475.647929 141.885287 
L 476.209223 146.267679 
L 477.209595 134.147626 
L 477.354446 134.946499 
L 477.530982 130.952131 
L 478.884427 132.481404 
L 486.552437 132.481404 
L 487.131838 134.420028 
L 488.086945 130.699559 
L 488.806669 128.394238 
L 489.684824 133.461379 
L 491.269124 126.750841 
L 492.627095 134.990652 
L 493.337766 130.699559 
L 494.052965 137.661172 
L 494.528255 138.779595 
L 495.04881 134.945002 
L 496.356989 135.858 
L 496.968076 139.07632 
L 497.352835 136.1319 
L 541.794705 136.1319 
L 541.939555 137.084285 
L 542.677386 132.975792 
L 543.43785 132.542118 
L 544.38843 139.77763 
L 545.176053 136.194111 
L 545.683029 139.526556 
L 546.787512 136.285411 
L 547.443865 138.545082 
L 549.431029 123.001285 
L 549.440083 148.017441 
L 549.494401 147.127267 
L 551.160179 139.68633 
L 552.183184 131.971494 
L 552.69016 137.403834 
L 552.988914 133.067092 
L 554.084344 136.422361 
L 555.591692 145.62082 
L 555.908552 143.338324 
L 557.076407 152.285708 
L 557.180518 148.953264 
L 557.954562 154.910578 
L 558.678813 153.404131 
L 559.502649 148.998914 
L 561.068842 149.843437 
L 561.643717 157.535449 
L 562.205012 158.882121 
L 562.549031 150.96186 
L 563.85721 157.936798 
L 564.717258 152.687057 
L 564.943587 154.444579 
L 565.862481 150.838236 
L 566.432829 164.282137 
L 566.437355 143.009275 
L 567.980916 154.398929 
L 568.55579 149.719813 
L 568.55579 149.719813 
" clip-path="url(#p21dfc895c8)" style="fill: none; stroke: #2e8b57; stroke-width: 1.5; stroke-linecap: square"/>
   </g>
   <g id="patch_8">
    <path d="M 53.328125 219.865741 
L 53.328125 118.388692 
" style="fill: none; stroke: #000000; stroke-width: 0.8; stroke-linejoin: miter; stroke-linecap: square"/>
   </g>
   <g id="patch_9">
    <path d="M 573.657054 219.865741 
L 573.657054 118.388692 
" style="fill: none; stroke: #000000; stroke-width: 0.8; stroke-linejoin: miter; stroke-linecap: square"/>
   </g>
   <g id="patch_10">
    <path d="M 53.328125 219.865741 
L 573.657054 219.865741 
" style="fill: none; stroke: #000000; stroke-width: 0.8; stroke-linejoin: miter; stroke-linecap: square"/>
   </g>
   <g id="patch_11">
    <path d="M 53.328125 118.388692 
L 573.657054 118.388692 
" style="fill: none; stroke: #000000; stroke-width: 0.8; stroke-linejoin: miter; stroke-linecap: square"/>
   </g>
  </g>
  <g id="axes_3">
   <g id="patch_12">
    <path d="M 53.328125 330.84327 
L 573.657054 330.84327 
L 573.657054 229.366221 
L 53.328125 229.366221 
z
" style="fill: #ffffff"/>
   </g>
   <g id="matplotlib.axis_5">
    <g id="xtick_33">
     <g id="line2d_41">
      <g>
       <use xlink:href="#meb61ddcb0a" x="58.429389" y="330.84327" style="stroke: #000000; stroke-width: 0.8"/>
      </g>
     </g>
     <g id="text_9">
      <!-- Sep -->
      <g transform="translate(49.004389 345.441707) scale(0.1 -0.1)">
       <defs>
        <path id="DejaVuSans-53" d="M 3425 4513 
L 3425 3897 
Q 3066 4069 2747 4153 
Q 2428 4238 2131 4238 
Q 1616 4238 1336 4038 
Q 1056 3838 1056 3469 
Q 1056 3159 1242 3001 
Q 1428 2844 1947 2747 
L 2328 2669 
Q 3034 2534 3370 2195 
Q 3706 1856 3706 1288 
Q 3706 609 3251 259 
Q 2797 -91 1919 -91 
Q 1588 -91 1214 -16 
Q 841 59 441 206 
L 441 856 
Q 825 641 1194 531 
Q 1563 422 1919 422 
Q 2459 422 2753 634 
Q 3047 847 3047 1241 
Q 3047 1584 2836 1778 
Q 2625 1972 2144 2069 
L 1759 2144 
Q 1053 2284 737 2584 
Q 422 2884 422 3419 
Q 422 4038 858 4394 
Q 1294 4750 2059 4750 
Q 2388 4750 2728 4690 
Q 3069 4631 3425 4513 
z
" transform="scale(0.015625)"/>
        <path id="DejaVuSans-70" d="M 1159 525 
L 1159 -1331 
L 581 -1331 
L 581 3500 
L 1159 3500 
L 1159 2969 
Q 1341 3281 1617 3432 
Q 1894 3584 2278 3584 
Q 2916 3584 3314 3078 
Q 3713 2572 3713 1747 
Q 3713 922 3314 415 
Q 2916 -91 2278 -91 
Q 1894 -91 1617 61 
Q 1341 213 1159 525 
z
M 3116 1747 
Q 3116 2381 2855 2742 
Q 2594 3103 2138 3103 
Q 1681 3103 1420 2742 
Q 1159 2381 1159 1747 
Q 1159 1113 1420 752 
Q 1681 391 2138 391 
Q 2594 391 2855 752 
Q 3116 1113 3116 1747 
z
" transform="scale(0.015625)"/>
       </defs>
       <use xlink:href="#DejaVuSans-53"/>
       <use xlink:href="#DejaVuSans-65" transform="translate(63.476562 0)"/>
       <use xlink:href="#DejaVuSans-70" transform="translate(125 0)"/>
      </g>
     </g>
    </g>
    <g id="xtick_34">
     <g id="line2d_42">
      <g>
       <use xlink:href="#meb61ddcb0a" x="92.437711" y="330.84327" style="stroke: #000000; stroke-width: 0.8"/>
      </g>
     </g>
     <g id="text_10">
      <!-- 03 -->
      <g transform="translate(86.075211 345.441707) scale(0.1 -0.1)">
       <defs>
        <path id="DejaVuSans-33" d="M 2597 2516 
Q 3050 2419 3304 2112 
Q 3559 1806 3559 1356 
Q 3559 666 3084 287 
Q 2609 -91 1734 -91 
Q 1441 -91 1130 -33 
Q 819 25 488 141 
L 488 750 
Q 750 597 1062 519 
Q 1375 441 1716 441 
Q 2309 441 2620 675 
Q 2931 909 2931 1356 
Q 2931 1769 2642 2001 
Q 2353 2234 1838 2234 
L 1294 2234 
L 1294 2753 
L 1863 2753 
Q 2328 2753 2575 2939 
Q 2822 3125 2822 3475 
Q 2822 3834 2567 4026 
Q 2313 4219 1838 4219 
Q 1578 4219 1281 4162 
Q 984 4106 628 3988 
L 628 4550 
Q 988 4650 1302 4700 
Q 1616 4750 1894 4750 
Q 2613 4750 3031 4423 
Q 3450 4097 3450 3541 
Q 3450 3153 3228 2886 
Q 3006 2619 2597 2516 
z
" transform="scale(0.015625)"/>
       </defs>
       <use xlink:href="#DejaVuSans-30"/>
       <use xlink:href="#DejaVuSans-33" transform="translate(63.623047 0)"/>
      </g>
     </g>
    </g>
    <g id="xtick_35">
     <g id="line2d_43">
      <g>
       <use xlink:href="#meb61ddcb0a" x="126.446033" y="330.84327" style="stroke: #000000; stroke-width: 0.8"/>
      </g>
     </g>
     <g id="text_11">
      <!-- 05 -->
      <g transform="translate(120.083533 345.441707) scale(0.1 -0.1)">
       <use xlink:href="#DejaVuSans-30"/>
       <use xlink:href="#DejaVuSans-35" transform="translate(63.623047 0)"/>
      </g>
     </g>
    </g>
    <g id="xtick_36">
     <g id="line2d_44">
      <g>
       <use xlink:href="#meb61ddcb0a" x="160.454354" y="330.84327" style="stroke: #000000; stroke-width: 0.8"/>
      </g>
     </g>
     <g id="text_12">
      <!-- 07 -->
      <g transform="translate(154.091854 345.441707) scale(0.1 -0.1)">
       <defs>
        <path id="DejaVuSans-37" d="M 525 4666 
L 3525 4666 
L 3525 4397 
L 1831 0 
L 1172 0 
L 2766 4134 
L 525 4134 
L 525 4666 
z
" transform="scale(0.015625)"/>
       </defs>
       <use xlink:href="#DejaVuSans-30"/>
       <use xlink:href="#DejaVuSans-37" transform="translate(63.623047 0)"/>
      </g>
     </g>
    </g>
    <g id="xtick_37">
     <g id="line2d_45">
      <g>
       <use xlink:href="#meb61ddcb0a" x="194.462676" y="330.84327" style="stroke: #000000; stroke-width: 0.8"/>
      </g>
     </g>
     <g id="text_13">
      <!-- 09 -->
      <g transform="translate(188.100176 345.441707) scale(0.1 -0.1)">
       <defs>
        <path id="DejaVuSans-39" d="M 703 97 
L 703 672 
Q 941 559 1184 500 
Q 1428 441 1663 441 
Q 2288 441 2617 861 
Q 2947 1281 2994 2138 
Q 2813 1869 2534 1725 
Q 2256 1581 1919 1581 
Q 1219 1581 811 2004 
Q 403 2428 403 3163 
Q 403 3881 828 4315 
Q 1253 4750 1959 4750 
Q 2769 4750 3195 4129 
Q 3622 3509 3622 2328 
Q 3622 1225 3098 567 
Q 2575 -91 1691 -91 
Q 1453 -91 1209 -44 
Q 966 3 703 97 
z
M 1959 2075 
Q 2384 2075 2632 2365 
Q 2881 2656 2881 3163 
Q 2881 3666 2632 3958 
Q 2384 4250 1959 4250 
Q 1534 4250 1286 3958 
Q 1038 3666 1038 3163 
Q 1038 2656 1286 2365 
Q 1534 2075 1959 2075 
z
" transform="scale(0.015625)"/>
       </defs>
       <use xlink:href="#DejaVuSans-30"/>
       <use xlink:href="#DejaVuSans-39" transform="translate(63.623047 0)"/>
      </g>
     </g>
    </g>
    <g id="xtick_38">
     <g id="line2d_46">
      <g>
       <use xlink:href="#meb61ddcb0a" x="228.470998" y="330.84327" style="stroke: #000000; stroke-width: 0.8"/>
      </g>
     </g>
     <g id="text_14">
      <!-- 11 -->
      <g transform="translate(222.108498 345.441707) scale(0.1 -0.1)">
       <use xlink:href="#DejaVuSans-31"/>
       <use xlink:href="#DejaVuSans-31" transform="translate(63.623047 0)"/>
      </g>
     </g>
    </g>
    <g id="xtick_39">
     <g id="line2d_47">
      <g>
       <use xlink:href="#meb61ddcb0a" x="262.47932" y="330.84327" style="stroke: #000000; stroke-width: 0.8"/>
      </g>
     </g>
     <g id="text_15">
      <!-- 13 -->
      <g transform="translate(256.11682 345.441707) scale(0.1 -0.1)">
       <use xlink:href="#DejaVuSans-31"/>
       <use xlink:href="#DejaVuSans-33" transform="translate(63.623047 0)"/>
      </g>
     </g>
    </g>
    <g id="xtick_40">
     <g id="line2d_48">
      <g>
       <use xlink:href="#meb61ddcb0a" x="296.487642" y="330.84327" style="stroke: #000000; stroke-width: 0.8"/>
      </g>
     </g>
     <g id="text_16">
      <!-- 15 -->
      <g transform="translate(290.125142 345.441707) scale(0.1 -0.1)">
       <use xlink:href="#DejaVuSans-31"/>
       <use xlink:href="#DejaVuSans-35" transform="translate(63.623047 0)"/>
      </g>
     </g>
    </g>
    <g id="xtick_41">
     <g id="line2d_49">
      <g>
       <use xlink:href="#meb61ddcb0a" x="330.495963" y="330.84327" style="stroke: #000000; stroke-width: 0.8"/>
      </g>
     </g>
     <g id="text_17">
      <!-- 17 -->
      <g transform="translate(324.133463 345.441707) scale(0.1 -0.1)">
       <use xlink:href="#DejaVuSans-31"/>
       <use xlink:href="#DejaVuSans-37" transform="translate(63.623047 0)"/>
      </g>
     </g>
    </g>
    <g id="xtick_42">
     <g id="line2d_50">
      <g>
       <use xlink:href="#meb61ddcb0a" x="364.504285" y="330.84327" style="stroke: #000000; stroke-width: 0.8"/>
      </g>
     </g>
     <g id="text_18">
      <!-- 19 -->
      <g transform="translate(358.141785 345.441707) scale(0.1 -0.1)">
       <use xlink:href="#DejaVuSans-31"/>
       <use xlink:href="#DejaVuSans-39" transform="translate(63.623047 0)"/>
      </g>
     </g>
    </g>
    <g id="xtick_43">
     <g id="line2d_51">
      <g>
       <use xlink:href="#meb61ddcb0a" x="398.512607" y="330.84327" style="stroke: #000000; stroke-width: 0.8"/>
      </g>
     </g>
     <g id="text_19">
      <!-- 21 -->
      <g transform="translate(392.150107 345.441707) scale(0.1 -0.1)">
       <use xlink:href="#DejaVuSans-32"/>
       <use xlink:href="#DejaVuSans-31" transform="translate(63.623047 0)"/>
      </g>
     </g>
    </g>
    <g id="xtick_44">
     <g id="line2d_52">
      <g>
       <use xlink:href="#meb61ddcb0a" x="432.520929" y="330.84327" style="stroke: #000000; stroke-width: 0.8"/>
      </g>
     </g>
     <g id="text_20">
      <!-- 23 -->
      <g transform="translate(426.158429 345.441707) scale(0.1 -0.1)">
       <use xlink:href="#DejaVuSans-32"/>
       <use xlink:href="#DejaVuSans-33" transform="translate(63.623047 0)"/>
      </g>
     </g>
    </g>
    <g id="xtick_45">
     <g id="line2d_53">
      <g>
       <use xlink:href="#meb61ddcb0a" x="466.52925" y="330.84327" style="stroke: #000000; stroke-width: 0.8"/>
      </g>
     </g>
     <g id="text_21">
      <!-- 25 -->
      <g transform="translate(460.16675 345.441707) scale(0.1 -0.1)">
       <use xlink:href="#DejaVuSans-32"/>
       <use xlink:href="#DejaVuSans-35" transform="translate(63.623047 0)"/>
      </g>
     </g>
    </g>
    <g id="xtick_46">
     <g id="line2d_54">
      <g>
       <use xlink:href="#meb61ddcb0a" x="500.537572" y="330.84327" style="stroke: #000000; stroke-width: 0.8"/>
      </g>
     </g>
     <g id="text_22">
      <!-- 27 -->
      <g transform="translate(494.175072 345.441707) scale(0.1 -0.1)">
       <use xlink:href="#DejaVuSans-32"/>
       <use xlink:href="#DejaVuSans-37" transform="translate(63.623047 0)"/>
      </g>
     </g>
    </g>
    <g id="xtick_47">
     <g id="line2d_55">
      <g>
       <use xlink:href="#meb61ddcb0a" x="534.545894" y="330.84327" style="stroke: #000000; stroke-width: 0.8"/>
      </g>
     </g>
     <g id="text_23">
      <!-- 29 -->
      <g transform="translate(528.183394 345.441707) scale(0.1 -0.1)">
       <use xlink:href="#DejaVuSans-32"/>
       <use xlink:href="#DejaVuSans-39" transform="translate(63.623047 0)"/>
      </g>
     </g>
    </g>
    <g id="xtick_48">
     <g id="line2d_56">
      <g>
       <use xlink:href="#meb61ddcb0a" x="568.554216" y="330.84327" style="stroke: #000000; stroke-width: 0.8"/>
      </g>
     </g>
     <g id="text_24">
      <!-- Oct -->
      <g transform="translate(559.908903 345.441707) scale(0.1 -0.1)">
       <defs>
        <path id="DejaVuSans-4f" d="M 2522 4238 
Q 1834 4238 1429 3725 
Q 1025 3213 1025 2328 
Q 1025 1447 1429 934 
Q 1834 422 2522 422 
Q 3209 422 3611 934 
Q 4013 1447 4013 2328 
Q 4013 3213 3611 3725 
Q 3209 4238 2522 4238 
z
M 2522 4750 
Q 3503 4750 4090 4092 
Q 4678 3434 4678 2328 
Q 4678 1225 4090 567 
Q 3503 -91 2522 -91 
Q 1538 -91 948 565 
Q 359 1222 359 2328 
Q 359 3434 948 4092 
Q 1538 4750 2522 4750 
z
" transform="scale(0.015625)"/>
       </defs>
       <use xlink:href="#DejaVuSans-4f"/>
       <use xlink:href="#DejaVuSans-63" transform="translate(78.710938 0)"/>
       <use xlink:href="#DejaVuSans-74" transform="translate(133.691406 0)"/>
      </g>
     </g>
    </g>
    <g id="text_25">
     <!-- Time -->
     <g transform="translate(301.258996 359.119832) scale(0.1 -0.1)">
      <defs>
       <path id="DejaVuSans-54" d="M -19 4666 
L 3928 4666 
L 3928 4134 
L 2272 4134 
L 2272 0 
L 1638 0 
L 1638 4134 
L -19 4134 
L -19 4666 
z
" transform="scale(0.015625)"/>
       <path id="DejaVuSans-6d" d="M 3328 2828 
Q 3544 3216 3844 3400 
Q 4144 3584 4550 3584 
Q 5097 3584 5394 3201 
Q 5691 2819 5691 2113 
L 5691 0 
L 5113 0 
L 5113 2094 
Q 5113 2597 4934 2840 
Q 4756 3084 4391 3084 
Q 3944 3084 3684 2787 
Q 3425 2491 3425 1978 
L 3425 0 
L 2847 0 
L 2847 2094 
Q 2847 2600 2669 2842 
Q 2491 3084 2119 3084 
Q 1678 3084 1418 2786 
Q 1159 2488 1159 1978 
L 1159 0 
L 581 0 
L 581 3500 
L 1159 3500 
L 1159 2956 
Q 1356 3278 1631 3431 
Q 1906 3584 2284 3584 
Q 2666 3584 2933 3390 
Q 3200 3197 3328 2828 
z
" transform="scale(0.015625)"/>
      </defs>
      <use xlink:href="#DejaVuSans-54"/>
      <use xlink:href="#DejaVuSans-69" transform="translate(57.958984 0)"/>
      <use xlink:href="#DejaVuSans-6d" transform="translate(85.742188 0)"/>
      <use xlink:href="#DejaVuSans-65" transform="translate(183.154297 0)"/>
     </g>
    </g>
    <g id="text_26">
     <!-- 2025-Oct -->
     <g transform="translate(527.033617 358.119832) scale(0.1 -0.1)">
      <defs>
       <path id="DejaVuSans-2d" d="M 313 2009 
L 1997 2009 
L 1997 1497 
L 313 1497 
L 313 2009 
z
" transform="scale(0.015625)"/>
      </defs>
      <use xlink:href="#DejaVuSans-32"/>
      <use xlink:href="#DejaVuSans-30" transform="translate(63.623047 0)"/>
      <use xlink:href="#DejaVuSans-32" transform="translate(127.246094 0)"/>
      <use xlink:href="#DejaVuSans-35" transform="translate(190.869141 0)"/>
      <use xlink:href="#DejaVuSans-2d" transform="translate(254.492188 0)"/>
      <use xlink:href="#DejaVuSans-4f" transform="translate(293.326172 0)"/>
      <use xlink:href="#DejaVuSans-63" transform="translate(372.037109 0)"/>
      <use xlink:href="#DejaVuSans-74" transform="translate(427.017578 0)"/>
     </g>
    </g>
   </g>
   <g id="matplotlib.axis_6">
    <g id="ytick_7">
     <g id="line2d_57">
      <g>
       <use xlink:href="#m5b2a5f48d4" x="53.328125" y="298.7913" style="stroke: #000000; stroke-width: 0.8"/>
      </g>
     </g>
     <g id="text_27">
      <!-- 1.0 -->
      <g transform="translate(22.045313 302.590519) scale(0.1 -0.1)">
       <defs>
        <path id="DejaVuSans-2212" d="M 678 2272 
L 4684 2272 
L 4684 1741 
L 678 1741 
L 678 2272 
z
" transform="scale(0.015625)"/>
        <path id="DejaVuSans-2e" d="M 684 794 
L 1344 794 
L 1344 0 
L 684 0 
L 684 794 
z
" transform="scale(0.015625)"/>
       </defs>
       <use xlink:href="#DejaVuSans-2212"/>
       <use xlink:href="#DejaVuSans-31" transform="translate(83.789062 0)"/>
       <use xlink:href="#DejaVuSans-2e" transform="translate(147.412109 0)"/>
       <use xlink:href="#DejaVuSans-30" transform="translate(179.199219 0)"/>
      </g>
     </g>
    </g>
    <g id="ytick_8">
     <g id="line2d_58">
      <g>
       <use xlink:href="#m5b2a5f48d4" x="53.328125" y="266.385057" style="stroke: #000000; stroke-width: 0.8"/>
      </g>
     </g>
     <g id="text_28">
      <!-- 0.5 -->
      <g transform="translate(22.045313 270.184276) scale(0.1 -0.1)">
       <use xlink:href="#DejaVuSans-2212"/>
       <use xlink:href="#DejaVuSans-30" transform="translate(83.789062 0)"/>
       <use xlink:href="#DejaVuSans-2e" transform="translate(147.412109 0)"/>
       <use xlink:href="#DejaVuSans-35" transform="translate(179.199219 0)"/>
      </g>
     </g>
    </g>
    <g id="ytick_9">
     <g id="line2d_59">
      <g>
       <use xlink:href="#m5b2a5f48d4" x="53.328125" y="233.978814" style="stroke: #000000; stroke-width: 0.8"/>
      </g>
     </g>
     <g id="text_29">
      <!-- 0.0 -->
      <g transform="translate(30.425 237.778033) scale(0.1 -0.1)">
       <use xlink:href="#DejaVuSans-30"/>
       <use xlink:href="#DejaVuSans-2e" transform="translate(63.623047 0)"/>
       <use xlink:href="#DejaVuSans-30" transform="translate(95.410156 0)"/>
      </g>
     </g>
    </g>
    <g id="text_30">
     <!-- Drawdown, % -->
     <g transform="translate(14.798438 314.583652) rotate(-90) scale(0.1 -0.1)">
      <defs>
       <path id="DejaVuSans-44" d="M 1259 4147 
L 1259 519 
L 2022 519 
Q 2988 519 3436 956 
Q 3884 1394 3884 2338 
Q 3884 3275 3436 3711 
Q 2988 4147 2022 4147 
L 1259 4147 
z
M 628 4666 
L 1925 4666 
Q 3281 4666 3915 4102 
Q 4550 3538 4550 2338 
Q 4550 1131 3912 565 
Q 3275 0 1925 0 
L 628 0 
L 628 4666 
z
" transform="scale(0.015625)"/>
       <path id="DejaVuSans-61" d="M 2194 1759 
Q 1497 1759 1228 1600 
Q 959 1441 959 1056 
Q 959 750 1161 570 
Q 1363 391 1709 391 
Q 2188 391 2477 730 
Q 2766 1069 2766 1631 
L 2766 1759 
L 2194 1759 
z
M 3341 1997 
L 3341 0 
L 2766 0 
L 2766 531 
Q 2569 213 2275 61 
Q 1981 -91 1556 -91 
Q 1019 -91 701 211 
Q 384 513 384 1019 
Q 384 1609 779 1909 
Q 1175 2209 1959 2209 
L 2766 2209 
L 2766 2266 
Q 2766 2663 2505 2880 
Q 2244 3097 1772 3097 
Q 1472 3097 1187 3025 
Q 903 2953 641 2809 
L 641 3341 
Q 956 3463 1253 3523 
Q 1550 3584 1831 3584 
Q 2591 3584 2966 3190 
Q 3341 2797 3341 1997 
z
" transform="scale(0.015625)"/>
       <path id="DejaVuSans-77" d="M 269 3500 
L 844 3500 
L 1563 769 
L 2278 3500 
L 2956 3500 
L 3675 769 
L 4391 3500 
L 4966 3500 
L 4050 0 
L 3372 0 
L 2619 2869 
L 1863 0 
L 1184 0 
L 269 3500 
z
" transform="scale(0.015625)"/>
       <path id="DejaVuSans-64" d="M 2906 2969 
L 2906 4863 
L 3481 4863 
L 3481 0 
L 2906 0 
L 2906 525 
Q 2725 213 2448 61 
Q 2172 -91 1784 -91 
Q 1150 -91 751 415 
Q 353 922 353 1747 
Q 353 2572 751 3078 
Q 1150 3584 1784 3584 
Q 2172 3584 2448 3432 
Q 2725 3281 2906 2969 
z
M 947 1747 
Q 947 1113 1208 752 
Q 1469 391 1925 391 
Q 2381 391 2643 752 
Q 2906 1113 2906 1747 
Q 2906 2381 2643 2742 
Q 2381 3103 1925 3103 
Q 1469 3103 1208 2742 
Q 947 2381 947 1747 
z
" transform="scale(0.015625)"/>
       <path id="DejaVuSans-6f" d="M 1959 3097 
Q 1497 3097 1228 2736 
Q 959 2375 959 1747 
Q 959 1119 1226 758 
Q 1494 397 1959 397 
Q 2419 397 2687 759 
Q 2956 1122 2956 1747 
Q 2956 2369 2687 2733 
Q 2419 3097 1959 3097 
z
M 1959 3584 
Q 2709 3584 3137 3096 
Q 3566 2609 3566 1747 
Q 3566 888 3137 398 
Q 2709 -91 1959 -91 
Q 1206 -91 779 398 
Q 353 888 353 1747 
Q 353 2609 779 3096 
Q 1206 3584 1959 3584 
z
" transform="scale(0.015625)"/>
       <path id="DejaVuSans-6e" d="M 3513 2113 
L 3513 0 
L 2938 0 
L 2938 2094 
Q 2938 2591 2744 2837 
Q 2550 3084 2163 3084 
Q 1697 3084 1428 2787 
Q 1159 2491 1159 1978 
L 1159 0 
L 581 0 
L 581 3500 
L 1159 3500 
L 1159 2956 
Q 1366 3272 1645 3428 
Q 1925 3584 2291 3584 
Q 2894 3584 3203 3211 
Q 3513 2838 3513 2113 
z
" transform="scale(0.015625)"/>
       <path id="DejaVuSans-2c" d="M 750 794 
L 1409 794 
L 1409 256 
L 897 -744 
L 494 -744 
L 750 256 
L 750 794 
z
" transform="scale(0.015625)"/>
       <path id="DejaVuSans-20" transform="scale(0.015625)"/>
       <path id="DejaVuSans-25" d="M 4653 2053 
Q 4381 2053 4226 1822 
Q 4072 1591 4072 1178 
Q 4072 772 4226 539 
Q 4381 306 4653 306 
Q 4919 306 5073 539 
Q 5228 772 5228 1178 
Q 5228 1588 5073 1820 
Q 4919 2053 4653 2053 
z
M 4653 2450 
Q 5147 2450 5437 2106 
Q 5728 1763 5728 1178 
Q 5728 594 5436 251 
Q 5144 -91 4653 -91 
Q 4153 -91 3862 251 
Q 3572 594 3572 1178 
Q 3572 1766 3864 2108 
Q 4156 2450 4653 2450 
z
M 1428 4353 
Q 1159 4353 1004 4120 
Q 850 3888 850 3481 
Q 850 3069 1003 2837 
Q 1156 2606 1428 2606 
Q 1700 2606 1854 2837 
Q 2009 3069 2009 3481 
Q 2009 3884 1853 4118 
Q 1697 4353 1428 4353 
z
M 4250 4750 
L 4750 4750 
L 1831 -91 
L 1331 -91 
L 4250 4750 
z
M 1428 4750 
Q 1922 4750 2215 4408 
Q 2509 4066 2509 3481 
Q 2509 2891 2217 2550 
Q 1925 2209 1428 2209 
Q 931 2209 642 2551 
Q 353 2894 353 3481 
Q 353 4063 643 4406 
Q 934 4750 1428 4750 
z
" transform="scale(0.015625)"/>
      </defs>
      <use xlink:href="#DejaVuSans-44"/>
      <use xlink:href="#DejaVuSans-72" transform="translate(77.001953 0)"/>
      <use xlink:href="#DejaVuSans-61" transform="translate(118.115234 0)"/>
      <use xlink:href="#DejaVuSans-77" transform="translate(179.394531 0)"/>
      <use xlink:href="#DejaVuSans-64" transform="translate(261.181641 0)"/>
      <use xlink:href="#DejaVuSans-6f" transform="translate(324.658203 0)"/>
      <use xlink:href="#DejaVuSans-77" transform="translate(385.839844 0)"/>
      <use xlink:href="#DejaVuSans-6e" transform="translate(467.626953 0)"/>
      <use xlink:href="#DejaVuSans-2c" transform="translate(531.005859 0)"/>
      <use xlink:href="#DejaVuSans-20" transform="translate(562.792969 0)"/>
      <use xlink:href="#DejaVuSans-25" transform="translate(594.580078 0)"/>
     </g>
    </g>
   </g>
   <g id="line2d_60">
    <path d="M 58.429389 233.978814 
L 59.954843 242.211819 
L 59.963896 241.939975 
L 60.574983 254.833172 
L 61.987274 246.367157 
L 62.774897 255.027346 
L 63.164182 257.085598 
L 63.8658 241.085606 
L 64.567419 244.619585 
L 67.636434 244.619585 
L 68.41953 247.627521 
L 69.320318 244.287717 
L 70.112468 248.520725 
L 70.746188 247.083832 
L 72.212797 249.491598 
L 73.321806 233.978814 
L 73.434971 273.442833 
L 73.846889 250.315443 
L 75.322551 259.706095 
L 76.811792 238.94577 
L 76.857058 240.187509 
L 77.047174 233.978814 
L 78.409672 233.978814 
L 78.912121 239.871923 
L 79.966812 233.978814 
L 81.437947 249.825879 
L 81.596377 254.491317 
L 82.071667 239.338284 
L 82.981508 243.078345 
L 92.184026 243.078345 
L 92.926384 245.342848 
L 93.714007 235.587842 
L 94.089712 241.718459 
L 94.940708 234.045549 
L 95.266621 233.978814 
L 96.276046 250.481033 
L 97.624964 233.978814 
L 98.322056 254.272541 
L 98.616283 247.995733 
L 99.376747 261.011444 
L 100.119104 249.189482 
L 101.083264 256.737054 
L 101.540447 247.033033 
L 102.549873 274.797316 
L 102.939158 272.717883 
L 103.034216 267.673332 
L 104.464612 271.370102 
L 113.209947 271.35664 
L 113.427222 275.939094 
L 114.468333 277.209859 
L 115.06584 266.196565 
L 115.446072 266.735677 
L 115.867043 275.554014 
L 117.908527 267.159265 
L 118.121276 276.093126 
L 118.302338 271.510672 
L 120.257817 252.295169 
L 120.850798 258.263913 
L 121.344194 258.148389 
L 125.94319 258.148389 
L 127.269475 262.293492 
L 127.387166 257.479989 
L 127.663286 257.86507 
L 128.007306 264.026353 
L 129.917519 262.857103 
L 130.257011 265.43714 
L 130.741354 266.207301 
L 131.012949 261.432306 
L 132.158171 263.473231 
L 133.063485 268.594798 
L 134.638732 262.395007 
L 135.05065 275.102654 
L 135.154761 270.058103 
L 176.586462 270.058103 
L 178.116442 276.477167 
L 178.415196 274.590274 
L 178.976491 289.261829 
L 179.660003 287.721509 
L 180.470259 279.865872 
L 181.647168 282.946514 
L 182.285414 291.456787 
L 184.258999 291.456787 
L 185.779927 296.291723 
L 186.246163 289.167739 
L 187.088105 301.644338 
L 187.939101 289.629835 
L 188.726724 301.143733 
L 189.06169 301.336274 
L 189.283492 293.018541 
L 190.397029 297.523979 
L 191.496985 309.615498 
L 192.343454 284.354236 
L 192.34798 319.974156 
L 193.466043 284.777825 
L 196.535058 284.777825 
L 198.065039 298.004298 
L 198.716865 306.476062 
L 199.282687 295.000672 
L 199.988832 287.722656 
L 200.980151 324.112736 
L 201.500706 326.230677 
L 202.59161 314.716779 
L 202.691194 316.372624 
L 203.433552 300.314779 
L 204.388658 316.488148 
L 205.280393 286.413384 
L 205.982011 292.998255 
L 207.249451 284.834555 
L 207.344509 287.722656 
L 208.774905 281.869437 
L 209.345253 300.738367 
L 209.354306 275.669646 
L 210.829968 287.145036 
L 211.549693 281.638389 
L 212.527432 278.288191 
L 213.115886 288.338785 
L 214.138891 289.224469 
L 214.347114 282.216009 
L 215.14379 289.108945 
L 216.420283 277.518031 
L 216.949892 284.603507 
L 217.511186 278.596255 
L 218.520612 284.642015 
L 219.330868 279.635972 
L 220.326713 294.07648 
L 220.602834 276.131742 
L 221.512675 289.648057 
L 222.404409 282.870646 
L 222.965704 284.256934 
L 223.106028 288.800881 
L 224.156192 286.836972 
L 225.686173 286.836972 
L 226.451163 275.571581 
L 226.564328 287.046971 
L 228.035463 287.27802 
L 228.732555 280.962704 
L 229.180685 279.730447 
L 229.483966 285.429635 
L 230.602029 279.768955 
L 231.701985 282.387501 
L 231.964526 281.925405 
L 233.114275 268.139533 
L 233.589565 272.644972 
L 234.893218 264.096191 
L 235.006382 264.712319 
L 236.074653 260.129865 
L 237.328513 253.660517 
L 237.391885 283.427217 
L 237.966759 281.655848 
L 245.63477 281.655848 
L 246.187011 284.56141 
L 246.865997 275.974121 
L 247.544982 277.668474 
L 248.463876 272.508399 
L 249.106649 271.622715 
L 249.704157 280.325527 
L 250.727162 283.637217 
L 251.763746 257.259223 
L 252.311461 255.333822 
L 253.443104 266.65518 
L 254.452529 252.176164 
L 254.868974 259.338656 
L 254.927819 263.613046 
L 257.915356 263.53603 
L 296.273515 263.53603 
L 296.82123 263.017335 
L 297.658646 268.986078 
L 297.925713 266.136485 
L 299.582438 276.379618 
L 301.0581 266.329025 
L 301.890989 275.147361 
L 302.751038 271.604624 
L 303.89626 280.307436 
L 304.806101 271.258051 
L 305.421714 280.03788 
L 305.734048 280.654008 
L 306.725367 272.06672 
L 307.033173 271.87418 
L 307.888695 280.076388 
L 308.803062 275.37841 
L 309.219507 280.384452 
L 311.428473 268.909062 
L 311.44658 283.965698 
L 311.790599 280.962073 
L 311.799652 270.834463 
L 313.157623 275.493934 
L 320.825634 275.493934 
L 322.265083 278.243799 
L 322.351088 268.847842 
L 322.391827 270.696227 
L 323.614002 295.687932 
L 324.609847 291.105478 
L 325.365784 302.118772 
L 325.465369 300.616959 
L 325.723383 306.43167 
L 328.375954 315.442547 
L 328.385007 284.482098 
L 329.946674 284.608705 
L 330.032679 288.151443 
L 330.711664 294.23571 
L 331.23222 281.874636 
L 331.635085 279.910727 
L 331.870466 284.801245 
L 333.296336 281.913144 
L 334.120172 288.536523 
L 334.803684 285.070801 
L 336.166182 276.599037 
L 336.229554 277.099641 
L 337.628264 294.543774 
L 338.130713 294.890347 
L 339.352888 284.454673 
L 340.647487 294.505266 
L 340.928134 294.120186 
L 341.647859 288.112935 
L 343.363429 321.807453 
L 343.802506 277.985326 
L 344.255163 285.301849 
L 345.042787 262.620625 
L 345.445652 258.923855 
L 345.948101 275.36678 
L 346.957526 273.287347 
L 348.464874 259.154903 
L 349.637256 270.245213 
L 351.198923 254.803497 
L 351.520309 256.11277 
L 356.119305 256.11277 
L 356.66702 257.558584 
L 357.12873 243.734205 
L 357.658339 243.926745 
L 369.929872 243.926745 
L 370.48664 239.135369 
L 371.115833 249.609551 
L 371.473433 245.681733 
L 372.962674 233.978814 
L 373.560182 233.978814 
L 374.338752 252.525785 
L 374.945312 252.949056 
L 375.271225 247.100219 
L 376.552245 250.986617 
L 377.077327 246.676948 
L 377.729153 248.177636 
L 378.313081 245.522572 
L 379.141443 245.984322 
L 414.430588 245.984322 
L 415.602969 244.045833 
L 415.698027 246.854814 
L 416.232163 247.739835 
L 417.16011 237.773724 
L 417.906994 239.774642 
L 418.060897 236.811745 
L 419.301178 239.659205 
L 420.333236 251.395359 
L 420.622936 246.54698 
L 422.026173 258.821843 
L 422.270608 253.511714 
L 423.289086 258.206176 
L 424.728536 254.011944 
L 424.977497 261.669303 
L 425.873758 252.164943 
L 426.502951 258.244655 
L 426.892237 255.705028 
L 428.223048 264.478285 
L 428.295473 264.362847 
L 428.834135 260.014698 
L 430.400329 238.851142 
L 430.540652 271.635415 
L 432.034421 267.577583 
L 432.396546 264.152935 
L 433.772624 270.732877 
L 434.320339 264.537727 
L 434.447083 265.922978 
L 434.777523 260.497412 
L 436.081175 261.767225 
L 437.366721 269.19371 
L 438.000441 262.690726 
L 438.919335 274.272963 
L 439.163769 274.388401 
L 440.096243 264.229894 
L 441.504006 260.343495 
L 441.825393 267.154312 
L 442.468166 270.001773 
L 443.577176 258.419535 
L 443.789925 258.381056 
L 445.093577 274.080567 
L 445.496442 276.043006 
L 447.406655 258.727369 
L 447.474553 282.987077 
L 449.375713 269.48088 
L 449.629201 274.944925 
L 449.778578 272.405299 
L 450.172389 263.670522 
L 451.408143 266.441024 
L 452.766114 257.898643 
L 453.368148 263.131813 
L 454.178404 252.78091 
L 454.572216 256.090121 
L 455.776284 245.277467 
L 456.532221 248.047969 
L 457.36511 240.313651 
L 457.514487 241.775861 
L 458.537492 233.978814 
L 459.180265 233.978814 
L 459.352274 239.513759 
L 460.470337 237.207532 
L 468.142874 237.207532 
L 469.396735 241.771732 
L 470.07572 243.117032 
L 470.836184 233.978814 
L 471.275261 234.939638 
L 471.678126 241.742272 
L 473.036097 240.397118 
L 473.398223 235.439266 
L 474.371436 233.978814 
L 476.209223 241.336563 
L 476.317861 233.978814 
L 477.449504 233.978814 
L 477.95648 236.539111 
L 486.552437 236.539111 
L 487.131838 239.784741 
L 487.98736 233.978814 
L 488.308747 233.978814 
L 489.684824 242.456583 
L 490.974897 233.978814 
L 491.160486 233.978814 
L 492.627095 247.758891 
L 493.337766 240.582563 
L 494.052965 252.22501 
L 494.528255 254.095435 
L 495.04881 247.682547 
L 496.356989 249.209425 
L 496.968076 254.591671 
L 497.352835 249.667488 
L 541.794705 249.667488 
L 541.939555 251.260236 
L 542.677386 244.389284 
L 543.43785 243.664017 
L 544.38843 255.764527 
L 545.176053 249.77153 
L 545.683029 255.344636 
L 546.787512 249.924218 
L 547.443865 253.703241 
L 549.431029 233.978814 
L 549.440083 275.774841 
L 549.494401 274.287574 
L 551.160179 261.855544 
L 552.183184 248.965893 
L 552.69016 258.042038 
L 552.988914 250.796376 
L 554.084344 256.40223 
L 555.591692 271.77066 
L 555.908552 267.957153 
L 557.076407 282.906097 
L 557.180518 277.338378 
L 557.954562 287.291629 
L 558.678813 284.774715 
L 559.502649 277.414649 
L 561.068842 278.825646 
L 561.643717 291.677161 
L 562.205012 293.92713 
L 562.549031 280.694264 
L 563.85721 292.347721 
L 564.717258 283.576657 
L 564.943587 286.513056 
L 565.862481 280.487717 
L 566.432829 302.949268 
L 566.437355 267.407391 
L 567.980916 286.436786 
L 568.55579 278.619099 
L 568.55579 278.619099 
" clip-path="url(#p8a46eea571)" style="fill: none; stroke: #7a738c; stroke-width: 1.5; stroke-linecap: square"/>
   </g>
   <g id="patch_13">
    <path d="M 53.328125 330.84327 
L 53.328125 229.366221 
" style="fill: none; stroke: #000000; stroke-width: 0.8; stroke-linejoin: miter; stroke-linecap: square"/>
   </g>
   <g id="patch_14">
    <path d="M 573.657054 330.84327 
L 573.657054 229.366221 
" style="fill: none; stroke: #000000; stroke-width: 0.8; stroke-linejoin: miter; stroke-linecap: square"/>
   </g>
   <g id="patch_15">
    <path d="M 53.328125 330.84327 
L 573.657054 330.84327 
" style="fill: none; stroke: #000000; stroke-width: 0.8; stroke-linejoin: miter; stroke-linecap: square"/>
   </g>
   <g id="patch_16">
    <path d="M 53.328125 229.366221 
L 573.657054 229.366221 
" style="fill: none; stroke: #000000; stroke-width: 0.8; stroke-linejoin: miter; stroke-linecap: square"/>
   </g>
  </g>
 </g>
 <defs>
  <clipPath id="p159c7eb581">
   <rect x="53.328125" y="7.2" width="520.328929" height="101.477049"/>
  </clipPath>
  <clipPath id="p21dfc895c8">
   <rect x="53.328125" y="118.388692" width="520.328929" height="101.477049"/>
  </clipPath>
  <clipPath id="p8a46eea571">
   <rect x="53.328125" y="229.366221" width="520.328929" height="101.477049"/>
  </clipPath>
 </defs>
</svg>
