<?xml version="1.0" encoding="utf-8" standalone="no"?>
<!DOCTYPE svg PUBLIC "-//W3C//DTD SVG 1.1//EN"
  "http://www.w3.org/Graphics/SVG/1.1/DTD/svg11.dtd">
<svg xmlns:xlink="http://www.w3.org/1999/xlink"   viewBox="0 0 584.399522 368.39952" xmlns="http://www.w3.org/2000/svg" version="1.1" preserveAspectRatio="xMidYMid meet" style="width:100%;height:auto;aspect-ratio:8 / 5;display:block;">
 <metadata>
  <rdf:RDF xmlns:dc="http://purl.org/dc/elements/1.1/" xmlns:cc="http://creativecommons.org/ns#" xmlns:rdf="http://www.w3.org/1999/02/22-rdf-syntax-ns#">
   <cc:Work>
    <dc:type rdf:resource="http://purl.org/dc/dcmitype/StillImage"/>
    <dc:date>2025-11-17T12:21:19.961736</dc:date>
    <dc:format>image/svg+xml</dc:format>
    <dc:creator>
     <cc:Agent>
      <dc:title>Matplotlib v3.10.7, https://matplotlib.org/</dc:title>
     </cc:Agent>
    </dc:creator>
   </cc:Work>
  </rdf:RDF>
 </metadata>
 <defs>
  <style type="text/css">*{stroke-linejoin: round; stroke-linecap: butt}</style>
 </defs>
 <g id="figure_1">
  <g id="patch_1">
   <path d="M 0 368.39952 
L 584.399522 368.39952 
L 584.399522 0 
L 0 0 
z
" style="fill: #ffffff"/>
  </g>
  <g id="axes_1">
   <g id="patch_2">
    <path d="M 66.053125 108.747437 
L 572.976145 108.747437 
L 572.976145 7.2 
L 66.053125 7.2 
z
" style="fill: #ffffff"/>
   </g>
   <g id="matplotlib.axis_1">
    <g id="xtick_1">
     <g id="line2d_1">
      <defs>
       <path id="m7cb225d09f" d="M 0 0 
L 0 3.5 
" style="stroke: #000000; stroke-width: 0.8"/>
      </defs>
      <g>
       <use xlink:href="#m7cb225d09f" x="71.022959" y="108.747437" style="stroke: #000000; stroke-width: 0.8"/>
      </g>
     </g>
    </g>
    <g id="xtick_2">
     <g id="line2d_2">
      <g>
       <use xlink:href="#m7cb225d09f" x="98.41003" y="108.747437" style="stroke: #000000; stroke-width: 0.8"/>
      </g>
     </g>
    </g>
    <g id="xtick_3">
     <g id="line2d_3">
      <g>
       <use xlink:href="#m7cb225d09f" x="125.797102" y="108.747437" style="stroke: #000000; stroke-width: 0.8"/>
      </g>
     </g>
    </g>
    <g id="xtick_4">
     <g id="line2d_4">
      <g>
       <use xlink:href="#m7cb225d09f" x="153.184174" y="108.747437" style="stroke: #000000; stroke-width: 0.8"/>
      </g>
     </g>
    </g>
    <g id="xtick_5">
     <g id="line2d_5">
      <g>
       <use xlink:href="#m7cb225d09f" x="180.571246" y="108.747437" style="stroke: #000000; stroke-width: 0.8"/>
      </g>
     </g>
    </g>
    <g id="xtick_6">
     <g id="line2d_6">
      <g>
       <use xlink:href="#m7cb225d09f" x="207.958318" y="108.747437" style="stroke: #000000; stroke-width: 0.8"/>
      </g>
     </g>
    </g>
    <g id="xtick_7">
     <g id="line2d_7">
      <g>
       <use xlink:href="#m7cb225d09f" x="235.34539" y="108.747437" style="stroke: #000000; stroke-width: 0.8"/>
      </g>
     </g>
    </g>
    <g id="xtick_8">
     <g id="line2d_8">
      <g>
       <use xlink:href="#m7cb225d09f" x="262.732462" y="108.747437" style="stroke: #000000; stroke-width: 0.8"/>
      </g>
     </g>
    </g>
    <g id="xtick_9">
     <g id="line2d_9">
      <g>
       <use xlink:href="#m7cb225d09f" x="276.425998" y="108.747437" style="stroke: #000000; stroke-width: 0.8"/>
      </g>
     </g>
    </g>
    <g id="xtick_10">
     <g id="line2d_10">
      <g>
       <use xlink:href="#m7cb225d09f" x="303.81307" y="108.747437" style="stroke: #000000; stroke-width: 0.8"/>
      </g>
     </g>
    </g>
    <g id="xtick_11">
     <g id="line2d_11">
      <g>
       <use xlink:href="#m7cb225d09f" x="331.200142" y="108.747437" style="stroke: #000000; stroke-width: 0.8"/>
      </g>
     </g>
    </g>
    <g id="xtick_12">
     <g id="line2d_12">
      <g>
       <use xlink:href="#m7cb225d09f" x="358.587214" y="108.747437" style="stroke: #000000; stroke-width: 0.8"/>
      </g>
     </g>
    </g>
    <g id="xtick_13">
     <g id="line2d_13">
      <g>
       <use xlink:href="#m7cb225d09f" x="385.974286" y="108.747437" style="stroke: #000000; stroke-width: 0.8"/>
      </g>
     </g>
    </g>
    <g id="xtick_14">
     <g id="line2d_14">
      <g>
       <use xlink:href="#m7cb225d09f" x="413.361358" y="108.747437" style="stroke: #000000; stroke-width: 0.8"/>
      </g>
     </g>
    </g>
    <g id="xtick_15">
     <g id="line2d_15">
      <g>
       <use xlink:href="#m7cb225d09f" x="440.74843" y="108.747437" style="stroke: #000000; stroke-width: 0.8"/>
      </g>
     </g>
    </g>
    <g id="xtick_16">
     <g id="line2d_16">
      <g>
       <use xlink:href="#m7cb225d09f" x="468.135502" y="108.747437" style="stroke: #000000; stroke-width: 0.8"/>
      </g>
     </g>
    </g>
    <g id="xtick_17">
     <g id="line2d_17">
      <g>
       <use xlink:href="#m7cb225d09f" x="488.675806" y="108.747437" style="stroke: #000000; stroke-width: 0.8"/>
      </g>
     </g>
    </g>
    <g id="xtick_18">
     <g id="line2d_18">
      <g>
       <use xlink:href="#m7cb225d09f" x="516.062878" y="108.747437" style="stroke: #000000; stroke-width: 0.8"/>
      </g>
     </g>
    </g>
    <g id="xtick_19">
     <g id="line2d_19">
      <g>
       <use xlink:href="#m7cb225d09f" x="543.44995" y="108.747437" style="stroke: #000000; stroke-width: 0.8"/>
      </g>
     </g>
    </g>
    <g id="xtick_20">
     <g id="line2d_20">
      <g>
       <use xlink:href="#m7cb225d09f" x="570.837022" y="108.747437" style="stroke: #000000; stroke-width: 0.8"/>
      </g>
     </g>
    </g>
   </g>
   <g id="matplotlib.axis_2">
    <g id="ytick_1">
     <g id="line2d_21">
      <defs>
       <path id="m7530566f11" d="M 0 0 
L -3.5 0 
" style="stroke: #000000; stroke-width: 0.8"/>
      </defs>
      <g>
       <use xlink:href="#m7530566f11" x="66.053125" y="100.542347" style="stroke: #000000; stroke-width: 0.8"/>
      </g>
     </g>
     <g id="text_1">
      <!-- 100000 -->
      <g transform="translate(20.878125 104.341566) scale(0.1 -0.1)">
       <defs>
        <path id="DejaVuSans-31" d="M 794 531 
L 1825 531 
L 1825 4091 
L 703 3866 
L 703 4441 
L 1819 4666 
L 2450 4666 
L 2450 531 
L 3481 531 
L 3481 0 
L 794 0 
L 794 531 
z
" transform="scale(0.015625)"/>
        <path id="DejaVuSans-30" d="M 2034 4250 
Q 1547 4250 1301 3770 
Q 1056 3291 1056 2328 
Q 1056 1369 1301 889 
Q 1547 409 2034 409 
Q 2525 409 2770 889 
Q 3016 1369 3016 2328 
Q 3016 3291 2770 3770 
Q 2525 4250 2034 4250 
z
M 2034 4750 
Q 2819 4750 3233 4129 
Q 3647 3509 3647 2328 
Q 3647 1150 3233 529 
Q 2819 -91 2034 -91 
Q 1250 -91 836 529 
Q 422 1150 422 2328 
Q 422 3509 836 4129 
Q 1250 4750 2034 4750 
z
" transform="scale(0.015625)"/>
       </defs>
       <use xlink:href="#DejaVuSans-31"/>
       <use xlink:href="#DejaVuSans-30" transform="translate(63.623047 0)"/>
       <use xlink:href="#DejaVuSans-30" transform="translate(127.246094 0)"/>
       <use xlink:href="#DejaVuSans-30" transform="translate(190.869141 0)"/>
       <use xlink:href="#DejaVuSans-30" transform="translate(254.492188 0)"/>
       <use xlink:href="#DejaVuSans-30" transform="translate(318.115234 0)"/>
      </g>
     </g>
    </g>
    <g id="ytick_2">
     <g id="line2d_22">
      <g>
       <use xlink:href="#m7530566f11" x="66.053125" y="66.674665" style="stroke: #000000; stroke-width: 0.8"/>
      </g>
     </g>
     <g id="text_2">
      <!-- 110000 -->
      <g transform="translate(20.878125 70.473883) scale(0.1 -0.1)">
       <use xlink:href="#DejaVuSans-31"/>
       <use xlink:href="#DejaVuSans-31" transform="translate(63.623047 0)"/>
       <use xlink:href="#DejaVuSans-30" transform="translate(127.246094 0)"/>
       <use xlink:href="#DejaVuSans-30" transform="translate(190.869141 0)"/>
       <use xlink:href="#DejaVuSans-30" transform="translate(254.492188 0)"/>
       <use xlink:href="#DejaVuSans-30" transform="translate(318.115234 0)"/>
      </g>
     </g>
    </g>
    <g id="ytick_3">
     <g id="line2d_23">
      <g>
       <use xlink:href="#m7530566f11" x="66.053125" y="32.806982" style="stroke: #000000; stroke-width: 0.8"/>
      </g>
     </g>
     <g id="text_3">
      <!-- 120000 -->
      <g transform="translate(20.878125 36.606201) scale(0.1 -0.1)">
       <defs>
        <path id="DejaVuSans-32" d="M 1228 531 
L 3431 531 
L 3431 0 
L 469 0 
L 469 531 
Q 828 903 1448 1529 
Q 2069 2156 2228 2338 
Q 2531 2678 2651 2914 
Q 2772 3150 2772 3378 
Q 2772 3750 2511 3984 
Q 2250 4219 1831 4219 
Q 1534 4219 1204 4116 
Q 875 4013 500 3803 
L 500 4441 
Q 881 4594 1212 4672 
Q 1544 4750 1819 4750 
Q 2544 4750 2975 4387 
Q 3406 4025 3406 3419 
Q 3406 3131 3298 2873 
Q 3191 2616 2906 2266 
Q 2828 2175 2409 1742 
Q 1991 1309 1228 531 
z
" transform="scale(0.015625)"/>
       </defs>
       <use xlink:href="#DejaVuSans-31"/>
       <use xlink:href="#DejaVuSans-32" transform="translate(63.623047 0)"/>
       <use xlink:href="#DejaVuSans-30" transform="translate(127.246094 0)"/>
       <use xlink:href="#DejaVuSans-30" transform="translate(190.869141 0)"/>
       <use xlink:href="#DejaVuSans-30" transform="translate(254.492188 0)"/>
       <use xlink:href="#DejaVuSans-30" transform="translate(318.115234 0)"/>
      </g>
     </g>
    </g>
    <g id="text_4">
     <!-- Price -->
     <g transform="translate(14.798438 70.171375) rotate(-90) scale(0.1 -0.1)">
      <defs>
       <path id="DejaVuSans-50" d="M 1259 4147 
L 1259 2394 
L 2053 2394 
Q 2494 2394 2734 2622 
Q 2975 2850 2975 3272 
Q 2975 3691 2734 3919 
Q 2494 4147 2053 4147 
L 1259 4147 
z
M 628 4666 
L 2053 4666 
Q 2838 4666 3239 4311 
Q 3641 3956 3641 3272 
Q 3641 2581 3239 2228 
Q 2838 1875 2053 1875 
L 1259 1875 
L 1259 0 
L 628 0 
L 628 4666 
z
" transform="scale(0.015625)"/>
       <path id="DejaVuSans-72" d="M 2631 2963 
Q 2534 3019 2420 3045 
Q 2306 3072 2169 3072 
Q 1681 3072 1420 2755 
Q 1159 2438 1159 1844 
L 1159 0 
L 581 0 
L 581 3500 
L 1159 3500 
L 1159 2956 
Q 1341 3275 1631 3429 
Q 1922 3584 2338 3584 
Q 2397 3584 2469 3576 
Q 2541 3569 2628 3553 
L 2631 2963 
z
" transform="scale(0.015625)"/>
       <path id="DejaVuSans-69" d="M 603 3500 
L 1178 3500 
L 1178 0 
L 603 0 
L 603 3500 
z
M 603 4863 
L 1178 4863 
L 1178 4134 
L 603 4134 
L 603 4863 
z
" transform="scale(0.015625)"/>
       <path id="DejaVuSans-63" d="M 3122 3366 
L 3122 2828 
Q 2878 2963 2633 3030 
Q 2388 3097 2138 3097 
Q 1578 3097 1268 2742 
Q 959 2388 959 1747 
Q 959 1106 1268 751 
Q 1578 397 2138 397 
Q 2388 397 2633 464 
Q 2878 531 3122 666 
L 3122 134 
Q 2881 22 2623 -34 
Q 2366 -91 2075 -91 
Q 1284 -91 818 406 
Q 353 903 353 1747 
Q 353 2603 823 3093 
Q 1294 3584 2113 3584 
Q 2378 3584 2631 3529 
Q 2884 3475 3122 3366 
z
" transform="scale(0.015625)"/>
       <path id="DejaVuSans-65" d="M 3597 1894 
L 3597 1613 
L 953 1613 
Q 991 1019 1311 708 
Q 1631 397 2203 397 
Q 2534 397 2845 478 
Q 3156 559 3463 722 
L 3463 178 
Q 3153 47 2828 -22 
Q 2503 -91 2169 -91 
Q 1331 -91 842 396 
Q 353 884 353 1716 
Q 353 2575 817 3079 
Q 1281 3584 2069 3584 
Q 2775 3584 3186 3129 
Q 3597 2675 3597 1894 
z
M 3022 2063 
Q 3016 2534 2758 2815 
Q 2500 3097 2075 3097 
Q 1594 3097 1305 2825 
Q 1016 2553 972 2059 
L 3022 2063 
z
" transform="scale(0.015625)"/>
      </defs>
      <use xlink:href="#DejaVuSans-50"/>
      <use xlink:href="#DejaVuSans-72" transform="translate(58.552734 0)"/>
      <use xlink:href="#DejaVuSans-69" transform="translate(99.666016 0)"/>
      <use xlink:href="#DejaVuSans-63" transform="translate(127.449219 0)"/>
      <use xlink:href="#DejaVuSans-65" transform="translate(182.429688 0)"/>
     </g>
    </g>
   </g>
   <g id="line2d_24">
    <path d="M 71.022959 72.601509 
L 71.533296 72.051837 
L 72.543036 75.949668 
L 73.74962 67.307313 
L 74.068582 72.711918 
L 74.865073 68.317925 
L 76.563769 68.98207 
L 77.216272 75.141585 
L 78.393694 68.1347 
L 78.532215 69.292298 
L 79.778897 64.696453 
L 80.506128 64.421448 
L 81.384638 69.044386 
L 81.521336 71.891981 
L 82.038964 60.789139 
L 83.23279 65.984441 
L 83.943618 61.596206 
L 84.853113 60.908014 
L 85.935758 63.637072 
L 86.825204 64.642604 
L 87.390221 62.453397 
L 88.434591 62.894015 
L 88.930347 58.208083 
L 89.526349 60.643508 
L 89.819793 58.080402 
L 90.749337 58.95351 
L 91.478391 60.917159 
L 92.016068 59.920094 
L 93.510629 65.476765 
L 94.478448 62.911965 
L 95.067159 62.911965 
L 96.28468 68.809006 
L 96.399506 68.618331 
L 97.87584 64.739465 
L 98.132831 60.966267 
L 98.683267 65.182455 
L 99.470646 62.841859 
L 100.673585 56.54755 
L 101.984059 59.843214 
L 102.100708 55.455995 
L 102.377748 55.947076 
L 103.467684 65.890628 
L 104.125655 61.1881 
L 104.484714 64.85597 
L 105.361402 64.754706 
L 106.259961 62.464912 
L 107.821959 63.546307 
L 108.120871 64.244658 
L 109.274599 63.34073 
L 109.830503 65.404288 
L 109.872423 65.277623 
L 109.92528 66.547322 
L 111.7789 66.173762 
L 112.63007 64.60772 
L 112.819624 64.932172 
L 114.299604 63.989973 
L 114.365219 64.125105 
L 114.532901 62.339601 
L 116.145933 62.121832 
L 117.449117 63.698034 
L 118.781463 61.82278 
L 118.79969 61.503747 
L 119.625343 64.410949 
L 120.584049 63.536147 
L 121.77423 59.901128 
L 122.222598 60.551388 
L 123.354455 56.973606 
L 124.646703 59.851681 
L 125.301029 58.438383 
L 126.232395 62.093383 
L 126.493032 62.621042 
L 127.929268 55.837006 
L 129.226985 58.249401 
L 129.722741 56.857101 
L 130.298694 63.913094 
L 130.745239 63.508714 
L 131.853402 60.96796 
L 132.332755 61.425513 
L 133.158408 63.506004 
L 134.337653 61.929464 
L 135.001092 57.314315 
L 135.294536 59.36568 
L 136.592253 52.211132 
L 136.76358 52.161347 
L 138.203462 55.891533 
L 138.928871 53.127592 
L 139.701668 54.038971 
L 140.631212 51.657734 
L 141.427703 51.529037 
L 142.284342 53.800881 
L 143.275855 54.820637 
L 143.47999 50.804946 
L 144.249142 51.095192 
L 144.712091 52.520344 
L 145.663507 51.434546 
L 146.582115 45.342089 
L 147.994657 47.367715 
L 148.641693 49.395034 
L 148.758341 48.995734 
L 149.802711 50.373133 
L 150.163593 50.038859 
L 152.02268 43.83667 
L 152.553067 46.872231 
L 153.455272 45.166316 
L 153.732312 47.215649 
L 155.064658 47.16688 
L 156.118141 45.677718 
L 157.193496 47.370086 
L 157.959003 48.890067 
L 158.919531 46.390294 
L 160.215425 46.390632 
L 160.390398 46.938273 
L 160.674729 46.060422 
L 161.267085 47.822558 
L 162.081803 47.070357 
L 162.805389 45.846379 
L 163.59459 46.819736 
L 164.602507 48.927322 
L 165.486485 48.386116 
L 166.244701 45.914114 
L 166.594647 46.208763 
L 167.256264 49.948432 
L 168.639644 43.983317 
L 169.452539 50.690135 
L 170.20711 49.10682 
L 170.801289 51.603546 
L 171.240544 51.434208 
L 172.494517 48.047439 
L 173.178005 47.848975 
L 173.992723 49.715423 
L 174.955074 49.72389 
L 175.521913 46.438724 
L 176.961795 48.72547 
L 177.678091 50.418177 
L 178.295964 46.354055 
L 178.501922 46.83396 
L 179.76683 43.12511 
L 180.91509 44.237325 
L 181.394443 42.696684 
L 181.955815 45.541231 
L 182.677578 41.978689 
L 182.983781 42.938499 
L 184.458293 46.192168 
L 185.630247 45.266564 
L 185.923691 50.357215 
L 185.963789 50.032763 
L 187.164906 43.140351 
L 187.538546 45.672976 
L 188.479026 39.919195 
L 189.392166 43.009622 
L 190.901308 42.712941 
L 191.51189 40.257872 
L 192.795025 39.905987 
L 193.021032 41.934323 
L 193.431125 41.147576 
L 193.999787 43.997203 
L 195.210017 42.090453 
L 196.307243 43.814656 
L 196.693642 42.774241 
L 197.861951 45.399325 
L 198.385047 44.799529 
L 198.621989 47.920435 
L 199.95069 49.10682 
L 200.785457 47.373811 
L 201.49993 47.208537 
L 202.28184 48.010185 
L 202.433119 47.912307 
L 203.406406 46.343217 
L 203.894872 47.32301 
L 205.522485 45.762048 
L 206.490305 47.109304 
L 207.295909 46.358458 
L 208.121563 47.567196 
L 209.397407 47.811043 
L 209.754644 46.853942 
L 210.246755 46.778756 
L 210.700592 48.213052 
L 211.569988 47.086274 
L 212.77475 48.657058 
L 213.130164 47.439176 
L 214.303941 48.721406 
L 214.464333 47.812398 
L 215.536042 52.322896 
L 215.957071 50.771756 
L 216.531201 60.029148 
L 217.632072 58.993474 
L 218.802204 55.870874 
L 218.942547 54.922579 
L 219.728103 58.648363 
L 220.446221 59.721629 
L 221.08232 56.51436 
L 221.793148 56.937029 
L 222.564123 61.325942 
L 223.353324 57.389501 
L 224.2774 55.44177 
L 225.704523 55.466494 
L 225.946933 57.986588 
L 226.47003 56.531294 
L 227.530803 61.401466 
L 228.549656 60.209324 
L 229.096447 58.207744 
L 229.697916 62.291509 
L 230.262933 57.244886 
L 230.924549 58.378437 
L 231.717396 55.955204 
L 232.490193 57.040325 
L 233.541853 53.282706 
L 233.818894 53.983767 
L 235.167644 55.61348 
L 235.406409 54.820976 
L 236.691367 61.022148 
L 237.347515 61.46446 
L 238.045584 59.278301 
L 238.31898 60.31025 
L 239.277686 64.445494 
L 239.926544 61.122397 
L 240.486093 71.11404 
L 242.084544 70.41806 
L 242.57301 67.474281 
L 242.795371 67.229756 
L 243.969148 69.620476 
L 244.865885 67.465136 
L 245.423611 71.077463 
L 245.729814 70.523388 
L 246.19094 67.35168 
L 247.454026 65.473039 
L 247.845893 69.733932 
L 249.715916 68.696565 
L 250.078621 67.485796 
L 250.348371 67.486134 
L 251.739041 69.459943 
L 252.065293 68.368049 
L 253.384881 69.167326 
L 254.507624 68.524856 
L 254.904958 68.667778 
L 256.025879 67.318489 
L 256.122478 67.708984 
L 257.766495 68.958024 
L 258.460919 68.118444 
L 259.151698 69.298055 
L 260.491334 65.4473 
L 260.638968 66.605236 
L 261.783583 63.459944 
L 262.097076 64.388257 
L 262.49441 58.655475 
L 264.823738 61.161006 
L 265.035163 59.468299 
L 266.311008 58.365229 
L 266.413075 60.006795 
L 266.593516 59.39887 
L 266.979915 52.250757 
L 268.232065 53.259337 
L 268.654917 51.727502 
L 269.972682 50.516393 
L 271.017051 52.756402 
L 271.055327 52.446174 
L 272.445997 57.312621 
L 272.549888 57.228291 
L 273.512239 54.133462 
L 274.414443 57.170716 
L 275.263791 51.434208 
L 275.595511 50.604449 
L 276.169641 53.67828 
L 277.523858 52.624318 
L 277.915725 50.842878 
L 278.513549 51.552406 
L 279.949786 43.360829 
L 280.113823 44.971915 
L 281.174596 39.06065 
L 281.56464 43.569793 
L 282.745708 39.157173 
L 283.008167 40.282596 
L 283.32166 34.678172 
L 284.486324 36.362411 
L 284.952919 38.356202 
L 285.980885 37.319851 
L 287.418944 33.480949 
L 287.581158 37.379119 
L 288.867939 29.390072 
L 289.010104 29.535364 
L 289.808418 32.235973 
L 291.018648 31.179301 
L 292.489514 35.008382 
L 293.111033 30.915811 
L 294.21555 32.750762 
L 294.86623 19.493935 
L 295.289082 27.421005 
L 296.590443 23.58786 
L 297.736881 26.757875 
L 297.920967 26.176706 
L 298.500565 23.176029 
L 300.653097 25.970113 
L 300.90462 24.263859 
L 302.382777 27.320418 
L 302.397358 27.244554 
L 303.815368 24.529721 
L 304.07236 25.186754 
L 305.202393 13.878673 
L 305.382834 14.691497 
L 306.722471 23.997659 
L 307.230986 20.949229 
L 308.282647 23.399895 
L 308.623479 24.505675 
L 308.683626 21.127035 
L 309.990456 24.098924 
L 310.757785 18.214753 
L 311.468613 18.567654 
L 312.161214 21.29197 
L 312.879332 21.299082 
L 314.182516 16.892897 
L 314.5999 17.566525 
L 315.62422 13.164065 
L 316.076234 11.815793 
L 316.763367 17.058171 
L 317.847835 15.513805 
L 318.731813 18.561896 
L 318.841171 16.929474 
L 319.896477 20.993935 
L 321.201483 15.222881 
L 321.695418 23.759231 
L 321.802953 23.134372 
L 322.783531 30.454194 
L 323.640169 25.043155 
L 324.515034 28.173206 
L 325.063647 25.146112 
L 326.102549 28.976209 
L 326.545449 28.197252 
L 327.553366 21.969324 
L 328.28242 27.025769 
L 329.483537 18.751894 
L 330.347466 23.081538 
L 331.058294 21.024415 
L 332.044339 27.466726 
L 332.483594 25.183706 
L 333.73939 28.810596 
L 333.750325 28.769616 
L 334.82568 20.141485 
L 335.26129 24.00511 
L 336.048668 33.446404 
L 336.836046 29.726716 
L 338.224894 26.382283 
L 338.881043 29.419875 
L 340.330038 29.639338 
L 340.751066 26.930939 
L 341.946715 24.346835 
L 342.493506 37.654464 
L 342.774191 34.557264 
L 344.1357 84.12973 
L 344.195847 65.451364 
L 344.810075 50.003298 
L 345.759667 55.081757 
L 347.17221 65.726708 
L 347.236002 65.624428 
L 348.46628 58.03468 
L 348.675883 57.939512 
L 349.643703 61.323909 
L 350.349062 59.630187 
L 350.930483 67.487489 
L 352.563564 67.683244 
L 353.110354 59.957348 
L 353.584239 59.180424 
L 354.357037 62.456106 
L 355.931793 62.440866 
L 356.115879 54.058614 
L 356.197898 57.953398 
L 357.61044 47.991219 
L 357.896594 51.81996 
L 358.687617 46.624997 
L 359.16697 46.437708 
L 360.322521 51.217116 
L 360.770889 47.754823 
L 361.869938 53.973945 
L 362.458649 47.839153 
L 362.855984 53.166201 
L 363.681637 51.865682 
L 364.268526 46.43737 
L 365.12881 47.405985 
L 366.315345 55.261256 
L 366.931396 54.183925 
L 367.376118 61.638879 
L 369.324515 66.570691 
L 369.523183 59.248498 
L 369.796578 62.610204 
L 370.979468 54.508377 
L 371.068777 59.351456 
L 371.730393 54.482299 
L 372.997125 54.482299 
L 373.438202 60.461638 
L 374.721338 54.691601 
L 375.510538 60.296703 
L 376.327079 58.927432 
L 376.815545 65.03513 
L 377.207412 65.82086 
L 377.838043 61.324248 
L 379.345363 65.243755 
L 380.094465 60.49449 
L 381.445038 64.975862 
L 381.893406 67.690695 
L 382.575072 60.070467 
L 383.021617 61.493248 
L 383.860029 75.150391 
L 384.558099 70.998213 
L 385.000999 74.931267 
L 386.008916 73.58164 
L 387.120723 69.384079 
L 387.541752 70.433977 
L 388.941536 88.375043 
L 389.23498 78.471794 
L 390.468904 79.729979 
L 390.561858 75.162583 
L 392.231392 75.213046 
L 392.900299 78.946958 
L 394.192547 78.455877 
L 394.879681 75.166647 
L 395.07288 75.658745 
L 395.123914 77.821535 
L 397.121522 76.280894 
L 397.580826 78.376965 
L 398.018258 77.512323 
L 398.679875 75.683468 
L 399.904685 77.557367 
L 400.764969 75.70853 
L 401.202401 76.109185 
L 402.368888 79.797714 
L 402.418099 79.018419 
L 403.766849 71.653214 
L 403.903546 72.39898 
L 405.06092 68.558046 
L 406.132629 68.863533 
L 406.675774 75.254026 
L 407.136901 73.549127 
L 408.33255 62.234611 
L 408.968649 61.180311 
L 409.697703 64.370646 
L 411.042808 60.961187 
L 411.31438 66.172746 
L 411.558613 66.844003 
L 412.262151 62.319281 
L 412.976623 63.627589 
L 414.31626 68.821537 
L 414.407392 68.066288 
L 415.061718 75.042692 
L 415.869145 75.035579 
L 416.893466 68.384305 
L 417.34548 72.533435 
L 418.101873 53.12793 
L 418.876493 59.270173 
L 420.123175 72.647908 
L 420.383812 73.651746 
L 420.852229 71.13707 
L 422.051523 72.127023 
L 422.279352 74.361951 
L 423.369288 76.566399 
L 424.497499 69.795233 
L 424.97503 70.949105 
L 426.340183 77.700966 
L 427.435587 71.963442 
L 427.787355 72.64723 
L 429.019457 65.658634 
L 430.503082 70.802458 
L 431.146472 70.738448 
L 432.199955 62.304718 
L 432.287441 63.703114 
L 433.043835 68.433413 
L 433.940571 66.564595 
L 435.207303 61.910159 
L 436.335514 64.080061 
L 436.712799 61.645314 
L 437.472838 60.00307 
L 438.026919 67.39503 
L 438.498981 67.026889 
L 439.468623 63.467395 
L 439.762067 64.334408 
L 441.191013 62.525874 
L 441.221998 63.287896 
L 442.46868 61.589093 
L 443.369062 60.598125 
L 443.673442 61.856987 
L 444.462643 60.152088 
L 445.357557 62.547549 
L 445.784053 62.135718 
L 446.07932 60.849085 
L 447.832695 60.189342 
L 448.760416 62.358906 
L 450.081827 60.430819 
L 450.223992 60.663151 
L 451.523531 53.306752 
L 451.806039 53.635946 
L 452.245294 55.469881 
L 453.723451 56.650169 
L 454.618365 49.488509 
L 454.691271 50.785641 
L 456.085586 47.801899 
L 456.470162 45.456562 
L 457.047938 50.260692 
L 457.778814 48.047439 
L 458.535208 51.294673 
L 459.647015 47.078485 
L 460.578382 52.596208 
L 460.839018 51.137188 
L 462.100282 54.430143 
L 462.982437 54.506006 
L 463.525582 52.201649 
L 463.645876 52.670378 
L 465.100339 49.740823 
L 465.386493 46.274805 
L 465.501319 51.941884 
L 466.711548 49.673427 
L 467.318486 58.948769 
L 468.091283 56.279996 
L 468.554232 59.485572 
L 470.435192 54.478912 
L 470.858043 57.036938 
L 471.973496 54.478912 
L 473.462588 69.082657 
L 474.297355 60.526664 
L 475.031877 67.521018 
L 476.27856 73.19758 
L 477.087809 61.394016 
L 478.533159 70.657165 
L 478.57508 69.835535 
L 479.949346 77.332824 
L 480.713031 79.163034 
L 481.259821 73.636844 
L 481.607944 74.734834 
L 482.169316 66.690921 
L 484.186973 69.546983 
L 484.491353 65.326731 
L 485.273263 64.667666 
L 485.697937 68.916367 
L 486.157241 63.287896 
L 486.683983 71.503857 
L 487.496878 66.369517 
L 487.89239 69.160891 
L 489.427048 68.432736 
L 489.864481 65.248835 
L 491.052839 66.156489 
L 491.594161 67.333052 
L 492.073514 66.30212 
L 492.592965 67.791959 
L 494.898599 66.286202 
L 494.975149 67.426866 
L 496.26193 66.233707 
L 496.458774 67.01368 
L 497.787475 63.541904 
L 498.99406 63.229305 
L 499.349473 66.150054 
L 499.546318 64.586045 
L 500.164191 67.899659 
L 501.966777 68.366694 
L 502.424259 64.305282 
L 503.612617 75.236415 
L 503.937046 73.786878 
L 504.890284 76.859015 
L 506.401248 72.457233 
L 506.809518 81.809793 
L 506.977201 82.576219 
L 507.323501 74.480488 
L 508.792545 80.861498 
L 509.69475 76.069898 
L 510.385528 75.964909 
L 510.926851 86.282698 
L 511.408026 84.925281 
L 512.053239 88.410605 
L 513.624351 84.523611 
L 514.152915 97.774341 
L 515.394129 104.131644 
L 515.667524 94.513561 
L 516.546035 104.018187 
L 517.154795 92.941762 
L 517.561242 92.88859 
L 518.459801 96.478225 
L 519.181565 96.105681 
L 520.313421 89.047994 
L 520.36081 90.971679 
L 521.567394 85.437022 
L 521.840789 85.302229 
L 523.33535 91.249055 
L 524.270362 86.603086 
L 525.799552 91.567073 
L 526.922296 88.597893 
L 527.684157 99.540541 
L 528.285627 92.966824 
L 528.981873 98.679625 
L 529.896836 98.070684 
L 530.727957 92.892992 
L 531.480706 92.284051 
L 532.233454 95.496062 
L 532.280842 95.428327 
L 533.443684 103.177253 
L 533.943086 102.204912 
L 535.260851 90.850432 
L 535.273609 91.394686 
L 536.077391 87.012208 
L 537.571952 89.549913 
L 538.244504 92.475065 
L 538.722035 93.971678 
L 539.095675 91.671046 
L 539.853891 91.771295 
L 540.695948 95.462195 
L 542.019181 93.14192 
L 542.13583 95.212251 
L 543.313252 92.245104 
L 543.550195 95.095408 
L 544.446931 95.69893 
L 544.691164 93.598456 
L 546.342471 95.369397 
L 546.974926 92.426973 
L 547.2064 92.990193 
L 547.986488 86.656936 
L 548.731946 88.429909 
L 550.024194 82.346596 
L 550.321284 85.979244 
L 550.64389 78.211691 
L 552.938588 80.62815 
L 553.100802 78.2503 
L 554.059508 78.528353 
L 554.555265 84.745105 
L 554.82866 84.760007 
L 556.07352 79.387238 
L 556.54376 82.682902 
L 557.537096 75.480262 
L 558.114871 76.678839 
L 558.900427 83.962084 
L 559.427168 84.517853 
L 560.613703 82.046528 
L 560.641043 82.928443 
L 561.652605 89.69927 
L 562.518357 88.703899 
L 563.429675 92.177368 
L 564.300894 91.377414 
L 565.110144 89.216317 
L 565.348909 90.212704 
L 566.723176 85.409251 
L 567.525135 82.680531 
L 568.006311 84.082653 
L 568.006311 84.082653 
" clip-path="url(#p8775f09918)" style="fill: none; stroke: #4169e1; stroke-width: 1.5; stroke-linecap: square"/>
   </g>
   <g id="patch_3">
    <path d="M 66.053125 108.747437 
L 66.053125 7.2 
" style="fill: none; stroke: #000000; stroke-width: 0.8; stroke-linejoin: miter; stroke-linecap: square"/>
   </g>
   <g id="patch_4">
    <path d="M 572.976145 108.747437 
L 572.976145 7.2 
" style="fill: none; stroke: #000000; stroke-width: 0.8; stroke-linejoin: miter; stroke-linecap: square"/>
   </g>
   <g id="patch_5">
    <path d="M 66.053125 108.747437 
L 572.976145 108.747437 
" style="fill: none; stroke: #000000; stroke-width: 0.8; stroke-linejoin: miter; stroke-linecap: square"/>
   </g>
   <g id="patch_6">
    <path d="M 66.053125 7.2 
L 572.976145 7.2 
" style="fill: none; stroke: #000000; stroke-width: 0.8; stroke-linejoin: miter; stroke-linecap: square"/>
   </g>
  </g>
  <g id="axes_2">
   <g id="patch_7">
    <path d="M 66.053125 219.795353 
L 572.976145 219.795353 
L 572.976145 118.247917 
L 66.053125 118.247917 
z
" style="fill: #ffffff"/>
   </g>
   <g id="matplotlib.axis_3">
    <g id="xtick_21">
     <g id="line2d_25">
      <g>
       <use xlink:href="#m7cb225d09f" x="71.022959" y="219.795353" style="stroke: #000000; stroke-width: 0.8"/>
      </g>
     </g>
    </g>
    <g id="xtick_22">
     <g id="line2d_26">
      <g>
       <use xlink:href="#m7cb225d09f" x="98.41003" y="219.795353" style="stroke: #000000; stroke-width: 0.8"/>
      </g>
     </g>
    </g>
    <g id="xtick_23">
     <g id="line2d_27">
      <g>
       <use xlink:href="#m7cb225d09f" x="125.797102" y="219.795353" style="stroke: #000000; stroke-width: 0.8"/>
      </g>
     </g>
    </g>
    <g id="xtick_24">
     <g id="line2d_28">
      <g>
       <use xlink:href="#m7cb225d09f" x="153.184174" y="219.795353" style="stroke: #000000; stroke-width: 0.8"/>
      </g>
     </g>
    </g>
    <g id="xtick_25">
     <g id="line2d_29">
      <g>
       <use xlink:href="#m7cb225d09f" x="180.571246" y="219.795353" style="stroke: #000000; stroke-width: 0.8"/>
      </g>
     </g>
    </g>
    <g id="xtick_26">
     <g id="line2d_30">
      <g>
       <use xlink:href="#m7cb225d09f" x="207.958318" y="219.795353" style="stroke: #000000; stroke-width: 0.8"/>
      </g>
     </g>
    </g>
    <g id="xtick_27">
     <g id="line2d_31">
      <g>
       <use xlink:href="#m7cb225d09f" x="235.34539" y="219.795353" style="stroke: #000000; stroke-width: 0.8"/>
      </g>
     </g>
    </g>
    <g id="xtick_28">
     <g id="line2d_32">
      <g>
       <use xlink:href="#m7cb225d09f" x="262.732462" y="219.795353" style="stroke: #000000; stroke-width: 0.8"/>
      </g>
     </g>
    </g>
    <g id="xtick_29">
     <g id="line2d_33">
      <g>
       <use xlink:href="#m7cb225d09f" x="276.425998" y="219.795353" style="stroke: #000000; stroke-width: 0.8"/>
      </g>
     </g>
    </g>
    <g id="xtick_30">
     <g id="line2d_34">
      <g>
       <use xlink:href="#m7cb225d09f" x="303.81307" y="219.795353" style="stroke: #000000; stroke-width: 0.8"/>
      </g>
     </g>
    </g>
    <g id="xtick_31">
     <g id="line2d_35">
      <g>
       <use xlink:href="#m7cb225d09f" x="331.200142" y="219.795353" style="stroke: #000000; stroke-width: 0.8"/>
      </g>
     </g>
    </g>
    <g id="xtick_32">
     <g id="line2d_36">
      <g>
       <use xlink:href="#m7cb225d09f" x="358.587214" y="219.795353" style="stroke: #000000; stroke-width: 0.8"/>
      </g>
     </g>
    </g>
    <g id="xtick_33">
     <g id="line2d_37">
      <g>
       <use xlink:href="#m7cb225d09f" x="385.974286" y="219.795353" style="stroke: #000000; stroke-width: 0.8"/>
      </g>
     </g>
    </g>
    <g id="xtick_34">
     <g id="line2d_38">
      <g>
       <use xlink:href="#m7cb225d09f" x="413.361358" y="219.795353" style="stroke: #000000; stroke-width: 0.8"/>
      </g>
     </g>
    </g>
    <g id="xtick_35">
     <g id="line2d_39">
      <g>
       <use xlink:href="#m7cb225d09f" x="440.74843" y="219.795353" style="stroke: #000000; stroke-width: 0.8"/>
      </g>
     </g>
    </g>
    <g id="xtick_36">
     <g id="line2d_40">
      <g>
       <use xlink:href="#m7cb225d09f" x="468.135502" y="219.795353" style="stroke: #000000; stroke-width: 0.8"/>
      </g>
     </g>
    </g>
    <g id="xtick_37">
     <g id="line2d_41">
      <g>
       <use xlink:href="#m7cb225d09f" x="488.675806" y="219.795353" style="stroke: #000000; stroke-width: 0.8"/>
      </g>
     </g>
    </g>
    <g id="xtick_38">
     <g id="line2d_42">
      <g>
       <use xlink:href="#m7cb225d09f" x="516.062878" y="219.795353" style="stroke: #000000; stroke-width: 0.8"/>
      </g>
     </g>
    </g>
    <g id="xtick_39">
     <g id="line2d_43">
      <g>
       <use xlink:href="#m7cb225d09f" x="543.44995" y="219.795353" style="stroke: #000000; stroke-width: 0.8"/>
      </g>
     </g>
    </g>
    <g id="xtick_40">
     <g id="line2d_44">
      <g>
       <use xlink:href="#m7cb225d09f" x="570.837022" y="219.795353" style="stroke: #000000; stroke-width: 0.8"/>
      </g>
     </g>
    </g>
   </g>
   <g id="matplotlib.axis_4">
    <g id="ytick_4">
     <g id="line2d_45">
      <g>
       <use xlink:href="#m7530566f11" x="66.053125" y="213.645143" style="stroke: #000000; stroke-width: 0.8"/>
      </g>
     </g>
     <g id="text_5">
      <!-- 1000 -->
      <g transform="translate(33.603125 217.444362) scale(0.1 -0.1)">
       <use xlink:href="#DejaVuSans-31"/>
       <use xlink:href="#DejaVuSans-30" transform="translate(63.623047 0)"/>
       <use xlink:href="#DejaVuSans-30" transform="translate(127.246094 0)"/>
       <use xlink:href="#DejaVuSans-30" transform="translate(190.869141 0)"/>
      </g>
     </g>
    </g>
    <g id="ytick_5">
     <g id="line2d_46">
      <g>
       <use xlink:href="#m7530566f11" x="66.053125" y="189.209955" style="stroke: #000000; stroke-width: 0.8"/>
      </g>
     </g>
     <g id="text_6">
      <!-- 1050 -->
      <g transform="translate(33.603125 193.009174) scale(0.1 -0.1)">
       <defs>
        <path id="DejaVuSans-35" d="M 691 4666 
L 3169 4666 
L 3169 4134 
L 1269 4134 
L 1269 2991 
Q 1406 3038 1543 3061 
Q 1681 3084 1819 3084 
Q 2600 3084 3056 2656 
Q 3513 2228 3513 1497 
Q 3513 744 3044 326 
Q 2575 -91 1722 -91 
Q 1428 -91 1123 -41 
Q 819 9 494 109 
L 494 744 
Q 775 591 1075 516 
Q 1375 441 1709 441 
Q 2250 441 2565 725 
Q 2881 1009 2881 1497 
Q 2881 1984 2565 2268 
Q 2250 2553 1709 2553 
Q 1456 2553 1204 2497 
Q 953 2441 691 2322 
L 691 4666 
z
" transform="scale(0.015625)"/>
       </defs>
       <use xlink:href="#DejaVuSans-31"/>
       <use xlink:href="#DejaVuSans-30" transform="translate(63.623047 0)"/>
       <use xlink:href="#DejaVuSans-35" transform="translate(127.246094 0)"/>
       <use xlink:href="#DejaVuSans-30" transform="translate(190.869141 0)"/>
      </g>
     </g>
    </g>
    <g id="ytick_6">
     <g id="line2d_47">
      <g>
       <use xlink:href="#m7530566f11" x="66.053125" y="164.774767" style="stroke: #000000; stroke-width: 0.8"/>
      </g>
     </g>
     <g id="text_7">
      <!-- 1100 -->
      <g transform="translate(33.603125 168.573986) scale(0.1 -0.1)">
       <use xlink:href="#DejaVuSans-31"/>
       <use xlink:href="#DejaVuSans-31" transform="translate(63.623047 0)"/>
       <use xlink:href="#DejaVuSans-30" transform="translate(127.246094 0)"/>
       <use xlink:href="#DejaVuSans-30" transform="translate(190.869141 0)"/>
      </g>
     </g>
    </g>
    <g id="ytick_7">
     <g id="line2d_48">
      <g>
       <use xlink:href="#m7530566f11" x="66.053125" y="140.339579" style="stroke: #000000; stroke-width: 0.8"/>
      </g>
     </g>
     <g id="text_8">
      <!-- 1150 -->
      <g transform="translate(33.603125 144.138797) scale(0.1 -0.1)">
       <use xlink:href="#DejaVuSans-31"/>
       <use xlink:href="#DejaVuSans-31" transform="translate(63.623047 0)"/>
       <use xlink:href="#DejaVuSans-35" transform="translate(127.246094 0)"/>
       <use xlink:href="#DejaVuSans-30" transform="translate(190.869141 0)"/>
      </g>
     </g>
    </g>
    <g id="text_9">
     <!-- Equity -->
     <g transform="translate(14.798438 184.832572) rotate(-90) scale(0.1 -0.1)">
      <defs>
       <path id="DejaVuSans-45" d="M 628 4666 
L 3578 4666 
L 3578 4134 
L 1259 4134 
L 1259 2753 
L 3481 2753 
L 3481 2222 
L 1259 2222 
L 1259 531 
L 3634 531 
L 3634 0 
L 628 0 
L 628 4666 
z
" transform="scale(0.015625)"/>
       <path id="DejaVuSans-71" d="M 947 1747 
Q 947 1113 1208 752 
Q 1469 391 1925 391 
Q 2381 391 2643 752 
Q 2906 1113 2906 1747 
Q 2906 2381 2643 2742 
Q 2381 3103 1925 3103 
Q 1469 3103 1208 2742 
Q 947 2381 947 1747 
z
M 2906 525 
Q 2725 213 2448 61 
Q 2172 -91 1784 -91 
Q 1150 -91 751 415 
Q 353 922 353 1747 
Q 353 2572 751 3078 
Q 1150 3584 1784 3584 
Q 2172 3584 2448 3432 
Q 2725 3281 2906 2969 
L 2906 3500 
L 3481 3500 
L 3481 -1331 
L 2906 -1331 
L 2906 525 
z
" transform="scale(0.015625)"/>
       <path id="DejaVuSans-75" d="M 544 1381 
L 544 3500 
L 1119 3500 
L 1119 1403 
Q 1119 906 1312 657 
Q 1506 409 1894 409 
Q 2359 409 2629 706 
Q 2900 1003 2900 1516 
L 2900 3500 
L 3475 3500 
L 3475 0 
L 2900 0 
L 2900 538 
Q 2691 219 2414 64 
Q 2138 -91 1772 -91 
Q 1169 -91 856 284 
Q 544 659 544 1381 
z
M 1991 3584 
L 1991 3584 
z
" transform="scale(0.015625)"/>
       <path id="DejaVuSans-74" d="M 1172 4494 
L 1172 3500 
L 2356 3500 
L 2356 3053 
L 1172 3053 
L 1172 1153 
Q 1172 725 1289 603 
Q 1406 481 1766 481 
L 2356 481 
L 2356 0 
L 1766 0 
Q 1100 0 847 248 
Q 594 497 594 1153 
L 594 3053 
L 172 3053 
L 172 3500 
L 594 3500 
L 594 4494 
L 1172 4494 
z
" transform="scale(0.015625)"/>
       <path id="DejaVuSans-79" d="M 2059 -325 
Q 1816 -950 1584 -1140 
Q 1353 -1331 966 -1331 
L 506 -1331 
L 506 -850 
L 844 -850 
Q 1081 -850 1212 -737 
Q 1344 -625 1503 -206 
L 1606 56 
L 191 3500 
L 800 3500 
L 1894 763 
L 2988 3500 
L 3597 3500 
L 2059 -325 
z
" transform="scale(0.015625)"/>
      </defs>
      <use xlink:href="#DejaVuSans-45"/>
      <use xlink:href="#DejaVuSans-71" transform="translate(63.183594 0)"/>
      <use xlink:href="#DejaVuSans-75" transform="translate(126.660156 0)"/>
      <use xlink:href="#DejaVuSans-69" transform="translate(190.039062 0)"/>
      <use xlink:href="#DejaVuSans-74" transform="translate(217.822266 0)"/>
      <use xlink:href="#DejaVuSans-79" transform="translate(257.03125 0)"/>
     </g>
    </g>
   </g>
   <g id="line2d_49">
    <path d="M 71.022959 213.645143 
L 144.167124 213.645143 
L 144.712091 215.179561 
L 145.663507 213.926133 
L 146.582115 206.8931 
L 147.994657 209.23145 
L 148.641693 211.571754 
L 148.758341 211.110809 
L 149.802711 212.700855 
L 150.163593 212.314975 
L 152.02268 205.155269 
L 152.553067 208.659471 
L 153.455272 206.69019 
L 153.732312 209.055907 
L 155.064658 208.999608 
L 156.118141 207.280544 
L 157.193496 209.234186 
L 157.959003 210.988828 
L 158.919531 208.10313 
L 160.215425 208.103521 
L 160.390398 208.735708 
L 160.674729 207.722332 
L 161.267085 209.756513 
L 162.081803 208.888184 
L 162.805389 207.475244 
L 163.59459 208.598871 
L 164.602507 211.031834 
L 165.486485 210.407075 
L 166.244701 207.553436 
L 166.594647 207.893574 
L 167.256264 212.210588 
L 168.058223 210.086486 
L 168.639644 205.324556 
L 169.543671 210.011421 
L 184.469229 210.011421 
L 185.923691 211.994272 
L 185.941918 209.669997 
L 185.963789 211.61973 
L 187.164906 203.663242 
L 187.538546 206.586863 
L 188.479026 199.944792 
L 189.392166 203.51233 
L 190.901308 203.169846 
L 191.51189 200.335755 
L 192.795025 199.929545 
L 193.021032 202.271022 
L 193.431125 201.362815 
L 193.999787 204.652378 
L 195.210017 202.451256 
L 196.307243 204.441649 
L 196.693642 203.240611 
L 197.112848 205.227876 
L 199.398432 205.195426 
L 245.671489 205.195426 
L 246.19094 203.875365 
L 246.475271 207.971534 
L 247.454026 201.435609 
L 247.845893 206.969153 
L 249.715916 205.621944 
L 250.078621 204.049539 
L 250.348371 204.049979 
L 251.739041 206.613328 
L 252.065293 205.195305 
L 253.384881 206.233312 
L 254.507624 205.398948 
L 254.904958 205.584558 
L 256.025879 203.832262 
L 256.122478 204.33939 
L 257.766495 205.961495 
L 258.460919 204.871148 
L 259.151698 206.403088 
L 260.491334 201.402182 
L 260.638968 202.905973 
L 261.783583 198.82124 
L 262.097076 200.026823 
L 262.49441 192.581763 
L 264.823738 195.835651 
L 265.035163 193.637364 
L 266.311008 192.204826 
L 266.413075 194.336699 
L 266.593516 193.547198 
L 266.979915 184.264074 
L 268.232065 185.573898 
L 268.654917 183.584532 
L 269.972682 182.011688 
L 271.017051 184.920746 
L 271.055327 184.517858 
L 272.445997 190.837824 
L 272.549888 190.728306 
L 273.512239 186.709108 
L 274.414443 190.653534 
L 275.263791 183.203636 
L 275.595511 182.126044 
L 276.169641 186.117972 
L 277.523858 184.749211 
L 277.915725 182.435687 
L 278.513549 183.357138 
L 279.949786 172.718888 
L 280.113823 174.811175 
L 281.174596 167.134323 
L 281.56464 172.990265 
L 282.745708 167.259676 
L 283.008167 168.721242 
L 283.32166 161.442879 
L 284.486324 163.630171 
L 284.952919 166.21947 
L 285.980885 164.87358 
L 287.418944 159.888068 
L 287.581158 164.950551 
L 288.867939 154.575321 
L 289.010104 154.764009 
L 289.808418 158.271241 
L 291.018648 156.898961 
L 292.489514 161.871717 
L 293.111033 156.55677 
L 294.21555 158.939787 
L 294.86623 141.723389 
L 295.289082 152.01813 
L 296.590443 147.040095 
L 297.736881 151.156936 
L 297.920967 150.402182 
L 298.500565 146.505258 
L 300.653097 150.133883 
L 300.90462 147.918003 
L 302.382777 151.887499 
L 302.397358 151.788976 
L 303.815368 148.263272 
L 304.07236 149.116549 
L 305.202393 134.430952 
L 305.382834 135.486552 
L 306.722471 147.572294 
L 307.230986 143.613353 
L 308.282647 146.795988 
L 308.623479 148.232044 
L 308.683626 143.844266 
L 309.990456 147.703804 
L 310.757785 140.062139 
L 311.468613 140.520445 
L 312.161214 144.058465 
L 312.879332 144.067701 
L 314.182516 138.345469 
L 314.5999 139.220297 
L 315.62422 133.502903 
L 316.076234 131.751927 
L 316.763367 138.560108 
L 317.847835 136.554467 
L 318.731813 140.512968 
L 318.841171 138.392971 
L 319.896477 143.671411 
L 321.201483 136.17665 
L 321.695418 147.262651 
L 321.802953 146.451158 
L 321.826647 149.644349 
L 342.699463 149.644349 
L 344.062794 148.464149 
L 344.1357 193.720806 
L 344.195847 169.463555 
L 344.810075 149.401434 
L 345.759667 155.996736 
L 347.17221 169.821139 
L 347.236002 169.688309 
L 348.46628 159.831643 
L 348.675883 159.70805 
L 349.643703 164.103305 
L 350.349062 161.903698 
L 350.930483 172.107833 
L 352.563564 172.362057 
L 353.110354 162.328577 
L 353.584239 161.3196 
L 354.357037 165.573668 
L 354.783533 164.287595 
L 354.94757 162.592917 
L 356.135928 163.147547 
L 406.8872 163.147547 
L 407.136901 164.183956 
L 408.33255 147.85734 
L 408.968649 146.336006 
L 409.697703 150.939595 
L 411.042808 146.019814 
L 411.31438 153.539988 
L 411.558613 154.508599 
L 412.262151 147.979516 
L 412.976623 149.867379 
L 414.31626 157.36214 
L 414.407392 156.27233 
L 415.061718 166.339139 
L 415.869145 166.328876 
L 416.893466 156.731223 
L 417.34548 162.718333 
L 417.644392 142.40585 
L 418.830927 143.187776 
L 457.640294 143.187776 
L 457.778814 142.817749 
L 458.535208 147.034872 
L 459.647015 141.559386 
L 460.578382 148.725151 
L 460.839018 146.830349 
L 462.100282 151.106849 
L 462.982437 151.205372 
L 463.525582 148.212745 
L 463.645876 148.821475 
L 465.100339 145.016916 
L 465.386493 140.515661 
L 465.501319 147.875393 
L 466.711548 144.929389 
L 467.318486 156.975106 
L 468.091283 153.95697 
L 474.062235 153.95697 
L 475.031877 162.753501 
L 475.720833 156.729738 
L 476.27856 170.944665 
L 477.047712 165.072889 
L 516.597068 165.17871 
L 517.154795 152.039861 
L 517.561242 151.955462 
L 517.834637 155.7717 
L 518.844377 155.626555 
L 533.769935 155.626555 
L 534.648445 157.698513 
L 535.260851 147.260436 
L 535.273609 148.124318 
L 536.077391 141.168109 
L 537.571952 145.196152 
L 538.244504 149.839179 
L 538.722035 152.21472 
L 539.095675 148.562978 
L 539.853891 148.7221 
L 540.695948 154.580583 
L 542.019181 150.897663 
L 542.13583 154.183854 
L 543.313252 149.474167 
L 543.550195 153.998391 
L 544.446931 154.956348 
L 544.691164 151.622313 
L 546.342471 154.433288 
L 546.974926 149.762844 
L 547.2064 150.65683 
L 547.986488 140.604193 
L 548.731946 143.418394 
L 550.024194 133.762487 
L 550.321284 139.528508 
L 550.64389 127.199245 
L 552.938588 131.034836 
L 553.100802 127.260528 
L 554.059508 127.701876 
L 554.555265 137.569587 
L 554.82866 137.593241 
L 556.07352 129.065164 
L 556.54376 134.296298 
L 557.537096 122.863709 
L 558.114871 124.766184 
L 558.900427 136.326716 
L 559.427168 137.208875 
L 560.613703 133.286197 
L 560.641043 134.68604 
L 561.652605 145.433222 
L 562.190283 147.270113 
L 562.518357 143.853291 
L 563.626519 146.516434 
L 568.006311 146.516434 
L 568.006311 146.516434 
" clip-path="url(#p91e7e5537f)" style="fill: none; stroke: #2e8b57; stroke-width: 1.5; stroke-linecap: square"/>
   </g>
   <g id="patch_8">
    <path d="M 66.053125 219.795353 
L 66.053125 118.247917 
" style="fill: none; stroke: #000000; stroke-width: 0.8; stroke-linejoin: miter; stroke-linecap: square"/>
   </g>
   <g id="patch_9">
    <path d="M 572.976145 219.795353 
L 572.976145 118.247917 
" style="fill: none; stroke: #000000; stroke-width: 0.8; stroke-linejoin: miter; stroke-linecap: square"/>
   </g>
   <g id="patch_10">
    <path d="M 66.053125 219.795353 
L 572.976145 219.795353 
" style="fill: none; stroke: #000000; stroke-width: 0.8; stroke-linejoin: miter; stroke-linecap: square"/>
   </g>
   <g id="patch_11">
    <path d="M 66.053125 118.247917 
L 572.976145 118.247917 
" style="fill: none; stroke: #000000; stroke-width: 0.8; stroke-linejoin: miter; stroke-linecap: square"/>
   </g>
  </g>
  <g id="axes_3">
   <g id="patch_12">
    <path d="M 66.053125 330.84327 
L 572.976145 330.84327 
L 572.976145 229.295833 
L 66.053125 229.295833 
z
" style="fill: #ffffff"/>
   </g>
   <g id="matplotlib.axis_5">
    <g id="xtick_41">
     <g id="line2d_50">
      <g>
       <use xlink:href="#m7cb225d09f" x="71.022959" y="330.84327" style="stroke: #000000; stroke-width: 0.8"/>
      </g>
     </g>
     <g id="text_10">
      <!-- Sep -->
      <g transform="translate(61.597959 345.441707) scale(0.1 -0.1)">
       <defs>
        <path id="DejaVuSans-53" d="M 3425 4513 
L 3425 3897 
Q 3066 4069 2747 4153 
Q 2428 4238 2131 4238 
Q 1616 4238 1336 4038 
Q 1056 3838 1056 3469 
Q 1056 3159 1242 3001 
Q 1428 2844 1947 2747 
L 2328 2669 
Q 3034 2534 3370 2195 
Q 3706 1856 3706 1288 
Q 3706 609 3251 259 
Q 2797 -91 1919 -91 
Q 1588 -91 1214 -16 
Q 841 59 441 206 
L 441 856 
Q 825 641 1194 531 
Q 1563 422 1919 422 
Q 2459 422 2753 634 
Q 3047 847 3047 1241 
Q 3047 1584 2836 1778 
Q 2625 1972 2144 2069 
L 1759 2144 
Q 1053 2284 737 2584 
Q 422 2884 422 3419 
Q 422 4038 858 4394 
Q 1294 4750 2059 4750 
Q 2388 4750 2728 4690 
Q 3069 4631 3425 4513 
z
" transform="scale(0.015625)"/>
        <path id="DejaVuSans-70" d="M 1159 525 
L 1159 -1331 
L 581 -1331 
L 581 3500 
L 1159 3500 
L 1159 2969 
Q 1341 3281 1617 3432 
Q 1894 3584 2278 3584 
Q 2916 3584 3314 3078 
Q 3713 2572 3713 1747 
Q 3713 922 3314 415 
Q 2916 -91 2278 -91 
Q 1894 -91 1617 61 
Q 1341 213 1159 525 
z
M 3116 1747 
Q 3116 2381 2855 2742 
Q 2594 3103 2138 3103 
Q 1681 3103 1420 2742 
Q 1159 2381 1159 1747 
Q 1159 1113 1420 752 
Q 1681 391 2138 391 
Q 2594 391 2855 752 
Q 3116 1113 3116 1747 
z
" transform="scale(0.015625)"/>
       </defs>
       <use xlink:href="#DejaVuSans-53"/>
       <use xlink:href="#DejaVuSans-65" transform="translate(63.476562 0)"/>
       <use xlink:href="#DejaVuSans-70" transform="translate(125 0)"/>
      </g>
     </g>
    </g>
    <g id="xtick_42">
     <g id="line2d_51">
      <g>
       <use xlink:href="#m7cb225d09f" x="98.41003" y="330.84327" style="stroke: #000000; stroke-width: 0.8"/>
      </g>
     </g>
     <g id="text_11">
      <!-- 05 -->
      <g transform="translate(92.04753 345.441707) scale(0.1 -0.1)">
       <use xlink:href="#DejaVuSans-30"/>
       <use xlink:href="#DejaVuSans-35" transform="translate(63.623047 0)"/>
      </g>
     </g>
    </g>
    <g id="xtick_43">
     <g id="line2d_52">
      <g>
       <use xlink:href="#m7cb225d09f" x="125.797102" y="330.84327" style="stroke: #000000; stroke-width: 0.8"/>
      </g>
     </g>
     <g id="text_12">
      <!-- 09 -->
      <g transform="translate(119.434602 345.441707) scale(0.1 -0.1)">
       <defs>
        <path id="DejaVuSans-39" d="M 703 97 
L 703 672 
Q 941 559 1184 500 
Q 1428 441 1663 441 
Q 2288 441 2617 861 
Q 2947 1281 2994 2138 
Q 2813 1869 2534 1725 
Q 2256 1581 1919 1581 
Q 1219 1581 811 2004 
Q 403 2428 403 3163 
Q 403 3881 828 4315 
Q 1253 4750 1959 4750 
Q 2769 4750 3195 4129 
Q 3622 3509 3622 2328 
Q 3622 1225 3098 567 
Q 2575 -91 1691 -91 
Q 1453 -91 1209 -44 
Q 966 3 703 97 
z
M 1959 2075 
Q 2384 2075 2632 2365 
Q 2881 2656 2881 3163 
Q 2881 3666 2632 3958 
Q 2384 4250 1959 4250 
Q 1534 4250 1286 3958 
Q 1038 3666 1038 3163 
Q 1038 2656 1286 2365 
Q 1534 2075 1959 2075 
z
" transform="scale(0.015625)"/>
       </defs>
       <use xlink:href="#DejaVuSans-30"/>
       <use xlink:href="#DejaVuSans-39" transform="translate(63.623047 0)"/>
      </g>
     </g>
    </g>
    <g id="xtick_44">
     <g id="line2d_53">
      <g>
       <use xlink:href="#m7cb225d09f" x="153.184174" y="330.84327" style="stroke: #000000; stroke-width: 0.8"/>
      </g>
     </g>
     <g id="text_13">
      <!-- 13 -->
      <g transform="translate(146.821674 345.441707) scale(0.1 -0.1)">
       <defs>
        <path id="DejaVuSans-33" d="M 2597 2516 
Q 3050 2419 3304 2112 
Q 3559 1806 3559 1356 
Q 3559 666 3084 287 
Q 2609 -91 1734 -91 
Q 1441 -91 1130 -33 
Q 819 25 488 141 
L 488 750 
Q 750 597 1062 519 
Q 1375 441 1716 441 
Q 2309 441 2620 675 
Q 2931 909 2931 1356 
Q 2931 1769 2642 2001 
Q 2353 2234 1838 2234 
L 1294 2234 
L 1294 2753 
L 1863 2753 
Q 2328 2753 2575 2939 
Q 2822 3125 2822 3475 
Q 2822 3834 2567 4026 
Q 2313 4219 1838 4219 
Q 1578 4219 1281 4162 
Q 984 4106 628 3988 
L 628 4550 
Q 988 4650 1302 4700 
Q 1616 4750 1894 4750 
Q 2613 4750 3031 4423 
Q 3450 4097 3450 3541 
Q 3450 3153 3228 2886 
Q 3006 2619 2597 2516 
z
" transform="scale(0.015625)"/>
       </defs>
       <use xlink:href="#DejaVuSans-31"/>
       <use xlink:href="#DejaVuSans-33" transform="translate(63.623047 0)"/>
      </g>
     </g>
    </g>
    <g id="xtick_45">
     <g id="line2d_54">
      <g>
       <use xlink:href="#m7cb225d09f" x="180.571246" y="330.84327" style="stroke: #000000; stroke-width: 0.8"/>
      </g>
     </g>
     <g id="text_14">
      <!-- 17 -->
      <g transform="translate(174.208746 345.441707) scale(0.1 -0.1)">
       <defs>
        <path id="DejaVuSans-37" d="M 525 4666 
L 3525 4666 
L 3525 4397 
L 1831 0 
L 1172 0 
L 2766 4134 
L 525 4134 
L 525 4666 
z
" transform="scale(0.015625)"/>
       </defs>
       <use xlink:href="#DejaVuSans-31"/>
       <use xlink:href="#DejaVuSans-37" transform="translate(63.623047 0)"/>
      </g>
     </g>
    </g>
    <g id="xtick_46">
     <g id="line2d_55">
      <g>
       <use xlink:href="#m7cb225d09f" x="207.958318" y="330.84327" style="stroke: #000000; stroke-width: 0.8"/>
      </g>
     </g>
     <g id="text_15">
      <!-- 21 -->
      <g transform="translate(201.595818 345.441707) scale(0.1 -0.1)">
       <use xlink:href="#DejaVuSans-32"/>
       <use xlink:href="#DejaVuSans-31" transform="translate(63.623047 0)"/>
      </g>
     </g>
    </g>
    <g id="xtick_47">
     <g id="line2d_56">
      <g>
       <use xlink:href="#m7cb225d09f" x="235.34539" y="330.84327" style="stroke: #000000; stroke-width: 0.8"/>
      </g>
     </g>
     <g id="text_16">
      <!-- 25 -->
      <g transform="translate(228.98289 345.441707) scale(0.1 -0.1)">
       <use xlink:href="#DejaVuSans-32"/>
       <use xlink:href="#DejaVuSans-35" transform="translate(63.623047 0)"/>
      </g>
     </g>
    </g>
    <g id="xtick_48">
     <g id="line2d_57">
      <g>
       <use xlink:href="#m7cb225d09f" x="262.732462" y="330.84327" style="stroke: #000000; stroke-width: 0.8"/>
      </g>
     </g>
     <g id="text_17">
      <!-- 29 -->
      <g transform="translate(256.369962 345.441707) scale(0.1 -0.1)">
       <use xlink:href="#DejaVuSans-32"/>
       <use xlink:href="#DejaVuSans-39" transform="translate(63.623047 0)"/>
      </g>
     </g>
    </g>
    <g id="xtick_49">
     <g id="line2d_58">
      <g>
       <use xlink:href="#m7cb225d09f" x="276.425998" y="330.84327" style="stroke: #000000; stroke-width: 0.8"/>
      </g>
     </g>
     <g id="text_18">
      <!-- Oct -->
      <g transform="translate(267.780686 345.441707) scale(0.1 -0.1)">
       <defs>
        <path id="DejaVuSans-4f" d="M 2522 4238 
Q 1834 4238 1429 3725 
Q 1025 3213 1025 2328 
Q 1025 1447 1429 934 
Q 1834 422 2522 422 
Q 3209 422 3611 934 
Q 4013 1447 4013 2328 
Q 4013 3213 3611 3725 
Q 3209 4238 2522 4238 
z
M 2522 4750 
Q 3503 4750 4090 4092 
Q 4678 3434 4678 2328 
Q 4678 1225 4090 567 
Q 3503 -91 2522 -91 
Q 1538 -91 948 565 
Q 359 1222 359 2328 
Q 359 3434 948 4092 
Q 1538 4750 2522 4750 
z
" transform="scale(0.015625)"/>
       </defs>
       <use xlink:href="#DejaVuSans-4f"/>
       <use xlink:href="#DejaVuSans-63" transform="translate(78.710938 0)"/>
       <use xlink:href="#DejaVuSans-74" transform="translate(133.691406 0)"/>
      </g>
     </g>
    </g>
    <g id="xtick_50">
     <g id="line2d_59">
      <g>
       <use xlink:href="#m7cb225d09f" x="303.81307" y="330.84327" style="stroke: #000000; stroke-width: 0.8"/>
      </g>
     </g>
     <g id="text_19">
      <!-- 05 -->
      <g transform="translate(297.45057 345.441707) scale(0.1 -0.1)">
       <use xlink:href="#DejaVuSans-30"/>
       <use xlink:href="#DejaVuSans-35" transform="translate(63.623047 0)"/>
      </g>
     </g>
    </g>
    <g id="xtick_51">
     <g id="line2d_60">
      <g>
       <use xlink:href="#m7cb225d09f" x="331.200142" y="330.84327" style="stroke: #000000; stroke-width: 0.8"/>
      </g>
     </g>
     <g id="text_20">
      <!-- 09 -->
      <g transform="translate(324.837642 345.441707) scale(0.1 -0.1)">
       <use xlink:href="#DejaVuSans-30"/>
       <use xlink:href="#DejaVuSans-39" transform="translate(63.623047 0)"/>
      </g>
     </g>
    </g>
    <g id="xtick_52">
     <g id="line2d_61">
      <g>
       <use xlink:href="#m7cb225d09f" x="358.587214" y="330.84327" style="stroke: #000000; stroke-width: 0.8"/>
      </g>
     </g>
     <g id="text_21">
      <!-- 13 -->
      <g transform="translate(352.224714 345.441707) scale(0.1 -0.1)">
       <use xlink:href="#DejaVuSans-31"/>
       <use xlink:href="#DejaVuSans-33" transform="translate(63.623047 0)"/>
      </g>
     </g>
    </g>
    <g id="xtick_53">
     <g id="line2d_62">
      <g>
       <use xlink:href="#m7cb225d09f" x="385.974286" y="330.84327" style="stroke: #000000; stroke-width: 0.8"/>
      </g>
     </g>
     <g id="text_22">
      <!-- 17 -->
      <g transform="translate(379.611786 345.441707) scale(0.1 -0.1)">
       <use xlink:href="#DejaVuSans-31"/>
       <use xlink:href="#DejaVuSans-37" transform="translate(63.623047 0)"/>
      </g>
     </g>
    </g>
    <g id="xtick_54">
     <g id="line2d_63">
      <g>
       <use xlink:href="#m7cb225d09f" x="413.361358" y="330.84327" style="stroke: #000000; stroke-width: 0.8"/>
      </g>
     </g>
     <g id="text_23">
      <!-- 21 -->
      <g transform="translate(406.998858 345.441707) scale(0.1 -0.1)">
       <use xlink:href="#DejaVuSans-32"/>
       <use xlink:href="#DejaVuSans-31" transform="translate(63.623047 0)"/>
      </g>
     </g>
    </g>
    <g id="xtick_55">
     <g id="line2d_64">
      <g>
       <use xlink:href="#m7cb225d09f" x="440.74843" y="330.84327" style="stroke: #000000; stroke-width: 0.8"/>
      </g>
     </g>
     <g id="text_24">
      <!-- 25 -->
      <g transform="translate(434.38593 345.441707) scale(0.1 -0.1)">
       <use xlink:href="#DejaVuSans-32"/>
       <use xlink:href="#DejaVuSans-35" transform="translate(63.623047 0)"/>
      </g>
     </g>
    </g>
    <g id="xtick_56">
     <g id="line2d_65">
      <g>
       <use xlink:href="#m7cb225d09f" x="468.135502" y="330.84327" style="stroke: #000000; stroke-width: 0.8"/>
      </g>
     </g>
     <g id="text_25">
      <!-- 29 -->
      <g transform="translate(461.773002 345.441707) scale(0.1 -0.1)">
       <use xlink:href="#DejaVuSans-32"/>
       <use xlink:href="#DejaVuSans-39" transform="translate(63.623047 0)"/>
      </g>
     </g>
    </g>
    <g id="xtick_57">
     <g id="line2d_66">
      <g>
       <use xlink:href="#m7cb225d09f" x="488.675806" y="330.84327" style="stroke: #000000; stroke-width: 0.8"/>
      </g>
     </g>
     <g id="text_26">
      <!-- Nov -->
      <g transform="translate(478.916431 345.441707) scale(0.1 -0.1)">
       <defs>
        <path id="DejaVuSans-4e" d="M 628 4666 
L 1478 4666 
L 3547 763 
L 3547 4666 
L 4159 4666 
L 4159 0 
L 3309 0 
L 1241 3903 
L 1241 0 
L 628 0 
L 628 4666 
z
" transform="scale(0.015625)"/>
        <path id="DejaVuSans-6f" d="M 1959 3097 
Q 1497 3097 1228 2736 
Q 959 2375 959 1747 
Q 959 1119 1226 758 
Q 1494 397 1959 397 
Q 2419 397 2687 759 
Q 2956 1122 2956 1747 
Q 2956 2369 2687 2733 
Q 2419 3097 1959 3097 
z
M 1959 3584 
Q 2709 3584 3137 3096 
Q 3566 2609 3566 1747 
Q 3566 888 3137 398 
Q 2709 -91 1959 -91 
Q 1206 -91 779 398 
Q 353 888 353 1747 
Q 353 2609 779 3096 
Q 1206 3584 1959 3584 
z
" transform="scale(0.015625)"/>
        <path id="DejaVuSans-76" d="M 191 3500 
L 800 3500 
L 1894 563 
L 2988 3500 
L 3597 3500 
L 2284 0 
L 1503 0 
L 191 3500 
z
" transform="scale(0.015625)"/>
       </defs>
       <use xlink:href="#DejaVuSans-4e"/>
       <use xlink:href="#DejaVuSans-6f" transform="translate(74.804688 0)"/>
       <use xlink:href="#DejaVuSans-76" transform="translate(135.986328 0)"/>
      </g>
     </g>
    </g>
    <g id="xtick_58">
     <g id="line2d_67">
      <g>
       <use xlink:href="#m7cb225d09f" x="516.062878" y="330.84327" style="stroke: #000000; stroke-width: 0.8"/>
      </g>
     </g>
     <g id="text_27">
      <!-- 05 -->
      <g transform="translate(509.700378 345.441707) scale(0.1 -0.1)">
       <use xlink:href="#DejaVuSans-30"/>
       <use xlink:href="#DejaVuSans-35" transform="translate(63.623047 0)"/>
      </g>
     </g>
    </g>
    <g id="xtick_59">
     <g id="line2d_68">
      <g>
       <use xlink:href="#m7cb225d09f" x="543.44995" y="330.84327" style="stroke: #000000; stroke-width: 0.8"/>
      </g>
     </g>
     <g id="text_28">
      <!-- 09 -->
      <g transform="translate(537.08745 345.441707) scale(0.1 -0.1)">
       <use xlink:href="#DejaVuSans-30"/>
       <use xlink:href="#DejaVuSans-39" transform="translate(63.623047 0)"/>
      </g>
     </g>
    </g>
    <g id="xtick_60">
     <g id="line2d_69">
      <g>
       <use xlink:href="#m7cb225d09f" x="570.837022" y="330.84327" style="stroke: #000000; stroke-width: 0.8"/>
      </g>
     </g>
     <g id="text_29">
      <!-- 13 -->
      <g transform="translate(564.474522 345.441707) scale(0.1 -0.1)">
       <use xlink:href="#DejaVuSans-31"/>
       <use xlink:href="#DejaVuSans-33" transform="translate(63.623047 0)"/>
      </g>
     </g>
    </g>
    <g id="text_30">
     <!-- Time -->
     <g transform="translate(307.281041 359.119832) scale(0.1 -0.1)">
      <defs>
       <path id="DejaVuSans-54" d="M -19 4666 
L 3928 4666 
L 3928 4134 
L 2272 4134 
L 2272 0 
L 1638 0 
L 1638 4134 
L -19 4134 
L -19 4666 
z
" transform="scale(0.015625)"/>
       <path id="DejaVuSans-6d" d="M 3328 2828 
Q 3544 3216 3844 3400 
Q 4144 3584 4550 3584 
Q 5097 3584 5394 3201 
Q 5691 2819 5691 2113 
L 5691 0 
L 5113 0 
L 5113 2094 
Q 5113 2597 4934 2840 
Q 4756 3084 4391 3084 
Q 3944 3084 3684 2787 
Q 3425 2491 3425 1978 
L 3425 0 
L 2847 0 
L 2847 2094 
Q 2847 2600 2669 2842 
Q 2491 3084 2119 3084 
Q 1678 3084 1418 2786 
Q 1159 2488 1159 1978 
L 1159 0 
L 581 0 
L 581 3500 
L 1159 3500 
L 1159 2956 
Q 1356 3278 1631 3431 
Q 1906 3584 2284 3584 
Q 2666 3584 2933 3390 
Q 3200 3197 3328 2828 
z
" transform="scale(0.015625)"/>
      </defs>
      <use xlink:href="#DejaVuSans-54"/>
      <use xlink:href="#DejaVuSans-69" transform="translate(57.958984 0)"/>
      <use xlink:href="#DejaVuSans-6d" transform="translate(85.742188 0)"/>
      <use xlink:href="#DejaVuSans-65" transform="translate(183.154297 0)"/>
     </g>
    </g>
    <g id="text_31">
     <!-- 2025-Nov -->
     <g transform="translate(524.399582 358.119832) scale(0.1 -0.1)">
      <defs>
       <path id="DejaVuSans-2d" d="M 313 2009 
L 1997 2009 
L 1997 1497 
L 313 1497 
L 313 2009 
z
" transform="scale(0.015625)"/>
      </defs>
      <use xlink:href="#DejaVuSans-32"/>
      <use xlink:href="#DejaVuSans-30" transform="translate(63.623047 0)"/>
      <use xlink:href="#DejaVuSans-32" transform="translate(127.246094 0)"/>
      <use xlink:href="#DejaVuSans-35" transform="translate(190.869141 0)"/>
      <use xlink:href="#DejaVuSans-2d" transform="translate(254.492188 0)"/>
      <use xlink:href="#DejaVuSans-4e" transform="translate(290.576172 0)"/>
      <use xlink:href="#DejaVuSans-6f" transform="translate(365.380859 0)"/>
      <use xlink:href="#DejaVuSans-76" transform="translate(426.5625 0)"/>
     </g>
    </g>
   </g>
   <g id="matplotlib.axis_6">
    <g id="ytick_8">
     <g id="line2d_70">
      <g>
       <use xlink:href="#m7530566f11" x="66.053125" y="318.914206" style="stroke: #000000; stroke-width: 0.8"/>
      </g>
     </g>
     <g id="text_32">
      <!-- 10.0 -->
      <g transform="translate(28.407813 322.713425) scale(0.1 -0.1)">
       <defs>
        <path id="DejaVuSans-2212" d="M 678 2272 
L 4684 2272 
L 4684 1741 
L 678 1741 
L 678 2272 
z
" transform="scale(0.015625)"/>
        <path id="DejaVuSans-2e" d="M 684 794 
L 1344 794 
L 1344 0 
L 684 0 
L 684 794 
z
" transform="scale(0.015625)"/>
       </defs>
       <use xlink:href="#DejaVuSans-2212"/>
       <use xlink:href="#DejaVuSans-31" transform="translate(83.789062 0)"/>
       <use xlink:href="#DejaVuSans-30" transform="translate(147.412109 0)"/>
       <use xlink:href="#DejaVuSans-2e" transform="translate(211.035156 0)"/>
       <use xlink:href="#DejaVuSans-30" transform="translate(242.822266 0)"/>
      </g>
     </g>
    </g>
    <g id="ytick_9">
     <g id="line2d_71">
      <g>
       <use xlink:href="#m7530566f11" x="66.053125" y="297.663561" style="stroke: #000000; stroke-width: 0.8"/>
      </g>
     </g>
     <g id="text_33">
      <!-- 7.5 -->
      <g transform="translate(34.770313 301.46278) scale(0.1 -0.1)">
       <use xlink:href="#DejaVuSans-2212"/>
       <use xlink:href="#DejaVuSans-37" transform="translate(83.789062 0)"/>
       <use xlink:href="#DejaVuSans-2e" transform="translate(147.412109 0)"/>
       <use xlink:href="#DejaVuSans-35" transform="translate(179.199219 0)"/>
      </g>
     </g>
    </g>
    <g id="ytick_10">
     <g id="line2d_72">
      <g>
       <use xlink:href="#m7530566f11" x="66.053125" y="276.412916" style="stroke: #000000; stroke-width: 0.8"/>
      </g>
     </g>
     <g id="text_34">
      <!-- 5.0 -->
      <g transform="translate(34.770313 280.212135) scale(0.1 -0.1)">
       <use xlink:href="#DejaVuSans-2212"/>
       <use xlink:href="#DejaVuSans-35" transform="translate(83.789062 0)"/>
       <use xlink:href="#DejaVuSans-2e" transform="translate(147.412109 0)"/>
       <use xlink:href="#DejaVuSans-30" transform="translate(179.199219 0)"/>
      </g>
     </g>
    </g>
    <g id="ytick_11">
     <g id="line2d_73">
      <g>
       <use xlink:href="#m7530566f11" x="66.053125" y="255.162271" style="stroke: #000000; stroke-width: 0.8"/>
      </g>
     </g>
     <g id="text_35">
      <!-- 2.5 -->
      <g transform="translate(34.770313 258.96149) scale(0.1 -0.1)">
       <use xlink:href="#DejaVuSans-2212"/>
       <use xlink:href="#DejaVuSans-32" transform="translate(83.789062 0)"/>
       <use xlink:href="#DejaVuSans-2e" transform="translate(147.412109 0)"/>
       <use xlink:href="#DejaVuSans-35" transform="translate(179.199219 0)"/>
      </g>
     </g>
    </g>
    <g id="ytick_12">
     <g id="line2d_74">
      <g>
       <use xlink:href="#m7530566f11" x="66.053125" y="233.911626" style="stroke: #000000; stroke-width: 0.8"/>
      </g>
     </g>
     <g id="text_36">
      <!-- 0.0 -->
      <g transform="translate(43.15 237.710845) scale(0.1 -0.1)">
       <use xlink:href="#DejaVuSans-30"/>
       <use xlink:href="#DejaVuSans-2e" transform="translate(63.623047 0)"/>
       <use xlink:href="#DejaVuSans-30" transform="translate(95.410156 0)"/>
      </g>
     </g>
    </g>
    <g id="text_37">
     <!-- Drawdown, % -->
     <g transform="translate(14.798438 314.548458) rotate(-90) scale(0.1 -0.1)">
      <defs>
       <path id="DejaVuSans-44" d="M 1259 4147 
L 1259 519 
L 2022 519 
Q 2988 519 3436 956 
Q 3884 1394 3884 2338 
Q 3884 3275 3436 3711 
Q 2988 4147 2022 4147 
L 1259 4147 
z
M 628 4666 
L 1925 4666 
Q 3281 4666 3915 4102 
Q 4550 3538 4550 2338 
Q 4550 1131 3912 565 
Q 3275 0 1925 0 
L 628 0 
L 628 4666 
z
" transform="scale(0.015625)"/>
       <path id="DejaVuSans-61" d="M 2194 1759 
Q 1497 1759 1228 1600 
Q 959 1441 959 1056 
Q 959 750 1161 570 
Q 1363 391 1709 391 
Q 2188 391 2477 730 
Q 2766 1069 2766 1631 
L 2766 1759 
L 2194 1759 
z
M 3341 1997 
L 3341 0 
L 2766 0 
L 2766 531 
Q 2569 213 2275 61 
Q 1981 -91 1556 -91 
Q 1019 -91 701 211 
Q 384 513 384 1019 
Q 384 1609 779 1909 
Q 1175 2209 1959 2209 
L 2766 2209 
L 2766 2266 
Q 2766 2663 2505 2880 
Q 2244 3097 1772 3097 
Q 1472 3097 1187 3025 
Q 903 2953 641 2809 
L 641 3341 
Q 956 3463 1253 3523 
Q 1550 3584 1831 3584 
Q 2591 3584 2966 3190 
Q 3341 2797 3341 1997 
z
" transform="scale(0.015625)"/>
       <path id="DejaVuSans-77" d="M 269 3500 
L 844 3500 
L 1563 769 
L 2278 3500 
L 2956 3500 
L 3675 769 
L 4391 3500 
L 4966 3500 
L 4050 0 
L 3372 0 
L 2619 2869 
L 1863 0 
L 1184 0 
L 269 3500 
z
" transform="scale(0.015625)"/>
       <path id="DejaVuSans-64" d="M 2906 2969 
L 2906 4863 
L 3481 4863 
L 3481 0 
L 2906 0 
L 2906 525 
Q 2725 213 2448 61 
Q 2172 -91 1784 -91 
Q 1150 -91 751 415 
Q 353 922 353 1747 
Q 353 2572 751 3078 
Q 1150 3584 1784 3584 
Q 2172 3584 2448 3432 
Q 2725 3281 2906 2969 
z
M 947 1747 
Q 947 1113 1208 752 
Q 1469 391 1925 391 
Q 2381 391 2643 752 
Q 2906 1113 2906 1747 
Q 2906 2381 2643 2742 
Q 2381 3103 1925 3103 
Q 1469 3103 1208 2742 
Q 947 2381 947 1747 
z
" transform="scale(0.015625)"/>
       <path id="DejaVuSans-6e" d="M 3513 2113 
L 3513 0 
L 2938 0 
L 2938 2094 
Q 2938 2591 2744 2837 
Q 2550 3084 2163 3084 
Q 1697 3084 1428 2787 
Q 1159 2491 1159 1978 
L 1159 0 
L 581 0 
L 581 3500 
L 1159 3500 
L 1159 2956 
Q 1366 3272 1645 3428 
Q 1925 3584 2291 3584 
Q 2894 3584 3203 3211 
Q 3513 2838 3513 2113 
z
" transform="scale(0.015625)"/>
       <path id="DejaVuSans-2c" d="M 750 794 
L 1409 794 
L 1409 256 
L 897 -744 
L 494 -744 
L 750 256 
L 750 794 
z
" transform="scale(0.015625)"/>
       <path id="DejaVuSans-20" transform="scale(0.015625)"/>
       <path id="DejaVuSans-25" d="M 4653 2053 
Q 4381 2053 4226 1822 
Q 4072 1591 4072 1178 
Q 4072 772 4226 539 
Q 4381 306 4653 306 
Q 4919 306 5073 539 
Q 5228 772 5228 1178 
Q 5228 1588 5073 1820 
Q 4919 2053 4653 2053 
z
M 4653 2450 
Q 5147 2450 5437 2106 
Q 5728 1763 5728 1178 
Q 5728 594 5436 251 
Q 5144 -91 4653 -91 
Q 4153 -91 3862 251 
Q 3572 594 3572 1178 
Q 3572 1766 3864 2108 
Q 4156 2450 4653 2450 
z
M 1428 4353 
Q 1159 4353 1004 4120 
Q 850 3888 850 3481 
Q 850 3069 1003 2837 
Q 1156 2606 1428 2606 
Q 1700 2606 1854 2837 
Q 2009 3069 2009 3481 
Q 2009 3884 1853 4118 
Q 1697 4353 1428 4353 
z
M 4250 4750 
L 4750 4750 
L 1831 -91 
L 1331 -91 
L 4250 4750 
z
M 1428 4750 
Q 1922 4750 2215 4408 
Q 2509 4066 2509 3481 
Q 2509 2891 2217 2550 
Q 1925 2209 1428 2209 
Q 931 2209 642 2551 
Q 353 2894 353 3481 
Q 353 4063 643 4406 
Q 934 4750 1428 4750 
z
" transform="scale(0.015625)"/>
      </defs>
      <use xlink:href="#DejaVuSans-44"/>
      <use xlink:href="#DejaVuSans-72" transform="translate(77.001953 0)"/>
      <use xlink:href="#DejaVuSans-61" transform="translate(118.115234 0)"/>
      <use xlink:href="#DejaVuSans-77" transform="translate(179.394531 0)"/>
      <use xlink:href="#DejaVuSans-64" transform="translate(261.181641 0)"/>
      <use xlink:href="#DejaVuSans-6f" transform="translate(324.658203 0)"/>
      <use xlink:href="#DejaVuSans-77" transform="translate(385.839844 0)"/>
      <use xlink:href="#DejaVuSans-6e" transform="translate(467.626953 0)"/>
      <use xlink:href="#DejaVuSans-2c" transform="translate(531.005859 0)"/>
      <use xlink:href="#DejaVuSans-20" transform="translate(562.792969 0)"/>
      <use xlink:href="#DejaVuSans-25" transform="translate(594.580078 0)"/>
     </g>
    </g>
   </g>
   <g id="line2d_75">
    <path d="M 71.022959 233.911626 
L 144.167124 233.911626 
L 144.712091 236.580512 
L 145.83848 233.911626 
L 146.908367 239.60498 
L 147.994657 237.923402 
L 148.641693 241.938531 
L 148.758341 241.147713 
L 149.802711 243.875667 
L 150.163593 243.213633 
L 151.630814 233.911626 
L 152.553067 239.902575 
L 153.455272 236.535799 
L 153.732312 240.580341 
L 155.064658 240.48409 
L 156.118141 237.545097 
L 157.193496 240.885136 
L 157.959003 243.884955 
L 158.919531 238.951429 
L 160.215425 238.952097 
L 160.390398 240.032914 
L 160.674729 238.300399 
L 161.267085 241.77813 
L 162.081803 240.293594 
L 162.805389 237.877964 
L 163.59459 239.798971 
L 164.602507 243.95848 
L 165.486485 242.890362 
L 166.244701 238.011646 
L 166.594647 238.593162 
L 167.256264 245.973733 
L 168.058223 242.342267 
L 168.639644 234.201047 
L 169.543671 242.213933 
L 184.469229 242.213933 
L 185.923691 245.60391 
L 185.941918 241.630219 
L 185.963789 244.963574 
L 187.104759 233.911626 
L 187.538546 238.895033 
L 188.276713 233.911626 
L 188.949265 236.88761 
L 189.392166 239.947601 
L 190.901308 239.368148 
L 191.51189 234.573103 
L 192.634633 233.911626 
L 193.021032 237.87309 
L 193.431125 236.336526 
L 193.999787 241.902023 
L 195.210017 238.178022 
L 196.307243 241.545498 
L 196.693642 239.513503 
L 197.112848 242.875687 
L 199.398432 242.820786 
L 245.671489 242.820786 
L 246.19094 240.587422 
L 246.475271 247.517586 
L 247.454026 236.459684 
L 247.845893 245.821694 
L 249.715916 243.542397 
L 250.078621 240.882101 
L 250.348371 240.882845 
L 251.739041 245.219686 
L 252.065293 242.820582 
L 253.384881 244.57675 
L 254.507624 243.165119 
L 254.904958 243.479145 
L 256.025879 240.514496 
L 256.122478 241.372488 
L 257.766495 244.116872 
L 258.460919 242.272152 
L 259.151698 244.863987 
L 260.491334 236.40313 
L 260.638968 238.94734 
L 261.738017 233.911626 
L 262.168159 233.911626 
L 263.522376 239.058717 
L 264.823738 239.337413 
L 265.242944 233.911626 
L 266.413075 237.463851 
L 266.626324 233.911626 
L 267.601433 239.308035 
L 268.383344 233.911626 
L 269.239982 236.307209 
L 269.635494 233.911626 
L 271.017051 238.663879 
L 271.055327 238.00572 
L 272.445997 248.330052 
L 272.549888 248.151142 
L 273.512239 241.585358 
L 274.414443 248.028995 
L 275.263791 235.8588 
L 275.595511 234.09844 
L 276.169641 240.619675 
L 277.523858 238.383659 
L 277.915725 234.604274 
L 278.810639 233.911626 
L 279.022064 237.274002 
L 280.425493 233.911626 
L 281.49538 240.46255 
L 281.56464 243.212011 
L 282.745708 234.11071 
L 283.070137 233.911626 
L 283.569539 240.876764 
L 284.486324 237.348922 
L 284.952919 241.417967 
L 285.980885 239.302921 
L 287.163775 233.911626 
L 287.581158 241.844439 
L 287.805342 233.911626 
L 289.010104 234.20443 
L 289.808418 239.646892 
L 291.018648 237.517411 
L 292.489514 245.23405 
L 293.111033 236.986406 
L 294.21555 240.684332 
L 294.375942 233.911626 
L 295.039381 239.067272 
L 295.289082 249.52061 
L 296.590443 241.972867 
L 297.736881 248.21486 
L 297.920967 247.070494 
L 298.500565 241.161941 
L 300.653097 246.663698 
L 300.90462 243.303958 
L 302.382777 249.322547 
L 302.397358 249.173166 
L 303.815368 243.827459 
L 304.07236 245.121205 
L 304.54989 233.911626 
L 305.382834 235.491585 
L 306.722471 253.580804 
L 307.230986 247.655298 
L 308.282647 252.418876 
L 308.623479 254.568279 
L 308.683626 248.000914 
L 309.990456 253.777641 
L 310.757785 242.340051 
L 311.468613 243.026017 
L 312.161214 248.321514 
L 312.879332 248.335339 
L 314.182516 239.770642 
L 314.5999 241.080034 
L 315.560428 233.911626 
L 316.036136 233.911626 
L 316.763367 244.053862 
L 317.847835 241.066034 
L 318.731813 246.963064 
L 318.841171 243.804877 
L 319.896477 251.668239 
L 321.201483 240.503195 
L 321.695418 257.018155 
L 321.802953 255.809264 
L 321.826647 260.566202 
L 342.699463 260.566202 
L 344.062794 258.808043 
L 344.1357 326.227477 
L 344.195847 290.091133 
L 344.810075 260.204329 
L 345.759667 270.029436 
L 347.17221 290.623831 
L 347.236002 290.425953 
L 348.46628 275.742348 
L 348.675883 275.55823 
L 349.643703 282.105899 
L 350.349062 278.829116 
L 350.930483 294.030349 
L 352.563564 294.409069 
L 353.110354 279.462063 
L 353.584239 277.958976 
L 354.357037 284.296318 
L 354.783533 282.380438 
L 354.94757 279.855854 
L 356.135928 280.682093 
L 406.8872 280.682093 
L 407.136901 282.226045 
L 408.33255 257.904072 
L 408.968649 255.63772 
L 409.697703 262.495747 
L 411.042808 255.166685 
L 411.31438 266.369586 
L 411.558613 267.812539 
L 412.262151 258.086079 
L 412.976623 260.898453 
L 414.31626 272.063496 
L 414.407392 270.439993 
L 415.061718 285.43665 
L 415.869145 285.421361 
L 416.893466 271.123612 
L 417.34548 280.042688 
L 417.644392 249.782915 
L 418.830927 250.947761 
L 457.640294 250.947761 
L 457.778814 250.396527 
L 458.535208 256.67883 
L 459.647015 248.521927 
L 460.578382 259.196861 
L 460.839018 256.37415 
L 462.100282 262.744908 
L 462.982437 262.891678 
L 463.525582 258.433524 
L 463.645876 259.340356 
L 465.100339 253.672655 
L 465.386493 246.967076 
L 465.501319 257.930966 
L 466.711548 253.542265 
L 467.318486 271.486927 
L 468.091283 266.990769 
L 474.062235 266.990769 
L 475.031877 280.095078 
L 475.720833 271.1214 
L 476.27856 292.297562 
L 477.047712 283.5503 
L 515.857079 283.5503 
L 516.597068 283.707944 
L 517.154795 264.134827 
L 517.561242 264.009097 
L 517.834637 269.694198 
L 518.844377 269.477973 
L 533.769935 269.477973 
L 534.648445 272.564596 
L 535.260851 257.014856 
L 535.273609 258.301792 
L 536.077391 247.939036 
L 537.571952 253.939664 
L 538.244504 260.856444 
L 538.722035 264.395317 
L 539.095675 258.95527 
L 539.853891 259.192316 
L 540.695948 267.919775 
L 542.019181 262.43328 
L 542.13583 267.328762 
L 543.313252 260.312679 
L 543.550195 267.052475 
L 544.446931 268.479556 
L 544.691164 263.512801 
L 546.342471 267.700347 
L 546.974926 260.742726 
L 547.2064 262.074508 
L 547.986488 247.098964 
L 548.731946 251.291315 
L 550.024194 236.906785 
L 550.321284 245.4965 
L 550.472562 233.911626 
L 552.938588 239.580327 
L 553.100802 234.002198 
L 554.059508 234.654476 
L 554.555265 249.238174 
L 554.82866 249.273131 
L 556.07352 236.669308 
L 556.54376 244.400511 
L 557.520692 233.911626 
L 558.114871 236.702297 
L 558.900427 253.660022 
L 559.427168 254.954029 
L 560.613703 249.199994 
L 560.641043 251.253373 
L 561.652605 267.018025 
L 562.190283 269.712493 
L 562.518357 264.700482 
L 563.626519 268.606949 
L 568.006311 268.606949 
L 568.006311 268.606949 
" clip-path="url(#pf084ca1ba2)" style="fill: none; stroke: #7a738c; stroke-width: 1.5; stroke-linecap: square"/>
   </g>
   <g id="patch_13">
    <path d="M 66.053125 330.84327 
L 66.053125 229.295833 
" style="fill: none; stroke: #000000; stroke-width: 0.8; stroke-linejoin: miter; stroke-linecap: square"/>
   </g>
   <g id="patch_14">
    <path d="M 572.976145 330.84327 
L 572.976145 229.295833 
" style="fill: none; stroke: #000000; stroke-width: 0.8; stroke-linejoin: miter; stroke-linecap: square"/>
   </g>
   <g id="patch_15">
    <path d="M 66.053125 330.84327 
L 572.976145 330.84327 
" style="fill: none; stroke: #000000; stroke-width: 0.8; stroke-linejoin: miter; stroke-linecap: square"/>
   </g>
   <g id="patch_16">
    <path d="M 66.053125 229.295833 
L 572.976145 229.295833 
" style="fill: none; stroke: #000000; stroke-width: 0.8; stroke-linejoin: miter; stroke-linecap: square"/>
   </g>
  </g>
 </g>
 <defs>
  <clipPath id="p8775f09918">
   <rect x="66.053125" y="7.2" width="506.92302" height="101.547437"/>
  </clipPath>
  <clipPath id="p91e7e5537f">
   <rect x="66.053125" y="118.247917" width="506.92302" height="101.547437"/>
  </clipPath>
  <clipPath id="pf084ca1ba2">
   <rect x="66.053125" y="229.295833" width="506.92302" height="101.547437"/>
  </clipPath>
 </defs>
</svg>
