<?xml version="1.0" encoding="utf-8" standalone="no"?>
<!DOCTYPE svg PUBLIC "-//W3C//DTD SVG 1.1//EN"
  "http://www.w3.org/Graphics/SVG/1.1/DTD/svg11.dtd">
<svg xmlns:xlink="http://www.w3.org/1999/xlink"   viewBox="0 0 584.39952 368.39952" xmlns="http://www.w3.org/2000/svg" version="1.1" preserveAspectRatio="xMidYMid meet" style="width:100%;height:auto;aspect-ratio:8 / 5;display:block;">
 <metadata>
  <rdf:RDF xmlns:dc="http://purl.org/dc/elements/1.1/" xmlns:cc="http://creativecommons.org/ns#" xmlns:rdf="http://www.w3.org/1999/02/22-rdf-syntax-ns#">
   <cc:Work>
    <dc:type rdf:resource="http://purl.org/dc/dcmitype/StillImage"/>
    <dc:date>2025-11-27T15:37:50.532303</dc:date>
    <dc:format>image/svg+xml</dc:format>
    <dc:creator>
     <cc:Agent>
      <dc:title>Matplotlib v3.10.7, https://matplotlib.org/</dc:title>
     </cc:Agent>
    </dc:creator>
   </cc:Work>
  </rdf:RDF>
 </metadata>
 <defs>
  <style type="text/css">*{stroke-linejoin: round; stroke-linecap: butt}</style>
 </defs>
 <g id="figure_1">
  <g id="patch_1">
   <path d="M 0 368.39952 
L 584.39952 368.39952 
L 584.39952 0 
L 0 0 
z
" style="fill: #ffffff"/>
  </g>
  <g id="axes_1">
   <g id="patch_2">
    <path d="M 66.053125 108.488449 
L 577.19952 108.488449 
L 577.19952 7.2 
L 66.053125 7.2 
z
" style="fill: #ffffff"/>
   </g>
   <g id="matplotlib.axis_1">
    <g id="xtick_1">
     <g id="line2d_1">
      <defs>
       <path id="mc5b6c5f912" d="M 0 0 
L 0 3.5 
" style="stroke: #000000; stroke-width: 0.8"/>
      </defs>
      <g>
       <use xlink:href="#mc5b6c5f912" x="71.064364" y="108.488449" style="stroke: #000000; stroke-width: 0.8"/>
      </g>
     </g>
    </g>
    <g id="xtick_2">
     <g id="line2d_2">
      <g>
       <use xlink:href="#mc5b6c5f912" x="111.108793" y="108.488449" style="stroke: #000000; stroke-width: 0.8"/>
      </g>
     </g>
    </g>
    <g id="xtick_3">
     <g id="line2d_3">
      <g>
       <use xlink:href="#mc5b6c5f912" x="151.153222" y="108.488449" style="stroke: #000000; stroke-width: 0.8"/>
      </g>
     </g>
    </g>
    <g id="xtick_4">
     <g id="line2d_4">
      <g>
       <use xlink:href="#mc5b6c5f912" x="191.197651" y="108.488449" style="stroke: #000000; stroke-width: 0.8"/>
      </g>
     </g>
    </g>
    <g id="xtick_5">
     <g id="line2d_5">
      <g>
       <use xlink:href="#mc5b6c5f912" x="242.683346" y="108.488449" style="stroke: #000000; stroke-width: 0.8"/>
      </g>
     </g>
    </g>
    <g id="xtick_6">
     <g id="line2d_6">
      <g>
       <use xlink:href="#mc5b6c5f912" x="282.727775" y="108.488449" style="stroke: #000000; stroke-width: 0.8"/>
      </g>
     </g>
    </g>
    <g id="xtick_7">
     <g id="line2d_7">
      <g>
       <use xlink:href="#mc5b6c5f912" x="322.772204" y="108.488449" style="stroke: #000000; stroke-width: 0.8"/>
      </g>
     </g>
    </g>
    <g id="xtick_8">
     <g id="line2d_8">
      <g>
       <use xlink:href="#mc5b6c5f912" x="362.816633" y="108.488449" style="stroke: #000000; stroke-width: 0.8"/>
      </g>
     </g>
    </g>
    <g id="xtick_9">
     <g id="line2d_9">
      <g>
       <use xlink:href="#mc5b6c5f912" x="420.02296" y="108.488449" style="stroke: #000000; stroke-width: 0.8"/>
      </g>
     </g>
    </g>
    <g id="xtick_10">
     <g id="line2d_10">
      <g>
       <use xlink:href="#mc5b6c5f912" x="460.067389" y="108.488449" style="stroke: #000000; stroke-width: 0.8"/>
      </g>
     </g>
    </g>
    <g id="xtick_11">
     <g id="line2d_11">
      <g>
       <use xlink:href="#mc5b6c5f912" x="500.111818" y="108.488449" style="stroke: #000000; stroke-width: 0.8"/>
      </g>
     </g>
    </g>
    <g id="xtick_12">
     <g id="line2d_12">
      <g>
       <use xlink:href="#mc5b6c5f912" x="540.156247" y="108.488449" style="stroke: #000000; stroke-width: 0.8"/>
      </g>
     </g>
    </g>
   </g>
   <g id="matplotlib.axis_2">
    <g id="ytick_1">
     <g id="line2d_13">
      <defs>
       <path id="m5f12be9411" d="M 0 0 
L -3.5 0 
" style="stroke: #000000; stroke-width: 0.8"/>
      </defs>
      <g>
       <use xlink:href="#m5f12be9411" x="66.053125" y="105.164861" style="stroke: #000000; stroke-width: 0.8"/>
      </g>
     </g>
     <g id="text_1">
      <!-- 80000 -->
      <g transform="translate(27.240625 108.96408) scale(0.1 -0.1)">
       <defs>
        <path id="DejaVuSans-38" d="M 2034 2216 
Q 1584 2216 1326 1975 
Q 1069 1734 1069 1313 
Q 1069 891 1326 650 
Q 1584 409 2034 409 
Q 2484 409 2743 651 
Q 3003 894 3003 1313 
Q 3003 1734 2745 1975 
Q 2488 2216 2034 2216 
z
M 1403 2484 
Q 997 2584 770 2862 
Q 544 3141 544 3541 
Q 544 4100 942 4425 
Q 1341 4750 2034 4750 
Q 2731 4750 3128 4425 
Q 3525 4100 3525 3541 
Q 3525 3141 3298 2862 
Q 3072 2584 2669 2484 
Q 3125 2378 3379 2068 
Q 3634 1759 3634 1313 
Q 3634 634 3220 271 
Q 2806 -91 2034 -91 
Q 1263 -91 848 271 
Q 434 634 434 1313 
Q 434 1759 690 2068 
Q 947 2378 1403 2484 
z
M 1172 3481 
Q 1172 3119 1398 2916 
Q 1625 2713 2034 2713 
Q 2441 2713 2670 2916 
Q 2900 3119 2900 3481 
Q 2900 3844 2670 4047 
Q 2441 4250 2034 4250 
Q 1625 4250 1398 4047 
Q 1172 3844 1172 3481 
z
" transform="scale(0.015625)"/>
        <path id="DejaVuSans-30" d="M 2034 4250 
Q 1547 4250 1301 3770 
Q 1056 3291 1056 2328 
Q 1056 1369 1301 889 
Q 1547 409 2034 409 
Q 2525 409 2770 889 
Q 3016 1369 3016 2328 
Q 3016 3291 2770 3770 
Q 2525 4250 2034 4250 
z
M 2034 4750 
Q 2819 4750 3233 4129 
Q 3647 3509 3647 2328 
Q 3647 1150 3233 529 
Q 2819 -91 2034 -91 
Q 1250 -91 836 529 
Q 422 1150 422 2328 
Q 422 3509 836 4129 
Q 1250 4750 2034 4750 
z
" transform="scale(0.015625)"/>
       </defs>
       <use xlink:href="#DejaVuSans-38"/>
       <use xlink:href="#DejaVuSans-30" transform="translate(63.623047 0)"/>
       <use xlink:href="#DejaVuSans-30" transform="translate(127.246094 0)"/>
       <use xlink:href="#DejaVuSans-30" transform="translate(190.869141 0)"/>
       <use xlink:href="#DejaVuSans-30" transform="translate(254.492188 0)"/>
      </g>
     </g>
    </g>
    <g id="ytick_2">
     <g id="line2d_14">
      <g>
       <use xlink:href="#m5f12be9411" x="66.053125" y="64.747163" style="stroke: #000000; stroke-width: 0.8"/>
      </g>
     </g>
     <g id="text_2">
      <!-- 100000 -->
      <g transform="translate(20.878125 68.546382) scale(0.1 -0.1)">
       <defs>
        <path id="DejaVuSans-31" d="M 794 531 
L 1825 531 
L 1825 4091 
L 703 3866 
L 703 4441 
L 1819 4666 
L 2450 4666 
L 2450 531 
L 3481 531 
L 3481 0 
L 794 0 
L 794 531 
z
" transform="scale(0.015625)"/>
       </defs>
       <use xlink:href="#DejaVuSans-31"/>
       <use xlink:href="#DejaVuSans-30" transform="translate(63.623047 0)"/>
       <use xlink:href="#DejaVuSans-30" transform="translate(127.246094 0)"/>
       <use xlink:href="#DejaVuSans-30" transform="translate(190.869141 0)"/>
       <use xlink:href="#DejaVuSans-30" transform="translate(254.492188 0)"/>
       <use xlink:href="#DejaVuSans-30" transform="translate(318.115234 0)"/>
      </g>
     </g>
    </g>
    <g id="ytick_3">
     <g id="line2d_15">
      <g>
       <use xlink:href="#m5f12be9411" x="66.053125" y="24.329465" style="stroke: #000000; stroke-width: 0.8"/>
      </g>
     </g>
     <g id="text_3">
      <!-- 120000 -->
      <g transform="translate(20.878125 28.128684) scale(0.1 -0.1)">
       <defs>
        <path id="DejaVuSans-32" d="M 1228 531 
L 3431 531 
L 3431 0 
L 469 0 
L 469 531 
Q 828 903 1448 1529 
Q 2069 2156 2228 2338 
Q 2531 2678 2651 2914 
Q 2772 3150 2772 3378 
Q 2772 3750 2511 3984 
Q 2250 4219 1831 4219 
Q 1534 4219 1204 4116 
Q 875 4013 500 3803 
L 500 4441 
Q 881 4594 1212 4672 
Q 1544 4750 1819 4750 
Q 2544 4750 2975 4387 
Q 3406 4025 3406 3419 
Q 3406 3131 3298 2873 
Q 3191 2616 2906 2266 
Q 2828 2175 2409 1742 
Q 1991 1309 1228 531 
z
" transform="scale(0.015625)"/>
       </defs>
       <use xlink:href="#DejaVuSans-31"/>
       <use xlink:href="#DejaVuSans-32" transform="translate(63.623047 0)"/>
       <use xlink:href="#DejaVuSans-30" transform="translate(127.246094 0)"/>
       <use xlink:href="#DejaVuSans-30" transform="translate(190.869141 0)"/>
       <use xlink:href="#DejaVuSans-30" transform="translate(254.492188 0)"/>
       <use xlink:href="#DejaVuSans-30" transform="translate(318.115234 0)"/>
      </g>
     </g>
    </g>
    <g id="text_4">
     <!-- Price -->
     <g transform="translate(14.798438 70.041881) rotate(-90) scale(0.1 -0.1)">
      <defs>
       <path id="DejaVuSans-50" d="M 1259 4147 
L 1259 2394 
L 2053 2394 
Q 2494 2394 2734 2622 
Q 2975 2850 2975 3272 
Q 2975 3691 2734 3919 
Q 2494 4147 2053 4147 
L 1259 4147 
z
M 628 4666 
L 2053 4666 
Q 2838 4666 3239 4311 
Q 3641 3956 3641 3272 
Q 3641 2581 3239 2228 
Q 2838 1875 2053 1875 
L 1259 1875 
L 1259 0 
L 628 0 
L 628 4666 
z
" transform="scale(0.015625)"/>
       <path id="DejaVuSans-72" d="M 2631 2963 
Q 2534 3019 2420 3045 
Q 2306 3072 2169 3072 
Q 1681 3072 1420 2755 
Q 1159 2438 1159 1844 
L 1159 0 
L 581 0 
L 581 3500 
L 1159 3500 
L 1159 2956 
Q 1341 3275 1631 3429 
Q 1922 3584 2338 3584 
Q 2397 3584 2469 3576 
Q 2541 3569 2628 3553 
L 2631 2963 
z
" transform="scale(0.015625)"/>
       <path id="DejaVuSans-69" d="M 603 3500 
L 1178 3500 
L 1178 0 
L 603 0 
L 603 3500 
z
M 603 4863 
L 1178 4863 
L 1178 4134 
L 603 4134 
L 603 4863 
z
" transform="scale(0.015625)"/>
       <path id="DejaVuSans-63" d="M 3122 3366 
L 3122 2828 
Q 2878 2963 2633 3030 
Q 2388 3097 2138 3097 
Q 1578 3097 1268 2742 
Q 959 2388 959 1747 
Q 959 1106 1268 751 
Q 1578 397 2138 397 
Q 2388 397 2633 464 
Q 2878 531 3122 666 
L 3122 134 
Q 2881 22 2623 -34 
Q 2366 -91 2075 -91 
Q 1284 -91 818 406 
Q 353 903 353 1747 
Q 353 2603 823 3093 
Q 1294 3584 2113 3584 
Q 2378 3584 2631 3529 
Q 2884 3475 3122 3366 
z
" transform="scale(0.015625)"/>
       <path id="DejaVuSans-65" d="M 3597 1894 
L 3597 1613 
L 953 1613 
Q 991 1019 1311 708 
Q 1631 397 2203 397 
Q 2534 397 2845 478 
Q 3156 559 3463 722 
L 3463 178 
Q 3153 47 2828 -22 
Q 2503 -91 2169 -91 
Q 1331 -91 842 396 
Q 353 884 353 1716 
Q 353 2575 817 3079 
Q 1281 3584 2069 3584 
Q 2775 3584 3186 3129 
Q 3597 2675 3597 1894 
z
M 3022 2063 
Q 3016 2534 2758 2815 
Q 2500 3097 2075 3097 
Q 1594 3097 1305 2825 
Q 1016 2553 972 2059 
L 3022 2063 
z
" transform="scale(0.015625)"/>
      </defs>
      <use xlink:href="#DejaVuSans-50"/>
      <use xlink:href="#DejaVuSans-72" transform="translate(58.552734 0)"/>
      <use xlink:href="#DejaVuSans-69" transform="translate(99.666016 0)"/>
      <use xlink:href="#DejaVuSans-63" transform="translate(127.449219 0)"/>
      <use xlink:href="#DejaVuSans-65" transform="translate(182.429688 0)"/>
     </g>
    </g>
   </g>
   <g id="line2d_16">
    <path d="M 71.064364 48.074862 
L 71.490763 47.746873 
L 72.334424 50.072709 
L 73.342553 44.915815 
L 74.27454 45.518847 
L 75.166932 47.641585 
L 76.239021 49.590526 
L 76.735471 45.819353 
L 77.167961 46.582237 
L 78.380153 43.357915 
L 79.836001 47.651487 
L 80.087272 41.960473 
L 80.268491 41.02642 
L 81.265961 44.126458 
L 82.059367 42.725782 
L 82.619777 41.097353 
L 83.195416 41.54215 
L 84.267505 43.325783 
L 84.710655 42.623525 
L 86.026401 39.486304 
L 86.524374 40.939522 
L 86.769554 39.410116 
L 88.450784 40.105099 
L 89.853332 43.823527 
L 90.661967 42.293111 
L 91.883296 45.803388 
L 92.171115 45.811876 
L 93.604121 42.667581 
L 93.715289 41.132112 
L 94.175191 43.647912 
L 95.162 41.629856 
L 95.838147 38.495464 
L 97.030541 37.844133 
L 98.172681 44.070479 
L 98.174204 44.064416 
L 98.722432 41.26448 
L 99.754926 43.392674 
L 100.505693 42.026354 
L 101.810779 42.671623 
L 102.060527 43.088329 
L 103.024493 42.548955 
L 103.568152 44.462329 
L 104.43161 44.457681 
L 105.706238 43.692574 
L 107.277823 43.016992 
L 107.417926 41.951581 
L 108.765651 41.821638 
L 109.854491 42.762158 
L 110.982926 41.452827 
L 111.672779 43.187554 
L 112.4738 42.66556 
L 113.203247 40.900721 
L 113.239795 41.266299 
L 114.788537 38.749691 
L 116.078394 40.655184 
L 116.414945 39.623724 
L 117.410891 42.119517 
L 117.828153 41.144642 
L 118.6109 38.071482 
L 119.261158 38.438475 
L 120.590609 42.890484 
L 120.963709 42.649191 
L 121.889604 41.133123 
L 122.979967 42.647574 
L 123.619565 41.304898 
L 123.965253 41.706852 
L 124.519572 38.952992 
L 125.341913 40.084688 
L 125.992171 35.878216 
L 127.195226 38.104019 
L 127.801321 36.454774 
L 128.421123 36.998594 
L 129.223667 35.57771 
L 129.889154 35.500917 
L 131.433327 37.465015 
L 131.603887 35.068851 
L 132.899835 35.936417 
L 134.195784 31.809164 
L 134.328272 32.510209 
L 134.873454 34.171781 
L 136.014071 33.989295 
L 136.886666 34.811189 
L 137.511036 34.574947 
L 138.741502 30.910881 
L 139.323232 31.585856 
L 140.169938 32.927118 
L 141.283144 32.898017 
L 141.787209 32.213947 
L 142.163354 32.009434 
L 143.061837 33.01927 
L 143.701436 33.926243 
L 144.50398 32.434628 
L 145.970488 32.237794 
L 146.17455 32.999061 
L 146.465415 33.28926 
L 147.750704 32.110074 
L 147.875578 32.164234 
L 149.252237 33.948473 
L 149.990821 33.625535 
L 150.624328 32.150492 
L 151.469512 34.55777 
L 152.625358 30.998385 
L 153.304551 35.000343 
L 153.935012 34.05558 
L 154.431463 35.545376 
L 155.406089 34.749552 
L 156.417264 33.305023 
L 157.902046 34.423785 
L 158.375653 32.463527 
L 158.847738 32.463527 
L 160.177189 34.838066 
L 161.065013 30.655037 
L 161.451818 31.565445 
L 162.190402 30.470328 
L 163.751327 31.927992 
L 164.354377 29.802223 
L 164.457931 29.870327 
L 165.883322 32.392796 
L 166.8214 31.764098 
L 167.066579 34.801691 
L 167.628512 33.55339 
L 168.103642 30.495387 
L 168.964055 31.226341 
L 169.20162 28.573323 
L 171.225492 30.240351 
L 171.735648 28.775412 
L 172.807737 28.565442 
L 172.996571 29.77575 
L 173.479316 29.427955 
L 173.814343 31.006671 
L 175.137703 30.234491 
L 176.415377 31.304145 
L 176.67274 31.232404 
L 177.6763 33.347664 
L 178.047876 32.109872 
L 178.78646 34.05558 
L 180.080886 32.922874 
L 180.73419 33.401217 
L 181.009827 33.191247 
L 181.673791 32.406538 
L 182.531157 32.73958 
L 183.441824 32.059754 
L 184.92356 32.415632 
L 185.400214 33.007549 
L 186.679411 33.282389 
L 186.97789 32.711287 
L 187.389061 32.666424 
L 187.768251 33.522268 
L 188.540338 32.84992 
L 189.501258 33.787206 
L 190.134766 33.272285 
L 191.403303 35.646218 
L 191.572339 34.840289 
L 192.63986 40.572934 
L 193.559663 39.954947 
L 194.654595 37.525843 
L 195.910949 40.389437 
L 196.442425 38.475659 
L 197.572383 40.253836 
L 197.680505 41.34673 
L 199.111988 37.835645 
L 200.506922 39.354138 
L 200.595247 38.275794 
L 201.830281 41.391796 
L 203.138413 39.486102 
L 203.599837 41.114935 
L 203.640954 41.922885 
L 205.096802 38.772527 
L 205.147057 39.008971 
L 206.225237 36.603714 
L 206.852653 36.547331 
L 208.101393 37.843729 
L 208.410532 37.465217 
L 209.537443 41.229519 
L 210.615624 40.124903 
L 211.127303 41.522952 
L 211.838475 41.095534 
L 212.654725 47.18729 
L 212.983661 44.631477 
L 214.275041 46.756639 
L 214.58418 44.869537 
L 216.314142 45.009988 
L 216.780135 47.165464 
L 217.658822 46.824339 
L 218.476594 43.821304 
L 218.804008 46.363779 
L 220.669503 45.022316 
L 221.66545 45.745388 
L 222.056823 46.20029 
L 222.329414 45.548756 
L 223.43196 46.025685 
L 224.525369 45.611404 
L 225.638575 44.922484 
L 225.965988 45.748824 
L 227.0929 45.900795 
L 227.673107 45.399817 
L 228.250269 46.103691 
L 229.121341 44.699985 
L 229.205098 44.838011 
L 230.449269 42.62009 
L 230.7112 43.174015 
L 231.043182 39.753263 
L 232.989389 41.248313 
L 233.339646 39.718908 
L 234.317318 40.559596 
L 234.790925 35.931567 
L 235.310218 37.442785 
L 236.190427 35.619341 
L 237.291451 34.896672 
L 238.164046 36.233285 
L 238.241711 36.151642 
L 239.357963 38.951982 
L 240.248832 37.054977 
L 241.002645 38.867307 
L 241.278281 37.945177 
L 241.989454 34.949215 
L 242.862049 36.49398 
L 243.928047 35.091485 
L 244.346831 35.911156 
L 245.627551 30.626946 
L 245.772222 31.554331 
L 246.650909 28.061029 
L 247.508276 29.958034 
L 248.444831 25.446004 
L 249.245852 26.217376 
L 249.807785 27.640685 
L 250.336215 27.481237 
L 251.728103 24.733642 
L 252.003739 27.05766 
L 253.078874 22.290594 
L 253.473293 22.732966 
L 254.581931 24.44223 
L 254.875841 23.358228 
L 256.104784 25.64304 
L 257.546927 24.295918 
L 258.090585 16.385569 
L 259.531205 18.828414 
L 260.48908 20.719962 
L 261.127155 18.582675 
L 261.7165 19.607667 
L 263.102297 19.231783 
L 263.763215 20.927709 
L 264.370834 21.055631 
L 265.284546 19.486414 
L 265.782519 19.782474 
L 266.726688 13.034941 
L 266.877451 13.519954 
L 267.996748 19.072941 
L 268.421624 17.253943 
L 269.585084 19.376074 
L 270.602351 19.162264 
L 271.368346 15.62228 
L 271.508449 17.888703 
L 271.962259 15.832857 
L 273.140948 17.4627 
L 274.229788 14.833529 
L 274.578521 15.235483 
L 275.812033 11.80402 
L 275.923201 12.391492 
L 277.337932 15.083917 
L 277.415598 14.70783 
L 278.844034 16.852191 
L 280.094297 13.837031 
L 280.403437 18.600863 
L 280.433894 17.478867 
L 281.416134 22.925556 
L 282.131875 19.696788 
L 282.862845 21.56449 
L 284.189251 22.043642 
L 284.818189 18.580654 
L 286.010584 20.879814 
L 286.074543 17.65428 
L 286.502465 20.243034 
L 287.014144 15.942793 
L 288.32989 17.298806 
L 289.153753 21.142934 
L 289.520761 19.780655 
L 290.570007 21.944821 
L 291.477628 16.771962 
L 292.432457 22.885947 
L 292.499463 24.711008 
L 293.883737 20.795139 
L 294.28577 20.495846 
L 294.865977 22.308378 
L 296.076646 22.439331 
L 296.428425 20.82323 
L 297.427417 19.281295 
L 298.467526 29.249309 
L 298.57108 28.735196 
L 299.256364 54.953753 
L 300.613227 37.620825 
L 301.793438 43.972668 
L 302.874664 39.382834 
L 303.049793 39.326048 
L 304.502595 42.204798 
L 304.536098 41.385531 
L 305.83966 45.092845 
L 306.298039 45.140133 
L 307.150837 40.0665 
L 307.796527 42.0211 
L 308.5077 40.071956 
L 309.112273 42.012006 
L 310.514821 33.3899 
L 310.753909 35.674511 
L 311.815338 32.46292 
L 312.100112 33.064134 
L 312.780827 35.314793 
L 314.07373 36.959793 
L 314.565612 33.299163 
L 315.084905 35.942682 
L 316.077805 32.462718 
L 316.595576 32.554466 
L 317.78797 37.727932 
L 318.302694 37.085088 
L 319.568186 43.926188 
L 320.302201 44.476273 
L 320.953983 38.11574 
L 321.112359 40.754005 
L 322.312368 37.263128 
L 323.370751 37.263128 
L 323.739282 40.831001 
L 324.811371 37.388019 
L 325.470766 40.732583 
L 326.153005 39.91554 
L 326.888543 44.028849 
L 327.415451 41.34572 
L 327.680427 43.338515 
L 328.67485 43.68449 
L 329.300743 40.850603 
L 330.8038 45.144579 
L 331.373347 40.597588 
L 331.746446 41.446562 
L 332.446959 49.59578 
L 333.400265 49.465029 
L 334.490628 46.335285 
L 335.171344 46.155022 
L 336.136833 54.025762 
L 336.692675 57.486932 
L 336.937854 51.577662 
L 337.69319 55.391476 
L 338.046492 49.603056 
L 339.441426 49.633167 
L 340.000313 51.861192 
L 341.080016 51.568164 
L 341.654132 49.605481 
L 342.165811 51.005348 
L 342.870892 49.943979 
L 343.911001 51.521078 
L 344.829282 49.913868 
L 345.852639 51.032023 
L 346.571426 49.928822 
L 347.911537 52.368839 
L 347.999863 48.676884 
L 348.834387 49.684901 
L 349.650636 46.619825 
L 350.160792 45.662128 
L 350.884148 47.193959 
L 351.51004 49.65762 
L 352.700912 42.968086 
L 353.42579 41.259832 
L 354.034932 43.163506 
L 355.158798 41.129081 
L 355.589765 44.639358 
L 356.177587 41.939456 
L 357.158305 44.067246 
L 357.269473 43.453099 
L 358.51669 49.531516 
L 359.191314 49.527272 
L 360.047158 45.558457 
L 360.424826 48.034243 
L 361.05681 36.454976 
L 361.834988 40.338713 
L 362.963422 48.701539 
L 363.354796 47.201032 
L 365.457857 50.440712 
L 366.149232 46.673177 
L 366.400503 46.400357 
L 367.181727 49.549704 
L 367.940108 51.117709 
L 369.271082 47.569641 
L 369.444687 47.832356 
L 370.178703 43.932048 
L 371.418306 47.001368 
L 372.836082 41.930766 
L 373.541164 45.587759 
L 373.790912 45.336766 
L 374.955895 42.921606 
L 375.297014 43.32457 
L 377.241698 40.557373 
L 377.704645 44.968156 
L 378.552875 44.192338 
L 379.635624 42.315341 
L 380.194511 43.12329 
L 381.012284 41.690483 
L 381.324469 41.934202 
L 382.168129 40.912442 
L 383.081842 40.646292 
L 383.829563 42.075664 
L 385.123988 41.788294 
L 385.897598 40.668521 
L 386.67273 41.9631 
L 387.345832 41.284689 
L 388.628074 36.947062 
L 388.864117 37.892634 
L 388.981377 36.561679 
L 390.819461 38.556697 
L 391.861093 33.829645 
L 392.025561 34.751977 
L 393.114401 31.87747 
L 393.412881 33.312298 
L 394.839794 35.361071 
L 395.768735 32.845272 
L 396.332191 35.178181 
L 396.382445 35.060162 
L 397.818496 37.232007 
L 398.555557 37.277274 
L 399.304801 35.343288 
L 400.113436 36.131433 
L 400.564201 32.365716 
L 401.287557 33.249247 
L 402.178426 39.928271 
L 402.565231 37.936083 
L 403.210921 40.248582 
L 403.919048 39.135882 
L 404.782506 37.261107 
L 406.067794 37.261107 
L 406.736327 42.517227 
L 407.164249 40.657002 
L 407.311966 45.975163 
L 409.198781 42.55239 
L 409.664774 48.430538 
L 410.340921 41.38735 
L 411.443467 44.9627 
L 412.731802 50.898039 
L 413.369877 51.990125 
L 414.379529 47.299853 
L 414.982579 47.506185 
L 415.42573 44.275801 
L 416.272436 46.252226 
L 417.180057 43.340738 
L 417.918641 42.517429 
L 418.358746 47.419894 
L 419.019664 44.355828 
L 419.368398 46.021846 
L 420.65064 45.587355 
L 421.016125 43.687521 
L 422.009026 44.229119 
L 423.295837 45.205004 
L 423.539494 44.851551 
L 425.286207 44.987152 
L 426.361341 44.275195 
L 426.509058 44.740605 
L 427.989272 42.613825 
L 428.644099 42.482468 
L 428.941055 44.225279 
L 429.621771 45.269268 
L 430.275075 43.900927 
L 431.510109 43.124503 
L 432.50301 49.647111 
L 432.774078 48.782172 
L 433.57053 50.615317 
L 434.832976 47.988773 
L 435.314198 54.026773 
L 435.60354 49.196049 
L 436.83096 53.003599 
L 438.161934 50.081803 
L 438.551785 54.642738 
L 438.687319 54.374769 
L 439.555345 57.508151 
L 440.868045 55.188782 
L 441.562466 64.107957 
L 442.346736 66.888897 
L 442.575164 61.149786 
L 443.309179 66.821197 
L 444.157409 60.180165 
L 444.908176 62.322101 
L 446.021382 59.202865 
L 446.383821 60.342442 
L 447.504641 55.733814 
L 447.733069 55.653383 
L 448.981809 59.201855 
L 449.213283 59.010073 
L 449.763033 56.429605 
L 451.978785 57.619906 
L 452.106705 60.008996 
L 452.294016 59.009466 
L 452.615338 64.149385 
L 453.69961 63.635676 
L 455.111295 60.207447 
L 455.787442 59.819437 
L 456.614351 62.896841 
L 456.752931 62.323718 
L 457.427555 66.319411 
L 458.220962 63.736518 
L 459.628079 56.673728 
L 459.692038 56.728292 
L 461.141795 59.810141 
L 461.216415 59.175381 
L 461.837739 60.826444 
L 462.783431 59.513475 
L 463.48699 61.715836 
L 464.690044 61.566694 
L 465.673807 59.796197 
L 466.621022 61.857095 
L 468.20479 61.660463 
L 468.495655 60.137322 
L 468.896166 60.523513 
L 469.578404 56.461737 
L 470.201251 57.51967 
L 471.670805 52.621854 
L 471.798725 51.422458 
L 472.171824 53.322696 
L 473.851531 51.445496 
L 474.392144 52.864562 
L 474.763721 51.611411 
L 475.295197 55.329839 
L 476.728202 54.090431 
L 477.558157 49.792615 
L 478.040902 50.507806 
L 479.137356 55.185346 
L 480.128734 53.710706 
L 480.705896 56.214785 
L 480.804881 55.410473 
L 482.143469 59.281478 
L 482.481543 59.755779 
L 483.408961 58.064097 
L 484.085108 58.583464 
L 485.192222 54.643143 
L 485.903395 54.089016 
L 486.740964 60.765009 
L 486.766853 60.189461 
L 487.595285 63.048407 
L 488.961285 59.636345 
L 489.451644 62.706271 
L 489.917637 61.068748 
L 490.453682 56.665644 
L 492.221715 57.976996 
L 492.76385 63.797145 
L 492.786693 63.291924 
L 493.523754 68.788731 
L 494.297364 64.01338 
L 495.504987 71.052122 
L 496.068443 69.533225 
L 497.228857 73.239325 
L 497.426828 75.847884 
L 498.360338 70.213252 
L 498.818716 72.610426 
L 499.910602 76.791839 
L 500.318727 75.481497 
L 500.943097 71.416083 
L 501.891835 72.244848 
L 503.017224 73.802142 
L 503.504537 72.024571 
L 503.95987 73.471727 
L 504.873582 72.851113 
L 506.262425 75.19534 
L 506.341613 74.755191 
L 508.225383 71.822685 
L 509.128435 74.584022 
L 509.382752 73.729794 
L 510.110676 77.396488 
L 511.114237 78.994199 
L 511.804089 73.995743 
L 513.116789 75.182406 
L 513.561462 73.057042 
L 514.861979 77.85442 
L 515.041676 73.101905 
L 515.595995 76.266207 
L 516.337624 82.563688 
L 516.977223 80.345565 
L 518.417842 86.467836 
L 519.791456 82.025729 
L 520.531563 83.252204 
L 521.221416 77.38315 
L 521.603652 77.499149 
L 522.500613 80.056983 
L 522.989449 78.95843 
L 524.387429 85.028157 
L 524.401134 84.705422 
L 524.854945 81.032666 
L 526.639729 80.241287 
L 527.39811 87.29559 
L 527.804712 87.892358 
L 528.867664 80.518149 
L 529.942799 78.890326 
L 530.357015 81.692485 
L 530.649403 80.283524 
L 531.450424 82.114446 
L 531.93926 80.206932 
L 533.264142 93.01328 
L 533.544347 92.578588 
L 534.091052 88.752648 
L 534.948418 91.461038 
L 536.242844 101.066708 
L 537.415441 103.884428 
L 537.939303 94.786 
L 538.272808 100.397189 
L 538.591084 94.1957 
L 539.954038 96.899442 
L 540.215969 93.938845 
L 541.260647 97.519247 
L 541.728163 95.717224 
L 542.737815 98.149965 
L 543.560156 95.830798 
L 543.994169 96.677144 
L 544.151023 95.410454 
L 545.486566 96.070677 
L 546.921094 91.496404 
L 547.658155 94.211463 
L 548.536841 93.371381 
L 549.727713 90.210515 
L 550.026192 91.833285 
L 551.125692 88.944834 
L 551.68458 93.213348 
L 552.152096 88.997782 
L 553.032305 90.135136 
L 554.121146 93.713517 
L 555.138412 94.555013 
L 555.921159 87.922267 
L 556.585123 86.58141 
L 557.442489 89.264538 
L 557.925234 90.107247 
L 558.491735 88.124557 
L 559.044531 88.934932 
L 559.580576 91.696471 
L 560.859773 92.736621 
L 561.537443 88.838334 
L 562.617146 91.803376 
L 563.447101 88.60573 
L 563.588726 88.967873 
L 564.053197 91.256323 
L 565.145083 89.950629 
L 565.987221 92.434296 
L 566.800425 91.593002 
L 567.441546 84.174536 
L 568.132922 85.255103 
L 569.45019 81.168874 
L 570.124814 83.14348 
L 571.056801 81.160386 
L 571.093349 81.410369 
L 571.941579 84.073289 
L 572.188281 83.5808 
L 572.188281 83.5808 
" clip-path="url(#p0d791a702e)" style="fill: none; stroke: #4169e1; stroke-width: 1.5; stroke-linecap: square"/>
   </g>
   <g id="patch_3">
    <path d="M 66.053125 108.488449 
L 66.053125 7.2 
" style="fill: none; stroke: #000000; stroke-width: 0.8; stroke-linejoin: miter; stroke-linecap: square"/>
   </g>
   <g id="patch_4">
    <path d="M 577.19952 108.488449 
L 577.19952 7.2 
" style="fill: none; stroke: #000000; stroke-width: 0.8; stroke-linejoin: miter; stroke-linecap: square"/>
   </g>
   <g id="patch_5">
    <path d="M 66.053125 108.488449 
L 577.19952 108.488449 
" style="fill: none; stroke: #000000; stroke-width: 0.8; stroke-linejoin: miter; stroke-linecap: square"/>
   </g>
   <g id="patch_6">
    <path d="M 66.053125 7.2 
L 577.19952 7.2 
" style="fill: none; stroke: #000000; stroke-width: 0.8; stroke-linejoin: miter; stroke-linecap: square"/>
   </g>
  </g>
  <g id="axes_2">
   <g id="patch_7">
    <path d="M 66.053125 219.277377 
L 577.19952 219.277377 
L 577.19952 117.988929 
L 66.053125 117.988929 
z
" style="fill: #ffffff"/>
   </g>
   <g id="matplotlib.axis_3">
    <g id="xtick_13">
     <g id="line2d_17">
      <g>
       <use xlink:href="#mc5b6c5f912" x="71.064364" y="219.277377" style="stroke: #000000; stroke-width: 0.8"/>
      </g>
     </g>
    </g>
    <g id="xtick_14">
     <g id="line2d_18">
      <g>
       <use xlink:href="#mc5b6c5f912" x="111.108793" y="219.277377" style="stroke: #000000; stroke-width: 0.8"/>
      </g>
     </g>
    </g>
    <g id="xtick_15">
     <g id="line2d_19">
      <g>
       <use xlink:href="#mc5b6c5f912" x="151.153222" y="219.277377" style="stroke: #000000; stroke-width: 0.8"/>
      </g>
     </g>
    </g>
    <g id="xtick_16">
     <g id="line2d_20">
      <g>
       <use xlink:href="#mc5b6c5f912" x="191.197651" y="219.277377" style="stroke: #000000; stroke-width: 0.8"/>
      </g>
     </g>
    </g>
    <g id="xtick_17">
     <g id="line2d_21">
      <g>
       <use xlink:href="#mc5b6c5f912" x="242.683346" y="219.277377" style="stroke: #000000; stroke-width: 0.8"/>
      </g>
     </g>
    </g>
    <g id="xtick_18">
     <g id="line2d_22">
      <g>
       <use xlink:href="#mc5b6c5f912" x="282.727775" y="219.277377" style="stroke: #000000; stroke-width: 0.8"/>
      </g>
     </g>
    </g>
    <g id="xtick_19">
     <g id="line2d_23">
      <g>
       <use xlink:href="#mc5b6c5f912" x="322.772204" y="219.277377" style="stroke: #000000; stroke-width: 0.8"/>
      </g>
     </g>
    </g>
    <g id="xtick_20">
     <g id="line2d_24">
      <g>
       <use xlink:href="#mc5b6c5f912" x="362.816633" y="219.277377" style="stroke: #000000; stroke-width: 0.8"/>
      </g>
     </g>
    </g>
    <g id="xtick_21">
     <g id="line2d_25">
      <g>
       <use xlink:href="#mc5b6c5f912" x="420.02296" y="219.277377" style="stroke: #000000; stroke-width: 0.8"/>
      </g>
     </g>
    </g>
    <g id="xtick_22">
     <g id="line2d_26">
      <g>
       <use xlink:href="#mc5b6c5f912" x="460.067389" y="219.277377" style="stroke: #000000; stroke-width: 0.8"/>
      </g>
     </g>
    </g>
    <g id="xtick_23">
     <g id="line2d_27">
      <g>
       <use xlink:href="#mc5b6c5f912" x="500.111818" y="219.277377" style="stroke: #000000; stroke-width: 0.8"/>
      </g>
     </g>
    </g>
    <g id="xtick_24">
     <g id="line2d_28">
      <g>
       <use xlink:href="#mc5b6c5f912" x="540.156247" y="219.277377" style="stroke: #000000; stroke-width: 0.8"/>
      </g>
     </g>
    </g>
   </g>
   <g id="matplotlib.axis_4">
    <g id="ytick_4">
     <g id="line2d_29">
      <g>
       <use xlink:href="#m5f12be9411" x="66.053125" y="213.019199" style="stroke: #000000; stroke-width: 0.8"/>
      </g>
     </g>
     <g id="text_5">
      <!-- 1000 -->
      <g transform="translate(33.603125 216.818418) scale(0.1 -0.1)">
       <use xlink:href="#DejaVuSans-31"/>
       <use xlink:href="#DejaVuSans-30" transform="translate(63.623047 0)"/>
       <use xlink:href="#DejaVuSans-30" transform="translate(127.246094 0)"/>
       <use xlink:href="#DejaVuSans-30" transform="translate(190.869141 0)"/>
      </g>
     </g>
    </g>
    <g id="ytick_5">
     <g id="line2d_30">
      <g>
       <use xlink:href="#m5f12be9411" x="66.053125" y="188.874365" style="stroke: #000000; stroke-width: 0.8"/>
      </g>
     </g>
     <g id="text_6">
      <!-- 1050 -->
      <g transform="translate(33.603125 192.673584) scale(0.1 -0.1)">
       <defs>
        <path id="DejaVuSans-35" d="M 691 4666 
L 3169 4666 
L 3169 4134 
L 1269 4134 
L 1269 2991 
Q 1406 3038 1543 3061 
Q 1681 3084 1819 3084 
Q 2600 3084 3056 2656 
Q 3513 2228 3513 1497 
Q 3513 744 3044 326 
Q 2575 -91 1722 -91 
Q 1428 -91 1123 -41 
Q 819 9 494 109 
L 494 744 
Q 775 591 1075 516 
Q 1375 441 1709 441 
Q 2250 441 2565 725 
Q 2881 1009 2881 1497 
Q 2881 1984 2565 2268 
Q 2250 2553 1709 2553 
Q 1456 2553 1204 2497 
Q 953 2441 691 2322 
L 691 4666 
z
" transform="scale(0.015625)"/>
       </defs>
       <use xlink:href="#DejaVuSans-31"/>
       <use xlink:href="#DejaVuSans-30" transform="translate(63.623047 0)"/>
       <use xlink:href="#DejaVuSans-35" transform="translate(127.246094 0)"/>
       <use xlink:href="#DejaVuSans-30" transform="translate(190.869141 0)"/>
      </g>
     </g>
    </g>
    <g id="ytick_6">
     <g id="line2d_31">
      <g>
       <use xlink:href="#m5f12be9411" x="66.053125" y="164.729532" style="stroke: #000000; stroke-width: 0.8"/>
      </g>
     </g>
     <g id="text_7">
      <!-- 1100 -->
      <g transform="translate(33.603125 168.528751) scale(0.1 -0.1)">
       <use xlink:href="#DejaVuSans-31"/>
       <use xlink:href="#DejaVuSans-31" transform="translate(63.623047 0)"/>
       <use xlink:href="#DejaVuSans-30" transform="translate(127.246094 0)"/>
       <use xlink:href="#DejaVuSans-30" transform="translate(190.869141 0)"/>
      </g>
     </g>
    </g>
    <g id="ytick_7">
     <g id="line2d_32">
      <g>
       <use xlink:href="#m5f12be9411" x="66.053125" y="140.584699" style="stroke: #000000; stroke-width: 0.8"/>
      </g>
     </g>
     <g id="text_8">
      <!-- 1150 -->
      <g transform="translate(33.603125 144.383917) scale(0.1 -0.1)">
       <use xlink:href="#DejaVuSans-31"/>
       <use xlink:href="#DejaVuSans-31" transform="translate(63.623047 0)"/>
       <use xlink:href="#DejaVuSans-35" transform="translate(127.246094 0)"/>
       <use xlink:href="#DejaVuSans-30" transform="translate(190.869141 0)"/>
      </g>
     </g>
    </g>
    <g id="text_9">
     <!-- Equity -->
     <g transform="translate(14.798438 184.44409) rotate(-90) scale(0.1 -0.1)">
      <defs>
       <path id="DejaVuSans-45" d="M 628 4666 
L 3578 4666 
L 3578 4134 
L 1259 4134 
L 1259 2753 
L 3481 2753 
L 3481 2222 
L 1259 2222 
L 1259 531 
L 3634 531 
L 3634 0 
L 628 0 
L 628 4666 
z
" transform="scale(0.015625)"/>
       <path id="DejaVuSans-71" d="M 947 1747 
Q 947 1113 1208 752 
Q 1469 391 1925 391 
Q 2381 391 2643 752 
Q 2906 1113 2906 1747 
Q 2906 2381 2643 2742 
Q 2381 3103 1925 3103 
Q 1469 3103 1208 2742 
Q 947 2381 947 1747 
z
M 2906 525 
Q 2725 213 2448 61 
Q 2172 -91 1784 -91 
Q 1150 -91 751 415 
Q 353 922 353 1747 
Q 353 2572 751 3078 
Q 1150 3584 1784 3584 
Q 2172 3584 2448 3432 
Q 2725 3281 2906 2969 
L 2906 3500 
L 3481 3500 
L 3481 -1331 
L 2906 -1331 
L 2906 525 
z
" transform="scale(0.015625)"/>
       <path id="DejaVuSans-75" d="M 544 1381 
L 544 3500 
L 1119 3500 
L 1119 1403 
Q 1119 906 1312 657 
Q 1506 409 1894 409 
Q 2359 409 2629 706 
Q 2900 1003 2900 1516 
L 2900 3500 
L 3475 3500 
L 3475 0 
L 2900 0 
L 2900 538 
Q 2691 219 2414 64 
Q 2138 -91 1772 -91 
Q 1169 -91 856 284 
Q 544 659 544 1381 
z
M 1991 3584 
L 1991 3584 
z
" transform="scale(0.015625)"/>
       <path id="DejaVuSans-74" d="M 1172 4494 
L 1172 3500 
L 2356 3500 
L 2356 3053 
L 1172 3053 
L 1172 1153 
Q 1172 725 1289 603 
Q 1406 481 1766 481 
L 2356 481 
L 2356 0 
L 1766 0 
Q 1100 0 847 248 
Q 594 497 594 1153 
L 594 3053 
L 172 3053 
L 172 3500 
L 594 3500 
L 594 4494 
L 1172 4494 
z
" transform="scale(0.015625)"/>
       <path id="DejaVuSans-79" d="M 2059 -325 
Q 1816 -950 1584 -1140 
Q 1353 -1331 966 -1331 
L 506 -1331 
L 506 -850 
L 844 -850 
Q 1081 -850 1212 -737 
Q 1344 -625 1503 -206 
L 1606 56 
L 191 3500 
L 800 3500 
L 1894 763 
L 2988 3500 
L 3597 3500 
L 2059 -325 
z
" transform="scale(0.015625)"/>
      </defs>
      <use xlink:href="#DejaVuSans-45"/>
      <use xlink:href="#DejaVuSans-71" transform="translate(63.183594 0)"/>
      <use xlink:href="#DejaVuSans-75" transform="translate(126.660156 0)"/>
      <use xlink:href="#DejaVuSans-69" transform="translate(190.039062 0)"/>
      <use xlink:href="#DejaVuSans-74" transform="translate(217.822266 0)"/>
      <use xlink:href="#DejaVuSans-79" transform="translate(257.03125 0)"/>
     </g>
    </g>
   </g>
   <g id="line2d_33">
    <path d="M 71.064364 213.019199 
L 131.308453 213.019199 
L 132.633336 214.673357 
L 132.899835 214.34798 
L 134.195784 205.740253 
L 134.328272 207.20234 
L 134.873454 210.667685 
L 136.014071 210.287095 
L 136.886666 212.001223 
L 137.511036 211.508522 
L 138.741502 203.866809 
L 139.323232 205.274526 
L 140.169938 208.071837 
L 141.283144 208.011145 
L 141.787209 206.584462 
L 142.163354 206.157932 
L 143.061837 208.264029 
L 143.701436 210.155596 
L 144.50398 207.04471 
L 145.970488 206.634196 
L 146.17455 208.221881 
L 146.465415 208.827116 
L 147.750704 206.367825 
L 147.875578 206.48078 
L 149.252237 210.201958 
L 149.990821 209.528445 
L 150.624328 206.45212 
L 151.469512 211.472697 
L 152.625358 204.049307 
L 153.208611 209.102337 
L 165.947282 209.101915 
L 167.066579 211.242685 
L 167.415312 205.831363 
L 167.628512 208.635373 
L 168.103642 202.248156 
L 168.964055 203.774892 
L 169.20162 198.233564 
L 171.225492 201.715466 
L 171.735648 198.655664 
L 172.807737 198.217102 
L 172.996571 200.745058 
L 173.479316 200.018624 
L 173.814343 203.316069 
L 175.137703 201.703225 
L 176.499134 203.902788 
L 217.154757 203.902366 
L 217.658822 206.738143 
L 218.476594 200.061737 
L 218.804008 205.714218 
L 220.669503 202.73185 
L 221.66545 204.3394 
L 222.056823 205.350745 
L 222.329414 203.902243 
L 223.43196 204.962561 
L 224.525369 204.041522 
L 225.638575 202.509903 
L 225.965988 204.347037 
L 227.0929 204.684901 
L 227.673107 203.571119 
L 228.250269 205.135986 
L 229.121341 202.015238 
L 229.205098 202.322101 
L 230.449269 197.391175 
L 230.7112 198.622671 
L 231.043182 191.017589 
L 232.989389 194.341415 
L 233.339646 190.94121 
L 234.317318 192.810244 
L 234.790925 182.521121 
L 235.310218 185.88089 
L 236.190427 181.826973 
L 237.291451 180.220322 
L 238.164046 183.191907 
L 238.241711 183.010395 
L 239.357963 189.236166 
L 240.248832 185.018708 
L 241.002645 189.047914 
L 241.278281 186.997818 
L 241.989454 180.337137 
L 242.862049 183.771487 
L 243.928047 180.653435 
L 244.346831 182.475743 
L 245.627551 170.727785 
L 245.772222 172.789564 
L 246.650909 165.023187 
L 247.508276 169.240645 
L 248.444831 159.209413 
L 249.245852 160.924342 
L 249.807785 164.08867 
L 250.336215 163.734183 
L 251.728103 157.625676 
L 252.003739 162.792477 
L 253.078874 152.194245 
L 253.473293 153.177734 
L 254.581931 156.977804 
L 254.875841 154.567828 
L 256.104784 159.647468 
L 257.546927 156.65252 
L 258.090585 139.066077 
L 259.531205 144.497059 
L 260.48908 148.702386 
L 261.127155 143.950726 
L 261.7165 146.22951 
L 263.102297 145.393836 
L 263.763215 149.164253 
L 264.370834 149.448651 
L 265.284546 145.959937 
L 265.782519 146.618143 
L 266.726688 131.616897 
L 266.877451 132.695186 
L 267.996748 145.040696 
L 268.421624 140.996663 
L 269.585084 145.714627 
L 270.602351 145.239281 
L 271.368346 137.36912 
L 271.508449 142.407874 
L 271.962259 137.837277 
L 273.140948 141.460777 
L 274.229788 135.615552 
L 274.578521 136.509184 
L 275.812033 128.88029 
L 275.923201 130.186367 
L 277.337932 136.172219 
L 277.415598 135.336096 
L 278.844034 140.103481 
L 280.094297 133.400118 
L 280.403437 143.991162 
L 280.433894 141.49672 
L 280.616636 147.157287 
L 298.484278 147.157287 
L 299.19545 145.875402 
L 299.256364 195.031396 
L 300.613227 154.057 
L 301.793438 169.072521 
L 302.874664 158.222325 
L 303.049793 158.088083 
L 304.502595 164.893342 
L 304.536098 162.956626 
L 305.83966 171.720577 
L 306.298039 171.832366 
L 307.150837 159.838485 
L 307.796527 164.459086 
L 308.002113 160.855093 
L 309.028516 161.823929 
L 351.197855 161.823929 
L 351.895322 162.87086 
L 352.700912 149.014663 
L 353.42579 144.84171 
L 354.034932 149.492037 
L 355.158798 144.522309 
L 355.589765 153.097275 
L 356.177587 146.501907 
L 357.158305 151.699708 
L 357.269473 150.19946 
L 358.51669 165.047923 
L 359.191314 165.037556 
L 360.047158 155.342464 
L 360.424826 161.390357 
L 360.674574 140.871654 
L 361.742094 141.661519 
L 393.368718 141.661519 
L 394.20781 141.257538 
L 394.839794 145.861624 
L 395.768735 139.883708 
L 396.332191 145.427049 
L 396.382445 145.146617 
L 397.818496 150.307245 
L 398.555557 150.414808 
L 399.304801 145.819367 
L 400.113436 147.692117 
L 400.564201 138.744211 
L 401.287557 140.843612 
L 402.178426 156.713973 
L 402.406854 153.418892 
L 406.925161 153.418892 
L 408.406897 157.955198 
L 409.198781 156.178166 
L 409.664774 170.323908 
L 409.937365 164.48071 
L 443.351819 164.585512 
L 444.157409 151.489695 
L 444.801576 152.233981 
L 444.877719 155.12541 
L 458.131114 155.12541 
L 458.434161 157.182799 
L 459.628079 140.768634 
L 459.692038 140.912758 
L 461.141795 149.053116 
L 461.216415 147.376469 
L 461.837739 151.737566 
L 462.783431 148.269507 
L 463.48699 154.086794 
L 464.690044 153.692854 
L 465.673807 149.016285 
L 466.621022 154.459916 
L 468.20479 153.940534 
L 468.495655 149.917329 
L 468.896166 150.937409 
L 469.578404 140.208684 
L 470.201251 143.003095 
L 471.670805 130.066065 
L 471.798725 126.897997 
L 472.171824 131.917262 
L 473.851531 126.95885 
L 474.392144 130.707151 
L 474.763721 127.397095 
L 475.295197 137.218904 
L 476.728202 133.945145 
L 477.558157 122.592949 
L 478.040902 124.482046 
L 479.137356 136.837241 
L 480.128734 132.942147 
L 480.705896 139.556388 
L 480.804881 137.431888 
L 481.446002 146.827729 
L 482.230272 146.07935 
L 489.75926 146.07935 
L 491.030843 147.183691 
L 491.142011 144.358227 
L 492.221715 143.465581 
L 492.868927 160.460592 
L 497.289771 160.460592 
L 497.667439 161.756286 
L 497.923279 149.633692 
L 498.797397 151.179238 
L 531.930123 151.179238 
L 532.277333 149.297298 
L 532.909318 178.112734 
L 533.437748 174.987049 
L 572.188281 174.987049 
L 572.188281 174.987049 
" clip-path="url(#pfc92facb8a)" style="fill: none; stroke: #2e8b57; stroke-width: 1.5; stroke-linecap: square"/>
   </g>
   <g id="patch_8">
    <path d="M 66.053125 219.277377 
L 66.053125 117.988929 
" style="fill: none; stroke: #000000; stroke-width: 0.8; stroke-linejoin: miter; stroke-linecap: square"/>
   </g>
   <g id="patch_9">
    <path d="M 577.19952 219.277377 
L 577.19952 117.988929 
" style="fill: none; stroke: #000000; stroke-width: 0.8; stroke-linejoin: miter; stroke-linecap: square"/>
   </g>
   <g id="patch_10">
    <path d="M 66.053125 219.277377 
L 577.19952 219.277377 
" style="fill: none; stroke: #000000; stroke-width: 0.8; stroke-linejoin: miter; stroke-linecap: square"/>
   </g>
   <g id="patch_11">
    <path d="M 66.053125 117.988929 
L 577.19952 117.988929 
" style="fill: none; stroke: #000000; stroke-width: 0.8; stroke-linejoin: miter; stroke-linecap: square"/>
   </g>
  </g>
  <g id="axes_3">
   <g id="patch_12">
    <path d="M 66.053125 330.84327 
L 577.19952 330.84327 
L 577.19952 229.554821 
L 66.053125 229.554821 
z
" style="fill: #ffffff"/>
   </g>
   <g id="matplotlib.axis_5">
    <g id="xtick_25">
     <g id="line2d_34">
      <g>
       <use xlink:href="#mc5b6c5f912" x="71.064364" y="330.84327" style="stroke: #000000; stroke-width: 0.8"/>
      </g>
     </g>
     <g id="text_10">
      <!-- Sep -->
      <g transform="translate(61.639364 345.441707) scale(0.1 -0.1)">
       <defs>
        <path id="DejaVuSans-53" d="M 3425 4513 
L 3425 3897 
Q 3066 4069 2747 4153 
Q 2428 4238 2131 4238 
Q 1616 4238 1336 4038 
Q 1056 3838 1056 3469 
Q 1056 3159 1242 3001 
Q 1428 2844 1947 2747 
L 2328 2669 
Q 3034 2534 3370 2195 
Q 3706 1856 3706 1288 
Q 3706 609 3251 259 
Q 2797 -91 1919 -91 
Q 1588 -91 1214 -16 
Q 841 59 441 206 
L 441 856 
Q 825 641 1194 531 
Q 1563 422 1919 422 
Q 2459 422 2753 634 
Q 3047 847 3047 1241 
Q 3047 1584 2836 1778 
Q 2625 1972 2144 2069 
L 1759 2144 
Q 1053 2284 737 2584 
Q 422 2884 422 3419 
Q 422 4038 858 4394 
Q 1294 4750 2059 4750 
Q 2388 4750 2728 4690 
Q 3069 4631 3425 4513 
z
" transform="scale(0.015625)"/>
        <path id="DejaVuSans-70" d="M 1159 525 
L 1159 -1331 
L 581 -1331 
L 581 3500 
L 1159 3500 
L 1159 2969 
Q 1341 3281 1617 3432 
Q 1894 3584 2278 3584 
Q 2916 3584 3314 3078 
Q 3713 2572 3713 1747 
Q 3713 922 3314 415 
Q 2916 -91 2278 -91 
Q 1894 -91 1617 61 
Q 1341 213 1159 525 
z
M 3116 1747 
Q 3116 2381 2855 2742 
Q 2594 3103 2138 3103 
Q 1681 3103 1420 2742 
Q 1159 2381 1159 1747 
Q 1159 1113 1420 752 
Q 1681 391 2138 391 
Q 2594 391 2855 752 
Q 3116 1113 3116 1747 
z
" transform="scale(0.015625)"/>
       </defs>
       <use xlink:href="#DejaVuSans-53"/>
       <use xlink:href="#DejaVuSans-65" transform="translate(63.476562 0)"/>
       <use xlink:href="#DejaVuSans-70" transform="translate(125 0)"/>
      </g>
     </g>
    </g>
    <g id="xtick_26">
     <g id="line2d_35">
      <g>
       <use xlink:href="#mc5b6c5f912" x="111.108793" y="330.84327" style="stroke: #000000; stroke-width: 0.8"/>
      </g>
     </g>
     <g id="text_11">
      <!-- 08 -->
      <g transform="translate(104.746293 345.441707) scale(0.1 -0.1)">
       <use xlink:href="#DejaVuSans-30"/>
       <use xlink:href="#DejaVuSans-38" transform="translate(63.623047 0)"/>
      </g>
     </g>
    </g>
    <g id="xtick_27">
     <g id="line2d_36">
      <g>
       <use xlink:href="#mc5b6c5f912" x="151.153222" y="330.84327" style="stroke: #000000; stroke-width: 0.8"/>
      </g>
     </g>
     <g id="text_12">
      <!-- 15 -->
      <g transform="translate(144.790722 345.441707) scale(0.1 -0.1)">
       <use xlink:href="#DejaVuSans-31"/>
       <use xlink:href="#DejaVuSans-35" transform="translate(63.623047 0)"/>
      </g>
     </g>
    </g>
    <g id="xtick_28">
     <g id="line2d_37">
      <g>
       <use xlink:href="#mc5b6c5f912" x="191.197651" y="330.84327" style="stroke: #000000; stroke-width: 0.8"/>
      </g>
     </g>
     <g id="text_13">
      <!-- 22 -->
      <g transform="translate(184.835151 345.441707) scale(0.1 -0.1)">
       <use xlink:href="#DejaVuSans-32"/>
       <use xlink:href="#DejaVuSans-32" transform="translate(63.623047 0)"/>
      </g>
     </g>
    </g>
    <g id="xtick_29">
     <g id="line2d_38">
      <g>
       <use xlink:href="#mc5b6c5f912" x="242.683346" y="330.84327" style="stroke: #000000; stroke-width: 0.8"/>
      </g>
     </g>
     <g id="text_14">
      <!-- Oct -->
      <g transform="translate(234.038033 345.441707) scale(0.1 -0.1)">
       <defs>
        <path id="DejaVuSans-4f" d="M 2522 4238 
Q 1834 4238 1429 3725 
Q 1025 3213 1025 2328 
Q 1025 1447 1429 934 
Q 1834 422 2522 422 
Q 3209 422 3611 934 
Q 4013 1447 4013 2328 
Q 4013 3213 3611 3725 
Q 3209 4238 2522 4238 
z
M 2522 4750 
Q 3503 4750 4090 4092 
Q 4678 3434 4678 2328 
Q 4678 1225 4090 567 
Q 3503 -91 2522 -91 
Q 1538 -91 948 565 
Q 359 1222 359 2328 
Q 359 3434 948 4092 
Q 1538 4750 2522 4750 
z
" transform="scale(0.015625)"/>
       </defs>
       <use xlink:href="#DejaVuSans-4f"/>
       <use xlink:href="#DejaVuSans-63" transform="translate(78.710938 0)"/>
       <use xlink:href="#DejaVuSans-74" transform="translate(133.691406 0)"/>
      </g>
     </g>
    </g>
    <g id="xtick_30">
     <g id="line2d_39">
      <g>
       <use xlink:href="#mc5b6c5f912" x="282.727775" y="330.84327" style="stroke: #000000; stroke-width: 0.8"/>
      </g>
     </g>
     <g id="text_15">
      <!-- 08 -->
      <g transform="translate(276.365275 345.441707) scale(0.1 -0.1)">
       <use xlink:href="#DejaVuSans-30"/>
       <use xlink:href="#DejaVuSans-38" transform="translate(63.623047 0)"/>
      </g>
     </g>
    </g>
    <g id="xtick_31">
     <g id="line2d_40">
      <g>
       <use xlink:href="#mc5b6c5f912" x="322.772204" y="330.84327" style="stroke: #000000; stroke-width: 0.8"/>
      </g>
     </g>
     <g id="text_16">
      <!-- 15 -->
      <g transform="translate(316.409704 345.441707) scale(0.1 -0.1)">
       <use xlink:href="#DejaVuSans-31"/>
       <use xlink:href="#DejaVuSans-35" transform="translate(63.623047 0)"/>
      </g>
     </g>
    </g>
    <g id="xtick_32">
     <g id="line2d_41">
      <g>
       <use xlink:href="#mc5b6c5f912" x="362.816633" y="330.84327" style="stroke: #000000; stroke-width: 0.8"/>
      </g>
     </g>
     <g id="text_17">
      <!-- 22 -->
      <g transform="translate(356.454133 345.441707) scale(0.1 -0.1)">
       <use xlink:href="#DejaVuSans-32"/>
       <use xlink:href="#DejaVuSans-32" transform="translate(63.623047 0)"/>
      </g>
     </g>
    </g>
    <g id="xtick_33">
     <g id="line2d_42">
      <g>
       <use xlink:href="#mc5b6c5f912" x="420.02296" y="330.84327" style="stroke: #000000; stroke-width: 0.8"/>
      </g>
     </g>
     <g id="text_18">
      <!-- Nov -->
      <g transform="translate(410.263585 345.441707) scale(0.1 -0.1)">
       <defs>
        <path id="DejaVuSans-4e" d="M 628 4666 
L 1478 4666 
L 3547 763 
L 3547 4666 
L 4159 4666 
L 4159 0 
L 3309 0 
L 1241 3903 
L 1241 0 
L 628 0 
L 628 4666 
z
" transform="scale(0.015625)"/>
        <path id="DejaVuSans-6f" d="M 1959 3097 
Q 1497 3097 1228 2736 
Q 959 2375 959 1747 
Q 959 1119 1226 758 
Q 1494 397 1959 397 
Q 2419 397 2687 759 
Q 2956 1122 2956 1747 
Q 2956 2369 2687 2733 
Q 2419 3097 1959 3097 
z
M 1959 3584 
Q 2709 3584 3137 3096 
Q 3566 2609 3566 1747 
Q 3566 888 3137 398 
Q 2709 -91 1959 -91 
Q 1206 -91 779 398 
Q 353 888 353 1747 
Q 353 2609 779 3096 
Q 1206 3584 1959 3584 
z
" transform="scale(0.015625)"/>
        <path id="DejaVuSans-76" d="M 191 3500 
L 800 3500 
L 1894 563 
L 2988 3500 
L 3597 3500 
L 2284 0 
L 1503 0 
L 191 3500 
z
" transform="scale(0.015625)"/>
       </defs>
       <use xlink:href="#DejaVuSans-4e"/>
       <use xlink:href="#DejaVuSans-6f" transform="translate(74.804688 0)"/>
       <use xlink:href="#DejaVuSans-76" transform="translate(135.986328 0)"/>
      </g>
     </g>
    </g>
    <g id="xtick_34">
     <g id="line2d_43">
      <g>
       <use xlink:href="#mc5b6c5f912" x="460.067389" y="330.84327" style="stroke: #000000; stroke-width: 0.8"/>
      </g>
     </g>
     <g id="text_19">
      <!-- 08 -->
      <g transform="translate(453.704889 345.441707) scale(0.1 -0.1)">
       <use xlink:href="#DejaVuSans-30"/>
       <use xlink:href="#DejaVuSans-38" transform="translate(63.623047 0)"/>
      </g>
     </g>
    </g>
    <g id="xtick_35">
     <g id="line2d_44">
      <g>
       <use xlink:href="#mc5b6c5f912" x="500.111818" y="330.84327" style="stroke: #000000; stroke-width: 0.8"/>
      </g>
     </g>
     <g id="text_20">
      <!-- 15 -->
      <g transform="translate(493.749318 345.441707) scale(0.1 -0.1)">
       <use xlink:href="#DejaVuSans-31"/>
       <use xlink:href="#DejaVuSans-35" transform="translate(63.623047 0)"/>
      </g>
     </g>
    </g>
    <g id="xtick_36">
     <g id="line2d_45">
      <g>
       <use xlink:href="#mc5b6c5f912" x="540.156247" y="330.84327" style="stroke: #000000; stroke-width: 0.8"/>
      </g>
     </g>
     <g id="text_21">
      <!-- 22 -->
      <g transform="translate(533.793747 345.441707) scale(0.1 -0.1)">
       <use xlink:href="#DejaVuSans-32"/>
       <use xlink:href="#DejaVuSans-32" transform="translate(63.623047 0)"/>
      </g>
     </g>
    </g>
    <g id="text_22">
     <!-- Time -->
     <g transform="translate(309.392729 359.119832) scale(0.1 -0.1)">
      <defs>
       <path id="DejaVuSans-54" d="M -19 4666 
L 3928 4666 
L 3928 4134 
L 2272 4134 
L 2272 0 
L 1638 0 
L 1638 4134 
L -19 4134 
L -19 4666 
z
" transform="scale(0.015625)"/>
       <path id="DejaVuSans-6d" d="M 3328 2828 
Q 3544 3216 3844 3400 
Q 4144 3584 4550 3584 
Q 5097 3584 5394 3201 
Q 5691 2819 5691 2113 
L 5691 0 
L 5113 0 
L 5113 2094 
Q 5113 2597 4934 2840 
Q 4756 3084 4391 3084 
Q 3944 3084 3684 2787 
Q 3425 2491 3425 1978 
L 3425 0 
L 2847 0 
L 2847 2094 
Q 2847 2600 2669 2842 
Q 2491 3084 2119 3084 
Q 1678 3084 1418 2786 
Q 1159 2488 1159 1978 
L 1159 0 
L 581 0 
L 581 3500 
L 1159 3500 
L 1159 2956 
Q 1356 3278 1631 3431 
Q 1906 3584 2284 3584 
Q 2666 3584 2933 3390 
Q 3200 3197 3328 2828 
z
" transform="scale(0.015625)"/>
      </defs>
      <use xlink:href="#DejaVuSans-54"/>
      <use xlink:href="#DejaVuSans-69" transform="translate(57.958984 0)"/>
      <use xlink:href="#DejaVuSans-6d" transform="translate(85.742188 0)"/>
      <use xlink:href="#DejaVuSans-65" transform="translate(183.154297 0)"/>
     </g>
    </g>
    <g id="text_23">
     <!-- 2025-Nov -->
     <g transform="translate(528.622957 358.119832) scale(0.1 -0.1)">
      <defs>
       <path id="DejaVuSans-2d" d="M 313 2009 
L 1997 2009 
L 1997 1497 
L 313 1497 
L 313 2009 
z
" transform="scale(0.015625)"/>
      </defs>
      <use xlink:href="#DejaVuSans-32"/>
      <use xlink:href="#DejaVuSans-30" transform="translate(63.623047 0)"/>
      <use xlink:href="#DejaVuSans-32" transform="translate(127.246094 0)"/>
      <use xlink:href="#DejaVuSans-35" transform="translate(190.869141 0)"/>
      <use xlink:href="#DejaVuSans-2d" transform="translate(254.492188 0)"/>
      <use xlink:href="#DejaVuSans-4e" transform="translate(290.576172 0)"/>
      <use xlink:href="#DejaVuSans-6f" transform="translate(365.380859 0)"/>
      <use xlink:href="#DejaVuSans-76" transform="translate(426.5625 0)"/>
     </g>
    </g>
   </g>
   <g id="matplotlib.axis_6">
    <g id="ytick_8">
     <g id="line2d_46">
      <g>
       <use xlink:href="#m5f12be9411" x="66.053125" y="322.514707" style="stroke: #000000; stroke-width: 0.8"/>
      </g>
     </g>
     <g id="text_24">
      <!-- 0.02 -->
      <g transform="translate(28.407813 326.313926) scale(0.1 -0.1)">
       <defs>
        <path id="DejaVuSans-2212" d="M 678 2272 
L 4684 2272 
L 4684 1741 
L 678 1741 
L 678 2272 
z
" transform="scale(0.015625)"/>
        <path id="DejaVuSans-2e" d="M 684 794 
L 1344 794 
L 1344 0 
L 684 0 
L 684 794 
z
" transform="scale(0.015625)"/>
       </defs>
       <use xlink:href="#DejaVuSans-2212"/>
       <use xlink:href="#DejaVuSans-30" transform="translate(83.789062 0)"/>
       <use xlink:href="#DejaVuSans-2e" transform="translate(147.412109 0)"/>
       <use xlink:href="#DejaVuSans-30" transform="translate(179.199219 0)"/>
       <use xlink:href="#DejaVuSans-32" transform="translate(242.822266 0)"/>
      </g>
     </g>
    </g>
    <g id="ytick_9">
     <g id="line2d_47">
      <g>
       <use xlink:href="#m5f12be9411" x="66.053125" y="300.030296" style="stroke: #000000; stroke-width: 0.8"/>
      </g>
     </g>
     <g id="text_25">
      <!-- 0.00 -->
      <g transform="translate(36.7875 303.829515) scale(0.1 -0.1)">
       <use xlink:href="#DejaVuSans-30"/>
       <use xlink:href="#DejaVuSans-2e" transform="translate(63.623047 0)"/>
       <use xlink:href="#DejaVuSans-30" transform="translate(95.410156 0)"/>
       <use xlink:href="#DejaVuSans-30" transform="translate(159.033203 0)"/>
      </g>
     </g>
    </g>
    <g id="ytick_10">
     <g id="line2d_48">
      <g>
       <use xlink:href="#m5f12be9411" x="66.053125" y="277.545885" style="stroke: #000000; stroke-width: 0.8"/>
      </g>
     </g>
     <g id="text_26">
      <!-- 0.02 -->
      <g transform="translate(36.7875 281.345104) scale(0.1 -0.1)">
       <use xlink:href="#DejaVuSans-30"/>
       <use xlink:href="#DejaVuSans-2e" transform="translate(63.623047 0)"/>
       <use xlink:href="#DejaVuSans-30" transform="translate(95.410156 0)"/>
       <use xlink:href="#DejaVuSans-32" transform="translate(159.033203 0)"/>
      </g>
     </g>
    </g>
    <g id="ytick_11">
     <g id="line2d_49">
      <g>
       <use xlink:href="#m5f12be9411" x="66.053125" y="255.061474" style="stroke: #000000; stroke-width: 0.8"/>
      </g>
     </g>
     <g id="text_27">
      <!-- 0.04 -->
      <g transform="translate(36.7875 258.860693) scale(0.1 -0.1)">
       <defs>
        <path id="DejaVuSans-34" d="M 2419 4116 
L 825 1625 
L 2419 1625 
L 2419 4116 
z
M 2253 4666 
L 3047 4666 
L 3047 1625 
L 3713 1625 
L 3713 1100 
L 3047 1100 
L 3047 0 
L 2419 0 
L 2419 1100 
L 313 1100 
L 313 1709 
L 2253 4666 
z
" transform="scale(0.015625)"/>
       </defs>
       <use xlink:href="#DejaVuSans-30"/>
       <use xlink:href="#DejaVuSans-2e" transform="translate(63.623047 0)"/>
       <use xlink:href="#DejaVuSans-30" transform="translate(95.410156 0)"/>
       <use xlink:href="#DejaVuSans-34" transform="translate(159.033203 0)"/>
      </g>
     </g>
    </g>
    <g id="ytick_12">
     <g id="line2d_50">
      <g>
       <use xlink:href="#m5f12be9411" x="66.053125" y="232.577064" style="stroke: #000000; stroke-width: 0.8"/>
      </g>
     </g>
     <g id="text_28">
      <!-- 0.06 -->
      <g transform="translate(36.7875 236.376282) scale(0.1 -0.1)">
       <defs>
        <path id="DejaVuSans-36" d="M 2113 2584 
Q 1688 2584 1439 2293 
Q 1191 2003 1191 1497 
Q 1191 994 1439 701 
Q 1688 409 2113 409 
Q 2538 409 2786 701 
Q 3034 994 3034 1497 
Q 3034 2003 2786 2293 
Q 2538 2584 2113 2584 
z
M 3366 4563 
L 3366 3988 
Q 3128 4100 2886 4159 
Q 2644 4219 2406 4219 
Q 1781 4219 1451 3797 
Q 1122 3375 1075 2522 
Q 1259 2794 1537 2939 
Q 1816 3084 2150 3084 
Q 2853 3084 3261 2657 
Q 3669 2231 3669 1497 
Q 3669 778 3244 343 
Q 2819 -91 2113 -91 
Q 1303 -91 875 529 
Q 447 1150 447 2328 
Q 447 3434 972 4092 
Q 1497 4750 2381 4750 
Q 2619 4750 2861 4703 
Q 3103 4656 3366 4563 
z
" transform="scale(0.015625)"/>
       </defs>
       <use xlink:href="#DejaVuSans-30"/>
       <use xlink:href="#DejaVuSans-2e" transform="translate(63.623047 0)"/>
       <use xlink:href="#DejaVuSans-30" transform="translate(95.410156 0)"/>
       <use xlink:href="#DejaVuSans-36" transform="translate(159.033203 0)"/>
      </g>
     </g>
    </g>
    <g id="text_29">
     <!-- Score -->
     <g transform="translate(14.798438 294.201389) rotate(-90) scale(0.1 -0.1)">
      <use xlink:href="#DejaVuSans-53"/>
      <use xlink:href="#DejaVuSans-63" transform="translate(63.476562 0)"/>
      <use xlink:href="#DejaVuSans-6f" transform="translate(118.457031 0)"/>
      <use xlink:href="#DejaVuSans-72" transform="translate(179.638672 0)"/>
      <use xlink:href="#DejaVuSans-65" transform="translate(218.501953 0)"/>
     </g>
    </g>
   </g>
   <g id="line2d_51">
    <path d="M 71.064364 296.06843 
L 71.093298 295.062141 
L 71.757263 302.545852 
L 72.739503 300.405876 
L 73.823775 294.768494 
L 74.107026 297.453695 
L 75.101449 305.563372 
L 75.887242 298.73362 
L 76.429377 306.931549 
L 77.379638 303.459506 
L 78.074059 298.597702 
L 79.261885 296.559265 
L 80.076612 302.340907 
L 80.297426 297.228401 
L 81.264438 304.836676 
L 81.838554 300.751652 
L 82.903028 296.625369 
L 83.560901 296.792766 
L 83.742121 299.253325 
L 84.869032 297.657291 
L 85.866501 295.022568 
L 86.222849 296.397827 
L 87.590372 298.536769 
L 88.178193 298.174545 
L 88.959417 300.262875 
L 89.146728 298.939971 
L 90.591916 302.694586 
L 90.904101 300.439838 
L 91.770605 304.178557 
L 92.795485 309.351771 
L 93.64676 298.555206 
L 94.161485 301.21455 
L 95.084334 296.808955 
L 95.171137 297.464488 
L 96.150332 294.59053 
L 97.365569 294.607056 
L 98.171159 302.153724 
L 98.57776 298.233117 
L 99.293502 303.930105 
L 99.742743 301.740685 
L 100.737167 298.183089 
L 102.002658 299.805036 
L 102.148852 299.082915 
L 103.479826 300.605549 
L 103.703686 298.150712 
L 104.8108 297.561058 
L 105.365119 300.275264 
L 105.704715 300.231633 
L 106.772236 298.328901 
L 107.210818 298.328901 
L 108.549406 296.235152 
L 108.773265 295.36197 
L 109.836217 297.39636 
L 110.384445 296.018628 
L 111.324045 301.330007 
L 111.729124 300.026775 
L 113.149947 296.926436 
L 113.296141 297.929015 
L 114.363661 295.945216 
L 115.35047 297.046727 
L 116.06012 295.248087 
L 116.282457 295.921832 
L 117.707848 298.835587 
L 118.607854 295.815481 
L 119.244407 298.926008 
L 119.335778 297.126547 
L 121.036806 304.236792 
L 121.880466 301.529557 
L 122.580979 303.883112 
L 123.383523 300.122197 
L 124.231752 301.666599 
L 125.153079 299.175349 
L 125.370847 300.728223 
L 126.724664 295.397383 
L 127.161723 295.121162 
L 127.764773 299.528826 
L 128.296249 299.137406 
L 129.797782 297.765217 
L 130.120627 295.742631 
L 131.271905 307.246668 
L 131.313022 304.935832 
L 132.570899 290.991563 
L 134.207967 300.216085 
L 134.276495 295.339261 
L 134.320658 295.386141 
L 135.075993 300.309856 
L 135.928791 297.014687 
L 137.274994 301.45311 
L 137.951141 302.713136 
L 138.23896 297.646162 
L 139.321709 299.933674 
L 139.365872 297.017947 
L 140.900908 298.547562 
L 141.779595 296.846504 
L 142.355233 297.426601 
L 143.122752 285.475013 
L 143.713619 294.026171 
L 144.552711 284.975859 
L 144.863373 289.746714 
L 145.857797 295.99041 
L 146.454755 295.794683 
L 147.778115 291.974132 
L 148.0903 291.638664 
L 149.270512 301.725396 
L 150.284732 300.007768 
L 150.529912 303.994523 
L 151.343115 304.492552 
L 151.503015 301.165871 
L 152.607084 298.87381 
L 153.25582 314.491145 
L 155.258372 301.176327 
L 155.288829 307.076686 
L 155.413703 305.009244 
L 156.123353 299.931382 
L 156.942648 302.148552 
L 158.401542 297.440317 
L 158.450273 296.7252 
L 159.83607 298.307541 
L 160.009675 297.913164 
L 160.921865 301.943944 
L 161.776186 301.387905 
L 162.790406 297.159262 
L 163.099545 296.727786 
L 164.212751 300.298187 
L 164.879761 299.363397 
L 165.761493 301.489984 
L 166.886882 306.395633 
L 167.354398 290.711407 
L 168.057957 288.863638 
L 168.894003 299.282453 
L 169.317357 295.008066 
L 169.658476 300.955709 
L 170.811276 294.285079 
L 171.953416 298.158132 
L 172.955454 297.26921 
L 173.325507 299.565555 
L 173.779318 298.007374 
L 174.741761 302.342705 
L 175.079835 299.658055 
L 176.426037 304.780353 
L 177.406755 304.000481 
L 177.767671 309.605282 
L 178.025034 306.351114 
L 178.938746 301.281554 
L 179.738244 305.787317 
L 181.343332 299.879066 
L 181.914402 302.35406 
L 182.515929 301.535065 
L 183.457052 298.36926 
L 184.022031 298.904951 
L 184.183454 299.93992 
L 185.688033 299.226546 
L 186.705299 300.162932 
L 187.424086 298.791405 
L 188.223584 300.239727 
L 188.762674 299.04938 
L 189.458619 300.490136 
L 190.730201 299.012629 
L 191.372846 305.85893 
L 192.5759 310.615057 
L 192.66118 299.335438 
L 193.086056 303.501889 
L 194.496218 294.86529 
L 194.564747 296.195805 
L 195.872878 309.823719 
L 196.070849 303.466926 
L 197.025678 298.56049 
L 198.362744 299.475257 
L 198.880514 303.744159 
L 200.238899 303.107513 
L 200.318088 300.13434 
L 200.943981 298.781737 
L 201.435862 303.753602 
L 202.978513 300.98893 
L 203.490192 307.504339 
L 203.616589 305.577762 
L 203.889179 297.850657 
L 206.072952 304.132127 
L 206.81915 297.571963 
L 207.82271 300.243943 
L 208.235404 297.474381 
L 209.322721 308.58775 
L 210.024757 307.993038 
L 211.10446 301.936862 
L 211.885684 301.717976 
L 212.496348 310.41978 
L 213.011073 299.569557 
L 214.005496 306.949761 
L 214.960325 303.656245 
L 215.510075 315.63785 
L 217.139529 294.650451 
L 217.389277 295.321723 
L 217.632933 290.678468 
L 218.834465 292.91353 
L 219.784725 300.373397 
L 220.683209 300.994956 
L 220.990826 297.149369 
L 221.994386 297.948802 
L 222.813681 301.317304 
L 223.613179 297.896076 
L 223.929933 299.222915 
L 225.799997 300.141184 
L 226.020811 297.965778 
L 226.634521 297.711366 
L 226.664978 299.331964 
L 227.945698 299.511513 
L 229.121341 295.510255 
L 229.369566 295.605926 
L 230.08683 297.748353 
L 232.593447 294.880354 
L 233.226954 297.263365 
L 234.072138 298.62918 
L 235.229507 291.946251 
L 235.963522 297.254371 
L 237.36607 298.860657 
L 237.746784 294.680805 
L 239.163038 295.617393 
L 239.735631 298.098998 
L 239.983856 297.105974 
L 240.783354 305.201148 
L 241.256961 300.45153 
L 242.746312 296.739815 
L 243.052406 299.569073 
L 244.151906 295.231448 
L 244.800642 294.315996 
L 245.606231 298.17893 
L 246.657 294.241685 
L 247.85244 299.056777 
L 248.443308 295.107559 
L 249.328086 298.507539 
L 250.139767 296.63931 
L 250.68038 296.680793 
L 251.770743 299.708218 
L 251.945871 297.966115 
L 252.92202 301.830623 
L 253.721518 299.391289 
L 254.577362 297.372526 
L 255.035741 298.081797 
L 256.249455 296.191195 
L 257.33525 298.191971 
L 257.546927 295.875514 
L 258.131702 294.87507 
L 258.99516 298.4203 
L 260.323089 296.409294 
L 260.705325 298.795902 
L 261.183501 300.476095 
L 262.097213 296.660333 
L 263.560676 296.048082 
L 263.831743 299.813591 
L 264.282508 301.732928 
L 265.136829 297.988599 
L 265.671351 301.365645 
L 266.73278 294.233927 
L 267.172884 294.58356 
L 267.996748 297.128683 
L 269.042949 295.538023 
L 269.84397 298.950134 
L 269.869858 297.993546 
L 270.593214 302.464121 
L 271.50388 301.38071 
L 272.854651 297.0501 
L 272.8912 297.213786 
L 273.614555 301.821179 
L 275.006443 297.006593 
L 276.870416 298.220413 
L 277.275495 296.586584 
L 277.421689 296.46247 
L 278.268396 302.387674 
L 280.089729 300.286214 
L 280.401914 303.529095 
L 280.636433 309.267791 
L 280.67755 300.195298 
L 281.918676 305.287713 
L 282.080098 302.26446 
L 284.598898 306.092768 
L 284.770981 301.926406 
L 285.156263 305.137855 
L 286.146118 299.646847 
L 286.560334 303.700989 
L 287.935471 297.334303 
L 289.016697 294.956689 
L 289.318222 300.50013 
L 289.58929 299.179362 
L 290.751227 306.486245 
L 291.564431 302.412857 
L 292.021287 309.041711 
L 292.461391 307.832499 
L 293.914194 301.267051 
L 294.971054 306.787199 
L 295.292376 299.670613 
L 296.283754 300.984905 
L 296.79391 299.151144 
L 297.762445 298.946255 
L 297.84011 309.139293 
L 298.4858 307.851611 
L 299.282253 270.574594 
L 299.991903 270.63755 
L 300.817289 237.027853 
L 301.540645 234.158842 
L 302.917304 264.019264 
L 304.039648 263.02208 
L 304.504118 287.88759 
L 304.939654 298.230194 
L 305.550318 276.429534 
L 306.503625 278.843236 
L 307.293986 295.105423 
L 307.522414 294.815487 
L 309.019379 311.605271 
L 309.209736 326.23925 
L 309.687912 298.730585 
L 310.624467 307.641831 
L 310.88792 319.940242 
L 313.380832 306.067473 
L 313.686925 307.688936 
L 314.08439 321.862659 
L 316.065623 301.570029 
L 316.34735 318.042558 
L 316.562073 312.217971 
L 318.301172 301.463677 
L 318.719956 315.736781 
L 319.609303 313.616501 
L 320.865657 298.961353 
L 321.686475 296.118683 
L 322.732676 313.968382 
L 323.4073 302.27514 
L 324.643857 303.235899 
L 325.469244 307.760999 
L 326.247422 301.151504 
L 326.969254 309.138843 
L 327.103266 307.831712 
L 327.863169 302.349676 
L 328.632211 300.865165 
L 329.279423 304.403964 
L 330.800754 309.481056 
L 330.864714 296.401425 
L 332.328176 295.371751 
L 333.112446 305.717053 
L 333.308894 300.824198 
L 334.446466 310.898024 
L 335.367792 301.313819 
L 335.922111 310.401343 
L 336.351556 322.374179 
L 337.225674 299.718055 
L 337.936846 307.123903 
L 338.944975 319.845807 
L 339.404877 310.414496 
L 339.715539 323.434319 
L 340.656663 316.321376 
L 341.623675 298.262122 
L 343.294245 302.895709 
L 343.668867 301.313369 
L 344.734865 298.254028 
L 345.925736 299.995143 
L 346.575995 296.575004 
L 347.687678 295.415146 
L 347.925243 299.536876 
L 348.738447 296.122618 
L 349.41764 299.712479 
L 349.780079 296.446956 
L 350.372469 298.841208 
L 351.273998 298.443909 
L 351.895322 293.351527 
L 352.857766 295.367479 
L 354.089754 298.929178 
L 355.117681 295.849657 
L 355.707025 300.736217 
L 356.281141 302.938655 
L 357.23597 296.366911 
L 358.589787 303.894467 
L 359.145628 302.964961 
L 360.132438 305.53493 
L 360.866453 307.774827 
L 361.655291 295.785239 
L 362.201996 295.1206 
L 362.913168 299.775458 
L 363.397436 296.587146 
L 364.244142 304.349439 
L 364.988818 306.866569 
L 365.454811 302.940903 
L 366.281721 304.163605 
L 367.652289 295.569389 
L 367.857874 297.30541 
L 368.211176 302.297624 
L 369.814741 305.572029 
L 370.74825 300.01185 
L 370.888353 300.397298 
L 372.032016 295.987711 
L 372.892428 297.482588 
L 373.209182 295.233022 
L 373.903603 294.449216 
L 375.26808 298.142505 
L 375.435594 296.693722 
L 376.008187 300.644402 
L 377.267587 299.895423 
L 377.368095 296.419075 
L 378.7478 299.577134 
L 379.746792 295.851006 
L 379.821412 296.75398 
L 381.182843 295.752412 
L 382.195541 294.825043 
L 382.661534 296.650552 
L 383.404687 296.561064 
L 384.172205 298.397029 
L 384.498095 296.924187 
L 385.42399 298.674374 
L 386.36816 297.286636 
L 386.573745 299.520822 
L 387.47832 298.892472 
L 388.78036 296.118121 
L 389.8159 294.676308 
L 390.219457 297.224354 
L 390.49357 295.666522 
L 391.778859 298.322155 
L 392.212872 297.750152 
L 393.292575 300.783805 
L 393.577349 300.774519 
L 394.20781 293.223478 
L 395.040811 295.759157 
L 396.201226 298.708438 
L 396.554528 296.762187 
L 397.177375 302.437027 
L 399.178404 298.615015 
L 399.333735 301.910892 
L 399.743383 299.364274 
L 400.676892 304.558881 
L 401.686544 297.381295 
L 402.341371 306.955944 
L 402.632236 308.554586 
L 403.523106 301.877503 
L 404.509915 304.914585 
L 405.367281 301.435909 
L 405.452561 301.941471 
L 406.034291 299.254348 
L 407.305874 306.382817 
L 408.152581 293.165243 
L 408.667305 294.83651 
L 409.696754 306.366178 
L 410.005894 300.211386 
L 411.397782 306.59507 
L 411.875958 302.070644 
L 412.381545 315.782874 
L 413.194749 310.385492 
L 414.289681 300.148811 
L 415.204916 308.19225 
L 415.966343 304.715373 
L 417.19224 297.196586 
L 417.51813 298.530249 
L 418.613062 303.598909 
L 419.281595 303.713805 
L 420.394801 297.971174 
L 420.515106 299.118272 
L 422.1872 295.493167 
L 423.492285 299.203544 
L 423.576042 298.286518 
L 425.22377 297.308221 
L 426.315656 300.622682 
L 426.513627 300.622682 
L 427.628356 296.426832 
L 429.157301 295.358036 
L 429.489283 298.832439 
L 430.360355 302.388236 
L 430.865942 298.140369 
L 431.808589 295.334427 
L 432.58829 306.682084 
L 433.899467 299.202015 
L 435.315721 319.99308 
L 435.52892 298.494386 
L 435.754302 296.039201 
L 436.955834 308.819902 
L 437.447716 302.221177 
L 438.51219 317.849192 
L 438.655339 315.780626 
L 439.830982 300.629989 
L 441.501552 320.701339 
L 442.028459 319.815453 
L 442.502067 299.583553 
L 443.099025 311.442259 
L 444.113246 270.59483 
L 444.579239 300.307248 
L 445.873665 313.355682 
L 446.549812 312.991435 
L 447.297533 306.904905 
L 447.618855 308.464086 
L 449.05186 299.137035 
L 449.284857 299.862 
L 450.454408 294.656072 
L 450.661517 294.67406 
L 451.987922 300.512317 
L 452.423458 303.024658 
L 453.822961 295.693053 
L 455.013832 303.874681 
L 455.575765 305.391367 
L 456.449883 301.374751 
L 457.320955 304.792832 
L 458.029082 294.933642 
L 458.141774 297.935086 
L 458.624518 291.37852 
L 460.363617 301.431075 
L 460.977327 296.189846 
L 461.272761 295.465174 
L 462.494089 299.235764 
L 462.833685 296.563874 
L 464.129634 301.811511 
L 464.213391 301.275033 
L 465.020503 298.872237 
L 465.839799 299.082792 
L 466.770262 303.225893 
L 467.230164 301.408366 
L 467.990068 298.992303 
L 469.176371 300.609472 
L 469.817492 296.535657 
L 471.287046 295.816605 
L 471.535271 298.327214 
L 471.820045 295.99322 
L 472.177915 298.879994 
L 474.536816 298.126316 
L 474.652552 292.935678 
L 475.238851 291.19752 
L 476.1084 299.432762 
L 476.80739 294.923749 
L 477.571863 298.278648 
L 478.429229 296.874609 
L 479.181519 300.561355 
L 479.708426 301.483576 
L 480.145485 298.820522 
L 480.842952 298.475724 
L 482.184586 306.794057 
L 482.92317 307.581573 
L 483.140938 299.735975 
L 484.165819 307.353356 
L 484.213027 299.69991 
L 485.671921 303.977772 
L 486.611522 298.208497 
L 486.769899 299.064939 
L 487.270917 307.266342 
L 488.397829 304.61453 
L 488.778543 299.872658 
L 489.98312 305.667475 
L 491.15724 291.448896 
L 491.291251 291.504208 
L 492.916136 306.595969 
L 493.881625 296.977138 
L 494.9461 309.838783 
L 495.227828 299.800236 
L 496.353216 307.679268 
L 497.056775 296.659433 
L 497.585205 293.972659 
L 498.00399 307.075337 
L 499.289278 299.76815 
L 499.895374 304.667931 
L 500.42685 305.944483 
L 500.454261 299.761472 
L 502.132446 305.984168 
L 502.928898 299.428287 
L 504.202004 304.09233 
L 504.762414 299.553166 
L 505.927397 299.824395 
L 506.216739 304.941678 
L 506.460396 305.326724 
L 507.530962 299.814558 
L 507.96193 303.739662 
L 508.758382 299.782945 
L 509.539606 304.768436 
L 510.722863 296.82312 
L 511.229973 295.943979 
L 511.476676 302.264797 
L 512.493942 303.948542 
L 513.16552 296.481469 
L 514.054867 296.725425 
L 515.36909 308.641488 
L 515.507669 299.696155 
L 517.05032 297.026379 
L 518.216826 307.988766 
L 519.01937 309.004049 
L 519.791456 296.065058 
L 520.121916 294.776027 
L 520.837657 306.653529 
L 521.472687 305.885237 
L 522.180814 296.28192 
L 524.026512 299.821607 
L 524.034127 306.194735 
L 524.827533 306.556958 
L 524.886925 299.76842 
L 525.963582 299.861371 
L 527.350902 307.987079 
L 528.308777 309.277572 
L 528.770201 299.538686 
L 529.994576 306.101762 
L 530.021987 299.775919 
L 530.449909 303.26614 
L 531.796112 295.562419 
L 532.242308 293.908803 
L 533.169725 306.527391 
L 533.720998 297.412998 
L 534.779382 307.855433 
L 536.239798 302.728875 
L 536.390561 313.61088 
L 536.449952 313.281484 
L 537.225085 303.420945 
L 538.358088 314.726107 
L 538.737278 303.601832 
L 539.538299 311.74355 
L 540.956076 298.544864 
L 541.207347 302.557656 
L 542.449995 296.599737 
L 543.053045 297.850882 
L 543.68503 305.608903 
L 545.268797 299.777167 
L 545.282503 305.775625 
L 546.922616 298.666954 
L 547.020079 298.666954 
L 547.618561 303.524149 
L 548.876438 304.652416 
L 549.586087 299.852748 
L 550.24396 299.915817 
L 551.290161 303.94472 
L 552.110979 304.783838 
L 552.398798 299.358878 
L 553.460227 303.614311 
L 553.822666 299.130256 
L 555.299834 305.372255 
L 555.560242 298.292364 
L 556.201364 302.937418 
L 557.020659 295.077543 
L 557.744014 296.215591 
L 559.024734 305.953702 
L 559.757227 299.64724 
L 559.918649 308.634855 
L 561.226781 299.797065 
L 561.513077 306.824635 
L 562.862325 307.025983 
L 562.964356 299.748477 
L 563.585681 306.971683 
L 563.640503 299.75946 
L 565.975038 299.761416 
L 566.064886 307.122329 
L 566.789765 299.790893 
L 568.295867 309.268354 
L 568.693332 299.730545 
L 570.284714 306.619465 
L 570.458319 299.750478 
L 571.119238 304.601714 
L 571.950716 298.249418 
L 572.188281 299.699584 
L 572.188281 299.699584 
" clip-path="url(#p6ab895006e)" style="fill: none; stroke: #7a738c; stroke-width: 1.5; stroke-linecap: square"/>
   </g>
   <g id="patch_13">
    <path d="M 66.053125 330.84327 
L 66.053125 229.554821 
" style="fill: none; stroke: #000000; stroke-width: 0.8; stroke-linejoin: miter; stroke-linecap: square"/>
   </g>
   <g id="patch_14">
    <path d="M 577.19952 330.84327 
L 577.19952 229.554821 
" style="fill: none; stroke: #000000; stroke-width: 0.8; stroke-linejoin: miter; stroke-linecap: square"/>
   </g>
   <g id="patch_15">
    <path d="M 66.053125 330.84327 
L 577.19952 330.84327 
" style="fill: none; stroke: #000000; stroke-width: 0.8; stroke-linejoin: miter; stroke-linecap: square"/>
   </g>
   <g id="patch_16">
    <path d="M 66.053125 229.554821 
L 577.19952 229.554821 
" style="fill: none; stroke: #000000; stroke-width: 0.8; stroke-linejoin: miter; stroke-linecap: square"/>
   </g>
  </g>
 </g>
 <defs>
  <clipPath id="p0d791a702e">
   <rect x="66.053125" y="7.2" width="511.146395" height="101.288449"/>
  </clipPath>
  <clipPath id="pfc92facb8a">
   <rect x="66.053125" y="117.988929" width="511.146395" height="101.288449"/>
  </clipPath>
  <clipPath id="p6ab895006e">
   <rect x="66.053125" y="229.554821" width="511.146395" height="101.288449"/>
  </clipPath>
 </defs>
</svg>
