<?xml version="1.0" encoding="utf-8" standalone="no"?>
<!DOCTYPE svg PUBLIC "-//W3C//DTD SVG 1.1//EN"
  "http://www.w3.org/Graphics/SVG/1.1/DTD/svg11.dtd">
<svg xmlns:xlink="http://www.w3.org/1999/xlink"   viewBox="0 0 584.39952 368.39952" xmlns="http://www.w3.org/2000/svg" version="1.1" preserveAspectRatio="xMidYMid meet" style="width:100%;height:auto;aspect-ratio:8 / 5;display:block;">
 <metadata>
  <rdf:RDF xmlns:dc="http://purl.org/dc/elements/1.1/" xmlns:cc="http://creativecommons.org/ns#" xmlns:rdf="http://www.w3.org/1999/02/22-rdf-syntax-ns#">
   <cc:Work>
    <dc:type rdf:resource="http://purl.org/dc/dcmitype/StillImage"/>
    <dc:date>2025-11-27T17:10:26.141689</dc:date>
    <dc:format>image/svg+xml</dc:format>
    <dc:creator>
     <cc:Agent>
      <dc:title>Matplotlib v3.10.7, https://matplotlib.org/</dc:title>
     </cc:Agent>
    </dc:creator>
   </cc:Work>
  </rdf:RDF>
 </metadata>
 <defs>
  <style type="text/css">*{stroke-linejoin: round; stroke-linecap: butt}</style>
 </defs>
 <g id="figure_1">
  <g id="patch_1">
   <path d="M 0 368.39952 
L 584.39952 368.39952 
L 584.39952 0 
L 0 0 
z
" style="fill: #ffffff"/>
  </g>
  <g id="axes_1">
   <g id="patch_2">
    <path d="M 53.328125 108.747437 
L 577.19952 108.747437 
L 577.19952 7.2 
L 53.328125 7.2 
z
" style="fill: #ffffff"/>
   </g>
   <g id="matplotlib.axis_1">
    <g id="xtick_1">
     <g id="line2d_1">
      <defs>
       <path id="m6b0549ed89" d="M 0 0 
L 0 3.5 
" style="stroke: #000000; stroke-width: 0.8"/>
      </defs>
      <g>
       <use xlink:href="#m6b0549ed89" x="58.463225" y="108.747437" style="stroke: #000000; stroke-width: 0.8"/>
      </g>
     </g>
    </g>
    <g id="xtick_2">
     <g id="line2d_2">
      <g>
       <use xlink:href="#m6b0549ed89" x="97.08068" y="108.747437" style="stroke: #000000; stroke-width: 0.8"/>
      </g>
     </g>
    </g>
    <g id="xtick_3">
     <g id="line2d_3">
      <g>
       <use xlink:href="#m6b0549ed89" x="135.698134" y="108.747437" style="stroke: #000000; stroke-width: 0.8"/>
      </g>
     </g>
    </g>
    <g id="xtick_4">
     <g id="line2d_4">
      <g>
       <use xlink:href="#m6b0549ed89" x="174.315589" y="108.747437" style="stroke: #000000; stroke-width: 0.8"/>
      </g>
     </g>
    </g>
    <g id="xtick_5">
     <g id="line2d_5">
      <g>
       <use xlink:href="#m6b0549ed89" x="212.933043" y="108.747437" style="stroke: #000000; stroke-width: 0.8"/>
      </g>
     </g>
    </g>
    <g id="xtick_6">
     <g id="line2d_6">
      <g>
       <use xlink:href="#m6b0549ed89" x="251.550498" y="108.747437" style="stroke: #000000; stroke-width: 0.8"/>
      </g>
     </g>
    </g>
    <g id="xtick_7">
     <g id="line2d_7">
      <g>
       <use xlink:href="#m6b0549ed89" x="290.167952" y="108.747437" style="stroke: #000000; stroke-width: 0.8"/>
      </g>
     </g>
    </g>
    <g id="xtick_8">
     <g id="line2d_8">
      <g>
       <use xlink:href="#m6b0549ed89" x="328.785407" y="108.747437" style="stroke: #000000; stroke-width: 0.8"/>
      </g>
     </g>
    </g>
    <g id="xtick_9">
     <g id="line2d_9">
      <g>
       <use xlink:href="#m6b0549ed89" x="367.402861" y="108.747437" style="stroke: #000000; stroke-width: 0.8"/>
      </g>
     </g>
    </g>
    <g id="xtick_10">
     <g id="line2d_10">
      <g>
       <use xlink:href="#m6b0549ed89" x="406.020316" y="108.747437" style="stroke: #000000; stroke-width: 0.8"/>
      </g>
     </g>
    </g>
    <g id="xtick_11">
     <g id="line2d_11">
      <g>
       <use xlink:href="#m6b0549ed89" x="444.63777" y="108.747437" style="stroke: #000000; stroke-width: 0.8"/>
      </g>
     </g>
    </g>
    <g id="xtick_12">
     <g id="line2d_12">
      <g>
       <use xlink:href="#m6b0549ed89" x="483.255225" y="108.747437" style="stroke: #000000; stroke-width: 0.8"/>
      </g>
     </g>
    </g>
    <g id="xtick_13">
     <g id="line2d_13">
      <g>
       <use xlink:href="#m6b0549ed89" x="521.87268" y="108.747437" style="stroke: #000000; stroke-width: 0.8"/>
      </g>
     </g>
    </g>
    <g id="xtick_14">
     <g id="line2d_14">
      <g>
       <use xlink:href="#m6b0549ed89" x="560.490134" y="108.747437" style="stroke: #000000; stroke-width: 0.8"/>
      </g>
     </g>
    </g>
   </g>
   <g id="matplotlib.axis_2">
    <g id="ytick_1">
     <g id="line2d_15">
      <defs>
       <path id="m056aff0940" d="M 0 0 
L -3.5 0 
" style="stroke: #000000; stroke-width: 0.8"/>
      </defs>
      <g>
       <use xlink:href="#m056aff0940" x="53.328125" y="77.200078" style="stroke: #000000; stroke-width: 0.8"/>
      </g>
     </g>
     <g id="text_1">
      <!-- 3000 -->
      <g transform="translate(20.878125 80.999297) scale(0.1 -0.1)">
       <defs>
        <path id="DejaVuSans-33" d="M 2597 2516 
Q 3050 2419 3304 2112 
Q 3559 1806 3559 1356 
Q 3559 666 3084 287 
Q 2609 -91 1734 -91 
Q 1441 -91 1130 -33 
Q 819 25 488 141 
L 488 750 
Q 750 597 1062 519 
Q 1375 441 1716 441 
Q 2309 441 2620 675 
Q 2931 909 2931 1356 
Q 2931 1769 2642 2001 
Q 2353 2234 1838 2234 
L 1294 2234 
L 1294 2753 
L 1863 2753 
Q 2328 2753 2575 2939 
Q 2822 3125 2822 3475 
Q 2822 3834 2567 4026 
Q 2313 4219 1838 4219 
Q 1578 4219 1281 4162 
Q 984 4106 628 3988 
L 628 4550 
Q 988 4650 1302 4700 
Q 1616 4750 1894 4750 
Q 2613 4750 3031 4423 
Q 3450 4097 3450 3541 
Q 3450 3153 3228 2886 
Q 3006 2619 2597 2516 
z
" transform="scale(0.015625)"/>
        <path id="DejaVuSans-30" d="M 2034 4250 
Q 1547 4250 1301 3770 
Q 1056 3291 1056 2328 
Q 1056 1369 1301 889 
Q 1547 409 2034 409 
Q 2525 409 2770 889 
Q 3016 1369 3016 2328 
Q 3016 3291 2770 3770 
Q 2525 4250 2034 4250 
z
M 2034 4750 
Q 2819 4750 3233 4129 
Q 3647 3509 3647 2328 
Q 3647 1150 3233 529 
Q 2819 -91 2034 -91 
Q 1250 -91 836 529 
Q 422 1150 422 2328 
Q 422 3509 836 4129 
Q 1250 4750 2034 4750 
z
" transform="scale(0.015625)"/>
       </defs>
       <use xlink:href="#DejaVuSans-33"/>
       <use xlink:href="#DejaVuSans-30" transform="translate(63.623047 0)"/>
       <use xlink:href="#DejaVuSans-30" transform="translate(127.246094 0)"/>
       <use xlink:href="#DejaVuSans-30" transform="translate(190.869141 0)"/>
      </g>
     </g>
    </g>
    <g id="ytick_2">
     <g id="line2d_16">
      <g>
       <use xlink:href="#m056aff0940" x="53.328125" y="41.440086" style="stroke: #000000; stroke-width: 0.8"/>
      </g>
     </g>
     <g id="text_2">
      <!-- 3500 -->
      <g transform="translate(20.878125 45.239304) scale(0.1 -0.1)">
       <defs>
        <path id="DejaVuSans-35" d="M 691 4666 
L 3169 4666 
L 3169 4134 
L 1269 4134 
L 1269 2991 
Q 1406 3038 1543 3061 
Q 1681 3084 1819 3084 
Q 2600 3084 3056 2656 
Q 3513 2228 3513 1497 
Q 3513 744 3044 326 
Q 2575 -91 1722 -91 
Q 1428 -91 1123 -41 
Q 819 9 494 109 
L 494 744 
Q 775 591 1075 516 
Q 1375 441 1709 441 
Q 2250 441 2565 725 
Q 2881 1009 2881 1497 
Q 2881 1984 2565 2268 
Q 2250 2553 1709 2553 
Q 1456 2553 1204 2497 
Q 953 2441 691 2322 
L 691 4666 
z
" transform="scale(0.015625)"/>
       </defs>
       <use xlink:href="#DejaVuSans-33"/>
       <use xlink:href="#DejaVuSans-35" transform="translate(63.623047 0)"/>
       <use xlink:href="#DejaVuSans-30" transform="translate(127.246094 0)"/>
       <use xlink:href="#DejaVuSans-30" transform="translate(190.869141 0)"/>
      </g>
     </g>
    </g>
    <g id="text_3">
     <!-- Price -->
     <g transform="translate(14.798438 70.171375) rotate(-90) scale(0.1 -0.1)">
      <defs>
       <path id="DejaVuSans-50" d="M 1259 4147 
L 1259 2394 
L 2053 2394 
Q 2494 2394 2734 2622 
Q 2975 2850 2975 3272 
Q 2975 3691 2734 3919 
Q 2494 4147 2053 4147 
L 1259 4147 
z
M 628 4666 
L 2053 4666 
Q 2838 4666 3239 4311 
Q 3641 3956 3641 3272 
Q 3641 2581 3239 2228 
Q 2838 1875 2053 1875 
L 1259 1875 
L 1259 0 
L 628 0 
L 628 4666 
z
" transform="scale(0.015625)"/>
       <path id="DejaVuSans-72" d="M 2631 2963 
Q 2534 3019 2420 3045 
Q 2306 3072 2169 3072 
Q 1681 3072 1420 2755 
Q 1159 2438 1159 1844 
L 1159 0 
L 581 0 
L 581 3500 
L 1159 3500 
L 1159 2956 
Q 1341 3275 1631 3429 
Q 1922 3584 2338 3584 
Q 2397 3584 2469 3576 
Q 2541 3569 2628 3553 
L 2631 2963 
z
" transform="scale(0.015625)"/>
       <path id="DejaVuSans-69" d="M 603 3500 
L 1178 3500 
L 1178 0 
L 603 0 
L 603 3500 
z
M 603 4863 
L 1178 4863 
L 1178 4134 
L 603 4134 
L 603 4863 
z
" transform="scale(0.015625)"/>
       <path id="DejaVuSans-63" d="M 3122 3366 
L 3122 2828 
Q 2878 2963 2633 3030 
Q 2388 3097 2138 3097 
Q 1578 3097 1268 2742 
Q 959 2388 959 1747 
Q 959 1106 1268 751 
Q 1578 397 2138 397 
Q 2388 397 2633 464 
Q 2878 531 3122 666 
L 3122 134 
Q 2881 22 2623 -34 
Q 2366 -91 2075 -91 
Q 1284 -91 818 406 
Q 353 903 353 1747 
Q 353 2603 823 3093 
Q 1294 3584 2113 3584 
Q 2378 3584 2631 3529 
Q 2884 3475 3122 3366 
z
" transform="scale(0.015625)"/>
       <path id="DejaVuSans-65" d="M 3597 1894 
L 3597 1613 
L 953 1613 
Q 991 1019 1311 708 
Q 1631 397 2203 397 
Q 2534 397 2845 478 
Q 3156 559 3463 722 
L 3463 178 
Q 3153 47 2828 -22 
Q 2503 -91 2169 -91 
Q 1331 -91 842 396 
Q 353 884 353 1716 
Q 353 2575 817 3079 
Q 1281 3584 2069 3584 
Q 2775 3584 3186 3129 
Q 3597 2675 3597 1894 
z
M 3022 2063 
Q 3016 2534 2758 2815 
Q 2500 3097 2075 3097 
Q 1594 3097 1305 2825 
Q 1016 2553 972 2059 
L 3022 2063 
z
" transform="scale(0.015625)"/>
      </defs>
      <use xlink:href="#DejaVuSans-50"/>
      <use xlink:href="#DejaVuSans-72" transform="translate(58.552734 0)"/>
      <use xlink:href="#DejaVuSans-69" transform="translate(99.666016 0)"/>
      <use xlink:href="#DejaVuSans-63" transform="translate(127.449219 0)"/>
      <use xlink:href="#DejaVuSans-65" transform="translate(182.429688 0)"/>
     </g>
    </g>
   </g>
   <g id="line2d_17">
    <path d="M 58.464119 16.641961 
L 58.772522 17.789142 
L 59.713152 15.785867 
L 60.227158 17.485897 
L 61.445351 15.692891 
L 61.558432 15.978256 
L 62.31402 15.219429 
L 63.681275 16.370185 
L 64.467703 15.400374 
L 64.709286 15.79588 
L 65.927479 14.355467 
L 67.238192 14.32972 
L 67.757338 15.141472 
L 68.667128 14.356182 
L 69.376455 14.607933 
L 69.967562 15.839507 
L 70.841371 14.971254 
L 75.4777 14.971254 
L 76.058526 14.370486 
L 76.42861 15.459021 
L 77.754744 14.808189 
L 78.29445 15.458305 
L 78.721075 15.614934 
L 79.851887 14.063666 
L 81.11634 14.576464 
L 81.758847 12.21702 
L 82.920499 13.397099 
L 83.737768 13.397099 
L 84.143832 11.815793 
L 85.346605 12.743407 
L 86.240975 16.148473 
L 87.340946 13.189691 
L 87.860092 13.950664 
L 89.427809 17.201247 
L 90.291338 15.058509 
L 91.43243 15.428982 
L 92.157178 16.407376 
L 92.881925 15.292379 
L 93.658074 16.917313 
L 95.354292 15.194397 
L 96.027639 16.766406 
L 97.04537 11.93094 
L 97.225272 11.902332 
L 98.381784 17.874966 
L 98.715888 17.122575 
L 100.406966 25.808678 
L 101.306475 22.709002 
L 102.036363 24.321777 
L 102.565788 28.118773 
L 104.174626 28.020791 
L 104.436768 24.362544 
L 105.927384 29.460488 
L 106.153547 25.725715 
L 106.965675 25.152124 
L 107.705843 27.42646 
L 108.456291 23.8476 
L 109.515142 29.393975 
L 109.520283 29.329607 
L 110.075408 36.738362 
L 111.427243 28.625135 
L 112.455254 32.786883 
L 113.02066 30.886597 
L 113.94073 36.709754 
L 114.500996 34.180807 
L 115.225743 37.067354 
L 116.79346 36.521656 
L 116.937381 32.111734 
L 117.276625 33.980551 
L 117.72895 30.747848 
L 118.895742 32.861979 
L 119.322367 30.815792 
L 120.56626 32.306268 
L 121.342408 42.86977 
L 121.943795 40.521054 
L 123.079747 44.298024 
L 123.444691 41.439371 
L 123.840475 43.325353 
L 125.130629 43.387575 
L 126.040418 39.240846 
L 127.366552 40.010401 
L 128.0656 42.15457 
L 128.728667 35.564004 
L 129.597336 44.433912 
L 129.694997 42.350535 
L 131.175333 54.766405 
L 131.201033 53.531254 
L 132.722489 65.399281 
L 133.776201 72.601343 
L 134.238806 57.873233 
L 134.840192 60.822717 
L 135.739702 55.745513 
L 135.981284 56.660969 
L 136.875654 65.053839 
L 137.528441 59.047591 
L 138.731213 52.454163 
L 139.31204 54.738512 
L 139.918566 52.100855 
L 140.792375 52.883283 
L 141.640484 55.174784 
L 142.092809 52.793883 
L 142.796997 56.965644 
L 143.655386 54.949496 
L 144.488075 57.528506 
L 145.130582 55.397926 
L 145.711408 51.816205 
L 146.89362 50.412268 
L 147.438466 54.136314 
L 148.214614 51.628823 
L 149.71551 45.815678 
L 150.018774 46.899206 
L 150.882303 43.085045 
L 151.997695 42.870485 
L 152.773843 46.324186 
L 153.364949 45.078307 
L 153.606532 47.678774 
L 154.598562 46.184006 
L 156.125159 50.237044 
L 157.291951 46.589525 
L 157.482133 46.618848 
L 158.844248 44.680656 
L 159.03443 44.864463 
L 159.779737 50.081846 
L 160.756348 49.100591 
L 161.193253 50.895028 
L 163.192734 50.782741 
L 163.526837 47.768174 
L 164.282425 48.179414 
L 165.212775 50.797761 
L 166.168826 48.574204 
L 166.754792 53.955368 
L 167.387018 51.29554 
L 167.782803 57.102963 
L 168.569231 59.695562 
L 169.38136 53.126451 
L 170.162648 52.220293 
L 171.010757 55.050339 
L 171.735505 56.589449 
L 172.655575 53.499786 
L 173.950868 56.459998 
L 174.428893 53.928906 
L 174.984019 53.755112 
L 175.621386 57.144444 
L 176.346134 55.35859 
L 177.055461 51.26121 
L 178.078332 54.437413 
L 179.137184 51.097429 
L 179.455867 50.980852 
L 180.432477 53.307397 
L 180.874522 51.535132 
L 182.138975 56.439972 
L 182.416538 55.185512 
L 183.670712 61.108082 
L 184.045936 57.821023 
L 184.385179 63.790081 
L 186.096818 63.187168 
L 186.770165 54.790721 
L 187.392111 57.674407 
L 188.353302 49.697783 
L 188.713105 51.112449 
L 189.807937 46.041682 
L 190.008399 46.847712 
L 190.871928 42.752477 
L 192.120962 43.413322 
L 192.948511 45.636878 
L 193.364855 45.371539 
L 194.156423 47.962708 
L 195.790961 44.540477 
L 196.284406 45.445205 
L 197.425498 42.644482 
L 197.723621 44.062724 
L 198.664251 47.177419 
L 199.604881 46.814097 
L 200.715133 43.947576 
L 201.39362 44.145687 
L 201.887066 46.174709 
L 202.781435 44.799379 
L 203.465062 48.636427 
L 204.097289 47.959132 
L 205.151 50.451604 
L 205.459404 48.155097 
L 206.626196 51.343458 
L 207.222442 51.67102 
L 208.106532 48.735839 
L 208.87754 48.172262 
L 209.252764 51.107442 
L 210.085453 49.272239 
L 211.128884 47.95198 
L 212.562959 47.64802 
L 213.323687 50.531706 
L 214.413379 48.506975 
L 214.886264 48.715814 
L 215.734373 51.452884 
L 216.803504 50.725525 
L 217.816095 48.104318 
L 217.882916 48.554179 
L 219.352972 46.852003 
L 220.514624 46.134658 
L 220.905268 48.400411 
L 221.280492 49.852266 
L 222.457565 46.585233 
L 222.544946 46.915656 
L 223.583237 44.15713 
L 224.015001 44.719277 
L 224.616388 37.137443 
L 225.582718 38.833897 
L 226.040183 41.258425 
L 227.206975 41.15186 
L 228.63591 36.647531 
L 228.707871 37.540816 
L 229.067675 34.645687 
L 231.144257 36.771976 
L 231.473221 33.000727 
L 232.31105 37.381327 
L 232.974117 30.712088 
L 233.431581 30.426723 
L 234.423612 33.320422 
L 235.338542 31.620392 
L 235.826847 33.998431 
L 236.397393 32.672451 
L 236.762337 34.750106 
L 238.02165 32.795465 
L 239.224423 35.003287 
L 239.558527 35.270057 
L 240.144493 32.260496 
L 241.74819 32.909182 
L 242.030893 35.198537 
L 243.228526 32.728236 
L 244.045794 35.861527 
L 244.122895 35.758538 
L 245.192027 40.745627 
L 245.752293 40.867211 
L 246.749463 37.396346 
L 247.571872 39.293771 
L 248.533062 35.930901 
L 248.985387 35.557567 
L 250.136759 39.293771 
L 250.743286 35.80002 
L 252.05914 37.600178 
L 252.660526 31.126904 
L 253.452095 36.060352 
L 253.667977 31.945092 
L 254.988971 34.649978 
L 256.510427 39.07492 
L 257.492178 36.791287 
L 258.098704 38.313947 
L 259.342597 35.342292 
L 260.098185 37.933461 
L 261.357499 34.90745 
L 262.010286 38.539235 
L 262.688773 36.442984 
L 264.076588 43.56566 
L 265.068618 41.466548 
L 265.788226 45.241373 
L 266.070929 42.647343 
L 267.566685 43.956874 
L 268.481615 46.462219 
L 269.293743 48.277396 
L 269.746068 46.097467 
L 270.779219 47.940537 
L 271.884331 45.055421 
L 272.650199 44.720707 
L 273.123084 47.384827 
L 274.480058 46.245514 
L 275.235646 44.544053 
L 277.291668 46.803369 
L 277.821094 42.999221 
L 278.170618 43.563514 
L 279.399091 38.184496 
L 279.707494 39.115686 
L 279.871976 36.652538 
L 281.994818 35.267911 
L 282.791527 42.444942 
L 282.997129 40.287184 
L 283.932619 50.450889 
L 284.791008 49.174257 
L 285.433515 44.794373 
L 285.89612 45.547478 
L 286.605447 50.583916 
L 287.463837 46.540891 
L 288.76427 49.044091 
L 289.021273 48.478367 
L 290.424508 47.018645 
L 290.57357 48.125059 
L 291.56046 44.55192 
L 292.799213 49.513262 
L 293.595922 43.384714 
L 294.084227 44.208624 
L 294.958036 38.722326 
L 295.348681 39.401766 
L 296.21735 37.028733 
L 296.957518 38.077931 
L 298.15515 42.888365 
L 298.288792 42.020113 
L 299.147181 40.380875 
L 300.478455 40.752779 
L 301.146662 46.595961 
L 302.154113 43.478405 
L 302.904561 50.482357 
L 303.176984 48.913924 
L 304.410597 57.723756 
L 304.477418 56.900561 
L 305.346087 63.941704 
L 306.065695 62.180881 
L 306.554 66.113765 
L 307.607711 65.367812 
L 309.067487 58.926722 
L 309.165148 57.95262 
L 310.424461 63.838 
L 310.861366 63.795088 
L 311.652934 59.427362 
L 312.280021 60.661797 
L 313.236071 68.989584 
L 314.968269 67.517703 
L 315.137891 60.955029 
L 315.800958 60.090352 
L 316.340664 63.846582 
L 316.90093 62.533475 
L 317.389235 66.472081 
L 318.412106 64.247094 
L 319.72282 72.193679 
L 320.437288 71.943359 
L 321.465299 61.779654 
L 321.727441 65.782628 
L 322.863393 59.320082 
L 323.320858 59.86578 
L 324.549331 65.764033 
L 325.073617 61.728875 
L 326.117048 66.982018 
L 326.153028 68.43888 
L 327.628224 64.048983 
L 327.813266 64.612561 
L 328.080549 70.829078 
L 329.473504 68.948818 
L 330.342173 64.769905 
L 331.231402 63.614142 
L 331.771108 65.318463 
L 332.629497 65.864876 
L 333.570127 64.229214 
L 334.130393 63.914526 
L 335.317746 65.580226 
L 335.72381 65.369242 
L 335.944833 67.706516 
L 336.983124 66.843269 
L 337.692451 65.103903 
L 338.586821 66.769604 
L 340.020896 63.295163 
L 340.241918 63.604129 
L 340.925546 64.807811 
L 341.773655 65.467225 
L 342.796526 61.728875 
L 343.459593 60.929997 
L 344.549284 63.469672 
L 345.037589 63.001216 
L 345.602995 65.258386 
L 346.384284 66.414865 
L 347.530516 64.719126 
L 347.787519 64.75274 
L 348.918331 67.442607 
L 349.545417 67.682914 
L 350.809871 62.353245 
L 351.822462 63.852304 
L 352.367307 62.039272 
L 353.092055 61.957024 
L 353.724282 63.059862 
L 354.094366 62.876056 
L 354.551831 61.316205 
L 355.631242 62.30175 
L 356.145248 59.717733 
L 357.065317 60.889946 
L 358.24753 66.174557 
L 359.20872 67.253079 
L 359.918048 64.66191 
L 360.411493 64.528883 
L 361.614266 72.882417 
L 362.534336 75.410648 
L 362.786198 68.413848 
L 363.284784 73.345866 
L 364.580077 69.119035 
L 364.83194 70.149638 
L 366.651519 76.54281 
L 367.890273 68.064831 
L 369.046785 69.235613 
L 369.360328 66.060841 
L 369.601911 67.323168 
L 370.984586 64.485971 
L 371.863535 63.632022 
L 372.418661 65.030953 
L 373.713955 62.542057 
L 374.705985 64.395855 
L 374.901307 62.071456 
L 375.872778 63.682801 
L 376.726027 61.623741 
L 377.178352 63.431766 
L 378.571306 70.455744 
L 378.771768 69.798475 
L 379.177833 62.538481 
L 381.038533 67.474076 
L 381.71702 73.085534 
L 382.035703 71.806756 
L 383.552019 80.293318 
L 384.420689 75.529372 
L 384.950114 78.129123 
L 385.674862 75.213253 
L 387.34024 77.895253 
L 387.792565 74.061781 
L 388.758895 74.386482 
L 389.170099 80.80397 
L 389.596724 80.484991 
L 389.925687 75.618056 
L 391.421443 75.876959 
L 392.141051 79.27988 
L 392.655056 78.023273 
L 393.96063 72.698611 
L 394.325574 75.315527 
L 395.209663 72.413961 
L 395.893291 72.340295 
L 396.566638 74.627505 
L 397.68717 75.643088 
L 398.509579 70.979985 
L 398.848822 74.86066 
L 400.046455 65.420737 
L 400.853444 68.695637 
L 401.902015 65.184721 
L 402.189858 65.357799 
L 403.459451 68.199288 
L 403.536552 67.652876 
L 404.2613 70.307697 
L 406.008918 68.328024 
L 406.296761 71.57074 
L 406.985529 71.201697 
L 407.854198 68.475355 
L 408.167741 68.433159 
L 409.427055 72.735801 
L 409.668637 72.550564 
L 410.686368 77.771523 
L 411.215794 75.324109 
L 412.351746 71.119449 
L 413.348917 73.175649 
L 414.186745 69.483072 
L 414.310107 70.080979 
L 415.625961 71.640115 
L 416.376409 69.800621 
L 417.389 73.648396 
L 418.221688 69.819931 
L 418.884755 79.565244 
L 418.951576 78.388025 
L 420.21089 84.300583 
L 420.688915 82.564077 
L 421.840287 86.414713 
L 422.205231 86.381814 
L 423.536505 77.68999 
L 424.01967 80.135974 
L 425.057961 75.763242 
L 425.422905 77.029146 
L 425.84953 74.000274 
L 427.031742 73.371614 
L 427.566308 75.196804 
L 429.031223 76.125848 
L 429.468128 73.028318 
L 429.987274 74.225562 
L 430.850803 76.822453 
L 431.734892 74.339994 
L 432.870844 75.876959 
L 433.539051 77.841613 
L 433.785774 76.000688 
L 434.567062 77.182198 
L 435.749275 75.068783 
L 436.21188 73.965945 
L 436.731025 79.914977 
L 437.733336 77.463272 
L 439.04919 88.330734 
L 440.02066 87.397398 
L 440.663167 92.130591 
L 441.403335 87.837961 
L 442.220604 89.393521 
L 443.392536 84.352077 
L 443.808881 85.246077 
L 444.559329 89.600929 
L 445.839202 85.693792 
L 446.784972 90.073676 
L 446.800393 89.321286 
L 447.052255 93.102547 
L 448.39895 92.791435 
L 448.907815 89.467186 
L 450.131148 91.827346 
L 450.737675 101.216489 
L 451.524103 95.4577 
L 452.737156 101.340934 
L 453.610965 97.369429 
L 454.531035 100.869618 
L 454.623556 104.131644 
L 455.790348 94.067352 
L 456.705278 93.14832 
L 457.589367 100.160139 
L 457.774409 100.218786 
L 458.74588 91.385352 
L 459.367826 97.405189 
L 459.820151 92.076235 
L 461.136005 98.011679 
L 462.117756 93.34643 
L 462.400459 93.575294 
L 463.263988 97.785676 
L 464.358819 94.570137 
L 465.181228 92.920886 
L 465.448511 93.260606 
L 466.224659 95.840332 
L 467.149869 94.888401 
L 467.674155 96.851625 
L 468.547964 96.810858 
L 469.591395 93.925027 
L 470.00774 94.198233 
L 470.850709 97.253567 
L 471.724518 96.130703 
L 472.87075 98.311348 
L 473.297375 95.79599 
L 474.279125 97.832879 
L 474.916492 97.832879 
L 475.435637 95.080075 
L 476.65897 96.809428 
L 477.429979 94.57872 
L 478.000525 94.622347 
L 478.915454 95.56498 
L 480.35467 94.722475 
L 480.776154 96.362428 
L 481.017737 96.062044 
L 482.384991 91.695749 
L 482.734515 93.925027 
L 483.932148 93.746227 
L 485.463884 89.35347 
L 485.746587 90.856104 
L 486.764318 87.964551 
L 487.165242 89.239038 
L 487.812889 90.602208 
L 488.573617 90.595772 
L 489.267525 93.131155 
L 491.071684 90.067239 
L 491.544569 91.325276 
L 491.796432 91.325276 
L 493.204807 88.426571 
L 493.919274 89.894876 
L 494.582341 87.443171 
L 495.41503 90.78816 
L 496.247719 88.430147 
L 496.32996 89.28481 
L 497.589273 92.456722 
L 497.892536 91.959658 
L 499.054189 88.901463 
L 500.303222 90.314698 
L 500.914889 88.472343 
L 501.778418 88.485217 
L 502.292423 91.913885 
L 502.539146 91.393935 
L 502.857829 94.105973 
L 504.045182 92.30653 
L 504.435826 86.958265 
L 506.147464 91.371048 
L 506.800251 85.554328 
L 508.429649 89.849103 
L 508.810013 88.483786 
L 510.177267 92.357309 
L 510.310909 90.676589 
L 511.534242 92.30653 
L 513.179059 90.027188 
L 514.304731 88.294259 
L 514.510333 92.465304 
L 516.07291 86.342478 
L 516.453274 87.393822 
L 517.94903 78.824297 
L 518.735458 80.510023 
L 519.393385 78.433083 
L 520.087293 80.826142 
L 520.369996 78.787107 
L 521.346606 79.595998 
L 522.292376 82.013373 
L 522.868062 80.97991 
L 523.916633 83.691232 
L 524.990905 84.009496 
L 525.571731 81.700116 
L 525.828734 81.361826 
L 527.139448 83.389418 
L 527.473551 82.564077 
L 528.743145 84.610979 
L 528.804825 84.449344 
L 529.354811 86.774459 
L 530.346842 85.111619 
L 531.811757 82.334498 
L 532.783228 82.083463 
L 532.95799 84.392843 
L 533.513116 83.336493 
L 533.811239 87.484652 
L 534.993451 84.465079 
L 536.062583 80.842591 
L 536.679389 80.304046 
L 537.481238 86.318877 
L 539.336798 81.284585 
L 539.742862 83.851437 
L 540.53957 78.792828 
L 542.066167 81.09005 
L 542.559612 78.610453 
L 543.027357 79.107516 
L 544.21985 82.166426 
L 544.605354 82.792226 
L 545.494583 80.82185 
L 546.14737 80.572246 
L 546.471194 82.028393 
L 547.632846 81.03355 
L 548.897299 84.075295 
L 549.164582 84.146815 
L 550.238854 83.192023 
L 550.8608 83.19989 
L 551.133223 85.13379 
L 553.127564 81.210204 
L 553.245786 83.850722 
L 553.893433 83.615421 
L 554.5565 80.324071 
L 555.137326 81.490562 
L 555.882634 74.051769 
L 557.028866 74.55813 
L 557.918095 76.54424 
L 558.36528 76.003549 
L 558.524622 74.84564 
L 560.637184 76.605747 
L 561.14605 73.963084 
L 561.598375 75.153176 
L 562.528724 72.252326 
L 563.510475 75.046612 
L 563.926819 73.4839 
L 564.620727 74.126149 
L 565.283794 75.899845 
L 566.501987 74.696879 
L 567.396356 75.789704 
L 568.244465 74.128295 
L 569.015473 75.502194 
L 569.416398 74.688297 
L 570.454689 76.346845 
L 570.57805 76.172336 
L 572.048106 78.187054 
L 572.063526 78.062609 
" clip-path="url(#p713a5aff3f)" style="fill: none; stroke: #4169e1; stroke-width: 1.5; stroke-linecap: square"/>
   </g>
   <g id="patch_3">
    <path d="M 53.328125 108.747437 
L 53.328125 7.2 
" style="fill: none; stroke: #000000; stroke-width: 0.8; stroke-linejoin: miter; stroke-linecap: square"/>
   </g>
   <g id="patch_4">
    <path d="M 577.19952 108.747437 
L 577.19952 7.2 
" style="fill: none; stroke: #000000; stroke-width: 0.8; stroke-linejoin: miter; stroke-linecap: square"/>
   </g>
   <g id="patch_5">
    <path d="M 53.328125 108.747437 
L 577.19952 108.747437 
" style="fill: none; stroke: #000000; stroke-width: 0.8; stroke-linejoin: miter; stroke-linecap: square"/>
   </g>
   <g id="patch_6">
    <path d="M 53.328125 7.2 
L 577.19952 7.2 
" style="fill: none; stroke: #000000; stroke-width: 0.8; stroke-linejoin: miter; stroke-linecap: square"/>
   </g>
  </g>
  <g id="axes_2">
   <g id="patch_7">
    <path d="M 53.328125 219.795353 
L 577.19952 219.795353 
L 577.19952 118.247917 
L 53.328125 118.247917 
z
" style="fill: #ffffff"/>
   </g>
   <g id="matplotlib.axis_3">
    <g id="xtick_15">
     <g id="line2d_18">
      <g>
       <use xlink:href="#m6b0549ed89" x="58.463225" y="219.795353" style="stroke: #000000; stroke-width: 0.8"/>
      </g>
     </g>
    </g>
    <g id="xtick_16">
     <g id="line2d_19">
      <g>
       <use xlink:href="#m6b0549ed89" x="97.08068" y="219.795353" style="stroke: #000000; stroke-width: 0.8"/>
      </g>
     </g>
    </g>
    <g id="xtick_17">
     <g id="line2d_20">
      <g>
       <use xlink:href="#m6b0549ed89" x="135.698134" y="219.795353" style="stroke: #000000; stroke-width: 0.8"/>
      </g>
     </g>
    </g>
    <g id="xtick_18">
     <g id="line2d_21">
      <g>
       <use xlink:href="#m6b0549ed89" x="174.315589" y="219.795353" style="stroke: #000000; stroke-width: 0.8"/>
      </g>
     </g>
    </g>
    <g id="xtick_19">
     <g id="line2d_22">
      <g>
       <use xlink:href="#m6b0549ed89" x="212.933043" y="219.795353" style="stroke: #000000; stroke-width: 0.8"/>
      </g>
     </g>
    </g>
    <g id="xtick_20">
     <g id="line2d_23">
      <g>
       <use xlink:href="#m6b0549ed89" x="251.550498" y="219.795353" style="stroke: #000000; stroke-width: 0.8"/>
      </g>
     </g>
    </g>
    <g id="xtick_21">
     <g id="line2d_24">
      <g>
       <use xlink:href="#m6b0549ed89" x="290.167952" y="219.795353" style="stroke: #000000; stroke-width: 0.8"/>
      </g>
     </g>
    </g>
    <g id="xtick_22">
     <g id="line2d_25">
      <g>
       <use xlink:href="#m6b0549ed89" x="328.785407" y="219.795353" style="stroke: #000000; stroke-width: 0.8"/>
      </g>
     </g>
    </g>
    <g id="xtick_23">
     <g id="line2d_26">
      <g>
       <use xlink:href="#m6b0549ed89" x="367.402861" y="219.795353" style="stroke: #000000; stroke-width: 0.8"/>
      </g>
     </g>
    </g>
    <g id="xtick_24">
     <g id="line2d_27">
      <g>
       <use xlink:href="#m6b0549ed89" x="406.020316" y="219.795353" style="stroke: #000000; stroke-width: 0.8"/>
      </g>
     </g>
    </g>
    <g id="xtick_25">
     <g id="line2d_28">
      <g>
       <use xlink:href="#m6b0549ed89" x="444.63777" y="219.795353" style="stroke: #000000; stroke-width: 0.8"/>
      </g>
     </g>
    </g>
    <g id="xtick_26">
     <g id="line2d_29">
      <g>
       <use xlink:href="#m6b0549ed89" x="483.255225" y="219.795353" style="stroke: #000000; stroke-width: 0.8"/>
      </g>
     </g>
    </g>
    <g id="xtick_27">
     <g id="line2d_30">
      <g>
       <use xlink:href="#m6b0549ed89" x="521.87268" y="219.795353" style="stroke: #000000; stroke-width: 0.8"/>
      </g>
     </g>
    </g>
    <g id="xtick_28">
     <g id="line2d_31">
      <g>
       <use xlink:href="#m6b0549ed89" x="560.490134" y="219.795353" style="stroke: #000000; stroke-width: 0.8"/>
      </g>
     </g>
    </g>
   </g>
   <g id="matplotlib.axis_4">
    <g id="ytick_3">
     <g id="line2d_32">
      <g>
       <use xlink:href="#m056aff0940" x="53.328125" y="211.864328" style="stroke: #000000; stroke-width: 0.8"/>
      </g>
     </g>
     <g id="text_4">
      <!-- 1000 -->
      <g transform="translate(20.878125 215.663546) scale(0.1 -0.1)">
       <defs>
        <path id="DejaVuSans-31" d="M 794 531 
L 1825 531 
L 1825 4091 
L 703 3866 
L 703 4441 
L 1819 4666 
L 2450 4666 
L 2450 531 
L 3481 531 
L 3481 0 
L 794 0 
L 794 531 
z
" transform="scale(0.015625)"/>
       </defs>
       <use xlink:href="#DejaVuSans-31"/>
       <use xlink:href="#DejaVuSans-30" transform="translate(63.623047 0)"/>
       <use xlink:href="#DejaVuSans-30" transform="translate(127.246094 0)"/>
       <use xlink:href="#DejaVuSans-30" transform="translate(190.869141 0)"/>
      </g>
     </g>
    </g>
    <g id="ytick_4">
     <g id="line2d_33">
      <g>
       <use xlink:href="#m056aff0940" x="53.328125" y="188.450069" style="stroke: #000000; stroke-width: 0.8"/>
      </g>
     </g>
     <g id="text_5">
      <!-- 1100 -->
      <g transform="translate(20.878125 192.249287) scale(0.1 -0.1)">
       <use xlink:href="#DejaVuSans-31"/>
       <use xlink:href="#DejaVuSans-31" transform="translate(63.623047 0)"/>
       <use xlink:href="#DejaVuSans-30" transform="translate(127.246094 0)"/>
       <use xlink:href="#DejaVuSans-30" transform="translate(190.869141 0)"/>
      </g>
     </g>
    </g>
    <g id="ytick_5">
     <g id="line2d_34">
      <g>
       <use xlink:href="#m056aff0940" x="53.328125" y="165.03581" style="stroke: #000000; stroke-width: 0.8"/>
      </g>
     </g>
     <g id="text_6">
      <!-- 1200 -->
      <g transform="translate(20.878125 168.835028) scale(0.1 -0.1)">
       <defs>
        <path id="DejaVuSans-32" d="M 1228 531 
L 3431 531 
L 3431 0 
L 469 0 
L 469 531 
Q 828 903 1448 1529 
Q 2069 2156 2228 2338 
Q 2531 2678 2651 2914 
Q 2772 3150 2772 3378 
Q 2772 3750 2511 3984 
Q 2250 4219 1831 4219 
Q 1534 4219 1204 4116 
Q 875 4013 500 3803 
L 500 4441 
Q 881 4594 1212 4672 
Q 1544 4750 1819 4750 
Q 2544 4750 2975 4387 
Q 3406 4025 3406 3419 
Q 3406 3131 3298 2873 
Q 3191 2616 2906 2266 
Q 2828 2175 2409 1742 
Q 1991 1309 1228 531 
z
" transform="scale(0.015625)"/>
       </defs>
       <use xlink:href="#DejaVuSans-31"/>
       <use xlink:href="#DejaVuSans-32" transform="translate(63.623047 0)"/>
       <use xlink:href="#DejaVuSans-30" transform="translate(127.246094 0)"/>
       <use xlink:href="#DejaVuSans-30" transform="translate(190.869141 0)"/>
      </g>
     </g>
    </g>
    <g id="ytick_6">
     <g id="line2d_35">
      <g>
       <use xlink:href="#m056aff0940" x="53.328125" y="141.621551" style="stroke: #000000; stroke-width: 0.8"/>
      </g>
     </g>
     <g id="text_7">
      <!-- 1300 -->
      <g transform="translate(20.878125 145.420769) scale(0.1 -0.1)">
       <use xlink:href="#DejaVuSans-31"/>
       <use xlink:href="#DejaVuSans-33" transform="translate(63.623047 0)"/>
       <use xlink:href="#DejaVuSans-30" transform="translate(127.246094 0)"/>
       <use xlink:href="#DejaVuSans-30" transform="translate(190.869141 0)"/>
      </g>
     </g>
    </g>
    <g id="text_8">
     <!-- Equity -->
     <g transform="translate(14.798438 184.832572) rotate(-90) scale(0.1 -0.1)">
      <defs>
       <path id="DejaVuSans-45" d="M 628 4666 
L 3578 4666 
L 3578 4134 
L 1259 4134 
L 1259 2753 
L 3481 2753 
L 3481 2222 
L 1259 2222 
L 1259 531 
L 3634 531 
L 3634 0 
L 628 0 
L 628 4666 
z
" transform="scale(0.015625)"/>
       <path id="DejaVuSans-71" d="M 947 1747 
Q 947 1113 1208 752 
Q 1469 391 1925 391 
Q 2381 391 2643 752 
Q 2906 1113 2906 1747 
Q 2906 2381 2643 2742 
Q 2381 3103 1925 3103 
Q 1469 3103 1208 2742 
Q 947 2381 947 1747 
z
M 2906 525 
Q 2725 213 2448 61 
Q 2172 -91 1784 -91 
Q 1150 -91 751 415 
Q 353 922 353 1747 
Q 353 2572 751 3078 
Q 1150 3584 1784 3584 
Q 2172 3584 2448 3432 
Q 2725 3281 2906 2969 
L 2906 3500 
L 3481 3500 
L 3481 -1331 
L 2906 -1331 
L 2906 525 
z
" transform="scale(0.015625)"/>
       <path id="DejaVuSans-75" d="M 544 1381 
L 544 3500 
L 1119 3500 
L 1119 1403 
Q 1119 906 1312 657 
Q 1506 409 1894 409 
Q 2359 409 2629 706 
Q 2900 1003 2900 1516 
L 2900 3500 
L 3475 3500 
L 3475 0 
L 2900 0 
L 2900 538 
Q 2691 219 2414 64 
Q 2138 -91 1772 -91 
Q 1169 -91 856 284 
Q 544 659 544 1381 
z
M 1991 3584 
L 1991 3584 
z
" transform="scale(0.015625)"/>
       <path id="DejaVuSans-74" d="M 1172 4494 
L 1172 3500 
L 2356 3500 
L 2356 3053 
L 1172 3053 
L 1172 1153 
Q 1172 725 1289 603 
Q 1406 481 1766 481 
L 2356 481 
L 2356 0 
L 1766 0 
Q 1100 0 847 248 
Q 594 497 594 1153 
L 594 3053 
L 172 3053 
L 172 3500 
L 594 3500 
L 594 4494 
L 1172 4494 
z
" transform="scale(0.015625)"/>
       <path id="DejaVuSans-79" d="M 2059 -325 
Q 1816 -950 1584 -1140 
Q 1353 -1331 966 -1331 
L 506 -1331 
L 506 -850 
L 844 -850 
Q 1081 -850 1212 -737 
Q 1344 -625 1503 -206 
L 1606 56 
L 191 3500 
L 800 3500 
L 1894 763 
L 2988 3500 
L 3597 3500 
L 2059 -325 
z
" transform="scale(0.015625)"/>
      </defs>
      <use xlink:href="#DejaVuSans-45"/>
      <use xlink:href="#DejaVuSans-71" transform="translate(63.183594 0)"/>
      <use xlink:href="#DejaVuSans-75" transform="translate(126.660156 0)"/>
      <use xlink:href="#DejaVuSans-69" transform="translate(190.039062 0)"/>
      <use xlink:href="#DejaVuSans-74" transform="translate(217.822266 0)"/>
      <use xlink:href="#DejaVuSans-79" transform="translate(257.03125 0)"/>
     </g>
    </g>
   </g>
   <g id="line2d_36">
    <path d="M 58.464119 211.864328 
L 89.402108 211.864328 
L 90.291338 212.50157 
L 90.867024 210.807268 
L 91.43243 212.187226 
L 92.157178 211.357067 
L 92.881925 212.303133 
L 93.658074 210.924389 
L 95.354292 212.38627 
L 96.027639 211.052432 
L 97.04537 215.155287 
L 97.225272 215.179561 
L 98.381784 210.111828 
L 98.715888 210.750225 
L 99.332694 207.510906 
L 100.237344 208.512801 
L 103.326517 208.512801 
L 104.174626 206.912129 
L 104.436768 210.184127 
L 105.927384 205.624439 
L 106.153547 208.964884 
L 106.965675 209.477913 
L 107.705843 207.443709 
L 108.456291 210.644702 
L 109.515142 205.68393 
L 109.520283 205.741502 
L 109.823546 200.341905 
L 111.067439 200.840221 
L 145.104881 200.840221 
L 146.482416 201.618588 
L 146.89362 204.299683 
L 147.438466 200.463337 
L 148.214614 203.046443 
L 148.70292 206.379577 
L 149.746351 205.283267 
L 151.288367 205.283267 
L 152.53226 205.501295 
L 152.773843 203.812718 
L 153.364949 205.027211 
L 153.606532 202.492253 
L 154.598562 203.949366 
L 156.125159 199.99843 
L 157.291951 203.554063 
L 157.482133 203.525479 
L 158.844248 205.414844 
L 159.03443 205.235668 
L 159.779737 200.149719 
L 160.756348 201.106254 
L 161.193253 199.357022 
L 163.192734 199.466479 
L 163.526837 202.405105 
L 164.282425 202.004225 
L 165.212775 199.451838 
L 166.168826 201.61938 
L 166.754792 196.373776 
L 166.795912 197.657987 
L 166.831893 196.72167 
L 168.312228 197.515064 
L 179.142324 197.515064 
L 180.68434 198.43923 
L 180.874522 198.708328 
L 182.138975 193.610345 
L 182.416538 194.914203 
L 183.393149 190.457743 
L 200.504391 190.391653 
L 200.715133 191.377574 
L 201.39362 191.172544 
L 201.887066 189.072651 
L 202.781435 190.496019 
L 203.465062 186.524948 
L 204.097289 187.2259 
L 205.151 184.646369 
L 205.459404 187.02309 
L 206.626196 183.723363 
L 207.222442 183.384361 
L 208.106532 186.422063 
L 208.87754 187.005326 
L 209.252764 183.967623 
L 210.085453 185.866927 
L 211.128884 187.233301 
L 211.65831 186.872093 
L 211.863912 186.445749 
L 227.104174 186.445749 
L 228.63591 188.791554 
L 228.707871 187.874479 
L 229.067675 190.846714 
L 231.144257 188.663795 
L 231.473221 192.535483 
L 232.31105 188.038216 
L 232.974117 194.885076 
L 233.431581 195.178041 
L 234.423612 192.207275 
L 235.338542 193.952582 
L 235.826847 191.511208 
L 236.397393 192.872503 
L 236.762337 190.739513 
L 238.02165 192.746212 
L 239.224423 190.47959 
L 239.558527 190.205715 
L 240.144493 193.29543 
L 241.74819 192.629467 
L 242.030893 190.27914 
L 243.228526 192.815232 
L 244.045794 189.598492 
L 244.122895 189.704224 
L 245.192027 184.584314 
L 245.752293 184.459492 
L 246.749463 188.022797 
L 247.571872 186.074837 
L 248.533062 189.52727 
L 248.985387 189.910548 
L 250.136759 186.074837 
L 250.594224 188.669669 
L 252.660526 192.963143 
L 253.251632 186.949001 
L 253.405834 188.980039 
L 258.042163 188.980039 
L 258.468788 188.067712 
L 259.342597 190.933992 
L 260.098185 188.316923 
L 261.357499 191.37318 
L 262.010286 187.705093 
L 262.688773 189.822297 
L 264.045747 183.014161 
L 268.872259 183.014161 
L 269.293743 182.100303 
L 269.746068 184.446725 
L 270.779219 182.46289 
L 270.969401 184.325863 
L 271.971712 183.491374 
L 273.513728 183.491374 
L 274.480058 182.757832 
L 275.235646 184.572024 
L 277.291668 182.163015 
L 277.821094 186.21921 
L 278.170618 185.61753 
L 279.399091 191.352939 
L 279.707494 190.360052 
L 279.871976 192.986398 
L 281.994818 194.462765 
L 282.791527 186.810214 
L 282.997129 189.110936 
L 283.464874 184.100746 
L 284.348963 184.308932 
L 288.985293 184.308932 
L 290.424508 184.516382 
L 290.506749 183.216042 
L 290.57357 183.332376 
L 291.56046 187.156094 
L 292.084746 184.969472 
L 295.179059 184.969472 
L 296.21735 187.084585 
L 296.726215 185.598774 
L 298.288792 185.728297 
L 299.147181 187.438407 
L 300.478455 187.050424 
L 301.146662 180.954614 
L 301.943371 178.469285 
L 302.154113 184.206956 
L 302.914841 179.992118 
L 335.399987 179.992118 
L 336.62332 180.584972 
L 336.705561 179.127172 
L 336.983124 179.284932 
L 337.692451 181.336651 
L 338.586821 179.371826 
L 340.020896 183.470202 
L 340.241918 183.105752 
L 340.925546 181.685915 
L 341.614313 183.012109 
L 341.773655 180.908084 
L 343.140909 181.047284 
L 349.324395 181.047284 
L 349.79728 180.550984 
L 350.516888 185.490838 
L 350.876692 185.225661 
L 355.513021 185.225661 
L 356.150388 185.356117 
L 357.034477 183.841044 
L 357.065317 184.038067 
L 358.24753 178.095988 
L 359.20872 176.883286 
L 359.918048 179.796827 
L 360.411493 179.946404 
L 360.987179 173.091581 
L 362.786198 174.228061 
L 363.253943 168.046964 
L 374.078899 168.046964 
L 374.705985 166.680177 
L 374.901307 169.507856 
L 375.872778 167.547622 
L 376.726027 170.05251 
L 377.178352 167.853011 
L 378.571306 159.3082 
L 378.771768 160.10778 
L 379.177833 168.93971 
L 380.272664 164.393672 
L 411.215794 164.393672 
L 412.351746 166.473026 
L 413.348917 163.82923 
L 414.186745 168.577027 
L 414.310107 167.808257 
L 415.625961 165.803571 
L 416.376409 168.168733 
L 417.389 163.221387 
L 418.221688 168.143904 
L 418.787094 156.140614 
L 425.135062 156.140614 
L 425.422905 155.46452 
L 425.84953 159.54367 
L 427.031742 160.390322 
L 427.566308 157.932237 
L 429.031223 156.681041 
L 429.468128 160.852658 
L 429.987274 159.240262 
L 430.850803 155.742885 
L 431.734892 159.08615 
L 431.986755 157.353354 
L 432.875984 157.884077 
L 437.517454 157.884077 
L 439.04919 150.947092 
L 440.02066 152.237175 
L 440.663167 145.694827 
L 441.403335 151.628216 
L 442.158923 149.438537 
L 443.685519 150.378231 
L 443.808881 150.039639 
L 444.559329 143.773099 
L 445.839202 149.395386 
L 446.784972 143.092826 
L 446.800393 144.1755 
L 447.052255 138.734345 
L 448.39895 139.182028 
L 448.907815 143.965552 
L 450.131148 140.569333 
L 450.737675 127.058555 
L 451.524103 135.34533 
L 452.737156 126.879481 
L 453.610965 132.594392 
L 454.531035 127.557696 
L 454.623556 122.863709 
L 455.790348 137.346012 
L 456.705278 138.668479 
L 457.589367 128.57862 
L 457.774409 128.494229 
L 458.74588 141.205352 
L 459.367826 132.542934 
L 459.820151 140.211186 
L 461.136005 131.670209 
L 462.117756 138.383402 
L 462.400459 138.054072 
L 463.263988 131.995423 
L 464.358819 136.622514 
L 465.181228 138.995751 
L 465.448511 138.506901 
L 466.224659 134.794731 
L 467.149869 136.164539 
L 467.674155 133.339502 
L 468.460583 133.658541 
L 508.681511 133.658541 
L 508.810013 134.882133 
L 510.177267 128.906883 
L 510.310909 131.499541 
L 511.534242 128.985215 
L 513.179059 132.5013 
L 513.328121 131.57015 
L 516.422434 131.57015 
L 517.94903 134.97033 
L 518.735458 132.454148 
L 519.393385 135.554272 
L 520.087293 131.982297 
L 520.369996 135.025842 
L 521.223245 132.66125 
L 521.346606 133.818459 
L 522.61106 133.547305 
L 536.530328 133.547305 
L 537.013493 133.789811 
L 537.481238 126.515904 
L 539.336798 134.000341 
L 539.742862 130.184224 
L 540.53957 137.704813 
L 542.066167 134.289553 
L 542.559612 137.975949 
L 543.027357 137.236969 
L 544.21985 132.689315 
L 544.605354 131.758944 
L 545.494583 134.688284 
L 546.14737 135.059369 
L 546.471194 132.894528 
L 547.632846 134.373552 
L 548.563196 130.351159 
L 548.91272 130.880673 
L 559.742815 130.880673 
L 561.264271 131.263886 
L 561.598375 130.217276 
L 562.528724 134.428633 
L 563.510475 130.371984 
L 563.926819 132.640676 
L 564.620727 131.70828 
L 565.283794 129.133288 
L 566.501987 130.879714 
L 567.396356 129.293187 
L 568.244465 131.705165 
L 569.015473 129.710585 
L 569.416398 130.892173 
L 570.454689 128.484349 
L 570.57805 128.737695 
L 570.927574 126.126363 
L 572.063526 126.195929 
L 572.063526 126.195929 
" clip-path="url(#p7f77e47708)" style="fill: none; stroke: #2e8b57; stroke-width: 1.5; stroke-linecap: square"/>
   </g>
   <g id="patch_8">
    <path d="M 53.328125 219.795353 
L 53.328125 118.247917 
" style="fill: none; stroke: #000000; stroke-width: 0.8; stroke-linejoin: miter; stroke-linecap: square"/>
   </g>
   <g id="patch_9">
    <path d="M 577.19952 219.795353 
L 577.19952 118.247917 
" style="fill: none; stroke: #000000; stroke-width: 0.8; stroke-linejoin: miter; stroke-linecap: square"/>
   </g>
   <g id="patch_10">
    <path d="M 53.328125 219.795353 
L 577.19952 219.795353 
" style="fill: none; stroke: #000000; stroke-width: 0.8; stroke-linejoin: miter; stroke-linecap: square"/>
   </g>
   <g id="patch_11">
    <path d="M 53.328125 118.247917 
L 577.19952 118.247917 
" style="fill: none; stroke: #000000; stroke-width: 0.8; stroke-linejoin: miter; stroke-linecap: square"/>
   </g>
  </g>
  <g id="axes_3">
   <g id="patch_12">
    <path d="M 53.328125 330.84327 
L 577.19952 330.84327 
L 577.19952 229.295833 
L 53.328125 229.295833 
z
" style="fill: #ffffff"/>
   </g>
   <g id="matplotlib.axis_5">
    <g id="xtick_29">
     <g id="line2d_37">
      <g>
       <use xlink:href="#m6b0549ed89" x="58.463225" y="330.84327" style="stroke: #000000; stroke-width: 0.8"/>
      </g>
     </g>
     <g id="text_9">
      <!-- Nov -->
      <g transform="translate(48.70385 345.441707) scale(0.1 -0.1)">
       <defs>
        <path id="DejaVuSans-4e" d="M 628 4666 
L 1478 4666 
L 3547 763 
L 3547 4666 
L 4159 4666 
L 4159 0 
L 3309 0 
L 1241 3903 
L 1241 0 
L 628 0 
L 628 4666 
z
" transform="scale(0.015625)"/>
        <path id="DejaVuSans-6f" d="M 1959 3097 
Q 1497 3097 1228 2736 
Q 959 2375 959 1747 
Q 959 1119 1226 758 
Q 1494 397 1959 397 
Q 2419 397 2687 759 
Q 2956 1122 2956 1747 
Q 2956 2369 2687 2733 
Q 2419 3097 1959 3097 
z
M 1959 3584 
Q 2709 3584 3137 3096 
Q 3566 2609 3566 1747 
Q 3566 888 3137 398 
Q 2709 -91 1959 -91 
Q 1206 -91 779 398 
Q 353 888 353 1747 
Q 353 2609 779 3096 
Q 1206 3584 1959 3584 
z
" transform="scale(0.015625)"/>
        <path id="DejaVuSans-76" d="M 191 3500 
L 800 3500 
L 1894 563 
L 2988 3500 
L 3597 3500 
L 2284 0 
L 1503 0 
L 191 3500 
z
" transform="scale(0.015625)"/>
       </defs>
       <use xlink:href="#DejaVuSans-4e"/>
       <use xlink:href="#DejaVuSans-6f" transform="translate(74.804688 0)"/>
       <use xlink:href="#DejaVuSans-76" transform="translate(135.986328 0)"/>
      </g>
     </g>
    </g>
    <g id="xtick_30">
     <g id="line2d_38">
      <g>
       <use xlink:href="#m6b0549ed89" x="97.08068" y="330.84327" style="stroke: #000000; stroke-width: 0.8"/>
      </g>
     </g>
     <g id="text_10">
      <!-- 03 -->
      <g transform="translate(90.71818 345.441707) scale(0.1 -0.1)">
       <use xlink:href="#DejaVuSans-30"/>
       <use xlink:href="#DejaVuSans-33" transform="translate(63.623047 0)"/>
      </g>
     </g>
    </g>
    <g id="xtick_31">
     <g id="line2d_39">
      <g>
       <use xlink:href="#m6b0549ed89" x="135.698134" y="330.84327" style="stroke: #000000; stroke-width: 0.8"/>
      </g>
     </g>
     <g id="text_11">
      <!-- 05 -->
      <g transform="translate(129.335634 345.441707) scale(0.1 -0.1)">
       <use xlink:href="#DejaVuSans-30"/>
       <use xlink:href="#DejaVuSans-35" transform="translate(63.623047 0)"/>
      </g>
     </g>
    </g>
    <g id="xtick_32">
     <g id="line2d_40">
      <g>
       <use xlink:href="#m6b0549ed89" x="174.315589" y="330.84327" style="stroke: #000000; stroke-width: 0.8"/>
      </g>
     </g>
     <g id="text_12">
      <!-- 07 -->
      <g transform="translate(167.953089 345.441707) scale(0.1 -0.1)">
       <defs>
        <path id="DejaVuSans-37" d="M 525 4666 
L 3525 4666 
L 3525 4397 
L 1831 0 
L 1172 0 
L 2766 4134 
L 525 4134 
L 525 4666 
z
" transform="scale(0.015625)"/>
       </defs>
       <use xlink:href="#DejaVuSans-30"/>
       <use xlink:href="#DejaVuSans-37" transform="translate(63.623047 0)"/>
      </g>
     </g>
    </g>
    <g id="xtick_33">
     <g id="line2d_41">
      <g>
       <use xlink:href="#m6b0549ed89" x="212.933043" y="330.84327" style="stroke: #000000; stroke-width: 0.8"/>
      </g>
     </g>
     <g id="text_13">
      <!-- 09 -->
      <g transform="translate(206.570543 345.441707) scale(0.1 -0.1)">
       <defs>
        <path id="DejaVuSans-39" d="M 703 97 
L 703 672 
Q 941 559 1184 500 
Q 1428 441 1663 441 
Q 2288 441 2617 861 
Q 2947 1281 2994 2138 
Q 2813 1869 2534 1725 
Q 2256 1581 1919 1581 
Q 1219 1581 811 2004 
Q 403 2428 403 3163 
Q 403 3881 828 4315 
Q 1253 4750 1959 4750 
Q 2769 4750 3195 4129 
Q 3622 3509 3622 2328 
Q 3622 1225 3098 567 
Q 2575 -91 1691 -91 
Q 1453 -91 1209 -44 
Q 966 3 703 97 
z
M 1959 2075 
Q 2384 2075 2632 2365 
Q 2881 2656 2881 3163 
Q 2881 3666 2632 3958 
Q 2384 4250 1959 4250 
Q 1534 4250 1286 3958 
Q 1038 3666 1038 3163 
Q 1038 2656 1286 2365 
Q 1534 2075 1959 2075 
z
" transform="scale(0.015625)"/>
       </defs>
       <use xlink:href="#DejaVuSans-30"/>
       <use xlink:href="#DejaVuSans-39" transform="translate(63.623047 0)"/>
      </g>
     </g>
    </g>
    <g id="xtick_34">
     <g id="line2d_42">
      <g>
       <use xlink:href="#m6b0549ed89" x="251.550498" y="330.84327" style="stroke: #000000; stroke-width: 0.8"/>
      </g>
     </g>
     <g id="text_14">
      <!-- 11 -->
      <g transform="translate(245.187998 345.441707) scale(0.1 -0.1)">
       <use xlink:href="#DejaVuSans-31"/>
       <use xlink:href="#DejaVuSans-31" transform="translate(63.623047 0)"/>
      </g>
     </g>
    </g>
    <g id="xtick_35">
     <g id="line2d_43">
      <g>
       <use xlink:href="#m6b0549ed89" x="290.167952" y="330.84327" style="stroke: #000000; stroke-width: 0.8"/>
      </g>
     </g>
     <g id="text_15">
      <!-- 13 -->
      <g transform="translate(283.805452 345.441707) scale(0.1 -0.1)">
       <use xlink:href="#DejaVuSans-31"/>
       <use xlink:href="#DejaVuSans-33" transform="translate(63.623047 0)"/>
      </g>
     </g>
    </g>
    <g id="xtick_36">
     <g id="line2d_44">
      <g>
       <use xlink:href="#m6b0549ed89" x="328.785407" y="330.84327" style="stroke: #000000; stroke-width: 0.8"/>
      </g>
     </g>
     <g id="text_16">
      <!-- 15 -->
      <g transform="translate(322.422907 345.441707) scale(0.1 -0.1)">
       <use xlink:href="#DejaVuSans-31"/>
       <use xlink:href="#DejaVuSans-35" transform="translate(63.623047 0)"/>
      </g>
     </g>
    </g>
    <g id="xtick_37">
     <g id="line2d_45">
      <g>
       <use xlink:href="#m6b0549ed89" x="367.402861" y="330.84327" style="stroke: #000000; stroke-width: 0.8"/>
      </g>
     </g>
     <g id="text_17">
      <!-- 17 -->
      <g transform="translate(361.040361 345.441707) scale(0.1 -0.1)">
       <use xlink:href="#DejaVuSans-31"/>
       <use xlink:href="#DejaVuSans-37" transform="translate(63.623047 0)"/>
      </g>
     </g>
    </g>
    <g id="xtick_38">
     <g id="line2d_46">
      <g>
       <use xlink:href="#m6b0549ed89" x="406.020316" y="330.84327" style="stroke: #000000; stroke-width: 0.8"/>
      </g>
     </g>
     <g id="text_18">
      <!-- 19 -->
      <g transform="translate(399.657816 345.441707) scale(0.1 -0.1)">
       <use xlink:href="#DejaVuSans-31"/>
       <use xlink:href="#DejaVuSans-39" transform="translate(63.623047 0)"/>
      </g>
     </g>
    </g>
    <g id="xtick_39">
     <g id="line2d_47">
      <g>
       <use xlink:href="#m6b0549ed89" x="444.63777" y="330.84327" style="stroke: #000000; stroke-width: 0.8"/>
      </g>
     </g>
     <g id="text_19">
      <!-- 21 -->
      <g transform="translate(438.27527 345.441707) scale(0.1 -0.1)">
       <use xlink:href="#DejaVuSans-32"/>
       <use xlink:href="#DejaVuSans-31" transform="translate(63.623047 0)"/>
      </g>
     </g>
    </g>
    <g id="xtick_40">
     <g id="line2d_48">
      <g>
       <use xlink:href="#m6b0549ed89" x="483.255225" y="330.84327" style="stroke: #000000; stroke-width: 0.8"/>
      </g>
     </g>
     <g id="text_20">
      <!-- 23 -->
      <g transform="translate(476.892725 345.441707) scale(0.1 -0.1)">
       <use xlink:href="#DejaVuSans-32"/>
       <use xlink:href="#DejaVuSans-33" transform="translate(63.623047 0)"/>
      </g>
     </g>
    </g>
    <g id="xtick_41">
     <g id="line2d_49">
      <g>
       <use xlink:href="#m6b0549ed89" x="521.87268" y="330.84327" style="stroke: #000000; stroke-width: 0.8"/>
      </g>
     </g>
     <g id="text_21">
      <!-- 25 -->
      <g transform="translate(515.51018 345.441707) scale(0.1 -0.1)">
       <use xlink:href="#DejaVuSans-32"/>
       <use xlink:href="#DejaVuSans-35" transform="translate(63.623047 0)"/>
      </g>
     </g>
    </g>
    <g id="xtick_42">
     <g id="line2d_50">
      <g>
       <use xlink:href="#m6b0549ed89" x="560.490134" y="330.84327" style="stroke: #000000; stroke-width: 0.8"/>
      </g>
     </g>
     <g id="text_22">
      <!-- 27 -->
      <g transform="translate(554.127634 345.441707) scale(0.1 -0.1)">
       <use xlink:href="#DejaVuSans-32"/>
       <use xlink:href="#DejaVuSans-37" transform="translate(63.623047 0)"/>
      </g>
     </g>
    </g>
    <g id="text_23">
     <!-- Time -->
     <g transform="translate(303.030229 359.119832) scale(0.1 -0.1)">
      <defs>
       <path id="DejaVuSans-54" d="M -19 4666 
L 3928 4666 
L 3928 4134 
L 2272 4134 
L 2272 0 
L 1638 0 
L 1638 4134 
L -19 4134 
L -19 4666 
z
" transform="scale(0.015625)"/>
       <path id="DejaVuSans-6d" d="M 3328 2828 
Q 3544 3216 3844 3400 
Q 4144 3584 4550 3584 
Q 5097 3584 5394 3201 
Q 5691 2819 5691 2113 
L 5691 0 
L 5113 0 
L 5113 2094 
Q 5113 2597 4934 2840 
Q 4756 3084 4391 3084 
Q 3944 3084 3684 2787 
Q 3425 2491 3425 1978 
L 3425 0 
L 2847 0 
L 2847 2094 
Q 2847 2600 2669 2842 
Q 2491 3084 2119 3084 
Q 1678 3084 1418 2786 
Q 1159 2488 1159 1978 
L 1159 0 
L 581 0 
L 581 3500 
L 1159 3500 
L 1159 2956 
Q 1356 3278 1631 3431 
Q 1906 3584 2284 3584 
Q 2666 3584 2933 3390 
Q 3200 3197 3328 2828 
z
" transform="scale(0.015625)"/>
      </defs>
      <use xlink:href="#DejaVuSans-54"/>
      <use xlink:href="#DejaVuSans-69" transform="translate(57.958984 0)"/>
      <use xlink:href="#DejaVuSans-6d" transform="translate(85.742188 0)"/>
      <use xlink:href="#DejaVuSans-65" transform="translate(183.154297 0)"/>
     </g>
    </g>
    <g id="text_24">
     <!-- 2025-Nov -->
     <g transform="translate(528.622957 358.119832) scale(0.1 -0.1)">
      <defs>
       <path id="DejaVuSans-2d" d="M 313 2009 
L 1997 2009 
L 1997 1497 
L 313 1497 
L 313 2009 
z
" transform="scale(0.015625)"/>
      </defs>
      <use xlink:href="#DejaVuSans-32"/>
      <use xlink:href="#DejaVuSans-30" transform="translate(63.623047 0)"/>
      <use xlink:href="#DejaVuSans-32" transform="translate(127.246094 0)"/>
      <use xlink:href="#DejaVuSans-35" transform="translate(190.869141 0)"/>
      <use xlink:href="#DejaVuSans-2d" transform="translate(254.492188 0)"/>
      <use xlink:href="#DejaVuSans-4e" transform="translate(290.576172 0)"/>
      <use xlink:href="#DejaVuSans-6f" transform="translate(365.380859 0)"/>
      <use xlink:href="#DejaVuSans-76" transform="translate(426.5625 0)"/>
     </g>
    </g>
   </g>
   <g id="matplotlib.axis_6">
    <g id="ytick_7">
     <g id="line2d_51">
      <g>
       <use xlink:href="#m056aff0940" x="53.328125" y="329.630626" style="stroke: #000000; stroke-width: 0.8"/>
      </g>
     </g>
     <g id="text_25">
      <!-- 0.2 -->
      <g transform="translate(22.045313 333.429845) scale(0.1 -0.1)">
       <defs>
        <path id="DejaVuSans-2212" d="M 678 2272 
L 4684 2272 
L 4684 1741 
L 678 1741 
L 678 2272 
z
" transform="scale(0.015625)"/>
        <path id="DejaVuSans-2e" d="M 684 794 
L 1344 794 
L 1344 0 
L 684 0 
L 684 794 
z
" transform="scale(0.015625)"/>
       </defs>
       <use xlink:href="#DejaVuSans-2212"/>
       <use xlink:href="#DejaVuSans-30" transform="translate(83.789062 0)"/>
       <use xlink:href="#DejaVuSans-2e" transform="translate(147.412109 0)"/>
       <use xlink:href="#DejaVuSans-32" transform="translate(179.199219 0)"/>
      </g>
     </g>
    </g>
    <g id="ytick_8">
     <g id="line2d_52">
      <g>
       <use xlink:href="#m056aff0940" x="53.328125" y="306.7138" style="stroke: #000000; stroke-width: 0.8"/>
      </g>
     </g>
     <g id="text_26">
      <!-- 0.1 -->
      <g transform="translate(22.045313 310.513019) scale(0.1 -0.1)">
       <use xlink:href="#DejaVuSans-2212"/>
       <use xlink:href="#DejaVuSans-30" transform="translate(83.789062 0)"/>
       <use xlink:href="#DejaVuSans-2e" transform="translate(147.412109 0)"/>
       <use xlink:href="#DejaVuSans-31" transform="translate(179.199219 0)"/>
      </g>
     </g>
    </g>
    <g id="ytick_9">
     <g id="line2d_53">
      <g>
       <use xlink:href="#m056aff0940" x="53.328125" y="283.796973" style="stroke: #000000; stroke-width: 0.8"/>
      </g>
     </g>
     <g id="text_27">
      <!-- 0.0 -->
      <g transform="translate(30.425 287.596192) scale(0.1 -0.1)">
       <use xlink:href="#DejaVuSans-30"/>
       <use xlink:href="#DejaVuSans-2e" transform="translate(63.623047 0)"/>
       <use xlink:href="#DejaVuSans-30" transform="translate(95.410156 0)"/>
      </g>
     </g>
    </g>
    <g id="ytick_10">
     <g id="line2d_54">
      <g>
       <use xlink:href="#m056aff0940" x="53.328125" y="260.880147" style="stroke: #000000; stroke-width: 0.8"/>
      </g>
     </g>
     <g id="text_28">
      <!-- 0.1 -->
      <g transform="translate(30.425 264.679366) scale(0.1 -0.1)">
       <use xlink:href="#DejaVuSans-30"/>
       <use xlink:href="#DejaVuSans-2e" transform="translate(63.623047 0)"/>
       <use xlink:href="#DejaVuSans-31" transform="translate(95.410156 0)"/>
      </g>
     </g>
    </g>
    <g id="ytick_11">
     <g id="line2d_55">
      <g>
       <use xlink:href="#m056aff0940" x="53.328125" y="237.963321" style="stroke: #000000; stroke-width: 0.8"/>
      </g>
     </g>
     <g id="text_29">
      <!-- 0.2 -->
      <g transform="translate(30.425 241.76254) scale(0.1 -0.1)">
       <use xlink:href="#DejaVuSans-30"/>
       <use xlink:href="#DejaVuSans-2e" transform="translate(63.623047 0)"/>
       <use xlink:href="#DejaVuSans-32" transform="translate(95.410156 0)"/>
      </g>
     </g>
    </g>
    <g id="text_30">
     <!-- Score -->
     <g transform="translate(14.798438 294.071895) rotate(-90) scale(0.1 -0.1)">
      <defs>
       <path id="DejaVuSans-53" d="M 3425 4513 
L 3425 3897 
Q 3066 4069 2747 4153 
Q 2428 4238 2131 4238 
Q 1616 4238 1336 4038 
Q 1056 3838 1056 3469 
Q 1056 3159 1242 3001 
Q 1428 2844 1947 2747 
L 2328 2669 
Q 3034 2534 3370 2195 
Q 3706 1856 3706 1288 
Q 3706 609 3251 259 
Q 2797 -91 1919 -91 
Q 1588 -91 1214 -16 
Q 841 59 441 206 
L 441 856 
Q 825 641 1194 531 
Q 1563 422 1919 422 
Q 2459 422 2753 634 
Q 3047 847 3047 1241 
Q 3047 1584 2836 1778 
Q 2625 1972 2144 2069 
L 1759 2144 
Q 1053 2284 737 2584 
Q 422 2884 422 3419 
Q 422 4038 858 4394 
Q 1294 4750 2059 4750 
Q 2388 4750 2728 4690 
Q 3069 4631 3425 4513 
z
" transform="scale(0.015625)"/>
      </defs>
      <use xlink:href="#DejaVuSans-53"/>
      <use xlink:href="#DejaVuSans-63" transform="translate(63.476562 0)"/>
      <use xlink:href="#DejaVuSans-6f" transform="translate(118.457031 0)"/>
      <use xlink:href="#DejaVuSans-72" transform="translate(179.638672 0)"/>
      <use xlink:href="#DejaVuSans-65" transform="translate(218.501953 0)"/>
     </g>
    </g>
   </g>
   <g id="line2d_56">
    <path d="M 58.464119 283.796973 
L 59.697732 272.943106 
L 60.160337 278.591187 
L 61.018726 286.234407 
L 61.558432 283.455421 
L 62.077578 286.770661 
L 63.593894 287.998315 
L 64.642465 282.645632 
L 64.817227 284.53556 
L 65.716736 281.310727 
L 66.467184 282.023165 
L 67.191932 285.468756 
L 67.9064 284.450653 
L 69.191413 281.817716 
L 69.340475 282.880255 
L 70.527827 280.990121 
L 70.841371 281.833391 
L 75.4777 281.833391 
L 76.099647 283.160802 
L 76.880935 280.190323 
L 77.055697 280.492596 
L 78.510332 282.407572 
L 78.654254 281.140226 
L 79.656565 285.426658 
L 80.268231 285.365745 
L 81.599505 281.117996 
L 81.697166 281.347165 
L 82.524715 284.044911 
L 83.999911 280.898453 
L 84.719519 283.512736 
L 85.901731 285.887263 
L 86.045653 282.660826 
L 86.472277 285.970451 
L 87.62879 280.116989 
L 87.988593 280.919308 
L 89.366128 284.944121 
L 89.705372 283.4727 
L 90.157696 288.979843 
L 91.386169 288.249254 
L 92.501561 283.871398 
L 93.555273 289.041031 
L 94.310861 286.050248 
L 95.498213 291.714049 
L 96.541644 291.13517 
L 97.137891 286.421179 
L 97.929459 282.991126 
L 98.669627 288.42686 
L 98.705607 288.324422 
L 99.754179 274.252115 
L 100.617708 277.533346 
L 101.424696 287.040163 
L 101.80506 278.978023 
L 103.326517 288.744258 
L 103.763421 286.863016 
L 104.58069 302.10408 
L 105.295158 305.926607 
L 106.297468 295.179532 
L 107.027356 301.228199 
L 107.834345 289.168907 
L 109.047397 298.989454 
L 109.510002 290.051892 
L 109.520283 290.199935 
L 111.041739 265.523325 
L 111.226781 267.221233 
L 112.609455 248.754854 
L 113.277663 250.959453 
L 114.351934 238.35749 
L 115.482746 247.377553 
L 115.708908 244.856702 
L 117.086443 257.105746 
L 117.276625 250.494241 
L 118.304636 259.312636 
L 118.864902 258.742007 
L 119.317227 269.019975 
L 120.350378 267.149045 
L 121.301288 256.858244 
L 122.056876 264.281004 
L 123.187688 254.069266 
L 123.542352 255.771987 
L 124.811945 270.514152 
L 125.870797 269.925189 
L 126.528724 260.767855 
L 126.672645 260.440144 
L 127.402533 270.354421 
L 128.816048 270.541652 
L 129.597336 255.077607 
L 130.352924 245.567124 
L 131.149633 260.245351 
L 131.231874 256.603867 
L 131.709899 267.885821 
L 132.80987 258.104919 
L 134.207965 270.332421 
L 134.891593 279.399234 
L 135.791102 266.677875 
L 135.971004 271.007093 
L 137.163497 257.582416 
L 137.369099 262.967412 
L 139.38914 246.151503 
L 139.898006 255.483235 
L 140.843776 243.738361 
L 142.005428 250.255906 
L 142.493733 244.48545 
L 143.177361 257.305122 
L 143.603985 256.182198 
L 145.104881 283.877453 
L 146.446436 289.537409 
L 146.806239 282.904821 
L 147.361365 294.571778 
L 148.312275 291.8433 
L 149.581869 266.746396 
L 150.378577 259.782431 
L 151.236967 273.54811 
L 151.298647 267.410984 
L 152.650482 294.783071 
L 153.48317 291.873551 
L 154.099977 300.318401 
L 154.41352 298.392242 
L 155.929837 291.246546 
L 156.813926 289.921266 
L 157.245691 294.955405 
L 157.687735 295.79462 
L 158.510144 290.605792 
L 159.11153 291.028378 
L 160.473645 285.125874 
L 160.900269 285.389762 
L 161.702118 293.376207 
L 162.318925 287.832856 
L 163.526837 297.088274 
L 163.974022 294.53534 
L 164.256725 299.878627 
L 165.68566 298.132365 
L 166.754792 282.56925 
L 166.770212 283.24729 
L 168.080926 258.572423 
L 168.368769 263.591208 
L 169.746304 240.603339 
L 169.890225 241.47647 
L 170.193488 252.879883 
L 172.300911 242.438977 
L 172.619594 251.43154 
L 173.570504 239.780625 
L 174.444314 251.536957 
L 174.747577 241.902723 
L 176.02231 261.110003 
L 176.335854 259.023884 
L 176.9578 274.298178 
L 177.723668 258.835966 
L 179.121763 272.476061 
L 179.214284 272.0026 
L 180.6535 293.102809 
L 181.403948 295.543451 
L 181.62497 289.836016 
L 182.293177 293.732105 
L 183.680992 274.64766 
L 184.611342 273.482339 
L 185.264129 284.229162 
L 185.485151 284.445543 
L 186.718764 268.370053 
L 187.350991 263.175496 
L 188.23508 286.921912 
L 188.456103 285.527836 
L 189.684576 276.956759 
L 190.244842 284.004412 
L 191.339673 274.67791 
L 191.519575 275.66425 
L 192.537306 266.770459 
L 193.318594 267.903696 
L 194.305485 279.341026 
L 195.055933 270.50911 
L 196.145625 282.951205 
L 196.803552 275.328748 
L 197.096535 285.55749 
L 198.037165 281.680765 
L 198.849293 273.098253 
L 199.610021 274.640556 
L 200.545511 292.955683 
L 200.925875 288.175233 
L 202.205749 306.023774 
L 203.485623 298.142448 
L 203.907107 305.34704 
L 205.06362 289.144386 
L 205.932289 289.839682 
L 206.862639 299.355436 
L 207.052821 298.127323 
L 207.515426 292.188428 
L 208.815859 298.480472 
L 210.023772 290.475853 
L 210.285915 292.64241 
L 211.576069 283.730001 
L 211.632609 285.233217 
L 212.691461 277.59843 
L 213.205466 279.008044 
L 214.5059 284.627296 
L 214.726922 281.837516 
L 216.222678 274.287178 
L 216.325479 274.409783 
L 217.029667 278.485311 
L 217.831515 277.641972 
L 219.270731 285.535192 
L 219.399232 285.414603 
L 220.900128 276.607736 
L 221.527215 279.52459 
L 222.426724 274.123781 
L 222.843069 272.874585 
L 223.9379 277.070656 
L 224.611248 276.701007 
L 225.212634 270.930321 
L 225.628978 273.081753 
L 226.800911 284.964288 
L 227.186415 281.920887 
L 228.461149 294.556194 
L 228.666751 292.884183 
L 229.869524 300.85878 
L 230.321848 294.647862 
L 231.699383 307.958183 
L 232.562912 311.542375 
L 233.2928 303.348464 
L 234.110069 289.270199 
L 234.870797 294.707674 
L 235.903948 299.828668 
L 236.479634 297.595653 
L 237.697827 303.362214 
L 238.170712 303.205234 
L 239.219283 296.88844 
L 239.558527 298.08974 
L 241.362686 312.168004 
L 242.570599 298.995413 
L 243.871033 301.610681 
L 243.978974 296.411541 
L 244.472419 292.276887 
L 245.397629 307.513597 
L 246.497601 312.981552 
L 247.006466 299.85296 
L 247.273749 303.735529 
L 248.414841 286.091864 
L 248.841465 289.949454 
L 250.136759 281.283685 
L 251.000288 288.436485 
L 251.822697 278.463999 
L 252.12082 272.12383 
L 252.727347 293.74448 
L 253.775918 285.050501 
L 254.94785 262.977495 
L 255.163733 266.008245 
L 256.217444 252.749257 
L 256.561828 252.687382 
L 258.026743 278.58202 
L 258.119264 277.264303 
L 259.56362 296.514208 
L 259.61502 294.947614 
L 260.58135 309.963406 
L 261.300958 305.838835 
L 262.683633 296.371665 
L 262.688773 296.513979 
L 264.102288 278.5905 
L 264.528912 283.609956 
L 265.772806 271.951266 
L 266.070929 275.329894 
L 266.944738 263.370289 
L 267.361083 265.920932 
L 268.867119 285.929063 
L 268.877399 285.626034 
L 269.864289 293.16056 
L 270.439975 293.472458 
L 271.678729 279.085961 
L 272.979162 279.980176 
L 273.488028 286.980121 
L 273.976333 290.349811 
L 274.557159 285.111941 
L 275.61087 292.097677 
L 276.5001 284.707367 
L 277.908475 286.782348 
L 278.129497 281.294685 
L 278.175758 281.352894 
L 279.460771 302.375415 
L 279.758895 302.220956 
L 280.833166 297.071774 
L 281.25465 299.361624 
L 282.318642 287.821397 
L 282.801807 290.863835 
L 284.122801 268.065947 
L 284.96063 269.664167 
L 285.757338 248.374435 
L 285.91154 251.110704 
L 287.438136 268.312761 
L 287.520377 264.143503 
L 288.553528 279.196421 
L 289.057254 271.211282 
L 290.465629 294.071962 
L 290.820292 294.172108 
L 292.064186 280.630097 
L 292.583331 283.861766 
L 292.881454 272.984815 
L 294.808975 277.712327 
L 295.168779 284.897875 
L 295.677644 290.230872 
L 296.572014 277.291345 
L 296.859857 275.803126 
L 298.268232 289.550014 
L 298.982699 286.275199 
L 299.486425 294.88253 
L 300.565836 298.905579 
L 301.254603 289.759932 
L 301.90225 291.227984 
L 302.884001 272.925689 
L 302.955961 273.372109 
L 304.307796 260.417227 
L 304.461998 261.604319 
L 305.325527 272.947231 
L 306.898383 259.447845 
L 307.196507 266.836918 
L 307.900694 264.684799 
L 308.4661 270.910842 
L 309.103467 267.467131 
L 310.671184 237.796028 
L 311.534713 244.400657 
L 312.24404 238.543117 
L 312.860847 248.848813 
L 314.603325 240.949383 
L 315.189292 249.88007 
L 315.538815 250.72341 
L 316.695328 234.988717 
L 317.409795 242.351893 
L 318.247624 256.564909 
L 318.715369 252.499464 
L 319.979823 266.393248 
L 321.218576 255.881987 
L 322.59097 246.435671 
L 322.873674 261.533048 
L 323.320858 266.197997 
L 324.549331 244.636701 
L 325.104457 255.588652 
L 326.111908 241.302302 
L 326.826376 233.911626 
L 327.623084 243.742944 
L 328.20391 239.721041 
L 329.12398 252.449047 
L 329.715086 243.351067 
L 330.347313 257.804709 
L 330.768798 252.261129 
L 332.254273 263.563249 
L 332.434175 257.167621 
L 333.251444 266.692083 
L 333.85797 266.148726 
L 335.379427 279.301609 
L 335.410267 277.301199 
L 336.777521 294.676278 
L 337.836373 302.06833 
L 338.47888 288.978697 
L 338.622801 288.705299 
L 339.548011 297.589236 
L 340.108277 296.819689 
L 341.516652 281.899644 
L 342.467562 285.511129 
L 342.668024 279.459964 
L 344.004438 279.457902 
L 344.528724 283.551168 
L 344.950208 279.890342 
L 345.952519 285.292159 
L 346.682407 286.347845 
L 348.131902 277.263845 
L 349.684199 290.535895 
L 350.72249 278.069829 
L 351.082294 280.871411 
L 351.765921 274.807848 
L 353.092055 276.228921 
L 353.888764 281.157413 
L 354.053245 280.067947 
L 354.963035 286.157407 
L 355.605542 284.61279 
L 356.474211 291.331797 
L 357.394281 285.436947 
L 358.25267 295.589743 
L 358.797516 296.99019 
L 360.15449 284.87945 
L 360.560555 286.195678 
L 361.619406 270.024648 
L 361.763327 270.514152 
L 362.755358 288.872134 
L 363.428705 287.878002 
L 363.932431 278.494249 
L 364.80624 283.593087 
L 366.137514 272.642896 
L 366.476758 277.020697 
L 367.746351 257.557207 
L 367.951953 262.54895 
L 369.046785 252.107586 
L 370.059376 262.352095 
L 370.41918 251.422373 
L 371.349529 252.682798 
L 372.480342 274.770265 
L 372.536882 272.919273 
L 374.032638 287.491853 
L 374.084039 286.842161 
L 375.451293 302.720084 
L 375.646615 301.272199 
L 377.173211 311.668418 
L 377.383954 311.975503 
L 378.694668 296.739251 
L 379.167553 297.754008 
L 380.020802 278.963815 
L 380.493687 282.894486 
L 381.619359 252.238212 
L 382.277286 258.244712 
L 382.914653 246.091919 
L 383.541739 245.768792 
L 384.472089 260.261393 
L 384.950114 253.986766 
L 385.710842 268.76789 
L 386.887915 260.31181 
L 387.895366 241.907307 
L 388.758895 249.779236 
L 389.478502 239.425414 
L 390.331752 235.955807 
L 390.840617 251.371956 
L 391.863488 252.591131 
L 392.629356 241.795014 
L 392.660196 242.436685 
L 393.328403 257.144704 
L 394.330714 252.334463 
L 395.733949 274.570201 
L 395.78535 268.280678 
L 397.214285 288.778862 
L 398.432478 288.528611 
L 398.828262 266.517457 
L 399.229186 282.29968 
L 400.776343 251.06487 
L 401.907155 268.125531 
L 402.734704 258.237837 
L 403.192168 274.50443 
L 404.076258 262.121322 
L 405.011748 284.290373 
L 405.978078 287.256956 
L 406.296761 281.355186 
L 406.882728 281.703201 
L 407.191131 287.494833 
L 409.334534 281.490395 
L 409.668637 283.478132 
L 410.979351 286.412929 
L 411.513917 285.298736 
L 412.788651 290.849168 
L 414.094224 282.635342 
L 414.459168 282.563567 
L 415.857263 288.463985 
L 416.797893 287.225331 
L 417.47124 288.312734 
L 418.771674 275.892502 
L 419.558103 271.189281 
L 420.416492 283.670612 
L 421.15152 287.836064 
L 421.367402 266.875647 
L 422.539334 281.182393 
L 422.708956 271.362762 
L 423.593046 277.888328 
L 425.109362 291.599694 
L 426.163073 290.724272 
L 426.584557 295.720598 
L 427.149963 299.925607 
L 427.340145 290.769647 
L 428.296196 297.787467 
L 429.64289 288.924384 
L 429.781671 288.924384 
L 430.979304 283.116046 
L 431.626951 287.337165 
L 432.531601 273.882925 
L 433.086727 274.861474 
L 433.842315 270.844612 
L 434.531082 270.268713 
L 435.26097 276.101962 
L 437.12681 271.845161 
L 437.440353 284.716878 
L 437.707636 284.008968 
L 439.06461 299.70148 
L 440.072061 285.045276 
L 440.796809 295.239803 
L 441.757999 279.296567 
L 442.158923 283.12331 
L 443.70608 292.551889 
L 444.250925 310.057365 
L 445.253236 307.348596 
L 446.795253 318.147004 
L 447.684482 318.52284 
L 447.941485 310.245283 
L 448.46577 315.13115 
L 449.606862 307.130886 
L 450.737675 306.933801 
L 450.845616 326.227477 
L 451.899327 316.201366 
L 452.757716 300.594778 
L 452.994159 301.782557 
L 454.402534 283.303253 
L 454.592716 282.882661 
L 455.718388 311.127581 
L 456.314634 296.433312 
L 457.440306 315.665112 
L 457.630488 314.303853 
L 458.221594 295.158219 
L 460.097714 298.931704 
L 460.65798 307.850474 
L 461.58319 313.249679 
L 462.246257 296.553167 
L 462.57008 295.087177 
L 462.986425 311.78071 
L 464.867685 290.255623 
L 465.36627 291.37511 
L 466.738665 282.350143 
L 467.530233 282.81226 
L 468.290961 277.934391 
L 468.614785 278.302664 
L 469.617095 274.31697 
L 470.377824 270.587944 
L 471.452095 276.066211 
L 471.657697 274.62818 
L 472.397865 271.32747 
L 473.122613 272.523041 
L 474.248285 269.796168 
L 474.664629 271.044447 
L 476.134685 281.505291 
L 476.669251 279.970322 
L 477.5482 283.039206 
L 477.743522 282.189656 
L 478.314068 284.469491 
L 479.295818 283.303758 
L 480.282709 276.585277 
L 481.557443 274.944433 
L 482.184529 278.269893 
L 483.382162 273.64459 
L 484.199431 281.275893 
L 484.970439 273.122087 
L 485.936769 272.567499 
L 486.779738 281.368248 
L 487.422245 277.087843 
L 487.674108 280.274428 
L 489.498827 277.881224 
L 489.653029 281.655442 
L 490.120774 279.956343 
L 491.112804 278.925773 
L 492.392678 279.29038 
L 492.665101 281.59061 
L 494.130016 281.755543 
L 494.597761 280.362887 
L 494.767383 279.223921 
L 495.934176 280.831994 
L 496.622943 279.035774 
L 497.702354 281.022204 
L 498.000478 280.976829 
L 499.16727 278.721584 
L 499.403713 278.721584 
L 500.164441 282.040399 
L 501.213012 280.831994 
L 501.552255 277.630743 
L 503.330714 278.057913 
L 504.178823 284.624523 
L 504.754509 281.096225 
L 505.592338 283.421894 
L 506.301666 287.281019 
L 507.370797 285.364691 
L 507.509579 287.0601 
L 508.686651 286.92237 
L 509.067015 292.125865 
L 510.393149 289.113448 
L 511.534242 283.079654 
L 512.197309 284.453472 
L 513.343541 280.791432 
L 514.361272 283.113112 
L 515.358442 281.445936 
L 515.600025 285.752145 
L 516.705137 280.208886 
L 518.118652 296.825189 
L 519.059282 285.382703 
L 520.102713 292.462055 
L 520.827461 282.911399 
L 521.063903 282.911399 
L 522.266676 272.267976 
L 523.094225 277.293866 
L 524.158216 273.15417 
L 524.281577 281.553943 
L 525.705372 280.353949 
L 527.026367 279.052503 
L 527.252529 279.882092 
L 528.028677 284.318217 
L 528.984727 285.689262 
L 529.827696 281.206226 
L 530.346842 281.263289 
L 530.608985 280.329887 
L 531.893998 281.079496 
L 533.245833 285.906811 
L 533.441155 283.482073 
L 533.538816 277.538617 
L 535.214474 279.845425 
L 536.355566 288.51211 
L 536.78733 286.370762 
L 537.429837 293.129622 
L 538.082624 291.591444 
L 539.53212 286.162219 
L 540.128366 285.199437 
L 540.344248 287.158643 
L 541.233478 285.994308 
L 542.688113 288.344818 
L 543.042777 288.326713 
L 543.731544 286.439971 
L 544.384331 287.72423 
L 545.741306 285.000703 
L 545.941768 286.310949 
L 547.201081 283.314299 
L 547.365563 283.314299 
L 548.809918 281.005475 
L 549.503826 281.710626 
L 549.85335 279.816321 
L 550.459876 279.816321 
L 551.945352 284.603233 
L 552.68552 280.25747 
L 553.574749 288.762821 
L 555.260687 275.365186 
L 555.666751 281.290331 
L 557.069986 283.161421 
L 557.933516 276.834842 
L 558.802185 277.133906 
L 559.352171 289.860307 
L 559.763375 282.834765 
L 561.259131 291.422777 
L 561.613795 286.382679 
L 562.312842 296.070309 
L 562.909088 288.248567 
L 563.397394 295.136907 
L 564.384284 295.136907 
L 565.84406 286.954683 
L 566.286104 285.850367 
L 566.980012 292.226241 
L 568.146804 281.50678 
L 569.128555 293.862273 
L 570.249087 281.701321 
L 570.927574 279.423297 
L 571.410739 285.727877 
L 572.063526 280.508638 
L 572.063526 280.508638 
" clip-path="url(#p36d9e5e8b7)" style="fill: none; stroke: #7a738c; stroke-width: 1.5; stroke-linecap: square"/>
   </g>
   <g id="patch_13">
    <path d="M 53.328125 330.84327 
L 53.328125 229.295833 
" style="fill: none; stroke: #000000; stroke-width: 0.8; stroke-linejoin: miter; stroke-linecap: square"/>
   </g>
   <g id="patch_14">
    <path d="M 577.19952 330.84327 
L 577.19952 229.295833 
" style="fill: none; stroke: #000000; stroke-width: 0.8; stroke-linejoin: miter; stroke-linecap: square"/>
   </g>
   <g id="patch_15">
    <path d="M 53.328125 330.84327 
L 577.19952 330.84327 
" style="fill: none; stroke: #000000; stroke-width: 0.8; stroke-linejoin: miter; stroke-linecap: square"/>
   </g>
   <g id="patch_16">
    <path d="M 53.328125 229.295833 
L 577.19952 229.295833 
" style="fill: none; stroke: #000000; stroke-width: 0.8; stroke-linejoin: miter; stroke-linecap: square"/>
   </g>
  </g>
 </g>
 <defs>
  <clipPath id="p713a5aff3f">
   <rect x="53.328125" y="7.2" width="523.871395" height="101.547437"/>
  </clipPath>
  <clipPath id="p7f77e47708">
   <rect x="53.328125" y="118.247917" width="523.871395" height="101.547437"/>
  </clipPath>
  <clipPath id="p36d9e5e8b7">
   <rect x="53.328125" y="229.295833" width="523.871395" height="101.547437"/>
  </clipPath>
 </defs>
</svg>
