<?xml version="1.0" encoding="utf-8" standalone="no"?>
<!DOCTYPE svg PUBLIC "-//W3C//DTD SVG 1.1//EN"
  "http://www.w3.org/Graphics/SVG/1.1/DTD/svg11.dtd">
<svg xmlns:xlink="http://www.w3.org/1999/xlink"   viewBox="0 0 584.39952 368.39952" xmlns="http://www.w3.org/2000/svg" version="1.1" preserveAspectRatio="xMidYMid meet" style="width:100%;height:auto;aspect-ratio:8 / 5;display:block;">
 <metadata>
  <rdf:RDF xmlns:dc="http://purl.org/dc/elements/1.1/" xmlns:cc="http://creativecommons.org/ns#" xmlns:rdf="http://www.w3.org/1999/02/22-rdf-syntax-ns#">
   <cc:Work>
    <dc:type rdf:resource="http://purl.org/dc/dcmitype/StillImage"/>
    <dc:date>2025-11-20T08:37:19.677001</dc:date>
    <dc:format>image/svg+xml</dc:format>
    <dc:creator>
     <cc:Agent>
      <dc:title>Matplotlib v3.10.7, https://matplotlib.org/</dc:title>
     </cc:Agent>
    </dc:creator>
   </cc:Work>
  </rdf:RDF>
 </metadata>
 <defs>
  <style type="text/css">*{stroke-linejoin: round; stroke-linecap: butt}</style>
 </defs>
 <g id="figure_1">
  <g id="patch_1">
   <path d="M 0 368.39952 
L 584.39952 368.39952 
L 584.39952 0 
L 0 0 
z
" style="fill: #ffffff"/>
  </g>
  <g id="axes_1">
   <g id="patch_2">
    <path d="M 53.328125 108.747437 
L 577.19952 108.747437 
L 577.19952 7.2 
L 53.328125 7.2 
z
" style="fill: #ffffff"/>
   </g>
   <g id="matplotlib.axis_1">
    <g id="xtick_1">
     <g id="line2d_1">
      <defs>
       <path id="m7e1d5f444a" d="M 0 0 
L 0 3.5 
" style="stroke: #000000; stroke-width: 0.8"/>
      </defs>
      <g>
       <use xlink:href="#m7e1d5f444a" x="58.462822" y="108.747437" style="stroke: #000000; stroke-width: 0.8"/>
      </g>
     </g>
    </g>
    <g id="xtick_2">
     <g id="line2d_2">
      <g>
       <use xlink:href="#m7e1d5f444a" x="86.471465" y="108.747437" style="stroke: #000000; stroke-width: 0.8"/>
      </g>
     </g>
    </g>
    <g id="xtick_3">
     <g id="line2d_3">
      <g>
       <use xlink:href="#m7e1d5f444a" x="114.480108" y="108.747437" style="stroke: #000000; stroke-width: 0.8"/>
      </g>
     </g>
    </g>
    <g id="xtick_4">
     <g id="line2d_4">
      <g>
       <use xlink:href="#m7e1d5f444a" x="142.48875" y="108.747437" style="stroke: #000000; stroke-width: 0.8"/>
      </g>
     </g>
    </g>
    <g id="xtick_5">
     <g id="line2d_5">
      <g>
       <use xlink:href="#m7e1d5f444a" x="170.497393" y="108.747437" style="stroke: #000000; stroke-width: 0.8"/>
      </g>
     </g>
    </g>
    <g id="xtick_6">
     <g id="line2d_6">
      <g>
       <use xlink:href="#m7e1d5f444a" x="198.506035" y="108.747437" style="stroke: #000000; stroke-width: 0.8"/>
      </g>
     </g>
    </g>
    <g id="xtick_7">
     <g id="line2d_7">
      <g>
       <use xlink:href="#m7e1d5f444a" x="226.514678" y="108.747437" style="stroke: #000000; stroke-width: 0.8"/>
      </g>
     </g>
    </g>
    <g id="xtick_8">
     <g id="line2d_8">
      <g>
       <use xlink:href="#m7e1d5f444a" x="254.523321" y="108.747437" style="stroke: #000000; stroke-width: 0.8"/>
      </g>
     </g>
    </g>
    <g id="xtick_9">
     <g id="line2d_9">
      <g>
       <use xlink:href="#m7e1d5f444a" x="282.531963" y="108.747437" style="stroke: #000000; stroke-width: 0.8"/>
      </g>
     </g>
    </g>
    <g id="xtick_10">
     <g id="line2d_10">
      <g>
       <use xlink:href="#m7e1d5f444a" x="310.540606" y="108.747437" style="stroke: #000000; stroke-width: 0.8"/>
      </g>
     </g>
    </g>
    <g id="xtick_11">
     <g id="line2d_11">
      <g>
       <use xlink:href="#m7e1d5f444a" x="338.549248" y="108.747437" style="stroke: #000000; stroke-width: 0.8"/>
      </g>
     </g>
    </g>
    <g id="xtick_12">
     <g id="line2d_12">
      <g>
       <use xlink:href="#m7e1d5f444a" x="366.557891" y="108.747437" style="stroke: #000000; stroke-width: 0.8"/>
      </g>
     </g>
    </g>
    <g id="xtick_13">
     <g id="line2d_13">
      <g>
       <use xlink:href="#m7e1d5f444a" x="394.566534" y="108.747437" style="stroke: #000000; stroke-width: 0.8"/>
      </g>
     </g>
    </g>
    <g id="xtick_14">
     <g id="line2d_14">
      <g>
       <use xlink:href="#m7e1d5f444a" x="422.575176" y="108.747437" style="stroke: #000000; stroke-width: 0.8"/>
      </g>
     </g>
    </g>
    <g id="xtick_15">
     <g id="line2d_15">
      <g>
       <use xlink:href="#m7e1d5f444a" x="450.583819" y="108.747437" style="stroke: #000000; stroke-width: 0.8"/>
      </g>
     </g>
    </g>
    <g id="xtick_16">
     <g id="line2d_16">
      <g>
       <use xlink:href="#m7e1d5f444a" x="478.592461" y="108.747437" style="stroke: #000000; stroke-width: 0.8"/>
      </g>
     </g>
    </g>
    <g id="xtick_17">
     <g id="line2d_17">
      <g>
       <use xlink:href="#m7e1d5f444a" x="506.601104" y="108.747437" style="stroke: #000000; stroke-width: 0.8"/>
      </g>
     </g>
    </g>
    <g id="xtick_18">
     <g id="line2d_18">
      <g>
       <use xlink:href="#m7e1d5f444a" x="534.609747" y="108.747437" style="stroke: #000000; stroke-width: 0.8"/>
      </g>
     </g>
    </g>
    <g id="xtick_19">
     <g id="line2d_19">
      <g>
       <use xlink:href="#m7e1d5f444a" x="562.618389" y="108.747437" style="stroke: #000000; stroke-width: 0.8"/>
      </g>
     </g>
    </g>
   </g>
   <g id="matplotlib.axis_2">
    <g id="ytick_1">
     <g id="line2d_20">
      <defs>
       <path id="m611ce29ddf" d="M 0 0 
L -3.5 0 
" style="stroke: #000000; stroke-width: 0.8"/>
      </defs>
      <g>
       <use xlink:href="#m611ce29ddf" x="53.328125" y="99.309131" style="stroke: #000000; stroke-width: 0.8"/>
      </g>
     </g>
     <g id="text_1">
      <!-- 3000 -->
      <g transform="translate(20.878125 103.10835) scale(0.1 -0.1)">
       <defs>
        <path id="DejaVuSans-33" d="M 2597 2516 
Q 3050 2419 3304 2112 
Q 3559 1806 3559 1356 
Q 3559 666 3084 287 
Q 2609 -91 1734 -91 
Q 1441 -91 1130 -33 
Q 819 25 488 141 
L 488 750 
Q 750 597 1062 519 
Q 1375 441 1716 441 
Q 2309 441 2620 675 
Q 2931 909 2931 1356 
Q 2931 1769 2642 2001 
Q 2353 2234 1838 2234 
L 1294 2234 
L 1294 2753 
L 1863 2753 
Q 2328 2753 2575 2939 
Q 2822 3125 2822 3475 
Q 2822 3834 2567 4026 
Q 2313 4219 1838 4219 
Q 1578 4219 1281 4162 
Q 984 4106 628 3988 
L 628 4550 
Q 988 4650 1302 4700 
Q 1616 4750 1894 4750 
Q 2613 4750 3031 4423 
Q 3450 4097 3450 3541 
Q 3450 3153 3228 2886 
Q 3006 2619 2597 2516 
z
" transform="scale(0.015625)"/>
        <path id="DejaVuSans-30" d="M 2034 4250 
Q 1547 4250 1301 3770 
Q 1056 3291 1056 2328 
Q 1056 1369 1301 889 
Q 1547 409 2034 409 
Q 2525 409 2770 889 
Q 3016 1369 3016 2328 
Q 3016 3291 2770 3770 
Q 2525 4250 2034 4250 
z
M 2034 4750 
Q 2819 4750 3233 4129 
Q 3647 3509 3647 2328 
Q 3647 1150 3233 529 
Q 2819 -91 2034 -91 
Q 1250 -91 836 529 
Q 422 1150 422 2328 
Q 422 3509 836 4129 
Q 1250 4750 2034 4750 
z
" transform="scale(0.015625)"/>
       </defs>
       <use xlink:href="#DejaVuSans-33"/>
       <use xlink:href="#DejaVuSans-30" transform="translate(63.623047 0)"/>
       <use xlink:href="#DejaVuSans-30" transform="translate(127.246094 0)"/>
       <use xlink:href="#DejaVuSans-30" transform="translate(190.869141 0)"/>
      </g>
     </g>
    </g>
    <g id="ytick_2">
     <g id="line2d_21">
      <g>
       <use xlink:href="#m611ce29ddf" x="53.328125" y="75.38319" style="stroke: #000000; stroke-width: 0.8"/>
      </g>
     </g>
     <g id="text_2">
      <!-- 3250 -->
      <g transform="translate(20.878125 79.182409) scale(0.1 -0.1)">
       <defs>
        <path id="DejaVuSans-32" d="M 1228 531 
L 3431 531 
L 3431 0 
L 469 0 
L 469 531 
Q 828 903 1448 1529 
Q 2069 2156 2228 2338 
Q 2531 2678 2651 2914 
Q 2772 3150 2772 3378 
Q 2772 3750 2511 3984 
Q 2250 4219 1831 4219 
Q 1534 4219 1204 4116 
Q 875 4013 500 3803 
L 500 4441 
Q 881 4594 1212 4672 
Q 1544 4750 1819 4750 
Q 2544 4750 2975 4387 
Q 3406 4025 3406 3419 
Q 3406 3131 3298 2873 
Q 3191 2616 2906 2266 
Q 2828 2175 2409 1742 
Q 1991 1309 1228 531 
z
" transform="scale(0.015625)"/>
        <path id="DejaVuSans-35" d="M 691 4666 
L 3169 4666 
L 3169 4134 
L 1269 4134 
L 1269 2991 
Q 1406 3038 1543 3061 
Q 1681 3084 1819 3084 
Q 2600 3084 3056 2656 
Q 3513 2228 3513 1497 
Q 3513 744 3044 326 
Q 2575 -91 1722 -91 
Q 1428 -91 1123 -41 
Q 819 9 494 109 
L 494 744 
Q 775 591 1075 516 
Q 1375 441 1709 441 
Q 2250 441 2565 725 
Q 2881 1009 2881 1497 
Q 2881 1984 2565 2268 
Q 2250 2553 1709 2553 
Q 1456 2553 1204 2497 
Q 953 2441 691 2322 
L 691 4666 
z
" transform="scale(0.015625)"/>
       </defs>
       <use xlink:href="#DejaVuSans-33"/>
       <use xlink:href="#DejaVuSans-32" transform="translate(63.623047 0)"/>
       <use xlink:href="#DejaVuSans-35" transform="translate(127.246094 0)"/>
       <use xlink:href="#DejaVuSans-30" transform="translate(190.869141 0)"/>
      </g>
     </g>
    </g>
    <g id="ytick_3">
     <g id="line2d_22">
      <g>
       <use xlink:href="#m611ce29ddf" x="53.328125" y="51.457249" style="stroke: #000000; stroke-width: 0.8"/>
      </g>
     </g>
     <g id="text_3">
      <!-- 3500 -->
      <g transform="translate(20.878125 55.256468) scale(0.1 -0.1)">
       <use xlink:href="#DejaVuSans-33"/>
       <use xlink:href="#DejaVuSans-35" transform="translate(63.623047 0)"/>
       <use xlink:href="#DejaVuSans-30" transform="translate(127.246094 0)"/>
       <use xlink:href="#DejaVuSans-30" transform="translate(190.869141 0)"/>
      </g>
     </g>
    </g>
    <g id="ytick_4">
     <g id="line2d_23">
      <g>
       <use xlink:href="#m611ce29ddf" x="53.328125" y="27.531308" style="stroke: #000000; stroke-width: 0.8"/>
      </g>
     </g>
     <g id="text_4">
      <!-- 3750 -->
      <g transform="translate(20.878125 31.330527) scale(0.1 -0.1)">
       <defs>
        <path id="DejaVuSans-37" d="M 525 4666 
L 3525 4666 
L 3525 4397 
L 1831 0 
L 1172 0 
L 2766 4134 
L 525 4134 
L 525 4666 
z
" transform="scale(0.015625)"/>
       </defs>
       <use xlink:href="#DejaVuSans-33"/>
       <use xlink:href="#DejaVuSans-37" transform="translate(63.623047 0)"/>
       <use xlink:href="#DejaVuSans-35" transform="translate(127.246094 0)"/>
       <use xlink:href="#DejaVuSans-30" transform="translate(190.869141 0)"/>
      </g>
     </g>
    </g>
    <g id="text_5">
     <!-- Price -->
     <g transform="translate(14.798438 70.171375) rotate(-90) scale(0.1 -0.1)">
      <defs>
       <path id="DejaVuSans-50" d="M 1259 4147 
L 1259 2394 
L 2053 2394 
Q 2494 2394 2734 2622 
Q 2975 2850 2975 3272 
Q 2975 3691 2734 3919 
Q 2494 4147 2053 4147 
L 1259 4147 
z
M 628 4666 
L 2053 4666 
Q 2838 4666 3239 4311 
Q 3641 3956 3641 3272 
Q 3641 2581 3239 2228 
Q 2838 1875 2053 1875 
L 1259 1875 
L 1259 0 
L 628 0 
L 628 4666 
z
" transform="scale(0.015625)"/>
       <path id="DejaVuSans-72" d="M 2631 2963 
Q 2534 3019 2420 3045 
Q 2306 3072 2169 3072 
Q 1681 3072 1420 2755 
Q 1159 2438 1159 1844 
L 1159 0 
L 581 0 
L 581 3500 
L 1159 3500 
L 1159 2956 
Q 1341 3275 1631 3429 
Q 1922 3584 2338 3584 
Q 2397 3584 2469 3576 
Q 2541 3569 2628 3553 
L 2631 2963 
z
" transform="scale(0.015625)"/>
       <path id="DejaVuSans-69" d="M 603 3500 
L 1178 3500 
L 1178 0 
L 603 0 
L 603 3500 
z
M 603 4863 
L 1178 4863 
L 1178 4134 
L 603 4134 
L 603 4863 
z
" transform="scale(0.015625)"/>
       <path id="DejaVuSans-63" d="M 3122 3366 
L 3122 2828 
Q 2878 2963 2633 3030 
Q 2388 3097 2138 3097 
Q 1578 3097 1268 2742 
Q 959 2388 959 1747 
Q 959 1106 1268 751 
Q 1578 397 2138 397 
Q 2388 397 2633 464 
Q 2878 531 3122 666 
L 3122 134 
Q 2881 22 2623 -34 
Q 2366 -91 2075 -91 
Q 1284 -91 818 406 
Q 353 903 353 1747 
Q 353 2603 823 3093 
Q 1294 3584 2113 3584 
Q 2378 3584 2631 3529 
Q 2884 3475 3122 3366 
z
" transform="scale(0.015625)"/>
       <path id="DejaVuSans-65" d="M 3597 1894 
L 3597 1613 
L 953 1613 
Q 991 1019 1311 708 
Q 1631 397 2203 397 
Q 2534 397 2845 478 
Q 3156 559 3463 722 
L 3463 178 
Q 3153 47 2828 -22 
Q 2503 -91 2169 -91 
Q 1331 -91 842 396 
Q 353 884 353 1716 
Q 353 2575 817 3079 
Q 1281 3584 2069 3584 
Q 2775 3584 3186 3129 
Q 3597 2675 3597 1894 
z
M 3022 2063 
Q 3016 2534 2758 2815 
Q 2500 3097 2075 3097 
Q 1594 3097 1305 2825 
Q 1016 2553 972 2059 
L 3022 2063 
z
" transform="scale(0.015625)"/>
      </defs>
      <use xlink:href="#DejaVuSans-50"/>
      <use xlink:href="#DejaVuSans-72" transform="translate(58.552734 0)"/>
      <use xlink:href="#DejaVuSans-69" transform="translate(99.666016 0)"/>
      <use xlink:href="#DejaVuSans-63" transform="translate(127.449219 0)"/>
      <use xlink:href="#DejaVuSans-65" transform="translate(182.429688 0)"/>
     </g>
    </g>
   </g>
   <g id="line2d_24">
    <path d="M 58.464119 18.273883 
L 58.911479 19.808971 
L 59.679448 17.97433 
L 60.275928 17.128309 
L 61.021529 19.403187 
L 61.550905 19.171584 
L 62.788602 17.003894 
L 63.474554 17.385752 
L 64.048666 16.370335 
L 65.077595 16.583754 
L 66.031964 17.910208 
L 66.322748 17.856614 
L 67.172732 16.612465 
L 67.724477 17.141707 
L 69.290237 15.214233 
L 70.393726 16.052598 
L 71.191519 15.17978 
L 71.944575 16.266018 
L 73.264288 15.21519 
L 73.637088 15.794198 
L 73.898048 15.484118 
L 75.150657 17.200086 
L 75.441441 16.907233 
L 75.963361 15.744432 
L 76.984834 16.038243 
L 83.15095 16.038243 
L 83.986022 15.234331 
L 84.522854 16.690942 
L 85.223719 15.879374 
L 85.603975 16.287072 
L 86.446504 15.820038 
L 87.229384 16.689985 
L 87.848232 16.899577 
L 89.130665 15.423825 
L 89.399081 15.672654 
L 89.488553 14.823762 
L 91.32273 15.509958 
L 92.254731 12.352691 
L 93.939788 13.931803 
L 94.43934 12.546969 
L 95.125293 13.931803 
L 95.714317 11.815793 
L 96.743246 13.844712 
L 97.459022 13.05707 
L 98.756367 17.613527 
L 100.098448 13.89065 
L 100.351952 13.654262 
L 101.261584 15.890859 
L 101.679121 15.788456 
L 103.185233 18.416481 
L 103.37909 19.022286 
L 104.631698 16.155001 
L 104.765906 16.466039 
L 105.466771 18.82705 
L 106.309299 16.651704 
L 107.338228 17.959974 
L 108.389525 16.467953 
L 109.515381 18.642342 
L 110.87983 17.128309 
L 111.28991 17.999213 
L 111.975863 16.336838 
L 112.952599 18.440407 
L 113.62364 14.978802 
L 114.689848 11.931594 
L 115.584569 16.181798 
L 116.978842 20.391807 
L 117.11305 19.358206 
L 118.581883 28.966864 
L 118.738459 26.614466 
L 119.305115 30.540234 
L 120.609916 26.392433 
L 122.436637 33.631466 
L 123.152413 29.285558 
L 123.413373 29.200381 
L 124.770366 33.500352 
L 125.150622 28.605104 
L 126.082623 32.630404 
L 127.312864 35.426868 
L 127.640928 30.429218 
L 128.043552 32.608393 
L 128.818977 29.661674 
L 129.892641 32.705053 
L 130.981218 27.916037 
L 131.003586 28.488345 
L 132.539523 37.101684 
L 132.546979 36.704514 
L 133.329859 45.165683 
L 134.120196 41.375814 
L 135.290788 34.309048 
L 135.708325 35.534057 
L 136.781989 39.87805 
L 137.60215 37.335201 
L 138.660902 43.573173 
L 139.093351 40.740341 
L 139.346855 45.284356 
L 140.800776 45.605921 
L 141.121384 41.983533 
L 143.074857 44.875701 
L 143.283625 38.974607 
L 143.775721 41.475346 
L 144.43185 37.149536 
L 145.237098 37.427077 
L 145.781387 40.034048 
L 146.743211 37.240455 
L 147.973452 39.379434 
L 148.085292 39.234921 
L 149.673421 53.370367 
L 149.844909 45.862407 
L 152.19355 55.281571 
L 152.469423 50.522223 
L 152.648367 50.97873 
L 153.297039 53.98 
L 155.168496 54.063263 
L 155.690416 50.038919 
L 156.488209 48.514358 
L 157.226353 51.882174 
L 158.225458 51.898443 
L 158.411858 49.544131 
L 159.589907 53.995313 
L 160.104371 44.182806 
L 160.387699 43.594228 
L 161.647764 55.463409 
L 161.901268 53.673748 
L 162.684149 64.662454 
L 163.489397 63.416391 
L 164.197717 74.92764 
L 165.166998 69.486881 
L 166.203383 86.398694 
L 166.702935 77.949008 
L 167.709495 93.155379 
L 168.045016 87.563408 
L 169.446745 70.60183 
L 170.557689 70.599916 
L 171.124346 75.118091 
L 171.258554 74.862562 
L 172.205466 83.055761 
L 174.129115 67.440735 
L 174.375163 70.063975 
L 174.897084 66.195629 
L 175.76198 69.066742 
L 176.619421 65.722852 
L 177.834749 69.216997 
L 177.886941 66.769851 
L 179.773311 66.650222 
L 180.325055 71.838323 
L 180.794783 72.232622 
L 181.175039 68.726993 
L 182.039936 69.534733 
L 183.247809 72.985811 
L 183.546049 71.94264 
L 185.014882 65.928615 
L 186.066178 68.073337 
L 186.737219 63.463286 
L 187.527555 68.446581 
L 188.11658 66.797605 
L 189.361732 60.761569 
L 189.652516 63.54942 
L 190.920037 56.767851 
L 191.270469 58.762317 
L 192.523078 53.658436 
L 192.851142 56.595584 
L 194.141031 53.371324 
L 194.290151 53.614412 
L 195.266888 57.992859 
L 196.124328 56.3257 
L 196.47476 59.805488 
L 197.913769 57.80528 
L 198.65937 60.688834 
L 199.59137 60.159592 
L 200.128203 63.228812 
L 201.350987 61.782728 
L 201.820716 58.34792 
L 202.014572 58.834095 
L 202.387372 56.262535 
L 204.072429 55.793587 
L 205.429422 63.021135 
L 206.846063 61.708079 
L 207.479823 64.109287 
L 208.836816 63.618326 
L 209.314 61.693724 
L 210.380209 63.959032 
L 210.864849 59.925118 
L 211.498609 62.844083 
L 211.960882 60.475415 
L 213.429714 66.410005 
L 214.197683 61.32335 
L 214.697235 61.0037 
L 215.54722 68.204451 
L 216.464308 64.645228 
L 217.038421 72.416373 
L 218.179189 75.885635 
L 218.92479 69.885966 
L 219.886614 71.012399 
L 220.490551 65.882677 
L 220.535287 66.467427 
L 221.720791 69.669675 
L 222.101048 67.735502 
L 222.772088 71.72922 
L 224.106713 67.594818 
L 225.098361 71.012399 
L 225.985626 71.555997 
L 226.679034 68.16904 
L 227.484283 67.93648 
L 227.924187 71.255487 
L 228.408827 72.471882 
L 229.721084 67.94318 
L 229.780732 68.170954 
L 230.489053 64.59929 
L 231.972797 68.849494 
L 232.561822 64.855776 
L 232.874974 65.676914 
L 233.971007 64.224131 
L 235.111775 64.656712 
L 235.387647 67.337375 
L 236.028864 64.965835 
L 238.690657 72.942744 
L 239.070914 71.793342 
L 240.08493 77.775784 
L 240.629218 73.377239 
L 241.121315 81.364675 
L 242.75418 75.643504 
L 243.604164 80.557893 
L 243.671268 79.56066 
L 244.580901 69.322271 
L 245.483077 73.181047 
L 246.735686 66.946903 
L 246.758054 67.408195 
L 248.174695 58.405342 
L 248.547495 60.134709 
L 249.501864 56.463513 
L 250.016328 57.835905 
L 250.530792 53.213413 
L 252.342601 54.097716 
L 252.864522 56.463513 
L 253.155306 55.69884 
L 254.407915 57.928738 
L 255.295179 60.185432 
L 255.496491 56.841543 
L 256.331564 58.290498 
L 257.338124 55.764875 
L 258.038989 57.340159 
L 259.000813 54.95905 
L 259.850798 56.491267 
L 260.037198 53.0689 
L 260.693326 56.290289 
L 261.834095 59.134605 
L 262.482767 55.955326 
L 263.198544 58.64843 
L 264.21256 57.613872 
L 264.809041 54.812623 
L 265.793233 55.077722 
L 266.50901 57.792838 
L 267.806355 55.952455 
L 268.320819 59.586327 
L 268.380467 59.451384 
L 269.8493 61.773158 
L 270.542708 60.183518 
L 271.243573 63.515923 
L 271.638741 60.413207 
L 272.89135 63.494869 
L 273.033014 62.583769 
L 274.248342 65.147673 
L 274.539126 64.480617 
L 275.530775 61.21999 
L 276.649176 60.465844 
L 277.193464 64.393527 
L 278.155289 62.874708 
L 278.774137 60.865886 
L 279.325881 61.612375 
L 279.914906 60.171077 
L 280.981114 61.189365 
L 281.995131 59.764336 
L 282.263547 60.235198 
L 283.09862 63.623112 
L 284.351228 62.91299 
L 284.679292 60.913738 
L 285.365245 61.193193 
L 286.595486 64.855776 
L 286.96083 64.494973 
L 287.59459 62.244977 
L 288.437119 63.741784 
L 289.920864 60.268695 
L 290.606816 60.844831 
L 291.38224 59.243707 
L 291.844513 58.699153 
L 292.336609 60.069631 
L 293.52957 57.739244 
L 294.640514 62.713926 
L 295.803651 58.702981 
L 296.146627 59.558573 
L 297.01898 55.2854 
L 297.69002 57.165979 
L 299.211045 53.875683 
L 299.233413 54.00584 
L 299.479461 45.69971 
L 300.88119 47.969804 
L 301.544774 51.214161 
L 302.446951 48.576566 
L 303.237287 51.071563 
L 303.96052 50.331773 
L 305.310057 45.04414 
L 305.414441 46.23948 
L 305.936361 42.365391 
L 307.986762 42.382618 
L 308.41921 44.853689 
L 308.948587 45.210664 
L 309.425771 40.164205 
L 310.6411 46.02606 
L 311.5731 37.388796 
L 311.901165 39.946957 
L 312.266509 36.719826 
L 313.705518 40.592001 
L 314.137966 37.627098 
L 315.032686 38.317122 
L 315.741007 41.499272 
L 316.486607 39.546915 
L 317.098 42.505119 
L 318.082192 42.229492 
L 318.924721 39.889535 
L 319.364625 40.235026 
L 320.669426 42.84391 
L 321.154066 43.200885 
L 322.00405 39.173671 
L 322.421587 39.633049 
L 322.943507 41.516499 
L 324.330324 40.041704 
L 324.740404 43.105181 
L 325.597845 43.029575 
L 326.477653 39.799573 
L 327.327638 40.966202 
L 328.431126 49.62835 
L 328.915767 45.902602 
L 329.325847 50.527965 
L 330.138551 50.690662 
L 331.585016 46.046158 
L 332.502105 46.193542 
L 332.777977 48.585179 
L 333.404281 47.821463 
L 334.17225 44.085188 
L 334.828378 43.585614 
L 335.834939 48.450237 
L 336.498523 48.585179 
L 337.378332 43.91005 
L 337.937532 43.966515 
L 339.287069 46.318914 
L 339.361629 46.256706 
L 340.159421 37.656766 
L 341.016862 45.67387 
L 341.620798 38.751617 
L 342.604991 38.800426 
L 343.984351 43.799034 
L 344.103648 43.65165 
L 345.080384 47.017551 
L 345.743968 48.292325 
L 346.892193 45.266172 
L 347.168065 45.236504 
L 347.704898 47.36687 
L 348.629442 46.766807 
L 349.852227 43.297546 
L 350.94826 46.764893 
L 351.686404 44.359858 
L 352.774981 42.715667 
L 353.147781 45.125488 
L 353.721893 47.575504 
L 354.668806 44.605816 
L 355.429318 47.182162 
L 355.899046 52.605694 
L 356.555175 49.957571 
L 357.420071 54.747544 
L 358.158216 51.492659 
L 359.202056 56.543904 
L 359.612137 53.072729 
L 360.894569 55.964896 
L 361.08097 54.515941 
L 362.080074 56.901836 
L 363.295403 56.491267 
L 364.041003 60.084943 
L 364.287051 60.606529 
L 364.94318 57.689478 
L 365.815532 57.77274 
L 366.441837 60.155764 
L 367.821197 59.592069 
L 368.044878 56.295074 
L 369.155822 55.847181 
L 369.841775 59.412146 
L 370.259311 58.07325 
L 371.139119 56.721913 
L 371.81016 57.887585 
L 372.906192 55.610792 
L 373.950033 55.761047 
L 374.74037 57.369828 
L 375.888594 58.634074 
L 376.380691 55.860579 
L 376.440339 55.990736 
L 377.543827 52.127175 
L 378.095572 53.367496 
L 378.945556 47.100814 
L 379.489844 47.65111 
L 379.631508 45.050839 
L 381.406038 47.561149 
L 382.710838 43.198014 
L 383.866519 52.801887 
L 384.164759 49.914504 
L 385.521752 63.514966 
L 385.827448 62.569413 
L 387.184441 56.501794 
L 387.698905 55.945756 
L 388.593626 59.209254 
L 388.765114 58.706809 
L 389.398874 63.692975 
L 390.554555 57.355472 
L 391.180859 59.99881 
L 392.194876 58.860892 
L 392.530396 61.632473 
L 394.140893 60.549107 
L 394.670269 59.022632 
L 395.057982 60.54815 
L 396.004894 56.21564 
L 396.586462 55.62132 
L 396.892159 58.799642 
L 398.38336 62.26029 
L 399.53904 54.059434 
L 399.568864 55.86345 
L 401.089889 52.048698 
L 401.097345 52.062097 
L 402.61837 46.873039 
L 403.341602 45.554241 
L 403.863523 48.466506 
L 404.415267 46.958215 
L 405.280164 52.19991 
L 406.152516 53.39525 
L 406.66698 50.191088 
L 407.591525 50.039876 
L 408.762118 53.104311 
L 409.52263 50.537536 
L 410.305511 55.365791 
L 410.357703 54.746587 
L 411.647591 61.544426 
L 411.953288 54.184806 
L 413.138792 63.994442 
L 413.451944 61.741576 
L 414.801481 71.626817 
L 415.040073 68.95094 
L 416.344874 80.153066 
L 417.314155 76.777594 
L 418.037387 83.587874 
L 418.335627 84.474091 
L 418.715884 79.923377 
L 419.632972 83.996529 
L 421.101805 77.020682 
L 421.467149 78.541414 
L 422.123278 73.553334 
L 423.226766 76.617769 
L 423.949999 81.428797 
L 424.583759 81.371375 
L 425.731984 75.526746 
L 425.791632 75.779404 
L 426.96968 79.473569 
L 427.335025 77.871488 
L 428.028433 88.322339 
L 429.400338 79.913806 
L 430.541106 86.352756 
L 431.748979 76.41392 
L 432.300724 78.575868 
L 433.471316 82.11595 
L 433.5757 80.272696 
L 434.052885 84.953567 
L 435.193653 81.006743 
L 436.28223 87.945266 
L 437.437911 92.609868 
L 437.818167 85.41773 
L 438.474295 92.274905 
L 439.637432 81.490047 
L 440.345752 84.030982 
L 441.031705 77.569064 
L 441.359769 82.074797 
L 441.993529 75.38319 
L 442.768954 76.958474 
L 443.439994 83.896997 
L 444.513659 84.637744 
L 445.199611 78.606493 
L 445.982492 79.162532 
L 446.765372 87.58542 
L 448.748669 85.690486 
L 448.905245 81.711123 
L 449.173661 82.465269 
L 449.561374 90.78384 
L 450.50083 89.722485 
L 451.082399 85.351694 
L 452.267903 85.710583 
L 452.842016 82.675817 
L 454.131904 81.129244 
L 454.914785 83.409865 
L 455.608193 81.222077 
L 456.159938 84.141042 
L 456.681858 84.006099 
L 457.524386 81.952297 
L 458.337091 81.5312 
L 458.493667 83.431877 
L 459.902852 82.548531 
L 460.96906 86.605414 
L 461.595365 83.775453 
L 462.072549 85.629235 
L 463.504102 83.122754 
L 464.525575 85.436871 
L 465.077319 83.616585 
L 465.919847 83.841489 
L 466.881672 80.702405 
L 468.193929 82.72654 
L 468.633833 81.622119 
L 469.424169 83.608929 
L 470.535114 81.115846 
L 470.61713 81.83171 
L 471.869739 77.537482 
L 472.093419 78.782588 
L 473.450412 80.935923 
L 474.158732 80.309063 
L 474.978893 83.329474 
L 475.485901 81.597236 
L 476.112205 84.877004 
L 476.984558 84.362117 
L 477.774894 82.607867 
L 478.669615 82.908377 
L 479.788016 86.252267 
L 480.697648 86.573831 
L 481.286672 83.426135 
L 481.428336 83.531409 
L 482.531825 79.441987 
L 483.299794 79.720485 
L 484.000658 81.447938 
L 484.440562 80.935923 
L 485.842291 78.911788 
L 486.75938 80.38754 
L 487.497524 79.211341 
L 487.959796 78.054282 
L 488.325141 79.749196 
L 489.227317 79.423803 
L 490.271158 75.915303 
L 490.800534 76.233997 
L 492.008407 83.194531 
L 492.985143 82.384878 
L 493.320663 84.555439 
L 494.155736 83.098828 
L 494.714936 85.998652 
L 495.393433 84.953567 
L 496.459641 82.353295 
L 496.921914 82.89785 
L 498.204346 93.531495 
L 499.538971 96.914623 
L 499.904315 87.551924 
L 500.538076 95.140275 
L 501.962173 91.092006 
L 502.506461 88.495563 
L 502.983645 90.358915 
L 505.511231 98.429614 
L 505.928767 89.879439 
L 507.047168 92.772564 
L 507.382688 86.246525 
L 508.322144 85.550758 
L 508.985729 88.65156 
L 509.142305 87.489716 
L 510.581314 82.460484 
L 511.699714 83.582132 
L 511.841378 81.188581 
L 512.639171 82.413589 
L 513.071619 81.15317 
L 513.876868 83.025136 
L 515.129476 80.21623 
L 515.755781 79.694645 
L 517.19479 82.175286 
L 517.478118 79.064914 
L 518.53687 79.72527 
L 518.887303 81.22112 
L 520.124999 78.465808 
L 521.370152 81.745576 
L 521.906984 81.50536 
L 522.801705 90.284266 
L 523.092489 89.404749 
L 523.681513 79.68986 
L 524.702986 84.498017 
L 525.597707 92.955358 
L 526.380587 86.294376 
L 527.573548 94.227261 
L 527.827052 92.09211 
L 529.169133 98.555943 
L 529.482285 97.185465 
L 530.026573 103.448319 
L 530.801998 101.595494 
L 531.286638 97.073491 
L 532.337935 99.570403 
L 533.105903 96.650481 
L 533.829135 98.878464 
L 534.82824 96.11454 
L 535.521648 100.239372 
L 536.177777 95.10965 
L 537.579506 95.544145 
L 538.175986 104.131644 
L 538.720274 103.747872 
L 539.272019 97.192164 
L 540.211475 103.381327 
L 540.889972 97.513729 
L 541.911444 98.352094 
L 542.485556 102.092197 
L 543.171509 100.690137 
L 545.124982 93.285536 
L 545.654358 96.787337 
L 546.198647 94.611034 
L 546.936791 92.904635 
L 547.92844 92.806061 
L 548.905176 95.866667 
L 549.494201 93.406123 
L 550.530585 97.22566 
L 551.11961 96.416007 
L 552.327482 90.924525 
L 552.372218 92.903678 
L 553.952891 83.546721 
L 555.123484 87.928997 
L 555.451548 87.238973 
L 556.644509 83.230899 
L 557.062045 83.462502 
L 557.867294 86.433147 
L 558.54579 85.273217 
L 560.066815 90.08616 
L 560.961535 87.069577 
L 562.601856 87.437079 
L 563.019393 91.776288 
L 564.018497 91.282457 
L 564.219809 88.407516 
L 564.92813 90.221102 
L 565.733378 87.577764 
L 566.240386 88.394117 
L 567.560099 93.335302 
L 567.828515 92.645278 
L 569.38682 100.073804 
L 570.855653 95.121135 
L 570.870565 95.168987 
L 571.802566 91.172397 
L 572.063526 91.532243 
L 572.063526 91.532243 
" clip-path="url(#pe17fad992a)" style="fill: none; stroke: #4169e1; stroke-width: 1.5; stroke-linecap: square"/>
   </g>
   <g id="patch_3">
    <path d="M 53.328125 108.747437 
L 53.328125 7.2 
" style="fill: none; stroke: #000000; stroke-width: 0.8; stroke-linejoin: miter; stroke-linecap: square"/>
   </g>
   <g id="patch_4">
    <path d="M 577.19952 108.747437 
L 577.19952 7.2 
" style="fill: none; stroke: #000000; stroke-width: 0.8; stroke-linejoin: miter; stroke-linecap: square"/>
   </g>
   <g id="patch_5">
    <path d="M 53.328125 108.747437 
L 577.19952 108.747437 
" style="fill: none; stroke: #000000; stroke-width: 0.8; stroke-linejoin: miter; stroke-linecap: square"/>
   </g>
   <g id="patch_6">
    <path d="M 53.328125 7.2 
L 577.19952 7.2 
" style="fill: none; stroke: #000000; stroke-width: 0.8; stroke-linejoin: miter; stroke-linecap: square"/>
   </g>
  </g>
  <g id="axes_2">
   <g id="patch_7">
    <path d="M 53.328125 219.795353 
L 577.19952 219.795353 
L 577.19952 118.247917 
L 53.328125 118.247917 
z
" style="fill: #ffffff"/>
   </g>
   <g id="matplotlib.axis_3">
    <g id="xtick_20">
     <g id="line2d_25">
      <g>
       <use xlink:href="#m7e1d5f444a" x="58.462822" y="219.795353" style="stroke: #000000; stroke-width: 0.8"/>
      </g>
     </g>
    </g>
    <g id="xtick_21">
     <g id="line2d_26">
      <g>
       <use xlink:href="#m7e1d5f444a" x="86.471465" y="219.795353" style="stroke: #000000; stroke-width: 0.8"/>
      </g>
     </g>
    </g>
    <g id="xtick_22">
     <g id="line2d_27">
      <g>
       <use xlink:href="#m7e1d5f444a" x="114.480108" y="219.795353" style="stroke: #000000; stroke-width: 0.8"/>
      </g>
     </g>
    </g>
    <g id="xtick_23">
     <g id="line2d_28">
      <g>
       <use xlink:href="#m7e1d5f444a" x="142.48875" y="219.795353" style="stroke: #000000; stroke-width: 0.8"/>
      </g>
     </g>
    </g>
    <g id="xtick_24">
     <g id="line2d_29">
      <g>
       <use xlink:href="#m7e1d5f444a" x="170.497393" y="219.795353" style="stroke: #000000; stroke-width: 0.8"/>
      </g>
     </g>
    </g>
    <g id="xtick_25">
     <g id="line2d_30">
      <g>
       <use xlink:href="#m7e1d5f444a" x="198.506035" y="219.795353" style="stroke: #000000; stroke-width: 0.8"/>
      </g>
     </g>
    </g>
    <g id="xtick_26">
     <g id="line2d_31">
      <g>
       <use xlink:href="#m7e1d5f444a" x="226.514678" y="219.795353" style="stroke: #000000; stroke-width: 0.8"/>
      </g>
     </g>
    </g>
    <g id="xtick_27">
     <g id="line2d_32">
      <g>
       <use xlink:href="#m7e1d5f444a" x="254.523321" y="219.795353" style="stroke: #000000; stroke-width: 0.8"/>
      </g>
     </g>
    </g>
    <g id="xtick_28">
     <g id="line2d_33">
      <g>
       <use xlink:href="#m7e1d5f444a" x="282.531963" y="219.795353" style="stroke: #000000; stroke-width: 0.8"/>
      </g>
     </g>
    </g>
    <g id="xtick_29">
     <g id="line2d_34">
      <g>
       <use xlink:href="#m7e1d5f444a" x="310.540606" y="219.795353" style="stroke: #000000; stroke-width: 0.8"/>
      </g>
     </g>
    </g>
    <g id="xtick_30">
     <g id="line2d_35">
      <g>
       <use xlink:href="#m7e1d5f444a" x="338.549248" y="219.795353" style="stroke: #000000; stroke-width: 0.8"/>
      </g>
     </g>
    </g>
    <g id="xtick_31">
     <g id="line2d_36">
      <g>
       <use xlink:href="#m7e1d5f444a" x="366.557891" y="219.795353" style="stroke: #000000; stroke-width: 0.8"/>
      </g>
     </g>
    </g>
    <g id="xtick_32">
     <g id="line2d_37">
      <g>
       <use xlink:href="#m7e1d5f444a" x="394.566534" y="219.795353" style="stroke: #000000; stroke-width: 0.8"/>
      </g>
     </g>
    </g>
    <g id="xtick_33">
     <g id="line2d_38">
      <g>
       <use xlink:href="#m7e1d5f444a" x="422.575176" y="219.795353" style="stroke: #000000; stroke-width: 0.8"/>
      </g>
     </g>
    </g>
    <g id="xtick_34">
     <g id="line2d_39">
      <g>
       <use xlink:href="#m7e1d5f444a" x="450.583819" y="219.795353" style="stroke: #000000; stroke-width: 0.8"/>
      </g>
     </g>
    </g>
    <g id="xtick_35">
     <g id="line2d_40">
      <g>
       <use xlink:href="#m7e1d5f444a" x="478.592461" y="219.795353" style="stroke: #000000; stroke-width: 0.8"/>
      </g>
     </g>
    </g>
    <g id="xtick_36">
     <g id="line2d_41">
      <g>
       <use xlink:href="#m7e1d5f444a" x="506.601104" y="219.795353" style="stroke: #000000; stroke-width: 0.8"/>
      </g>
     </g>
    </g>
    <g id="xtick_37">
     <g id="line2d_42">
      <g>
       <use xlink:href="#m7e1d5f444a" x="534.609747" y="219.795353" style="stroke: #000000; stroke-width: 0.8"/>
      </g>
     </g>
    </g>
    <g id="xtick_38">
     <g id="line2d_43">
      <g>
       <use xlink:href="#m7e1d5f444a" x="562.618389" y="219.795353" style="stroke: #000000; stroke-width: 0.8"/>
      </g>
     </g>
    </g>
   </g>
   <g id="matplotlib.axis_4">
    <g id="ytick_5">
     <g id="line2d_44">
      <g>
       <use xlink:href="#m611ce29ddf" x="53.328125" y="211.113555" style="stroke: #000000; stroke-width: 0.8"/>
      </g>
     </g>
     <g id="text_6">
      <!-- 900 -->
      <g transform="translate(27.240625 214.912774) scale(0.1 -0.1)">
       <defs>
        <path id="DejaVuSans-39" d="M 703 97 
L 703 672 
Q 941 559 1184 500 
Q 1428 441 1663 441 
Q 2288 441 2617 861 
Q 2947 1281 2994 2138 
Q 2813 1869 2534 1725 
Q 2256 1581 1919 1581 
Q 1219 1581 811 2004 
Q 403 2428 403 3163 
Q 403 3881 828 4315 
Q 1253 4750 1959 4750 
Q 2769 4750 3195 4129 
Q 3622 3509 3622 2328 
Q 3622 1225 3098 567 
Q 2575 -91 1691 -91 
Q 1453 -91 1209 -44 
Q 966 3 703 97 
z
M 1959 2075 
Q 2384 2075 2632 2365 
Q 2881 2656 2881 3163 
Q 2881 3666 2632 3958 
Q 2384 4250 1959 4250 
Q 1534 4250 1286 3958 
Q 1038 3666 1038 3163 
Q 1038 2656 1286 2365 
Q 1534 2075 1959 2075 
z
" transform="scale(0.015625)"/>
       </defs>
       <use xlink:href="#DejaVuSans-39"/>
       <use xlink:href="#DejaVuSans-30" transform="translate(63.623047 0)"/>
       <use xlink:href="#DejaVuSans-30" transform="translate(127.246094 0)"/>
      </g>
     </g>
    </g>
    <g id="ytick_6">
     <g id="line2d_45">
      <g>
       <use xlink:href="#m611ce29ddf" x="53.328125" y="184.970557" style="stroke: #000000; stroke-width: 0.8"/>
      </g>
     </g>
     <g id="text_7">
      <!-- 1000 -->
      <g transform="translate(20.878125 188.769776) scale(0.1 -0.1)">
       <defs>
        <path id="DejaVuSans-31" d="M 794 531 
L 1825 531 
L 1825 4091 
L 703 3866 
L 703 4441 
L 1819 4666 
L 2450 4666 
L 2450 531 
L 3481 531 
L 3481 0 
L 794 0 
L 794 531 
z
" transform="scale(0.015625)"/>
       </defs>
       <use xlink:href="#DejaVuSans-31"/>
       <use xlink:href="#DejaVuSans-30" transform="translate(63.623047 0)"/>
       <use xlink:href="#DejaVuSans-30" transform="translate(127.246094 0)"/>
       <use xlink:href="#DejaVuSans-30" transform="translate(190.869141 0)"/>
      </g>
     </g>
    </g>
    <g id="ytick_7">
     <g id="line2d_46">
      <g>
       <use xlink:href="#m611ce29ddf" x="53.328125" y="158.827559" style="stroke: #000000; stroke-width: 0.8"/>
      </g>
     </g>
     <g id="text_8">
      <!-- 1100 -->
      <g transform="translate(20.878125 162.626778) scale(0.1 -0.1)">
       <use xlink:href="#DejaVuSans-31"/>
       <use xlink:href="#DejaVuSans-31" transform="translate(63.623047 0)"/>
       <use xlink:href="#DejaVuSans-30" transform="translate(127.246094 0)"/>
       <use xlink:href="#DejaVuSans-30" transform="translate(190.869141 0)"/>
      </g>
     </g>
    </g>
    <g id="ytick_8">
     <g id="line2d_47">
      <g>
       <use xlink:href="#m611ce29ddf" x="53.328125" y="132.684561" style="stroke: #000000; stroke-width: 0.8"/>
      </g>
     </g>
     <g id="text_9">
      <!-- 1200 -->
      <g transform="translate(20.878125 136.48378) scale(0.1 -0.1)">
       <use xlink:href="#DejaVuSans-31"/>
       <use xlink:href="#DejaVuSans-32" transform="translate(63.623047 0)"/>
       <use xlink:href="#DejaVuSans-30" transform="translate(127.246094 0)"/>
       <use xlink:href="#DejaVuSans-30" transform="translate(190.869141 0)"/>
      </g>
     </g>
    </g>
    <g id="text_10">
     <!-- Equity -->
     <g transform="translate(14.798438 184.832572) rotate(-90) scale(0.1 -0.1)">
      <defs>
       <path id="DejaVuSans-45" d="M 628 4666 
L 3578 4666 
L 3578 4134 
L 1259 4134 
L 1259 2753 
L 3481 2753 
L 3481 2222 
L 1259 2222 
L 1259 531 
L 3634 531 
L 3634 0 
L 628 0 
L 628 4666 
z
" transform="scale(0.015625)"/>
       <path id="DejaVuSans-71" d="M 947 1747 
Q 947 1113 1208 752 
Q 1469 391 1925 391 
Q 2381 391 2643 752 
Q 2906 1113 2906 1747 
Q 2906 2381 2643 2742 
Q 2381 3103 1925 3103 
Q 1469 3103 1208 2742 
Q 947 2381 947 1747 
z
M 2906 525 
Q 2725 213 2448 61 
Q 2172 -91 1784 -91 
Q 1150 -91 751 415 
Q 353 922 353 1747 
Q 353 2572 751 3078 
Q 1150 3584 1784 3584 
Q 2172 3584 2448 3432 
Q 2725 3281 2906 2969 
L 2906 3500 
L 3481 3500 
L 3481 -1331 
L 2906 -1331 
L 2906 525 
z
" transform="scale(0.015625)"/>
       <path id="DejaVuSans-75" d="M 544 1381 
L 544 3500 
L 1119 3500 
L 1119 1403 
Q 1119 906 1312 657 
Q 1506 409 1894 409 
Q 2359 409 2629 706 
Q 2900 1003 2900 1516 
L 2900 3500 
L 3475 3500 
L 3475 0 
L 2900 0 
L 2900 538 
Q 2691 219 2414 64 
Q 2138 -91 1772 -91 
Q 1169 -91 856 284 
Q 544 659 544 1381 
z
M 1991 3584 
L 1991 3584 
z
" transform="scale(0.015625)"/>
       <path id="DejaVuSans-74" d="M 1172 4494 
L 1172 3500 
L 2356 3500 
L 2356 3053 
L 1172 3053 
L 1172 1153 
Q 1172 725 1289 603 
Q 1406 481 1766 481 
L 2356 481 
L 2356 0 
L 1766 0 
Q 1100 0 847 248 
Q 594 497 594 1153 
L 594 3053 
L 172 3053 
L 172 3500 
L 594 3500 
L 594 4494 
L 1172 4494 
z
" transform="scale(0.015625)"/>
       <path id="DejaVuSans-79" d="M 2059 -325 
Q 1816 -950 1584 -1140 
Q 1353 -1331 966 -1331 
L 506 -1331 
L 506 -850 
L 844 -850 
Q 1081 -850 1212 -737 
Q 1344 -625 1503 -206 
L 1606 56 
L 191 3500 
L 800 3500 
L 1894 763 
L 2988 3500 
L 3597 3500 
L 2059 -325 
z
" transform="scale(0.015625)"/>
      </defs>
      <use xlink:href="#DejaVuSans-45"/>
      <use xlink:href="#DejaVuSans-71" transform="translate(63.183594 0)"/>
      <use xlink:href="#DejaVuSans-75" transform="translate(126.660156 0)"/>
      <use xlink:href="#DejaVuSans-69" transform="translate(190.039062 0)"/>
      <use xlink:href="#DejaVuSans-74" transform="translate(217.822266 0)"/>
      <use xlink:href="#DejaVuSans-79" transform="translate(257.03125 0)"/>
     </g>
    </g>
   </g>
   <g id="line2d_48">
    <path d="M 58.464119 184.970557 
L 59.142615 185.13529 
L 59.679448 183.968964 
L 60.275928 183.366374 
L 61.021529 184.986687 
L 61.550905 184.821725 
L 62.788602 183.277758 
L 63.33289 182.936926 
L 63.474554 183.549741 
L 103.222513 183.54906 
L 104.631698 184.264438 
L 104.765906 184.043032 
L 105.466771 182.362388 
L 106.309299 183.910869 
L 107.338228 182.979601 
L 108.389525 184.041669 
L 109.515381 182.493869 
L 110.87983 183.571607 
L 111.28991 182.951669 
L 111.975863 184.135 
L 112.952599 182.637613 
L 113.62364 185.101694 
L 114.689848 187.270794 
L 115.584569 184.245363 
L 116.978842 181.248545 
L 117.74681 178.661839 
L 118.581883 184.665228 
L 118.738459 182.942752 
L 119.305115 185.817282 
L 120.199835 184.202024 
L 120.609916 182.780175 
L 121.743228 183.391241 
L 123.279165 183.391241 
L 124.076958 183.617738 
L 124.770366 181.618598 
L 125.150622 185.242128 
L 126.082623 182.262545 
L 127.312864 180.192564 
L 127.640928 183.891894 
L 128.043552 182.278839 
L 128.818977 184.460041 
L 129.892641 182.207289 
L 130.981218 185.752185 
L 131.003586 185.328554 
L 132.539523 178.952842 
L 132.546979 179.246833 
L 133.553539 173.061378 
L 134.120196 174.354698 
L 135.290788 168.783007 
L 135.708325 169.748847 
L 136.781989 173.173807 
L 137.60215 171.168934 
L 138.660902 176.087174 
L 139.093351 173.853668 
L 139.346855 177.436332 
L 140.800776 177.689865 
L 141.121384 174.833845 
L 143.074857 177.114134 
L 143.283625 172.4615 
L 143.775721 174.433173 
L 144.43185 171.022549 
L 145.237098 171.241372 
L 145.781387 173.296801 
L 146.743211 171.094232 
L 147.973452 172.78068 
L 148.085292 172.666741 
L 149.673421 183.811633 
L 149.844909 177.892088 
L 152.19355 185.318495 
L 152.469423 181.566054 
L 152.648367 181.925981 
L 153.297039 184.292289 
L 155.168496 184.357936 
L 155.690416 181.185 
L 156.488209 179.982982 
L 157.226353 182.638288 
L 158.225458 182.651115 
L 158.411858 180.794891 
L 159.589907 184.304362 
L 160.104371 176.567831 
L 160.387699 176.103775 
L 161.647764 185.461862 
L 161.901268 184.050829 
L 162.684149 192.714719 
L 163.489397 191.732278 
L 164.197717 200.808159 
L 165.166998 196.51847 
L 166.203383 209.852348 
L 166.702935 203.190313 
L 167.709495 215.179561 
L 168.045016 210.770651 
L 169.446745 197.397535 
L 170.557689 197.396026 
L 171.124346 200.958317 
L 171.258554 200.756848 
L 172.205466 207.21666 
L 174.129115 194.905214 
L 174.375163 196.973471 
L 174.897084 193.923528 
L 175.76198 196.187216 
L 176.619421 193.550774 
L 177.834749 196.305683 
L 177.886941 194.376266 
L 179.773311 194.281946 
L 180.325055 198.37243 
L 180.794783 198.68331 
L 181.175039 195.919347 
L 182.039936 196.556198 
L 183.247809 199.277151 
L 183.546049 198.454678 
L 184.388577 195.634122 
L 185.022338 195.634122 
L 186.543363 198.000761 
L 186.737219 199.172602 
L 187.527555 195.24863 
L 188.11658 196.547075 
L 189.361732 201.300002 
L 189.652516 201.03752 
L 190.920037 195.88394 
L 191.270469 197.399613 
L 192.523078 193.520974 
L 192.851142 195.753028 
L 194.141031 193.302787 
L 194.290151 193.487519 
L 194.916456 195.44379 
L 196.124328 194.949104 
L 196.47476 192.303992 
L 197.913769 193.824422 
L 198.65937 191.632529 
L 199.59137 192.034825 
L 200.128203 189.701801 
L 201.350987 190.801021 
L 201.820716 193.411942 
L 202.014572 193.042383 
L 202.387372 194.997118 
L 204.072429 195.353582 
L 205.429422 189.859664 
L 206.846063 190.857765 
L 207.479823 189.032521 
L 208.836816 189.405717 
L 209.314 190.868677 
L 210.380209 189.146735 
L 210.864849 192.213057 
L 211.498609 189.994247 
L 211.960882 191.794757 
L 213.429714 187.283662 
L 214.197683 191.150211 
L 214.697235 191.393189 
L 215.54722 185.91964 
L 216.464308 184.784388 
L 217.038421 191.102639 
L 218.179189 193.923287 
L 218.92479 189.045317 
L 219.886614 189.961152 
L 220.490551 185.790484 
L 220.535287 186.265909 
L 221.720791 188.869464 
L 222.101048 187.296904 
L 222.772088 190.543956 
L 224.106713 187.182522 
L 225.098361 189.961152 
L 225.985626 190.403119 
L 226.679034 187.649388 
L 227.484283 187.460307 
L 227.924187 190.158792 
L 228.408827 191.14777 
L 229.721084 187.465754 
L 229.780732 187.650944 
L 230.489053 184.747039 
L 231.972797 188.202624 
L 232.561822 184.955572 
L 232.874974 185.62319 
L 233.971007 184.44202 
L 234.634591 186.071382 
L 235.089407 184.947791 
L 236.028864 186.203294 
L 238.690657 179.684192 
L 239.070914 180.623537 
L 240.375714 174.883858 
L 240.629218 174.324062 
L 241.121315 181.266197 
L 242.75418 176.293745 
L 243.604164 180.564996 
L 243.671268 179.698269 
L 244.580901 170.799761 
L 245.483077 174.153545 
L 246.698406 168.739412 
L 246.758054 168.811778 
L 248.293991 168.811778 
L 248.547495 169.544114 
L 249.501864 166.429076 
L 250.016328 167.593561 
L 250.530792 163.671341 
L 252.342601 164.421679 
L 252.864522 166.429076 
L 253.155306 165.780245 
L 254.407915 167.67233 
L 255.295179 169.587153 
L 255.496491 166.749837 
L 256.331564 167.979287 
L 257.338124 165.836277 
L 258.038989 167.172917 
L 259.000813 165.152527 
L 259.850798 166.452626 
L 260.037198 163.548721 
L 260.693326 166.282094 
L 261.834095 168.695518 
L 262.482767 165.997875 
L 263.198544 168.282995 
L 264.02616 166.071772 
L 264.809041 168.226527 
L 265.793233 168.002538 
L 266.50901 165.708472 
L 267.806355 167.263456 
L 268.320819 164.193111 
L 268.380467 164.307127 
L 269.8493 162.345406 
L 270.542708 163.68853 
L 271.243573 160.872902 
L 271.638741 163.49446 
L 272.89135 160.890692 
L 273.033014 161.660501 
L 274.248342 159.494198 
L 274.539126 160.057809 
L 275.530775 162.81279 
L 276.649176 163.449986 
L 277.193464 160.131394 
L 278.155289 161.41468 
L 278.774137 163.111981 
L 279.325881 162.481255 
L 279.914906 163.699042 
L 280.981114 162.838666 
L 282.256091 162.838666 
L 283.09862 165.349227 
L 284.351228 164.730943 
L 284.679292 162.99025 
L 285.365245 163.233564 
L 286.595486 166.422474 
L 286.96083 166.108332 
L 287.59459 164.149323 
L 288.437119 165.452552 
L 289.920864 162.428628 
L 290.606816 162.930255 
L 291.38224 161.5362 
L 291.844513 161.062072 
L 292.336609 162.255309 
L 293.52957 160.226306 
L 294.640514 164.557624 
L 295.803651 161.065405 
L 296.146627 161.810345 
L 297.01898 158.089811 
L 297.69002 159.727179 
L 299.211045 156.86241 
L 299.233413 156.975734 
L 299.479461 149.743817 
L 300.88119 151.720324 
L 301.544774 154.545097 
L 302.446951 152.248615 
L 303.237287 154.42094 
L 303.930696 153.285198 
L 305.310057 156.188571 
L 305.414441 155.153852 
L 305.936361 158.507368 
L 307.986762 158.492456 
L 308.41921 156.35343 
L 308.948587 156.044423 
L 309.425771 160.412774 
L 310.6411 155.338594 
L 311.5731 162.815244 
L 311.901165 160.60083 
L 312.266509 163.394321 
L 313.705518 160.042463 
L 314.137966 162.608963 
L 315.032686 162.011659 
L 315.741007 159.257104 
L 316.486607 160.947117 
L 317.098 158.386416 
L 318.082192 158.625006 
L 318.924721 160.650536 
L 319.364625 160.35147 
L 320.669426 158.093149 
L 321.154066 157.784142 
L 322.00405 161.270207 
L 322.421587 160.872557 
L 322.943507 159.242192 
L 324.330324 160.518814 
L 324.740404 157.866986 
L 325.597845 157.932432 
L 326.477653 160.728409 
L 327.327638 159.718544 
L 328.431126 152.220355 
L 328.915767 155.445462 
L 329.325847 151.441623 
L 330.138551 151.300789 
L 331.585016 155.321197 
L 332.502105 155.193617 
L 332.777977 153.123352 
L 333.404281 153.784445 
L 334.17225 157.018665 
L 334.828378 157.45111 
L 335.834939 153.240161 
L 336.498523 153.123352 
L 337.162107 156.05105 
L 338.996284 155.451629 
L 339.287069 157.404189 
L 340.159421 160.008428 
L 340.875198 154.457064 
L 341.307646 155.909816 
L 341.620798 151.234626 
L 342.604991 151.276064 
L 343.984351 155.51981 
L 344.103648 155.394684 
L 345.080384 158.252286 
L 345.743968 159.334551 
L 346.892193 156.76539 
L 347.704898 158.548852 
L 348.584706 156.445085 
L 348.629442 156.723603 
L 349.852227 159.667128 
L 350.94826 156.725227 
L 351.686404 158.7658 
L 352.774981 160.160828 
L 353.147781 158.116195 
L 353.721893 156.037458 
L 354.668806 158.557115 
L 355.429318 156.371192 
L 355.899046 151.76955 
L 356.555175 154.016373 
L 357.718312 149.425882 
L 358.158216 148.8622 
L 359.202056 153.349551 
L 359.612137 150.265879 
L 360.894569 152.83518 
L 361.08097 151.547979 
L 362.080074 153.667525 
L 363.295403 153.30279 
L 363.720395 154.834848 
L 364.287051 153.458261 
L 364.94318 156.06284 
L 365.815532 155.988497 
L 366.441837 153.860741 
L 367.314189 155.533037 
L 367.336557 154.611864 
L 368.686094 155.00238 
L 370.222031 155.00238 
L 371.139119 155.219154 
L 371.355344 154.240612 
L 371.81016 154.18813 
L 372.906192 156.201928 
L 373.950033 156.069029 
L 374.74037 154.646081 
L 375.888594 153.527868 
L 376.380691 155.980995 
L 376.440339 155.865872 
L 377.543827 159.28315 
L 378.095572 158.186099 
L 378.945556 163.728912 
L 379.489844 163.24218 
L 379.631508 165.542092 
L 381.406038 163.32175 
L 382.710838 167.180895 
L 383.866519 158.686375 
L 384.843256 155.678798 
L 385.521752 162.834071 
L 385.827448 162.003714 
L 387.184441 156.675309 
L 387.698905 156.187012 
L 388.593626 159.05292 
L 388.765114 158.611688 
L 389.398874 162.990393 
L 390.554555 157.424983 
L 391.180859 159.746285 
L 392.194876 158.746999 
L 392.530396 161.180921 
L 394.140893 160.22954 
L 395.057982 157.82 
L 396.004894 161.624789 
L 396.586462 162.146719 
L 396.765407 159.395873 
L 398.38336 162.156429 
L 399.53904 154.965408 
L 399.568864 156.547282 
L 401.089889 153.202269 
L 401.097345 153.214018 
L 401.514881 149.494727 
L 402.871874 150.007312 
L 403.341602 152.222611 
L 404.415267 149.493945 
L 405.280164 154.078521 
L 405.727524 152.494804 
L 406.66698 155.51901 
L 407.591525 155.651569 
L 408.762118 152.965152 
L 409.52263 155.215299 
L 410.305511 150.982639 
L 410.357703 151.52546 
L 411.647591 145.566177 
L 411.953288 152.017942 
L 412.169512 146.495768 
L 413.451944 148.609515 
L 414.801481 157.676104 
L 415.040073 155.221832 
L 416.344874 165.496246 
L 417.314155 162.400316 
L 418.037387 168.646598 
L 418.335627 169.459422 
L 418.715884 165.285578 
L 419.632972 169.02141 
L 421.101805 162.623272 
L 421.467149 164.018064 
L 422.123278 159.443075 
L 423.226766 162.253727 
L 423.949999 166.666326 
L 424.583759 166.613659 
L 425.731984 161.253057 
L 425.791632 161.484791 
L 426.96968 164.873022 
L 427.335025 163.403618 
L 428.028433 172.988975 
L 429.400338 165.276801 
L 430.541106 171.182504 
L 431.748979 162.066759 
L 432.300724 164.049664 
L 433.471316 167.296572 
L 433.5757 165.605968 
L 434.052885 169.89919 
L 435.193653 166.279225 
L 436.28223 172.64313 
L 437.437911 176.921429 
L 437.818167 170.324913 
L 438.474295 176.614206 
L 439.637432 166.722504 
L 440.345752 169.05301 
L 441.031705 163.12624 
L 441.359769 167.258828 
L 441.993529 161.12139 
L 442.768954 162.566216 
L 443.439994 168.930121 
L 444.513659 169.609522 
L 445.199611 164.077753 
L 445.982492 164.587743 
L 446.765372 172.313084 
L 448.748669 170.57508 
L 448.905245 166.925271 
L 449.173661 167.616962 
L 449.561374 175.246625 
L 450.50083 174.273167 
L 451.082399 170.264346 
L 452.267903 170.593514 
L 452.842016 167.810073 
L 454.131904 166.391581 
L 454.914785 168.483331 
L 455.608193 166.476726 
L 456.159938 169.153955 
L 456.681858 169.030188 
L 457.524386 167.146472 
L 458.337091 166.760249 
L 458.493667 168.50352 
L 459.902852 167.693329 
L 460.96906 171.414238 
L 461.289669 170.33808 
L 462.072549 168.477049 
L 463.504102 170.777961 
L 464.525575 168.653637 
L 465.077319 170.324631 
L 465.919847 170.118173 
L 466.881672 172.999803 
L 468.193929 171.141679 
L 468.633833 172.155521 
L 469.193033 172.522753 
L 469.424169 170.33166 
L 470.550026 170.47662 
L 478.259535 170.47662 
L 478.669615 170.306787 
L 479.788016 173.348595 
L 481.062992 171.456427 
L 481.286672 173.586524 
L 481.428336 173.490613 
L 482.106833 176.572845 
L 483.299794 175.406593 
L 484.000658 176.932935 
L 484.440562 176.480529 
L 485.842291 174.692045 
L 486.75938 175.99599 
L 487.497524 174.956724 
L 487.959796 173.934371 
L 488.325141 175.431962 
L 489.227317 175.144451 
L 490.465014 173.559708 
L 490.800534 174.301904 
L 492.008407 168.202485 
L 492.985143 168.911973 
L 493.320663 167.009941 
L 494.155736 168.286349 
L 494.714936 165.745274 
L 495.393433 166.661067 
L 496.459641 168.939648 
L 496.921914 168.462463 
L 497.294714 161.791093 
L 499.538971 168.369911 
L 499.844667 159.436244 
L 499.904315 160.453853 
L 500.515708 153.950541 
L 502.953821 153.950541 
L 503.997662 153.836292 
L 504.482302 156.920946 
L 505.511231 160.085524 
L 505.928767 151.585122 
L 507.047168 154.461405 
L 507.382688 147.973355 
L 508.322144 147.281638 
L 508.985729 150.36439 
L 509.142305 149.20931 
L 510.581314 144.209353 
L 511.699714 145.324472 
L 511.841378 142.944854 
L 512.639171 144.162731 
L 513.071619 142.909649 
L 513.876868 144.770718 
L 515.129476 141.978164 
L 515.435173 142.938193 
L 517.19479 140.413369 
L 517.478118 143.510937 
L 518.53687 142.853299 
L 518.887303 141.363607 
L 520.124999 144.107576 
L 521.370152 140.84131 
L 521.906984 141.080537 
L 522.801705 132.33777 
L 523.092489 133.213667 
L 523.681513 142.888564 
L 525.784107 138.674906 
L 526.089803 134.590504 
L 526.380587 132.232231 
L 527.573548 140.536279 
L 527.827052 138.301228 
L 529.169133 145.06749 
L 529.482285 143.63289 
L 530.026573 150.18877 
L 530.801998 148.249255 
L 531.286638 143.515678 
L 532.337935 146.129414 
L 533.105903 143.072875 
L 533.829135 145.405101 
L 534.82824 142.511859 
L 535.521648 146.829683 
L 536.177777 141.459952 
L 537.579506 141.914777 
L 538.175986 150.904066 
L 538.720274 150.502338 
L 539.272019 143.639903 
L 540.211475 150.118643 
L 540.889972 143.976513 
L 541.911444 144.854103 
L 542.485556 148.769197 
L 543.171509 147.301538 
L 545.124982 139.550492 
L 545.654358 143.216135 
L 546.198647 140.938007 
L 546.936791 139.15177 
L 547.92844 139.048583 
L 548.905176 142.252388 
L 549.263064 141.317695 
L 549.494201 139.676721 
L 551.11961 141.092792 
L 552.327482 134.190728 
L 552.372218 136.281826 
L 553.952891 126.395624 
L 555.123484 131.025768 
L 555.451548 130.296715 
L 556.644509 126.061938 
L 557.062045 126.306641 
L 557.867294 129.44531 
L 558.54579 128.219773 
L 560.066815 133.304944 
L 560.961535 130.117738 
L 561.610208 130.87207 
L 561.707136 132.22906 
L 564.018497 129.1709 
L 564.219809 132.221214 
L 564.92813 130.296998 
L 565.733378 133.101581 
L 566.240386 132.23543 
L 567.560099 126.992829 
L 567.813603 127.348225 
L 569.38682 132.617986 
L 570.855653 127.190787 
L 570.870565 127.243223 
L 571.802566 122.863709 
L 572.063526 123.181476 
L 572.063526 123.181476 
" clip-path="url(#p32ae8d3fd4)" style="fill: none; stroke: #2e8b57; stroke-width: 1.5; stroke-linecap: square"/>
   </g>
   <g id="patch_8">
    <path d="M 53.328125 219.795353 
L 53.328125 118.247917 
" style="fill: none; stroke: #000000; stroke-width: 0.8; stroke-linejoin: miter; stroke-linecap: square"/>
   </g>
   <g id="patch_9">
    <path d="M 577.19952 219.795353 
L 577.19952 118.247917 
" style="fill: none; stroke: #000000; stroke-width: 0.8; stroke-linejoin: miter; stroke-linecap: square"/>
   </g>
   <g id="patch_10">
    <path d="M 53.328125 219.795353 
L 577.19952 219.795353 
" style="fill: none; stroke: #000000; stroke-width: 0.8; stroke-linejoin: miter; stroke-linecap: square"/>
   </g>
   <g id="patch_11">
    <path d="M 53.328125 118.247917 
L 577.19952 118.247917 
" style="fill: none; stroke: #000000; stroke-width: 0.8; stroke-linejoin: miter; stroke-linecap: square"/>
   </g>
  </g>
  <g id="axes_3">
   <g id="patch_12">
    <path d="M 53.328125 330.84327 
L 577.19952 330.84327 
L 577.19952 229.295833 
L 53.328125 229.295833 
z
" style="fill: #ffffff"/>
   </g>
   <g id="matplotlib.axis_5">
    <g id="xtick_39">
     <g id="line2d_49">
      <g>
       <use xlink:href="#m7e1d5f444a" x="58.462822" y="330.84327" style="stroke: #000000; stroke-width: 0.8"/>
      </g>
     </g>
     <g id="text_11">
      <!-- Nov -->
      <g transform="translate(48.703447 345.441707) scale(0.1 -0.1)">
       <defs>
        <path id="DejaVuSans-4e" d="M 628 4666 
L 1478 4666 
L 3547 763 
L 3547 4666 
L 4159 4666 
L 4159 0 
L 3309 0 
L 1241 3903 
L 1241 0 
L 628 0 
L 628 4666 
z
" transform="scale(0.015625)"/>
        <path id="DejaVuSans-6f" d="M 1959 3097 
Q 1497 3097 1228 2736 
Q 959 2375 959 1747 
Q 959 1119 1226 758 
Q 1494 397 1959 397 
Q 2419 397 2687 759 
Q 2956 1122 2956 1747 
Q 2956 2369 2687 2733 
Q 2419 3097 1959 3097 
z
M 1959 3584 
Q 2709 3584 3137 3096 
Q 3566 2609 3566 1747 
Q 3566 888 3137 398 
Q 2709 -91 1959 -91 
Q 1206 -91 779 398 
Q 353 888 353 1747 
Q 353 2609 779 3096 
Q 1206 3584 1959 3584 
z
" transform="scale(0.015625)"/>
        <path id="DejaVuSans-76" d="M 191 3500 
L 800 3500 
L 1894 563 
L 2988 3500 
L 3597 3500 
L 2284 0 
L 1503 0 
L 191 3500 
z
" transform="scale(0.015625)"/>
       </defs>
       <use xlink:href="#DejaVuSans-4e"/>
       <use xlink:href="#DejaVuSans-6f" transform="translate(74.804688 0)"/>
       <use xlink:href="#DejaVuSans-76" transform="translate(135.986328 0)"/>
      </g>
     </g>
    </g>
    <g id="xtick_40">
     <g id="line2d_50">
      <g>
       <use xlink:href="#m7e1d5f444a" x="86.471465" y="330.84327" style="stroke: #000000; stroke-width: 0.8"/>
      </g>
     </g>
     <g id="text_12">
      <!-- 02 -->
      <g transform="translate(80.108965 345.441707) scale(0.1 -0.1)">
       <use xlink:href="#DejaVuSans-30"/>
       <use xlink:href="#DejaVuSans-32" transform="translate(63.623047 0)"/>
      </g>
     </g>
    </g>
    <g id="xtick_41">
     <g id="line2d_51">
      <g>
       <use xlink:href="#m7e1d5f444a" x="114.480108" y="330.84327" style="stroke: #000000; stroke-width: 0.8"/>
      </g>
     </g>
     <g id="text_13">
      <!-- 03 -->
      <g transform="translate(108.117608 345.441707) scale(0.1 -0.1)">
       <use xlink:href="#DejaVuSans-30"/>
       <use xlink:href="#DejaVuSans-33" transform="translate(63.623047 0)"/>
      </g>
     </g>
    </g>
    <g id="xtick_42">
     <g id="line2d_52">
      <g>
       <use xlink:href="#m7e1d5f444a" x="142.48875" y="330.84327" style="stroke: #000000; stroke-width: 0.8"/>
      </g>
     </g>
     <g id="text_14">
      <!-- 04 -->
      <g transform="translate(136.12625 345.441707) scale(0.1 -0.1)">
       <defs>
        <path id="DejaVuSans-34" d="M 2419 4116 
L 825 1625 
L 2419 1625 
L 2419 4116 
z
M 2253 4666 
L 3047 4666 
L 3047 1625 
L 3713 1625 
L 3713 1100 
L 3047 1100 
L 3047 0 
L 2419 0 
L 2419 1100 
L 313 1100 
L 313 1709 
L 2253 4666 
z
" transform="scale(0.015625)"/>
       </defs>
       <use xlink:href="#DejaVuSans-30"/>
       <use xlink:href="#DejaVuSans-34" transform="translate(63.623047 0)"/>
      </g>
     </g>
    </g>
    <g id="xtick_43">
     <g id="line2d_53">
      <g>
       <use xlink:href="#m7e1d5f444a" x="170.497393" y="330.84327" style="stroke: #000000; stroke-width: 0.8"/>
      </g>
     </g>
     <g id="text_15">
      <!-- 05 -->
      <g transform="translate(164.134893 345.441707) scale(0.1 -0.1)">
       <use xlink:href="#DejaVuSans-30"/>
       <use xlink:href="#DejaVuSans-35" transform="translate(63.623047 0)"/>
      </g>
     </g>
    </g>
    <g id="xtick_44">
     <g id="line2d_54">
      <g>
       <use xlink:href="#m7e1d5f444a" x="198.506035" y="330.84327" style="stroke: #000000; stroke-width: 0.8"/>
      </g>
     </g>
     <g id="text_16">
      <!-- 06 -->
      <g transform="translate(192.143535 345.441707) scale(0.1 -0.1)">
       <defs>
        <path id="DejaVuSans-36" d="M 2113 2584 
Q 1688 2584 1439 2293 
Q 1191 2003 1191 1497 
Q 1191 994 1439 701 
Q 1688 409 2113 409 
Q 2538 409 2786 701 
Q 3034 994 3034 1497 
Q 3034 2003 2786 2293 
Q 2538 2584 2113 2584 
z
M 3366 4563 
L 3366 3988 
Q 3128 4100 2886 4159 
Q 2644 4219 2406 4219 
Q 1781 4219 1451 3797 
Q 1122 3375 1075 2522 
Q 1259 2794 1537 2939 
Q 1816 3084 2150 3084 
Q 2853 3084 3261 2657 
Q 3669 2231 3669 1497 
Q 3669 778 3244 343 
Q 2819 -91 2113 -91 
Q 1303 -91 875 529 
Q 447 1150 447 2328 
Q 447 3434 972 4092 
Q 1497 4750 2381 4750 
Q 2619 4750 2861 4703 
Q 3103 4656 3366 4563 
z
" transform="scale(0.015625)"/>
       </defs>
       <use xlink:href="#DejaVuSans-30"/>
       <use xlink:href="#DejaVuSans-36" transform="translate(63.623047 0)"/>
      </g>
     </g>
    </g>
    <g id="xtick_45">
     <g id="line2d_55">
      <g>
       <use xlink:href="#m7e1d5f444a" x="226.514678" y="330.84327" style="stroke: #000000; stroke-width: 0.8"/>
      </g>
     </g>
     <g id="text_17">
      <!-- 07 -->
      <g transform="translate(220.152178 345.441707) scale(0.1 -0.1)">
       <use xlink:href="#DejaVuSans-30"/>
       <use xlink:href="#DejaVuSans-37" transform="translate(63.623047 0)"/>
      </g>
     </g>
    </g>
    <g id="xtick_46">
     <g id="line2d_56">
      <g>
       <use xlink:href="#m7e1d5f444a" x="254.523321" y="330.84327" style="stroke: #000000; stroke-width: 0.8"/>
      </g>
     </g>
     <g id="text_18">
      <!-- 08 -->
      <g transform="translate(248.160821 345.441707) scale(0.1 -0.1)">
       <defs>
        <path id="DejaVuSans-38" d="M 2034 2216 
Q 1584 2216 1326 1975 
Q 1069 1734 1069 1313 
Q 1069 891 1326 650 
Q 1584 409 2034 409 
Q 2484 409 2743 651 
Q 3003 894 3003 1313 
Q 3003 1734 2745 1975 
Q 2488 2216 2034 2216 
z
M 1403 2484 
Q 997 2584 770 2862 
Q 544 3141 544 3541 
Q 544 4100 942 4425 
Q 1341 4750 2034 4750 
Q 2731 4750 3128 4425 
Q 3525 4100 3525 3541 
Q 3525 3141 3298 2862 
Q 3072 2584 2669 2484 
Q 3125 2378 3379 2068 
Q 3634 1759 3634 1313 
Q 3634 634 3220 271 
Q 2806 -91 2034 -91 
Q 1263 -91 848 271 
Q 434 634 434 1313 
Q 434 1759 690 2068 
Q 947 2378 1403 2484 
z
M 1172 3481 
Q 1172 3119 1398 2916 
Q 1625 2713 2034 2713 
Q 2441 2713 2670 2916 
Q 2900 3119 2900 3481 
Q 2900 3844 2670 4047 
Q 2441 4250 2034 4250 
Q 1625 4250 1398 4047 
Q 1172 3844 1172 3481 
z
" transform="scale(0.015625)"/>
       </defs>
       <use xlink:href="#DejaVuSans-30"/>
       <use xlink:href="#DejaVuSans-38" transform="translate(63.623047 0)"/>
      </g>
     </g>
    </g>
    <g id="xtick_47">
     <g id="line2d_57">
      <g>
       <use xlink:href="#m7e1d5f444a" x="282.531963" y="330.84327" style="stroke: #000000; stroke-width: 0.8"/>
      </g>
     </g>
     <g id="text_19">
      <!-- 09 -->
      <g transform="translate(276.169463 345.441707) scale(0.1 -0.1)">
       <use xlink:href="#DejaVuSans-30"/>
       <use xlink:href="#DejaVuSans-39" transform="translate(63.623047 0)"/>
      </g>
     </g>
    </g>
    <g id="xtick_48">
     <g id="line2d_58">
      <g>
       <use xlink:href="#m7e1d5f444a" x="310.540606" y="330.84327" style="stroke: #000000; stroke-width: 0.8"/>
      </g>
     </g>
     <g id="text_20">
      <!-- 10 -->
      <g transform="translate(304.178106 345.441707) scale(0.1 -0.1)">
       <use xlink:href="#DejaVuSans-31"/>
       <use xlink:href="#DejaVuSans-30" transform="translate(63.623047 0)"/>
      </g>
     </g>
    </g>
    <g id="xtick_49">
     <g id="line2d_59">
      <g>
       <use xlink:href="#m7e1d5f444a" x="338.549248" y="330.84327" style="stroke: #000000; stroke-width: 0.8"/>
      </g>
     </g>
     <g id="text_21">
      <!-- 11 -->
      <g transform="translate(332.186748 345.441707) scale(0.1 -0.1)">
       <use xlink:href="#DejaVuSans-31"/>
       <use xlink:href="#DejaVuSans-31" transform="translate(63.623047 0)"/>
      </g>
     </g>
    </g>
    <g id="xtick_50">
     <g id="line2d_60">
      <g>
       <use xlink:href="#m7e1d5f444a" x="366.557891" y="330.84327" style="stroke: #000000; stroke-width: 0.8"/>
      </g>
     </g>
     <g id="text_22">
      <!-- 12 -->
      <g transform="translate(360.195391 345.441707) scale(0.1 -0.1)">
       <use xlink:href="#DejaVuSans-31"/>
       <use xlink:href="#DejaVuSans-32" transform="translate(63.623047 0)"/>
      </g>
     </g>
    </g>
    <g id="xtick_51">
     <g id="line2d_61">
      <g>
       <use xlink:href="#m7e1d5f444a" x="394.566534" y="330.84327" style="stroke: #000000; stroke-width: 0.8"/>
      </g>
     </g>
     <g id="text_23">
      <!-- 13 -->
      <g transform="translate(388.204034 345.441707) scale(0.1 -0.1)">
       <use xlink:href="#DejaVuSans-31"/>
       <use xlink:href="#DejaVuSans-33" transform="translate(63.623047 0)"/>
      </g>
     </g>
    </g>
    <g id="xtick_52">
     <g id="line2d_62">
      <g>
       <use xlink:href="#m7e1d5f444a" x="422.575176" y="330.84327" style="stroke: #000000; stroke-width: 0.8"/>
      </g>
     </g>
     <g id="text_24">
      <!-- 14 -->
      <g transform="translate(416.212676 345.441707) scale(0.1 -0.1)">
       <use xlink:href="#DejaVuSans-31"/>
       <use xlink:href="#DejaVuSans-34" transform="translate(63.623047 0)"/>
      </g>
     </g>
    </g>
    <g id="xtick_53">
     <g id="line2d_63">
      <g>
       <use xlink:href="#m7e1d5f444a" x="450.583819" y="330.84327" style="stroke: #000000; stroke-width: 0.8"/>
      </g>
     </g>
     <g id="text_25">
      <!-- 15 -->
      <g transform="translate(444.221319 345.441707) scale(0.1 -0.1)">
       <use xlink:href="#DejaVuSans-31"/>
       <use xlink:href="#DejaVuSans-35" transform="translate(63.623047 0)"/>
      </g>
     </g>
    </g>
    <g id="xtick_54">
     <g id="line2d_64">
      <g>
       <use xlink:href="#m7e1d5f444a" x="478.592461" y="330.84327" style="stroke: #000000; stroke-width: 0.8"/>
      </g>
     </g>
     <g id="text_26">
      <!-- 16 -->
      <g transform="translate(472.229961 345.441707) scale(0.1 -0.1)">
       <use xlink:href="#DejaVuSans-31"/>
       <use xlink:href="#DejaVuSans-36" transform="translate(63.623047 0)"/>
      </g>
     </g>
    </g>
    <g id="xtick_55">
     <g id="line2d_65">
      <g>
       <use xlink:href="#m7e1d5f444a" x="506.601104" y="330.84327" style="stroke: #000000; stroke-width: 0.8"/>
      </g>
     </g>
     <g id="text_27">
      <!-- 17 -->
      <g transform="translate(500.238604 345.441707) scale(0.1 -0.1)">
       <use xlink:href="#DejaVuSans-31"/>
       <use xlink:href="#DejaVuSans-37" transform="translate(63.623047 0)"/>
      </g>
     </g>
    </g>
    <g id="xtick_56">
     <g id="line2d_66">
      <g>
       <use xlink:href="#m7e1d5f444a" x="534.609747" y="330.84327" style="stroke: #000000; stroke-width: 0.8"/>
      </g>
     </g>
     <g id="text_28">
      <!-- 18 -->
      <g transform="translate(528.247247 345.441707) scale(0.1 -0.1)">
       <use xlink:href="#DejaVuSans-31"/>
       <use xlink:href="#DejaVuSans-38" transform="translate(63.623047 0)"/>
      </g>
     </g>
    </g>
    <g id="xtick_57">
     <g id="line2d_67">
      <g>
       <use xlink:href="#m7e1d5f444a" x="562.618389" y="330.84327" style="stroke: #000000; stroke-width: 0.8"/>
      </g>
     </g>
     <g id="text_29">
      <!-- 19 -->
      <g transform="translate(556.255889 345.441707) scale(0.1 -0.1)">
       <use xlink:href="#DejaVuSans-31"/>
       <use xlink:href="#DejaVuSans-39" transform="translate(63.623047 0)"/>
      </g>
     </g>
    </g>
    <g id="text_30">
     <!-- Time -->
     <g transform="translate(303.030229 359.119832) scale(0.1 -0.1)">
      <defs>
       <path id="DejaVuSans-54" d="M -19 4666 
L 3928 4666 
L 3928 4134 
L 2272 4134 
L 2272 0 
L 1638 0 
L 1638 4134 
L -19 4134 
L -19 4666 
z
" transform="scale(0.015625)"/>
       <path id="DejaVuSans-6d" d="M 3328 2828 
Q 3544 3216 3844 3400 
Q 4144 3584 4550 3584 
Q 5097 3584 5394 3201 
Q 5691 2819 5691 2113 
L 5691 0 
L 5113 0 
L 5113 2094 
Q 5113 2597 4934 2840 
Q 4756 3084 4391 3084 
Q 3944 3084 3684 2787 
Q 3425 2491 3425 1978 
L 3425 0 
L 2847 0 
L 2847 2094 
Q 2847 2600 2669 2842 
Q 2491 3084 2119 3084 
Q 1678 3084 1418 2786 
Q 1159 2488 1159 1978 
L 1159 0 
L 581 0 
L 581 3500 
L 1159 3500 
L 1159 2956 
Q 1356 3278 1631 3431 
Q 1906 3584 2284 3584 
Q 2666 3584 2933 3390 
Q 3200 3197 3328 2828 
z
" transform="scale(0.015625)"/>
      </defs>
      <use xlink:href="#DejaVuSans-54"/>
      <use xlink:href="#DejaVuSans-69" transform="translate(57.958984 0)"/>
      <use xlink:href="#DejaVuSans-6d" transform="translate(85.742188 0)"/>
      <use xlink:href="#DejaVuSans-65" transform="translate(183.154297 0)"/>
     </g>
    </g>
    <g id="text_31">
     <!-- 2025-Nov -->
     <g transform="translate(528.622957 358.119832) scale(0.1 -0.1)">
      <defs>
       <path id="DejaVuSans-2d" d="M 313 2009 
L 1997 2009 
L 1997 1497 
L 313 1497 
L 313 2009 
z
" transform="scale(0.015625)"/>
      </defs>
      <use xlink:href="#DejaVuSans-32"/>
      <use xlink:href="#DejaVuSans-30" transform="translate(63.623047 0)"/>
      <use xlink:href="#DejaVuSans-32" transform="translate(127.246094 0)"/>
      <use xlink:href="#DejaVuSans-35" transform="translate(190.869141 0)"/>
      <use xlink:href="#DejaVuSans-2d" transform="translate(254.492188 0)"/>
      <use xlink:href="#DejaVuSans-4e" transform="translate(290.576172 0)"/>
      <use xlink:href="#DejaVuSans-6f" transform="translate(365.380859 0)"/>
      <use xlink:href="#DejaVuSans-76" transform="translate(426.5625 0)"/>
     </g>
    </g>
   </g>
   <g id="matplotlib.axis_6">
    <g id="ytick_9">
     <g id="line2d_68">
      <g>
       <use xlink:href="#m611ce29ddf" x="53.328125" y="316.76853" style="stroke: #000000; stroke-width: 0.8"/>
      </g>
     </g>
     <g id="text_32">
      <!-- 15 -->
      <g transform="translate(25.223438 320.567749) scale(0.1 -0.1)">
       <defs>
        <path id="DejaVuSans-2212" d="M 678 2272 
L 4684 2272 
L 4684 1741 
L 678 1741 
L 678 2272 
z
" transform="scale(0.015625)"/>
       </defs>
       <use xlink:href="#DejaVuSans-2212"/>
       <use xlink:href="#DejaVuSans-31" transform="translate(83.789062 0)"/>
       <use xlink:href="#DejaVuSans-35" transform="translate(147.412109 0)"/>
      </g>
     </g>
    </g>
    <g id="ytick_10">
     <g id="line2d_69">
      <g>
       <use xlink:href="#m611ce29ddf" x="53.328125" y="289.149562" style="stroke: #000000; stroke-width: 0.8"/>
      </g>
     </g>
     <g id="text_33">
      <!-- 10 -->
      <g transform="translate(25.223438 292.948781) scale(0.1 -0.1)">
       <use xlink:href="#DejaVuSans-2212"/>
       <use xlink:href="#DejaVuSans-31" transform="translate(83.789062 0)"/>
       <use xlink:href="#DejaVuSans-30" transform="translate(147.412109 0)"/>
      </g>
     </g>
    </g>
    <g id="ytick_11">
     <g id="line2d_70">
      <g>
       <use xlink:href="#m611ce29ddf" x="53.328125" y="261.530594" style="stroke: #000000; stroke-width: 0.8"/>
      </g>
     </g>
     <g id="text_34">
      <!-- 5 -->
      <g transform="translate(31.585938 265.329813) scale(0.1 -0.1)">
       <use xlink:href="#DejaVuSans-2212"/>
       <use xlink:href="#DejaVuSans-35" transform="translate(83.789062 0)"/>
      </g>
     </g>
    </g>
    <g id="ytick_12">
     <g id="line2d_71">
      <g>
       <use xlink:href="#m611ce29ddf" x="53.328125" y="233.911626" style="stroke: #000000; stroke-width: 0.8"/>
      </g>
     </g>
     <g id="text_35">
      <!-- 0 -->
      <g transform="translate(39.965625 237.710845) scale(0.1 -0.1)">
       <use xlink:href="#DejaVuSans-30"/>
      </g>
     </g>
    </g>
    <g id="text_36">
     <!-- Drawdown, % -->
     <g transform="translate(14.798438 314.548458) rotate(-90) scale(0.1 -0.1)">
      <defs>
       <path id="DejaVuSans-44" d="M 1259 4147 
L 1259 519 
L 2022 519 
Q 2988 519 3436 956 
Q 3884 1394 3884 2338 
Q 3884 3275 3436 3711 
Q 2988 4147 2022 4147 
L 1259 4147 
z
M 628 4666 
L 1925 4666 
Q 3281 4666 3915 4102 
Q 4550 3538 4550 2338 
Q 4550 1131 3912 565 
Q 3275 0 1925 0 
L 628 0 
L 628 4666 
z
" transform="scale(0.015625)"/>
       <path id="DejaVuSans-61" d="M 2194 1759 
Q 1497 1759 1228 1600 
Q 959 1441 959 1056 
Q 959 750 1161 570 
Q 1363 391 1709 391 
Q 2188 391 2477 730 
Q 2766 1069 2766 1631 
L 2766 1759 
L 2194 1759 
z
M 3341 1997 
L 3341 0 
L 2766 0 
L 2766 531 
Q 2569 213 2275 61 
Q 1981 -91 1556 -91 
Q 1019 -91 701 211 
Q 384 513 384 1019 
Q 384 1609 779 1909 
Q 1175 2209 1959 2209 
L 2766 2209 
L 2766 2266 
Q 2766 2663 2505 2880 
Q 2244 3097 1772 3097 
Q 1472 3097 1187 3025 
Q 903 2953 641 2809 
L 641 3341 
Q 956 3463 1253 3523 
Q 1550 3584 1831 3584 
Q 2591 3584 2966 3190 
Q 3341 2797 3341 1997 
z
" transform="scale(0.015625)"/>
       <path id="DejaVuSans-77" d="M 269 3500 
L 844 3500 
L 1563 769 
L 2278 3500 
L 2956 3500 
L 3675 769 
L 4391 3500 
L 4966 3500 
L 4050 0 
L 3372 0 
L 2619 2869 
L 1863 0 
L 1184 0 
L 269 3500 
z
" transform="scale(0.015625)"/>
       <path id="DejaVuSans-64" d="M 2906 2969 
L 2906 4863 
L 3481 4863 
L 3481 0 
L 2906 0 
L 2906 525 
Q 2725 213 2448 61 
Q 2172 -91 1784 -91 
Q 1150 -91 751 415 
Q 353 922 353 1747 
Q 353 2572 751 3078 
Q 1150 3584 1784 3584 
Q 2172 3584 2448 3432 
Q 2725 3281 2906 2969 
z
M 947 1747 
Q 947 1113 1208 752 
Q 1469 391 1925 391 
Q 2381 391 2643 752 
Q 2906 1113 2906 1747 
Q 2906 2381 2643 2742 
Q 2381 3103 1925 3103 
Q 1469 3103 1208 2742 
Q 947 2381 947 1747 
z
" transform="scale(0.015625)"/>
       <path id="DejaVuSans-6e" d="M 3513 2113 
L 3513 0 
L 2938 0 
L 2938 2094 
Q 2938 2591 2744 2837 
Q 2550 3084 2163 3084 
Q 1697 3084 1428 2787 
Q 1159 2491 1159 1978 
L 1159 0 
L 581 0 
L 581 3500 
L 1159 3500 
L 1159 2956 
Q 1366 3272 1645 3428 
Q 1925 3584 2291 3584 
Q 2894 3584 3203 3211 
Q 3513 2838 3513 2113 
z
" transform="scale(0.015625)"/>
       <path id="DejaVuSans-2c" d="M 750 794 
L 1409 794 
L 1409 256 
L 897 -744 
L 494 -744 
L 750 256 
L 750 794 
z
" transform="scale(0.015625)"/>
       <path id="DejaVuSans-20" transform="scale(0.015625)"/>
       <path id="DejaVuSans-25" d="M 4653 2053 
Q 4381 2053 4226 1822 
Q 4072 1591 4072 1178 
Q 4072 772 4226 539 
Q 4381 306 4653 306 
Q 4919 306 5073 539 
Q 5228 772 5228 1178 
Q 5228 1588 5073 1820 
Q 4919 2053 4653 2053 
z
M 4653 2450 
Q 5147 2450 5437 2106 
Q 5728 1763 5728 1178 
Q 5728 594 5436 251 
Q 5144 -91 4653 -91 
Q 4153 -91 3862 251 
Q 3572 594 3572 1178 
Q 3572 1766 3864 2108 
Q 4156 2450 4653 2450 
z
M 1428 4353 
Q 1159 4353 1004 4120 
Q 850 3888 850 3481 
Q 850 3069 1003 2837 
Q 1156 2606 1428 2606 
Q 1700 2606 1854 2837 
Q 2009 3069 2009 3481 
Q 2009 3884 1853 4118 
Q 1697 4353 1428 4353 
z
M 4250 4750 
L 4750 4750 
L 1831 -91 
L 1331 -91 
L 4250 4750 
z
M 1428 4750 
Q 1922 4750 2215 4408 
Q 2509 4066 2509 3481 
Q 2509 2891 2217 2550 
Q 1925 2209 1428 2209 
Q 931 2209 642 2551 
Q 353 2894 353 3481 
Q 353 4063 643 4406 
Q 934 4750 1428 4750 
z
" transform="scale(0.015625)"/>
      </defs>
      <use xlink:href="#DejaVuSans-44"/>
      <use xlink:href="#DejaVuSans-72" transform="translate(77.001953 0)"/>
      <use xlink:href="#DejaVuSans-61" transform="translate(118.115234 0)"/>
      <use xlink:href="#DejaVuSans-77" transform="translate(179.394531 0)"/>
      <use xlink:href="#DejaVuSans-64" transform="translate(261.181641 0)"/>
      <use xlink:href="#DejaVuSans-6f" transform="translate(324.658203 0)"/>
      <use xlink:href="#DejaVuSans-77" transform="translate(385.839844 0)"/>
      <use xlink:href="#DejaVuSans-6e" transform="translate(467.626953 0)"/>
      <use xlink:href="#DejaVuSans-2c" transform="translate(531.005859 0)"/>
      <use xlink:href="#DejaVuSans-20" transform="translate(562.792969 0)"/>
      <use xlink:href="#DejaVuSans-25" transform="translate(594.580078 0)"/>
     </g>
    </g>
   </g>
   <g id="line2d_72">
    <path d="M 58.464119 233.911626 
L 59.888216 234.476937 
L 60.208824 233.911626 
L 61.021529 237.31433 
L 61.550905 236.967904 
L 62.788602 233.911626 
L 63.094298 233.911626 
L 63.474554 235.196458 
L 103.222513 235.195028 
L 104.631698 236.694894 
L 105.265459 233.911626 
L 106.309299 237.151116 
L 107.338228 235.202861 
L 108.389525 237.424755 
L 109.515381 234.18669 
L 110.87983 236.441364 
L 111.28991 235.144428 
L 111.975863 237.620008 
L 112.952599 234.487409 
L 113.62364 239.642374 
L 114.689848 244.180226 
L 116.352537 233.911626 
L 117.165242 233.911626 
L 118.581883 246.29739 
L 118.738459 242.743702 
L 119.305115 248.674227 
L 120.199835 245.34174 
L 120.609916 242.408284 
L 121.743228 243.668991 
L 123.279165 243.668991 
L 124.076958 244.136284 
L 124.770366 240.011801 
L 125.150622 247.487609 
L 126.082623 241.340347 
L 127.312864 237.069709 
L 127.640928 244.701903 
L 128.043552 241.373962 
L 128.818977 245.874063 
L 129.892641 241.226346 
L 130.981218 248.539923 
L 131.003586 247.665918 
L 132.561891 233.911626 
L 132.763203 240.377598 
L 134.29914 233.911626 
L 134.843428 238.15804 
L 135.708325 235.833371 
L 136.781989 242.648061 
L 137.60215 238.658938 
L 138.660902 248.444827 
L 139.093351 244.00079 
L 139.346855 251.129265 
L 140.800776 251.633723 
L 141.121384 245.951061 
L 143.074857 250.488183 
L 143.283625 241.230774 
L 143.775721 245.153837 
L 144.43185 238.367673 
L 145.237098 238.803069 
L 145.781387 242.892784 
L 146.743211 238.510303 
L 147.973452 241.865851 
L 148.085292 241.639145 
L 149.673421 263.814287 
L 149.844909 252.036089 
L 152.19355 266.81251 
L 152.469423 259.346228 
L 152.648367 260.062379 
L 153.297039 264.770656 
L 155.168496 264.901274 
L 155.690416 258.58804 
L 156.488209 256.196367 
L 157.226353 261.479666 
L 158.225458 261.505189 
L 158.411858 257.811835 
L 159.589907 264.794677 
L 160.104371 249.401195 
L 160.387699 248.477857 
L 161.647764 267.097769 
L 161.901268 264.290219 
L 162.684149 281.528877 
L 163.489397 279.574102 
L 164.197717 297.632504 
L 165.166998 289.097252 
L 166.203383 315.62785 
L 166.702935 302.37231 
L 167.709495 326.227477 
L 168.045016 317.455009 
L 169.446745 290.84634 
L 170.557689 290.843338 
L 171.124346 297.931276 
L 171.258554 297.530412 
L 172.205466 310.383586 
L 174.129115 285.887336 
L 174.375163 290.002574 
L 174.897084 283.934062 
L 175.76198 288.438153 
L 176.619421 283.192388 
L 177.834749 288.673867 
L 177.886941 284.83488 
L 179.773311 284.64721 
L 180.325055 292.786102 
L 180.794783 293.404664 
L 181.175039 287.905169 
L 182.039936 289.17232 
L 183.247809 294.586237 
L 183.546049 292.949751 
L 184.388577 287.337653 
L 185.022338 287.337653 
L 186.543363 292.046586 
L 186.737219 294.378214 
L 187.527555 286.570635 
L 188.11658 289.154168 
L 189.361732 298.611131 
L 189.652516 298.088867 
L 190.920037 287.83472 
L 191.270469 290.850476 
L 192.523078 283.133094 
L 192.851142 287.574242 
L 194.141031 282.698964 
L 194.290151 283.066527 
L 194.916456 286.958946 
L 196.124328 285.974664 
L 196.47476 280.711649 
L 197.913769 283.736869 
L 198.65937 279.37563 
L 199.59137 280.176083 
L 200.128203 275.534034 
L 201.350987 277.721167 
L 201.820716 282.916151 
L 202.014572 282.180835 
L 202.387372 286.070197 
L 204.072429 286.77946 
L 205.429422 275.848136 
L 206.846063 277.83407 
L 207.479823 274.202358 
L 208.836816 274.944912 
L 209.314 277.855782 
L 210.380209 274.429611 
L 210.864849 280.530714 
L 211.498609 276.115919 
L 211.960882 279.698417 
L 213.429714 270.72263 
L 214.197683 278.415955 
L 214.697235 278.899411 
L 215.54722 268.008617 
L 216.464308 265.749791 
L 217.038421 278.321301 
L 218.179189 283.933582 
L 218.92479 274.227819 
L 219.886614 276.050069 
L 220.490551 267.751634 
L 220.535287 268.697593 
L 221.720791 273.877922 
L 222.101048 270.748979 
L 222.772088 277.209682 
L 224.106713 270.521391 
L 225.098361 276.050069 
L 225.985626 276.929455 
L 226.679034 271.45032 
L 227.484283 271.074104 
L 227.924187 276.443315 
L 228.408827 278.411097 
L 229.721084 271.084941 
L 229.780732 271.453417 
L 230.489053 265.675477 
L 231.972797 272.551102 
L 232.561822 266.090398 
L 232.874974 267.418767 
L 233.971007 265.068576 
L 234.634591 268.310539 
L 235.089407 266.074916 
L 236.028864 268.573007 
L 238.690657 255.601862 
L 239.070914 257.47089 
L 240.375714 246.050573 
L 240.629218 244.936739 
L 241.121315 258.749598 
L 242.75418 248.855844 
L 243.604164 257.35441 
L 243.671268 255.629871 
L 244.580901 237.924388 
L 245.483077 244.597459 
L 246.698406 233.911626 
L 246.758054 234.055591 
L 248.293991 234.055591 
L 248.502759 233.911626 
L 249.673352 236.393387 
L 249.911944 233.911626 
L 250.687368 239.313802 
L 252.342601 235.377591 
L 252.864522 239.299523 
L 253.155306 238.031876 
L 254.407915 241.728519 
L 255.295179 245.469585 
L 255.496491 239.926207 
L 256.331564 242.328232 
L 257.338124 238.141347 
L 258.038989 240.752795 
L 259.000813 236.805479 
L 259.850798 239.345532 
L 260.037198 233.911626 
L 260.693326 239.249611 
L 261.834095 243.96277 
L 262.482767 238.694562 
L 263.198544 243.157156 
L 264.02616 238.838875 
L 264.809041 243.046881 
L 265.793233 242.609455 
L 266.50901 238.129389 
L 267.806355 241.166106 
L 268.469939 233.911626 
L 269.103699 236.032494 
L 270.356308 233.911626 
L 270.542708 236.981664 
L 271.638741 238.983271 
L 272.89135 233.946042 
L 273.174678 233.911626 
L 274.04703 236.848503 
L 274.539126 234.996743 
L 275.530775 240.300895 
L 276.649176 241.527685 
L 277.193464 235.138415 
L 278.155289 237.60912 
L 278.774137 240.876926 
L 279.325881 239.662591 
L 279.914906 242.007191 
L 280.981114 240.350714 
L 282.256091 240.350714 
L 283.09862 245.184283 
L 284.351228 243.993905 
L 284.679292 240.642557 
L 285.365245 241.111008 
L 286.595486 247.2506 
L 286.96083 246.645786 
L 287.59459 242.874115 
L 288.437119 245.383215 
L 289.920864 239.56127 
L 290.606816 240.527049 
L 291.38224 237.843083 
L 291.844513 236.930245 
L 292.336609 239.227579 
L 293.52957 235.321149 
L 294.640514 243.660214 
L 295.803651 236.936663 
L 296.146627 238.370892 
L 296.899684 233.911626 
L 297.69002 237.048687 
L 297.973348 233.911626 
L 299.240869 233.911626 
L 300.038662 242.915297 
L 300.88119 237.591913 
L 301.544774 242.851683 
L 302.446951 238.575599 
L 303.237287 242.620501 
L 303.930696 240.505733 
L 305.310057 245.911857 
L 305.414441 243.985196 
L 305.936361 250.229493 
L 307.986762 250.201727 
L 308.41921 246.218828 
L 308.948587 245.643451 
L 309.425771 253.777389 
L 310.6411 244.329187 
L 311.5731 258.250823 
L 311.901165 254.127551 
L 312.266509 259.329075 
L 313.705518 253.087863 
L 314.137966 257.866725 
L 315.032686 256.754537 
L 315.741007 251.625513 
L 316.486607 254.772342 
L 317.098 250.004279 
L 318.082192 250.448537 
L 318.924721 254.220105 
L 319.364625 253.663239 
L 320.669426 249.458211 
L 321.154066 248.882835 
L 322.00405 255.373942 
L 322.421587 254.633512 
L 322.943507 251.597747 
L 324.330324 253.974837 
L 324.740404 249.037091 
L 325.597845 249.158954 
L 326.477653 254.365106 
L 327.327638 252.484721 
L 328.431126 238.522978 
L 328.915767 244.528178 
L 329.325847 237.072968 
L 330.138551 236.810732 
L 331.585016 244.296793 
L 332.502105 244.059239 
L 332.777977 240.204372 
L 333.404281 241.435338 
L 334.17225 247.457506 
L 334.828378 248.262724 
L 335.834939 240.421874 
L 336.498523 240.204372 
L 337.162107 245.655792 
L 338.996284 244.53966 
L 339.287069 248.175356 
L 340.159421 253.024489 
L 340.875198 242.687766 
L 341.307646 245.392811 
L 341.620798 236.687535 
L 342.604991 236.764694 
L 343.984351 244.666615 
L 344.103648 244.433627 
L 345.080384 249.754526 
L 345.743968 251.76972 
L 346.892193 246.985904 
L 347.704898 250.306738 
L 348.584706 246.38949 
L 348.629442 246.908096 
L 349.852227 252.388984 
L 350.94826 246.91112 
L 351.686404 250.710698 
L 352.774981 253.308261 
L 353.147781 249.501123 
L 353.721893 245.630482 
L 354.668806 250.322122 
L 355.429318 246.251901 
L 355.899046 237.683573 
L 356.555175 241.867191 
L 357.643751 233.911626 
L 358.143304 233.911626 
L 359.202056 242.242384 
L 359.612137 236.517553 
L 360.894569 241.287456 
L 361.08097 238.897769 
L 362.080074 242.832703 
L 363.295403 242.155572 
L 363.720395 244.999836 
L 364.287051 242.444205 
L 364.94318 247.2796 
L 365.815532 247.141582 
L 366.441837 243.191407 
L 367.314189 246.296023 
L 367.336557 244.585866 
L 368.686094 245.310858 
L 370.222031 245.310858 
L 371.139119 245.713299 
L 371.355344 243.896638 
L 371.81016 243.799205 
L 372.906192 247.537818 
L 373.950033 247.291091 
L 374.74037 244.64939 
L 375.888594 242.57343 
L 376.380691 247.127655 
L 376.440339 246.91393 
L 377.543827 253.258099 
L 378.095572 251.221427 
L 378.945556 261.511648 
L 379.489844 260.608032 
L 379.631508 264.877814 
L 381.406038 260.755754 
L 382.710838 267.920249 
L 383.866519 252.150187 
L 384.843256 246.566627 
L 385.521752 259.850378 
L 385.827448 258.308822 
L 387.184441 248.416647 
L 387.698905 247.510125 
L 388.593626 252.830679 
L 388.765114 252.011532 
L 389.398874 260.14059 
L 390.554555 249.808417 
L 391.180859 254.11791 
L 392.194876 252.262737 
L 392.530396 256.781308 
L 394.140893 255.015071 
L 395.057982 250.541764 
L 396.004894 257.605349 
L 396.586462 258.57431 
L 396.765407 253.467371 
L 398.38336 258.592337 
L 399.53904 245.24222 
L 399.568864 248.178965 
L 401.089889 241.968956 
L 401.097345 241.990768 
L 401.514881 235.085911 
L 402.871874 236.037524 
L 403.341602 240.150223 
L 404.415267 235.08446 
L 405.280164 243.595716 
L 405.727524 240.655548 
L 406.66698 246.269981 
L 407.591525 246.516077 
L 408.762118 241.528748 
L 409.52263 245.706142 
L 410.305511 237.848217 
L 410.476999 233.911626 
L 411.707239 239.825612 
L 411.953288 245.758084 
L 412.169512 235.618502 
L 413.451944 239.499675 
L 414.801481 256.147363 
L 415.040073 251.640931 
L 416.344874 270.506376 
L 417.314155 264.821761 
L 418.037387 276.29092 
L 418.335627 277.783394 
L 418.715884 270.119558 
L 419.632972 276.979134 
L 421.101805 265.231143 
L 421.467149 267.792202 
L 422.123278 259.3918 
L 423.226766 264.5526 
L 423.949999 272.654829 
L 424.583759 272.558125 
L 425.731984 262.715213 
L 425.791632 263.140713 
L 426.96968 269.362039 
L 427.335025 266.663982 
L 428.028433 284.26421 
L 429.400338 270.103441 
L 430.541106 280.947244 
L 431.748979 264.209299 
L 432.300724 267.850225 
L 433.471316 273.81206 
L 433.5757 270.707844 
L 434.052885 278.590877 
L 435.193653 271.944051 
L 436.28223 283.629183 
L 437.437911 291.484816 
L 437.818167 279.372572 
L 438.474295 290.920706 
L 439.637432 272.757981 
L 440.345752 277.037157 
L 441.031705 266.154672 
L 441.359769 273.742755 
L 441.993529 262.473452 
L 442.768954 265.12638 
L 443.439994 276.811513 
L 444.513659 278.059002 
L 445.199611 267.901801 
L 445.982492 268.838223 
L 446.765372 283.023168 
L 448.748669 279.831918 
L 448.905245 273.130293 
L 449.173661 274.400346 
L 449.561374 288.409612 
L 450.50083 286.622189 
L 451.082399 279.261361 
L 452.267903 279.865765 
L 452.842016 274.75493 
L 454.131904 272.150354 
L 454.914785 275.991136 
L 455.608193 272.306693 
L 456.159938 277.222507 
L 456.681858 276.995252 
L 457.524386 273.536452 
L 458.337091 272.827286 
L 458.493667 276.028206 
L 459.902852 274.540568 
L 460.96906 281.372744 
L 461.289669 279.396748 
L 462.072549 275.979602 
L 463.504102 280.204439 
L 464.525575 276.303845 
L 465.077319 279.372054 
L 465.919847 278.992964 
L 466.881672 284.284093 
L 468.193929 280.872283 
L 468.633833 282.733857 
L 469.193033 283.408153 
L 469.424169 279.384959 
L 470.550026 279.651129 
L 478.259535 279.651129 
L 478.669615 279.33929 
L 479.788016 284.924528 
L 481.062992 281.450209 
L 481.286672 285.361404 
L 481.428336 285.185296 
L 482.106833 290.844761 
L 483.299794 288.703339 
L 484.000658 291.505943 
L 484.440562 290.675254 
L 485.842291 287.391316 
L 486.75938 289.785563 
L 487.497524 287.877308 
L 487.959796 286.000106 
L 488.325141 288.749919 
L 489.227317 288.222005 
L 490.465014 285.312167 
L 490.800534 286.674954 
L 492.008407 275.475459 
L 492.985143 276.778191 
L 493.320663 273.28576 
L 494.155736 275.629446 
L 494.714936 270.963631 
L 495.393433 272.645172 
L 496.459641 276.829007 
L 496.921914 275.952819 
L 497.294714 263.703131 
L 499.538971 275.78288 
L 499.844667 259.379257 
L 499.904315 261.247748 
L 500.515708 249.30664 
L 502.953821 249.30664 
L 503.997662 249.096861 
L 504.482302 254.760774 
L 505.511231 260.571438 
L 505.928767 244.963358 
L 507.047168 250.244668 
L 507.382688 238.331583 
L 508.322144 237.061483 
L 508.985729 242.721902 
L 509.142305 240.600992 
L 510.380002 233.911626 
L 511.304546 233.911626 
L 511.699714 235.963829 
L 512.586979 233.911626 
L 512.639171 236.187167 
L 513.876868 237.29893 
L 514.652292 233.911626 
L 515.636485 233.911626 
L 516.411909 235.978675 
L 516.911461 233.911626 
L 517.478118 239.503471 
L 518.53687 238.316279 
L 518.887303 235.627032 
L 520.124999 240.580546 
L 521.370152 234.684161 
L 521.959176 233.911626 
L 522.906089 237.931456 
L 523.092489 235.45217 
L 523.681513 252.468556 
L 525.784107 245.057496 
L 526.298571 233.911626 
L 527.573548 248.512031 
L 527.827052 244.582304 
L 529.169133 256.478931 
L 529.482285 253.956578 
L 530.026573 265.483306 
L 530.801998 262.073199 
L 531.286638 253.750492 
L 532.337935 258.346035 
L 533.105903 252.971945 
L 533.829135 257.072529 
L 534.82824 251.98555 
L 535.521648 259.577267 
L 536.177777 250.13606 
L 537.579506 250.935744 
L 538.175986 266.74096 
L 538.720274 266.034631 
L 539.272019 253.968908 
L 540.211475 265.360007 
L 540.889972 254.560745 
L 541.911444 256.103748 
L 542.485556 262.987375 
L 543.171509 260.406896 
L 545.124982 246.778794 
L 545.654358 253.223828 
L 546.198647 249.21836 
L 546.936791 246.077749 
L 547.92844 245.896323 
L 548.905176 251.529342 
L 549.263064 249.885938 
L 549.494201 247.000733 
L 551.11961 249.490509 
L 552.327482 237.35511 
L 552.372218 241.031736 
L 552.521338 233.911626 
L 553.900699 233.911626 
L 555.123484 241.903991 
L 555.451548 240.64553 
L 556.562493 233.911626 
L 557.062045 234.333582 
L 557.867294 239.745781 
L 558.54579 237.632513 
L 560.066815 246.401182 
L 560.961535 240.905289 
L 561.610208 242.20603 
L 561.707136 244.54597 
L 564.018497 239.272599 
L 564.219809 244.532442 
L 564.92813 241.214398 
L 565.733378 246.050512 
L 566.240386 244.556955 
L 567.560099 235.516819 
L 567.813603 236.12965 
L 569.38682 245.216619 
L 571.265733 233.911626 
L 572.063526 234.454153 
L 572.063526 234.454153 
" clip-path="url(#p5ebb170e18)" style="fill: none; stroke: #7a738c; stroke-width: 1.5; stroke-linecap: square"/>
   </g>
   <g id="patch_13">
    <path d="M 53.328125 330.84327 
L 53.328125 229.295833 
" style="fill: none; stroke: #000000; stroke-width: 0.8; stroke-linejoin: miter; stroke-linecap: square"/>
   </g>
   <g id="patch_14">
    <path d="M 577.19952 330.84327 
L 577.19952 229.295833 
" style="fill: none; stroke: #000000; stroke-width: 0.8; stroke-linejoin: miter; stroke-linecap: square"/>
   </g>
   <g id="patch_15">
    <path d="M 53.328125 330.84327 
L 577.19952 330.84327 
" style="fill: none; stroke: #000000; stroke-width: 0.8; stroke-linejoin: miter; stroke-linecap: square"/>
   </g>
   <g id="patch_16">
    <path d="M 53.328125 229.295833 
L 577.19952 229.295833 
" style="fill: none; stroke: #000000; stroke-width: 0.8; stroke-linejoin: miter; stroke-linecap: square"/>
   </g>
  </g>
 </g>
 <defs>
  <clipPath id="pe17fad992a">
   <rect x="53.328125" y="7.2" width="523.871395" height="101.547437"/>
  </clipPath>
  <clipPath id="p32ae8d3fd4">
   <rect x="53.328125" y="118.247917" width="523.871395" height="101.547437"/>
  </clipPath>
  <clipPath id="p5ebb170e18">
   <rect x="53.328125" y="229.295833" width="523.871395" height="101.547437"/>
  </clipPath>
 </defs>
</svg>
