<?xml version="1.0" encoding="utf-8" standalone="no"?>
<!DOCTYPE svg PUBLIC "-//W3C//DTD SVG 1.1//EN"
  "http://www.w3.org/Graphics/SVG/1.1/DTD/svg11.dtd">
<svg xmlns:xlink="http://www.w3.org/1999/xlink"   viewBox="0 0 584.39952 368.39952" xmlns="http://www.w3.org/2000/svg" version="1.1" preserveAspectRatio="xMidYMid meet" style="width:100%;height:auto;aspect-ratio:8 / 5;display:block;">
 <metadata>
  <rdf:RDF xmlns:dc="http://purl.org/dc/elements/1.1/" xmlns:cc="http://creativecommons.org/ns#" xmlns:rdf="http://www.w3.org/1999/02/22-rdf-syntax-ns#">
   <cc:Work>
    <dc:type rdf:resource="http://purl.org/dc/dcmitype/StillImage"/>
    <dc:date>2025-11-20T08:37:34.756060</dc:date>
    <dc:format>image/svg+xml</dc:format>
    <dc:creator>
     <cc:Agent>
      <dc:title>Matplotlib v3.10.7, https://matplotlib.org/</dc:title>
     </cc:Agent>
    </dc:creator>
   </cc:Work>
  </rdf:RDF>
 </metadata>
 <defs>
  <style type="text/css">*{stroke-linejoin: round; stroke-linecap: butt}</style>
 </defs>
 <g id="figure_1">
  <g id="patch_1">
   <path d="M 0 368.39952 
L 584.39952 368.39952 
L 584.39952 0 
L 0 0 
z
" style="fill: #ffffff"/>
  </g>
  <g id="axes_1">
   <g id="patch_2">
    <path d="M 53.328125 108.747437 
L 577.19952 108.747437 
L 577.19952 7.2 
L 53.328125 7.2 
z
" style="fill: #ffffff"/>
   </g>
   <g id="matplotlib.axis_1">
    <g id="xtick_1">
     <g id="line2d_1">
      <defs>
       <path id="m48dba79e6d" d="M 0 0 
L 0 3.5 
" style="stroke: #000000; stroke-width: 0.8"/>
      </defs>
      <g>
       <use xlink:href="#m48dba79e6d" x="58.462822" y="108.747437" style="stroke: #000000; stroke-width: 0.8"/>
      </g>
     </g>
    </g>
    <g id="xtick_2">
     <g id="line2d_2">
      <g>
       <use xlink:href="#m48dba79e6d" x="86.471465" y="108.747437" style="stroke: #000000; stroke-width: 0.8"/>
      </g>
     </g>
    </g>
    <g id="xtick_3">
     <g id="line2d_3">
      <g>
       <use xlink:href="#m48dba79e6d" x="114.480108" y="108.747437" style="stroke: #000000; stroke-width: 0.8"/>
      </g>
     </g>
    </g>
    <g id="xtick_4">
     <g id="line2d_4">
      <g>
       <use xlink:href="#m48dba79e6d" x="142.48875" y="108.747437" style="stroke: #000000; stroke-width: 0.8"/>
      </g>
     </g>
    </g>
    <g id="xtick_5">
     <g id="line2d_5">
      <g>
       <use xlink:href="#m48dba79e6d" x="170.497393" y="108.747437" style="stroke: #000000; stroke-width: 0.8"/>
      </g>
     </g>
    </g>
    <g id="xtick_6">
     <g id="line2d_6">
      <g>
       <use xlink:href="#m48dba79e6d" x="198.506035" y="108.747437" style="stroke: #000000; stroke-width: 0.8"/>
      </g>
     </g>
    </g>
    <g id="xtick_7">
     <g id="line2d_7">
      <g>
       <use xlink:href="#m48dba79e6d" x="226.514678" y="108.747437" style="stroke: #000000; stroke-width: 0.8"/>
      </g>
     </g>
    </g>
    <g id="xtick_8">
     <g id="line2d_8">
      <g>
       <use xlink:href="#m48dba79e6d" x="254.523321" y="108.747437" style="stroke: #000000; stroke-width: 0.8"/>
      </g>
     </g>
    </g>
    <g id="xtick_9">
     <g id="line2d_9">
      <g>
       <use xlink:href="#m48dba79e6d" x="282.531963" y="108.747437" style="stroke: #000000; stroke-width: 0.8"/>
      </g>
     </g>
    </g>
    <g id="xtick_10">
     <g id="line2d_10">
      <g>
       <use xlink:href="#m48dba79e6d" x="310.540606" y="108.747437" style="stroke: #000000; stroke-width: 0.8"/>
      </g>
     </g>
    </g>
    <g id="xtick_11">
     <g id="line2d_11">
      <g>
       <use xlink:href="#m48dba79e6d" x="338.549248" y="108.747437" style="stroke: #000000; stroke-width: 0.8"/>
      </g>
     </g>
    </g>
    <g id="xtick_12">
     <g id="line2d_12">
      <g>
       <use xlink:href="#m48dba79e6d" x="366.557891" y="108.747437" style="stroke: #000000; stroke-width: 0.8"/>
      </g>
     </g>
    </g>
    <g id="xtick_13">
     <g id="line2d_13">
      <g>
       <use xlink:href="#m48dba79e6d" x="394.566534" y="108.747437" style="stroke: #000000; stroke-width: 0.8"/>
      </g>
     </g>
    </g>
    <g id="xtick_14">
     <g id="line2d_14">
      <g>
       <use xlink:href="#m48dba79e6d" x="422.575176" y="108.747437" style="stroke: #000000; stroke-width: 0.8"/>
      </g>
     </g>
    </g>
    <g id="xtick_15">
     <g id="line2d_15">
      <g>
       <use xlink:href="#m48dba79e6d" x="450.583819" y="108.747437" style="stroke: #000000; stroke-width: 0.8"/>
      </g>
     </g>
    </g>
    <g id="xtick_16">
     <g id="line2d_16">
      <g>
       <use xlink:href="#m48dba79e6d" x="478.592461" y="108.747437" style="stroke: #000000; stroke-width: 0.8"/>
      </g>
     </g>
    </g>
    <g id="xtick_17">
     <g id="line2d_17">
      <g>
       <use xlink:href="#m48dba79e6d" x="506.601104" y="108.747437" style="stroke: #000000; stroke-width: 0.8"/>
      </g>
     </g>
    </g>
    <g id="xtick_18">
     <g id="line2d_18">
      <g>
       <use xlink:href="#m48dba79e6d" x="534.609747" y="108.747437" style="stroke: #000000; stroke-width: 0.8"/>
      </g>
     </g>
    </g>
    <g id="xtick_19">
     <g id="line2d_19">
      <g>
       <use xlink:href="#m48dba79e6d" x="562.618389" y="108.747437" style="stroke: #000000; stroke-width: 0.8"/>
      </g>
     </g>
    </g>
   </g>
   <g id="matplotlib.axis_2">
    <g id="ytick_1">
     <g id="line2d_20">
      <defs>
       <path id="m8cb8f0cde4" d="M 0 0 
L -3.5 0 
" style="stroke: #000000; stroke-width: 0.8"/>
      </defs>
      <g>
       <use xlink:href="#m8cb8f0cde4" x="53.328125" y="99.309131" style="stroke: #000000; stroke-width: 0.8"/>
      </g>
     </g>
     <g id="text_1">
      <!-- 3000 -->
      <g transform="translate(20.878125 103.10835) scale(0.1 -0.1)">
       <defs>
        <path id="DejaVuSans-33" d="M 2597 2516 
Q 3050 2419 3304 2112 
Q 3559 1806 3559 1356 
Q 3559 666 3084 287 
Q 2609 -91 1734 -91 
Q 1441 -91 1130 -33 
Q 819 25 488 141 
L 488 750 
Q 750 597 1062 519 
Q 1375 441 1716 441 
Q 2309 441 2620 675 
Q 2931 909 2931 1356 
Q 2931 1769 2642 2001 
Q 2353 2234 1838 2234 
L 1294 2234 
L 1294 2753 
L 1863 2753 
Q 2328 2753 2575 2939 
Q 2822 3125 2822 3475 
Q 2822 3834 2567 4026 
Q 2313 4219 1838 4219 
Q 1578 4219 1281 4162 
Q 984 4106 628 3988 
L 628 4550 
Q 988 4650 1302 4700 
Q 1616 4750 1894 4750 
Q 2613 4750 3031 4423 
Q 3450 4097 3450 3541 
Q 3450 3153 3228 2886 
Q 3006 2619 2597 2516 
z
" transform="scale(0.015625)"/>
        <path id="DejaVuSans-30" d="M 2034 4250 
Q 1547 4250 1301 3770 
Q 1056 3291 1056 2328 
Q 1056 1369 1301 889 
Q 1547 409 2034 409 
Q 2525 409 2770 889 
Q 3016 1369 3016 2328 
Q 3016 3291 2770 3770 
Q 2525 4250 2034 4250 
z
M 2034 4750 
Q 2819 4750 3233 4129 
Q 3647 3509 3647 2328 
Q 3647 1150 3233 529 
Q 2819 -91 2034 -91 
Q 1250 -91 836 529 
Q 422 1150 422 2328 
Q 422 3509 836 4129 
Q 1250 4750 2034 4750 
z
" transform="scale(0.015625)"/>
       </defs>
       <use xlink:href="#DejaVuSans-33"/>
       <use xlink:href="#DejaVuSans-30" transform="translate(63.623047 0)"/>
       <use xlink:href="#DejaVuSans-30" transform="translate(127.246094 0)"/>
       <use xlink:href="#DejaVuSans-30" transform="translate(190.869141 0)"/>
      </g>
     </g>
    </g>
    <g id="ytick_2">
     <g id="line2d_21">
      <g>
       <use xlink:href="#m8cb8f0cde4" x="53.328125" y="75.38319" style="stroke: #000000; stroke-width: 0.8"/>
      </g>
     </g>
     <g id="text_2">
      <!-- 3250 -->
      <g transform="translate(20.878125 79.182409) scale(0.1 -0.1)">
       <defs>
        <path id="DejaVuSans-32" d="M 1228 531 
L 3431 531 
L 3431 0 
L 469 0 
L 469 531 
Q 828 903 1448 1529 
Q 2069 2156 2228 2338 
Q 2531 2678 2651 2914 
Q 2772 3150 2772 3378 
Q 2772 3750 2511 3984 
Q 2250 4219 1831 4219 
Q 1534 4219 1204 4116 
Q 875 4013 500 3803 
L 500 4441 
Q 881 4594 1212 4672 
Q 1544 4750 1819 4750 
Q 2544 4750 2975 4387 
Q 3406 4025 3406 3419 
Q 3406 3131 3298 2873 
Q 3191 2616 2906 2266 
Q 2828 2175 2409 1742 
Q 1991 1309 1228 531 
z
" transform="scale(0.015625)"/>
        <path id="DejaVuSans-35" d="M 691 4666 
L 3169 4666 
L 3169 4134 
L 1269 4134 
L 1269 2991 
Q 1406 3038 1543 3061 
Q 1681 3084 1819 3084 
Q 2600 3084 3056 2656 
Q 3513 2228 3513 1497 
Q 3513 744 3044 326 
Q 2575 -91 1722 -91 
Q 1428 -91 1123 -41 
Q 819 9 494 109 
L 494 744 
Q 775 591 1075 516 
Q 1375 441 1709 441 
Q 2250 441 2565 725 
Q 2881 1009 2881 1497 
Q 2881 1984 2565 2268 
Q 2250 2553 1709 2553 
Q 1456 2553 1204 2497 
Q 953 2441 691 2322 
L 691 4666 
z
" transform="scale(0.015625)"/>
       </defs>
       <use xlink:href="#DejaVuSans-33"/>
       <use xlink:href="#DejaVuSans-32" transform="translate(63.623047 0)"/>
       <use xlink:href="#DejaVuSans-35" transform="translate(127.246094 0)"/>
       <use xlink:href="#DejaVuSans-30" transform="translate(190.869141 0)"/>
      </g>
     </g>
    </g>
    <g id="ytick_3">
     <g id="line2d_22">
      <g>
       <use xlink:href="#m8cb8f0cde4" x="53.328125" y="51.457249" style="stroke: #000000; stroke-width: 0.8"/>
      </g>
     </g>
     <g id="text_3">
      <!-- 3500 -->
      <g transform="translate(20.878125 55.256468) scale(0.1 -0.1)">
       <use xlink:href="#DejaVuSans-33"/>
       <use xlink:href="#DejaVuSans-35" transform="translate(63.623047 0)"/>
       <use xlink:href="#DejaVuSans-30" transform="translate(127.246094 0)"/>
       <use xlink:href="#DejaVuSans-30" transform="translate(190.869141 0)"/>
      </g>
     </g>
    </g>
    <g id="ytick_4">
     <g id="line2d_23">
      <g>
       <use xlink:href="#m8cb8f0cde4" x="53.328125" y="27.531308" style="stroke: #000000; stroke-width: 0.8"/>
      </g>
     </g>
     <g id="text_4">
      <!-- 3750 -->
      <g transform="translate(20.878125 31.330527) scale(0.1 -0.1)">
       <defs>
        <path id="DejaVuSans-37" d="M 525 4666 
L 3525 4666 
L 3525 4397 
L 1831 0 
L 1172 0 
L 2766 4134 
L 525 4134 
L 525 4666 
z
" transform="scale(0.015625)"/>
       </defs>
       <use xlink:href="#DejaVuSans-33"/>
       <use xlink:href="#DejaVuSans-37" transform="translate(63.623047 0)"/>
       <use xlink:href="#DejaVuSans-35" transform="translate(127.246094 0)"/>
       <use xlink:href="#DejaVuSans-30" transform="translate(190.869141 0)"/>
      </g>
     </g>
    </g>
    <g id="text_5">
     <!-- Price -->
     <g transform="translate(14.798438 70.171375) rotate(-90) scale(0.1 -0.1)">
      <defs>
       <path id="DejaVuSans-50" d="M 1259 4147 
L 1259 2394 
L 2053 2394 
Q 2494 2394 2734 2622 
Q 2975 2850 2975 3272 
Q 2975 3691 2734 3919 
Q 2494 4147 2053 4147 
L 1259 4147 
z
M 628 4666 
L 2053 4666 
Q 2838 4666 3239 4311 
Q 3641 3956 3641 3272 
Q 3641 2581 3239 2228 
Q 2838 1875 2053 1875 
L 1259 1875 
L 1259 0 
L 628 0 
L 628 4666 
z
" transform="scale(0.015625)"/>
       <path id="DejaVuSans-72" d="M 2631 2963 
Q 2534 3019 2420 3045 
Q 2306 3072 2169 3072 
Q 1681 3072 1420 2755 
Q 1159 2438 1159 1844 
L 1159 0 
L 581 0 
L 581 3500 
L 1159 3500 
L 1159 2956 
Q 1341 3275 1631 3429 
Q 1922 3584 2338 3584 
Q 2397 3584 2469 3576 
Q 2541 3569 2628 3553 
L 2631 2963 
z
" transform="scale(0.015625)"/>
       <path id="DejaVuSans-69" d="M 603 3500 
L 1178 3500 
L 1178 0 
L 603 0 
L 603 3500 
z
M 603 4863 
L 1178 4863 
L 1178 4134 
L 603 4134 
L 603 4863 
z
" transform="scale(0.015625)"/>
       <path id="DejaVuSans-63" d="M 3122 3366 
L 3122 2828 
Q 2878 2963 2633 3030 
Q 2388 3097 2138 3097 
Q 1578 3097 1268 2742 
Q 959 2388 959 1747 
Q 959 1106 1268 751 
Q 1578 397 2138 397 
Q 2388 397 2633 464 
Q 2878 531 3122 666 
L 3122 134 
Q 2881 22 2623 -34 
Q 2366 -91 2075 -91 
Q 1284 -91 818 406 
Q 353 903 353 1747 
Q 353 2603 823 3093 
Q 1294 3584 2113 3584 
Q 2378 3584 2631 3529 
Q 2884 3475 3122 3366 
z
" transform="scale(0.015625)"/>
       <path id="DejaVuSans-65" d="M 3597 1894 
L 3597 1613 
L 953 1613 
Q 991 1019 1311 708 
Q 1631 397 2203 397 
Q 2534 397 2845 478 
Q 3156 559 3463 722 
L 3463 178 
Q 3153 47 2828 -22 
Q 2503 -91 2169 -91 
Q 1331 -91 842 396 
Q 353 884 353 1716 
Q 353 2575 817 3079 
Q 1281 3584 2069 3584 
Q 2775 3584 3186 3129 
Q 3597 2675 3597 1894 
z
M 3022 2063 
Q 3016 2534 2758 2815 
Q 2500 3097 2075 3097 
Q 1594 3097 1305 2825 
Q 1016 2553 972 2059 
L 3022 2063 
z
" transform="scale(0.015625)"/>
      </defs>
      <use xlink:href="#DejaVuSans-50"/>
      <use xlink:href="#DejaVuSans-72" transform="translate(58.552734 0)"/>
      <use xlink:href="#DejaVuSans-69" transform="translate(99.666016 0)"/>
      <use xlink:href="#DejaVuSans-63" transform="translate(127.449219 0)"/>
      <use xlink:href="#DejaVuSans-65" transform="translate(182.429688 0)"/>
     </g>
    </g>
   </g>
   <g id="line2d_24">
    <path d="M 58.464119 18.273883 
L 58.911479 19.808971 
L 59.679448 17.97433 
L 60.275928 17.128309 
L 61.021529 19.403187 
L 61.550905 19.171584 
L 62.788602 17.003894 
L 63.474554 17.385752 
L 64.048666 16.370335 
L 65.077595 16.583754 
L 66.031964 17.910208 
L 66.322748 17.856614 
L 67.172732 16.612465 
L 67.724477 17.141707 
L 69.290237 15.214233 
L 70.393726 16.052598 
L 71.191519 15.17978 
L 71.944575 16.266018 
L 73.264288 15.21519 
L 73.637088 15.794198 
L 73.898048 15.484118 
L 75.150657 17.200086 
L 75.441441 16.907233 
L 75.963361 15.744432 
L 76.984834 16.038243 
L 83.15095 16.038243 
L 83.986022 15.234331 
L 84.522854 16.690942 
L 85.223719 15.879374 
L 85.603975 16.287072 
L 86.446504 15.820038 
L 87.229384 16.689985 
L 87.848232 16.899577 
L 89.130665 15.423825 
L 89.399081 15.672654 
L 89.488553 14.823762 
L 91.32273 15.509958 
L 92.254731 12.352691 
L 93.939788 13.931803 
L 94.43934 12.546969 
L 95.125293 13.931803 
L 95.714317 11.815793 
L 96.743246 13.844712 
L 97.459022 13.05707 
L 98.756367 17.613527 
L 100.098448 13.89065 
L 100.351952 13.654262 
L 101.261584 15.890859 
L 101.679121 15.788456 
L 103.185233 18.416481 
L 103.37909 19.022286 
L 104.631698 16.155001 
L 104.765906 16.466039 
L 105.466771 18.82705 
L 106.309299 16.651704 
L 107.338228 17.959974 
L 108.389525 16.467953 
L 109.515381 18.642342 
L 110.87983 17.128309 
L 111.28991 17.999213 
L 111.975863 16.336838 
L 112.952599 18.440407 
L 113.62364 14.978802 
L 114.689848 11.931594 
L 115.584569 16.181798 
L 116.978842 20.391807 
L 117.11305 19.358206 
L 118.581883 28.966864 
L 118.738459 26.614466 
L 119.305115 30.540234 
L 120.609916 26.392433 
L 122.436637 33.631466 
L 123.152413 29.285558 
L 123.413373 29.200381 
L 124.770366 33.500352 
L 125.150622 28.605104 
L 126.082623 32.630404 
L 127.312864 35.426868 
L 127.640928 30.429218 
L 128.043552 32.608393 
L 128.818977 29.661674 
L 129.892641 32.705053 
L 130.981218 27.916037 
L 131.003586 28.488345 
L 132.539523 37.101684 
L 132.546979 36.704514 
L 133.329859 45.165683 
L 134.120196 41.375814 
L 135.290788 34.309048 
L 135.708325 35.534057 
L 136.781989 39.87805 
L 137.60215 37.335201 
L 138.660902 43.573173 
L 139.093351 40.740341 
L 139.346855 45.284356 
L 140.800776 45.605921 
L 141.121384 41.983533 
L 143.074857 44.875701 
L 143.283625 38.974607 
L 143.775721 41.475346 
L 144.43185 37.149536 
L 145.237098 37.427077 
L 145.781387 40.034048 
L 146.743211 37.240455 
L 147.973452 39.379434 
L 148.085292 39.234921 
L 149.673421 53.370367 
L 149.844909 45.862407 
L 152.19355 55.281571 
L 152.469423 50.522223 
L 152.648367 50.97873 
L 153.297039 53.98 
L 155.168496 54.063263 
L 155.690416 50.038919 
L 156.488209 48.514358 
L 157.226353 51.882174 
L 158.225458 51.898443 
L 158.411858 49.544131 
L 159.589907 53.995313 
L 160.104371 44.182806 
L 160.387699 43.594228 
L 161.647764 55.463409 
L 161.901268 53.673748 
L 162.684149 64.662454 
L 163.489397 63.416391 
L 164.197717 74.92764 
L 165.166998 69.486881 
L 166.203383 86.398694 
L 166.702935 77.949008 
L 167.709495 93.155379 
L 168.045016 87.563408 
L 169.446745 70.60183 
L 170.557689 70.599916 
L 171.124346 75.118091 
L 171.258554 74.862562 
L 172.205466 83.055761 
L 174.129115 67.440735 
L 174.375163 70.063975 
L 174.897084 66.195629 
L 175.76198 69.066742 
L 176.619421 65.722852 
L 177.834749 69.216997 
L 177.886941 66.769851 
L 179.773311 66.650222 
L 180.325055 71.838323 
L 180.794783 72.232622 
L 181.175039 68.726993 
L 182.039936 69.534733 
L 183.247809 72.985811 
L 183.546049 71.94264 
L 185.014882 65.928615 
L 186.066178 68.073337 
L 186.737219 63.463286 
L 187.527555 68.446581 
L 188.11658 66.797605 
L 189.361732 60.761569 
L 189.652516 63.54942 
L 190.920037 56.767851 
L 191.270469 58.762317 
L 192.523078 53.658436 
L 192.851142 56.595584 
L 194.141031 53.371324 
L 194.290151 53.614412 
L 195.266888 57.992859 
L 196.124328 56.3257 
L 196.47476 59.805488 
L 197.913769 57.80528 
L 198.65937 60.688834 
L 199.59137 60.159592 
L 200.128203 63.228812 
L 201.350987 61.782728 
L 201.820716 58.34792 
L 202.014572 58.834095 
L 202.387372 56.262535 
L 204.072429 55.793587 
L 205.429422 63.021135 
L 206.846063 61.708079 
L 207.479823 64.109287 
L 208.836816 63.618326 
L 209.314 61.693724 
L 210.380209 63.959032 
L 210.864849 59.925118 
L 211.498609 62.844083 
L 211.960882 60.475415 
L 213.429714 66.410005 
L 214.197683 61.32335 
L 214.697235 61.0037 
L 215.54722 68.204451 
L 216.464308 64.645228 
L 217.038421 72.416373 
L 218.179189 75.885635 
L 218.92479 69.885966 
L 219.886614 71.012399 
L 220.490551 65.882677 
L 220.535287 66.467427 
L 221.720791 69.669675 
L 222.101048 67.735502 
L 222.772088 71.72922 
L 224.106713 67.594818 
L 225.098361 71.012399 
L 225.985626 71.555997 
L 226.679034 68.16904 
L 227.484283 67.93648 
L 227.924187 71.255487 
L 228.408827 72.471882 
L 229.721084 67.94318 
L 229.780732 68.170954 
L 230.489053 64.59929 
L 231.972797 68.849494 
L 232.561822 64.855776 
L 232.874974 65.676914 
L 233.971007 64.224131 
L 235.111775 64.656712 
L 235.387647 67.337375 
L 236.028864 64.965835 
L 238.690657 72.942744 
L 239.070914 71.793342 
L 240.08493 77.775784 
L 240.629218 73.377239 
L 241.121315 81.364675 
L 242.75418 75.643504 
L 243.604164 80.557893 
L 243.671268 79.56066 
L 244.580901 69.322271 
L 245.483077 73.181047 
L 246.735686 66.946903 
L 246.758054 67.408195 
L 248.174695 58.405342 
L 248.547495 60.134709 
L 249.501864 56.463513 
L 250.016328 57.835905 
L 250.530792 53.213413 
L 252.342601 54.097716 
L 252.864522 56.463513 
L 253.155306 55.69884 
L 254.407915 57.928738 
L 255.295179 60.185432 
L 255.496491 56.841543 
L 256.331564 58.290498 
L 257.338124 55.764875 
L 258.038989 57.340159 
L 259.000813 54.95905 
L 259.850798 56.491267 
L 260.037198 53.0689 
L 260.693326 56.290289 
L 261.834095 59.134605 
L 262.482767 55.955326 
L 263.198544 58.64843 
L 264.21256 57.613872 
L 264.809041 54.812623 
L 265.793233 55.077722 
L 266.50901 57.792838 
L 267.806355 55.952455 
L 268.320819 59.586327 
L 268.380467 59.451384 
L 269.8493 61.773158 
L 270.542708 60.183518 
L 271.243573 63.515923 
L 271.638741 60.413207 
L 272.89135 63.494869 
L 273.033014 62.583769 
L 274.248342 65.147673 
L 274.539126 64.480617 
L 275.530775 61.21999 
L 276.649176 60.465844 
L 277.193464 64.393527 
L 278.155289 62.874708 
L 278.774137 60.865886 
L 279.325881 61.612375 
L 279.914906 60.171077 
L 280.981114 61.189365 
L 281.995131 59.764336 
L 282.263547 60.235198 
L 283.09862 63.623112 
L 284.351228 62.91299 
L 284.679292 60.913738 
L 285.365245 61.193193 
L 286.595486 64.855776 
L 286.96083 64.494973 
L 287.59459 62.244977 
L 288.437119 63.741784 
L 289.920864 60.268695 
L 290.606816 60.844831 
L 291.38224 59.243707 
L 291.844513 58.699153 
L 292.336609 60.069631 
L 293.52957 57.739244 
L 294.640514 62.713926 
L 295.803651 58.702981 
L 296.146627 59.558573 
L 297.01898 55.2854 
L 297.69002 57.165979 
L 299.211045 53.875683 
L 299.233413 54.00584 
L 299.479461 45.69971 
L 300.88119 47.969804 
L 301.544774 51.214161 
L 302.446951 48.576566 
L 303.237287 51.071563 
L 303.96052 50.331773 
L 305.310057 45.04414 
L 305.414441 46.23948 
L 305.936361 42.365391 
L 307.986762 42.382618 
L 308.41921 44.853689 
L 308.948587 45.210664 
L 309.425771 40.164205 
L 310.6411 46.02606 
L 311.5731 37.388796 
L 311.901165 39.946957 
L 312.266509 36.719826 
L 313.705518 40.592001 
L 314.137966 37.627098 
L 315.032686 38.317122 
L 315.741007 41.499272 
L 316.486607 39.546915 
L 317.098 42.505119 
L 318.082192 42.229492 
L 318.924721 39.889535 
L 319.364625 40.235026 
L 320.669426 42.84391 
L 321.154066 43.200885 
L 322.00405 39.173671 
L 322.421587 39.633049 
L 322.943507 41.516499 
L 324.330324 40.041704 
L 324.740404 43.105181 
L 325.597845 43.029575 
L 326.477653 39.799573 
L 327.327638 40.966202 
L 328.431126 49.62835 
L 328.915767 45.902602 
L 329.325847 50.527965 
L 330.138551 50.690662 
L 331.585016 46.046158 
L 332.502105 46.193542 
L 332.777977 48.585179 
L 333.404281 47.821463 
L 334.17225 44.085188 
L 334.828378 43.585614 
L 335.834939 48.450237 
L 336.498523 48.585179 
L 337.378332 43.91005 
L 337.937532 43.966515 
L 339.287069 46.318914 
L 339.361629 46.256706 
L 340.159421 37.656766 
L 341.016862 45.67387 
L 341.620798 38.751617 
L 342.604991 38.800426 
L 343.984351 43.799034 
L 344.103648 43.65165 
L 345.080384 47.017551 
L 345.743968 48.292325 
L 346.892193 45.266172 
L 347.168065 45.236504 
L 347.704898 47.36687 
L 348.629442 46.766807 
L 349.852227 43.297546 
L 350.94826 46.764893 
L 351.686404 44.359858 
L 352.774981 42.715667 
L 353.147781 45.125488 
L 353.721893 47.575504 
L 354.668806 44.605816 
L 355.429318 47.182162 
L 355.899046 52.605694 
L 356.555175 49.957571 
L 357.420071 54.747544 
L 358.158216 51.492659 
L 359.202056 56.543904 
L 359.612137 53.072729 
L 360.894569 55.964896 
L 361.08097 54.515941 
L 362.080074 56.901836 
L 363.295403 56.491267 
L 364.041003 60.084943 
L 364.287051 60.606529 
L 364.94318 57.689478 
L 365.815532 57.77274 
L 366.441837 60.155764 
L 367.821197 59.592069 
L 368.044878 56.295074 
L 369.155822 55.847181 
L 369.841775 59.412146 
L 370.259311 58.07325 
L 371.139119 56.721913 
L 371.81016 57.887585 
L 372.906192 55.610792 
L 373.950033 55.761047 
L 374.74037 57.369828 
L 375.888594 58.634074 
L 376.380691 55.860579 
L 376.440339 55.990736 
L 377.543827 52.127175 
L 378.095572 53.367496 
L 378.945556 47.100814 
L 379.489844 47.65111 
L 379.631508 45.050839 
L 381.406038 47.561149 
L 382.710838 43.198014 
L 383.866519 52.801887 
L 384.164759 49.914504 
L 385.521752 63.514966 
L 385.827448 62.569413 
L 387.184441 56.501794 
L 387.698905 55.945756 
L 388.593626 59.209254 
L 388.765114 58.706809 
L 389.398874 63.692975 
L 390.554555 57.355472 
L 391.180859 59.99881 
L 392.194876 58.860892 
L 392.530396 61.632473 
L 394.140893 60.549107 
L 394.670269 59.022632 
L 395.057982 60.54815 
L 396.004894 56.21564 
L 396.586462 55.62132 
L 396.892159 58.799642 
L 398.38336 62.26029 
L 399.53904 54.059434 
L 399.568864 55.86345 
L 401.089889 52.048698 
L 401.097345 52.062097 
L 402.61837 46.873039 
L 403.341602 45.554241 
L 403.863523 48.466506 
L 404.415267 46.958215 
L 405.280164 52.19991 
L 406.152516 53.39525 
L 406.66698 50.191088 
L 407.591525 50.039876 
L 408.762118 53.104311 
L 409.52263 50.537536 
L 410.305511 55.365791 
L 410.357703 54.746587 
L 411.647591 61.544426 
L 411.953288 54.184806 
L 413.138792 63.994442 
L 413.451944 61.741576 
L 414.801481 71.626817 
L 415.040073 68.95094 
L 416.344874 80.153066 
L 417.314155 76.777594 
L 418.037387 83.587874 
L 418.335627 84.474091 
L 418.715884 79.923377 
L 419.632972 83.996529 
L 421.101805 77.020682 
L 421.467149 78.541414 
L 422.123278 73.553334 
L 423.226766 76.617769 
L 423.949999 81.428797 
L 424.583759 81.371375 
L 425.731984 75.526746 
L 425.791632 75.779404 
L 426.96968 79.473569 
L 427.335025 77.871488 
L 428.028433 88.322339 
L 429.400338 79.913806 
L 430.541106 86.352756 
L 431.748979 76.41392 
L 432.300724 78.575868 
L 433.471316 82.11595 
L 433.5757 80.272696 
L 434.052885 84.953567 
L 435.193653 81.006743 
L 436.28223 87.945266 
L 437.437911 92.609868 
L 437.818167 85.41773 
L 438.474295 92.274905 
L 439.637432 81.490047 
L 440.345752 84.030982 
L 441.031705 77.569064 
L 441.359769 82.074797 
L 441.993529 75.38319 
L 442.768954 76.958474 
L 443.439994 83.896997 
L 444.513659 84.637744 
L 445.199611 78.606493 
L 445.982492 79.162532 
L 446.765372 87.58542 
L 448.748669 85.690486 
L 448.905245 81.711123 
L 449.173661 82.465269 
L 449.561374 90.78384 
L 450.50083 89.722485 
L 451.082399 85.351694 
L 452.267903 85.710583 
L 452.842016 82.675817 
L 454.131904 81.129244 
L 454.914785 83.409865 
L 455.608193 81.222077 
L 456.159938 84.141042 
L 456.681858 84.006099 
L 457.524386 81.952297 
L 458.337091 81.5312 
L 458.493667 83.431877 
L 459.902852 82.548531 
L 460.96906 86.605414 
L 461.595365 83.775453 
L 462.072549 85.629235 
L 463.504102 83.122754 
L 464.525575 85.436871 
L 465.077319 83.616585 
L 465.919847 83.841489 
L 466.881672 80.702405 
L 468.193929 82.72654 
L 468.633833 81.622119 
L 469.424169 83.608929 
L 470.535114 81.115846 
L 470.61713 81.83171 
L 471.869739 77.537482 
L 472.093419 78.782588 
L 473.450412 80.935923 
L 474.158732 80.309063 
L 474.978893 83.329474 
L 475.485901 81.597236 
L 476.112205 84.877004 
L 476.984558 84.362117 
L 477.774894 82.607867 
L 478.669615 82.908377 
L 479.788016 86.252267 
L 480.697648 86.573831 
L 481.286672 83.426135 
L 481.428336 83.531409 
L 482.531825 79.441987 
L 483.299794 79.720485 
L 484.000658 81.447938 
L 484.440562 80.935923 
L 485.842291 78.911788 
L 486.75938 80.38754 
L 487.497524 79.211341 
L 487.959796 78.054282 
L 488.325141 79.749196 
L 489.227317 79.423803 
L 490.271158 75.915303 
L 490.800534 76.233997 
L 492.008407 83.194531 
L 492.985143 82.384878 
L 493.320663 84.555439 
L 494.155736 83.098828 
L 494.714936 85.998652 
L 495.393433 84.953567 
L 496.459641 82.353295 
L 496.921914 82.89785 
L 498.204346 93.531495 
L 499.538971 96.914623 
L 499.904315 87.551924 
L 500.538076 95.140275 
L 501.962173 91.092006 
L 502.506461 88.495563 
L 502.983645 90.358915 
L 505.511231 98.429614 
L 505.928767 89.879439 
L 507.047168 92.772564 
L 507.382688 86.246525 
L 508.322144 85.550758 
L 508.985729 88.65156 
L 509.142305 87.489716 
L 510.581314 82.460484 
L 511.699714 83.582132 
L 511.841378 81.188581 
L 512.639171 82.413589 
L 513.071619 81.15317 
L 513.876868 83.025136 
L 515.129476 80.21623 
L 515.755781 79.694645 
L 517.19479 82.175286 
L 517.478118 79.064914 
L 518.53687 79.72527 
L 518.887303 81.22112 
L 520.124999 78.465808 
L 521.370152 81.745576 
L 521.906984 81.50536 
L 522.801705 90.284266 
L 523.092489 89.404749 
L 523.681513 79.68986 
L 524.702986 84.498017 
L 525.597707 92.955358 
L 526.380587 86.294376 
L 527.573548 94.227261 
L 527.827052 92.09211 
L 529.169133 98.555943 
L 529.482285 97.185465 
L 530.026573 103.448319 
L 530.801998 101.595494 
L 531.286638 97.073491 
L 532.337935 99.570403 
L 533.105903 96.650481 
L 533.829135 98.878464 
L 534.82824 96.11454 
L 535.521648 100.239372 
L 536.177777 95.10965 
L 537.579506 95.544145 
L 538.175986 104.131644 
L 538.720274 103.747872 
L 539.272019 97.192164 
L 540.211475 103.381327 
L 540.889972 97.513729 
L 541.911444 98.352094 
L 542.485556 102.092197 
L 543.171509 100.690137 
L 545.124982 93.285536 
L 545.654358 96.787337 
L 546.198647 94.611034 
L 546.936791 92.904635 
L 547.92844 92.806061 
L 548.905176 95.866667 
L 549.494201 93.406123 
L 550.530585 97.22566 
L 551.11961 96.416007 
L 552.327482 90.924525 
L 552.372218 92.903678 
L 553.952891 83.546721 
L 555.123484 87.928997 
L 555.451548 87.238973 
L 556.644509 83.230899 
L 557.062045 83.462502 
L 557.867294 86.433147 
L 558.54579 85.273217 
L 560.066815 90.08616 
L 560.961535 87.069577 
L 562.601856 87.437079 
L 563.019393 91.776288 
L 564.018497 91.282457 
L 564.219809 88.407516 
L 564.92813 90.221102 
L 565.733378 87.577764 
L 566.240386 88.394117 
L 567.560099 93.335302 
L 567.828515 92.645278 
L 569.38682 100.073804 
L 570.855653 95.121135 
L 570.870565 95.168987 
L 571.802566 91.172397 
L 572.063526 91.532243 
L 572.063526 91.532243 
" clip-path="url(#p92a1ad6ef4)" style="fill: none; stroke: #4169e1; stroke-width: 1.5; stroke-linecap: square"/>
   </g>
   <g id="patch_3">
    <path d="M 53.328125 108.747437 
L 53.328125 7.2 
" style="fill: none; stroke: #000000; stroke-width: 0.8; stroke-linejoin: miter; stroke-linecap: square"/>
   </g>
   <g id="patch_4">
    <path d="M 577.19952 108.747437 
L 577.19952 7.2 
" style="fill: none; stroke: #000000; stroke-width: 0.8; stroke-linejoin: miter; stroke-linecap: square"/>
   </g>
   <g id="patch_5">
    <path d="M 53.328125 108.747437 
L 577.19952 108.747437 
" style="fill: none; stroke: #000000; stroke-width: 0.8; stroke-linejoin: miter; stroke-linecap: square"/>
   </g>
   <g id="patch_6">
    <path d="M 53.328125 7.2 
L 577.19952 7.2 
" style="fill: none; stroke: #000000; stroke-width: 0.8; stroke-linejoin: miter; stroke-linecap: square"/>
   </g>
  </g>
  <g id="axes_2">
   <g id="patch_7">
    <path d="M 53.328125 219.795353 
L 577.19952 219.795353 
L 577.19952 118.247917 
L 53.328125 118.247917 
z
" style="fill: #ffffff"/>
   </g>
   <g id="matplotlib.axis_3">
    <g id="xtick_20">
     <g id="line2d_25">
      <g>
       <use xlink:href="#m48dba79e6d" x="58.462822" y="219.795353" style="stroke: #000000; stroke-width: 0.8"/>
      </g>
     </g>
    </g>
    <g id="xtick_21">
     <g id="line2d_26">
      <g>
       <use xlink:href="#m48dba79e6d" x="86.471465" y="219.795353" style="stroke: #000000; stroke-width: 0.8"/>
      </g>
     </g>
    </g>
    <g id="xtick_22">
     <g id="line2d_27">
      <g>
       <use xlink:href="#m48dba79e6d" x="114.480108" y="219.795353" style="stroke: #000000; stroke-width: 0.8"/>
      </g>
     </g>
    </g>
    <g id="xtick_23">
     <g id="line2d_28">
      <g>
       <use xlink:href="#m48dba79e6d" x="142.48875" y="219.795353" style="stroke: #000000; stroke-width: 0.8"/>
      </g>
     </g>
    </g>
    <g id="xtick_24">
     <g id="line2d_29">
      <g>
       <use xlink:href="#m48dba79e6d" x="170.497393" y="219.795353" style="stroke: #000000; stroke-width: 0.8"/>
      </g>
     </g>
    </g>
    <g id="xtick_25">
     <g id="line2d_30">
      <g>
       <use xlink:href="#m48dba79e6d" x="198.506035" y="219.795353" style="stroke: #000000; stroke-width: 0.8"/>
      </g>
     </g>
    </g>
    <g id="xtick_26">
     <g id="line2d_31">
      <g>
       <use xlink:href="#m48dba79e6d" x="226.514678" y="219.795353" style="stroke: #000000; stroke-width: 0.8"/>
      </g>
     </g>
    </g>
    <g id="xtick_27">
     <g id="line2d_32">
      <g>
       <use xlink:href="#m48dba79e6d" x="254.523321" y="219.795353" style="stroke: #000000; stroke-width: 0.8"/>
      </g>
     </g>
    </g>
    <g id="xtick_28">
     <g id="line2d_33">
      <g>
       <use xlink:href="#m48dba79e6d" x="282.531963" y="219.795353" style="stroke: #000000; stroke-width: 0.8"/>
      </g>
     </g>
    </g>
    <g id="xtick_29">
     <g id="line2d_34">
      <g>
       <use xlink:href="#m48dba79e6d" x="310.540606" y="219.795353" style="stroke: #000000; stroke-width: 0.8"/>
      </g>
     </g>
    </g>
    <g id="xtick_30">
     <g id="line2d_35">
      <g>
       <use xlink:href="#m48dba79e6d" x="338.549248" y="219.795353" style="stroke: #000000; stroke-width: 0.8"/>
      </g>
     </g>
    </g>
    <g id="xtick_31">
     <g id="line2d_36">
      <g>
       <use xlink:href="#m48dba79e6d" x="366.557891" y="219.795353" style="stroke: #000000; stroke-width: 0.8"/>
      </g>
     </g>
    </g>
    <g id="xtick_32">
     <g id="line2d_37">
      <g>
       <use xlink:href="#m48dba79e6d" x="394.566534" y="219.795353" style="stroke: #000000; stroke-width: 0.8"/>
      </g>
     </g>
    </g>
    <g id="xtick_33">
     <g id="line2d_38">
      <g>
       <use xlink:href="#m48dba79e6d" x="422.575176" y="219.795353" style="stroke: #000000; stroke-width: 0.8"/>
      </g>
     </g>
    </g>
    <g id="xtick_34">
     <g id="line2d_39">
      <g>
       <use xlink:href="#m48dba79e6d" x="450.583819" y="219.795353" style="stroke: #000000; stroke-width: 0.8"/>
      </g>
     </g>
    </g>
    <g id="xtick_35">
     <g id="line2d_40">
      <g>
       <use xlink:href="#m48dba79e6d" x="478.592461" y="219.795353" style="stroke: #000000; stroke-width: 0.8"/>
      </g>
     </g>
    </g>
    <g id="xtick_36">
     <g id="line2d_41">
      <g>
       <use xlink:href="#m48dba79e6d" x="506.601104" y="219.795353" style="stroke: #000000; stroke-width: 0.8"/>
      </g>
     </g>
    </g>
    <g id="xtick_37">
     <g id="line2d_42">
      <g>
       <use xlink:href="#m48dba79e6d" x="534.609747" y="219.795353" style="stroke: #000000; stroke-width: 0.8"/>
      </g>
     </g>
    </g>
    <g id="xtick_38">
     <g id="line2d_43">
      <g>
       <use xlink:href="#m48dba79e6d" x="562.618389" y="219.795353" style="stroke: #000000; stroke-width: 0.8"/>
      </g>
     </g>
    </g>
   </g>
   <g id="matplotlib.axis_4">
    <g id="ytick_5">
     <g id="line2d_44">
      <g>
       <use xlink:href="#m8cb8f0cde4" x="53.328125" y="209.701825" style="stroke: #000000; stroke-width: 0.8"/>
      </g>
     </g>
     <g id="text_6">
      <!-- 1000 -->
      <g transform="translate(20.878125 213.501044) scale(0.1 -0.1)">
       <defs>
        <path id="DejaVuSans-31" d="M 794 531 
L 1825 531 
L 1825 4091 
L 703 3866 
L 703 4441 
L 1819 4666 
L 2450 4666 
L 2450 531 
L 3481 531 
L 3481 0 
L 794 0 
L 794 531 
z
" transform="scale(0.015625)"/>
       </defs>
       <use xlink:href="#DejaVuSans-31"/>
       <use xlink:href="#DejaVuSans-30" transform="translate(63.623047 0)"/>
       <use xlink:href="#DejaVuSans-30" transform="translate(127.246094 0)"/>
       <use xlink:href="#DejaVuSans-30" transform="translate(190.869141 0)"/>
      </g>
     </g>
    </g>
    <g id="ytick_6">
     <g id="line2d_45">
      <g>
       <use xlink:href="#m8cb8f0cde4" x="53.328125" y="171.014612" style="stroke: #000000; stroke-width: 0.8"/>
      </g>
     </g>
     <g id="text_7">
      <!-- 1100 -->
      <g transform="translate(20.878125 174.81383) scale(0.1 -0.1)">
       <use xlink:href="#DejaVuSans-31"/>
       <use xlink:href="#DejaVuSans-31" transform="translate(63.623047 0)"/>
       <use xlink:href="#DejaVuSans-30" transform="translate(127.246094 0)"/>
       <use xlink:href="#DejaVuSans-30" transform="translate(190.869141 0)"/>
      </g>
     </g>
    </g>
    <g id="ytick_7">
     <g id="line2d_46">
      <g>
       <use xlink:href="#m8cb8f0cde4" x="53.328125" y="132.327399" style="stroke: #000000; stroke-width: 0.8"/>
      </g>
     </g>
     <g id="text_8">
      <!-- 1200 -->
      <g transform="translate(20.878125 136.126617) scale(0.1 -0.1)">
       <use xlink:href="#DejaVuSans-31"/>
       <use xlink:href="#DejaVuSans-32" transform="translate(63.623047 0)"/>
       <use xlink:href="#DejaVuSans-30" transform="translate(127.246094 0)"/>
       <use xlink:href="#DejaVuSans-30" transform="translate(190.869141 0)"/>
      </g>
     </g>
    </g>
    <g id="text_9">
     <!-- Equity -->
     <g transform="translate(14.798438 184.832572) rotate(-90) scale(0.1 -0.1)">
      <defs>
       <path id="DejaVuSans-45" d="M 628 4666 
L 3578 4666 
L 3578 4134 
L 1259 4134 
L 1259 2753 
L 3481 2753 
L 3481 2222 
L 1259 2222 
L 1259 531 
L 3634 531 
L 3634 0 
L 628 0 
L 628 4666 
z
" transform="scale(0.015625)"/>
       <path id="DejaVuSans-71" d="M 947 1747 
Q 947 1113 1208 752 
Q 1469 391 1925 391 
Q 2381 391 2643 752 
Q 2906 1113 2906 1747 
Q 2906 2381 2643 2742 
Q 2381 3103 1925 3103 
Q 1469 3103 1208 2742 
Q 947 2381 947 1747 
z
M 2906 525 
Q 2725 213 2448 61 
Q 2172 -91 1784 -91 
Q 1150 -91 751 415 
Q 353 922 353 1747 
Q 353 2572 751 3078 
Q 1150 3584 1784 3584 
Q 2172 3584 2448 3432 
Q 2725 3281 2906 2969 
L 2906 3500 
L 3481 3500 
L 3481 -1331 
L 2906 -1331 
L 2906 525 
z
" transform="scale(0.015625)"/>
       <path id="DejaVuSans-75" d="M 544 1381 
L 544 3500 
L 1119 3500 
L 1119 1403 
Q 1119 906 1312 657 
Q 1506 409 1894 409 
Q 2359 409 2629 706 
Q 2900 1003 2900 1516 
L 2900 3500 
L 3475 3500 
L 3475 0 
L 2900 0 
L 2900 538 
Q 2691 219 2414 64 
Q 2138 -91 1772 -91 
Q 1169 -91 856 284 
Q 544 659 544 1381 
z
M 1991 3584 
L 1991 3584 
z
" transform="scale(0.015625)"/>
       <path id="DejaVuSans-74" d="M 1172 4494 
L 1172 3500 
L 2356 3500 
L 2356 3053 
L 1172 3053 
L 1172 1153 
Q 1172 725 1289 603 
Q 1406 481 1766 481 
L 2356 481 
L 2356 0 
L 1766 0 
Q 1100 0 847 248 
Q 594 497 594 1153 
L 594 3053 
L 172 3053 
L 172 3500 
L 594 3500 
L 594 4494 
L 1172 4494 
z
" transform="scale(0.015625)"/>
       <path id="DejaVuSans-79" d="M 2059 -325 
Q 1816 -950 1584 -1140 
Q 1353 -1331 966 -1331 
L 506 -1331 
L 506 -850 
L 844 -850 
Q 1081 -850 1212 -737 
Q 1344 -625 1503 -206 
L 1606 56 
L 191 3500 
L 800 3500 
L 1894 763 
L 2988 3500 
L 3597 3500 
L 2059 -325 
z
" transform="scale(0.015625)"/>
      </defs>
      <use xlink:href="#DejaVuSans-45"/>
      <use xlink:href="#DejaVuSans-71" transform="translate(63.183594 0)"/>
      <use xlink:href="#DejaVuSans-75" transform="translate(126.660156 0)"/>
      <use xlink:href="#DejaVuSans-69" transform="translate(190.039062 0)"/>
      <use xlink:href="#DejaVuSans-74" transform="translate(217.822266 0)"/>
      <use xlink:href="#DejaVuSans-79" transform="translate(257.03125 0)"/>
     </g>
    </g>
   </g>
   <g id="line2d_47">
    <path d="M 58.464119 209.701825 
L 103.222513 209.701825 
L 104.631698 210.754735 
L 104.765906 210.428864 
L 105.466771 207.955253 
L 106.309299 210.234344 
L 107.338228 208.863681 
L 108.389525 210.426859 
L 109.515381 208.148771 
L 110.87983 209.73501 
L 111.28991 208.822571 
L 111.975863 210.564226 
L 112.952599 208.360336 
L 113.62364 211.987029 
L 114.689848 215.179561 
L 115.584569 210.72666 
L 116.978842 206.315872 
L 117.11305 207.398766 
L 117.74681 202.508697 
L 118.656443 204.164121 
L 123.279165 204.164121 
L 124.076958 204.502055 
L 124.770366 201.519342 
L 125.150622 206.925642 
L 126.082623 202.48011 
L 127.312864 199.391701 
L 127.640928 204.911095 
L 128.043552 202.50442 
L 128.818977 205.758769 
L 129.892641 202.397668 
L 130.981218 207.686646 
L 131.003586 207.05459 
L 132.539523 197.542039 
L 132.546979 197.980673 
L 132.964515 190.663407 
L 134.090372 191.486771 
L 185.022338 191.486771 
L 186.543363 195.30983 
L 186.737219 197.202817 
L 187.527555 190.864049 
L 188.11658 192.961552 
L 189.361732 200.63941 
L 189.652516 198.827986 
L 194.275239 198.827986 
L 194.916456 199.188231 
L 195.266888 196.398207 
L 196.124328 198.404905 
L 196.47476 194.216413 
L 197.913769 196.62399 
L 198.65937 193.153163 
L 199.59137 193.790192 
L 200.128203 190.095886 
L 201.350987 191.836484 
L 201.820716 195.970834 
L 202.014572 195.385643 
L 202.387372 198.480934 
L 204.072429 199.04539 
L 205.429422 190.34586 
L 206.846063 191.926336 
L 207.479823 189.036092 
L 208.836816 189.627043 
L 209.314 191.943615 
L 210.380209 189.216948 
L 210.864849 194.072419 
L 211.498609 190.558971 
L 211.960882 193.410048 
L 213.429714 186.266803 
L 214.197683 192.38942 
L 214.697235 192.774171 
L 215.54722 184.106896 
L 215.890196 185.992639 
L 234.410911 185.992639 
L 236.028864 187.96426 
L 238.690657 177.726769 
L 239.070914 179.201901 
L 239.682306 174.331877 
L 263.72792 174.331877 
L 264.809041 175.851709 
L 265.241489 173.765278 
L 265.793233 175.512939 
L 266.50901 172.0433 
L 267.806355 174.395121 
L 268.320819 169.751406 
L 268.380467 169.923849 
L 269.8493 166.956861 
L 270.542708 168.988257 
L 271.243573 164.729786 
L 271.638741 168.694738 
L 272.89135 164.756692 
L 273.033014 165.920984 
L 274.248342 162.644578 
L 274.539126 163.497006 
L 275.530775 167.663753 
L 276.649176 168.627473 
L 277.193464 163.608299 
L 278.155289 165.549193 
L 278.774137 168.116261 
L 279.325881 167.162324 
L 279.914906 169.004156 
L 280.981114 167.702888 
L 303.863592 167.702888 
L 305.310057 171.578846 
L 305.414441 170.063568 
L 305.936361 174.974571 
L 307.986762 174.952733 
L 308.41921 171.820271 
L 308.948587 171.36775 
L 309.425771 177.764913 
L 310.6411 170.33411 
L 311.5731 181.283171 
L 311.901165 178.040308 
L 312.266509 182.131192 
L 313.705518 177.222616 
L 314.137966 180.981086 
L 315.032686 180.106374 
L 315.741007 176.07251 
L 316.486607 178.547422 
L 317.098 174.797445 
L 318.082192 175.146844 
L 318.924721 178.113099 
L 319.364625 177.675137 
L 320.669426 174.367975 
L 321.154066 173.915454 
L 322.00405 179.020567 
L 322.421587 178.438235 
L 322.943507 176.050672 
L 324.330324 177.920202 
L 324.740404 174.036773 
L 325.597845 174.132615 
L 326.477653 178.227139 
L 327.327638 176.748258 
L 328.431126 165.767654 
L 328.915767 170.490612 
L 329.325847 164.627254 
L 330.138551 164.421011 
L 331.585016 170.308633 
L 332.502105 170.121802 
L 332.777977 167.090034 
L 333.404281 168.058162 
L 334.17225 172.794464 
L 334.828378 173.427751 
L 335.834939 167.261094 
L 336.498523 167.090034 
L 337.162107 171.377456 
L 339.354173 171.377456 
L 340.159421 178.471532 
L 341.016862 168.534408 
L 341.143614 171.890278 
L 347.071137 171.890278 
L 348.42813 172.296078 
L 348.584706 170.382847 
L 348.629442 170.792228 
L 349.852227 175.11878 
L 350.94826 170.794616 
L 351.686404 173.79396 
L 352.774981 175.844447 
L 353.147781 172.839135 
L 353.721893 169.783694 
L 354.668806 173.487223 
L 355.429318 170.274236 
L 355.899046 163.510493 
L 356.555175 166.812995 
L 356.674471 162.032901 
L 364.048459 162.032901 
L 364.287051 160.52294 
L 364.94318 164.399916 
L 365.815532 164.289254 
L 366.441837 161.122039 
L 367.314189 163.611292 
L 367.336557 162.240104 
L 368.686094 162.821396 
L 370.222031 162.821396 
L 371.139119 163.144069 
L 371.355344 161.687491 
L 371.81016 161.60937 
L 372.906192 164.606947 
L 373.950033 164.409124 
L 374.74037 162.291038 
L 375.888594 160.626558 
L 376.380691 164.278083 
L 376.440339 164.10672 
L 377.543827 169.193403 
L 378.095572 167.560423 
L 378.945556 175.811004 
L 379.489844 175.086495 
L 379.631508 178.509957 
L 381.406038 175.204936 
L 382.710838 180.949347 
L 383.866519 168.305092 
L 384.164759 172.106558 
L 384.843256 163.828257 
L 385.663416 164.172241 
L 394.916317 164.172241 
L 395.057982 162.366467 
L 396.004894 168.091276 
L 396.586462 168.876587 
L 396.765407 164.737577 
L 398.010559 165.263647 
L 401.097345 165.263647 
L 402.61837 167.076194 
L 402.871874 165.536787 
L 403.341602 168.758432 
L 404.184131 166.303438 
L 405.727524 166.303438 
L 406.66698 169.148266 
L 407.591525 169.34305 
L 408.762118 165.39559 
L 409.52263 168.701988 
L 410.305511 162.482459 
L 410.357703 163.280087 
L 411.647591 154.523434 
L 411.953288 164.003747 
L 412.169512 155.889388 
L 413.444488 157.0396 
L 461.282213 157.0396 
L 461.953253 158.019169 
L 462.072549 155.610456 
L 463.504102 159.261162 
L 464.525575 155.890636 
L 465.077319 158.541893 
L 465.919847 158.21432 
L 466.881672 162.786414 
L 468.193929 159.838249 
L 468.633833 161.446846 
L 469.193033 162.029509 
L 469.424169 158.553045 
L 470.550026 158.783044 
L 479.802928 158.783044 
L 481.062992 157.96301 
L 481.286672 161.361097 
L 481.428336 161.208093 
L 482.106833 166.125095 
L 482.897169 165.686947 
L 489.063285 165.686947 
L 490.278614 165.902497 
L 490.465014 164.284093 
L 490.800534 165.460027 
L 492.008407 155.796105 
L 492.985143 156.920219 
L 493.320663 153.906638 
L 494.155736 155.928979 
L 494.714936 151.902899 
L 495.393433 153.353882 
L 496.459641 156.964067 
L 496.921914 156.208015 
L 497.294714 145.637893 
L 498.331098 146.360727 
L 499.867035 146.360727 
L 499.904315 147.51569 
L 500.515708 137.302707 
L 515.300964 137.302707 
L 516.411909 138.343634 
L 516.739973 136.02337 
L 517.19479 135.044374 
L 517.478118 139.716529 
L 518.53687 138.724594 
L 518.887303 136.477648 
L 520.124999 140.616457 
L 521.370152 135.689851 
L 521.906984 136.050685 
L 522.801705 122.863709 
L 523.092489 124.184851 
L 523.681513 138.777785 
L 524.613514 126.548242 
L 524.680618 131.522289 
L 526.112171 131.266399 
L 563.146145 131.266399 
L 564.018497 128.248915 
L 564.219809 132.75208 
L 564.92813 129.911368 
L 565.733378 134.051761 
L 566.240386 132.773066 
L 567.560099 125.03344 
L 567.813603 125.55811 
L 567.828515 126.11426 
L 569.327172 125.983842 
L 572.063526 125.983842 
L 572.063526 125.983842 
" clip-path="url(#p2ec7d62660)" style="fill: none; stroke: #2e8b57; stroke-width: 1.5; stroke-linecap: square"/>
   </g>
   <g id="patch_8">
    <path d="M 53.328125 219.795353 
L 53.328125 118.247917 
" style="fill: none; stroke: #000000; stroke-width: 0.8; stroke-linejoin: miter; stroke-linecap: square"/>
   </g>
   <g id="patch_9">
    <path d="M 577.19952 219.795353 
L 577.19952 118.247917 
" style="fill: none; stroke: #000000; stroke-width: 0.8; stroke-linejoin: miter; stroke-linecap: square"/>
   </g>
   <g id="patch_10">
    <path d="M 53.328125 219.795353 
L 577.19952 219.795353 
" style="fill: none; stroke: #000000; stroke-width: 0.8; stroke-linejoin: miter; stroke-linecap: square"/>
   </g>
   <g id="patch_11">
    <path d="M 53.328125 118.247917 
L 577.19952 118.247917 
" style="fill: none; stroke: #000000; stroke-width: 0.8; stroke-linejoin: miter; stroke-linecap: square"/>
   </g>
  </g>
  <g id="axes_3">
   <g id="patch_12">
    <path d="M 53.328125 330.84327 
L 577.19952 330.84327 
L 577.19952 229.295833 
L 53.328125 229.295833 
z
" style="fill: #ffffff"/>
   </g>
   <g id="matplotlib.axis_5">
    <g id="xtick_39">
     <g id="line2d_48">
      <g>
       <use xlink:href="#m48dba79e6d" x="58.462822" y="330.84327" style="stroke: #000000; stroke-width: 0.8"/>
      </g>
     </g>
     <g id="text_10">
      <!-- Nov -->
      <g transform="translate(48.703447 345.441707) scale(0.1 -0.1)">
       <defs>
        <path id="DejaVuSans-4e" d="M 628 4666 
L 1478 4666 
L 3547 763 
L 3547 4666 
L 4159 4666 
L 4159 0 
L 3309 0 
L 1241 3903 
L 1241 0 
L 628 0 
L 628 4666 
z
" transform="scale(0.015625)"/>
        <path id="DejaVuSans-6f" d="M 1959 3097 
Q 1497 3097 1228 2736 
Q 959 2375 959 1747 
Q 959 1119 1226 758 
Q 1494 397 1959 397 
Q 2419 397 2687 759 
Q 2956 1122 2956 1747 
Q 2956 2369 2687 2733 
Q 2419 3097 1959 3097 
z
M 1959 3584 
Q 2709 3584 3137 3096 
Q 3566 2609 3566 1747 
Q 3566 888 3137 398 
Q 2709 -91 1959 -91 
Q 1206 -91 779 398 
Q 353 888 353 1747 
Q 353 2609 779 3096 
Q 1206 3584 1959 3584 
z
" transform="scale(0.015625)"/>
        <path id="DejaVuSans-76" d="M 191 3500 
L 800 3500 
L 1894 563 
L 2988 3500 
L 3597 3500 
L 2284 0 
L 1503 0 
L 191 3500 
z
" transform="scale(0.015625)"/>
       </defs>
       <use xlink:href="#DejaVuSans-4e"/>
       <use xlink:href="#DejaVuSans-6f" transform="translate(74.804688 0)"/>
       <use xlink:href="#DejaVuSans-76" transform="translate(135.986328 0)"/>
      </g>
     </g>
    </g>
    <g id="xtick_40">
     <g id="line2d_49">
      <g>
       <use xlink:href="#m48dba79e6d" x="86.471465" y="330.84327" style="stroke: #000000; stroke-width: 0.8"/>
      </g>
     </g>
     <g id="text_11">
      <!-- 02 -->
      <g transform="translate(80.108965 345.441707) scale(0.1 -0.1)">
       <use xlink:href="#DejaVuSans-30"/>
       <use xlink:href="#DejaVuSans-32" transform="translate(63.623047 0)"/>
      </g>
     </g>
    </g>
    <g id="xtick_41">
     <g id="line2d_50">
      <g>
       <use xlink:href="#m48dba79e6d" x="114.480108" y="330.84327" style="stroke: #000000; stroke-width: 0.8"/>
      </g>
     </g>
     <g id="text_12">
      <!-- 03 -->
      <g transform="translate(108.117608 345.441707) scale(0.1 -0.1)">
       <use xlink:href="#DejaVuSans-30"/>
       <use xlink:href="#DejaVuSans-33" transform="translate(63.623047 0)"/>
      </g>
     </g>
    </g>
    <g id="xtick_42">
     <g id="line2d_51">
      <g>
       <use xlink:href="#m48dba79e6d" x="142.48875" y="330.84327" style="stroke: #000000; stroke-width: 0.8"/>
      </g>
     </g>
     <g id="text_13">
      <!-- 04 -->
      <g transform="translate(136.12625 345.441707) scale(0.1 -0.1)">
       <defs>
        <path id="DejaVuSans-34" d="M 2419 4116 
L 825 1625 
L 2419 1625 
L 2419 4116 
z
M 2253 4666 
L 3047 4666 
L 3047 1625 
L 3713 1625 
L 3713 1100 
L 3047 1100 
L 3047 0 
L 2419 0 
L 2419 1100 
L 313 1100 
L 313 1709 
L 2253 4666 
z
" transform="scale(0.015625)"/>
       </defs>
       <use xlink:href="#DejaVuSans-30"/>
       <use xlink:href="#DejaVuSans-34" transform="translate(63.623047 0)"/>
      </g>
     </g>
    </g>
    <g id="xtick_43">
     <g id="line2d_52">
      <g>
       <use xlink:href="#m48dba79e6d" x="170.497393" y="330.84327" style="stroke: #000000; stroke-width: 0.8"/>
      </g>
     </g>
     <g id="text_14">
      <!-- 05 -->
      <g transform="translate(164.134893 345.441707) scale(0.1 -0.1)">
       <use xlink:href="#DejaVuSans-30"/>
       <use xlink:href="#DejaVuSans-35" transform="translate(63.623047 0)"/>
      </g>
     </g>
    </g>
    <g id="xtick_44">
     <g id="line2d_53">
      <g>
       <use xlink:href="#m48dba79e6d" x="198.506035" y="330.84327" style="stroke: #000000; stroke-width: 0.8"/>
      </g>
     </g>
     <g id="text_15">
      <!-- 06 -->
      <g transform="translate(192.143535 345.441707) scale(0.1 -0.1)">
       <defs>
        <path id="DejaVuSans-36" d="M 2113 2584 
Q 1688 2584 1439 2293 
Q 1191 2003 1191 1497 
Q 1191 994 1439 701 
Q 1688 409 2113 409 
Q 2538 409 2786 701 
Q 3034 994 3034 1497 
Q 3034 2003 2786 2293 
Q 2538 2584 2113 2584 
z
M 3366 4563 
L 3366 3988 
Q 3128 4100 2886 4159 
Q 2644 4219 2406 4219 
Q 1781 4219 1451 3797 
Q 1122 3375 1075 2522 
Q 1259 2794 1537 2939 
Q 1816 3084 2150 3084 
Q 2853 3084 3261 2657 
Q 3669 2231 3669 1497 
Q 3669 778 3244 343 
Q 2819 -91 2113 -91 
Q 1303 -91 875 529 
Q 447 1150 447 2328 
Q 447 3434 972 4092 
Q 1497 4750 2381 4750 
Q 2619 4750 2861 4703 
Q 3103 4656 3366 4563 
z
" transform="scale(0.015625)"/>
       </defs>
       <use xlink:href="#DejaVuSans-30"/>
       <use xlink:href="#DejaVuSans-36" transform="translate(63.623047 0)"/>
      </g>
     </g>
    </g>
    <g id="xtick_45">
     <g id="line2d_54">
      <g>
       <use xlink:href="#m48dba79e6d" x="226.514678" y="330.84327" style="stroke: #000000; stroke-width: 0.8"/>
      </g>
     </g>
     <g id="text_16">
      <!-- 07 -->
      <g transform="translate(220.152178 345.441707) scale(0.1 -0.1)">
       <use xlink:href="#DejaVuSans-30"/>
       <use xlink:href="#DejaVuSans-37" transform="translate(63.623047 0)"/>
      </g>
     </g>
    </g>
    <g id="xtick_46">
     <g id="line2d_55">
      <g>
       <use xlink:href="#m48dba79e6d" x="254.523321" y="330.84327" style="stroke: #000000; stroke-width: 0.8"/>
      </g>
     </g>
     <g id="text_17">
      <!-- 08 -->
      <g transform="translate(248.160821 345.441707) scale(0.1 -0.1)">
       <defs>
        <path id="DejaVuSans-38" d="M 2034 2216 
Q 1584 2216 1326 1975 
Q 1069 1734 1069 1313 
Q 1069 891 1326 650 
Q 1584 409 2034 409 
Q 2484 409 2743 651 
Q 3003 894 3003 1313 
Q 3003 1734 2745 1975 
Q 2488 2216 2034 2216 
z
M 1403 2484 
Q 997 2584 770 2862 
Q 544 3141 544 3541 
Q 544 4100 942 4425 
Q 1341 4750 2034 4750 
Q 2731 4750 3128 4425 
Q 3525 4100 3525 3541 
Q 3525 3141 3298 2862 
Q 3072 2584 2669 2484 
Q 3125 2378 3379 2068 
Q 3634 1759 3634 1313 
Q 3634 634 3220 271 
Q 2806 -91 2034 -91 
Q 1263 -91 848 271 
Q 434 634 434 1313 
Q 434 1759 690 2068 
Q 947 2378 1403 2484 
z
M 1172 3481 
Q 1172 3119 1398 2916 
Q 1625 2713 2034 2713 
Q 2441 2713 2670 2916 
Q 2900 3119 2900 3481 
Q 2900 3844 2670 4047 
Q 2441 4250 2034 4250 
Q 1625 4250 1398 4047 
Q 1172 3844 1172 3481 
z
" transform="scale(0.015625)"/>
       </defs>
       <use xlink:href="#DejaVuSans-30"/>
       <use xlink:href="#DejaVuSans-38" transform="translate(63.623047 0)"/>
      </g>
     </g>
    </g>
    <g id="xtick_47">
     <g id="line2d_56">
      <g>
       <use xlink:href="#m48dba79e6d" x="282.531963" y="330.84327" style="stroke: #000000; stroke-width: 0.8"/>
      </g>
     </g>
     <g id="text_18">
      <!-- 09 -->
      <g transform="translate(276.169463 345.441707) scale(0.1 -0.1)">
       <defs>
        <path id="DejaVuSans-39" d="M 703 97 
L 703 672 
Q 941 559 1184 500 
Q 1428 441 1663 441 
Q 2288 441 2617 861 
Q 2947 1281 2994 2138 
Q 2813 1869 2534 1725 
Q 2256 1581 1919 1581 
Q 1219 1581 811 2004 
Q 403 2428 403 3163 
Q 403 3881 828 4315 
Q 1253 4750 1959 4750 
Q 2769 4750 3195 4129 
Q 3622 3509 3622 2328 
Q 3622 1225 3098 567 
Q 2575 -91 1691 -91 
Q 1453 -91 1209 -44 
Q 966 3 703 97 
z
M 1959 2075 
Q 2384 2075 2632 2365 
Q 2881 2656 2881 3163 
Q 2881 3666 2632 3958 
Q 2384 4250 1959 4250 
Q 1534 4250 1286 3958 
Q 1038 3666 1038 3163 
Q 1038 2656 1286 2365 
Q 1534 2075 1959 2075 
z
" transform="scale(0.015625)"/>
       </defs>
       <use xlink:href="#DejaVuSans-30"/>
       <use xlink:href="#DejaVuSans-39" transform="translate(63.623047 0)"/>
      </g>
     </g>
    </g>
    <g id="xtick_48">
     <g id="line2d_57">
      <g>
       <use xlink:href="#m48dba79e6d" x="310.540606" y="330.84327" style="stroke: #000000; stroke-width: 0.8"/>
      </g>
     </g>
     <g id="text_19">
      <!-- 10 -->
      <g transform="translate(304.178106 345.441707) scale(0.1 -0.1)">
       <use xlink:href="#DejaVuSans-31"/>
       <use xlink:href="#DejaVuSans-30" transform="translate(63.623047 0)"/>
      </g>
     </g>
    </g>
    <g id="xtick_49">
     <g id="line2d_58">
      <g>
       <use xlink:href="#m48dba79e6d" x="338.549248" y="330.84327" style="stroke: #000000; stroke-width: 0.8"/>
      </g>
     </g>
     <g id="text_20">
      <!-- 11 -->
      <g transform="translate(332.186748 345.441707) scale(0.1 -0.1)">
       <use xlink:href="#DejaVuSans-31"/>
       <use xlink:href="#DejaVuSans-31" transform="translate(63.623047 0)"/>
      </g>
     </g>
    </g>
    <g id="xtick_50">
     <g id="line2d_59">
      <g>
       <use xlink:href="#m48dba79e6d" x="366.557891" y="330.84327" style="stroke: #000000; stroke-width: 0.8"/>
      </g>
     </g>
     <g id="text_21">
      <!-- 12 -->
      <g transform="translate(360.195391 345.441707) scale(0.1 -0.1)">
       <use xlink:href="#DejaVuSans-31"/>
       <use xlink:href="#DejaVuSans-32" transform="translate(63.623047 0)"/>
      </g>
     </g>
    </g>
    <g id="xtick_51">
     <g id="line2d_60">
      <g>
       <use xlink:href="#m48dba79e6d" x="394.566534" y="330.84327" style="stroke: #000000; stroke-width: 0.8"/>
      </g>
     </g>
     <g id="text_22">
      <!-- 13 -->
      <g transform="translate(388.204034 345.441707) scale(0.1 -0.1)">
       <use xlink:href="#DejaVuSans-31"/>
       <use xlink:href="#DejaVuSans-33" transform="translate(63.623047 0)"/>
      </g>
     </g>
    </g>
    <g id="xtick_52">
     <g id="line2d_61">
      <g>
       <use xlink:href="#m48dba79e6d" x="422.575176" y="330.84327" style="stroke: #000000; stroke-width: 0.8"/>
      </g>
     </g>
     <g id="text_23">
      <!-- 14 -->
      <g transform="translate(416.212676 345.441707) scale(0.1 -0.1)">
       <use xlink:href="#DejaVuSans-31"/>
       <use xlink:href="#DejaVuSans-34" transform="translate(63.623047 0)"/>
      </g>
     </g>
    </g>
    <g id="xtick_53">
     <g id="line2d_62">
      <g>
       <use xlink:href="#m48dba79e6d" x="450.583819" y="330.84327" style="stroke: #000000; stroke-width: 0.8"/>
      </g>
     </g>
     <g id="text_24">
      <!-- 15 -->
      <g transform="translate(444.221319 345.441707) scale(0.1 -0.1)">
       <use xlink:href="#DejaVuSans-31"/>
       <use xlink:href="#DejaVuSans-35" transform="translate(63.623047 0)"/>
      </g>
     </g>
    </g>
    <g id="xtick_54">
     <g id="line2d_63">
      <g>
       <use xlink:href="#m48dba79e6d" x="478.592461" y="330.84327" style="stroke: #000000; stroke-width: 0.8"/>
      </g>
     </g>
     <g id="text_25">
      <!-- 16 -->
      <g transform="translate(472.229961 345.441707) scale(0.1 -0.1)">
       <use xlink:href="#DejaVuSans-31"/>
       <use xlink:href="#DejaVuSans-36" transform="translate(63.623047 0)"/>
      </g>
     </g>
    </g>
    <g id="xtick_55">
     <g id="line2d_64">
      <g>
       <use xlink:href="#m48dba79e6d" x="506.601104" y="330.84327" style="stroke: #000000; stroke-width: 0.8"/>
      </g>
     </g>
     <g id="text_26">
      <!-- 17 -->
      <g transform="translate(500.238604 345.441707) scale(0.1 -0.1)">
       <use xlink:href="#DejaVuSans-31"/>
       <use xlink:href="#DejaVuSans-37" transform="translate(63.623047 0)"/>
      </g>
     </g>
    </g>
    <g id="xtick_56">
     <g id="line2d_65">
      <g>
       <use xlink:href="#m48dba79e6d" x="534.609747" y="330.84327" style="stroke: #000000; stroke-width: 0.8"/>
      </g>
     </g>
     <g id="text_27">
      <!-- 18 -->
      <g transform="translate(528.247247 345.441707) scale(0.1 -0.1)">
       <use xlink:href="#DejaVuSans-31"/>
       <use xlink:href="#DejaVuSans-38" transform="translate(63.623047 0)"/>
      </g>
     </g>
    </g>
    <g id="xtick_57">
     <g id="line2d_66">
      <g>
       <use xlink:href="#m48dba79e6d" x="562.618389" y="330.84327" style="stroke: #000000; stroke-width: 0.8"/>
      </g>
     </g>
     <g id="text_28">
      <!-- 19 -->
      <g transform="translate(556.255889 345.441707) scale(0.1 -0.1)">
       <use xlink:href="#DejaVuSans-31"/>
       <use xlink:href="#DejaVuSans-39" transform="translate(63.623047 0)"/>
      </g>
     </g>
    </g>
    <g id="text_29">
     <!-- Time -->
     <g transform="translate(303.030229 359.119832) scale(0.1 -0.1)">
      <defs>
       <path id="DejaVuSans-54" d="M -19 4666 
L 3928 4666 
L 3928 4134 
L 2272 4134 
L 2272 0 
L 1638 0 
L 1638 4134 
L -19 4134 
L -19 4666 
z
" transform="scale(0.015625)"/>
       <path id="DejaVuSans-6d" d="M 3328 2828 
Q 3544 3216 3844 3400 
Q 4144 3584 4550 3584 
Q 5097 3584 5394 3201 
Q 5691 2819 5691 2113 
L 5691 0 
L 5113 0 
L 5113 2094 
Q 5113 2597 4934 2840 
Q 4756 3084 4391 3084 
Q 3944 3084 3684 2787 
Q 3425 2491 3425 1978 
L 3425 0 
L 2847 0 
L 2847 2094 
Q 2847 2600 2669 2842 
Q 2491 3084 2119 3084 
Q 1678 3084 1418 2786 
Q 1159 2488 1159 1978 
L 1159 0 
L 581 0 
L 581 3500 
L 1159 3500 
L 1159 2956 
Q 1356 3278 1631 3431 
Q 1906 3584 2284 3584 
Q 2666 3584 2933 3390 
Q 3200 3197 3328 2828 
z
" transform="scale(0.015625)"/>
      </defs>
      <use xlink:href="#DejaVuSans-54"/>
      <use xlink:href="#DejaVuSans-69" transform="translate(57.958984 0)"/>
      <use xlink:href="#DejaVuSans-6d" transform="translate(85.742188 0)"/>
      <use xlink:href="#DejaVuSans-65" transform="translate(183.154297 0)"/>
     </g>
    </g>
    <g id="text_30">
     <!-- 2025-Nov -->
     <g transform="translate(528.622957 358.119832) scale(0.1 -0.1)">
      <defs>
       <path id="DejaVuSans-2d" d="M 313 2009 
L 1997 2009 
L 1997 1497 
L 313 1497 
L 313 2009 
z
" transform="scale(0.015625)"/>
      </defs>
      <use xlink:href="#DejaVuSans-32"/>
      <use xlink:href="#DejaVuSans-30" transform="translate(63.623047 0)"/>
      <use xlink:href="#DejaVuSans-32" transform="translate(127.246094 0)"/>
      <use xlink:href="#DejaVuSans-35" transform="translate(190.869141 0)"/>
      <use xlink:href="#DejaVuSans-2d" transform="translate(254.492188 0)"/>
      <use xlink:href="#DejaVuSans-4e" transform="translate(290.576172 0)"/>
      <use xlink:href="#DejaVuSans-6f" transform="translate(365.380859 0)"/>
      <use xlink:href="#DejaVuSans-76" transform="translate(426.5625 0)"/>
     </g>
    </g>
   </g>
   <g id="matplotlib.axis_6">
    <g id="ytick_8">
     <g id="line2d_67">
      <g>
       <use xlink:href="#m8cb8f0cde4" x="53.328125" y="312.739822" style="stroke: #000000; stroke-width: 0.8"/>
      </g>
     </g>
     <g id="text_31">
      <!-- 4 -->
      <g transform="translate(31.585938 316.539041) scale(0.1 -0.1)">
       <defs>
        <path id="DejaVuSans-2212" d="M 678 2272 
L 4684 2272 
L 4684 1741 
L 678 1741 
L 678 2272 
z
" transform="scale(0.015625)"/>
       </defs>
       <use xlink:href="#DejaVuSans-2212"/>
       <use xlink:href="#DejaVuSans-34" transform="translate(83.789062 0)"/>
      </g>
     </g>
    </g>
    <g id="ytick_9">
     <g id="line2d_68">
      <g>
       <use xlink:href="#m8cb8f0cde4" x="53.328125" y="273.325724" style="stroke: #000000; stroke-width: 0.8"/>
      </g>
     </g>
     <g id="text_32">
      <!-- 2 -->
      <g transform="translate(31.585938 277.124943) scale(0.1 -0.1)">
       <use xlink:href="#DejaVuSans-2212"/>
       <use xlink:href="#DejaVuSans-32" transform="translate(83.789062 0)"/>
      </g>
     </g>
    </g>
    <g id="ytick_10">
     <g id="line2d_69">
      <g>
       <use xlink:href="#m8cb8f0cde4" x="53.328125" y="233.911626" style="stroke: #000000; stroke-width: 0.8"/>
      </g>
     </g>
     <g id="text_33">
      <!-- 0 -->
      <g transform="translate(39.965625 237.710845) scale(0.1 -0.1)">
       <use xlink:href="#DejaVuSans-30"/>
      </g>
     </g>
    </g>
    <g id="text_34">
     <!-- Drawdown, % -->
     <g transform="translate(14.798438 314.548458) rotate(-90) scale(0.1 -0.1)">
      <defs>
       <path id="DejaVuSans-44" d="M 1259 4147 
L 1259 519 
L 2022 519 
Q 2988 519 3436 956 
Q 3884 1394 3884 2338 
Q 3884 3275 3436 3711 
Q 2988 4147 2022 4147 
L 1259 4147 
z
M 628 4666 
L 1925 4666 
Q 3281 4666 3915 4102 
Q 4550 3538 4550 2338 
Q 4550 1131 3912 565 
Q 3275 0 1925 0 
L 628 0 
L 628 4666 
z
" transform="scale(0.015625)"/>
       <path id="DejaVuSans-61" d="M 2194 1759 
Q 1497 1759 1228 1600 
Q 959 1441 959 1056 
Q 959 750 1161 570 
Q 1363 391 1709 391 
Q 2188 391 2477 730 
Q 2766 1069 2766 1631 
L 2766 1759 
L 2194 1759 
z
M 3341 1997 
L 3341 0 
L 2766 0 
L 2766 531 
Q 2569 213 2275 61 
Q 1981 -91 1556 -91 
Q 1019 -91 701 211 
Q 384 513 384 1019 
Q 384 1609 779 1909 
Q 1175 2209 1959 2209 
L 2766 2209 
L 2766 2266 
Q 2766 2663 2505 2880 
Q 2244 3097 1772 3097 
Q 1472 3097 1187 3025 
Q 903 2953 641 2809 
L 641 3341 
Q 956 3463 1253 3523 
Q 1550 3584 1831 3584 
Q 2591 3584 2966 3190 
Q 3341 2797 3341 1997 
z
" transform="scale(0.015625)"/>
       <path id="DejaVuSans-77" d="M 269 3500 
L 844 3500 
L 1563 769 
L 2278 3500 
L 2956 3500 
L 3675 769 
L 4391 3500 
L 4966 3500 
L 4050 0 
L 3372 0 
L 2619 2869 
L 1863 0 
L 1184 0 
L 269 3500 
z
" transform="scale(0.015625)"/>
       <path id="DejaVuSans-64" d="M 2906 2969 
L 2906 4863 
L 3481 4863 
L 3481 0 
L 2906 0 
L 2906 525 
Q 2725 213 2448 61 
Q 2172 -91 1784 -91 
Q 1150 -91 751 415 
Q 353 922 353 1747 
Q 353 2572 751 3078 
Q 1150 3584 1784 3584 
Q 2172 3584 2448 3432 
Q 2725 3281 2906 2969 
z
M 947 1747 
Q 947 1113 1208 752 
Q 1469 391 1925 391 
Q 2381 391 2643 752 
Q 2906 1113 2906 1747 
Q 2906 2381 2643 2742 
Q 2381 3103 1925 3103 
Q 1469 3103 1208 2742 
Q 947 2381 947 1747 
z
" transform="scale(0.015625)"/>
       <path id="DejaVuSans-6e" d="M 3513 2113 
L 3513 0 
L 2938 0 
L 2938 2094 
Q 2938 2591 2744 2837 
Q 2550 3084 2163 3084 
Q 1697 3084 1428 2787 
Q 1159 2491 1159 1978 
L 1159 0 
L 581 0 
L 581 3500 
L 1159 3500 
L 1159 2956 
Q 1366 3272 1645 3428 
Q 1925 3584 2291 3584 
Q 2894 3584 3203 3211 
Q 3513 2838 3513 2113 
z
" transform="scale(0.015625)"/>
       <path id="DejaVuSans-2c" d="M 750 794 
L 1409 794 
L 1409 256 
L 897 -744 
L 494 -744 
L 750 256 
L 750 794 
z
" transform="scale(0.015625)"/>
       <path id="DejaVuSans-20" transform="scale(0.015625)"/>
       <path id="DejaVuSans-25" d="M 4653 2053 
Q 4381 2053 4226 1822 
Q 4072 1591 4072 1178 
Q 4072 772 4226 539 
Q 4381 306 4653 306 
Q 4919 306 5073 539 
Q 5228 772 5228 1178 
Q 5228 1588 5073 1820 
Q 4919 2053 4653 2053 
z
M 4653 2450 
Q 5147 2450 5437 2106 
Q 5728 1763 5728 1178 
Q 5728 594 5436 251 
Q 5144 -91 4653 -91 
Q 4153 -91 3862 251 
Q 3572 594 3572 1178 
Q 3572 1766 3864 2108 
Q 4156 2450 4653 2450 
z
M 1428 4353 
Q 1159 4353 1004 4120 
Q 850 3888 850 3481 
Q 850 3069 1003 2837 
Q 1156 2606 1428 2606 
Q 1700 2606 1854 2837 
Q 2009 3069 2009 3481 
Q 2009 3884 1853 4118 
Q 1697 4353 1428 4353 
z
M 4250 4750 
L 4750 4750 
L 1831 -91 
L 1331 -91 
L 4250 4750 
z
M 1428 4750 
Q 1922 4750 2215 4408 
Q 2509 4066 2509 3481 
Q 2509 2891 2217 2550 
Q 1925 2209 1428 2209 
Q 931 2209 642 2551 
Q 353 2894 353 3481 
Q 353 4063 643 4406 
Q 934 4750 1428 4750 
z
" transform="scale(0.015625)"/>
      </defs>
      <use xlink:href="#DejaVuSans-44"/>
      <use xlink:href="#DejaVuSans-72" transform="translate(77.001953 0)"/>
      <use xlink:href="#DejaVuSans-61" transform="translate(118.115234 0)"/>
      <use xlink:href="#DejaVuSans-77" transform="translate(179.394531 0)"/>
      <use xlink:href="#DejaVuSans-64" transform="translate(261.181641 0)"/>
      <use xlink:href="#DejaVuSans-6f" transform="translate(324.658203 0)"/>
      <use xlink:href="#DejaVuSans-77" transform="translate(385.839844 0)"/>
      <use xlink:href="#DejaVuSans-6e" transform="translate(467.626953 0)"/>
      <use xlink:href="#DejaVuSans-2c" transform="translate(531.005859 0)"/>
      <use xlink:href="#DejaVuSans-20" transform="translate(562.792969 0)"/>
      <use xlink:href="#DejaVuSans-25" transform="translate(594.580078 0)"/>
     </g>
    </g>
   </g>
   <g id="line2d_70">
    <path d="M 58.464119 233.911626 
L 103.222513 233.911626 
L 104.631698 239.275092 
L 104.818098 233.911626 
L 106.286931 245.474095 
L 106.309299 245.469011 
L 107.338228 238.518309 
L 108.389525 246.445261 
L 109.515381 234.892961 
L 110.87983 242.93686 
L 111.28991 238.309839 
L 111.975863 247.141857 
L 112.952599 235.96582 
L 113.62364 254.35696 
L 114.689848 270.54645 
L 116.352537 233.911626 
L 117.165242 233.911626 
L 117.843738 242.190337 
L 123.279165 242.190337 
L 124.35283 233.911626 
L 124.822558 245.985717 
L 125.150622 260.880611 
L 126.082623 238.704355 
L 127.312864 233.911626 
L 127.640928 261.297281 
L 128.043552 249.356044 
L 128.818977 265.503197 
L 129.892641 248.826372 
L 130.981218 275.068772 
L 131.003586 271.93269 
L 132.554435 233.911626 
L 132.763203 256.980025 
L 134.090372 237.909078 
L 185.022338 237.909078 
L 186.543363 256.470113 
L 186.737219 265.660609 
L 187.527555 234.885747 
L 188.11658 245.069171 
L 189.361732 282.345347 
L 189.652516 273.550841 
L 194.275239 273.550841 
L 194.916456 275.299841 
L 195.266888 261.754211 
L 196.124328 271.496774 
L 196.47476 251.161551 
L 197.913769 262.850389 
L 198.65937 245.999447 
L 199.59137 249.092235 
L 200.053643 233.911626 
L 201.350987 242.350466 
L 201.820716 262.394805 
L 202.014572 259.557657 
L 202.387372 274.564383 
L 204.072429 277.301002 
L 205.429422 235.123557 
L 207.025007 233.911626 
L 207.174127 245.134277 
L 208.836816 236.769248 
L 209.314 247.97135 
L 210.380209 234.786181 
L 210.864849 258.265474 
L 211.498609 241.275713 
L 211.960882 255.062486 
L 213.32533 233.911626 
L 214.197683 263.318549 
L 214.697235 265.16651 
L 215.502484 233.911626 
L 215.890196 242.921419 
L 234.410911 242.921419 
L 236.028864 252.341524 
L 237.184544 233.911626 
L 237.512609 233.911626 
L 238.265665 244.092115 
L 239.070914 240.852224 
L 239.212578 233.911626 
L 263.735376 233.911626 
L 264.809041 241.512734 
L 265.301137 233.911626 
L 265.793233 242.08583 
L 267.806355 244.828964 
L 268.104595 233.911626 
L 268.395379 233.911626 
L 269.103699 241.478166 
L 270.356308 233.911626 
L 270.542708 244.864483 
L 271.638741 252.005537 
L 272.89135 234.03441 
L 273.174678 233.911626 
L 274.04703 244.389407 
L 274.539126 237.782956 
L 275.530775 256.706375 
L 276.649176 261.083144 
L 277.193464 238.288395 
L 278.155289 247.103032 
L 278.774137 258.761457 
L 279.325881 254.429122 
L 279.914906 262.793861 
L 280.981114 256.884112 
L 303.863592 256.884112 
L 305.310057 274.486902 
L 305.414441 267.605219 
L 305.936361 289.908703 
L 307.986762 289.809527 
L 308.41921 275.583343 
L 308.948587 273.528205 
L 309.425771 302.581137 
L 310.6411 268.833894 
L 311.5731 318.559423 
L 311.901165 303.831851 
L 312.266509 322.410741 
L 313.705518 300.118277 
L 314.137966 317.187494 
L 315.032686 313.214962 
L 315.741007 294.89503 
L 316.486607 306.134928 
L 317.098 289.104279 
L 318.082192 290.691088 
L 318.924721 304.162436 
L 319.364625 302.173415 
L 320.669426 287.153826 
L 321.154066 285.098688 
L 322.00405 308.283732 
L 322.421587 305.63905 
L 322.943507 294.795855 
L 324.330324 303.286385 
L 324.740404 285.649663 
L 325.597845 286.084934 
L 326.477653 304.680353 
L 327.327638 297.963963 
L 328.431126 248.095181 
L 328.915767 269.544653 
L 329.325847 242.916012 
L 330.138551 241.979354 
L 331.585016 268.71819 
L 332.502105 267.869687 
L 332.777977 254.100813 
L 333.404281 258.497596 
L 334.17225 280.007675 
L 334.828378 282.883767 
L 335.834939 254.877688 
L 336.498523 254.100813 
L 337.162107 273.572283 
L 339.354173 273.572283 
L 340.159421 305.790268 
L 341.016862 260.660486 
L 341.143614 275.901283 
L 347.071137 275.901283 
L 348.42813 277.744238 
L 348.584706 269.055235 
L 348.629442 270.914454 
L 349.852227 290.563634 
L 350.94826 270.925295 
L 351.686404 284.546919 
L 352.774981 293.859276 
L 353.147781 280.210549 
L 353.721893 266.334162 
L 354.668806 283.15386 
L 355.429318 268.561973 
L 355.899046 237.844206 
L 356.555175 252.842628 
L 356.652103 233.911626 
L 364.055915 233.911626 
L 364.94318 251.433372 
L 365.815532 250.933243 
L 366.441837 236.619219 
L 367.314189 247.869237 
L 367.336557 241.672242 
L 368.686094 244.299354 
L 370.222031 244.299354 
L 371.139119 245.757651 
L 371.355344 239.17474 
L 371.81016 238.821677 
L 372.906192 252.369035 
L 373.950033 251.474989 
L 374.74037 241.902434 
L 375.888594 234.379921 
L 376.380691 250.882755 
L 376.440339 250.108295 
L 377.543827 273.097233 
L 378.095572 265.717084 
L 378.945556 303.005062 
L 379.489844 299.73069 
L 379.631508 315.202809 
L 381.406038 300.265979 
L 382.554262 325.242319 
L 382.710838 326.227477 
L 383.866519 269.082569 
L 384.164759 286.263056 
L 384.843256 248.849797 
L 385.663416 250.404412 
L 394.916317 250.404412 
L 395.057982 242.24333 
L 396.004894 268.116239 
L 396.586462 271.665406 
L 396.765407 252.959412 
L 398.010559 255.336954 
L 401.097345 255.336954 
L 402.61837 263.528641 
L 402.871874 256.571389 
L 403.341602 271.131412 
L 404.184131 260.036222 
L 405.727524 260.036222 
L 406.66698 272.89324 
L 407.591525 273.773554 
L 408.762118 255.933261 
L 409.52263 270.876317 
L 410.305511 242.767548 
L 410.439719 233.911626 
L 411.707239 255.010737 
L 411.953288 276.1758 
L 412.169512 240.001184 
L 413.444488 245.128945 
L 461.282213 245.128945 
L 461.953253 249.495961 
L 462.072549 238.757679 
L 463.504102 255.032887 
L 464.525575 240.00675 
L 465.077319 251.826317 
L 465.919847 250.36596 
L 466.881672 270.748809 
L 468.193929 257.6056 
L 468.633833 264.776883 
L 469.193033 267.374453 
L 469.424169 251.876031 
L 470.550026 252.901388 
L 479.802928 252.901388 
L 481.062992 249.245597 
L 481.286672 264.394605 
L 481.428336 263.712496 
L 482.106833 285.632981 
L 482.897169 283.67967 
L 489.063285 283.67967 
L 490.278614 284.640617 
L 490.465014 277.425609 
L 490.800534 282.668041 
L 492.008407 239.585322 
L 492.306647 233.911626 
L 492.985143 246.081428 
L 494.52108 233.911626 
L 495.013176 244.917685 
L 495.393433 240.342133 
L 496.459641 256.341846 
L 496.921914 252.991151 
L 497.160506 233.911626 
L 498.331098 237.070595 
L 499.867035 237.070595 
L 499.904315 242.118076 
L 499.986331 233.911626 
L 515.30842 233.911626 
L 516.411909 238.37818 
L 516.911461 233.911626 
L 517.478118 253.861457 
L 518.53687 249.625954 
L 518.887303 240.03162 
L 520.124999 257.704101 
L 521.370152 236.667772 
L 521.959176 233.911626 
L 522.906089 248.253034 
L 523.092489 239.40777 
L 523.681513 300.116542 
L 524.613514 249.239828 
L 524.680618 269.932603 
L 526.112171 268.868061 
L 563.146145 268.868061 
L 564.018497 256.314882 
L 564.219809 275.048714 
L 564.92813 263.230934 
L 565.733378 280.455582 
L 566.240386 275.136022 
L 567.560099 242.938029 
L 567.813603 245.120732 
L 567.828515 247.434398 
L 569.327172 246.89184 
L 572.063526 246.89184 
L 572.063526 246.89184 
" clip-path="url(#p1e7b750aca)" style="fill: none; stroke: #7a738c; stroke-width: 1.5; stroke-linecap: square"/>
   </g>
   <g id="patch_13">
    <path d="M 53.328125 330.84327 
L 53.328125 229.295833 
" style="fill: none; stroke: #000000; stroke-width: 0.8; stroke-linejoin: miter; stroke-linecap: square"/>
   </g>
   <g id="patch_14">
    <path d="M 577.19952 330.84327 
L 577.19952 229.295833 
" style="fill: none; stroke: #000000; stroke-width: 0.8; stroke-linejoin: miter; stroke-linecap: square"/>
   </g>
   <g id="patch_15">
    <path d="M 53.328125 330.84327 
L 577.19952 330.84327 
" style="fill: none; stroke: #000000; stroke-width: 0.8; stroke-linejoin: miter; stroke-linecap: square"/>
   </g>
   <g id="patch_16">
    <path d="M 53.328125 229.295833 
L 577.19952 229.295833 
" style="fill: none; stroke: #000000; stroke-width: 0.8; stroke-linejoin: miter; stroke-linecap: square"/>
   </g>
  </g>
 </g>
 <defs>
  <clipPath id="p92a1ad6ef4">
   <rect x="53.328125" y="7.2" width="523.871395" height="101.547437"/>
  </clipPath>
  <clipPath id="p2ec7d62660">
   <rect x="53.328125" y="118.247917" width="523.871395" height="101.547437"/>
  </clipPath>
  <clipPath id="p1e7b750aca">
   <rect x="53.328125" y="229.295833" width="523.871395" height="101.547437"/>
  </clipPath>
 </defs>
</svg>
