<?xml version="1.0" encoding="utf-8" standalone="no"?>
<!DOCTYPE svg PUBLIC "-//W3C//DTD SVG 1.1//EN"
  "http://www.w3.org/Graphics/SVG/1.1/DTD/svg11.dtd">
<svg xmlns:xlink="http://www.w3.org/1999/xlink"   viewBox="0 0 584.39952 368.39952" xmlns="http://www.w3.org/2000/svg" version="1.1" preserveAspectRatio="xMidYMid meet" style="width:100%;height:auto;aspect-ratio:8 / 5;display:block;">
 <metadata>
  <rdf:RDF xmlns:dc="http://purl.org/dc/elements/1.1/" xmlns:cc="http://creativecommons.org/ns#" xmlns:rdf="http://www.w3.org/1999/02/22-rdf-syntax-ns#">
   <cc:Work>
    <dc:type rdf:resource="http://purl.org/dc/dcmitype/StillImage"/>
    <dc:date>2025-11-27T17:41:46.100951</dc:date>
    <dc:format>image/svg+xml</dc:format>
    <dc:creator>
     <cc:Agent>
      <dc:title>Matplotlib v3.10.7, https://matplotlib.org/</dc:title>
     </cc:Agent>
    </dc:creator>
   </cc:Work>
  </rdf:RDF>
 </metadata>
 <defs>
  <style type="text/css">*{stroke-linejoin: round; stroke-linecap: butt}</style>
 </defs>
 <g id="figure_1">
  <g id="patch_1">
   <path d="M 0 368.39952 
L 584.39952 368.39952 
L 584.39952 0 
L 0 0 
z
" style="fill: #ffffff"/>
  </g>
  <g id="axes_1">
   <g id="patch_2">
    <path d="M 71.248438 108.644595 
L 577.19952 108.644595 
L 577.19952 7.2 
L 71.248438 7.2 
z
" style="fill: #ffffff"/>
   </g>
   <g id="matplotlib.axis_1">
    <g id="xtick_1">
     <g id="line2d_1">
      <defs>
       <path id="mbafef71b61" d="M 0 0 
L 0 3.5 
" style="stroke: #000000; stroke-width: 0.8"/>
      </defs>
      <g>
       <use xlink:href="#mbafef71b61" x="76.207879" y="108.644595" style="stroke: #000000; stroke-width: 0.8"/>
      </g>
     </g>
    </g>
    <g id="xtick_2">
     <g id="line2d_2">
      <g>
       <use xlink:href="#mbafef71b61" x="113.504328" y="108.644595" style="stroke: #000000; stroke-width: 0.8"/>
      </g>
     </g>
    </g>
    <g id="xtick_3">
     <g id="line2d_3">
      <g>
       <use xlink:href="#mbafef71b61" x="150.800777" y="108.644595" style="stroke: #000000; stroke-width: 0.8"/>
      </g>
     </g>
    </g>
    <g id="xtick_4">
     <g id="line2d_4">
      <g>
       <use xlink:href="#mbafef71b61" x="188.097227" y="108.644595" style="stroke: #000000; stroke-width: 0.8"/>
      </g>
     </g>
    </g>
    <g id="xtick_5">
     <g id="line2d_5">
      <g>
       <use xlink:href="#mbafef71b61" x="225.393676" y="108.644595" style="stroke: #000000; stroke-width: 0.8"/>
      </g>
     </g>
    </g>
    <g id="xtick_6">
     <g id="line2d_6">
      <g>
       <use xlink:href="#mbafef71b61" x="262.690125" y="108.644595" style="stroke: #000000; stroke-width: 0.8"/>
      </g>
     </g>
    </g>
    <g id="xtick_7">
     <g id="line2d_7">
      <g>
       <use xlink:href="#mbafef71b61" x="299.986575" y="108.644595" style="stroke: #000000; stroke-width: 0.8"/>
      </g>
     </g>
    </g>
    <g id="xtick_8">
     <g id="line2d_8">
      <g>
       <use xlink:href="#mbafef71b61" x="337.283024" y="108.644595" style="stroke: #000000; stroke-width: 0.8"/>
      </g>
     </g>
    </g>
    <g id="xtick_9">
     <g id="line2d_9">
      <g>
       <use xlink:href="#mbafef71b61" x="374.579473" y="108.644595" style="stroke: #000000; stroke-width: 0.8"/>
      </g>
     </g>
    </g>
    <g id="xtick_10">
     <g id="line2d_10">
      <g>
       <use xlink:href="#mbafef71b61" x="411.875923" y="108.644595" style="stroke: #000000; stroke-width: 0.8"/>
      </g>
     </g>
    </g>
    <g id="xtick_11">
     <g id="line2d_11">
      <g>
       <use xlink:href="#mbafef71b61" x="449.172372" y="108.644595" style="stroke: #000000; stroke-width: 0.8"/>
      </g>
     </g>
    </g>
    <g id="xtick_12">
     <g id="line2d_12">
      <g>
       <use xlink:href="#mbafef71b61" x="486.468821" y="108.644595" style="stroke: #000000; stroke-width: 0.8"/>
      </g>
     </g>
    </g>
    <g id="xtick_13">
     <g id="line2d_13">
      <g>
       <use xlink:href="#mbafef71b61" x="523.76527" y="108.644595" style="stroke: #000000; stroke-width: 0.8"/>
      </g>
     </g>
    </g>
    <g id="xtick_14">
     <g id="line2d_14">
      <g>
       <use xlink:href="#mbafef71b61" x="561.06172" y="108.644595" style="stroke: #000000; stroke-width: 0.8"/>
      </g>
     </g>
    </g>
   </g>
   <g id="matplotlib.axis_2">
    <g id="ytick_1">
     <g id="line2d_15">
      <defs>
       <path id="m50c72d243e" d="M 0 0 
L -3.5 0 
" style="stroke: #000000; stroke-width: 0.8"/>
      </defs>
      <g>
       <use xlink:href="#m50c72d243e" x="71.248438" y="106.574227" style="stroke: #000000; stroke-width: 0.8"/>
      </g>
     </g>
     <g id="text_1">
      <!-- 120 -->
      <g transform="translate(45.160938 110.373446) scale(0.1 -0.1)">
       <defs>
        <path id="DejaVuSans-31" d="M 794 531 
L 1825 531 
L 1825 4091 
L 703 3866 
L 703 4441 
L 1819 4666 
L 2450 4666 
L 2450 531 
L 3481 531 
L 3481 0 
L 794 0 
L 794 531 
z
" transform="scale(0.015625)"/>
        <path id="DejaVuSans-32" d="M 1228 531 
L 3431 531 
L 3431 0 
L 469 0 
L 469 531 
Q 828 903 1448 1529 
Q 2069 2156 2228 2338 
Q 2531 2678 2651 2914 
Q 2772 3150 2772 3378 
Q 2772 3750 2511 3984 
Q 2250 4219 1831 4219 
Q 1534 4219 1204 4116 
Q 875 4013 500 3803 
L 500 4441 
Q 881 4594 1212 4672 
Q 1544 4750 1819 4750 
Q 2544 4750 2975 4387 
Q 3406 4025 3406 3419 
Q 3406 3131 3298 2873 
Q 3191 2616 2906 2266 
Q 2828 2175 2409 1742 
Q 1991 1309 1228 531 
z
" transform="scale(0.015625)"/>
        <path id="DejaVuSans-30" d="M 2034 4250 
Q 1547 4250 1301 3770 
Q 1056 3291 1056 2328 
Q 1056 1369 1301 889 
Q 1547 409 2034 409 
Q 2525 409 2770 889 
Q 3016 1369 3016 2328 
Q 3016 3291 2770 3770 
Q 2525 4250 2034 4250 
z
M 2034 4750 
Q 2819 4750 3233 4129 
Q 3647 3509 3647 2328 
Q 3647 1150 3233 529 
Q 2819 -91 2034 -91 
Q 1250 -91 836 529 
Q 422 1150 422 2328 
Q 422 3509 836 4129 
Q 1250 4750 2034 4750 
z
" transform="scale(0.015625)"/>
       </defs>
       <use xlink:href="#DejaVuSans-31"/>
       <use xlink:href="#DejaVuSans-32" transform="translate(63.623047 0)"/>
       <use xlink:href="#DejaVuSans-30" transform="translate(127.246094 0)"/>
      </g>
     </g>
    </g>
    <g id="ytick_2">
     <g id="line2d_16">
      <g>
       <use xlink:href="#m50c72d243e" x="71.248438" y="79.106659" style="stroke: #000000; stroke-width: 0.8"/>
      </g>
     </g>
     <g id="text_2">
      <!-- 140 -->
      <g transform="translate(45.160938 82.905878) scale(0.1 -0.1)">
       <defs>
        <path id="DejaVuSans-34" d="M 2419 4116 
L 825 1625 
L 2419 1625 
L 2419 4116 
z
M 2253 4666 
L 3047 4666 
L 3047 1625 
L 3713 1625 
L 3713 1100 
L 3047 1100 
L 3047 0 
L 2419 0 
L 2419 1100 
L 313 1100 
L 313 1709 
L 2253 4666 
z
" transform="scale(0.015625)"/>
       </defs>
       <use xlink:href="#DejaVuSans-31"/>
       <use xlink:href="#DejaVuSans-34" transform="translate(63.623047 0)"/>
       <use xlink:href="#DejaVuSans-30" transform="translate(127.246094 0)"/>
      </g>
     </g>
    </g>
    <g id="ytick_3">
     <g id="line2d_17">
      <g>
       <use xlink:href="#m50c72d243e" x="71.248438" y="51.639091" style="stroke: #000000; stroke-width: 0.8"/>
      </g>
     </g>
     <g id="text_3">
      <!-- 160 -->
      <g transform="translate(45.160938 55.43831) scale(0.1 -0.1)">
       <defs>
        <path id="DejaVuSans-36" d="M 2113 2584 
Q 1688 2584 1439 2293 
Q 1191 2003 1191 1497 
Q 1191 994 1439 701 
Q 1688 409 2113 409 
Q 2538 409 2786 701 
Q 3034 994 3034 1497 
Q 3034 2003 2786 2293 
Q 2538 2584 2113 2584 
z
M 3366 4563 
L 3366 3988 
Q 3128 4100 2886 4159 
Q 2644 4219 2406 4219 
Q 1781 4219 1451 3797 
Q 1122 3375 1075 2522 
Q 1259 2794 1537 2939 
Q 1816 3084 2150 3084 
Q 2853 3084 3261 2657 
Q 3669 2231 3669 1497 
Q 3669 778 3244 343 
Q 2819 -91 2113 -91 
Q 1303 -91 875 529 
Q 447 1150 447 2328 
Q 447 3434 972 4092 
Q 1497 4750 2381 4750 
Q 2619 4750 2861 4703 
Q 3103 4656 3366 4563 
z
" transform="scale(0.015625)"/>
       </defs>
       <use xlink:href="#DejaVuSans-31"/>
       <use xlink:href="#DejaVuSans-36" transform="translate(63.623047 0)"/>
       <use xlink:href="#DejaVuSans-30" transform="translate(127.246094 0)"/>
      </g>
     </g>
    </g>
    <g id="ytick_4">
     <g id="line2d_18">
      <g>
       <use xlink:href="#m50c72d243e" x="71.248438" y="24.171523" style="stroke: #000000; stroke-width: 0.8"/>
      </g>
     </g>
     <g id="text_4">
      <!-- 180 -->
      <g transform="translate(45.160938 27.970742) scale(0.1 -0.1)">
       <defs>
        <path id="DejaVuSans-38" d="M 2034 2216 
Q 1584 2216 1326 1975 
Q 1069 1734 1069 1313 
Q 1069 891 1326 650 
Q 1584 409 2034 409 
Q 2484 409 2743 651 
Q 3003 894 3003 1313 
Q 3003 1734 2745 1975 
Q 2488 2216 2034 2216 
z
M 1403 2484 
Q 997 2584 770 2862 
Q 544 3141 544 3541 
Q 544 4100 942 4425 
Q 1341 4750 2034 4750 
Q 2731 4750 3128 4425 
Q 3525 4100 3525 3541 
Q 3525 3141 3298 2862 
Q 3072 2584 2669 2484 
Q 3125 2378 3379 2068 
Q 3634 1759 3634 1313 
Q 3634 634 3220 271 
Q 2806 -91 2034 -91 
Q 1263 -91 848 271 
Q 434 634 434 1313 
Q 434 1759 690 2068 
Q 947 2378 1403 2484 
z
M 1172 3481 
Q 1172 3119 1398 2916 
Q 1625 2713 2034 2713 
Q 2441 2713 2670 2916 
Q 2900 3119 2900 3481 
Q 2900 3844 2670 4047 
Q 2441 4250 2034 4250 
Q 1625 4250 1398 4047 
Q 1172 3844 1172 3481 
z
" transform="scale(0.015625)"/>
       </defs>
       <use xlink:href="#DejaVuSans-31"/>
       <use xlink:href="#DejaVuSans-38" transform="translate(63.623047 0)"/>
       <use xlink:href="#DejaVuSans-30" transform="translate(127.246094 0)"/>
      </g>
     </g>
    </g>
    <g id="text_5">
     <!-- Price -->
     <g transform="translate(14.798438 70.119954) rotate(-90) scale(0.1 -0.1)">
      <defs>
       <path id="DejaVuSans-50" d="M 1259 4147 
L 1259 2394 
L 2053 2394 
Q 2494 2394 2734 2622 
Q 2975 2850 2975 3272 
Q 2975 3691 2734 3919 
Q 2494 4147 2053 4147 
L 1259 4147 
z
M 628 4666 
L 2053 4666 
Q 2838 4666 3239 4311 
Q 3641 3956 3641 3272 
Q 3641 2581 3239 2228 
Q 2838 1875 2053 1875 
L 1259 1875 
L 1259 0 
L 628 0 
L 628 4666 
z
" transform="scale(0.015625)"/>
       <path id="DejaVuSans-72" d="M 2631 2963 
Q 2534 3019 2420 3045 
Q 2306 3072 2169 3072 
Q 1681 3072 1420 2755 
Q 1159 2438 1159 1844 
L 1159 0 
L 581 0 
L 581 3500 
L 1159 3500 
L 1159 2956 
Q 1341 3275 1631 3429 
Q 1922 3584 2338 3584 
Q 2397 3584 2469 3576 
Q 2541 3569 2628 3553 
L 2631 2963 
z
" transform="scale(0.015625)"/>
       <path id="DejaVuSans-69" d="M 603 3500 
L 1178 3500 
L 1178 0 
L 603 0 
L 603 3500 
z
M 603 4863 
L 1178 4863 
L 1178 4134 
L 603 4134 
L 603 4863 
z
" transform="scale(0.015625)"/>
       <path id="DejaVuSans-63" d="M 3122 3366 
L 3122 2828 
Q 2878 2963 2633 3030 
Q 2388 3097 2138 3097 
Q 1578 3097 1268 2742 
Q 959 2388 959 1747 
Q 959 1106 1268 751 
Q 1578 397 2138 397 
Q 2388 397 2633 464 
Q 2878 531 3122 666 
L 3122 134 
Q 2881 22 2623 -34 
Q 2366 -91 2075 -91 
Q 1284 -91 818 406 
Q 353 903 353 1747 
Q 353 2603 823 3093 
Q 1294 3584 2113 3584 
Q 2378 3584 2631 3529 
Q 2884 3475 3122 3366 
z
" transform="scale(0.015625)"/>
       <path id="DejaVuSans-65" d="M 3597 1894 
L 3597 1613 
L 953 1613 
Q 991 1019 1311 708 
Q 1631 397 2203 397 
Q 2534 397 2845 478 
Q 3156 559 3463 722 
L 3463 178 
Q 3153 47 2828 -22 
Q 2503 -91 2169 -91 
Q 1331 -91 842 396 
Q 353 884 353 1716 
Q 353 2575 817 3079 
Q 1281 3584 2069 3584 
Q 2775 3584 3186 3129 
Q 3597 2675 3597 1894 
z
M 3022 2063 
Q 3016 2534 2758 2815 
Q 2500 3097 2075 3097 
Q 1594 3097 1305 2825 
Q 1016 2553 972 2059 
L 3022 2063 
z
" transform="scale(0.015625)"/>
      </defs>
      <use xlink:href="#DejaVuSans-50"/>
      <use xlink:href="#DejaVuSans-72" transform="translate(58.552734 0)"/>
      <use xlink:href="#DejaVuSans-69" transform="translate(99.666016 0)"/>
      <use xlink:href="#DejaVuSans-63" transform="translate(127.449219 0)"/>
      <use xlink:href="#DejaVuSans-65" transform="translate(182.429688 0)"/>
     </g>
    </g>
   </g>
   <g id="line2d_19">
    <path d="M 76.208742 14.406803 
L 76.506596 15.944987 
L 77.08741 14.145861 
L 77.851901 16.590475 
L 79.097922 14.187063 
L 79.440454 14.077192 
L 79.554631 15.560441 
L 80.701367 14.969888 
L 81.446001 17.304631 
L 82.265099 16.796481 
L 83.406871 15.217096 
L 84.156469 17.029956 
L 84.851461 15.272031 
L 85.263491 16.521806 
L 85.789699 15.244564 
L 86.747795 15.780181 
L 87.318681 18.884017 
L 88.1626 17.524372 
L 92.645296 17.524372 
L 94.089886 15.780181 
L 94.774949 15.423103 
L 95.623832 17.26343 
L 96.269181 17.840249 
L 96.879781 16.054857 
L 97.331526 17.510638 
L 98.612296 14.283199 
L 98.691724 13.459172 
L 99.26261 15.272031 
L 100.548345 15.038557 
L 101.010018 13.047158 
L 102.171647 13.48664 
L 103.154564 18.05999 
L 104.460155 15.326967 
L 104.599153 15.684045 
L 105.269324 18.650542 
L 106.972054 17.387034 
L 107.503226 20.916617 
L 107.587618 19.968986 
L 108.173396 17.950119 
L 109.414453 17.963853 
L 110.020089 19.941518 
L 110.595939 19.227361 
L 111.836996 15.986188 
L 112.566737 18.183594 
L 113.643974 11.811118 
L 114.760925 16.782748 
L 115.0836 16.219663 
L 116.71683 29.033283 
L 117.525999 25.805844 
L 118.29049 28.071918 
L 118.801805 31.903644 
L 120.365537 31.574033 
L 120.608784 28.470198 
L 122.048409 32.672736 
L 122.266835 29.665037 
L 122.544832 31.299357 
L 123.080969 28.964614 
L 124.490809 28.470198 
L 125.51344 35.460694 
L 125.518404 35.089882 
L 125.597831 44.621128 
L 127.012636 36.998878 
L 128.397655 42.039176 
L 128.794793 40.624597 
L 129.792603 46.942137 
L 130.060671 46.873468 
L 130.457809 43.261483 
L 132.542784 45.788499 
L 132.681783 41.888105 
L 133.009421 43.508691 
L 133.98241 40.185115 
L 135.005041 40.514726 
L 135.834066 44.909537 
L 136.176598 44.154179 
L 136.772305 55.058803 
L 138.241716 57.489683 
L 138.847352 51.254545 
L 139.095563 53.534353 
L 140.376334 49.991037 
L 140.589795 51.790163 
L 141.557819 48.425386 
L 142.754198 48.219379 
L 143.538546 52.463118 
L 144.15411 44.70353 
L 145.002993 49.702628 
L 145.593736 61.25274 
L 147.256751 55.608155 
L 147.926922 65.331674 
L 148.264489 58.945464 
L 148.939624 70.50931 
L 149.426118 62.104235 
L 150.101253 57.448482 
L 151.074242 57.764359 
L 152.116729 69.026062 
L 152.578402 60.414979 
L 153.888958 55.360947 
L 154.286096 57.489683 
L 154.876839 53.699159 
L 156.212216 54.317179 
L 156.539855 57.022735 
L 156.981671 55.676824 
L 157.34406 60.099102 
L 158.525546 55.484551 
L 159.290036 58.863062 
L 160.258061 56.075103 
L 160.471522 53.397016 
L 161.613294 51.81763 
L 162.139502 55.676824 
L 162.879172 53.754094 
L 164.333691 48.864867 
L 164.81522 49.221945 
L 165.465534 46.337851 
L 166.637092 46.310383 
L 167.282441 49.702628 
L 167.620008 50.197044 
L 168.682353 47.738697 
L 169.099348 47.518956 
L 170.583652 52.037371 
L 171.636068 48.521522 
L 171.894207 49.249413 
L 172.03817 47.766164 
L 173.338797 48.754997 
L 174.237322 53.204743 
L 175.135847 53.85023 
L 175.220239 52.092306 
L 176.68965 51.858832 
L 177.354857 54.852797 
L 177.826458 52.545521 
L 179.305798 55.031336 
L 179.360404 55.621889 
L 180.383035 49.826232 
L 180.968813 52.930067 
L 181.733304 57.860495 
L 182.453117 60.044167 
L 183.331785 55.031336 
L 183.823244 57.29741 
L 184.086348 53.726626 
L 185.32244 55.113739 
L 185.600437 58.986666 
L 187.605984 60.662187 
L 188.246369 56.734325 
L 189.343463 59.481082 
L 189.740602 55.223609 
L 190.038455 56.912864 
L 190.54977 53.836497 
L 191.726292 58.20384 
L 192.753887 54.35838 
L 193.076562 54.097439 
L 194.009836 56.583253 
L 194.521152 54.330913 
L 195.648031 59.604686 
L 195.955813 57.599553 
L 196.849374 62.996931 
L 197.335868 59.83816 
L 198.140073 64.150568 
L 199.490342 65.304206 
L 199.902373 58.09397 
L 200.259797 60.401245 
L 201.704387 50.197044 
L 201.97742 51.570422 
L 203.466688 45.802233 
L 203.923397 48.823666 
L 205.363022 46.40652 
L 206.14737 48.054574 
L 206.206941 47.779898 
L 207.259357 50.760129 
L 208.257166 49.771297 
L 209.155691 45.115544 
L 209.245047 45.266616 
L 210.218036 48.26058 
L 210.714458 47.601359 
L 211.608019 51.391883 
L 212.521437 52.10604 
L 213.59371 49.043406 
L 214.248988 48.672594 
L 214.720589 50.938668 
L 215.5794 50.224511 
L 216.274392 53.273412 
L 216.840314 52.490586 
L 217.887766 56.033902 
L 218.175691 54.385848 
L 219.307534 57.242475 
L 220.081954 57.063936 
L 221.139334 54.701725 
L 221.481866 54.24851 
L 221.829361 56.802994 
L 222.891706 54.097439 
L 223.000919 55.292278 
L 225.170286 53.905166 
L 226.133346 56.308578 
L 226.952443 54.111172 
L 227.285046 54.35838 
L 228.084287 58.272509 
L 230.030264 54.02877 
L 231.162107 54.619322 
L 231.504639 52.408183 
L 232.705982 51.941234 
L 233.098156 53.932633 
L 233.634292 55.333479 
L 234.145607 52.421917 
L 234.785993 53.438217 
L 236.017121 51.295747 
L 236.349724 52.682859 
L 237.620566 46.296649 
L 238.871551 49.702628 
L 239.154512 49.949836 
L 240.559388 43.494957 
L 240.946598 43.110411 
L 241.899729 44.937005 
L 242.976966 46.021974 
L 243.299641 42.712132 
L 244.128667 46.983338 
L 244.739267 40.253784 
L 245.315117 42.904405 
L 246.441996 39.649498 
L 247.285915 39.470959 
L 247.504341 42.437456 
L 248.214225 39.855505 
L 249.068072 42.712132 
L 249.698529 40.52846 
L 250.785694 43.234015 
L 251.088512 42.931872 
L 251.679255 38.38599 
L 253.22313 39.663232 
L 253.491198 42.025443 
L 254.652827 37.438359 
L 255.442139 41.297552 
L 255.516602 41.201415 
L 255.615887 44.346452 
L 257.090262 44.524991 
L 257.849789 40.294986 
L 259.289414 43.948172 
L 259.770944 40.899272 
L 260.212761 40.294986 
L 261.051715 45.088076 
L 262.282843 40.652064 
L 263.315402 43.17908 
L 263.762182 36.751669 
L 264.526673 41.599695 
L 265.330878 35.295888 
L 266.110262 39.00401 
L 267.480388 46.557591 
L 267.827884 44.511257 
L 269.798682 44.978206 
L 269.907895 47.148144 
L 270.920597 47.53269 
L 271.352485 45.472622 
L 272.141797 45.802233 
L 272.672969 47.821099 
L 273.447388 46.777332 
L 274.757944 50.80133 
L 275.204724 50.07344 
L 276.430888 53.424483 
L 276.713849 51.968702 
L 277.572661 54.701725 
L 277.930085 53.63049 
L 279.002358 56.610721 
L 279.816491 57.750625 
L 280.521411 55.539486 
L 280.938406 57.105137 
L 282.114928 60.360044 
L 282.919132 57.791826 
L 283.380805 60.23644 
L 285.431031 58.396113 
L 286.493375 56.514585 
L 287.516006 58.739458 
L 288.384746 54.24851 
L 288.77692 54.701725 
L 290.042797 50.197044 
L 291.204426 53.01247 
L 292.460376 50.279447 
L 292.862478 54.976401 
L 293.155367 52.257112 
L 294.143248 62.406378 
L 294.808455 62.049299 
L 295.06163 58.972932 
L 296.545934 63.820958 
L 297.315389 59.192672 
L 297.369996 59.577218 
L 298.625945 61.596085 
L 298.918834 61.431279 
L 300.22939 59.893095 
L 300.93431 59.494816 
L 301.142808 62.076767 
L 302.527827 64.246705 
L 302.969643 57.517151 
L 303.778812 60.373778 
L 304.617766 56.17124 
L 305.829038 55.55322 
L 306.176533 58.657055 
L 306.628278 56.610721 
L 307.144558 60.002966 
L 308.256544 58.670789 
L 309.204712 56.555786 
L 309.82524 55.924032 
L 310.589731 60.002966 
L 311.354222 62.076767 
L 311.552791 56.624455 
L 312.5506 60.840726 
L 313.742015 68.092164 
L 313.831371 67.446676 
L 315.027749 74.698114 
L 315.340495 73.503275 
L 315.836918 77.595943 
L 316.844656 77.183929 
L 318.363709 70.605447 
L 319.426054 75.274933 
L 319.788442 74.588244 
L 320.622432 71.498143 
L 321.411744 72.555644 
L 322.265591 80.603641 
L 323.933572 79.092925 
L 324.102355 73.201132 
L 324.489565 73.668081 
L 325.487374 77.197663 
L 325.805085 74.986524 
L 326.341221 78.406236 
L 327.264567 76.181363 
L 328.515553 84.91605 
L 329.220473 84.73751 
L 330.153747 75.632012 
L 330.630313 78.873185 
L 331.568552 73.654347 
L 331.747264 73.750483 
L 332.526648 78.255164 
L 333.708133 74.409705 
L 334.705943 78.502373 
L 334.785371 79.985621 
L 336.165426 76.936721 
L 336.339173 77.266332 
L 336.627099 82.732378 
L 339.084391 75.728148 
L 339.287924 76.332435 
L 339.908452 74.739316 
L 340.980725 76.60711 
L 342.445172 74.327302 
L 343.626658 76.2775 
L 343.6763 76.181363 
L 344.197544 78.406236 
L 345.776168 77.376202 
L 346.53073 79.285198 
L 346.749156 79.202796 
L 347.712216 76.620844 
L 348.794418 78.090359 
L 349.285876 76.263766 
L 349.970939 77.925554 
L 350.814858 72.981391 
L 351.271567 74.519575 
L 351.981451 76.263766 
L 352.641693 76.09896 
L 354.130961 80.122959 
L 354.294781 81.015655 
L 355.600372 78.983055 
L 355.630158 79.024256 
L 356.73718 81.455136 
L 357.317995 82.430235 
L 358.56898 77.335001 
L 359.477433 78.159028 
L 360.038391 76.359902 
L 360.614241 77.417404 
L 361.264555 76.263766 
L 361.756013 77.444871 
L 362.173008 75.865486 
L 363.200603 77.389936 
L 363.860845 74.670647 
L 364.595551 75.426005 
L 365.732358 80.328966 
L 366.660669 80.754713 
L 367.350696 78.213963 
L 367.584015 78.612243 
L 368.988891 85.012186 
L 369.877487 86.701442 
L 370.125699 81.427668 
L 370.602265 85.396732 
L 371.838357 81.853416 
L 372.066711 82.938385 
L 373.16877 85.973551 
L 373.853833 86.001019 
L 375.050211 80.782181 
L 375.099854 79.985621 
L 376.271411 81.86715 
L 376.708263 81.276597 
L 377.120294 78.433704 
L 378.773381 79.381335 
L 379.503123 77.197663 
L 379.676871 78.392502 
L 380.634966 76.868052 
L 381.558312 77.870618 
L 382.188769 75.824285 
L 383.583717 75.577077 
L 383.866678 77.211397 
L 384.467349 75.645745 
L 385.400624 82.828514 
L 385.951653 74.986524 
L 386.497718 83.515204 
L 387.013997 83.226794 
L 388.408945 90.32716 
L 388.706798 88.816444 
L 389.793964 93.77434 
L 390.17621 94.515965 
L 391.064806 91.796675 
L 391.526479 92.922846 
L 392.355505 90.354628 
L 393.82988 94.17262 
L 394.316374 89.805277 
L 395.021295 92.222423 
L 395.219864 86.879981 
L 396.01414 90.272225 
L 397.394195 84.421633 
L 398.084222 83.3916 
L 398.441647 86.15209 
L 398.96289 84.462835 
L 399.980557 81.757279 
L 400.566336 84.092023 
L 401.425147 80.548706 
L 402.745631 83.405333 
L 403.187447 81.276597 
L 403.693798 83.61134 
L 404.607216 79.422536 
L 404.949747 83.061989 
L 405.312136 76.60711 
L 406.875867 80.109225 
L 407.893534 76.813117 
L 408.514062 76.359902 
L 408.712631 77.939287 
L 409.526764 76.456039 
L 410.321041 79.628543 
L 411.184816 77.060325 
L 412.132983 80.040556 
L 413.418718 79.367601 
L 413.647072 76.868052 
L 414.163352 75.494674 
L 415.389516 80.232829 
L 415.404408 79.697212 
L 416.387325 83.061989 
L 416.893676 81.702344 
L 417.941128 77.733281 
L 418.467336 77.925554 
L 419.187149 80.480037 
L 420.229637 79.340133 
L 421.257231 81.523805 
L 421.87776 80.466304 
L 422.860677 84.586439 
L 423.759202 80.658577 
L 424.300302 86.825046 
L 424.513764 85.547804 
L 425.581073 90.890246 
L 426.042746 89.59927 
L 426.573918 92.153754 
L 427.487336 91.151187 
L 428.639036 84.91605 
L 429.259565 86.976117 
L 429.989306 83.474002 
L 430.341766 84.366698 
L 431.637429 80.16416 
L 431.840962 80.837116 
L 433.126697 73.324736 
L 433.896152 75.892954 
L 434.417396 72.83032 
L 435.216636 73.44834 
L 435.886807 76.181363 
L 436.616548 74.011425 
L 437.817891 75.892954 
L 438.428491 77.678345 
L 440.429074 77.348735 
L 440.592894 76.236298 
L 441.03471 74.780517 
L 441.625453 80.576174 
L 442.504121 78.92812 
L 443.571429 90.72544 
L 443.913961 91.302259 
L 444.718166 86.838779 
L 445.33373 90.684239 
L 446.460609 86.866247 
L 446.842855 88.033619 
L 448.247731 84.037087 
L 448.396658 84.023354 
L 449.096613 88.322028 
L 450.357527 86.193292 
L 450.978055 89.379529 
L 452.075149 88.07482 
L 452.819783 92.24989 
L 453.306278 88.857646 
L 454.522513 91.12372 
L 455.063614 103.085846 
L 456.225243 94.612101 
L 456.994698 99.803471 
L 457.471264 98.073015 
L 458.717284 101.945942 
L 458.87614 104.033477 
L 459.958341 95.381193 
L 460.76751 93.650736 
L 461.864604 101.698734 
L 462.867378 92.277358 
L 463.403514 97.633533 
L 463.800652 92.744306 
L 465.140993 98.430093 
L 466.054411 93.994081 
L 466.322479 93.870477 
L 467.146541 99.624932 
L 468.21385 95.628401 
L 469.067697 93.087651 
L 469.27123 93.26619 
L 470.636392 96.946844 
L 470.964031 96.548565 
L 472.130624 98.951977 
L 472.632011 99.267854 
L 473.545429 95.285056 
L 473.88796 95.628401 
L 474.563095 99.061847 
L 475.292837 96.507363 
L 476.444537 99.171717 
L 476.737426 96.493629 
L 477.978483 99.446393 
L 478.464977 99.432659 
L 479.492572 96.466162 
L 480.093244 98.12795 
L 480.842842 95.037848 
L 481.180409 95.367459 
L 481.771152 96.589766 
L 482.714355 95.5872 
L 484.069589 98.265288 
L 484.650403 98.169151 
L 485.618428 94.598367 
L 485.965923 96.630967 
L 486.809842 94.859309 
L 487.202016 96.040415 
L 488.532429 92.071351 
L 489.123171 93.815542 
L 489.87277 90.464498 
L 490.19048 91.535733 
L 491.605285 93.458463 
L 492.285384 95.504797 
L 493.243479 94.461029 
L 494.017899 91.892812 
L 495.249027 94.255023 
L 496.078053 91.247324 
L 496.857436 92.442163 
L 497.398537 89.242192 
L 498.187849 92.291092 
L 498.977161 88.267093 
L 499.483512 89.022451 
L 500.004756 91.659338 
L 500.605427 90.72544 
L 501.498988 88.747775 
L 502.93365 90.711706 
L 503.529357 88.157223 
L 503.559142 88.431898 
L 505.40087 93.801808 
L 505.78808 90.038751 
L 506.552571 92.167488 
L 507.729092 86.962383 
L 508.582939 91.988948 
L 509.34743 87.580404 
L 509.536071 88.720308 
L 510.782092 92.579501 
L 511.129587 90.945181 
L 512.455036 94.969179 
L 512.971315 93.760606 
L 514.03366 94.28249 
L 515.364073 92.167488 
L 516.456202 90.876512 
L 516.654771 94.763173 
L 517.131337 92.64817 
L 518.163896 86.825046 
L 518.506428 87.800144 
L 519.211348 81.935819 
L 520.442476 83.625074 
L 521.157325 80.16416 
L 522.026065 81.798481 
L 522.31399 79.367601 
L 523.01891 80.328966 
L 524.096147 82.389033 
L 524.716675 80.56244 
L 525.74427 82.869716 
L 526.414441 81.125525 
L 526.776829 82.828514 
L 527.590962 80.658577 
L 528.851876 82.402767 
L 529.179515 81.565006 
L 530.996422 86.248227 
L 531.919768 83.831081 
L 532.396334 84.600173 
L 533.289894 83.377866 
L 534.312525 83.405333 
L 534.565701 85.726343 
L 535.032338 84.449101 
L 535.300406 88.610437 
L 536.437214 85.767544 
L 537.509487 81.949552 
L 538.030731 82.3753 
L 538.8399 87.072254 
L 539.475321 84.037087 
L 540.165348 81.86715 
L 541.039052 84.600173 
L 541.912756 78.557308 
L 543.263025 81.125525 
L 543.764412 78.41997 
L 544.007659 79.03799 
L 545.685568 82.073156 
L 546.807483 80.713512 
L 547.552117 81.304064 
L 548.147824 79.43627 
L 548.614462 79.381335 
L 549.870411 84.311763 
L 550.059051 84.174425 
L 550.252656 82.677443 
L 551.558248 83.226794 
L 552.546129 85.273128 
L 552.973052 84.929783 
L 553.946041 81.551273 
L 554.675782 84.792446 
L 555.326096 81.908351 
L 555.882089 83.446535 
L 557.187681 72.775385 
L 557.718853 72.844054 
L 558.607449 75.59081 
L 559.227978 73.379671 
L 560.235716 75.357336 
L 561.258346 75.947889 
L 561.695198 73.983958 
L 562.251192 76.236298 
L 563.194395 73.517009 
L 563.522034 73.929022 
L 564.226954 75.810551 
L 565.512688 75.59081 
L 566.123288 73.997691 
L 566.857994 73.269801 
L 567.731698 76.09896 
L 568.550795 75.013991 
L 569.300393 76.922987 
L 569.603211 75.87922 
L 570.685412 77.101527 
L 570.79959 76.579643 
L 571.638544 78.090359 
L 572.239215 77.856885 
L 572.239215 77.856885 
" clip-path="url(#pb11d62f074)" style="fill: none; stroke: #4169e1; stroke-width: 1.5; stroke-linecap: square"/>
   </g>
   <g id="patch_3">
    <path d="M 71.248438 108.644595 
L 71.248438 7.2 
" style="fill: none; stroke: #000000; stroke-width: 0.8; stroke-linejoin: miter; stroke-linecap: square"/>
   </g>
   <g id="patch_4">
    <path d="M 577.19952 108.644595 
L 577.19952 7.2 
" style="fill: none; stroke: #000000; stroke-width: 0.8; stroke-linejoin: miter; stroke-linecap: square"/>
   </g>
   <g id="patch_5">
    <path d="M 71.248437 108.644595 
L 577.19952 108.644595 
" style="fill: none; stroke: #000000; stroke-width: 0.8; stroke-linejoin: miter; stroke-linecap: square"/>
   </g>
   <g id="patch_6">
    <path d="M 71.248437 7.2 
L 577.19952 7.2 
" style="fill: none; stroke: #000000; stroke-width: 0.8; stroke-linejoin: miter; stroke-linecap: square"/>
   </g>
  </g>
  <g id="axes_2">
   <g id="patch_7">
    <path d="M 71.248438 219.898195 
L 577.19952 219.898195 
L 577.19952 118.453601 
L 71.248438 118.453601 
z
" style="fill: #ffffff"/>
   </g>
   <g id="matplotlib.axis_3">
    <g id="xtick_15">
     <g id="line2d_20">
      <g>
       <use xlink:href="#mbafef71b61" x="76.207879" y="219.898195" style="stroke: #000000; stroke-width: 0.8"/>
      </g>
     </g>
    </g>
    <g id="xtick_16">
     <g id="line2d_21">
      <g>
       <use xlink:href="#mbafef71b61" x="113.504328" y="219.898195" style="stroke: #000000; stroke-width: 0.8"/>
      </g>
     </g>
    </g>
    <g id="xtick_17">
     <g id="line2d_22">
      <g>
       <use xlink:href="#mbafef71b61" x="150.800777" y="219.898195" style="stroke: #000000; stroke-width: 0.8"/>
      </g>
     </g>
    </g>
    <g id="xtick_18">
     <g id="line2d_23">
      <g>
       <use xlink:href="#mbafef71b61" x="188.097227" y="219.898195" style="stroke: #000000; stroke-width: 0.8"/>
      </g>
     </g>
    </g>
    <g id="xtick_19">
     <g id="line2d_24">
      <g>
       <use xlink:href="#mbafef71b61" x="225.393676" y="219.898195" style="stroke: #000000; stroke-width: 0.8"/>
      </g>
     </g>
    </g>
    <g id="xtick_20">
     <g id="line2d_25">
      <g>
       <use xlink:href="#mbafef71b61" x="262.690125" y="219.898195" style="stroke: #000000; stroke-width: 0.8"/>
      </g>
     </g>
    </g>
    <g id="xtick_21">
     <g id="line2d_26">
      <g>
       <use xlink:href="#mbafef71b61" x="299.986575" y="219.898195" style="stroke: #000000; stroke-width: 0.8"/>
      </g>
     </g>
    </g>
    <g id="xtick_22">
     <g id="line2d_27">
      <g>
       <use xlink:href="#mbafef71b61" x="337.283024" y="219.898195" style="stroke: #000000; stroke-width: 0.8"/>
      </g>
     </g>
    </g>
    <g id="xtick_23">
     <g id="line2d_28">
      <g>
       <use xlink:href="#mbafef71b61" x="374.579473" y="219.898195" style="stroke: #000000; stroke-width: 0.8"/>
      </g>
     </g>
    </g>
    <g id="xtick_24">
     <g id="line2d_29">
      <g>
       <use xlink:href="#mbafef71b61" x="411.875923" y="219.898195" style="stroke: #000000; stroke-width: 0.8"/>
      </g>
     </g>
    </g>
    <g id="xtick_25">
     <g id="line2d_30">
      <g>
       <use xlink:href="#mbafef71b61" x="449.172372" y="219.898195" style="stroke: #000000; stroke-width: 0.8"/>
      </g>
     </g>
    </g>
    <g id="xtick_26">
     <g id="line2d_31">
      <g>
       <use xlink:href="#mbafef71b61" x="486.468821" y="219.898195" style="stroke: #000000; stroke-width: 0.8"/>
      </g>
     </g>
    </g>
    <g id="xtick_27">
     <g id="line2d_32">
      <g>
       <use xlink:href="#mbafef71b61" x="523.76527" y="219.898195" style="stroke: #000000; stroke-width: 0.8"/>
      </g>
     </g>
    </g>
    <g id="xtick_28">
     <g id="line2d_33">
      <g>
       <use xlink:href="#mbafef71b61" x="561.06172" y="219.898195" style="stroke: #000000; stroke-width: 0.8"/>
      </g>
     </g>
    </g>
   </g>
   <g id="matplotlib.axis_4">
    <g id="ytick_5">
     <g id="line2d_34">
      <g>
       <use xlink:href="#m50c72d243e" x="71.248438" y="205.477796" style="stroke: #000000; stroke-width: 0.8"/>
      </g>
     </g>
     <g id="text_6">
      <!-- 1000 -->
      <g transform="translate(38.798438 209.277015) scale(0.1 -0.1)">
       <use xlink:href="#DejaVuSans-31"/>
       <use xlink:href="#DejaVuSans-30" transform="translate(63.623047 0)"/>
       <use xlink:href="#DejaVuSans-30" transform="translate(127.246094 0)"/>
       <use xlink:href="#DejaVuSans-30" transform="translate(190.869141 0)"/>
      </g>
     </g>
    </g>
    <g id="ytick_6">
     <g id="line2d_35">
      <g>
       <use xlink:href="#m50c72d243e" x="71.248438" y="184.83195" style="stroke: #000000; stroke-width: 0.8"/>
      </g>
     </g>
     <g id="text_7">
      <!-- 1100 -->
      <g transform="translate(38.798438 188.631168) scale(0.1 -0.1)">
       <use xlink:href="#DejaVuSans-31"/>
       <use xlink:href="#DejaVuSans-31" transform="translate(63.623047 0)"/>
       <use xlink:href="#DejaVuSans-30" transform="translate(127.246094 0)"/>
       <use xlink:href="#DejaVuSans-30" transform="translate(190.869141 0)"/>
      </g>
     </g>
    </g>
    <g id="ytick_7">
     <g id="line2d_36">
      <g>
       <use xlink:href="#m50c72d243e" x="71.248438" y="164.186103" style="stroke: #000000; stroke-width: 0.8"/>
      </g>
     </g>
     <g id="text_8">
      <!-- 1200 -->
      <g transform="translate(38.798438 167.985322) scale(0.1 -0.1)">
       <use xlink:href="#DejaVuSans-31"/>
       <use xlink:href="#DejaVuSans-32" transform="translate(63.623047 0)"/>
       <use xlink:href="#DejaVuSans-30" transform="translate(127.246094 0)"/>
       <use xlink:href="#DejaVuSans-30" transform="translate(190.869141 0)"/>
      </g>
     </g>
    </g>
    <g id="ytick_8">
     <g id="line2d_37">
      <g>
       <use xlink:href="#m50c72d243e" x="71.248438" y="143.540257" style="stroke: #000000; stroke-width: 0.8"/>
      </g>
     </g>
     <g id="text_9">
      <!-- 1300 -->
      <g transform="translate(38.798438 147.339476) scale(0.1 -0.1)">
       <defs>
        <path id="DejaVuSans-33" d="M 2597 2516 
Q 3050 2419 3304 2112 
Q 3559 1806 3559 1356 
Q 3559 666 3084 287 
Q 2609 -91 1734 -91 
Q 1441 -91 1130 -33 
Q 819 25 488 141 
L 488 750 
Q 750 597 1062 519 
Q 1375 441 1716 441 
Q 2309 441 2620 675 
Q 2931 909 2931 1356 
Q 2931 1769 2642 2001 
Q 2353 2234 1838 2234 
L 1294 2234 
L 1294 2753 
L 1863 2753 
Q 2328 2753 2575 2939 
Q 2822 3125 2822 3475 
Q 2822 3834 2567 4026 
Q 2313 4219 1838 4219 
Q 1578 4219 1281 4162 
Q 984 4106 628 3988 
L 628 4550 
Q 988 4650 1302 4700 
Q 1616 4750 1894 4750 
Q 2613 4750 3031 4423 
Q 3450 4097 3450 3541 
Q 3450 3153 3228 2886 
Q 3006 2619 2597 2516 
z
" transform="scale(0.015625)"/>
       </defs>
       <use xlink:href="#DejaVuSans-31"/>
       <use xlink:href="#DejaVuSans-33" transform="translate(63.623047 0)"/>
       <use xlink:href="#DejaVuSans-30" transform="translate(127.246094 0)"/>
       <use xlink:href="#DejaVuSans-30" transform="translate(190.869141 0)"/>
      </g>
     </g>
    </g>
    <g id="ytick_9">
     <g id="line2d_38">
      <g>
       <use xlink:href="#m50c72d243e" x="71.248438" y="122.894411" style="stroke: #000000; stroke-width: 0.8"/>
      </g>
     </g>
     <g id="text_10">
      <!-- 1400 -->
      <g transform="translate(38.798438 126.69363) scale(0.1 -0.1)">
       <use xlink:href="#DejaVuSans-31"/>
       <use xlink:href="#DejaVuSans-34" transform="translate(63.623047 0)"/>
       <use xlink:href="#DejaVuSans-30" transform="translate(127.246094 0)"/>
       <use xlink:href="#DejaVuSans-30" transform="translate(190.869141 0)"/>
      </g>
     </g>
    </g>
    <g id="text_11">
     <!-- Equity -->
     <g transform="translate(14.798438 184.986835) rotate(-90) scale(0.1 -0.1)">
      <defs>
       <path id="DejaVuSans-45" d="M 628 4666 
L 3578 4666 
L 3578 4134 
L 1259 4134 
L 1259 2753 
L 3481 2753 
L 3481 2222 
L 1259 2222 
L 1259 531 
L 3634 531 
L 3634 0 
L 628 0 
L 628 4666 
z
" transform="scale(0.015625)"/>
       <path id="DejaVuSans-71" d="M 947 1747 
Q 947 1113 1208 752 
Q 1469 391 1925 391 
Q 2381 391 2643 752 
Q 2906 1113 2906 1747 
Q 2906 2381 2643 2742 
Q 2381 3103 1925 3103 
Q 1469 3103 1208 2742 
Q 947 2381 947 1747 
z
M 2906 525 
Q 2725 213 2448 61 
Q 2172 -91 1784 -91 
Q 1150 -91 751 415 
Q 353 922 353 1747 
Q 353 2572 751 3078 
Q 1150 3584 1784 3584 
Q 2172 3584 2448 3432 
Q 2725 3281 2906 2969 
L 2906 3500 
L 3481 3500 
L 3481 -1331 
L 2906 -1331 
L 2906 525 
z
" transform="scale(0.015625)"/>
       <path id="DejaVuSans-75" d="M 544 1381 
L 544 3500 
L 1119 3500 
L 1119 1403 
Q 1119 906 1312 657 
Q 1506 409 1894 409 
Q 2359 409 2629 706 
Q 2900 1003 2900 1516 
L 2900 3500 
L 3475 3500 
L 3475 0 
L 2900 0 
L 2900 538 
Q 2691 219 2414 64 
Q 2138 -91 1772 -91 
Q 1169 -91 856 284 
Q 544 659 544 1381 
z
M 1991 3584 
L 1991 3584 
z
" transform="scale(0.015625)"/>
       <path id="DejaVuSans-74" d="M 1172 4494 
L 1172 3500 
L 2356 3500 
L 2356 3053 
L 1172 3053 
L 1172 1153 
Q 1172 725 1289 603 
Q 1406 481 1766 481 
L 2356 481 
L 2356 0 
L 1766 0 
Q 1100 0 847 248 
Q 594 497 594 1153 
L 594 3053 
L 172 3053 
L 172 3500 
L 594 3500 
L 594 4494 
L 1172 4494 
z
" transform="scale(0.015625)"/>
       <path id="DejaVuSans-79" d="M 2059 -325 
Q 1816 -950 1584 -1140 
Q 1353 -1331 966 -1331 
L 506 -1331 
L 506 -850 
L 844 -850 
Q 1081 -850 1212 -737 
Q 1344 -625 1503 -206 
L 1606 56 
L 191 3500 
L 800 3500 
L 1894 763 
L 2988 3500 
L 3597 3500 
L 2059 -325 
z
" transform="scale(0.015625)"/>
      </defs>
      <use xlink:href="#DejaVuSans-45"/>
      <use xlink:href="#DejaVuSans-71" transform="translate(63.183594 0)"/>
      <use xlink:href="#DejaVuSans-75" transform="translate(126.660156 0)"/>
      <use xlink:href="#DejaVuSans-69" transform="translate(190.039062 0)"/>
      <use xlink:href="#DejaVuSans-74" transform="translate(217.822266 0)"/>
      <use xlink:href="#DejaVuSans-79" transform="translate(257.03125 0)"/>
     </g>
    </g>
   </g>
   <g id="line2d_39">
    <path d="M 76.208742 205.477796 
L 93.563678 205.466685 
L 94.089886 206.772748 
L 94.774949 207.062985 
L 95.623832 205.567151 
L 96.269181 205.098308 
L 96.879781 206.549489 
L 97.331526 205.366218 
L 98.612296 207.989508 
L 98.691724 208.659284 
L 99.26261 207.185777 
L 100.548345 207.375547 
L 101.010018 208.994173 
L 102.171647 208.636959 
L 103.154564 204.919701 
L 104.460155 207.141125 
L 104.599153 206.850889 
L 105.269324 204.439694 
L 106.972054 205.466685 
L 107.503226 202.59781 
L 107.587618 203.368053 
L 108.173396 205.009004 
L 109.414453 204.997841 
L 110.020089 203.390378 
L 110.595939 203.970851 
L 111.836996 206.605304 
L 112.566737 204.819234 
L 113.643974 209.998837 
L 114.760925 205.957854 
L 115.0836 206.415534 
L 116.71683 196.000514 
L 117.525999 198.623804 
L 118.29049 196.78192 
L 118.801805 193.667461 
L 120.365537 193.935371 
L 120.608784 196.458195 
L 122.048409 193.042336 
L 122.266835 195.487019 
L 122.544832 194.15863 
L 123.080969 196.056329 
L 124.490809 196.458195 
L 126.997743 182.198494 
L 127.012636 182.480843 
L 128.397655 187.415224 
L 128.794793 186.03037 
L 129.792603 192.215152 
L 130.060671 192.147926 
L 130.457809 188.611844 
L 132.542784 191.085757 
L 132.681783 187.267327 
L 133.009421 188.853858 
L 133.98241 185.600124 
L 135.005041 185.922809 
L 135.834066 190.225266 
L 136.176598 189.485781 
L 136.772305 200.161252 
L 138.241716 202.541049 
L 138.847352 196.436938 
L 139.095563 198.668837 
L 140.376334 195.199982 
L 140.589795 196.9613 
L 141.557819 193.667231 
L 142.754198 193.465554 
L 143.538546 197.620114 
L 144.15411 190.023588 
L 145.002993 194.917633 
L 145.593736 206.225027 
L 147.256751 200.699059 
L 147.926922 210.218245 
L 148.264489 203.966238 
L 148.939624 215.287077 
L 149.426118 207.058628 
L 150.101253 202.500713 
L 151.074242 202.809952 
L 152.116729 213.834998 
L 152.578402 205.404872 
L 153.888958 200.457046 
L 154.286096 202.541049 
L 154.876839 198.83018 
L 156.212216 199.435213 
L 156.539855 202.083913 
L 156.981671 200.766285 
L 157.34406 205.095632 
L 158.525546 200.578053 
L 159.290036 203.885566 
L 160.258061 201.156195 
L 160.471522 198.534386 
L 161.613294 196.98819 
L 162.139502 200.766285 
L 162.879172 198.88396 
L 164.333691 194.097477 
L 164.81522 194.447052 
L 165.465534 191.623564 
L 166.637092 191.596674 
L 167.282441 194.917633 
L 167.620008 195.401659 
L 168.682353 192.994972 
L 169.099348 192.779849 
L 170.583652 197.203313 
L 171.636068 193.761347 
L 171.894207 194.473998 
L 172.03817 195.925898 
L 173.338797 194.957965 
L 174.237322 190.602265 
L 175.135847 189.970419 
L 175.220239 191.69119 
L 176.68965 191.91973 
L 177.354857 188.989043 
L 177.826458 191.247554 
L 179.305798 188.814277 
L 179.360404 188.236206 
L 180.383035 193.90937 
L 180.968813 190.871135 
L 181.971587 188.285841 
L 182.453117 192.36674 
L 183.331785 187.158599 
L 183.823244 189.512964 
L 184.086348 185.803056 
L 185.32244 187.244213 
L 185.600437 191.268037 
L 187.605984 193.00884 
L 188.246369 188.92794 
L 189.343463 191.781716 
L 189.740602 187.358364 
L 190.038455 189.113436 
L 190.54977 185.917207 
L 191.726292 190.45471 
L 192.753887 186.459424 
L 193.076562 186.188316 
L 194.009836 188.770983 
L 194.263012 187.087255 
L 195.648031 181.348414 
L 195.955813 183.432184 
L 196.849374 177.823131 
L 197.335868 181.105783 
L 198.710959 176.208727 
L 199.490342 179.919754 
L 199.902373 171.801883 
L 200.259797 174.399602 
L 201.704387 162.910882 
L 201.97742 164.457143 
L 203.466688 157.962846 
L 203.923397 161.36462 
L 205.363022 158.643201 
L 206.14737 160.498714 
L 206.206941 160.189462 
L 207.259357 163.544849 
L 208.257166 162.431541 
L 209.155691 157.189715 
L 209.245047 157.359804 
L 210.218036 160.730653 
L 210.714458 159.988448 
L 211.608019 164.256129 
L 212.521437 165.060185 
L 213.59371 161.612022 
L 214.248988 161.194532 
L 214.720589 163.745863 
L 215.5794 162.941807 
L 216.274392 166.374507 
L 216.840314 165.493138 
L 217.887766 169.482491 
L 218.175691 167.626978 
L 219.307534 170.843201 
L 220.081954 170.642187 
L 221.139334 167.982618 
L 221.481866 167.472352 
L 221.829361 170.348398 
L 222.891706 167.302263 
L 223.000919 168.64751 
L 225.170286 167.085787 
L 226.133346 169.791744 
L 226.952443 167.317726 
L 227.285046 167.596053 
L 228.084287 172.002897 
L 230.030264 167.22495 
L 231.162107 167.889842 
L 231.504639 165.400362 
L 232.705982 164.874633 
L 233.098156 167.116712 
L 233.634292 166.635353 
L 234.145607 169.924444 
L 234.785993 168.776365 
L 236.017121 171.19664 
L 236.349724 169.629667 
L 237.620566 176.843947 
L 238.871551 172.996331 
L 239.154512 172.717068 
L 240.559388 180.008921 
L 240.946598 180.443329 
L 241.899729 178.37989 
L 242.976966 177.154238 
L 243.299641 180.893252 
L 244.128667 176.068218 
L 244.739267 183.670361 
L 245.315117 180.676048 
L 246.441996 184.353003 
L 247.285915 184.554692 
L 247.504341 181.203543 
L 248.214225 184.120284 
L 249.068072 180.893252 
L 249.698529 183.36007 
L 250.785694 180.303698 
L 251.088512 180.645018 
L 251.679255 185.780344 
L 253.22313 184.337488 
L 253.491198 181.668981 
L 254.652827 186.85085 
L 255.442139 182.491253 
L 255.516602 182.599855 
L 255.615887 179.047017 
L 257.090262 178.845327 
L 257.849789 183.623818 
L 259.289414 179.49694 
L 259.770944 182.941176 
L 260.212761 183.623818 
L 261.051715 178.20923 
L 262.282843 183.220439 
L 263.315402 180.365756 
L 263.762182 187.626579 
L 264.526673 182.149933 
L 265.330878 189.271124 
L 265.976227 184.756382 
L 265.981192 184.802926 
L 268.339199 185.343912 
L 268.790944 183.620674 
L 269.798682 184.930335 
L 269.907895 182.752161 
L 270.920597 182.366156 
L 271.352485 184.434042 
L 272.141797 184.10318 
L 272.672969 182.076652 
L 273.447388 183.124381 
L 274.757944 179.085109 
L 275.204724 179.815762 
L 275.522435 178.051166 
L 276.713849 178.046101 
L 277.572661 180.95948 
L 277.930085 179.817552 
L 279.002358 182.994453 
L 279.816491 184.20958 
L 280.913585 180.447881 
L 280.938406 180.769468 
L 282.114928 177.305098 
L 282.919132 180.038588 
L 283.380805 177.436656 
L 285.431031 179.395414 
L 286.493375 181.398024 
L 287.516006 179.029974 
L 288.384746 183.809927 
L 288.77692 183.327547 
L 290.042797 188.122117 
L 291.204426 185.125511 
L 292.460376 188.034412 
L 292.862478 183.035195 
L 293.155367 185.929478 
L 293.895037 179.380796 
L 294.808455 180.18692 
L 295.06163 176.781078 
L 296.545934 182.148321 
L 297.315389 177.024352 
L 297.369996 177.450082 
L 298.625945 179.685167 
L 298.918834 179.502711 
L 300.22939 177.79979 
L 300.93431 177.358855 
L 301.142808 180.21733 
L 302.527827 182.619665 
L 302.969643 175.169384 
L 303.778812 178.331952 
L 304.617766 173.679328 
L 305.829038 172.995119 
L 306.176533 176.431371 
L 306.628278 174.165877 
L 307.144558 177.921427 
L 308.256544 176.446575 
L 308.817502 174.637762 
L 309.82524 176.368982 
L 310.589731 171.858699 
L 311.354222 169.565592 
L 311.552791 175.594489 
L 312.297425 172.526889 
L 313.742015 179.676159 
L 313.831371 178.938676 
L 315.027749 187.223592 
L 315.340495 185.858463 
L 315.836918 190.53442 
L 316.844656 190.063686 
L 318.363709 182.547635 
L 319.426054 187.882619 
L 319.788442 187.098063 
L 320.622432 183.567559 
L 321.411744 184.775776 
L 322.265591 193.970777 
L 323.933572 192.244753 
L 324.102355 185.513259 
L 324.489565 186.046757 
L 325.487374 190.079377 
L 325.805085 187.553105 
L 326.341221 191.460196 
L 327.264567 188.918233 
L 328.515553 198.897791 
L 329.220473 198.693806 
L 330.153747 188.290588 
L 330.630313 191.993695 
L 331.568552 186.031066 
L 331.747264 186.140904 
L 332.526648 191.287594 
L 333.708133 186.894078 
L 334.705943 191.570034 
L 334.785371 193.264676 
L 336.165426 189.781245 
L 336.339173 190.157833 
L 336.627099 196.402901 
L 339.084391 188.400426 
L 339.287924 189.090836 
L 339.908452 187.270665 
L 340.980725 189.404658 
L 342.445172 186.799931 
L 342.792668 188.698558 
L 343.6763 186.941071 
L 344.197544 184.398751 
L 345.776168 185.575751 
L 346.53073 183.394378 
L 346.749156 183.488538 
L 347.712216 186.438884 
L 348.794418 184.759698 
L 349.285876 186.846911 
L 349.970939 184.948018 
L 350.814858 190.597617 
L 351.271567 188.839964 
L 351.981451 186.846911 
L 352.641693 187.035231 
L 354.130961 182.437085 
L 354.294781 181.417018 
L 355.600372 183.739631 
L 355.630158 183.692551 
L 356.73718 180.914832 
L 357.317995 179.800605 
L 358.56898 185.622831 
L 359.477433 184.681231 
L 360.038391 186.737057 
L 360.614241 185.528671 
L 361.264555 186.846911 
L 361.756013 185.497284 
L 362.173008 187.302017 
L 363.200603 185.560058 
L 363.860845 188.667337 
L 364.595551 187.804204 
L 365.732358 182.201685 
L 366.660669 181.715191 
L 367.350696 184.618458 
L 367.584015 184.163351 
L 368.988891 176.850259 
L 370.125699 174.742925 
L 370.542694 179.853445 
L 370.602265 179.6991 
L 371.838357 175.274556 
L 372.066711 176.629358 
L 373.16877 180.419375 
L 373.853833 180.453674 
L 375.050211 173.936903 
L 375.099854 172.942238 
L 376.271411 175.291705 
L 376.708263 174.554281 
L 377.120294 171.004356 
L 378.773381 172.187664 
L 379.503123 169.46091 
L 379.676871 170.952908 
L 380.634966 169.049324 
L 381.116496 169.066474 
L 382.188769 171.69288 
L 383.583717 172.001789 
L 383.866678 169.959556 
L 384.467349 171.915981 
L 385.400624 162.940453 
L 385.609121 162.305473 
L 385.951653 172.739738 
L 387.555098 160.559392 
L 388.408945 168.26705 
L 388.706798 166.233855 
L 389.793964 172.906432 
L 390.17621 173.904546 
L 391.064806 170.244794 
L 391.526479 171.760449 
L 392.355505 168.304017 
L 393.82988 173.442456 
L 394.316374 167.564673 
L 395.021295 170.817786 
L 395.219864 163.627668 
L 396.01414 168.193115 
L 397.394195 160.319105 
L 398.084222 158.932836 
L 398.441647 162.648038 
L 398.96289 160.374556 
L 399.980557 156.733288 
L 400.566336 159.875499 
L 401.425147 155.106732 
L 402.745631 158.951319 
L 403.187447 156.086363 
L 403.693798 159.228573 
L 404.607216 153.591078 
L 404.949747 158.48923 
L 405.312136 149.801941 
L 406.875867 154.515257 
L 407.893534 150.079195 
L 408.514062 149.469237 
L 408.712631 151.59485 
L 409.526764 149.598622 
L 410.321041 153.868331 
L 411.184816 150.4119 
L 412.132983 154.422839 
L 412.569835 150.374933 
L 414.163352 156.75366 
L 415.389516 150.374539 
L 415.404408 151.095657 
L 416.387325 146.565558 
L 416.893676 148.396088 
L 417.941128 153.739756 
L 418.467336 153.480894 
L 419.187149 150.041716 
L 420.229637 151.576403 
L 421.257231 148.63646 
L 421.87776 150.060206 
L 422.860677 144.513145 
L 423.759202 149.801343 
L 424.300302 141.499242 
L 424.513764 143.218831 
L 425.581073 136.026142 
L 426.042746 137.764221 
L 426.573918 134.325043 
L 427.487336 135.674828 
L 428.639036 144.06938 
L 429.259565 141.29585 
L 429.989306 146.010852 
L 430.341766 144.808988 
L 431.637429 150.46699 
L 431.840962 149.560971 
L 433.126697 159.675112 
L 433.896152 156.217444 
L 434.417396 160.340759 
L 435.216636 159.5087 
L 435.886807 155.829149 
L 436.616548 158.750601 
L 437.817891 156.217444 
L 438.428491 153.813717 
L 440.429074 154.257482 
L 440.592894 155.755189 
L 440.801391 155.551796 
L 442.290659 156.323172 
L 442.504121 156.653919 
L 443.571429 140.869935 
L 443.913961 140.098192 
L 444.718166 146.070013 
L 445.33373 140.925059 
L 446.460609 146.033264 
L 446.842855 144.471403 
L 448.247731 149.81848 
L 448.396658 149.836855 
L 449.096613 144.085531 
L 450.357527 146.933631 
L 450.978055 142.670669 
L 452.075149 144.416278 
L 452.819783 138.830328 
L 453.306278 143.368912 
L 454.522513 140.337064 
L 455.063614 124.332582 
L 456.225243 135.669856 
L 456.994698 128.724168 
L 457.471264 131.039397 
L 458.717284 125.857694 
L 458.87614 123.064718 
L 459.958341 134.640865 
L 460.76751 136.956095 
L 461.864604 126.188441 
L 462.867378 138.793578 
L 463.403514 131.627392 
L 463.800652 138.168834 
L 465.140993 130.561652 
L 466.054411 136.496724 
L 466.322479 136.662097 
L 467.146541 128.963041 
L 468.21385 134.310118 
L 469.067697 137.709463 
L 469.27123 137.47059 
L 470.636392 132.546134 
L 470.964031 133.079004 
L 472.130624 129.863408 
L 472.632011 129.440787 
L 473.545429 134.769489 
L 473.88796 134.310118 
L 474.563095 129.716409 
L 475.292837 133.134129 
L 476.444537 129.56941 
L 476.737426 133.152504 
L 477.978483 129.201914 
L 478.464977 129.220289 
L 479.492572 133.189253 
L 480.093244 130.965898 
L 480.842842 135.100236 
L 481.180409 134.65924 
L 481.771152 133.02388 
L 482.714355 134.365243 
L 484.069589 130.78215 
L 484.650403 130.910774 
L 485.618428 135.688231 
L 485.965923 132.968755 
L 486.809842 135.339109 
L 487.202016 133.758873 
L 488.532429 139.069201 
L 489.123171 136.735597 
L 489.87277 141.219057 
L 490.19048 139.785819 
L 491.605285 137.213342 
L 491.962709 136.110852 
L 503.554178 136.110852 
L 503.871888 136.831079 
L 505.40087 129.15792 
L 505.78808 134.855605 
L 506.552571 131.632462 
L 507.729092 139.513565 
L 508.582939 131.90279 
L 509.34743 138.577814 
L 509.536071 136.851873 
L 510.782092 131.008628 
L 511.129587 133.48317 
L 512.455036 127.390391 
L 512.971315 129.220304 
L 514.03366 128.430114 
L 515.364073 131.632462 
L 516.456202 133.587142 
L 516.654771 127.702308 
L 517.131337 130.904656 
L 518.163896 139.72151 
L 518.506428 138.245103 
L 519.211348 147.12434 
L 520.442476 144.566621 
L 521.157325 149.806827 
L 522.026065 147.332285 
L 522.31399 151.012906 
L 523.01891 149.557293 
L 524.096147 146.438123 
L 524.716675 149.203787 
L 525.74427 145.710317 
L 526.414441 148.351214 
L 526.776829 145.7727 
L 527.590962 149.058226 
L 528.851876 146.417328 
L 529.179515 147.685791 
L 530.996422 140.594878 
L 531.919768 144.254704 
L 532.396334 143.090214 
L 533.289894 144.940921 
L 534.312525 144.899332 
L 534.565701 141.385067 
L 535.032338 143.318953 
L 535.300406 137.018229 
L 536.437214 141.322684 
L 537.509487 147.103546 
L 538.030731 146.458917 
L 538.8399 139.347209 
L 539.475321 143.942787 
L 540.165348 147.228313 
L 541.039052 143.090214 
L 541.912756 152.239779 
L 543.263025 148.351214 
L 543.764412 152.447724 
L 544.007659 151.511973 
L 545.685568 146.916396 
L 546.807483 148.975048 
L 547.552117 148.080886 
L 548.147824 150.908933 
L 548.614462 150.992111 
L 549.870411 143.526897 
L 550.059051 143.734842 
L 550.252656 146.001439 
L 551.558248 145.16966 
L 552.546129 142.071285 
L 552.973052 142.591146 
L 553.946041 147.706585 
L 554.675782 142.799091 
L 555.326096 147.165929 
L 555.882089 144.836949 
L 557.187681 160.99425 
L 557.718853 160.890278 
L 558.607449 156.731384 
L 559.227978 160.079293 
L 560.235716 157.08489 
L 561.258346 156.190728 
L 561.695198 159.164337 
L 562.251192 155.754044 
L 563.194395 159.871349 
L 563.522034 159.247515 
L 564.226954 156.398673 
L 565.512688 156.731384 
L 566.123288 159.143542 
L 566.857994 160.245649 
L 567.731698 155.961989 
L 568.550795 157.604752 
L 569.300393 154.714321 
L 569.603211 156.2947 
L 570.685412 154.443993 
L 570.79959 155.234183 
L 571.638544 152.946791 
L 572.239215 153.383475 
L 572.239215 153.383475 
" clip-path="url(#p29b498e12d)" style="fill: none; stroke: #2e8b57; stroke-width: 1.5; stroke-linecap: square"/>
   </g>
   <g id="patch_8">
    <path d="M 71.248438 219.898195 
L 71.248438 118.453601 
" style="fill: none; stroke: #000000; stroke-width: 0.8; stroke-linejoin: miter; stroke-linecap: square"/>
   </g>
   <g id="patch_9">
    <path d="M 577.19952 219.898195 
L 577.19952 118.453601 
" style="fill: none; stroke: #000000; stroke-width: 0.8; stroke-linejoin: miter; stroke-linecap: square"/>
   </g>
   <g id="patch_10">
    <path d="M 71.248437 219.898195 
L 577.19952 219.898195 
" style="fill: none; stroke: #000000; stroke-width: 0.8; stroke-linejoin: miter; stroke-linecap: square"/>
   </g>
   <g id="patch_11">
    <path d="M 71.248437 118.453601 
L 577.19952 118.453601 
" style="fill: none; stroke: #000000; stroke-width: 0.8; stroke-linejoin: miter; stroke-linecap: square"/>
   </g>
  </g>
  <g id="axes_3">
   <g id="patch_12">
    <path d="M 71.248438 330.84327 
L 577.19952 330.84327 
L 577.19952 229.398675 
L 71.248438 229.398675 
z
" style="fill: #ffffff"/>
   </g>
   <g id="matplotlib.axis_5">
    <g id="xtick_29">
     <g id="line2d_40">
      <g>
       <use xlink:href="#mbafef71b61" x="76.207879" y="330.84327" style="stroke: #000000; stroke-width: 0.8"/>
      </g>
     </g>
     <g id="text_12">
      <!-- Nov -->
      <g transform="translate(66.448504 345.441707) scale(0.1 -0.1)">
       <defs>
        <path id="DejaVuSans-4e" d="M 628 4666 
L 1478 4666 
L 3547 763 
L 3547 4666 
L 4159 4666 
L 4159 0 
L 3309 0 
L 1241 3903 
L 1241 0 
L 628 0 
L 628 4666 
z
" transform="scale(0.015625)"/>
        <path id="DejaVuSans-6f" d="M 1959 3097 
Q 1497 3097 1228 2736 
Q 959 2375 959 1747 
Q 959 1119 1226 758 
Q 1494 397 1959 397 
Q 2419 397 2687 759 
Q 2956 1122 2956 1747 
Q 2956 2369 2687 2733 
Q 2419 3097 1959 3097 
z
M 1959 3584 
Q 2709 3584 3137 3096 
Q 3566 2609 3566 1747 
Q 3566 888 3137 398 
Q 2709 -91 1959 -91 
Q 1206 -91 779 398 
Q 353 888 353 1747 
Q 353 2609 779 3096 
Q 1206 3584 1959 3584 
z
" transform="scale(0.015625)"/>
        <path id="DejaVuSans-76" d="M 191 3500 
L 800 3500 
L 1894 563 
L 2988 3500 
L 3597 3500 
L 2284 0 
L 1503 0 
L 191 3500 
z
" transform="scale(0.015625)"/>
       </defs>
       <use xlink:href="#DejaVuSans-4e"/>
       <use xlink:href="#DejaVuSans-6f" transform="translate(74.804688 0)"/>
       <use xlink:href="#DejaVuSans-76" transform="translate(135.986328 0)"/>
      </g>
     </g>
    </g>
    <g id="xtick_30">
     <g id="line2d_41">
      <g>
       <use xlink:href="#mbafef71b61" x="113.504328" y="330.84327" style="stroke: #000000; stroke-width: 0.8"/>
      </g>
     </g>
     <g id="text_13">
      <!-- 03 -->
      <g transform="translate(107.141828 345.441707) scale(0.1 -0.1)">
       <use xlink:href="#DejaVuSans-30"/>
       <use xlink:href="#DejaVuSans-33" transform="translate(63.623047 0)"/>
      </g>
     </g>
    </g>
    <g id="xtick_31">
     <g id="line2d_42">
      <g>
       <use xlink:href="#mbafef71b61" x="150.800777" y="330.84327" style="stroke: #000000; stroke-width: 0.8"/>
      </g>
     </g>
     <g id="text_14">
      <!-- 05 -->
      <g transform="translate(144.438277 345.441707) scale(0.1 -0.1)">
       <defs>
        <path id="DejaVuSans-35" d="M 691 4666 
L 3169 4666 
L 3169 4134 
L 1269 4134 
L 1269 2991 
Q 1406 3038 1543 3061 
Q 1681 3084 1819 3084 
Q 2600 3084 3056 2656 
Q 3513 2228 3513 1497 
Q 3513 744 3044 326 
Q 2575 -91 1722 -91 
Q 1428 -91 1123 -41 
Q 819 9 494 109 
L 494 744 
Q 775 591 1075 516 
Q 1375 441 1709 441 
Q 2250 441 2565 725 
Q 2881 1009 2881 1497 
Q 2881 1984 2565 2268 
Q 2250 2553 1709 2553 
Q 1456 2553 1204 2497 
Q 953 2441 691 2322 
L 691 4666 
z
" transform="scale(0.015625)"/>
       </defs>
       <use xlink:href="#DejaVuSans-30"/>
       <use xlink:href="#DejaVuSans-35" transform="translate(63.623047 0)"/>
      </g>
     </g>
    </g>
    <g id="xtick_32">
     <g id="line2d_43">
      <g>
       <use xlink:href="#mbafef71b61" x="188.097227" y="330.84327" style="stroke: #000000; stroke-width: 0.8"/>
      </g>
     </g>
     <g id="text_15">
      <!-- 07 -->
      <g transform="translate(181.734727 345.441707) scale(0.1 -0.1)">
       <defs>
        <path id="DejaVuSans-37" d="M 525 4666 
L 3525 4666 
L 3525 4397 
L 1831 0 
L 1172 0 
L 2766 4134 
L 525 4134 
L 525 4666 
z
" transform="scale(0.015625)"/>
       </defs>
       <use xlink:href="#DejaVuSans-30"/>
       <use xlink:href="#DejaVuSans-37" transform="translate(63.623047 0)"/>
      </g>
     </g>
    </g>
    <g id="xtick_33">
     <g id="line2d_44">
      <g>
       <use xlink:href="#mbafef71b61" x="225.393676" y="330.84327" style="stroke: #000000; stroke-width: 0.8"/>
      </g>
     </g>
     <g id="text_16">
      <!-- 09 -->
      <g transform="translate(219.031176 345.441707) scale(0.1 -0.1)">
       <defs>
        <path id="DejaVuSans-39" d="M 703 97 
L 703 672 
Q 941 559 1184 500 
Q 1428 441 1663 441 
Q 2288 441 2617 861 
Q 2947 1281 2994 2138 
Q 2813 1869 2534 1725 
Q 2256 1581 1919 1581 
Q 1219 1581 811 2004 
Q 403 2428 403 3163 
Q 403 3881 828 4315 
Q 1253 4750 1959 4750 
Q 2769 4750 3195 4129 
Q 3622 3509 3622 2328 
Q 3622 1225 3098 567 
Q 2575 -91 1691 -91 
Q 1453 -91 1209 -44 
Q 966 3 703 97 
z
M 1959 2075 
Q 2384 2075 2632 2365 
Q 2881 2656 2881 3163 
Q 2881 3666 2632 3958 
Q 2384 4250 1959 4250 
Q 1534 4250 1286 3958 
Q 1038 3666 1038 3163 
Q 1038 2656 1286 2365 
Q 1534 2075 1959 2075 
z
" transform="scale(0.015625)"/>
       </defs>
       <use xlink:href="#DejaVuSans-30"/>
       <use xlink:href="#DejaVuSans-39" transform="translate(63.623047 0)"/>
      </g>
     </g>
    </g>
    <g id="xtick_34">
     <g id="line2d_45">
      <g>
       <use xlink:href="#mbafef71b61" x="262.690125" y="330.84327" style="stroke: #000000; stroke-width: 0.8"/>
      </g>
     </g>
     <g id="text_17">
      <!-- 11 -->
      <g transform="translate(256.327625 345.441707) scale(0.1 -0.1)">
       <use xlink:href="#DejaVuSans-31"/>
       <use xlink:href="#DejaVuSans-31" transform="translate(63.623047 0)"/>
      </g>
     </g>
    </g>
    <g id="xtick_35">
     <g id="line2d_46">
      <g>
       <use xlink:href="#mbafef71b61" x="299.986575" y="330.84327" style="stroke: #000000; stroke-width: 0.8"/>
      </g>
     </g>
     <g id="text_18">
      <!-- 13 -->
      <g transform="translate(293.624075 345.441707) scale(0.1 -0.1)">
       <use xlink:href="#DejaVuSans-31"/>
       <use xlink:href="#DejaVuSans-33" transform="translate(63.623047 0)"/>
      </g>
     </g>
    </g>
    <g id="xtick_36">
     <g id="line2d_47">
      <g>
       <use xlink:href="#mbafef71b61" x="337.283024" y="330.84327" style="stroke: #000000; stroke-width: 0.8"/>
      </g>
     </g>
     <g id="text_19">
      <!-- 15 -->
      <g transform="translate(330.920524 345.441707) scale(0.1 -0.1)">
       <use xlink:href="#DejaVuSans-31"/>
       <use xlink:href="#DejaVuSans-35" transform="translate(63.623047 0)"/>
      </g>
     </g>
    </g>
    <g id="xtick_37">
     <g id="line2d_48">
      <g>
       <use xlink:href="#mbafef71b61" x="374.579473" y="330.84327" style="stroke: #000000; stroke-width: 0.8"/>
      </g>
     </g>
     <g id="text_20">
      <!-- 17 -->
      <g transform="translate(368.216973 345.441707) scale(0.1 -0.1)">
       <use xlink:href="#DejaVuSans-31"/>
       <use xlink:href="#DejaVuSans-37" transform="translate(63.623047 0)"/>
      </g>
     </g>
    </g>
    <g id="xtick_38">
     <g id="line2d_49">
      <g>
       <use xlink:href="#mbafef71b61" x="411.875923" y="330.84327" style="stroke: #000000; stroke-width: 0.8"/>
      </g>
     </g>
     <g id="text_21">
      <!-- 19 -->
      <g transform="translate(405.513423 345.441707) scale(0.1 -0.1)">
       <use xlink:href="#DejaVuSans-31"/>
       <use xlink:href="#DejaVuSans-39" transform="translate(63.623047 0)"/>
      </g>
     </g>
    </g>
    <g id="xtick_39">
     <g id="line2d_50">
      <g>
       <use xlink:href="#mbafef71b61" x="449.172372" y="330.84327" style="stroke: #000000; stroke-width: 0.8"/>
      </g>
     </g>
     <g id="text_22">
      <!-- 21 -->
      <g transform="translate(442.809872 345.441707) scale(0.1 -0.1)">
       <use xlink:href="#DejaVuSans-32"/>
       <use xlink:href="#DejaVuSans-31" transform="translate(63.623047 0)"/>
      </g>
     </g>
    </g>
    <g id="xtick_40">
     <g id="line2d_51">
      <g>
       <use xlink:href="#mbafef71b61" x="486.468821" y="330.84327" style="stroke: #000000; stroke-width: 0.8"/>
      </g>
     </g>
     <g id="text_23">
      <!-- 23 -->
      <g transform="translate(480.106321 345.441707) scale(0.1 -0.1)">
       <use xlink:href="#DejaVuSans-32"/>
       <use xlink:href="#DejaVuSans-33" transform="translate(63.623047 0)"/>
      </g>
     </g>
    </g>
    <g id="xtick_41">
     <g id="line2d_52">
      <g>
       <use xlink:href="#mbafef71b61" x="523.76527" y="330.84327" style="stroke: #000000; stroke-width: 0.8"/>
      </g>
     </g>
     <g id="text_24">
      <!-- 25 -->
      <g transform="translate(517.40277 345.441707) scale(0.1 -0.1)">
       <use xlink:href="#DejaVuSans-32"/>
       <use xlink:href="#DejaVuSans-35" transform="translate(63.623047 0)"/>
      </g>
     </g>
    </g>
    <g id="xtick_42">
     <g id="line2d_53">
      <g>
       <use xlink:href="#mbafef71b61" x="561.06172" y="330.84327" style="stroke: #000000; stroke-width: 0.8"/>
      </g>
     </g>
     <g id="text_25">
      <!-- 27 -->
      <g transform="translate(554.69922 345.441707) scale(0.1 -0.1)">
       <use xlink:href="#DejaVuSans-32"/>
       <use xlink:href="#DejaVuSans-37" transform="translate(63.623047 0)"/>
      </g>
     </g>
    </g>
    <g id="text_26">
     <!-- Time -->
     <g transform="translate(311.990385 359.119832) scale(0.1 -0.1)">
      <defs>
       <path id="DejaVuSans-54" d="M -19 4666 
L 3928 4666 
L 3928 4134 
L 2272 4134 
L 2272 0 
L 1638 0 
L 1638 4134 
L -19 4134 
L -19 4666 
z
" transform="scale(0.015625)"/>
       <path id="DejaVuSans-6d" d="M 3328 2828 
Q 3544 3216 3844 3400 
Q 4144 3584 4550 3584 
Q 5097 3584 5394 3201 
Q 5691 2819 5691 2113 
L 5691 0 
L 5113 0 
L 5113 2094 
Q 5113 2597 4934 2840 
Q 4756 3084 4391 3084 
Q 3944 3084 3684 2787 
Q 3425 2491 3425 1978 
L 3425 0 
L 2847 0 
L 2847 2094 
Q 2847 2600 2669 2842 
Q 2491 3084 2119 3084 
Q 1678 3084 1418 2786 
Q 1159 2488 1159 1978 
L 1159 0 
L 581 0 
L 581 3500 
L 1159 3500 
L 1159 2956 
Q 1356 3278 1631 3431 
Q 1906 3584 2284 3584 
Q 2666 3584 2933 3390 
Q 3200 3197 3328 2828 
z
" transform="scale(0.015625)"/>
      </defs>
      <use xlink:href="#DejaVuSans-54"/>
      <use xlink:href="#DejaVuSans-69" transform="translate(57.958984 0)"/>
      <use xlink:href="#DejaVuSans-6d" transform="translate(85.742188 0)"/>
      <use xlink:href="#DejaVuSans-65" transform="translate(183.154297 0)"/>
     </g>
    </g>
    <g id="text_27">
     <!-- 2025-Nov -->
     <g transform="translate(528.622957 358.119832) scale(0.1 -0.1)">
      <defs>
       <path id="DejaVuSans-2d" d="M 313 2009 
L 1997 2009 
L 1997 1497 
L 313 1497 
L 313 2009 
z
" transform="scale(0.015625)"/>
      </defs>
      <use xlink:href="#DejaVuSans-32"/>
      <use xlink:href="#DejaVuSans-30" transform="translate(63.623047 0)"/>
      <use xlink:href="#DejaVuSans-32" transform="translate(127.246094 0)"/>
      <use xlink:href="#DejaVuSans-35" transform="translate(190.869141 0)"/>
      <use xlink:href="#DejaVuSans-2d" transform="translate(254.492188 0)"/>
      <use xlink:href="#DejaVuSans-4e" transform="translate(290.576172 0)"/>
      <use xlink:href="#DejaVuSans-6f" transform="translate(365.380859 0)"/>
      <use xlink:href="#DejaVuSans-76" transform="translate(426.5625 0)"/>
     </g>
    </g>
   </g>
   <g id="matplotlib.axis_6">
    <g id="ytick_10">
     <g id="line2d_54">
      <g>
       <use xlink:href="#m50c72d243e" x="71.248438" y="325.43774" style="stroke: #000000; stroke-width: 0.8"/>
      </g>
     </g>
     <g id="text_28">
      <!-- 0.0050 -->
      <g transform="translate(20.878125 329.236959) scale(0.1 -0.1)">
       <defs>
        <path id="DejaVuSans-2212" d="M 678 2272 
L 4684 2272 
L 4684 1741 
L 678 1741 
L 678 2272 
z
" transform="scale(0.015625)"/>
        <path id="DejaVuSans-2e" d="M 684 794 
L 1344 794 
L 1344 0 
L 684 0 
L 684 794 
z
" transform="scale(0.015625)"/>
       </defs>
       <use xlink:href="#DejaVuSans-2212"/>
       <use xlink:href="#DejaVuSans-30" transform="translate(83.789062 0)"/>
       <use xlink:href="#DejaVuSans-2e" transform="translate(147.412109 0)"/>
       <use xlink:href="#DejaVuSans-30" transform="translate(179.199219 0)"/>
       <use xlink:href="#DejaVuSans-30" transform="translate(242.822266 0)"/>
       <use xlink:href="#DejaVuSans-35" transform="translate(306.445312 0)"/>
       <use xlink:href="#DejaVuSans-30" transform="translate(370.068359 0)"/>
      </g>
     </g>
    </g>
    <g id="ytick_11">
     <g id="line2d_55">
      <g>
       <use xlink:href="#m50c72d243e" x="71.248438" y="303.370752" style="stroke: #000000; stroke-width: 0.8"/>
      </g>
     </g>
     <g id="text_29">
      <!-- 0.0025 -->
      <g transform="translate(20.878125 307.169971) scale(0.1 -0.1)">
       <use xlink:href="#DejaVuSans-2212"/>
       <use xlink:href="#DejaVuSans-30" transform="translate(83.789062 0)"/>
       <use xlink:href="#DejaVuSans-2e" transform="translate(147.412109 0)"/>
       <use xlink:href="#DejaVuSans-30" transform="translate(179.199219 0)"/>
       <use xlink:href="#DejaVuSans-30" transform="translate(242.822266 0)"/>
       <use xlink:href="#DejaVuSans-32" transform="translate(306.445312 0)"/>
       <use xlink:href="#DejaVuSans-35" transform="translate(370.068359 0)"/>
      </g>
     </g>
    </g>
    <g id="ytick_12">
     <g id="line2d_56">
      <g>
       <use xlink:href="#m50c72d243e" x="71.248438" y="281.303763" style="stroke: #000000; stroke-width: 0.8"/>
      </g>
     </g>
     <g id="text_30">
      <!-- 0.0000 -->
      <g transform="translate(29.257813 285.102982) scale(0.1 -0.1)">
       <use xlink:href="#DejaVuSans-30"/>
       <use xlink:href="#DejaVuSans-2e" transform="translate(63.623047 0)"/>
       <use xlink:href="#DejaVuSans-30" transform="translate(95.410156 0)"/>
       <use xlink:href="#DejaVuSans-30" transform="translate(159.033203 0)"/>
       <use xlink:href="#DejaVuSans-30" transform="translate(222.65625 0)"/>
       <use xlink:href="#DejaVuSans-30" transform="translate(286.279297 0)"/>
      </g>
     </g>
    </g>
    <g id="ytick_13">
     <g id="line2d_57">
      <g>
       <use xlink:href="#m50c72d243e" x="71.248438" y="259.236775" style="stroke: #000000; stroke-width: 0.8"/>
      </g>
     </g>
     <g id="text_31">
      <!-- 0.0025 -->
      <g transform="translate(29.257813 263.035993) scale(0.1 -0.1)">
       <use xlink:href="#DejaVuSans-30"/>
       <use xlink:href="#DejaVuSans-2e" transform="translate(63.623047 0)"/>
       <use xlink:href="#DejaVuSans-30" transform="translate(95.410156 0)"/>
       <use xlink:href="#DejaVuSans-30" transform="translate(159.033203 0)"/>
       <use xlink:href="#DejaVuSans-32" transform="translate(222.65625 0)"/>
       <use xlink:href="#DejaVuSans-35" transform="translate(286.279297 0)"/>
      </g>
     </g>
    </g>
    <g id="ytick_14">
     <g id="line2d_58">
      <g>
       <use xlink:href="#m50c72d243e" x="71.248438" y="237.169786" style="stroke: #000000; stroke-width: 0.8"/>
      </g>
     </g>
     <g id="text_32">
      <!-- 0.0050 -->
      <g transform="translate(29.257813 240.969005) scale(0.1 -0.1)">
       <use xlink:href="#DejaVuSans-30"/>
       <use xlink:href="#DejaVuSans-2e" transform="translate(63.623047 0)"/>
       <use xlink:href="#DejaVuSans-30" transform="translate(95.410156 0)"/>
       <use xlink:href="#DejaVuSans-30" transform="translate(159.033203 0)"/>
       <use xlink:href="#DejaVuSans-35" transform="translate(222.65625 0)"/>
       <use xlink:href="#DejaVuSans-30" transform="translate(286.279297 0)"/>
      </g>
     </g>
    </g>
    <g id="text_33">
     <!-- Score -->
     <g transform="translate(14.798438 294.123316) rotate(-90) scale(0.1 -0.1)">
      <defs>
       <path id="DejaVuSans-53" d="M 3425 4513 
L 3425 3897 
Q 3066 4069 2747 4153 
Q 2428 4238 2131 4238 
Q 1616 4238 1336 4038 
Q 1056 3838 1056 3469 
Q 1056 3159 1242 3001 
Q 1428 2844 1947 2747 
L 2328 2669 
Q 3034 2534 3370 2195 
Q 3706 1856 3706 1288 
Q 3706 609 3251 259 
Q 2797 -91 1919 -91 
Q 1588 -91 1214 -16 
Q 841 59 441 206 
L 441 856 
Q 825 641 1194 531 
Q 1563 422 1919 422 
Q 2459 422 2753 634 
Q 3047 847 3047 1241 
Q 3047 1584 2836 1778 
Q 2625 1972 2144 2069 
L 1759 2144 
Q 1053 2284 737 2584 
Q 422 2884 422 3419 
Q 422 4038 858 4394 
Q 1294 4750 2059 4750 
Q 2388 4750 2728 4690 
Q 3069 4631 3425 4513 
z
" transform="scale(0.015625)"/>
      </defs>
      <use xlink:href="#DejaVuSans-53"/>
      <use xlink:href="#DejaVuSans-63" transform="translate(63.476562 0)"/>
      <use xlink:href="#DejaVuSans-6f" transform="translate(118.457031 0)"/>
      <use xlink:href="#DejaVuSans-72" transform="translate(179.638672 0)"/>
      <use xlink:href="#DejaVuSans-65" transform="translate(218.501953 0)"/>
     </g>
    </g>
   </g>
   <g id="line2d_59">
    <path d="M 76.208742 265.264593 
L 76.387454 264.137411 
L 77.137053 273.720752 
L 78.040542 268.668206 
L 79.276634 276.067708 
L 80.388621 271.678143 
L 80.894972 271.252691 
L 82.066529 280.376332 
L 82.185671 277.923454 
L 83.511119 288.915903 
L 84.449358 288.812453 
L 84.747212 286.044194 
L 85.735093 284.288103 
L 86.36555 287.108264 
L 86.852044 284.941639 
L 87.820068 281.981132 
L 88.1626 283.581076 
L 92.640332 283.581076 
L 93.16654 281.194955 
L 94.089886 296.266064 
L 94.343062 296.241349 
L 95.564261 291.604634 
L 96.576963 289.257236 
L 96.934388 291.905627 
L 97.142885 291.364545 
L 97.30174 281.59683 
L 98.766187 290.935562 
L 99.35693 278.48166 
L 101.034839 278.315893 
L 101.402192 290.84906 
L 101.853936 285.709658 
L 103.090029 296.812443 
L 103.571559 294.863486 
L 103.834663 298.907924 
L 105.160111 294.771688 
L 106.023886 301.278801 
L 106.177777 301.082846 
L 106.76852 310.311261 
L 107.796115 311.900084 
L 108.898174 306.106176 
L 109.136456 307.362229 
L 109.95059 300.662691 
L 110.595939 304.184582 
L 111.285966 296.668566 
L 112.070314 297.53624 
L 113.514904 308.20254 
L 113.569511 304.715073 
L 114.885031 313.452718 
L 115.058779 313.403288 
L 115.604843 303.677924 
L 116.562939 305.724858 
L 117.138789 290.019782 
L 118.091921 292.912765 
L 119.303192 285.701979 
L 119.541475 286.828896 
L 120.802389 300.373172 
L 121.621486 303.457254 
L 122.663974 279.207929 
L 123.949708 288.432901 
L 124.048993 287.84486 
L 125.116301 297.085191 
L 125.518404 291.396321 
L 127.012636 242.836589 
L 127.876411 238.184867 
L 128.506868 239.031357 
L 129.608926 235.08931 
L 130.0011 235.101668 
L 131.276906 239.633345 
L 132.259823 239.596272 
L 132.627176 241.355452 
L 133.461166 247.236746 
L 134.156158 240.413633 
L 134.568189 243.125225 
L 135.923422 249.984528 
L 136.256026 264.961834 
L 136.861661 243.683078 
L 137.472261 245.110371 
L 138.336036 237.90241 
L 138.966493 238.649157 
L 140.460725 244.297423 
L 141.905315 235.695711 
L 141.954958 235.868716 
L 142.754198 238.975748 
L 143.608045 236.447754 
L 144.15411 257.7168 
L 144.943422 242.989292 
L 145.971017 236.217375 
L 146.437654 236.217375 
L 147.728353 261.53792 
L 148.264489 262.95109 
L 149.376476 240.509845 
L 150.567891 237.004725 
L 150.835959 246.501474 
L 150.920351 240.327131 
L 152.116729 234.009793 
L 152.503939 234.009793 
L 153.730103 258.099883 
L 153.988243 258.287011 
L 155.338512 237.068278 
L 155.686008 236.830837 
L 156.246966 244.00967 
L 156.936993 241.981272 
L 158.133372 236.308291 
L 158.40144 237.383394 
L 158.724115 244.611657 
L 160.233239 238.166331 
L 161.29062 249.458451 
L 161.379976 247.967605 
L 161.722507 279.90401 
L 163.941517 281.841536 
L 164.159943 261.243988 
L 164.681186 262.757783 
L 165.46057 282.541898 
L 166.254846 282.24417 
L 166.885303 277.653795 
L 167.883112 276.027458 
L 168.736959 282.819236 
L 169.248275 287.994562 
L 170.181549 276.720538 
L 170.866613 276.190312 
L 171.789959 291.679661 
L 171.963707 291.607282 
L 173.110443 264.363377 
L 173.333833 268.056509 
L 174.028825 262.747191 
L 175.259953 264.906225 
L 176.247834 270.220839 
L 176.481153 265.706816 
L 177.230751 293.475031 
L 178.774625 282.664767 
L 178.784554 297.886664 
L 179.330619 290.343284 
L 180.80003 275.802375 
L 181.068098 281.971131 
L 182.299226 238.651805 
L 183.704102 236.715206 
L 183.793458 237.833561 
L 183.818279 236.715206 
L 185.386975 236.283576 
L 186.727316 242.171048 
L 187.174096 243.151705 
L 189.000932 235.625979 
L 189.214394 244.073223 
L 190.435593 238.808922 
L 190.996551 256.023821 
L 191.398653 239.346474 
L 192.674459 250.483242 
L 192.823386 247.925236 
L 194.243155 279.456845 
L 194.282869 279.262832 
L 195.891278 305.877562 
L 198.671245 244.053804 
L 198.795351 244.46425 
L 199.659126 236.531609 
L 200.304476 236.531609 
L 201.669638 270.37619 
L 202.161096 269.169568 
L 203.218476 274.911839 
L 204.807029 285.609915 
L 206.152334 281.012329 
L 206.246655 281.74979 
L 207.532389 258.272889 
L 208.133061 264.725276 
L 208.882659 280.289564 
L 209.245047 278.756262 
L 209.860611 272.079762 
L 210.70453 276.75408 
L 211.756946 261.734758 
L 212.556186 265.43142 
L 213.325642 278.530031 
L 213.678102 275.37454 
L 214.343308 281.892087 
L 215.365939 281.140927 
L 216.557353 273.20562 
L 217.033919 274.55709 
L 218.493401 266.347641 
L 219.52596 270.340883 
L 220.081954 265.149845 
L 221.139334 278.540094 
L 221.973324 277.079524 
L 222.593852 285.055063 
L 223.125025 286.660745 
L 224.112906 277.650176 
L 224.37601 277.036008 
L 225.095822 286.721474 
L 225.701458 283.352109 
L 226.813445 274.767168 
L 227.13612 280.722669 
L 228.173643 270.31352 
L 228.918277 278.965986 
L 229.37995 272.071818 
L 230.303296 274.337833 
L 231.286213 284.308669 
L 232.403164 279.829335 
L 233.093191 287.296628 
L 233.122977 285.233629 
L 234.503032 311.788867 
L 235.520698 293.15815 
L 236.632685 288.18425 
L 236.816361 301.957582 
L 237.590781 299.775598 
L 239.298474 264.074741 
L 240.554424 282.48673 
L 240.633851 280.843393 
L 241.815337 291.594041 
L 242.53515 282.370923 
L 243.513103 290.649574 
L 243.567709 288.787827 
L 244.858408 316.904877 
L 245.056977 308.595332 
L 246.159035 280.185408 
L 246.585959 280.492439 
L 247.886586 295.764702 
L 248.139762 294.056717 
L 249.192178 270.44857 
L 250.145309 271.425696 
L 250.338914 293.917254 
L 251.033906 289.641819 
L 252.35439 310.049105 
L 252.528138 305.755752 
L 253.372056 319.046258 
L 254.042227 312.93635 
L 255.342854 291.759985 
L 255.56128 302.640776 
L 256.8768 315.441395 
L 257.010834 315.392847 
L 258.207213 294.568671 
L 258.7086 298.281222 
L 259.805694 281.041493 
L 259.999299 285.321985 
L 261.458781 269.375232 
L 261.945276 278.009515 
L 262.769337 270.762804 
L 263.762182 283.90246 
L 264.333069 268.983322 
L 264.715314 274.787381 
L 265.966299 252.187696 
L 266.130118 257.470533 
L 266.60172 247.387684 
L 267.554851 250.336717 
L 268.771087 301.98318 
L 269.222832 290.62839 
L 269.883074 312.514429 
L 270.672386 306.337438 
L 272.067333 277.945609 
L 272.960894 303.52169 
L 274.04806 289.733971 
L 274.862193 275.619748 
L 274.966442 276.582752 
L 276.430888 248.396587 
L 276.763492 244.268295 
L 277.930085 249.34635 
L 279.374675 274.958798 
L 279.53353 272.901713 
L 280.908621 304.75038 
L 281.45965 306.424823 
L 282.045429 293.455613 
L 283.787872 310.664333 
L 284.398472 313.102294 
L 285.440959 287.701336 
L 286.806122 306.050567 
L 286.940156 297.154922 
L 288.340068 310.099418 
L 288.434388 308.731265 
L 289.640695 321.403895 
L 289.883942 321.403895 
L 291.343425 315.69031 
L 291.432781 318.155634 
L 292.246914 310.498389 
L 292.872406 311.494934 
L 294.366639 249.838003 
L 295.468697 242.618567 
L 296.019726 243.92405 
L 296.173617 239.288217 
L 298.611052 243.088152 
L 298.849335 238.570598 
L 300.274068 257.178366 
L 300.348532 255.286784 
L 300.944239 270.689542 
L 302.622147 256.828825 
L 302.840573 272.225404 
L 304.012131 265.455252 
L 304.826264 271.38421 
L 305.000012 279.318529 
L 306.633242 274.491772 
L 307.531767 279.994838 
L 307.89912 279.782288 
L 309.279175 299.637017 
L 310.098272 291.233025 
L 310.644337 301.797817 
L 310.803192 295.899752 
L 312.133605 251.375631 
L 312.45628 252.237126 
L 313.796621 236.092917 
L 314.566076 237.8265 
L 315.871668 237.01973 
L 316.710622 238.966922 
L 317.231866 235.495343 
L 318.229675 255.958503 
L 318.45803 256.406904 
L 319.014023 238.94662 
L 320.423863 240.388036 
L 321.168497 238.685347 
L 321.376995 238.714475 
L 322.245735 235.254371 
L 322.75705 235.921677 
L 323.407363 238.492923 
L 324.33071 237.676444 
L 325.090236 240.356259 
L 325.770335 240.552214 
L 327.165283 235.535946 
L 327.269532 237.049742 
L 329.617611 234.380519 
L 330.213318 245.018572 
L 330.362245 236.981775 
L 331.568552 262.925492 
L 331.722443 262.250243 
L 333.122355 235.964928 
L 333.698205 238.048935 
L 334.710907 235.307332 
L 336.031391 234.009793 
L 336.205139 234.009793 
L 337.495838 234.467021 
L 338.647539 234.238407 
L 339.143961 241.563765 
L 339.203532 238.463794 
L 340.682872 256.979763 
L 341.129652 246.068961 
L 342.182068 265.072169 
L 343.552195 305.384144 
L 344.852822 307.241302 
L 345.140747 297.056945 
L 345.175497 299.406638 
L 346.570444 276.469945 
L 346.82362 276.641097 
L 347.722145 285.453769 
L 348.39728 285.730225 
L 348.898666 272.258946 
L 349.777335 273.06086 
L 350.497147 279.433895 
L 351.370851 281.014818 
L 352.587087 270.305576 
L 353.182794 275.316195 
L 353.713966 269.76979 
L 354.642276 271.102636 
L 355.615265 279.999516 
L 356.081902 274.426277 
L 356.900999 288.453556 
L 357.223674 288.931085 
L 358.092414 279.268304 
L 359.174615 276.780207 
L 359.407934 295.485775 
L 360.152568 283.430668 
L 360.887273 292.425525 
L 362.078688 289.516214 
L 362.882892 276.828225 
L 363.453778 278.190111 
L 363.79631 284.610987 
L 364.605479 280.728406 
L 365.518897 270.096381 
L 366.288352 274.353191 
L 367.380482 266.688355 
L 367.703156 274.103834 
L 369.063354 254.472953 
L 369.311566 254.954013 
L 370.294482 243.352956 
L 371.535539 244.016731 
L 372.022033 242.048356 
L 372.260316 244.729936 
L 373.024807 236.423922 
L 373.699942 236.506894 
L 375.050211 248.708173 
L 375.179281 241.958323 
L 375.397707 259.657813 
L 376.921725 248.839692 
L 377.701108 264.885924 
L 378.063497 268.852686 
L 378.410993 248.208576 
L 379.701692 255.694582 
L 381.022176 277.625991 
L 381.06189 276.358463 
L 382.387338 309.820491 
L 383.131972 309.639542 
L 383.856749 301.511829 
L 384.020569 302.390095 
L 385.10277 316.722163 
L 385.951653 305.091977 
L 387.004069 252.389829 
L 387.009033 252.879717 
L 388.354338 240.085277 
L 389.362076 242.568254 
L 389.803893 238.322565 
L 390.727239 237.280121 
L 391.392445 242.071305 
L 391.829297 240.29712 
L 392.057651 242.39878 
L 393.129924 240.326248 
L 394.038378 238.261661 
L 395.046116 234.398172 
L 395.91982 255.285901 
L 395.984354 254.862215 
L 397.409087 261.862746 
L 397.845939 261.883048 
L 398.332434 260.347185 
L 399.116781 261.386099 
L 399.742274 241.599955 
L 400.764905 247.889046 
L 401.931498 259.928795 
L 401.951355 256.514591 
L 403.361195 242.733315 
L 404.542681 255.060818 
L 405.019247 241.090649 
L 405.972378 278.767648 
L 406.885796 267.664599 
L 407.436825 279.158587 
L 408.260887 279.213666 
L 408.72256 263.697837 
L 410.266434 250.216672 
L 410.767821 275.474371 
L 410.971354 257.756521 
L 411.879808 289.551168 
L 412.41098 282.181985 
L 413.647072 299.119767 
L 414.064067 284.632524 
L 415.399444 308.318171 
L 416.010044 292.103347 
L 417.126995 298.174417 
L 417.474491 304.70095 
L 418.387909 302.021135 
L 419.678607 281.801241 
L 420.909736 273.274469 
L 421.202625 284.110155 
L 421.386301 281.287142 
L 422.389075 288.804686 
L 422.870605 284.800587 
L 424.21591 313.869342 
L 425.035008 266.367943 
L 425.779642 303.624964 
L 425.973247 293.919902 
L 426.489526 317.909367 
L 427.695833 314.468682 
L 428.495074 285.554307 
L 429.433312 313.949666 
L 430.287159 301.997302 
L 430.341766 298.565444 
L 431.82607 319.351665 
L 432.14378 315.485529 
L 432.952949 325.27621 
L 433.33023 323.121589 
L 434.566323 309.626302 
L 435.181887 308.718025 
L 435.971199 302.858798 
L 436.770439 306.53251 
L 437.599465 277.495619 
L 437.812927 277.495619 
L 438.771022 258.307313 
L 439.580191 262.36146 
L 440.622679 250.793062 
L 441.541061 249.687947 
L 442.265838 292.913647 
L 443.318254 303.394584 
L 443.789855 266.830467 
L 445.194731 299.086225 
L 446.0039 264.264517 
L 446.708821 299.050035 
L 447.339277 286.764725 
L 448.242767 309.671318 
L 448.277516 302.580754 
L 448.878188 323.679443 
L 449.766784 320.511506 
L 451.131946 323.559398 
L 451.26598 322.63082 
L 452.328325 326.081214 
L 452.983603 326.188901 
L 453.877164 322.912394 
L 455.098363 320.970499 
L 455.525287 325.606332 
L 456.533025 325.930276 
L 456.900377 323.892169 
L 457.30248 325.00611 
L 458.677571 319.996021 
L 459.382491 319.819485 
L 460.176767 325.397137 
L 460.355479 324.136671 
L 460.9909 326.173895 
L 461.720641 326.138588 
L 463.070911 323.913353 
L 463.214874 324.369698 
L 464.644571 326.021192 
L 464.74882 325.83936 
L 466.203338 326.202141 
L 466.615369 325.471282 
L 467.69757 325.8526 
L 469.117339 307.302207 
L 469.191802 308.981063 
L 470.661213 290.908199 
L 470.760498 285.790776 
L 471.351241 304.706246 
L 473.257504 298.419802 
L 473.456073 290.311508 
L 474.056744 286.029983 
L 474.88577 296.486734 
L 475.188588 292.831558 
L 475.81408 301.089908 
L 476.737426 293.401769 
L 477.879199 287.358945 
L 479.070613 287.073486 
L 479.586892 297.093135 
L 480.177635 288.943973 
L 480.957019 300.858646 
L 482.29736 301.854308 
L 482.515786 293.111367 
L 482.644856 296.046277 
L 483.83627 276.418132 
L 484.134124 277.920982 
L 485.390073 274.753045 
L 486.636094 268.196855 
L 487.162302 279.977272 
L 488.105505 264.470182 
L 488.61682 265.468492 
L 489.922412 275.476489 
L 490.562797 279.390202 
L 492.052065 247.249986 
L 493.715081 247.219975 
L 494.415037 281.356409 
L 494.598713 282.755241 
L 495.96884 265.050102 
L 496.152516 271.048792 
L 497.477965 280.591953 
L 497.885031 277.676833 
L 498.028994 281.515191 
L 500.421751 286.961474 
L 500.466429 273.90532 
L 501.086957 271.026725 
L 501.111778 285.384744 
L 502.079803 276.368349 
L 503.817282 292.632073 
L 504.849841 270.18818 
L 505.157623 269.875711 
L 506.249753 287.164402 
L 506.775961 280.851814 
L 508.041839 302.842027 
L 508.687188 290.922322 
L 509.565856 295.524613 
L 509.938173 288.144883 
L 512.335894 284.415385 
L 512.395465 297.740139 
L 512.618855 296.583829 
L 513.790413 281.734908 
L 514.16273 278.462065 
L 515.001684 297.169045 
L 516.103742 283.288821 
L 517.007232 308.510595 
L 517.473869 294.944693 
L 518.501464 298.352719 
L 519.797127 314.215353 
L 521.082862 307.243067 
L 521.489928 313.25588 
L 522.790555 283.22774 
L 523.023874 287.408287 
L 524.438679 265.963675 
L 525.396774 258.133425 
L 525.476202 268.902998 
L 525.972625 260.033834 
L 526.945613 284.725912 
L 527.863995 281.686061 
L 528.385239 272.413415 
L 529.363191 283.134617 
L 529.586581 275.813673 
L 530.683675 286.477766 
L 531.448166 275.903265 
L 531.949553 284.046425 
L 533.389179 268.158899 
L 533.538106 268.254229 
L 534.734484 275.614894 
L 534.972767 275.14875 
L 535.553582 297.407369 
L 536.466999 281.67756 
L 537.752734 302.375089 
L 537.951303 296.614723 
L 539.103004 308.815119 
L 540.453273 301.13669 
L 541.297192 300.159564 
L 541.977291 308.066607 
L 543.034671 308.102797 
L 543.238204 298.594573 
L 544.340263 306.48308 
L 545.050147 301.89756 
L 545.506856 306.050567 
L 546.365667 289.605629 
L 547.110301 294.444214 
L 547.562045 285.368503 
L 548.386107 289.055367 
L 549.781055 275.325639 
L 549.880339 276.08139 
L 550.654759 263.621044 
L 551.374571 274.066497 
L 552.834054 289.805556 
L 552.982981 295.079743 
L 554.040361 282.247789 
L 555.395595 299.205387 
L 555.931731 291.375137 
L 557.138038 318.22007 
L 557.758567 318.904146 
L 558.532986 303.474908 
L 559.208121 312.910752 
L 560.230751 295.677317 
L 560.72221 306.869694 
L 561.442023 271.659607 
L 562.851863 304.711542 
L 563.333393 272.695607 
L 563.507141 303.030038 
L 564.872303 287.188146 
L 566.058753 309.96172 
L 566.316893 309.96172 
L 567.597664 283.882335 
L 568.803971 292.825379 
L 569.216001 269.274606 
L 569.364928 268.398988 
L 569.796816 288.935587 
L 570.79959 287.804257 
L 571.976111 304.030113 
L 572.239215 296.362276 
L 572.239215 296.362276 
" clip-path="url(#p22ffebf052)" style="fill: none; stroke: #7a738c; stroke-width: 1.5; stroke-linecap: square"/>
   </g>
   <g id="patch_13">
    <path d="M 71.248438 330.84327 
L 71.248438 229.398675 
" style="fill: none; stroke: #000000; stroke-width: 0.8; stroke-linejoin: miter; stroke-linecap: square"/>
   </g>
   <g id="patch_14">
    <path d="M 577.19952 330.84327 
L 577.19952 229.398675 
" style="fill: none; stroke: #000000; stroke-width: 0.8; stroke-linejoin: miter; stroke-linecap: square"/>
   </g>
   <g id="patch_15">
    <path d="M 71.248437 330.84327 
L 577.19952 330.84327 
" style="fill: none; stroke: #000000; stroke-width: 0.8; stroke-linejoin: miter; stroke-linecap: square"/>
   </g>
   <g id="patch_16">
    <path d="M 71.248437 229.398675 
L 577.19952 229.398675 
" style="fill: none; stroke: #000000; stroke-width: 0.8; stroke-linejoin: miter; stroke-linecap: square"/>
   </g>
  </g>
 </g>
 <defs>
  <clipPath id="pb11d62f074">
   <rect x="71.248438" y="7.2" width="505.951082" height="101.444595"/>
  </clipPath>
  <clipPath id="p29b498e12d">
   <rect x="71.248438" y="118.453601" width="505.951082" height="101.444595"/>
  </clipPath>
  <clipPath id="p22ffebf052">
   <rect x="71.248438" y="229.398675" width="505.951082" height="101.444595"/>
  </clipPath>
 </defs>
</svg>
