<?xml version="1.0" encoding="utf-8" standalone="no"?>
<!DOCTYPE svg PUBLIC "-//W3C//DTD SVG 1.1//EN"
  "http://www.w3.org/Graphics/SVG/1.1/DTD/svg11.dtd">
<svg xmlns:xlink="http://www.w3.org/1999/xlink"   viewBox="0 0 584.39952 368.39952" xmlns="http://www.w3.org/2000/svg" version="1.1" preserveAspectRatio="xMidYMid meet" style="width:100%;height:auto;aspect-ratio:8 / 5;display:block;">
 <metadata>
  <rdf:RDF xmlns:dc="http://purl.org/dc/elements/1.1/" xmlns:cc="http://creativecommons.org/ns#" xmlns:rdf="http://www.w3.org/1999/02/22-rdf-syntax-ns#">
   <cc:Work>
    <dc:type rdf:resource="http://purl.org/dc/dcmitype/StillImage"/>
    <dc:date>2025-11-20T08:36:42.810801</dc:date>
    <dc:format>image/svg+xml</dc:format>
    <dc:creator>
     <cc:Agent>
      <dc:title>Matplotlib v3.10.7, https://matplotlib.org/</dc:title>
     </cc:Agent>
    </dc:creator>
   </cc:Work>
  </rdf:RDF>
 </metadata>
 <defs>
  <style type="text/css">*{stroke-linejoin: round; stroke-linecap: butt}</style>
 </defs>
 <g id="figure_1">
  <g id="patch_1">
   <path d="M 0 368.39952 
L 584.39952 368.39952 
L 584.39952 0 
L 0 0 
z
" style="fill: #ffffff"/>
  </g>
  <g id="axes_1">
   <g id="patch_2">
    <path d="M 53.328125 108.747437 
L 577.19952 108.747437 
L 577.19952 7.2 
L 53.328125 7.2 
z
" style="fill: #ffffff"/>
   </g>
   <g id="matplotlib.axis_1">
    <g id="xtick_1">
     <g id="line2d_1">
      <defs>
       <path id="mc4f817595b" d="M 0 0 
L 0 3.5 
" style="stroke: #000000; stroke-width: 0.8"/>
      </defs>
      <g>
       <use xlink:href="#mc4f817595b" x="58.462822" y="108.747437" style="stroke: #000000; stroke-width: 0.8"/>
      </g>
     </g>
    </g>
    <g id="xtick_2">
     <g id="line2d_2">
      <g>
       <use xlink:href="#mc4f817595b" x="86.471465" y="108.747437" style="stroke: #000000; stroke-width: 0.8"/>
      </g>
     </g>
    </g>
    <g id="xtick_3">
     <g id="line2d_3">
      <g>
       <use xlink:href="#mc4f817595b" x="114.480108" y="108.747437" style="stroke: #000000; stroke-width: 0.8"/>
      </g>
     </g>
    </g>
    <g id="xtick_4">
     <g id="line2d_4">
      <g>
       <use xlink:href="#mc4f817595b" x="142.48875" y="108.747437" style="stroke: #000000; stroke-width: 0.8"/>
      </g>
     </g>
    </g>
    <g id="xtick_5">
     <g id="line2d_5">
      <g>
       <use xlink:href="#mc4f817595b" x="170.497393" y="108.747437" style="stroke: #000000; stroke-width: 0.8"/>
      </g>
     </g>
    </g>
    <g id="xtick_6">
     <g id="line2d_6">
      <g>
       <use xlink:href="#mc4f817595b" x="198.506035" y="108.747437" style="stroke: #000000; stroke-width: 0.8"/>
      </g>
     </g>
    </g>
    <g id="xtick_7">
     <g id="line2d_7">
      <g>
       <use xlink:href="#mc4f817595b" x="226.514678" y="108.747437" style="stroke: #000000; stroke-width: 0.8"/>
      </g>
     </g>
    </g>
    <g id="xtick_8">
     <g id="line2d_8">
      <g>
       <use xlink:href="#mc4f817595b" x="254.523321" y="108.747437" style="stroke: #000000; stroke-width: 0.8"/>
      </g>
     </g>
    </g>
    <g id="xtick_9">
     <g id="line2d_9">
      <g>
       <use xlink:href="#mc4f817595b" x="282.531963" y="108.747437" style="stroke: #000000; stroke-width: 0.8"/>
      </g>
     </g>
    </g>
    <g id="xtick_10">
     <g id="line2d_10">
      <g>
       <use xlink:href="#mc4f817595b" x="310.540606" y="108.747437" style="stroke: #000000; stroke-width: 0.8"/>
      </g>
     </g>
    </g>
    <g id="xtick_11">
     <g id="line2d_11">
      <g>
       <use xlink:href="#mc4f817595b" x="338.549248" y="108.747437" style="stroke: #000000; stroke-width: 0.8"/>
      </g>
     </g>
    </g>
    <g id="xtick_12">
     <g id="line2d_12">
      <g>
       <use xlink:href="#mc4f817595b" x="366.557891" y="108.747437" style="stroke: #000000; stroke-width: 0.8"/>
      </g>
     </g>
    </g>
    <g id="xtick_13">
     <g id="line2d_13">
      <g>
       <use xlink:href="#mc4f817595b" x="394.566534" y="108.747437" style="stroke: #000000; stroke-width: 0.8"/>
      </g>
     </g>
    </g>
    <g id="xtick_14">
     <g id="line2d_14">
      <g>
       <use xlink:href="#mc4f817595b" x="422.575176" y="108.747437" style="stroke: #000000; stroke-width: 0.8"/>
      </g>
     </g>
    </g>
    <g id="xtick_15">
     <g id="line2d_15">
      <g>
       <use xlink:href="#mc4f817595b" x="450.583819" y="108.747437" style="stroke: #000000; stroke-width: 0.8"/>
      </g>
     </g>
    </g>
    <g id="xtick_16">
     <g id="line2d_16">
      <g>
       <use xlink:href="#mc4f817595b" x="478.592461" y="108.747437" style="stroke: #000000; stroke-width: 0.8"/>
      </g>
     </g>
    </g>
    <g id="xtick_17">
     <g id="line2d_17">
      <g>
       <use xlink:href="#mc4f817595b" x="506.601104" y="108.747437" style="stroke: #000000; stroke-width: 0.8"/>
      </g>
     </g>
    </g>
    <g id="xtick_18">
     <g id="line2d_18">
      <g>
       <use xlink:href="#mc4f817595b" x="534.609747" y="108.747437" style="stroke: #000000; stroke-width: 0.8"/>
      </g>
     </g>
    </g>
    <g id="xtick_19">
     <g id="line2d_19">
      <g>
       <use xlink:href="#mc4f817595b" x="562.618389" y="108.747437" style="stroke: #000000; stroke-width: 0.8"/>
      </g>
     </g>
    </g>
   </g>
   <g id="matplotlib.axis_2">
    <g id="ytick_1">
     <g id="line2d_20">
      <defs>
       <path id="mb204df5ab9" d="M 0 0 
L -3.5 0 
" style="stroke: #000000; stroke-width: 0.8"/>
      </defs>
      <g>
       <use xlink:href="#mb204df5ab9" x="53.328125" y="86.931647" style="stroke: #000000; stroke-width: 0.8"/>
      </g>
     </g>
     <g id="text_1">
      <!-- 140 -->
      <g transform="translate(27.240625 90.730865) scale(0.1 -0.1)">
       <defs>
        <path id="DejaVuSans-31" d="M 794 531 
L 1825 531 
L 1825 4091 
L 703 3866 
L 703 4441 
L 1819 4666 
L 2450 4666 
L 2450 531 
L 3481 531 
L 3481 0 
L 794 0 
L 794 531 
z
" transform="scale(0.015625)"/>
        <path id="DejaVuSans-34" d="M 2419 4116 
L 825 1625 
L 2419 1625 
L 2419 4116 
z
M 2253 4666 
L 3047 4666 
L 3047 1625 
L 3713 1625 
L 3713 1100 
L 3047 1100 
L 3047 0 
L 2419 0 
L 2419 1100 
L 313 1100 
L 313 1709 
L 2253 4666 
z
" transform="scale(0.015625)"/>
        <path id="DejaVuSans-30" d="M 2034 4250 
Q 1547 4250 1301 3770 
Q 1056 3291 1056 2328 
Q 1056 1369 1301 889 
Q 1547 409 2034 409 
Q 2525 409 2770 889 
Q 3016 1369 3016 2328 
Q 3016 3291 2770 3770 
Q 2525 4250 2034 4250 
z
M 2034 4750 
Q 2819 4750 3233 4129 
Q 3647 3509 3647 2328 
Q 3647 1150 3233 529 
Q 2819 -91 2034 -91 
Q 1250 -91 836 529 
Q 422 1150 422 2328 
Q 422 3509 836 4129 
Q 1250 4750 2034 4750 
z
" transform="scale(0.015625)"/>
       </defs>
       <use xlink:href="#DejaVuSans-31"/>
       <use xlink:href="#DejaVuSans-34" transform="translate(63.623047 0)"/>
       <use xlink:href="#DejaVuSans-30" transform="translate(127.246094 0)"/>
      </g>
     </g>
    </g>
    <g id="ytick_2">
     <g id="line2d_21">
      <g>
       <use xlink:href="#mb204df5ab9" x="53.328125" y="56.272114" style="stroke: #000000; stroke-width: 0.8"/>
      </g>
     </g>
     <g id="text_2">
      <!-- 160 -->
      <g transform="translate(27.240625 60.071333) scale(0.1 -0.1)">
       <defs>
        <path id="DejaVuSans-36" d="M 2113 2584 
Q 1688 2584 1439 2293 
Q 1191 2003 1191 1497 
Q 1191 994 1439 701 
Q 1688 409 2113 409 
Q 2538 409 2786 701 
Q 3034 994 3034 1497 
Q 3034 2003 2786 2293 
Q 2538 2584 2113 2584 
z
M 3366 4563 
L 3366 3988 
Q 3128 4100 2886 4159 
Q 2644 4219 2406 4219 
Q 1781 4219 1451 3797 
Q 1122 3375 1075 2522 
Q 1259 2794 1537 2939 
Q 1816 3084 2150 3084 
Q 2853 3084 3261 2657 
Q 3669 2231 3669 1497 
Q 3669 778 3244 343 
Q 2819 -91 2113 -91 
Q 1303 -91 875 529 
Q 447 1150 447 2328 
Q 447 3434 972 4092 
Q 1497 4750 2381 4750 
Q 2619 4750 2861 4703 
Q 3103 4656 3366 4563 
z
" transform="scale(0.015625)"/>
       </defs>
       <use xlink:href="#DejaVuSans-31"/>
       <use xlink:href="#DejaVuSans-36" transform="translate(63.623047 0)"/>
       <use xlink:href="#DejaVuSans-30" transform="translate(127.246094 0)"/>
      </g>
     </g>
    </g>
    <g id="ytick_3">
     <g id="line2d_22">
      <g>
       <use xlink:href="#mb204df5ab9" x="53.328125" y="25.612582" style="stroke: #000000; stroke-width: 0.8"/>
      </g>
     </g>
     <g id="text_3">
      <!-- 180 -->
      <g transform="translate(27.240625 29.411801) scale(0.1 -0.1)">
       <defs>
        <path id="DejaVuSans-38" d="M 2034 2216 
Q 1584 2216 1326 1975 
Q 1069 1734 1069 1313 
Q 1069 891 1326 650 
Q 1584 409 2034 409 
Q 2484 409 2743 651 
Q 3003 894 3003 1313 
Q 3003 1734 2745 1975 
Q 2488 2216 2034 2216 
z
M 1403 2484 
Q 997 2584 770 2862 
Q 544 3141 544 3541 
Q 544 4100 942 4425 
Q 1341 4750 2034 4750 
Q 2731 4750 3128 4425 
Q 3525 4100 3525 3541 
Q 3525 3141 3298 2862 
Q 3072 2584 2669 2484 
Q 3125 2378 3379 2068 
Q 3634 1759 3634 1313 
Q 3634 634 3220 271 
Q 2806 -91 2034 -91 
Q 1263 -91 848 271 
Q 434 634 434 1313 
Q 434 1759 690 2068 
Q 947 2378 1403 2484 
z
M 1172 3481 
Q 1172 3119 1398 2916 
Q 1625 2713 2034 2713 
Q 2441 2713 2670 2916 
Q 2900 3119 2900 3481 
Q 2900 3844 2670 4047 
Q 2441 4250 2034 4250 
Q 1625 4250 1398 4047 
Q 1172 3844 1172 3481 
z
" transform="scale(0.015625)"/>
       </defs>
       <use xlink:href="#DejaVuSans-31"/>
       <use xlink:href="#DejaVuSans-38" transform="translate(63.623047 0)"/>
       <use xlink:href="#DejaVuSans-30" transform="translate(127.246094 0)"/>
      </g>
     </g>
    </g>
    <g id="text_4">
     <!-- Price -->
     <g transform="translate(14.798438 70.171375) rotate(-90) scale(0.1 -0.1)">
      <defs>
       <path id="DejaVuSans-50" d="M 1259 4147 
L 1259 2394 
L 2053 2394 
Q 2494 2394 2734 2622 
Q 2975 2850 2975 3272 
Q 2975 3691 2734 3919 
Q 2494 4147 2053 4147 
L 1259 4147 
z
M 628 4666 
L 2053 4666 
Q 2838 4666 3239 4311 
Q 3641 3956 3641 3272 
Q 3641 2581 3239 2228 
Q 2838 1875 2053 1875 
L 1259 1875 
L 1259 0 
L 628 0 
L 628 4666 
z
" transform="scale(0.015625)"/>
       <path id="DejaVuSans-72" d="M 2631 2963 
Q 2534 3019 2420 3045 
Q 2306 3072 2169 3072 
Q 1681 3072 1420 2755 
Q 1159 2438 1159 1844 
L 1159 0 
L 581 0 
L 581 3500 
L 1159 3500 
L 1159 2956 
Q 1341 3275 1631 3429 
Q 1922 3584 2338 3584 
Q 2397 3584 2469 3576 
Q 2541 3569 2628 3553 
L 2631 2963 
z
" transform="scale(0.015625)"/>
       <path id="DejaVuSans-69" d="M 603 3500 
L 1178 3500 
L 1178 0 
L 603 0 
L 603 3500 
z
M 603 4863 
L 1178 4863 
L 1178 4134 
L 603 4134 
L 603 4863 
z
" transform="scale(0.015625)"/>
       <path id="DejaVuSans-63" d="M 3122 3366 
L 3122 2828 
Q 2878 2963 2633 3030 
Q 2388 3097 2138 3097 
Q 1578 3097 1268 2742 
Q 959 2388 959 1747 
Q 959 1106 1268 751 
Q 1578 397 2138 397 
Q 2388 397 2633 464 
Q 2878 531 3122 666 
L 3122 134 
Q 2881 22 2623 -34 
Q 2366 -91 2075 -91 
Q 1284 -91 818 406 
Q 353 903 353 1747 
Q 353 2603 823 3093 
Q 1294 3584 2113 3584 
Q 2378 3584 2631 3529 
Q 2884 3475 3122 3366 
z
" transform="scale(0.015625)"/>
       <path id="DejaVuSans-65" d="M 3597 1894 
L 3597 1613 
L 953 1613 
Q 991 1019 1311 708 
Q 1631 397 2203 397 
Q 2534 397 2845 478 
Q 3156 559 3463 722 
L 3463 178 
Q 3153 47 2828 -22 
Q 2503 -91 2169 -91 
Q 1331 -91 842 396 
Q 353 884 353 1716 
Q 353 2575 817 3079 
Q 1281 3584 2069 3584 
Q 2775 3584 3186 3129 
Q 3597 2675 3597 1894 
z
M 3022 2063 
Q 3016 2534 2758 2815 
Q 2500 3097 2075 3097 
Q 1594 3097 1305 2825 
Q 1016 2553 972 2059 
L 3022 2063 
z
" transform="scale(0.015625)"/>
      </defs>
      <use xlink:href="#DejaVuSans-50"/>
      <use xlink:href="#DejaVuSans-72" transform="translate(58.552734 0)"/>
      <use xlink:href="#DejaVuSans-69" transform="translate(99.666016 0)"/>
      <use xlink:href="#DejaVuSans-63" transform="translate(127.449219 0)"/>
      <use xlink:href="#DejaVuSans-65" transform="translate(182.429688 0)"/>
     </g>
    </g>
   </g>
   <g id="line2d_23">
    <path d="M 58.464119 14.713118 
L 58.911479 16.430052 
L 59.783832 14.421853 
L 60.275928 14.559821 
L 60.932057 17.150551 
L 61.558361 16.997254 
L 62.803514 14.467842 
L 63.317978 14.345204 
L 63.489466 16.000819 
L 64.764443 15.081033 
L 66.330204 17.947699 
L 67.150364 16.200106 
L 68.074909 16.981924 
L 69.051645 15.663564 
L 69.275325 15.617575 
L 70.401182 17.641104 
L 70.863454 17.135221 
L 71.445023 15.678894 
L 72.384479 16.59868 
L 72.854208 15.648234 
L 73.905504 15.90884 
L 75.150657 19.710622 
L 75.441441 18.990123 
L 75.657665 17.579785 
L 76.984834 18.192975 
L 83.158406 18.192975 
L 83.889094 16.659999 
L 84.932935 17.303849 
L 86.349576 15.847521 
L 87.654376 17.917039 
L 88.422345 17.273189 
L 88.593833 18.54556 
L 89.510921 16.55269 
L 90.189418 18.177646 
L 90.972298 18.055007 
L 92.232363 13.655365 
L 93.089803 15.678894 
L 93.969612 15.494936 
L 94.379692 13.96196 
L 95.714317 13.195472 
L 96.765614 14.881746 
L 97.459022 13.686024 
L 98.935311 18.790836 
L 100.128272 16.338074 
L 100.89624 15.740213 
L 101.41816 17.441817 
L 101.701489 17.319179 
L 102.111569 19.450016 
L 103.75189 19.955898 
L 104.668978 18.039678 
L 104.765906 18.131656 
L 105.466771 21.979428 
L 106.473331 18.668198 
L 107.002708 20.078537 
L 108.337332 18.683528 
L 109.246965 20.891014 
L 109.396085 20.845025 
L 110.939478 18.836825 
L 111.975863 16.476041 
L 113.071895 18.928804 
L 113.914424 15.295649 
L 114.026264 15.602245 
L 114.689848 11.815793 
L 116.002105 14.881746 
L 116.971386 18.300284 
L 117.11305 17.365168 
L 118.626619 26.471049 
L 118.656443 25.489944 
L 119.305115 31.039319 
L 120.520444 27.436824 
L 121.72086 32.112403 
L 122.436637 34.24324 
L 123.144957 30.395469 
L 123.405917 30.226842 
L 124.785278 33.875326 
L 125.150622 30.410799 
L 126.119903 33.737358 
L 127.312864 35.101707 
L 127.640928 31.744489 
L 128.058464 33.568731 
L 128.863713 30.96267 
L 130.064129 33.277465 
L 130.981218 30.410799 
L 131.003586 30.840032 
L 132.539523 42.214719 
L 132.546979 41.034327 
L 132.643907 48.438604 
L 134.127652 43.855004 
L 134.7465 39.608659 
L 135.700869 41.156965 
L 136.849093 45.556608 
L 137.445574 43.977642 
L 138.690726 47.948051 
L 138.944231 51.029334 
L 139.943335 46.920957 
L 140.562183 46.997606 
L 140.800776 49.756964 
L 143.074857 49.741634 
L 143.283625 45.38798 
L 143.775721 47.196893 
L 144.43185 43.686376 
L 145.237098 43.487089 
L 146.124363 46.75233 
L 146.773035 43.855004 
L 147.973452 48.407944 
L 148.532652 47.917392 
L 149.427373 60.089226 
L 149.844909 54.309904 
L 150.978222 60.196534 
L 151.63435 62.802595 
L 152.543983 55.842881 
L 152.916783 58.387622 
L 153.833871 55.858211 
L 155.16104 56.440742 
L 155.489104 53.819352 
L 156.614961 52.684949 
L 156.987761 54.969084 
L 158.232914 55.444307 
L 158.411858 52.455003 
L 159.589907 57.1919 
L 160.059635 48.775859 
L 160.514451 48.530582 
L 161.647764 56.318104 
L 161.893812 55.107052 
L 162.676693 67.002951 
L 164.197717 68.122023 
L 164.69727 60.963023 
L 165.174454 60.702417 
L 166.203383 73.165517 
L 166.688023 64.42755 
L 167.702039 77.335213 
L 168.052472 74.069973 
L 169.446745 62.756605 
L 170.266905 62.802595 
L 171.124346 66.190473 
L 171.26601 65.945197 
L 172.473882 75.679598 
L 172.675194 72.031114 
L 174.129115 61.79083 
L 174.375163 63.814359 
L 175.344444 60.411151 
L 175.769436 62.679957 
L 176.619421 58.571579 
L 177.842205 61.361597 
L 178.625086 59.261419 
L 178.856222 60.349832 
L 180.325055 65.71525 
L 180.444351 64.918102 
L 181.197407 60.794395 
L 182.099584 60.564449 
L 183.247809 64.335571 
L 183.546049 63.262488 
L 185.014882 58.724877 
L 185.536802 59.935928 
L 186.737219 56.471401 
L 187.527555 60.779066 
L 188.4521 59.108121 
L 189.16042 55.551615 
L 189.667428 58.081027 
L 190.920037 52.577641 
L 191.546342 53.574075 
L 192.523078 50.354825 
L 192.925702 52.853576 
L 194.282695 50.324165 
L 195.758984 54.662489 
L 196.459848 54.263915 
L 197.354569 51.918461 
L 197.980873 51.673184 
L 198.644458 54.708478 
L 199.583914 54.003309 
L 200.210219 56.716678 
L 201.127307 56.011508 
L 201.790892 52.792257 
L 202.029484 53.804022 
L 202.394828 51.94912 
L 204.072429 52.087088 
L 205.07899 57.23789 
L 205.697838 58.019708 
L 206.12283 56.364093 
L 207.047375 58.740207 
L 207.174127 56.777997 
L 208.747344 58.356962 
L 209.381104 56.517391 
L 209.806096 56.732007 
L 210.380209 59.85928 
L 211.498609 59.031472 
L 211.953426 57.391187 
L 213.392434 60.717746 
L 214.167859 54.739138 
L 214.928371 54.248585 
L 215.539764 60.135215 
L 216.464308 58.019708 
L 216.956405 63.216498 
L 218.037525 65.653931 
L 218.92479 61.683522 
L 219.864246 63.185839 
L 220.490551 58.602239 
L 220.520375 59.16944 
L 221.526935 62.143415 
L 222.101048 59.905269 
L 222.764632 64.473539 
L 224.047065 61.238959 
L 224.934329 65.010081 
L 225.776858 66.343771 
L 226.679034 62.066766 
L 227.089115 64.059635 
L 228.170235 60.625768 
L 228.386459 65.025411 
L 229.0575 60.181205 
L 230.198268 58.724877 
L 231.316669 62.220064 
L 231.965341 63.599742 
L 232.561822 59.568014 
L 232.867518 60.625768 
L 233.993375 59.016142 
L 235.395103 61.79083 
L 235.939392 59.629333 
L 236.163072 59.276748 
L 237.490241 62.833254 
L 237.497697 62.741276 
L 238.556449 65.255357 
L 239.07837 63.722381 
L 239.659938 68.949831 
L 240.636674 65.485304 
L 241.598499 70.237531 
L 242.75418 67.186908 
L 243.626532 71.525232 
L 243.671268 70.528797 
L 245.125189 62.327372 
L 245.483077 65.010081 
L 246.69095 57.007943 
L 246.758054 57.621134 
L 248.107591 52.546981 
L 248.808455 54.064628 
L 249.598792 49.756964 
L 249.9194 49.787623 
L 250.284744 53.129512 
L 252.446985 50.431473 
L 252.484265 51.99511 
L 253.311882 51.105983 
L 254.407915 53.819352 
L 255.295179 55.291009 
L 255.503947 52.6083 
L 256.793836 54.187266 
L 257.554348 50.584771 
L 258.143373 48.990475 
L 259.053005 52.255716 
L 259.515278 50.983345 
L 260.641134 53.144842 
L 260.678414 52.991544 
L 261.826639 55.996179 
L 262.288911 53.528086 
L 263.198544 56.793326 
L 264.21256 55.812221 
L 264.809041 53.374789 
L 265.793233 52.960885 
L 266.501554 55.490296 
L 266.88181 54.631829 
L 268.320819 57.391187 
L 268.380467 56.808656 
L 269.8493 58.724877 
L 270.527796 57.437177 
L 271.258485 61.177639 
L 271.690933 59.338068 
L 272.898806 62.404021 
L 273.390902 62.526659 
L 273.912822 60.426481 
L 274.554038 62.327372 
L 275.814103 59.782631 
L 276.656632 59.18477 
L 277.178552 62.036106 
L 277.640824 60.717746 
L 278.774137 59.016142 
L 280.011834 59.123451 
L 280.54121 59.935928 
L 280.981114 59.920599 
L 282.263547 58.847515 
L 283.642908 61.484235 
L 284.358684 61.177639 
L 284.873149 59.031472 
L 285.372701 59.307408 
L 286.573118 63.676391 
L 286.96083 63.170509 
L 287.579678 60.303843 
L 288.459487 60.702417 
L 289.495871 58.939494 
L 291.19584 59.598674 
L 291.49408 57.283879 
L 292.329153 58.050367 
L 292.515553 57.007943 
L 293.514658 56.609369 
L 294.565954 60.119886 
L 294.90893 60.395821 
L 295.676899 57.145911 
L 296.638724 58.280314 
L 297.01898 56.686018 
L 297.749668 57.85108 
L 298.696581 55.582275 
L 299.233413 56.808656 
L 300.896102 50.308835 
L 301.544774 53.512756 
L 302.335111 51.688514 
L 303.200007 54.386553 
L 303.878504 54.125947 
L 305.310057 47.181563 
L 305.638121 48.66855 
L 305.891625 46.75233 
L 307.196426 47.488158 
L 308.411754 49.511687 
L 308.941131 50.00224 
L 309.425771 46.307766 
L 310.670924 51.075324 
L 311.588012 43.563738 
L 312.452909 46.522383 
L 313.705518 46.292437 
L 314.145422 42.889228 
L 315.412943 42.689942 
L 315.741007 46.001171 
L 316.807215 43.119175 
L 317.075632 45.510618 
L 318.089648 46.307766 
L 319.036561 43.870334 
L 319.551025 44.207588 
L 320.669426 46.890297 
L 321.124242 46.553043 
L 322.011506 41.47889 
L 322.690003 41.862134 
L 323.800948 43.992972 
L 324.330324 42.904558 
L 324.732948 45.541278 
L 325.582933 44.10028 
L 326.477653 40.421136 
L 327.059221 42.950548 
L 327.924118 48.132008 
L 328.915767 45.265342 
L 329.087255 47.978711 
L 330.138551 48.331295 
L 331.27932 43.609727 
L 332.770521 47.549477 
L 333.441561 47.687445 
L 334.828378 43.609727 
L 336.088443 48.959816 
L 336.505979 48.300636 
L 337.713852 44.268907 
L 337.937532 44.008301 
L 339.488381 46.828978 
L 340.159421 39.654648 
L 341.016862 46.614362 
L 342.515519 38.029693 
L 343.991807 43.563738 
L 344.647936 48.530582 
L 345.5352 48.132008 
L 345.743968 50.600101 
L 347.287361 48.438604 
L 348.047874 50.584771 
L 349.225923 48.837178 
L 349.389955 51.259281 
L 350.91098 51.688514 
L 351.559652 49.389049 
L 352.275428 49.680315 
L 352.469284 51.366589 
L 353.542949 52.010439 
L 353.885925 50.278176 
L 355.436774 51.443238 
L 355.861766 54.432542 
L 356.391143 52.761598 
L 357.822696 56.486731 
L 358.538472 54.723808 
L 359.202056 58.52559 
L 359.612137 56.640029 
L 360.902025 59.690652 
L 361.297194 58.418282 
L 362.080074 61.208299 
L 363.541451 60.441811 
L 364.048459 62.787265 
L 364.272139 63.09386 
L 365.330892 60.625768 
L 365.778252 61.208299 
L 366.814637 65.945197 
L 367.724269 66.006516 
L 368.074702 63.461775 
L 368.932142 63.13985 
L 369.625551 65.868548 
L 370.244399 65.592612 
L 371.5492 63.998316 
L 372.130768 65.163379 
L 373.271537 62.419351 
L 373.651793 63.446445 
L 374.300465 61.714181 
L 374.949138 61.683522 
L 375.836402 64.197603 
L 376.403059 61.714181 
L 377.484179 58.019708 
L 378.021012 59.338068 
L 379.46002 55.505626 
L 379.631508 54.662489 
L 380.213077 56.931294 
L 381.376213 57.805091 
L 382.554262 55.336999 
L 383.262583 54.754467 
L 383.866519 59.997247 
L 384.306423 56.961954 
L 385.521752 67.67746 
L 385.790168 68.290651 
L 387.169529 64.458209 
L 387.221721 64.565518 
L 388.742746 67.324876 
L 389.398874 69.869617 
L 389.59273 66.144484 
L 390.554555 64.703486 
L 391.605852 66.451079 
L 392.2247 65.316676 
L 392.52294 67.386195 
L 393.395293 65.71525 
L 393.522045 67.171578 
L 395.989982 65.040741 
L 396.303134 67.922737 
L 396.60883 65.899207 
L 396.787775 67.846088 
L 398.38336 70.34484 
L 399.046944 62.833254 
L 399.72544 64.120955 
L 400.262273 66.021846 
L 401.097345 64.39689 
L 402.05917 60.871044 
L 403.341602 60.641098 
L 403.863523 64.105625 
L 404.542019 61.82149 
L 405.317444 65.607942 
L 406.159972 64.488869 
L 406.674436 62.358031 
L 407.330565 63.76837 
L 408.583174 61.729511 
L 409.343686 61.055001 
L 410.305511 64.228263 
L 410.357703 64.028976 
L 411.640135 67.922737 
L 411.938376 61.836819 
L 413.138792 67.769439 
L 413.444488 66.727015 
L 414.950601 71.770508 
L 415.040073 71.019349 
L 416.344874 79.956603 
L 416.859338 77.365872 
L 418.037387 84.555533 
L 418.372907 85.245372 
L 419.267628 81.566228 
L 419.632972 84.846798 
L 421.101805 79.665337 
L 421.474605 80.999027 
L 422.168014 77.442521 
L 422.868878 79.48138 
L 423.763598 82.654642 
L 424.307887 81.888153 
L 425.560496 78.438956 
L 426.11224 78.546264 
L 426.96968 81.366941 
L 427.335025 80.999027 
L 428.028433 88.602591 
L 429.400338 81.566228 
L 430.53365 86.916317 
L 430.787155 80.339847 
L 432.86738 84.800809 
L 433.344564 82.332717 
L 434.149813 86.149828 
L 434.992341 82.77728 
L 435.066901 83.083875 
L 436.476086 87.130933 
L 436.595382 85.981201 
L 437.415543 93.416138 
L 438.474295 93.216851 
L 439.674712 85.245372 
L 440.5918 86.67104 
L 441.031705 81.566228 
L 441.404505 84.509543 
L 442.000985 80.845729 
L 442.768954 81.688867 
L 443.439994 85.981201 
L 444.521115 85.919882 
L 445.214523 81.688867 
L 446.034684 82.240738 
L 446.832476 87.912752 
L 448.577181 87.590826 
L 448.905245 84.509543 
L 449.166205 84.877458 
L 449.598654 90.978705 
L 450.567934 89.32309 
L 451.082399 85.153394 
L 452.260447 86.011861 
L 453.289376 83.160524 
L 453.595072 83.835034 
L 454.527073 82.056781 
L 455.645473 82.440025 
L 456.13757 84.141629 
L 457.718243 83.4058 
L 458.091043 81.872824 
L 458.337091 81.596888 
L 459.73882 83.467119 
L 459.940132 82.853929 
L 460.96906 86.149828 
L 461.923429 84.632182 
L 462.795781 86.119169 
L 463.34007 85.000096 
L 464.473382 87.130933 
L 465.912391 85.567297 
L 466.247912 84.156959 
L 467.440872 85.490649 
L 467.87332 85.797244 
L 468.611465 83.758385 
L 469.640394 85.613287 
L 470.527658 82.731291 
L 470.907914 80.094571 
L 472.033771 83.283162 
L 472.660075 83.758385 
L 473.159628 82.639312 
L 473.636812 83.329151 
L 475.053453 86.763019 
L 475.239853 85.904552 
L 476.134573 89.062484 
L 476.984558 88.985835 
L 478.095503 86.793679 
L 478.363919 87.115604 
L 479.802928 89.553037 
L 480.67528 90.64145 
L 481.331408 87.437529 
L 481.458161 87.882092 
L 482.554193 84.954107 
L 483.292338 84.632182 
L 483.918642 85.873893 
L 484.440562 85.092075 
L 484.76117 83.865693 
L 486.602804 83.758385 
L 487.340948 85.076745 
L 487.967252 83.313822 
L 489.510645 85.015426 
L 490.502294 81.980132 
L 490.62159 82.10277 
L 491.971127 86.854998 
L 492.970231 86.226477 
L 493.313207 88.295996 
L 493.976792 86.226477 
L 494.70748 88.771218 
L 495.743865 85.935212 
L 496.74297 87.820773 
L 496.914458 87.391539 
L 498.204346 93.523446 
L 499.538971 95.409007 
L 499.911771 89.522377 
L 500.538076 94.090647 
L 502.484093 89.9976 
L 502.946365 91.94448 
L 502.961277 91.699204 
L 504.482302 94.59653 
L 505.511231 94.627189 
L 505.928767 90.196887 
L 507.039712 93.032893 
L 507.382688 87.912752 
L 507.740576 87.943411 
L 509.142305 90.01293 
L 510.417282 86.180488 
L 511.640066 87.452859 
L 512.132163 85.950541 
L 512.900131 87.238242 
L 513.683012 85.919882 
L 513.876868 86.839668 
L 515.241316 84.463554 
L 515.696133 84.432895 
L 517.08295 85.551968 
L 518.029862 83.267832 
L 518.864935 84.264267 
L 519.647815 83.221843 
L 520.124999 82.991897 
L 520.549992 84.816139 
L 521.481992 83.390471 
L 522.853897 91.086013 
L 523.681513 82.332717 
L 524.501674 91.852501 
L 524.680618 88.158028 
L 525.672267 96.987973 
L 526.432779 93.155532 
L 527.528812 99.502055 
L 527.819596 97.769791 
L 529.169133 102.721306 
L 529.482285 101.004372 
L 530.026573 104.131644 
L 530.749806 103.303837 
L 531.361198 101.09635 
L 532.345391 102.000807 
L 533.299759 99.486725 
L 534.813328 100.299203 
L 535.514192 103.7484 
L 536.244881 98.873534 
L 537.303633 101.571573 
L 537.601874 95.608294 
L 538.720274 99.670682 
L 539.070706 94.765157 
L 540.211475 97.493855 
L 541.411892 92.404373 
L 541.903988 91.714534 
L 542.44082 94.795817 
L 543.171509 93.324159 
L 544.140789 90.534142 
L 544.752182 89.890291 
L 545.63199 92.496352 
L 546.921879 88.541272 
L 547.6302 90.810077 
L 547.913528 89.936281 
L 548.905176 91.729863 
L 549.568761 89.35375 
L 550.329273 91.95981 
L 551.701178 87.284231 
L 552.215642 91.346619 
L 552.759931 84.141629 
L 553.930523 84.172289 
L 555.108572 88.050719 
L 555.623036 86.916317 
L 556.637053 84.371576 
L 557.569053 83.865693 
L 557.867294 85.628616 
L 558.54579 83.957672 
L 560.283039 87.514178 
L 561.013727 84.325586 
L 561.610208 84.73949 
L 563.004481 87.974071 
L 563.317633 87.34555 
L 564.219809 84.524873 
L 564.935586 87.222912 
L 566.053986 82.899918 
L 566.240386 83.666406 
L 567.373699 87.728794 
L 567.783779 87.284231 
L 569.394276 91.346619 
L 570.855653 87.928081 
L 571.42231 88.142698 
L 571.728006 85.39867 
L 572.063526 86.07318 
L 572.063526 86.07318 
" clip-path="url(#p9649925924)" style="fill: none; stroke: #4169e1; stroke-width: 1.5; stroke-linecap: square"/>
   </g>
   <g id="patch_3">
    <path d="M 53.328125 108.747437 
L 53.328125 7.2 
" style="fill: none; stroke: #000000; stroke-width: 0.8; stroke-linejoin: miter; stroke-linecap: square"/>
   </g>
   <g id="patch_4">
    <path d="M 577.19952 108.747437 
L 577.19952 7.2 
" style="fill: none; stroke: #000000; stroke-width: 0.8; stroke-linejoin: miter; stroke-linecap: square"/>
   </g>
   <g id="patch_5">
    <path d="M 53.328125 108.747437 
L 577.19952 108.747437 
" style="fill: none; stroke: #000000; stroke-width: 0.8; stroke-linejoin: miter; stroke-linecap: square"/>
   </g>
   <g id="patch_6">
    <path d="M 53.328125 7.2 
L 577.19952 7.2 
" style="fill: none; stroke: #000000; stroke-width: 0.8; stroke-linejoin: miter; stroke-linecap: square"/>
   </g>
  </g>
  <g id="axes_2">
   <g id="patch_7">
    <path d="M 53.328125 219.795353 
L 577.19952 219.795353 
L 577.19952 118.247917 
L 53.328125 118.247917 
z
" style="fill: #ffffff"/>
   </g>
   <g id="matplotlib.axis_3">
    <g id="xtick_20">
     <g id="line2d_24">
      <g>
       <use xlink:href="#mc4f817595b" x="58.462822" y="219.795353" style="stroke: #000000; stroke-width: 0.8"/>
      </g>
     </g>
    </g>
    <g id="xtick_21">
     <g id="line2d_25">
      <g>
       <use xlink:href="#mc4f817595b" x="86.471465" y="219.795353" style="stroke: #000000; stroke-width: 0.8"/>
      </g>
     </g>
    </g>
    <g id="xtick_22">
     <g id="line2d_26">
      <g>
       <use xlink:href="#mc4f817595b" x="114.480108" y="219.795353" style="stroke: #000000; stroke-width: 0.8"/>
      </g>
     </g>
    </g>
    <g id="xtick_23">
     <g id="line2d_27">
      <g>
       <use xlink:href="#mc4f817595b" x="142.48875" y="219.795353" style="stroke: #000000; stroke-width: 0.8"/>
      </g>
     </g>
    </g>
    <g id="xtick_24">
     <g id="line2d_28">
      <g>
       <use xlink:href="#mc4f817595b" x="170.497393" y="219.795353" style="stroke: #000000; stroke-width: 0.8"/>
      </g>
     </g>
    </g>
    <g id="xtick_25">
     <g id="line2d_29">
      <g>
       <use xlink:href="#mc4f817595b" x="198.506035" y="219.795353" style="stroke: #000000; stroke-width: 0.8"/>
      </g>
     </g>
    </g>
    <g id="xtick_26">
     <g id="line2d_30">
      <g>
       <use xlink:href="#mc4f817595b" x="226.514678" y="219.795353" style="stroke: #000000; stroke-width: 0.8"/>
      </g>
     </g>
    </g>
    <g id="xtick_27">
     <g id="line2d_31">
      <g>
       <use xlink:href="#mc4f817595b" x="254.523321" y="219.795353" style="stroke: #000000; stroke-width: 0.8"/>
      </g>
     </g>
    </g>
    <g id="xtick_28">
     <g id="line2d_32">
      <g>
       <use xlink:href="#mc4f817595b" x="282.531963" y="219.795353" style="stroke: #000000; stroke-width: 0.8"/>
      </g>
     </g>
    </g>
    <g id="xtick_29">
     <g id="line2d_33">
      <g>
       <use xlink:href="#mc4f817595b" x="310.540606" y="219.795353" style="stroke: #000000; stroke-width: 0.8"/>
      </g>
     </g>
    </g>
    <g id="xtick_30">
     <g id="line2d_34">
      <g>
       <use xlink:href="#mc4f817595b" x="338.549248" y="219.795353" style="stroke: #000000; stroke-width: 0.8"/>
      </g>
     </g>
    </g>
    <g id="xtick_31">
     <g id="line2d_35">
      <g>
       <use xlink:href="#mc4f817595b" x="366.557891" y="219.795353" style="stroke: #000000; stroke-width: 0.8"/>
      </g>
     </g>
    </g>
    <g id="xtick_32">
     <g id="line2d_36">
      <g>
       <use xlink:href="#mc4f817595b" x="394.566534" y="219.795353" style="stroke: #000000; stroke-width: 0.8"/>
      </g>
     </g>
    </g>
    <g id="xtick_33">
     <g id="line2d_37">
      <g>
       <use xlink:href="#mc4f817595b" x="422.575176" y="219.795353" style="stroke: #000000; stroke-width: 0.8"/>
      </g>
     </g>
    </g>
    <g id="xtick_34">
     <g id="line2d_38">
      <g>
       <use xlink:href="#mc4f817595b" x="450.583819" y="219.795353" style="stroke: #000000; stroke-width: 0.8"/>
      </g>
     </g>
    </g>
    <g id="xtick_35">
     <g id="line2d_39">
      <g>
       <use xlink:href="#mc4f817595b" x="478.592461" y="219.795353" style="stroke: #000000; stroke-width: 0.8"/>
      </g>
     </g>
    </g>
    <g id="xtick_36">
     <g id="line2d_40">
      <g>
       <use xlink:href="#mc4f817595b" x="506.601104" y="219.795353" style="stroke: #000000; stroke-width: 0.8"/>
      </g>
     </g>
    </g>
    <g id="xtick_37">
     <g id="line2d_41">
      <g>
       <use xlink:href="#mc4f817595b" x="534.609747" y="219.795353" style="stroke: #000000; stroke-width: 0.8"/>
      </g>
     </g>
    </g>
    <g id="xtick_38">
     <g id="line2d_42">
      <g>
       <use xlink:href="#mc4f817595b" x="562.618389" y="219.795353" style="stroke: #000000; stroke-width: 0.8"/>
      </g>
     </g>
    </g>
   </g>
   <g id="matplotlib.axis_4">
    <g id="ytick_4">
     <g id="line2d_43">
      <g>
       <use xlink:href="#mb204df5ab9" x="53.328125" y="201.660287" style="stroke: #000000; stroke-width: 0.8"/>
      </g>
     </g>
     <g id="text_5">
      <!-- 1000 -->
      <g transform="translate(20.878125 205.459505) scale(0.1 -0.1)">
       <use xlink:href="#DejaVuSans-31"/>
       <use xlink:href="#DejaVuSans-30" transform="translate(63.623047 0)"/>
       <use xlink:href="#DejaVuSans-30" transform="translate(127.246094 0)"/>
       <use xlink:href="#DejaVuSans-30" transform="translate(190.869141 0)"/>
      </g>
     </g>
    </g>
    <g id="ytick_5">
     <g id="line2d_44">
      <g>
       <use xlink:href="#mb204df5ab9" x="53.328125" y="173.205924" style="stroke: #000000; stroke-width: 0.8"/>
      </g>
     </g>
     <g id="text_6">
      <!-- 1100 -->
      <g transform="translate(20.878125 177.005143) scale(0.1 -0.1)">
       <use xlink:href="#DejaVuSans-31"/>
       <use xlink:href="#DejaVuSans-31" transform="translate(63.623047 0)"/>
       <use xlink:href="#DejaVuSans-30" transform="translate(127.246094 0)"/>
       <use xlink:href="#DejaVuSans-30" transform="translate(190.869141 0)"/>
      </g>
     </g>
    </g>
    <g id="ytick_6">
     <g id="line2d_45">
      <g>
       <use xlink:href="#mb204df5ab9" x="53.328125" y="144.751561" style="stroke: #000000; stroke-width: 0.8"/>
      </g>
     </g>
     <g id="text_7">
      <!-- 1200 -->
      <g transform="translate(20.878125 148.55078) scale(0.1 -0.1)">
       <defs>
        <path id="DejaVuSans-32" d="M 1228 531 
L 3431 531 
L 3431 0 
L 469 0 
L 469 531 
Q 828 903 1448 1529 
Q 2069 2156 2228 2338 
Q 2531 2678 2651 2914 
Q 2772 3150 2772 3378 
Q 2772 3750 2511 3984 
Q 2250 4219 1831 4219 
Q 1534 4219 1204 4116 
Q 875 4013 500 3803 
L 500 4441 
Q 881 4594 1212 4672 
Q 1544 4750 1819 4750 
Q 2544 4750 2975 4387 
Q 3406 4025 3406 3419 
Q 3406 3131 3298 2873 
Q 3191 2616 2906 2266 
Q 2828 2175 2409 1742 
Q 1991 1309 1228 531 
z
" transform="scale(0.015625)"/>
       </defs>
       <use xlink:href="#DejaVuSans-31"/>
       <use xlink:href="#DejaVuSans-32" transform="translate(63.623047 0)"/>
       <use xlink:href="#DejaVuSans-30" transform="translate(127.246094 0)"/>
       <use xlink:href="#DejaVuSans-30" transform="translate(190.869141 0)"/>
      </g>
     </g>
    </g>
    <g id="text_8">
     <!-- Equity -->
     <g transform="translate(14.798438 184.832572) rotate(-90) scale(0.1 -0.1)">
      <defs>
       <path id="DejaVuSans-45" d="M 628 4666 
L 3578 4666 
L 3578 4134 
L 1259 4134 
L 1259 2753 
L 3481 2753 
L 3481 2222 
L 1259 2222 
L 1259 531 
L 3634 531 
L 3634 0 
L 628 0 
L 628 4666 
z
" transform="scale(0.015625)"/>
       <path id="DejaVuSans-71" d="M 947 1747 
Q 947 1113 1208 752 
Q 1469 391 1925 391 
Q 2381 391 2643 752 
Q 2906 1113 2906 1747 
Q 2906 2381 2643 2742 
Q 2381 3103 1925 3103 
Q 1469 3103 1208 2742 
Q 947 2381 947 1747 
z
M 2906 525 
Q 2725 213 2448 61 
Q 2172 -91 1784 -91 
Q 1150 -91 751 415 
Q 353 922 353 1747 
Q 353 2572 751 3078 
Q 1150 3584 1784 3584 
Q 2172 3584 2448 3432 
Q 2725 3281 2906 2969 
L 2906 3500 
L 3481 3500 
L 3481 -1331 
L 2906 -1331 
L 2906 525 
z
" transform="scale(0.015625)"/>
       <path id="DejaVuSans-75" d="M 544 1381 
L 544 3500 
L 1119 3500 
L 1119 1403 
Q 1119 906 1312 657 
Q 1506 409 1894 409 
Q 2359 409 2629 706 
Q 2900 1003 2900 1516 
L 2900 3500 
L 3475 3500 
L 3475 0 
L 2900 0 
L 2900 538 
Q 2691 219 2414 64 
Q 2138 -91 1772 -91 
Q 1169 -91 856 284 
Q 544 659 544 1381 
z
M 1991 3584 
L 1991 3584 
z
" transform="scale(0.015625)"/>
       <path id="DejaVuSans-74" d="M 1172 4494 
L 1172 3500 
L 2356 3500 
L 2356 3053 
L 1172 3053 
L 1172 1153 
Q 1172 725 1289 603 
Q 1406 481 1766 481 
L 2356 481 
L 2356 0 
L 1766 0 
Q 1100 0 847 248 
Q 594 497 594 1153 
L 594 3053 
L 172 3053 
L 172 3500 
L 594 3500 
L 594 4494 
L 1172 4494 
z
" transform="scale(0.015625)"/>
       <path id="DejaVuSans-79" d="M 2059 -325 
Q 1816 -950 1584 -1140 
Q 1353 -1331 966 -1331 
L 506 -1331 
L 506 -850 
L 844 -850 
Q 1081 -850 1212 -737 
Q 1344 -625 1503 -206 
L 1606 56 
L 191 3500 
L 800 3500 
L 1894 763 
L 2988 3500 
L 3597 3500 
L 2059 -325 
z
" transform="scale(0.015625)"/>
      </defs>
      <use xlink:href="#DejaVuSans-45"/>
      <use xlink:href="#DejaVuSans-71" transform="translate(63.183594 0)"/>
      <use xlink:href="#DejaVuSans-75" transform="translate(126.660156 0)"/>
      <use xlink:href="#DejaVuSans-69" transform="translate(190.039062 0)"/>
      <use xlink:href="#DejaVuSans-74" transform="translate(217.822266 0)"/>
      <use xlink:href="#DejaVuSans-79" transform="translate(257.03125 0)"/>
     </g>
    </g>
   </g>
   <g id="line2d_46">
    <path d="M 58.464119 201.660287 
L 84.53031 201.644973 
L 84.60487 202.229599 
L 84.932935 202.383448 
L 86.349576 203.845013 
L 87.654376 201.768052 
L 88.422345 202.414218 
L 88.593833 201.137271 
L 89.510921 203.137308 
L 90.189418 201.506509 
L 90.972298 201.629588 
L 92.232363 206.045054 
L 93.089803 204.014247 
L 93.969612 204.198866 
L 94.379692 205.737356 
L 95.714317 206.506601 
L 96.765614 204.814262 
L 97.459022 206.014284 
L 98.935311 200.891113 
L 100.128272 203.352697 
L 100.89624 203.952708 
L 101.41816 202.244984 
L 101.701489 202.368063 
L 102.111569 200.229562 
L 103.75189 199.721861 
L 104.668978 201.644973 
L 104.765906 201.552664 
L 105.466771 197.691054 
L 106.473331 201.014192 
L 107.002708 199.598781 
L 108.337332 200.998807 
L 109.246965 198.783382 
L 109.396085 198.829537 
L 110.939478 200.844958 
L 111.975863 203.214233 
L 113.071895 200.752649 
L 113.914424 204.39887 
L 114.026264 204.091172 
L 114.689848 207.891242 
L 116.002105 204.814262 
L 116.971386 201.38343 
L 117.11305 202.321908 
L 118.626619 193.183279 
L 118.656443 194.167912 
L 119.305115 188.598579 
L 120.520444 192.21403 
L 121.72086 187.521636 
L 122.436637 185.383135 
L 123.144957 189.244745 
L 123.405917 189.413979 
L 124.785278 185.752373 
L 125.150622 189.22936 
L 126.119903 185.890837 
L 127.312864 184.521581 
L 127.640928 187.890874 
L 128.058464 186.060071 
L 128.863713 188.675504 
L 130.064129 186.352384 
L 130.981218 189.22936 
L 131.003586 188.798583 
L 132.539523 177.382988 
L 132.546979 178.567625 
L 132.643907 171.136719 
L 134.127652 174.709359 
L 134.7465 169.576463 
L 135.700869 171.448025 
L 136.849093 176.766224 
L 137.445574 174.857602 
L 138.690726 179.656953 
L 138.944231 183.381545 
L 139.943335 178.415422 
L 140.562183 178.508073 
L 140.800776 181.84353 
L 143.074857 181.824999 
L 143.283625 176.562391 
L 143.775721 178.748967 
L 144.43185 174.505526 
L 145.237098 174.264632 
L 146.124363 178.211588 
L 146.773035 174.709359 
L 147.973452 180.212862 
L 148.532652 179.619892 
L 149.427373 194.33296 
L 149.844909 187.347032 
L 150.978222 194.462672 
L 151.63435 197.612825 
L 152.543983 189.200063 
L 152.916783 192.276095 
L 153.833871 189.218594 
L 155.16104 189.922746 
L 155.489104 186.754062 
L 156.614961 185.382819 
L 156.987761 188.143836 
L 158.232914 188.718275 
L 158.411858 185.104864 
L 159.589907 190.830731 
L 160.059635 180.65759 
L 160.514451 180.361105 
L 161.647764 189.774503 
L 161.893812 188.310608 
L 162.676693 202.69013 
L 164.197717 204.042843 
L 164.69727 195.389188 
L 165.174454 195.074172 
L 166.203383 210.139316 
L 166.688023 199.577038 
L 167.702039 215.179561 
L 168.052472 211.232604 
L 169.446745 197.557234 
L 170.266905 197.612825 
L 171.124346 201.708024 
L 171.26601 201.411539 
L 172.473882 213.178287 
L 172.675194 208.768073 
L 174.129115 196.389824 
L 174.375163 198.835826 
L 175.344444 194.722096 
L 175.769436 197.464583 
L 176.619421 192.498459 
L 177.842205 195.870976 
L 178.625086 193.332323 
L 178.856222 194.647975 
L 180.325055 201.133584 
L 180.444351 200.170008 
L 181.197407 195.185354 
L 182.099584 194.907399 
L 183.247809 199.465856 
L 183.546049 198.168734 
L 185.014882 192.683762 
L 185.536802 194.147657 
L 186.737219 189.959806 
L 187.527555 195.166824 
L 188.4521 193.14702 
L 189.16042 188.847987 
L 189.667428 191.905489 
L 190.920037 185.253107 
L 191.546342 186.457577 
L 192.523078 182.566212 
L 192.925702 185.586653 
L 194.282695 182.529151 
L 195.758984 187.773229 
L 196.459848 187.291441 
L 197.354569 184.456304 
L 197.980873 184.159819 
L 198.644458 187.82882 
L 199.583914 186.976426 
L 200.210219 190.256291 
L 201.127307 189.403897 
L 201.790892 185.512531 
L 202.178604 186.494715 
L 202.394828 188.495742 
L 204.072429 188.328989 
L 205.07899 182.103573 
L 205.697838 181.158644 
L 206.12283 183.159671 
L 207.047375 180.287827 
L 207.174127 182.659414 
L 208.747344 180.751028 
L 209.381104 182.97439 
L 209.806096 182.714998 
L 210.380209 178.935281 
L 211.498609 179.935794 
L 211.953426 181.918293 
L 213.392434 177.897712 
L 214.167859 185.123641 
L 214.928371 185.716538 
L 215.539764 178.601777 
L 217.038421 180.404648 
L 217.314293 177.96612 
L 218.037525 183.590466 
L 218.92479 178.497089 
L 219.864246 180.424313 
L 220.490551 174.544314 
L 220.520375 175.27194 
L 221.526935 179.087056 
L 222.101048 176.215886 
L 222.764632 182.076219 
L 224.047065 177.926789 
L 224.934329 182.764513 
L 225.776858 184.475416 
L 226.679034 178.988728 
L 227.089115 181.545249 
L 228.170235 177.140167 
L 228.386459 182.784179 
L 229.0575 176.569866 
L 230.198268 174.701639 
L 231.316669 179.185384 
L 231.965341 180.955283 
L 232.561822 175.783244 
L 232.867518 177.140167 
L 233.993375 175.075284 
L 235.395103 178.634748 
L 235.939392 175.861906 
L 235.954304 176.137224 
L 238.556449 168.286849 
L 239.07837 170.253889 
L 239.659938 163.546282 
L 240.636674 167.991793 
L 241.486659 162.307047 
L 242.75418 160.404929 
L 243.626532 166.435875 
L 243.671268 165.050675 
L 245.125189 153.649416 
L 245.483077 157.3788 
L 246.69095 146.254581 
L 246.758054 147.107012 
L 248.107591 140.053149 
L 248.808455 142.162914 
L 249.598792 136.17459 
L 249.9194 136.217211 
L 250.284744 140.862958 
L 252.446985 137.112263 
L 252.484265 139.285961 
L 253.311882 138.049937 
L 254.407915 141.821942 
L 255.295179 143.867776 
L 255.503947 140.138392 
L 256.793836 142.333401 
L 257.554348 137.325371 
L 258.143373 135.109051 
L 259.053005 139.648244 
L 259.515278 137.879451 
L 260.641134 140.884269 
L 260.678414 140.671161 
L 261.826639 144.848071 
L 262.288911 141.417038 
L 263.198544 145.95623 
L 264.21256 144.592342 
L 264.809041 141.20393 
L 265.793233 140.628539 
L 266.501554 144.144815 
L 266.88181 142.951413 
L 268.320819 146.78735 
L 268.380467 145.977541 
L 269.8493 148.641387 
L 270.527796 146.851283 
L 271.258485 152.051109 
L 271.690933 149.493817 
L 272.898806 153.75597 
L 273.390902 153.926456 
L 273.912822 151.006882 
L 274.554038 153.649416 
L 275.814103 150.111829 
L 276.656632 149.28071 
L 277.178552 153.244512 
L 277.640824 151.411786 
L 278.774137 149.046291 
L 280.011834 149.195467 
L 280.54121 150.324937 
L 280.981114 150.303626 
L 282.196443 148.747941 
L 282.263547 148.811873 
L 283.642908 152.477324 
L 284.358684 152.051109 
L 284.873149 149.067602 
L 285.372701 149.451196 
L 286.573118 155.524764 
L 286.96083 154.821508 
L 287.579678 150.836395 
L 288.459487 151.390475 
L 289.495871 148.939737 
L 291.19584 149.8561 
L 291.49408 146.638175 
L 292.329153 147.703713 
L 292.515553 146.254581 
L 293.514658 145.700501 
L 294.528674 149.837739 
L 294.90893 148.127148 
L 295.676899 152.660214 
L 296.638724 151.077917 
L 297.01898 153.301685 
L 297.749668 151.676624 
L 298.696581 154.841217 
L 299.233413 153.130626 
L 300.896102 162.196758 
L 301.544774 157.727839 
L 302.335111 160.272343 
L 303.200007 156.509043 
L 303.878504 156.872544 
L 305.310057 166.558765 
L 305.638121 164.484674 
L 305.891625 167.157472 
L 307.196426 166.131117 
L 308.411754 163.308642 
L 308.941131 162.624406 
L 309.425771 167.777561 
L 310.670924 161.127639 
L 311.588012 171.605008 
L 312.452909 167.478208 
L 313.705518 167.798944 
L 314.145422 172.545833 
L 315.412943 172.823804 
L 315.741007 168.205209 
L 316.807215 172.225098 
L 317.075632 168.889445 
L 318.089648 167.777561 
L 319.036561 171.177361 
L 319.551025 170.706948 
L 320.669426 166.96503 
L 321.124242 167.435443 
L 322.011506 174.513013 
L 322.690003 173.978453 
L 323.800948 171.006301 
L 324.330324 172.524451 
L 324.732948 168.84668 
L 325.582933 170.856625 
L 326.477653 175.988398 
L 327.059221 172.460304 
L 327.924118 165.233057 
L 328.915767 169.231563 
L 329.087255 165.446881 
L 330.138551 164.955086 
L 331.27932 171.540861 
L 332.770521 166.045588 
L 333.441561 165.853146 
L 334.828378 171.540861 
L 336.088443 164.078408 
L 336.505979 164.997851 
L 337.713852 170.621419 
L 337.937532 170.984919 
L 339.488381 167.05056 
L 340.159421 177.057517 
L 341.016862 167.349913 
L 342.515519 179.32405 
L 343.469887 172.802422 
L 343.991807 173.165923 
L 345.527744 173.165923 
L 347.033857 173.911517 
L 347.071137 173.132521 
L 347.287361 173.835518 
L 348.047874 171.17553 
L 349.225923 173.34152 
L 349.389955 170.339533 
L 350.91098 169.807536 
L 351.559652 172.657523 
L 352.275428 172.296524 
L 352.469284 170.206534 
L 353.542949 169.408538 
L 353.885925 171.555528 
L 355.436774 170.111534 
L 355.861766 166.406551 
L 356.391143 168.477542 
L 357.822696 163.860563 
L 358.538472 166.045553 
L 358.754696 164.145561 
L 359.612137 163.853583 
L 360.902025 167.868837 
L 361.297194 166.194133 
L 362.080074 169.866376 
L 363.541451 168.857518 
L 364.048459 171.944624 
L 364.272139 172.348167 
L 365.480012 167.586814 
L 365.778252 169.138068 
L 366.814637 162.912908 
L 367.724269 162.832323 
L 368.074702 166.176584 
L 368.932142 166.599653 
L 369.625551 163.013638 
L 370.244399 163.376269 
L 371.5492 165.471469 
L 372.130768 163.940361 
L 373.271537 167.546522 
L 373.651793 166.19673 
L 374.300465 168.473245 
L 374.949138 168.513537 
L 375.836402 165.209569 
L 376.403059 168.473245 
L 377.484179 173.328467 
L 378.021012 171.595898 
L 379.46002 176.632436 
L 379.631508 177.740474 
L 380.213077 174.758844 
L 381.376213 173.610513 
L 382.554262 176.854043 
L 383.262583 177.619597 
L 383.866519 170.729614 
L 384.306423 174.718551 
L 385.417368 165.693076 
L 386.789273 166.804086 
L 387.169529 162.110112 
L 387.221721 162.256798 
L 388.742746 166.028742 
L 389.398874 169.507313 
L 389.59273 164.415188 
L 390.554555 162.445395 
L 391.605852 164.834293 
L 392.2247 163.283605 
L 392.52294 166.112563 
L 393.395293 163.828442 
L 393.522045 165.81919 
L 395.989982 162.906411 
L 396.303134 166.845997 
L 396.60883 164.079905 
L 396.787775 166.741221 
L 398.38336 170.156925 
L 399.046944 159.888856 
L 399.72544 161.649096 
L 400.262273 164.247546 
L 401.097345 162.026291 
L 402.05917 157.206584 
L 403.341602 156.892256 
L 403.863523 161.628141 
L 404.542019 158.50581 
L 405.317444 163.681755 
L 406.159972 162.152022 
L 406.674436 159.239243 
L 407.330565 161.167126 
L 407.830117 159.156167 
L 409.343686 161.542156 
L 410.305511 157.209703 
L 410.357703 157.481789 
L 411.640135 152.165639 
L 411.901095 154.488838 
L 411.938376 160.47474 
L 413.444488 156.246935 
L 414.950601 162.056141 
L 415.040073 160.996482 
L 416.344874 173.60427 
L 416.859338 169.949525 
L 418.037387 180.091982 
L 418.372907 181.065139 
L 419.267628 175.874969 
L 419.632972 180.502871 
L 421.101805 173.193381 
L 421.474605 175.074818 
L 422.168014 170.057653 
L 422.868878 172.933873 
L 423.763598 177.410394 
L 424.307887 176.329109 
L 425.560496 171.463324 
L 426.11224 171.614704 
L 426.96968 175.593835 
L 427.335025 175.074818 
L 428.028433 185.801169 
L 429.400338 175.874969 
L 430.53365 183.422341 
L 430.787155 174.144912 
L 432.86738 180.437993 
L 433.344564 176.956254 
L 434.149813 182.341056 
L 434.992341 177.5834 
L 435.066901 178.015914 
L 436.476086 183.725101 
L 436.595382 182.103173 
L 437.415543 192.591642 
L 438.474295 192.310507 
L 439.674712 181.065139 
L 440.5918 183.07633 
L 441.031705 175.874969 
L 441.404505 180.027105 
L 442.000985 174.858561 
L 442.768954 176.047975 
L 443.439994 182.103173 
L 444.521115 182.01667 
L 445.214523 176.047975 
L 446.034684 176.8265 
L 446.832476 184.828012 
L 448.577181 184.373872 
L 448.905245 180.027105 
L 449.166205 180.546122 
L 449.598654 189.153154 
L 450.567934 186.817577 
L 451.082399 180.935385 
L 452.260447 182.146424 
L 453.289376 178.124043 
L 453.595072 179.075574 
L 454.527073 176.566992 
L 455.645473 177.107634 
L 456.13757 179.508088 
L 457.718243 178.470054 
L 458.091043 176.307483 
L 458.337091 175.91822 
L 458.859011 178.534931 
L 459.940132 177.259064 
L 460.96906 172.608884 
L 461.923429 174.75013 
L 462.795781 172.652142 
L 463.34007 174.23104 
L 464.473382 171.224644 
L 465.912391 173.430776 
L 466.247912 175.420621 
L 467.440872 173.53892 
L 467.87332 173.106345 
L 468.611465 175.982968 
L 469.640394 173.36589 
L 470.527658 177.432094 
L 470.907914 181.152238 
L 472.033771 176.653459 
L 472.660075 175.982968 
L 473.159628 177.561867 
L 473.636812 176.588573 
L 475.053453 171.743734 
L 475.239853 172.954944 
L 476.134573 168.499423 
L 476.984558 168.607566 
L 478.095503 171.700477 
L 478.363919 171.246273 
L 479.802928 167.807303 
L 480.67528 166.271662 
L 481.331408 170.79207 
L 481.458161 170.164836 
L 482.554193 174.295926 
L 483.292338 174.75013 
L 483.918642 172.998202 
L 484.440562 174.101267 
L 484.76117 175.831567 
L 486.602804 175.982968 
L 487.340948 174.122896 
L 487.967252 176.610202 
L 489.510645 174.209411 
L 490.502294 178.491903 
L 490.62159 178.318873 
L 491.971127 171.613962 
L 492.970231 172.50074 
L 493.313207 169.58086 
L 493.976792 172.50074 
L 494.70748 168.910369 
L 495.743865 172.911687 
L 496.74297 170.251351 
L 496.914458 170.856956 
L 498.204346 162.205458 
L 499.770107 164.028206 
L 499.911771 159.301103 
L 500.538076 166.344487 
L 502.484093 160.033804 
L 502.946365 163.035515 
L 502.961277 162.657346 
L 504.482302 167.124459 
L 505.511231 167.17173 
L 505.928767 160.341066 
L 507.039712 164.713636 
L 507.382688 156.819374 
L 507.740576 156.866645 
L 509.008097 160.033804 
L 509.142305 160.05744 
L 510.417282 154.148561 
L 511.640066 156.110309 
L 512.132163 153.794029 
L 512.900131 155.779412 
L 513.683012 153.746758 
L 513.876868 155.164888 
L 515.241316 151.501384 
L 515.696133 151.454113 
L 516.844357 153.014057 
L 516.918917 152.045001 
L 518.029862 155.097493 
L 518.864935 153.56009 
L 519.647815 155.168451 
L 520.124999 155.523236 
L 520.549992 152.708605 
L 521.481992 154.908275 
L 522.853897 143.03479 
L 523.167049 142.159653 
L 523.681513 156.540287 
L 525.977963 142.861049 
L 526.089803 139.753182 
L 526.432779 139.906028 
L 527.528812 150.452395 
L 527.819596 147.573797 
L 529.169133 155.802002 
L 529.482285 152.948878 
L 530.026573 158.145639 
L 530.749806 156.770026 
L 531.361198 153.101724 
L 532.345391 154.604709 
L 533.299759 150.426921 
L 534.813328 151.77706 
L 535.514192 157.508781 
L 536.244881 149.407948 
L 537.303633 153.891428 
L 537.601874 143.981918 
L 538.720274 150.732613 
L 539.070706 142.580831 
L 540.211475 147.11526 
L 541.411892 138.657786 
L 541.903988 137.511442 
L 542.44082 142.63178 
L 543.171509 140.186245 
L 544.140789 135.549919 
L 544.752182 134.479998 
L 545.63199 138.810632 
L 546.921879 132.238258 
L 547.6302 136.008457 
L 547.913528 134.556421 
L 548.905176 137.536916 
L 549.568761 133.588397 
L 550.329273 137.919031 
L 551.701178 130.149364 
L 552.215642 136.900058 
L 552.759931 124.927129 
L 553.930523 124.978078 
L 555.108572 131.42308 
L 555.623036 129.53798 
L 556.637053 125.309244 
L 557.569053 124.468591 
L 557.867294 127.398138 
L 558.54579 124.621437 
L 560.283039 130.531479 
L 561.013727 125.232821 
L 561.610208 125.920627 
L 563.004481 131.295708 
L 563.317633 130.251261 
L 564.219809 125.563987 
L 564.935586 130.047467 
L 566.053986 122.863709 
L 566.240386 124.137425 
L 567.373699 130.888119 
L 567.783779 130.149364 
L 569.394276 136.900058 
L 570.855653 131.219285 
L 571.42231 131.575926 
L 571.728006 127.016023 
L 572.063526 128.085944 
L 572.063526 128.085944 
" clip-path="url(#p4a9eaa82db)" style="fill: none; stroke: #2e8b57; stroke-width: 1.5; stroke-linecap: square"/>
   </g>
   <g id="patch_8">
    <path d="M 53.328125 219.795353 
L 53.328125 118.247917 
" style="fill: none; stroke: #000000; stroke-width: 0.8; stroke-linejoin: miter; stroke-linecap: square"/>
   </g>
   <g id="patch_9">
    <path d="M 577.19952 219.795353 
L 577.19952 118.247917 
" style="fill: none; stroke: #000000; stroke-width: 0.8; stroke-linejoin: miter; stroke-linecap: square"/>
   </g>
   <g id="patch_10">
    <path d="M 53.328125 219.795353 
L 577.19952 219.795353 
" style="fill: none; stroke: #000000; stroke-width: 0.8; stroke-linejoin: miter; stroke-linecap: square"/>
   </g>
   <g id="patch_11">
    <path d="M 53.328125 118.247917 
L 577.19952 118.247917 
" style="fill: none; stroke: #000000; stroke-width: 0.8; stroke-linejoin: miter; stroke-linecap: square"/>
   </g>
  </g>
  <g id="axes_3">
   <g id="patch_12">
    <path d="M 53.328125 330.84327 
L 577.19952 330.84327 
L 577.19952 229.295833 
L 53.328125 229.295833 
z
" style="fill: #ffffff"/>
   </g>
   <g id="matplotlib.axis_5">
    <g id="xtick_39">
     <g id="line2d_47">
      <g>
       <use xlink:href="#mc4f817595b" x="58.462822" y="330.84327" style="stroke: #000000; stroke-width: 0.8"/>
      </g>
     </g>
     <g id="text_9">
      <!-- Nov -->
      <g transform="translate(48.703447 345.441707) scale(0.1 -0.1)">
       <defs>
        <path id="DejaVuSans-4e" d="M 628 4666 
L 1478 4666 
L 3547 763 
L 3547 4666 
L 4159 4666 
L 4159 0 
L 3309 0 
L 1241 3903 
L 1241 0 
L 628 0 
L 628 4666 
z
" transform="scale(0.015625)"/>
        <path id="DejaVuSans-6f" d="M 1959 3097 
Q 1497 3097 1228 2736 
Q 959 2375 959 1747 
Q 959 1119 1226 758 
Q 1494 397 1959 397 
Q 2419 397 2687 759 
Q 2956 1122 2956 1747 
Q 2956 2369 2687 2733 
Q 2419 3097 1959 3097 
z
M 1959 3584 
Q 2709 3584 3137 3096 
Q 3566 2609 3566 1747 
Q 3566 888 3137 398 
Q 2709 -91 1959 -91 
Q 1206 -91 779 398 
Q 353 888 353 1747 
Q 353 2609 779 3096 
Q 1206 3584 1959 3584 
z
" transform="scale(0.015625)"/>
        <path id="DejaVuSans-76" d="M 191 3500 
L 800 3500 
L 1894 563 
L 2988 3500 
L 3597 3500 
L 2284 0 
L 1503 0 
L 191 3500 
z
" transform="scale(0.015625)"/>
       </defs>
       <use xlink:href="#DejaVuSans-4e"/>
       <use xlink:href="#DejaVuSans-6f" transform="translate(74.804688 0)"/>
       <use xlink:href="#DejaVuSans-76" transform="translate(135.986328 0)"/>
      </g>
     </g>
    </g>
    <g id="xtick_40">
     <g id="line2d_48">
      <g>
       <use xlink:href="#mc4f817595b" x="86.471465" y="330.84327" style="stroke: #000000; stroke-width: 0.8"/>
      </g>
     </g>
     <g id="text_10">
      <!-- 02 -->
      <g transform="translate(80.108965 345.441707) scale(0.1 -0.1)">
       <use xlink:href="#DejaVuSans-30"/>
       <use xlink:href="#DejaVuSans-32" transform="translate(63.623047 0)"/>
      </g>
     </g>
    </g>
    <g id="xtick_41">
     <g id="line2d_49">
      <g>
       <use xlink:href="#mc4f817595b" x="114.480108" y="330.84327" style="stroke: #000000; stroke-width: 0.8"/>
      </g>
     </g>
     <g id="text_11">
      <!-- 03 -->
      <g transform="translate(108.117608 345.441707) scale(0.1 -0.1)">
       <defs>
        <path id="DejaVuSans-33" d="M 2597 2516 
Q 3050 2419 3304 2112 
Q 3559 1806 3559 1356 
Q 3559 666 3084 287 
Q 2609 -91 1734 -91 
Q 1441 -91 1130 -33 
Q 819 25 488 141 
L 488 750 
Q 750 597 1062 519 
Q 1375 441 1716 441 
Q 2309 441 2620 675 
Q 2931 909 2931 1356 
Q 2931 1769 2642 2001 
Q 2353 2234 1838 2234 
L 1294 2234 
L 1294 2753 
L 1863 2753 
Q 2328 2753 2575 2939 
Q 2822 3125 2822 3475 
Q 2822 3834 2567 4026 
Q 2313 4219 1838 4219 
Q 1578 4219 1281 4162 
Q 984 4106 628 3988 
L 628 4550 
Q 988 4650 1302 4700 
Q 1616 4750 1894 4750 
Q 2613 4750 3031 4423 
Q 3450 4097 3450 3541 
Q 3450 3153 3228 2886 
Q 3006 2619 2597 2516 
z
" transform="scale(0.015625)"/>
       </defs>
       <use xlink:href="#DejaVuSans-30"/>
       <use xlink:href="#DejaVuSans-33" transform="translate(63.623047 0)"/>
      </g>
     </g>
    </g>
    <g id="xtick_42">
     <g id="line2d_50">
      <g>
       <use xlink:href="#mc4f817595b" x="142.48875" y="330.84327" style="stroke: #000000; stroke-width: 0.8"/>
      </g>
     </g>
     <g id="text_12">
      <!-- 04 -->
      <g transform="translate(136.12625 345.441707) scale(0.1 -0.1)">
       <use xlink:href="#DejaVuSans-30"/>
       <use xlink:href="#DejaVuSans-34" transform="translate(63.623047 0)"/>
      </g>
     </g>
    </g>
    <g id="xtick_43">
     <g id="line2d_51">
      <g>
       <use xlink:href="#mc4f817595b" x="170.497393" y="330.84327" style="stroke: #000000; stroke-width: 0.8"/>
      </g>
     </g>
     <g id="text_13">
      <!-- 05 -->
      <g transform="translate(164.134893 345.441707) scale(0.1 -0.1)">
       <defs>
        <path id="DejaVuSans-35" d="M 691 4666 
L 3169 4666 
L 3169 4134 
L 1269 4134 
L 1269 2991 
Q 1406 3038 1543 3061 
Q 1681 3084 1819 3084 
Q 2600 3084 3056 2656 
Q 3513 2228 3513 1497 
Q 3513 744 3044 326 
Q 2575 -91 1722 -91 
Q 1428 -91 1123 -41 
Q 819 9 494 109 
L 494 744 
Q 775 591 1075 516 
Q 1375 441 1709 441 
Q 2250 441 2565 725 
Q 2881 1009 2881 1497 
Q 2881 1984 2565 2268 
Q 2250 2553 1709 2553 
Q 1456 2553 1204 2497 
Q 953 2441 691 2322 
L 691 4666 
z
" transform="scale(0.015625)"/>
       </defs>
       <use xlink:href="#DejaVuSans-30"/>
       <use xlink:href="#DejaVuSans-35" transform="translate(63.623047 0)"/>
      </g>
     </g>
    </g>
    <g id="xtick_44">
     <g id="line2d_52">
      <g>
       <use xlink:href="#mc4f817595b" x="198.506035" y="330.84327" style="stroke: #000000; stroke-width: 0.8"/>
      </g>
     </g>
     <g id="text_14">
      <!-- 06 -->
      <g transform="translate(192.143535 345.441707) scale(0.1 -0.1)">
       <use xlink:href="#DejaVuSans-30"/>
       <use xlink:href="#DejaVuSans-36" transform="translate(63.623047 0)"/>
      </g>
     </g>
    </g>
    <g id="xtick_45">
     <g id="line2d_53">
      <g>
       <use xlink:href="#mc4f817595b" x="226.514678" y="330.84327" style="stroke: #000000; stroke-width: 0.8"/>
      </g>
     </g>
     <g id="text_15">
      <!-- 07 -->
      <g transform="translate(220.152178 345.441707) scale(0.1 -0.1)">
       <defs>
        <path id="DejaVuSans-37" d="M 525 4666 
L 3525 4666 
L 3525 4397 
L 1831 0 
L 1172 0 
L 2766 4134 
L 525 4134 
L 525 4666 
z
" transform="scale(0.015625)"/>
       </defs>
       <use xlink:href="#DejaVuSans-30"/>
       <use xlink:href="#DejaVuSans-37" transform="translate(63.623047 0)"/>
      </g>
     </g>
    </g>
    <g id="xtick_46">
     <g id="line2d_54">
      <g>
       <use xlink:href="#mc4f817595b" x="254.523321" y="330.84327" style="stroke: #000000; stroke-width: 0.8"/>
      </g>
     </g>
     <g id="text_16">
      <!-- 08 -->
      <g transform="translate(248.160821 345.441707) scale(0.1 -0.1)">
       <use xlink:href="#DejaVuSans-30"/>
       <use xlink:href="#DejaVuSans-38" transform="translate(63.623047 0)"/>
      </g>
     </g>
    </g>
    <g id="xtick_47">
     <g id="line2d_55">
      <g>
       <use xlink:href="#mc4f817595b" x="282.531963" y="330.84327" style="stroke: #000000; stroke-width: 0.8"/>
      </g>
     </g>
     <g id="text_17">
      <!-- 09 -->
      <g transform="translate(276.169463 345.441707) scale(0.1 -0.1)">
       <defs>
        <path id="DejaVuSans-39" d="M 703 97 
L 703 672 
Q 941 559 1184 500 
Q 1428 441 1663 441 
Q 2288 441 2617 861 
Q 2947 1281 2994 2138 
Q 2813 1869 2534 1725 
Q 2256 1581 1919 1581 
Q 1219 1581 811 2004 
Q 403 2428 403 3163 
Q 403 3881 828 4315 
Q 1253 4750 1959 4750 
Q 2769 4750 3195 4129 
Q 3622 3509 3622 2328 
Q 3622 1225 3098 567 
Q 2575 -91 1691 -91 
Q 1453 -91 1209 -44 
Q 966 3 703 97 
z
M 1959 2075 
Q 2384 2075 2632 2365 
Q 2881 2656 2881 3163 
Q 2881 3666 2632 3958 
Q 2384 4250 1959 4250 
Q 1534 4250 1286 3958 
Q 1038 3666 1038 3163 
Q 1038 2656 1286 2365 
Q 1534 2075 1959 2075 
z
" transform="scale(0.015625)"/>
       </defs>
       <use xlink:href="#DejaVuSans-30"/>
       <use xlink:href="#DejaVuSans-39" transform="translate(63.623047 0)"/>
      </g>
     </g>
    </g>
    <g id="xtick_48">
     <g id="line2d_56">
      <g>
       <use xlink:href="#mc4f817595b" x="310.540606" y="330.84327" style="stroke: #000000; stroke-width: 0.8"/>
      </g>
     </g>
     <g id="text_18">
      <!-- 10 -->
      <g transform="translate(304.178106 345.441707) scale(0.1 -0.1)">
       <use xlink:href="#DejaVuSans-31"/>
       <use xlink:href="#DejaVuSans-30" transform="translate(63.623047 0)"/>
      </g>
     </g>
    </g>
    <g id="xtick_49">
     <g id="line2d_57">
      <g>
       <use xlink:href="#mc4f817595b" x="338.549248" y="330.84327" style="stroke: #000000; stroke-width: 0.8"/>
      </g>
     </g>
     <g id="text_19">
      <!-- 11 -->
      <g transform="translate(332.186748 345.441707) scale(0.1 -0.1)">
       <use xlink:href="#DejaVuSans-31"/>
       <use xlink:href="#DejaVuSans-31" transform="translate(63.623047 0)"/>
      </g>
     </g>
    </g>
    <g id="xtick_50">
     <g id="line2d_58">
      <g>
       <use xlink:href="#mc4f817595b" x="366.557891" y="330.84327" style="stroke: #000000; stroke-width: 0.8"/>
      </g>
     </g>
     <g id="text_20">
      <!-- 12 -->
      <g transform="translate(360.195391 345.441707) scale(0.1 -0.1)">
       <use xlink:href="#DejaVuSans-31"/>
       <use xlink:href="#DejaVuSans-32" transform="translate(63.623047 0)"/>
      </g>
     </g>
    </g>
    <g id="xtick_51">
     <g id="line2d_59">
      <g>
       <use xlink:href="#mc4f817595b" x="394.566534" y="330.84327" style="stroke: #000000; stroke-width: 0.8"/>
      </g>
     </g>
     <g id="text_21">
      <!-- 13 -->
      <g transform="translate(388.204034 345.441707) scale(0.1 -0.1)">
       <use xlink:href="#DejaVuSans-31"/>
       <use xlink:href="#DejaVuSans-33" transform="translate(63.623047 0)"/>
      </g>
     </g>
    </g>
    <g id="xtick_52">
     <g id="line2d_60">
      <g>
       <use xlink:href="#mc4f817595b" x="422.575176" y="330.84327" style="stroke: #000000; stroke-width: 0.8"/>
      </g>
     </g>
     <g id="text_22">
      <!-- 14 -->
      <g transform="translate(416.212676 345.441707) scale(0.1 -0.1)">
       <use xlink:href="#DejaVuSans-31"/>
       <use xlink:href="#DejaVuSans-34" transform="translate(63.623047 0)"/>
      </g>
     </g>
    </g>
    <g id="xtick_53">
     <g id="line2d_61">
      <g>
       <use xlink:href="#mc4f817595b" x="450.583819" y="330.84327" style="stroke: #000000; stroke-width: 0.8"/>
      </g>
     </g>
     <g id="text_23">
      <!-- 15 -->
      <g transform="translate(444.221319 345.441707) scale(0.1 -0.1)">
       <use xlink:href="#DejaVuSans-31"/>
       <use xlink:href="#DejaVuSans-35" transform="translate(63.623047 0)"/>
      </g>
     </g>
    </g>
    <g id="xtick_54">
     <g id="line2d_62">
      <g>
       <use xlink:href="#mc4f817595b" x="478.592461" y="330.84327" style="stroke: #000000; stroke-width: 0.8"/>
      </g>
     </g>
     <g id="text_24">
      <!-- 16 -->
      <g transform="translate(472.229961 345.441707) scale(0.1 -0.1)">
       <use xlink:href="#DejaVuSans-31"/>
       <use xlink:href="#DejaVuSans-36" transform="translate(63.623047 0)"/>
      </g>
     </g>
    </g>
    <g id="xtick_55">
     <g id="line2d_63">
      <g>
       <use xlink:href="#mc4f817595b" x="506.601104" y="330.84327" style="stroke: #000000; stroke-width: 0.8"/>
      </g>
     </g>
     <g id="text_25">
      <!-- 17 -->
      <g transform="translate(500.238604 345.441707) scale(0.1 -0.1)">
       <use xlink:href="#DejaVuSans-31"/>
       <use xlink:href="#DejaVuSans-37" transform="translate(63.623047 0)"/>
      </g>
     </g>
    </g>
    <g id="xtick_56">
     <g id="line2d_64">
      <g>
       <use xlink:href="#mc4f817595b" x="534.609747" y="330.84327" style="stroke: #000000; stroke-width: 0.8"/>
      </g>
     </g>
     <g id="text_26">
      <!-- 18 -->
      <g transform="translate(528.247247 345.441707) scale(0.1 -0.1)">
       <use xlink:href="#DejaVuSans-31"/>
       <use xlink:href="#DejaVuSans-38" transform="translate(63.623047 0)"/>
      </g>
     </g>
    </g>
    <g id="xtick_57">
     <g id="line2d_65">
      <g>
       <use xlink:href="#mc4f817595b" x="562.618389" y="330.84327" style="stroke: #000000; stroke-width: 0.8"/>
      </g>
     </g>
     <g id="text_27">
      <!-- 19 -->
      <g transform="translate(556.255889 345.441707) scale(0.1 -0.1)">
       <use xlink:href="#DejaVuSans-31"/>
       <use xlink:href="#DejaVuSans-39" transform="translate(63.623047 0)"/>
      </g>
     </g>
    </g>
    <g id="text_28">
     <!-- Time -->
     <g transform="translate(303.030229 359.119832) scale(0.1 -0.1)">
      <defs>
       <path id="DejaVuSans-54" d="M -19 4666 
L 3928 4666 
L 3928 4134 
L 2272 4134 
L 2272 0 
L 1638 0 
L 1638 4134 
L -19 4134 
L -19 4666 
z
" transform="scale(0.015625)"/>
       <path id="DejaVuSans-6d" d="M 3328 2828 
Q 3544 3216 3844 3400 
Q 4144 3584 4550 3584 
Q 5097 3584 5394 3201 
Q 5691 2819 5691 2113 
L 5691 0 
L 5113 0 
L 5113 2094 
Q 5113 2597 4934 2840 
Q 4756 3084 4391 3084 
Q 3944 3084 3684 2787 
Q 3425 2491 3425 1978 
L 3425 0 
L 2847 0 
L 2847 2094 
Q 2847 2600 2669 2842 
Q 2491 3084 2119 3084 
Q 1678 3084 1418 2786 
Q 1159 2488 1159 1978 
L 1159 0 
L 581 0 
L 581 3500 
L 1159 3500 
L 1159 2956 
Q 1356 3278 1631 3431 
Q 1906 3584 2284 3584 
Q 2666 3584 2933 3390 
Q 3200 3197 3328 2828 
z
" transform="scale(0.015625)"/>
      </defs>
      <use xlink:href="#DejaVuSans-54"/>
      <use xlink:href="#DejaVuSans-69" transform="translate(57.958984 0)"/>
      <use xlink:href="#DejaVuSans-6d" transform="translate(85.742188 0)"/>
      <use xlink:href="#DejaVuSans-65" transform="translate(183.154297 0)"/>
     </g>
    </g>
    <g id="text_29">
     <!-- 2025-Nov -->
     <g transform="translate(528.622957 358.119832) scale(0.1 -0.1)">
      <defs>
       <path id="DejaVuSans-2d" d="M 313 2009 
L 1997 2009 
L 1997 1497 
L 313 1497 
L 313 2009 
z
" transform="scale(0.015625)"/>
      </defs>
      <use xlink:href="#DejaVuSans-32"/>
      <use xlink:href="#DejaVuSans-30" transform="translate(63.623047 0)"/>
      <use xlink:href="#DejaVuSans-32" transform="translate(127.246094 0)"/>
      <use xlink:href="#DejaVuSans-35" transform="translate(190.869141 0)"/>
      <use xlink:href="#DejaVuSans-2d" transform="translate(254.492188 0)"/>
      <use xlink:href="#DejaVuSans-4e" transform="translate(290.576172 0)"/>
      <use xlink:href="#DejaVuSans-6f" transform="translate(365.380859 0)"/>
      <use xlink:href="#DejaVuSans-76" transform="translate(426.5625 0)"/>
     </g>
    </g>
   </g>
   <g id="matplotlib.axis_6">
    <g id="ytick_7">
     <g id="line2d_66">
      <g>
       <use xlink:href="#mb204df5ab9" x="53.328125" y="318.48929" style="stroke: #000000; stroke-width: 0.8"/>
      </g>
     </g>
     <g id="text_30">
      <!-- 15 -->
      <g transform="translate(25.223438 322.288509) scale(0.1 -0.1)">
       <defs>
        <path id="DejaVuSans-2212" d="M 678 2272 
L 4684 2272 
L 4684 1741 
L 678 1741 
L 678 2272 
z
" transform="scale(0.015625)"/>
       </defs>
       <use xlink:href="#DejaVuSans-2212"/>
       <use xlink:href="#DejaVuSans-31" transform="translate(83.789062 0)"/>
       <use xlink:href="#DejaVuSans-35" transform="translate(147.412109 0)"/>
      </g>
     </g>
    </g>
    <g id="ytick_8">
     <g id="line2d_67">
      <g>
       <use xlink:href="#mb204df5ab9" x="53.328125" y="290.296735" style="stroke: #000000; stroke-width: 0.8"/>
      </g>
     </g>
     <g id="text_31">
      <!-- 10 -->
      <g transform="translate(25.223438 294.095954) scale(0.1 -0.1)">
       <use xlink:href="#DejaVuSans-2212"/>
       <use xlink:href="#DejaVuSans-31" transform="translate(83.789062 0)"/>
       <use xlink:href="#DejaVuSans-30" transform="translate(147.412109 0)"/>
      </g>
     </g>
    </g>
    <g id="ytick_9">
     <g id="line2d_68">
      <g>
       <use xlink:href="#mb204df5ab9" x="53.328125" y="262.104181" style="stroke: #000000; stroke-width: 0.8"/>
      </g>
     </g>
     <g id="text_32">
      <!-- 5 -->
      <g transform="translate(31.585938 265.903399) scale(0.1 -0.1)">
       <use xlink:href="#DejaVuSans-2212"/>
       <use xlink:href="#DejaVuSans-35" transform="translate(83.789062 0)"/>
      </g>
     </g>
    </g>
    <g id="ytick_10">
     <g id="line2d_69">
      <g>
       <use xlink:href="#mb204df5ab9" x="53.328125" y="233.911626" style="stroke: #000000; stroke-width: 0.8"/>
      </g>
     </g>
     <g id="text_33">
      <!-- 0 -->
      <g transform="translate(39.965625 237.710845) scale(0.1 -0.1)">
       <use xlink:href="#DejaVuSans-30"/>
      </g>
     </g>
    </g>
    <g id="text_34">
     <!-- Drawdown, % -->
     <g transform="translate(14.798438 314.548458) rotate(-90) scale(0.1 -0.1)">
      <defs>
       <path id="DejaVuSans-44" d="M 1259 4147 
L 1259 519 
L 2022 519 
Q 2988 519 3436 956 
Q 3884 1394 3884 2338 
Q 3884 3275 3436 3711 
Q 2988 4147 2022 4147 
L 1259 4147 
z
M 628 4666 
L 1925 4666 
Q 3281 4666 3915 4102 
Q 4550 3538 4550 2338 
Q 4550 1131 3912 565 
Q 3275 0 1925 0 
L 628 0 
L 628 4666 
z
" transform="scale(0.015625)"/>
       <path id="DejaVuSans-61" d="M 2194 1759 
Q 1497 1759 1228 1600 
Q 959 1441 959 1056 
Q 959 750 1161 570 
Q 1363 391 1709 391 
Q 2188 391 2477 730 
Q 2766 1069 2766 1631 
L 2766 1759 
L 2194 1759 
z
M 3341 1997 
L 3341 0 
L 2766 0 
L 2766 531 
Q 2569 213 2275 61 
Q 1981 -91 1556 -91 
Q 1019 -91 701 211 
Q 384 513 384 1019 
Q 384 1609 779 1909 
Q 1175 2209 1959 2209 
L 2766 2209 
L 2766 2266 
Q 2766 2663 2505 2880 
Q 2244 3097 1772 3097 
Q 1472 3097 1187 3025 
Q 903 2953 641 2809 
L 641 3341 
Q 956 3463 1253 3523 
Q 1550 3584 1831 3584 
Q 2591 3584 2966 3190 
Q 3341 2797 3341 1997 
z
" transform="scale(0.015625)"/>
       <path id="DejaVuSans-77" d="M 269 3500 
L 844 3500 
L 1563 769 
L 2278 3500 
L 2956 3500 
L 3675 769 
L 4391 3500 
L 4966 3500 
L 4050 0 
L 3372 0 
L 2619 2869 
L 1863 0 
L 1184 0 
L 269 3500 
z
" transform="scale(0.015625)"/>
       <path id="DejaVuSans-64" d="M 2906 2969 
L 2906 4863 
L 3481 4863 
L 3481 0 
L 2906 0 
L 2906 525 
Q 2725 213 2448 61 
Q 2172 -91 1784 -91 
Q 1150 -91 751 415 
Q 353 922 353 1747 
Q 353 2572 751 3078 
Q 1150 3584 1784 3584 
Q 2172 3584 2448 3432 
Q 2725 3281 2906 2969 
z
M 947 1747 
Q 947 1113 1208 752 
Q 1469 391 1925 391 
Q 2381 391 2643 752 
Q 2906 1113 2906 1747 
Q 2906 2381 2643 2742 
Q 2381 3103 1925 3103 
Q 1469 3103 1208 2742 
Q 947 2381 947 1747 
z
" transform="scale(0.015625)"/>
       <path id="DejaVuSans-6e" d="M 3513 2113 
L 3513 0 
L 2938 0 
L 2938 2094 
Q 2938 2591 2744 2837 
Q 2550 3084 2163 3084 
Q 1697 3084 1428 2787 
Q 1159 2491 1159 1978 
L 1159 0 
L 581 0 
L 581 3500 
L 1159 3500 
L 1159 2956 
Q 1366 3272 1645 3428 
Q 1925 3584 2291 3584 
Q 2894 3584 3203 3211 
Q 3513 2838 3513 2113 
z
" transform="scale(0.015625)"/>
       <path id="DejaVuSans-2c" d="M 750 794 
L 1409 794 
L 1409 256 
L 897 -744 
L 494 -744 
L 750 256 
L 750 794 
z
" transform="scale(0.015625)"/>
       <path id="DejaVuSans-20" transform="scale(0.015625)"/>
       <path id="DejaVuSans-25" d="M 4653 2053 
Q 4381 2053 4226 1822 
Q 4072 1591 4072 1178 
Q 4072 772 4226 539 
Q 4381 306 4653 306 
Q 4919 306 5073 539 
Q 5228 772 5228 1178 
Q 5228 1588 5073 1820 
Q 4919 2053 4653 2053 
z
M 4653 2450 
Q 5147 2450 5437 2106 
Q 5728 1763 5728 1178 
Q 5728 594 5436 251 
Q 5144 -91 4653 -91 
Q 4153 -91 3862 251 
Q 3572 594 3572 1178 
Q 3572 1766 3864 2108 
Q 4156 2450 4653 2450 
z
M 1428 4353 
Q 1159 4353 1004 4120 
Q 850 3888 850 3481 
Q 850 3069 1003 2837 
Q 1156 2606 1428 2606 
Q 1700 2606 1854 2837 
Q 2009 3069 2009 3481 
Q 2009 3884 1853 4118 
Q 1697 4353 1428 4353 
z
M 4250 4750 
L 4750 4750 
L 1831 -91 
L 1331 -91 
L 4250 4750 
z
M 1428 4750 
Q 1922 4750 2215 4408 
Q 2509 4066 2509 3481 
Q 2509 2891 2217 2550 
Q 1925 2209 1428 2209 
Q 931 2209 642 2551 
Q 353 2894 353 3481 
Q 353 4063 643 4406 
Q 934 4750 1428 4750 
z
" transform="scale(0.015625)"/>
      </defs>
      <use xlink:href="#DejaVuSans-44"/>
      <use xlink:href="#DejaVuSans-72" transform="translate(77.001953 0)"/>
      <use xlink:href="#DejaVuSans-61" transform="translate(118.115234 0)"/>
      <use xlink:href="#DejaVuSans-77" transform="translate(179.394531 0)"/>
      <use xlink:href="#DejaVuSans-64" transform="translate(261.181641 0)"/>
      <use xlink:href="#DejaVuSans-6f" transform="translate(324.658203 0)"/>
      <use xlink:href="#DejaVuSans-77" transform="translate(385.839844 0)"/>
      <use xlink:href="#DejaVuSans-6e" transform="translate(467.626953 0)"/>
      <use xlink:href="#DejaVuSans-2c" transform="translate(531.005859 0)"/>
      <use xlink:href="#DejaVuSans-20" transform="translate(562.792969 0)"/>
      <use xlink:href="#DejaVuSans-25" transform="translate(594.580078 0)"/>
     </g>
    </g>
   </g>
   <g id="line2d_70">
    <path d="M 58.464119 233.911626 
L 83.158406 233.911626 
L 84.932935 235.374908 
L 86.349576 238.270987 
L 87.83332 233.911626 
L 89.108297 236.163501 
L 89.510921 237.867623 
L 90.189418 234.641964 
L 90.972298 234.88541 
L 92.232363 243.619035 
L 93.089803 239.602176 
L 93.969612 239.967345 
L 94.379692 243.01042 
L 95.714317 244.531958 
L 96.765614 241.184575 
L 97.459022 243.558174 
L 98.935311 233.911626 
L 100.128272 238.776345 
L 100.89624 239.96212 
L 101.41816 236.587222 
L 102.089201 233.911626 
L 102.998833 237.521391 
L 103.744434 233.911626 
L 104.668978 237.696676 
L 105.161075 233.911626 
L 106.473331 240.406155 
L 107.002708 237.639966 
L 108.337332 240.376087 
L 109.246965 236.046402 
L 109.396085 236.136603 
L 110.939478 240.075415 
L 111.975863 244.705773 
L 113.071895 239.895011 
L 113.914424 247.020952 
L 114.026264 246.419607 
L 114.689848 253.846221 
L 116.002105 247.832768 
L 116.971386 241.127769 
L 117.11305 242.961872 
L 118.171802 233.911626 
L 118.768283 233.911626 
L 119.715195 239.420719 
L 120.520444 240.761557 
L 121.705948 233.911626 
L 122.116029 233.911626 
L 123.144957 241.149732 
L 123.405917 241.46694 
L 124.785278 234.603716 
L 125.150622 241.120895 
L 126.119903 234.863249 
L 127.312864 233.911626 
L 127.640928 240.20891 
L 128.058464 236.787098 
L 128.863713 241.675401 
L 130.064129 237.333438 
L 130.981218 242.710571 
L 131.003586 241.905439 
L 132.569347 233.911626 
L 132.763203 246.907272 
L 134.127652 240.3053 
L 134.739044 233.911626 
L 135.700869 237.244508 
L 136.849093 246.715173 
L 137.445574 243.316294 
L 138.690726 251.862991 
L 138.944231 258.495757 
L 139.943335 249.65207 
L 140.562183 249.817064 
L 140.800776 255.756854 
L 143.074857 255.723855 
L 143.283625 246.352186 
L 143.775721 250.246049 
L 144.43185 242.689316 
L 145.237098 242.260331 
L 146.124363 249.289082 
L 146.773035 243.052303 
L 147.973452 252.852956 
L 148.532652 251.796994 
L 149.427373 277.998068 
L 149.844909 265.557507 
L 150.978222 278.22906 
L 151.63435 283.838861 
L 152.543983 268.857391 
L 152.916783 274.335197 
L 153.833871 268.89039 
L 155.16104 270.144345 
L 155.489104 264.501545 
L 156.614961 262.059631 
L 156.987761 266.976457 
L 158.232914 267.999421 
L 158.411858 261.564649 
L 159.589907 271.761288 
L 160.059635 253.644929 
L 160.514451 253.116947 
L 161.647764 269.880355 
L 161.893812 267.273447 
L 162.676693 292.880542 
L 164.197717 295.289457 
L 164.69727 279.879001 
L 165.174454 279.318021 
L 166.203383 306.146073 
L 166.688023 287.336738 
L 167.702039 315.121756 
L 168.052472 308.093004 
L 169.446745 283.739865 
L 170.266905 283.838861 
L 171.124346 291.131604 
L 171.26601 290.603622 
L 172.473882 311.557882 
L 172.675194 303.704159 
L 174.129115 281.660938 
L 174.375163 286.016784 
L 175.344444 278.691043 
L 175.769436 283.574871 
L 176.619421 274.731183 
L 177.842205 280.736971 
L 178.625086 276.216131 
L 178.856222 278.559048 
L 180.325055 290.10864 
L 180.444351 288.3927 
L 181.197407 279.516014 
L 182.099584 279.021032 
L 183.247809 287.138745 
L 183.546049 284.828826 
L 185.014882 275.061172 
L 185.536802 277.668079 
L 186.737219 270.210343 
L 187.527555 279.483015 
L 188.4521 275.886142 
L 189.16042 268.230413 
L 189.667428 273.675221 
L 190.920037 261.828639 
L 191.546342 263.973563 
L 192.523078 257.043808 
L 192.925702 262.422618 
L 194.282695 256.977811 
L 195.758984 266.316481 
L 196.459848 265.458511 
L 197.354569 260.409689 
L 197.980873 259.881708 
L 198.644458 266.415477 
L 199.583914 264.897531 
L 200.210219 270.738324 
L 201.127307 269.220378 
L 201.790892 262.290623 
L 202.178604 264.039699 
L 202.394828 267.603133 
L 204.072429 267.30618 
L 205.07899 256.219941 
L 205.697838 254.537208 
L 206.12283 258.100642 
L 207.047375 252.986454 
L 207.174127 257.209783 
L 208.747344 253.811323 
L 209.381104 257.770694 
L 209.806096 257.308768 
L 210.380209 250.577837 
L 211.498609 252.359554 
L 211.953426 255.889993 
L 213.392434 248.73013 
L 214.167859 261.598086 
L 214.928371 262.653919 
L 215.539764 249.983931 
L 217.038421 253.194489 
L 217.314293 248.851951 
L 218.037525 258.867804 
L 218.92479 249.797504 
L 219.864246 253.229509 
L 220.490551 242.75839 
L 220.520375 244.054148 
L 221.526935 250.848118 
L 222.101048 245.73513 
L 222.764632 256.171228 
L 224.047065 248.78191 
L 224.934329 257.396944 
L 225.776858 260.443725 
L 226.679034 250.673015 
L 227.089115 255.225675 
L 228.170235 247.381092 
L 228.386459 257.431965 
L 229.0575 246.365498 
L 230.198268 243.038554 
L 231.316669 251.02322 
L 231.965341 254.175062 
L 232.561822 244.96468 
L 232.867518 247.381092 
L 233.993375 243.703943 
L 235.395103 250.042647 
L 235.939392 245.104761 
L 235.954304 245.595048 
L 237.490241 237.149676 
L 237.699009 233.911626 
L 238.317857 239.007022 
L 239.182754 233.911626 
L 240.390626 241.817748 
L 240.636674 241.680251 
L 241.113859 233.911626 
L 242.41866 233.911626 
L 243.626532 244.349214 
L 243.730916 233.911626 
L 245.483077 240.234851 
L 245.609829 233.911626 
L 246.772966 233.911626 
L 247.36199 238.697129 
L 248.316359 233.911626 
L 248.808455 238.62193 
L 249.9194 233.980284 
L 250.284744 241.463969 
L 252.446985 235.422094 
L 252.484265 238.923635 
L 253.311882 236.932563 
L 254.407915 243.008766 
L 255.295179 246.304334 
L 255.503947 240.296789 
L 256.793836 243.832658 
L 257.666189 233.911626 
L 259.053005 241.201476 
L 259.515278 238.36083 
L 260.641134 243.186505 
L 260.678414 242.844259 
L 261.826639 249.552289 
L 262.288911 244.042121 
L 263.198544 251.331971 
L 264.21256 249.141594 
L 264.809041 243.699875 
L 265.793233 242.775809 
L 266.501554 248.422876 
L 266.88181 246.506296 
L 268.320819 252.666732 
L 268.380467 251.366196 
L 269.8493 255.644277 
L 270.527796 252.769406 
L 271.258485 261.12022 
L 271.690933 257.013262 
L 272.898806 263.858192 
L 273.390902 264.131989 
L 273.912822 259.443212 
L 274.554038 263.687069 
L 275.814103 258.005777 
L 276.656632 256.671016 
L 277.178552 263.0368 
L 277.640824 260.093481 
L 278.774137 256.294545 
L 280.011834 256.534117 
L 280.54121 258.348024 
L 280.981114 258.313799 
L 282.196443 255.8154 
L 282.263547 255.918074 
L 283.642908 261.804713 
L 284.358684 261.12022 
L 284.873149 256.32877 
L 285.372701 256.944813 
L 286.573118 266.698837 
L 286.96083 265.569424 
L 287.579678 259.169415 
L 288.459487 260.059256 
L 289.495871 256.123422 
L 291.19584 257.595081 
L 291.49408 252.42716 
L 292.329153 254.138392 
L 292.515553 251.811116 
L 293.514658 250.921275 
L 294.528674 257.565593 
L 294.90893 254.818419 
L 295.676899 262.09843 
L 296.638724 259.557294 
L 297.01898 263.12862 
L 297.749668 260.518805 
L 298.696581 265.601076 
L 299.233413 262.853902 
L 300.896102 277.413923 
L 301.544774 270.236932 
L 302.335111 274.323353 
L 303.200007 268.279571 
L 303.878504 268.863345 
L 305.310057 284.419216 
L 305.638121 281.088268 
L 305.891625 285.380727 
L 307.196426 283.732422 
L 308.411754 279.199586 
L 308.941131 278.100716 
L 309.425771 286.376577 
L 310.670924 275.696939 
L 311.588012 292.523378 
L 312.452909 285.895822 
L 313.705518 286.410917 
L 314.145422 294.034324 
L 315.412943 294.480739 
L 315.741007 287.063371 
L 316.807215 293.519229 
L 317.075632 288.16224 
L 318.089648 286.376577 
L 319.036561 291.836585 
L 319.551025 291.081112 
L 320.669426 285.07167 
L 321.124242 285.827142 
L 322.011506 297.193573 
L 322.690003 296.335082 
L 323.800948 291.561867 
L 324.330324 293.999984 
L 324.732948 288.093561 
L 325.582933 291.32149 
L 326.477653 299.563011 
L 327.059221 293.896965 
L 327.924118 282.290156 
L 328.915767 288.711675 
L 329.087255 282.633553 
L 330.138551 281.843741 
L 331.27932 292.420359 
L 332.770521 283.595064 
L 333.441561 283.286007 
L 334.828378 292.420359 
L 336.088443 280.435814 
L 336.505979 281.91242 
L 337.713852 290.943753 
L 337.937532 291.527528 
L 339.488381 285.209028 
L 340.159421 301.279994 
L 341.016862 285.689784 
L 342.515519 304.919999 
L 343.469887 294.4464 
L 343.991807 295.030174 
L 345.527744 295.030174 
L 347.033857 296.227584 
L 347.071137 294.976532 
L 347.287361 296.10553 
L 348.047874 291.833644 
L 349.225923 295.31218 
L 349.389955 290.491051 
L 350.91098 289.636674 
L 351.559652 294.213695 
L 352.275428 293.633939 
L 352.469284 290.277457 
L 353.542949 288.995891 
L 353.885925 292.443914 
L 355.436774 290.12489 
L 355.861766 284.174763 
L 356.391143 287.500731 
L 357.822696 280.085958 
L 358.538472 283.595007 
L 358.754696 280.54366 
L 359.612137 280.074749 
L 360.902025 286.523165 
L 361.297194 283.833624 
L 362.080074 289.731171 
L 363.541451 288.110966 
L 364.048459 293.068793 
L 364.272139 293.716875 
L 365.480012 286.070242 
L 365.778252 288.561523 
L 366.814637 278.564044 
L 367.724269 278.434627 
L 368.074702 283.805441 
L 368.932142 284.484881 
L 369.625551 278.725816 
L 370.244399 279.308193 
L 371.5492 282.67304 
L 372.130768 280.214113 
L 373.271537 286.005533 
L 373.651793 283.837795 
L 374.300465 287.493831 
L 374.949138 287.55854 
L 375.836402 282.252434 
L 376.403059 287.493831 
L 377.484179 295.291217 
L 378.021012 292.508748 
L 379.46002 300.597323 
L 379.631508 302.376809 
L 380.213077 297.588373 
L 381.376213 295.744178 
L 382.554262 300.95322 
L 383.262583 302.182683 
L 383.866519 291.117513 
L 384.306423 297.523664 
L 385.417368 283.028938 
L 386.789273 284.813197 
L 387.169529 277.27477 
L 387.221721 277.510346 
L 388.742746 283.56801 
L 389.398874 289.154522 
L 389.59273 280.976676 
L 390.554555 277.813229 
L 391.605852 281.64975 
L 392.2247 279.159377 
L 392.52294 283.702625 
L 393.395293 280.034373 
L 393.522045 283.231473 
L 395.989982 278.55361 
L 396.303134 284.880504 
L 396.60883 280.438217 
L 396.787775 284.712236 
L 398.38336 290.197787 
L 399.046944 273.707479 
L 399.72544 276.534389 
L 400.262273 280.707447 
L 401.097345 277.140156 
L 402.05917 269.399807 
L 403.341602 268.895002 
L 403.863523 276.500735 
L 404.542019 271.486336 
L 405.317444 279.798797 
L 406.159972 277.342078 
L 406.674436 272.664215 
L 407.330565 275.760354 
L 407.830117 272.530797 
L 409.343686 276.362645 
L 410.305511 269.404815 
L 410.357703 269.84178 
L 411.640135 261.304153 
L 411.901095 265.035163 
L 411.938376 274.648397 
L 413.444488 267.85863 
L 414.950601 277.188095 
L 415.040073 275.486304 
L 416.344874 295.73415 
L 416.859338 289.864706 
L 418.037387 306.153283 
L 418.372907 307.716153 
L 419.267628 299.380847 
L 419.632972 306.813161 
L 421.101805 295.074272 
L 421.474605 298.09582 
L 422.168014 290.038358 
L 422.868878 294.657507 
L 423.763598 301.846708 
L 424.307887 300.110186 
L 425.560496 292.295837 
L 426.11224 292.53895 
L 426.96968 298.929351 
L 427.335025 298.09582 
L 428.028433 315.322119 
L 429.400338 299.380847 
L 430.53365 311.501771 
L 430.787155 296.602411 
L 432.86738 306.70897 
L 433.344564 301.117369 
L 434.149813 309.765249 
L 434.992341 302.124552 
L 435.066901 302.81916 
L 436.476086 311.987997 
L 436.595382 309.383214 
L 437.415543 326.227477 
L 438.474295 325.775982 
L 439.674712 307.716153 
L 440.5918 310.946084 
L 441.031705 299.380847 
L 441.404505 306.049091 
L 442.000985 297.748516 
L 442.768954 299.65869 
L 443.439994 309.383214 
L 444.521115 309.244292 
L 445.214523 299.65869 
L 446.034684 300.908986 
L 446.832476 313.759249 
L 448.577181 313.02991 
L 448.905245 306.049091 
L 449.166205 306.882622 
L 449.598654 320.705337 
L 450.567934 316.95445 
L 451.082399 307.50777 
L 452.260447 309.452675 
L 453.289376 302.992813 
L 453.595072 304.520952 
L 454.527073 300.492221 
L 455.645473 301.360482 
L 456.13757 305.215561 
L 457.718243 303.5485 
L 458.091043 300.075456 
L 458.337091 299.450308 
L 458.859011 303.652691 
L 459.940132 301.603675 
L 460.96906 294.135582 
L 461.923429 297.574378 
L 462.795781 294.205053 
L 463.34007 296.740731 
L 464.473382 291.912522 
L 465.912391 295.455524 
L 466.247912 298.651173 
L 467.440872 295.629201 
L 467.87332 294.934494 
L 468.611465 299.554291 
L 469.640394 295.351318 
L 470.527658 301.881558 
L 470.907914 307.856032 
L 472.033771 300.631086 
L 472.660075 299.554291 
L 473.159628 302.089969 
L 473.636812 300.52688 
L 475.053453 292.746169 
L 475.239853 294.691347 
L 476.134573 287.535872 
L 476.984558 287.709548 
L 478.095503 292.676699 
L 478.363919 291.947257 
L 479.802928 286.424342 
L 480.67528 283.958134 
L 481.331408 291.217815 
L 481.458161 290.210491 
L 482.554193 296.844937 
L 483.292338 297.574378 
L 483.918642 294.760818 
L 484.440562 296.532319 
L 484.76117 299.311144 
L 486.602804 299.554291 
L 487.340948 296.567054 
L 487.967252 300.561616 
L 489.510645 296.705995 
L 490.502294 303.583588 
L 490.62159 303.305706 
L 491.971127 292.537757 
L 492.970231 293.961905 
L 493.313207 289.272638 
L 493.976792 293.961905 
L 494.70748 288.195843 
L 495.743865 294.621876 
L 496.74297 290.349432 
L 496.914458 291.322021 
L 498.204346 277.427895 
L 499.770107 280.355191 
L 499.911771 272.763561 
L 500.538076 284.075089 
L 502.484093 273.940264 
L 502.946365 278.760949 
L 502.961277 278.153618 
L 504.482302 285.327708 
L 505.511231 285.403624 
L 505.928767 274.43372 
L 507.039712 281.455977 
L 507.382688 268.777956 
L 507.740576 268.853872 
L 509.008097 273.940264 
L 509.142305 273.978222 
L 510.417282 264.488685 
L 511.640066 267.639211 
L 512.132163 263.919313 
L 512.900131 267.107797 
L 513.683012 263.843397 
L 513.876868 266.120886 
L 515.241316 260.237373 
L 515.696133 260.161456 
L 516.844357 262.666694 
L 516.918917 261.11041 
L 518.029862 266.012651 
L 518.864935 263.543613 
L 519.647815 266.126606 
L 520.124999 266.696384 
L 520.549992 262.176145 
L 521.481992 265.708769 
L 522.853897 246.640199 
L 523.167049 245.234746 
L 523.681513 268.329748 
L 525.977963 246.361173 
L 526.089803 241.370003 
L 526.432779 241.615471 
L 527.528812 258.552719 
L 527.819596 253.92975 
L 529.169133 267.144076 
L 529.482285 262.562019 
L 530.026573 270.907909 
L 530.749806 268.698703 
L 531.361198 262.807486 
L 532.345391 265.221249 
L 533.299759 258.511807 
L 534.813328 260.680103 
L 535.514192 269.885129 
L 536.244881 256.875358 
L 537.303633 264.075734 
L 537.601874 248.161267 
L 538.720274 259.002742 
L 539.070706 245.911149 
L 540.211475 253.193348 
L 541.411892 239.61082 
L 541.903988 237.769815 
L 542.44082 245.992972 
L 543.171509 242.065494 
L 544.140789 234.619651 
L 544.69999 233.911626 
L 545.63199 240.854096 
L 546.854775 233.911626 
L 547.6302 239.91738 
L 547.913528 237.604353 
L 548.905176 242.352146 
L 549.568761 236.062335 
L 550.329273 242.960837 
L 551.477498 233.911626 
L 552.215642 244.602084 
L 552.521338 233.911626 
L 553.416059 246.037883 
L 553.930523 233.991142 
L 555.108572 244.049972 
L 555.623036 241.107864 
L 556.637053 234.507999 
L 557.188797 233.911626 
L 557.867294 238.478025 
L 558.54579 234.149873 
L 560.283039 243.362088 
L 561.013727 235.102861 
L 561.610208 236.174972 
L 563.004481 244.553322 
L 563.317633 242.925301 
L 564.219809 235.619062 
L 564.935586 242.607639 
L 566.024162 233.911626 
L 567.373699 246.364342 
L 567.783779 245.217901 
L 569.394276 255.693996 
L 570.855653 246.878263 
L 571.42231 247.431717 
L 571.728006 240.355412 
L 572.063526 242.015774 
L 572.063526 242.015774 
" clip-path="url(#pd3a0f7e753)" style="fill: none; stroke: #7a738c; stroke-width: 1.5; stroke-linecap: square"/>
   </g>
   <g id="patch_13">
    <path d="M 53.328125 330.84327 
L 53.328125 229.295833 
" style="fill: none; stroke: #000000; stroke-width: 0.8; stroke-linejoin: miter; stroke-linecap: square"/>
   </g>
   <g id="patch_14">
    <path d="M 577.19952 330.84327 
L 577.19952 229.295833 
" style="fill: none; stroke: #000000; stroke-width: 0.8; stroke-linejoin: miter; stroke-linecap: square"/>
   </g>
   <g id="patch_15">
    <path d="M 53.328125 330.84327 
L 577.19952 330.84327 
" style="fill: none; stroke: #000000; stroke-width: 0.8; stroke-linejoin: miter; stroke-linecap: square"/>
   </g>
   <g id="patch_16">
    <path d="M 53.328125 229.295833 
L 577.19952 229.295833 
" style="fill: none; stroke: #000000; stroke-width: 0.8; stroke-linejoin: miter; stroke-linecap: square"/>
   </g>
  </g>
 </g>
 <defs>
  <clipPath id="p9649925924">
   <rect x="53.328125" y="7.2" width="523.871395" height="101.547437"/>
  </clipPath>
  <clipPath id="p4a9eaa82db">
   <rect x="53.328125" y="118.247917" width="523.871395" height="101.547437"/>
  </clipPath>
  <clipPath id="pd3a0f7e753">
   <rect x="53.328125" y="229.295833" width="523.871395" height="101.547437"/>
  </clipPath>
 </defs>
</svg>
