<?xml version="1.0" encoding="utf-8" standalone="no"?>
<!DOCTYPE svg PUBLIC "-//W3C//DTD SVG 1.1//EN"
  "http://www.w3.org/Graphics/SVG/1.1/DTD/svg11.dtd">
<svg xmlns:xlink="http://www.w3.org/1999/xlink"   viewBox="0 0 584.39952 368.39952" xmlns="http://www.w3.org/2000/svg" version="1.1" preserveAspectRatio="xMidYMid meet" style="width:100%;height:auto;aspect-ratio:8 / 5;display:block;">
 <metadata>
  <rdf:RDF xmlns:dc="http://purl.org/dc/elements/1.1/" xmlns:cc="http://creativecommons.org/ns#" xmlns:rdf="http://www.w3.org/1999/02/22-rdf-syntax-ns#">
   <cc:Work>
    <dc:type rdf:resource="http://purl.org/dc/dcmitype/StillImage"/>
    <dc:date>2025-11-20T08:36:52.385786</dc:date>
    <dc:format>image/svg+xml</dc:format>
    <dc:creator>
     <cc:Agent>
      <dc:title>Matplotlib v3.10.7, https://matplotlib.org/</dc:title>
     </cc:Agent>
    </dc:creator>
   </cc:Work>
  </rdf:RDF>
 </metadata>
 <defs>
  <style type="text/css">*{stroke-linejoin: round; stroke-linecap: butt}</style>
 </defs>
 <g id="figure_1">
  <g id="patch_1">
   <path d="M 0 368.39952 
L 584.39952 368.39952 
L 584.39952 0 
L 0 0 
z
" style="fill: #ffffff"/>
  </g>
  <g id="axes_1">
   <g id="patch_2">
    <path d="M 53.328125 108.747437 
L 577.19952 108.747437 
L 577.19952 7.2 
L 53.328125 7.2 
z
" style="fill: #ffffff"/>
   </g>
   <g id="matplotlib.axis_1">
    <g id="xtick_1">
     <g id="line2d_1">
      <defs>
       <path id="m46b746a61d" d="M 0 0 
L 0 3.5 
" style="stroke: #000000; stroke-width: 0.8"/>
      </defs>
      <g>
       <use xlink:href="#m46b746a61d" x="58.462822" y="108.747437" style="stroke: #000000; stroke-width: 0.8"/>
      </g>
     </g>
    </g>
    <g id="xtick_2">
     <g id="line2d_2">
      <g>
       <use xlink:href="#m46b746a61d" x="86.471465" y="108.747437" style="stroke: #000000; stroke-width: 0.8"/>
      </g>
     </g>
    </g>
    <g id="xtick_3">
     <g id="line2d_3">
      <g>
       <use xlink:href="#m46b746a61d" x="114.480108" y="108.747437" style="stroke: #000000; stroke-width: 0.8"/>
      </g>
     </g>
    </g>
    <g id="xtick_4">
     <g id="line2d_4">
      <g>
       <use xlink:href="#m46b746a61d" x="142.48875" y="108.747437" style="stroke: #000000; stroke-width: 0.8"/>
      </g>
     </g>
    </g>
    <g id="xtick_5">
     <g id="line2d_5">
      <g>
       <use xlink:href="#m46b746a61d" x="170.497393" y="108.747437" style="stroke: #000000; stroke-width: 0.8"/>
      </g>
     </g>
    </g>
    <g id="xtick_6">
     <g id="line2d_6">
      <g>
       <use xlink:href="#m46b746a61d" x="198.506035" y="108.747437" style="stroke: #000000; stroke-width: 0.8"/>
      </g>
     </g>
    </g>
    <g id="xtick_7">
     <g id="line2d_7">
      <g>
       <use xlink:href="#m46b746a61d" x="226.514678" y="108.747437" style="stroke: #000000; stroke-width: 0.8"/>
      </g>
     </g>
    </g>
    <g id="xtick_8">
     <g id="line2d_8">
      <g>
       <use xlink:href="#m46b746a61d" x="254.523321" y="108.747437" style="stroke: #000000; stroke-width: 0.8"/>
      </g>
     </g>
    </g>
    <g id="xtick_9">
     <g id="line2d_9">
      <g>
       <use xlink:href="#m46b746a61d" x="282.531963" y="108.747437" style="stroke: #000000; stroke-width: 0.8"/>
      </g>
     </g>
    </g>
    <g id="xtick_10">
     <g id="line2d_10">
      <g>
       <use xlink:href="#m46b746a61d" x="310.540606" y="108.747437" style="stroke: #000000; stroke-width: 0.8"/>
      </g>
     </g>
    </g>
    <g id="xtick_11">
     <g id="line2d_11">
      <g>
       <use xlink:href="#m46b746a61d" x="338.549248" y="108.747437" style="stroke: #000000; stroke-width: 0.8"/>
      </g>
     </g>
    </g>
    <g id="xtick_12">
     <g id="line2d_12">
      <g>
       <use xlink:href="#m46b746a61d" x="366.557891" y="108.747437" style="stroke: #000000; stroke-width: 0.8"/>
      </g>
     </g>
    </g>
    <g id="xtick_13">
     <g id="line2d_13">
      <g>
       <use xlink:href="#m46b746a61d" x="394.566534" y="108.747437" style="stroke: #000000; stroke-width: 0.8"/>
      </g>
     </g>
    </g>
    <g id="xtick_14">
     <g id="line2d_14">
      <g>
       <use xlink:href="#m46b746a61d" x="422.575176" y="108.747437" style="stroke: #000000; stroke-width: 0.8"/>
      </g>
     </g>
    </g>
    <g id="xtick_15">
     <g id="line2d_15">
      <g>
       <use xlink:href="#m46b746a61d" x="450.583819" y="108.747437" style="stroke: #000000; stroke-width: 0.8"/>
      </g>
     </g>
    </g>
    <g id="xtick_16">
     <g id="line2d_16">
      <g>
       <use xlink:href="#m46b746a61d" x="478.592461" y="108.747437" style="stroke: #000000; stroke-width: 0.8"/>
      </g>
     </g>
    </g>
    <g id="xtick_17">
     <g id="line2d_17">
      <g>
       <use xlink:href="#m46b746a61d" x="506.601104" y="108.747437" style="stroke: #000000; stroke-width: 0.8"/>
      </g>
     </g>
    </g>
    <g id="xtick_18">
     <g id="line2d_18">
      <g>
       <use xlink:href="#m46b746a61d" x="534.609747" y="108.747437" style="stroke: #000000; stroke-width: 0.8"/>
      </g>
     </g>
    </g>
    <g id="xtick_19">
     <g id="line2d_19">
      <g>
       <use xlink:href="#m46b746a61d" x="562.618389" y="108.747437" style="stroke: #000000; stroke-width: 0.8"/>
      </g>
     </g>
    </g>
   </g>
   <g id="matplotlib.axis_2">
    <g id="ytick_1">
     <g id="line2d_20">
      <defs>
       <path id="ma2e1c59fff" d="M 0 0 
L -3.5 0 
" style="stroke: #000000; stroke-width: 0.8"/>
      </defs>
      <g>
       <use xlink:href="#ma2e1c59fff" x="53.328125" y="86.931647" style="stroke: #000000; stroke-width: 0.8"/>
      </g>
     </g>
     <g id="text_1">
      <!-- 140 -->
      <g transform="translate(27.240625 90.730865) scale(0.1 -0.1)">
       <defs>
        <path id="DejaVuSans-31" d="M 794 531 
L 1825 531 
L 1825 4091 
L 703 3866 
L 703 4441 
L 1819 4666 
L 2450 4666 
L 2450 531 
L 3481 531 
L 3481 0 
L 794 0 
L 794 531 
z
" transform="scale(0.015625)"/>
        <path id="DejaVuSans-34" d="M 2419 4116 
L 825 1625 
L 2419 1625 
L 2419 4116 
z
M 2253 4666 
L 3047 4666 
L 3047 1625 
L 3713 1625 
L 3713 1100 
L 3047 1100 
L 3047 0 
L 2419 0 
L 2419 1100 
L 313 1100 
L 313 1709 
L 2253 4666 
z
" transform="scale(0.015625)"/>
        <path id="DejaVuSans-30" d="M 2034 4250 
Q 1547 4250 1301 3770 
Q 1056 3291 1056 2328 
Q 1056 1369 1301 889 
Q 1547 409 2034 409 
Q 2525 409 2770 889 
Q 3016 1369 3016 2328 
Q 3016 3291 2770 3770 
Q 2525 4250 2034 4250 
z
M 2034 4750 
Q 2819 4750 3233 4129 
Q 3647 3509 3647 2328 
Q 3647 1150 3233 529 
Q 2819 -91 2034 -91 
Q 1250 -91 836 529 
Q 422 1150 422 2328 
Q 422 3509 836 4129 
Q 1250 4750 2034 4750 
z
" transform="scale(0.015625)"/>
       </defs>
       <use xlink:href="#DejaVuSans-31"/>
       <use xlink:href="#DejaVuSans-34" transform="translate(63.623047 0)"/>
       <use xlink:href="#DejaVuSans-30" transform="translate(127.246094 0)"/>
      </g>
     </g>
    </g>
    <g id="ytick_2">
     <g id="line2d_21">
      <g>
       <use xlink:href="#ma2e1c59fff" x="53.328125" y="56.272114" style="stroke: #000000; stroke-width: 0.8"/>
      </g>
     </g>
     <g id="text_2">
      <!-- 160 -->
      <g transform="translate(27.240625 60.071333) scale(0.1 -0.1)">
       <defs>
        <path id="DejaVuSans-36" d="M 2113 2584 
Q 1688 2584 1439 2293 
Q 1191 2003 1191 1497 
Q 1191 994 1439 701 
Q 1688 409 2113 409 
Q 2538 409 2786 701 
Q 3034 994 3034 1497 
Q 3034 2003 2786 2293 
Q 2538 2584 2113 2584 
z
M 3366 4563 
L 3366 3988 
Q 3128 4100 2886 4159 
Q 2644 4219 2406 4219 
Q 1781 4219 1451 3797 
Q 1122 3375 1075 2522 
Q 1259 2794 1537 2939 
Q 1816 3084 2150 3084 
Q 2853 3084 3261 2657 
Q 3669 2231 3669 1497 
Q 3669 778 3244 343 
Q 2819 -91 2113 -91 
Q 1303 -91 875 529 
Q 447 1150 447 2328 
Q 447 3434 972 4092 
Q 1497 4750 2381 4750 
Q 2619 4750 2861 4703 
Q 3103 4656 3366 4563 
z
" transform="scale(0.015625)"/>
       </defs>
       <use xlink:href="#DejaVuSans-31"/>
       <use xlink:href="#DejaVuSans-36" transform="translate(63.623047 0)"/>
       <use xlink:href="#DejaVuSans-30" transform="translate(127.246094 0)"/>
      </g>
     </g>
    </g>
    <g id="ytick_3">
     <g id="line2d_22">
      <g>
       <use xlink:href="#ma2e1c59fff" x="53.328125" y="25.612582" style="stroke: #000000; stroke-width: 0.8"/>
      </g>
     </g>
     <g id="text_3">
      <!-- 180 -->
      <g transform="translate(27.240625 29.411801) scale(0.1 -0.1)">
       <defs>
        <path id="DejaVuSans-38" d="M 2034 2216 
Q 1584 2216 1326 1975 
Q 1069 1734 1069 1313 
Q 1069 891 1326 650 
Q 1584 409 2034 409 
Q 2484 409 2743 651 
Q 3003 894 3003 1313 
Q 3003 1734 2745 1975 
Q 2488 2216 2034 2216 
z
M 1403 2484 
Q 997 2584 770 2862 
Q 544 3141 544 3541 
Q 544 4100 942 4425 
Q 1341 4750 2034 4750 
Q 2731 4750 3128 4425 
Q 3525 4100 3525 3541 
Q 3525 3141 3298 2862 
Q 3072 2584 2669 2484 
Q 3125 2378 3379 2068 
Q 3634 1759 3634 1313 
Q 3634 634 3220 271 
Q 2806 -91 2034 -91 
Q 1263 -91 848 271 
Q 434 634 434 1313 
Q 434 1759 690 2068 
Q 947 2378 1403 2484 
z
M 1172 3481 
Q 1172 3119 1398 2916 
Q 1625 2713 2034 2713 
Q 2441 2713 2670 2916 
Q 2900 3119 2900 3481 
Q 2900 3844 2670 4047 
Q 2441 4250 2034 4250 
Q 1625 4250 1398 4047 
Q 1172 3844 1172 3481 
z
" transform="scale(0.015625)"/>
       </defs>
       <use xlink:href="#DejaVuSans-31"/>
       <use xlink:href="#DejaVuSans-38" transform="translate(63.623047 0)"/>
       <use xlink:href="#DejaVuSans-30" transform="translate(127.246094 0)"/>
      </g>
     </g>
    </g>
    <g id="text_4">
     <!-- Price -->
     <g transform="translate(14.798438 70.171375) rotate(-90) scale(0.1 -0.1)">
      <defs>
       <path id="DejaVuSans-50" d="M 1259 4147 
L 1259 2394 
L 2053 2394 
Q 2494 2394 2734 2622 
Q 2975 2850 2975 3272 
Q 2975 3691 2734 3919 
Q 2494 4147 2053 4147 
L 1259 4147 
z
M 628 4666 
L 2053 4666 
Q 2838 4666 3239 4311 
Q 3641 3956 3641 3272 
Q 3641 2581 3239 2228 
Q 2838 1875 2053 1875 
L 1259 1875 
L 1259 0 
L 628 0 
L 628 4666 
z
" transform="scale(0.015625)"/>
       <path id="DejaVuSans-72" d="M 2631 2963 
Q 2534 3019 2420 3045 
Q 2306 3072 2169 3072 
Q 1681 3072 1420 2755 
Q 1159 2438 1159 1844 
L 1159 0 
L 581 0 
L 581 3500 
L 1159 3500 
L 1159 2956 
Q 1341 3275 1631 3429 
Q 1922 3584 2338 3584 
Q 2397 3584 2469 3576 
Q 2541 3569 2628 3553 
L 2631 2963 
z
" transform="scale(0.015625)"/>
       <path id="DejaVuSans-69" d="M 603 3500 
L 1178 3500 
L 1178 0 
L 603 0 
L 603 3500 
z
M 603 4863 
L 1178 4863 
L 1178 4134 
L 603 4134 
L 603 4863 
z
" transform="scale(0.015625)"/>
       <path id="DejaVuSans-63" d="M 3122 3366 
L 3122 2828 
Q 2878 2963 2633 3030 
Q 2388 3097 2138 3097 
Q 1578 3097 1268 2742 
Q 959 2388 959 1747 
Q 959 1106 1268 751 
Q 1578 397 2138 397 
Q 2388 397 2633 464 
Q 2878 531 3122 666 
L 3122 134 
Q 2881 22 2623 -34 
Q 2366 -91 2075 -91 
Q 1284 -91 818 406 
Q 353 903 353 1747 
Q 353 2603 823 3093 
Q 1294 3584 2113 3584 
Q 2378 3584 2631 3529 
Q 2884 3475 3122 3366 
z
" transform="scale(0.015625)"/>
       <path id="DejaVuSans-65" d="M 3597 1894 
L 3597 1613 
L 953 1613 
Q 991 1019 1311 708 
Q 1631 397 2203 397 
Q 2534 397 2845 478 
Q 3156 559 3463 722 
L 3463 178 
Q 3153 47 2828 -22 
Q 2503 -91 2169 -91 
Q 1331 -91 842 396 
Q 353 884 353 1716 
Q 353 2575 817 3079 
Q 1281 3584 2069 3584 
Q 2775 3584 3186 3129 
Q 3597 2675 3597 1894 
z
M 3022 2063 
Q 3016 2534 2758 2815 
Q 2500 3097 2075 3097 
Q 1594 3097 1305 2825 
Q 1016 2553 972 2059 
L 3022 2063 
z
" transform="scale(0.015625)"/>
      </defs>
      <use xlink:href="#DejaVuSans-50"/>
      <use xlink:href="#DejaVuSans-72" transform="translate(58.552734 0)"/>
      <use xlink:href="#DejaVuSans-69" transform="translate(99.666016 0)"/>
      <use xlink:href="#DejaVuSans-63" transform="translate(127.449219 0)"/>
      <use xlink:href="#DejaVuSans-65" transform="translate(182.429688 0)"/>
     </g>
    </g>
   </g>
   <g id="line2d_23">
    <path d="M 58.464119 14.713118 
L 58.911479 16.430052 
L 59.783832 14.421853 
L 60.275928 14.559821 
L 60.932057 17.150551 
L 61.558361 16.997254 
L 62.803514 14.467842 
L 63.317978 14.345204 
L 63.489466 16.000819 
L 64.764443 15.081033 
L 66.330204 17.947699 
L 67.150364 16.200106 
L 68.074909 16.981924 
L 69.051645 15.663564 
L 69.275325 15.617575 
L 70.401182 17.641104 
L 70.863454 17.135221 
L 71.445023 15.678894 
L 72.384479 16.59868 
L 72.854208 15.648234 
L 73.905504 15.90884 
L 75.150657 19.710622 
L 75.441441 18.990123 
L 75.657665 17.579785 
L 76.984834 18.192975 
L 83.158406 18.192975 
L 83.889094 16.659999 
L 84.932935 17.303849 
L 86.349576 15.847521 
L 87.654376 17.917039 
L 88.422345 17.273189 
L 88.593833 18.54556 
L 89.510921 16.55269 
L 90.189418 18.177646 
L 90.972298 18.055007 
L 92.232363 13.655365 
L 93.089803 15.678894 
L 93.969612 15.494936 
L 94.379692 13.96196 
L 95.714317 13.195472 
L 96.765614 14.881746 
L 97.459022 13.686024 
L 98.935311 18.790836 
L 100.128272 16.338074 
L 100.89624 15.740213 
L 101.41816 17.441817 
L 101.701489 17.319179 
L 102.111569 19.450016 
L 103.75189 19.955898 
L 104.668978 18.039678 
L 104.765906 18.131656 
L 105.466771 21.979428 
L 106.473331 18.668198 
L 107.002708 20.078537 
L 108.337332 18.683528 
L 109.246965 20.891014 
L 109.396085 20.845025 
L 110.939478 18.836825 
L 111.975863 16.476041 
L 113.071895 18.928804 
L 113.914424 15.295649 
L 114.026264 15.602245 
L 114.689848 11.815793 
L 116.002105 14.881746 
L 116.971386 18.300284 
L 117.11305 17.365168 
L 118.626619 26.471049 
L 118.656443 25.489944 
L 119.305115 31.039319 
L 120.520444 27.436824 
L 121.72086 32.112403 
L 122.436637 34.24324 
L 123.144957 30.395469 
L 123.405917 30.226842 
L 124.785278 33.875326 
L 125.150622 30.410799 
L 126.119903 33.737358 
L 127.312864 35.101707 
L 127.640928 31.744489 
L 128.058464 33.568731 
L 128.863713 30.96267 
L 130.064129 33.277465 
L 130.981218 30.410799 
L 131.003586 30.840032 
L 132.539523 42.214719 
L 132.546979 41.034327 
L 132.643907 48.438604 
L 134.127652 43.855004 
L 134.7465 39.608659 
L 135.700869 41.156965 
L 136.849093 45.556608 
L 137.445574 43.977642 
L 138.690726 47.948051 
L 138.944231 51.029334 
L 139.943335 46.920957 
L 140.562183 46.997606 
L 140.800776 49.756964 
L 143.074857 49.741634 
L 143.283625 45.38798 
L 143.775721 47.196893 
L 144.43185 43.686376 
L 145.237098 43.487089 
L 146.124363 46.75233 
L 146.773035 43.855004 
L 147.973452 48.407944 
L 148.532652 47.917392 
L 149.427373 60.089226 
L 149.844909 54.309904 
L 150.978222 60.196534 
L 151.63435 62.802595 
L 152.543983 55.842881 
L 152.916783 58.387622 
L 153.833871 55.858211 
L 155.16104 56.440742 
L 155.489104 53.819352 
L 156.614961 52.684949 
L 156.987761 54.969084 
L 158.232914 55.444307 
L 158.411858 52.455003 
L 159.589907 57.1919 
L 160.059635 48.775859 
L 160.514451 48.530582 
L 161.647764 56.318104 
L 161.893812 55.107052 
L 162.676693 67.002951 
L 164.197717 68.122023 
L 164.69727 60.963023 
L 165.174454 60.702417 
L 166.203383 73.165517 
L 166.688023 64.42755 
L 167.702039 77.335213 
L 168.052472 74.069973 
L 169.446745 62.756605 
L 170.266905 62.802595 
L 171.124346 66.190473 
L 171.26601 65.945197 
L 172.473882 75.679598 
L 172.675194 72.031114 
L 174.129115 61.79083 
L 174.375163 63.814359 
L 175.344444 60.411151 
L 175.769436 62.679957 
L 176.619421 58.571579 
L 177.842205 61.361597 
L 178.625086 59.261419 
L 178.856222 60.349832 
L 180.325055 65.71525 
L 180.444351 64.918102 
L 181.197407 60.794395 
L 182.099584 60.564449 
L 183.247809 64.335571 
L 183.546049 63.262488 
L 185.014882 58.724877 
L 185.536802 59.935928 
L 186.737219 56.471401 
L 187.527555 60.779066 
L 188.4521 59.108121 
L 189.16042 55.551615 
L 189.667428 58.081027 
L 190.920037 52.577641 
L 191.546342 53.574075 
L 192.523078 50.354825 
L 192.925702 52.853576 
L 194.282695 50.324165 
L 195.758984 54.662489 
L 196.459848 54.263915 
L 197.354569 51.918461 
L 197.980873 51.673184 
L 198.644458 54.708478 
L 199.583914 54.003309 
L 200.210219 56.716678 
L 201.127307 56.011508 
L 201.790892 52.792257 
L 202.029484 53.804022 
L 202.394828 51.94912 
L 204.072429 52.087088 
L 205.07899 57.23789 
L 205.697838 58.019708 
L 206.12283 56.364093 
L 207.047375 58.740207 
L 207.174127 56.777997 
L 208.747344 58.356962 
L 209.381104 56.517391 
L 209.806096 56.732007 
L 210.380209 59.85928 
L 211.498609 59.031472 
L 211.953426 57.391187 
L 213.392434 60.717746 
L 214.167859 54.739138 
L 214.928371 54.248585 
L 215.539764 60.135215 
L 216.464308 58.019708 
L 216.956405 63.216498 
L 218.037525 65.653931 
L 218.92479 61.683522 
L 219.864246 63.185839 
L 220.490551 58.602239 
L 220.520375 59.16944 
L 221.526935 62.143415 
L 222.101048 59.905269 
L 222.764632 64.473539 
L 224.047065 61.238959 
L 224.934329 65.010081 
L 225.776858 66.343771 
L 226.679034 62.066766 
L 227.089115 64.059635 
L 228.170235 60.625768 
L 228.386459 65.025411 
L 229.0575 60.181205 
L 230.198268 58.724877 
L 231.316669 62.220064 
L 231.965341 63.599742 
L 232.561822 59.568014 
L 232.867518 60.625768 
L 233.993375 59.016142 
L 235.395103 61.79083 
L 235.939392 59.629333 
L 236.163072 59.276748 
L 237.490241 62.833254 
L 237.497697 62.741276 
L 238.556449 65.255357 
L 239.07837 63.722381 
L 239.659938 68.949831 
L 240.636674 65.485304 
L 241.598499 70.237531 
L 242.75418 67.186908 
L 243.626532 71.525232 
L 243.671268 70.528797 
L 245.125189 62.327372 
L 245.483077 65.010081 
L 246.69095 57.007943 
L 246.758054 57.621134 
L 248.107591 52.546981 
L 248.808455 54.064628 
L 249.598792 49.756964 
L 249.9194 49.787623 
L 250.284744 53.129512 
L 252.446985 50.431473 
L 252.484265 51.99511 
L 253.311882 51.105983 
L 254.407915 53.819352 
L 255.295179 55.291009 
L 255.503947 52.6083 
L 256.793836 54.187266 
L 257.554348 50.584771 
L 258.143373 48.990475 
L 259.053005 52.255716 
L 259.515278 50.983345 
L 260.641134 53.144842 
L 260.678414 52.991544 
L 261.826639 55.996179 
L 262.288911 53.528086 
L 263.198544 56.793326 
L 264.21256 55.812221 
L 264.809041 53.374789 
L 265.793233 52.960885 
L 266.501554 55.490296 
L 266.88181 54.631829 
L 268.320819 57.391187 
L 268.380467 56.808656 
L 269.8493 58.724877 
L 270.527796 57.437177 
L 271.258485 61.177639 
L 271.690933 59.338068 
L 272.898806 62.404021 
L 273.390902 62.526659 
L 273.912822 60.426481 
L 274.554038 62.327372 
L 275.814103 59.782631 
L 276.656632 59.18477 
L 277.178552 62.036106 
L 277.640824 60.717746 
L 278.774137 59.016142 
L 280.011834 59.123451 
L 280.54121 59.935928 
L 280.981114 59.920599 
L 282.263547 58.847515 
L 283.642908 61.484235 
L 284.358684 61.177639 
L 284.873149 59.031472 
L 285.372701 59.307408 
L 286.573118 63.676391 
L 286.96083 63.170509 
L 287.579678 60.303843 
L 288.459487 60.702417 
L 289.495871 58.939494 
L 291.19584 59.598674 
L 291.49408 57.283879 
L 292.329153 58.050367 
L 292.515553 57.007943 
L 293.514658 56.609369 
L 294.565954 60.119886 
L 294.90893 60.395821 
L 295.676899 57.145911 
L 296.638724 58.280314 
L 297.01898 56.686018 
L 297.749668 57.85108 
L 298.696581 55.582275 
L 299.233413 56.808656 
L 300.896102 50.308835 
L 301.544774 53.512756 
L 302.335111 51.688514 
L 303.200007 54.386553 
L 303.878504 54.125947 
L 305.310057 47.181563 
L 305.638121 48.66855 
L 305.891625 46.75233 
L 307.196426 47.488158 
L 308.411754 49.511687 
L 308.941131 50.00224 
L 309.425771 46.307766 
L 310.670924 51.075324 
L 311.588012 43.563738 
L 312.452909 46.522383 
L 313.705518 46.292437 
L 314.145422 42.889228 
L 315.412943 42.689942 
L 315.741007 46.001171 
L 316.807215 43.119175 
L 317.075632 45.510618 
L 318.089648 46.307766 
L 319.036561 43.870334 
L 319.551025 44.207588 
L 320.669426 46.890297 
L 321.124242 46.553043 
L 322.011506 41.47889 
L 322.690003 41.862134 
L 323.800948 43.992972 
L 324.330324 42.904558 
L 324.732948 45.541278 
L 325.582933 44.10028 
L 326.477653 40.421136 
L 327.059221 42.950548 
L 327.924118 48.132008 
L 328.915767 45.265342 
L 329.087255 47.978711 
L 330.138551 48.331295 
L 331.27932 43.609727 
L 332.770521 47.549477 
L 333.441561 47.687445 
L 334.828378 43.609727 
L 336.088443 48.959816 
L 336.505979 48.300636 
L 337.713852 44.268907 
L 337.937532 44.008301 
L 339.488381 46.828978 
L 340.159421 39.654648 
L 341.016862 46.614362 
L 342.515519 38.029693 
L 343.991807 43.563738 
L 344.647936 48.530582 
L 345.5352 48.132008 
L 345.743968 50.600101 
L 347.287361 48.438604 
L 348.047874 50.584771 
L 349.225923 48.837178 
L 349.389955 51.259281 
L 350.91098 51.688514 
L 351.559652 49.389049 
L 352.275428 49.680315 
L 352.469284 51.366589 
L 353.542949 52.010439 
L 353.885925 50.278176 
L 355.436774 51.443238 
L 355.861766 54.432542 
L 356.391143 52.761598 
L 357.822696 56.486731 
L 358.538472 54.723808 
L 359.202056 58.52559 
L 359.612137 56.640029 
L 360.902025 59.690652 
L 361.297194 58.418282 
L 362.080074 61.208299 
L 363.541451 60.441811 
L 364.048459 62.787265 
L 364.272139 63.09386 
L 365.330892 60.625768 
L 365.778252 61.208299 
L 366.814637 65.945197 
L 367.724269 66.006516 
L 368.074702 63.461775 
L 368.932142 63.13985 
L 369.625551 65.868548 
L 370.244399 65.592612 
L 371.5492 63.998316 
L 372.130768 65.163379 
L 373.271537 62.419351 
L 373.651793 63.446445 
L 374.300465 61.714181 
L 374.949138 61.683522 
L 375.836402 64.197603 
L 376.403059 61.714181 
L 377.484179 58.019708 
L 378.021012 59.338068 
L 379.46002 55.505626 
L 379.631508 54.662489 
L 380.213077 56.931294 
L 381.376213 57.805091 
L 382.554262 55.336999 
L 383.262583 54.754467 
L 383.866519 59.997247 
L 384.306423 56.961954 
L 385.521752 67.67746 
L 385.790168 68.290651 
L 387.169529 64.458209 
L 387.221721 64.565518 
L 388.742746 67.324876 
L 389.398874 69.869617 
L 389.59273 66.144484 
L 390.554555 64.703486 
L 391.605852 66.451079 
L 392.2247 65.316676 
L 392.52294 67.386195 
L 393.395293 65.71525 
L 393.522045 67.171578 
L 395.989982 65.040741 
L 396.303134 67.922737 
L 396.60883 65.899207 
L 396.787775 67.846088 
L 398.38336 70.34484 
L 399.046944 62.833254 
L 399.72544 64.120955 
L 400.262273 66.021846 
L 401.097345 64.39689 
L 402.05917 60.871044 
L 403.341602 60.641098 
L 403.863523 64.105625 
L 404.542019 61.82149 
L 405.317444 65.607942 
L 406.159972 64.488869 
L 406.674436 62.358031 
L 407.330565 63.76837 
L 408.583174 61.729511 
L 409.343686 61.055001 
L 410.305511 64.228263 
L 410.357703 64.028976 
L 411.640135 67.922737 
L 411.938376 61.836819 
L 413.138792 67.769439 
L 413.444488 66.727015 
L 414.950601 71.770508 
L 415.040073 71.019349 
L 416.344874 79.956603 
L 416.859338 77.365872 
L 418.037387 84.555533 
L 418.372907 85.245372 
L 419.267628 81.566228 
L 419.632972 84.846798 
L 421.101805 79.665337 
L 421.474605 80.999027 
L 422.168014 77.442521 
L 422.868878 79.48138 
L 423.763598 82.654642 
L 424.307887 81.888153 
L 425.560496 78.438956 
L 426.11224 78.546264 
L 426.96968 81.366941 
L 427.335025 80.999027 
L 428.028433 88.602591 
L 429.400338 81.566228 
L 430.53365 86.916317 
L 430.787155 80.339847 
L 432.86738 84.800809 
L 433.344564 82.332717 
L 434.149813 86.149828 
L 434.992341 82.77728 
L 435.066901 83.083875 
L 436.476086 87.130933 
L 436.595382 85.981201 
L 437.415543 93.416138 
L 438.474295 93.216851 
L 439.674712 85.245372 
L 440.5918 86.67104 
L 441.031705 81.566228 
L 441.404505 84.509543 
L 442.000985 80.845729 
L 442.768954 81.688867 
L 443.439994 85.981201 
L 444.521115 85.919882 
L 445.214523 81.688867 
L 446.034684 82.240738 
L 446.832476 87.912752 
L 448.577181 87.590826 
L 448.905245 84.509543 
L 449.166205 84.877458 
L 449.598654 90.978705 
L 450.567934 89.32309 
L 451.082399 85.153394 
L 452.260447 86.011861 
L 453.289376 83.160524 
L 453.595072 83.835034 
L 454.527073 82.056781 
L 455.645473 82.440025 
L 456.13757 84.141629 
L 457.718243 83.4058 
L 458.091043 81.872824 
L 458.337091 81.596888 
L 459.73882 83.467119 
L 459.940132 82.853929 
L 460.96906 86.149828 
L 461.923429 84.632182 
L 462.795781 86.119169 
L 463.34007 85.000096 
L 464.473382 87.130933 
L 465.912391 85.567297 
L 466.247912 84.156959 
L 467.440872 85.490649 
L 467.87332 85.797244 
L 468.611465 83.758385 
L 469.640394 85.613287 
L 470.527658 82.731291 
L 470.907914 80.094571 
L 472.033771 83.283162 
L 472.660075 83.758385 
L 473.159628 82.639312 
L 473.636812 83.329151 
L 475.053453 86.763019 
L 475.239853 85.904552 
L 476.134573 89.062484 
L 476.984558 88.985835 
L 478.095503 86.793679 
L 478.363919 87.115604 
L 479.802928 89.553037 
L 480.67528 90.64145 
L 481.331408 87.437529 
L 481.458161 87.882092 
L 482.554193 84.954107 
L 483.292338 84.632182 
L 483.918642 85.873893 
L 484.440562 85.092075 
L 484.76117 83.865693 
L 486.602804 83.758385 
L 487.340948 85.076745 
L 487.967252 83.313822 
L 489.510645 85.015426 
L 490.502294 81.980132 
L 490.62159 82.10277 
L 491.971127 86.854998 
L 492.970231 86.226477 
L 493.313207 88.295996 
L 493.976792 86.226477 
L 494.70748 88.771218 
L 495.743865 85.935212 
L 496.74297 87.820773 
L 496.914458 87.391539 
L 498.204346 93.523446 
L 499.538971 95.409007 
L 499.911771 89.522377 
L 500.538076 94.090647 
L 502.484093 89.9976 
L 502.946365 91.94448 
L 502.961277 91.699204 
L 504.482302 94.59653 
L 505.511231 94.627189 
L 505.928767 90.196887 
L 507.039712 93.032893 
L 507.382688 87.912752 
L 507.740576 87.943411 
L 509.142305 90.01293 
L 510.417282 86.180488 
L 511.640066 87.452859 
L 512.132163 85.950541 
L 512.900131 87.238242 
L 513.683012 85.919882 
L 513.876868 86.839668 
L 515.241316 84.463554 
L 515.696133 84.432895 
L 517.08295 85.551968 
L 518.029862 83.267832 
L 518.864935 84.264267 
L 519.647815 83.221843 
L 520.124999 82.991897 
L 520.549992 84.816139 
L 521.481992 83.390471 
L 522.853897 91.086013 
L 523.681513 82.332717 
L 524.501674 91.852501 
L 524.680618 88.158028 
L 525.672267 96.987973 
L 526.432779 93.155532 
L 527.528812 99.502055 
L 527.819596 97.769791 
L 529.169133 102.721306 
L 529.482285 101.004372 
L 530.026573 104.131644 
L 530.749806 103.303837 
L 531.361198 101.09635 
L 532.345391 102.000807 
L 533.299759 99.486725 
L 534.813328 100.299203 
L 535.514192 103.7484 
L 536.244881 98.873534 
L 537.303633 101.571573 
L 537.601874 95.608294 
L 538.720274 99.670682 
L 539.070706 94.765157 
L 540.211475 97.493855 
L 541.411892 92.404373 
L 541.903988 91.714534 
L 542.44082 94.795817 
L 543.171509 93.324159 
L 544.140789 90.534142 
L 544.752182 89.890291 
L 545.63199 92.496352 
L 546.921879 88.541272 
L 547.6302 90.810077 
L 547.913528 89.936281 
L 548.905176 91.729863 
L 549.568761 89.35375 
L 550.329273 91.95981 
L 551.701178 87.284231 
L 552.215642 91.346619 
L 552.759931 84.141629 
L 553.930523 84.172289 
L 555.108572 88.050719 
L 555.623036 86.916317 
L 556.637053 84.371576 
L 557.569053 83.865693 
L 557.867294 85.628616 
L 558.54579 83.957672 
L 560.283039 87.514178 
L 561.013727 84.325586 
L 561.610208 84.73949 
L 563.004481 87.974071 
L 563.317633 87.34555 
L 564.219809 84.524873 
L 564.935586 87.222912 
L 566.053986 82.899918 
L 566.240386 83.666406 
L 567.373699 87.728794 
L 567.783779 87.284231 
L 569.394276 91.346619 
L 570.855653 87.928081 
L 571.42231 88.142698 
L 571.728006 85.39867 
L 572.063526 86.07318 
L 572.063526 86.07318 
" clip-path="url(#pc0d06aef0c)" style="fill: none; stroke: #4169e1; stroke-width: 1.5; stroke-linecap: square"/>
   </g>
   <g id="patch_3">
    <path d="M 53.328125 108.747437 
L 53.328125 7.2 
" style="fill: none; stroke: #000000; stroke-width: 0.8; stroke-linejoin: miter; stroke-linecap: square"/>
   </g>
   <g id="patch_4">
    <path d="M 577.19952 108.747437 
L 577.19952 7.2 
" style="fill: none; stroke: #000000; stroke-width: 0.8; stroke-linejoin: miter; stroke-linecap: square"/>
   </g>
   <g id="patch_5">
    <path d="M 53.328125 108.747437 
L 577.19952 108.747437 
" style="fill: none; stroke: #000000; stroke-width: 0.8; stroke-linejoin: miter; stroke-linecap: square"/>
   </g>
   <g id="patch_6">
    <path d="M 53.328125 7.2 
L 577.19952 7.2 
" style="fill: none; stroke: #000000; stroke-width: 0.8; stroke-linejoin: miter; stroke-linecap: square"/>
   </g>
  </g>
  <g id="axes_2">
   <g id="patch_7">
    <path d="M 53.328125 219.795353 
L 577.19952 219.795353 
L 577.19952 118.247917 
L 53.328125 118.247917 
z
" style="fill: #ffffff"/>
   </g>
   <g id="matplotlib.axis_3">
    <g id="xtick_20">
     <g id="line2d_24">
      <g>
       <use xlink:href="#m46b746a61d" x="58.462822" y="219.795353" style="stroke: #000000; stroke-width: 0.8"/>
      </g>
     </g>
    </g>
    <g id="xtick_21">
     <g id="line2d_25">
      <g>
       <use xlink:href="#m46b746a61d" x="86.471465" y="219.795353" style="stroke: #000000; stroke-width: 0.8"/>
      </g>
     </g>
    </g>
    <g id="xtick_22">
     <g id="line2d_26">
      <g>
       <use xlink:href="#m46b746a61d" x="114.480108" y="219.795353" style="stroke: #000000; stroke-width: 0.8"/>
      </g>
     </g>
    </g>
    <g id="xtick_23">
     <g id="line2d_27">
      <g>
       <use xlink:href="#m46b746a61d" x="142.48875" y="219.795353" style="stroke: #000000; stroke-width: 0.8"/>
      </g>
     </g>
    </g>
    <g id="xtick_24">
     <g id="line2d_28">
      <g>
       <use xlink:href="#m46b746a61d" x="170.497393" y="219.795353" style="stroke: #000000; stroke-width: 0.8"/>
      </g>
     </g>
    </g>
    <g id="xtick_25">
     <g id="line2d_29">
      <g>
       <use xlink:href="#m46b746a61d" x="198.506035" y="219.795353" style="stroke: #000000; stroke-width: 0.8"/>
      </g>
     </g>
    </g>
    <g id="xtick_26">
     <g id="line2d_30">
      <g>
       <use xlink:href="#m46b746a61d" x="226.514678" y="219.795353" style="stroke: #000000; stroke-width: 0.8"/>
      </g>
     </g>
    </g>
    <g id="xtick_27">
     <g id="line2d_31">
      <g>
       <use xlink:href="#m46b746a61d" x="254.523321" y="219.795353" style="stroke: #000000; stroke-width: 0.8"/>
      </g>
     </g>
    </g>
    <g id="xtick_28">
     <g id="line2d_32">
      <g>
       <use xlink:href="#m46b746a61d" x="282.531963" y="219.795353" style="stroke: #000000; stroke-width: 0.8"/>
      </g>
     </g>
    </g>
    <g id="xtick_29">
     <g id="line2d_33">
      <g>
       <use xlink:href="#m46b746a61d" x="310.540606" y="219.795353" style="stroke: #000000; stroke-width: 0.8"/>
      </g>
     </g>
    </g>
    <g id="xtick_30">
     <g id="line2d_34">
      <g>
       <use xlink:href="#m46b746a61d" x="338.549248" y="219.795353" style="stroke: #000000; stroke-width: 0.8"/>
      </g>
     </g>
    </g>
    <g id="xtick_31">
     <g id="line2d_35">
      <g>
       <use xlink:href="#m46b746a61d" x="366.557891" y="219.795353" style="stroke: #000000; stroke-width: 0.8"/>
      </g>
     </g>
    </g>
    <g id="xtick_32">
     <g id="line2d_36">
      <g>
       <use xlink:href="#m46b746a61d" x="394.566534" y="219.795353" style="stroke: #000000; stroke-width: 0.8"/>
      </g>
     </g>
    </g>
    <g id="xtick_33">
     <g id="line2d_37">
      <g>
       <use xlink:href="#m46b746a61d" x="422.575176" y="219.795353" style="stroke: #000000; stroke-width: 0.8"/>
      </g>
     </g>
    </g>
    <g id="xtick_34">
     <g id="line2d_38">
      <g>
       <use xlink:href="#m46b746a61d" x="450.583819" y="219.795353" style="stroke: #000000; stroke-width: 0.8"/>
      </g>
     </g>
    </g>
    <g id="xtick_35">
     <g id="line2d_39">
      <g>
       <use xlink:href="#m46b746a61d" x="478.592461" y="219.795353" style="stroke: #000000; stroke-width: 0.8"/>
      </g>
     </g>
    </g>
    <g id="xtick_36">
     <g id="line2d_40">
      <g>
       <use xlink:href="#m46b746a61d" x="506.601104" y="219.795353" style="stroke: #000000; stroke-width: 0.8"/>
      </g>
     </g>
    </g>
    <g id="xtick_37">
     <g id="line2d_41">
      <g>
       <use xlink:href="#m46b746a61d" x="534.609747" y="219.795353" style="stroke: #000000; stroke-width: 0.8"/>
      </g>
     </g>
    </g>
    <g id="xtick_38">
     <g id="line2d_42">
      <g>
       <use xlink:href="#m46b746a61d" x="562.618389" y="219.795353" style="stroke: #000000; stroke-width: 0.8"/>
      </g>
     </g>
    </g>
   </g>
   <g id="matplotlib.axis_4">
    <g id="ytick_4">
     <g id="line2d_43">
      <g>
       <use xlink:href="#ma2e1c59fff" x="53.328125" y="199.177806" style="stroke: #000000; stroke-width: 0.8"/>
      </g>
     </g>
     <g id="text_5">
      <!-- 900 -->
      <g transform="translate(27.240625 202.977025) scale(0.1 -0.1)">
       <defs>
        <path id="DejaVuSans-39" d="M 703 97 
L 703 672 
Q 941 559 1184 500 
Q 1428 441 1663 441 
Q 2288 441 2617 861 
Q 2947 1281 2994 2138 
Q 2813 1869 2534 1725 
Q 2256 1581 1919 1581 
Q 1219 1581 811 2004 
Q 403 2428 403 3163 
Q 403 3881 828 4315 
Q 1253 4750 1959 4750 
Q 2769 4750 3195 4129 
Q 3622 3509 3622 2328 
Q 3622 1225 3098 567 
Q 2575 -91 1691 -91 
Q 1453 -91 1209 -44 
Q 966 3 703 97 
z
M 1959 2075 
Q 2384 2075 2632 2365 
Q 2881 2656 2881 3163 
Q 2881 3666 2632 3958 
Q 2384 4250 1959 4250 
Q 1534 4250 1286 3958 
Q 1038 3666 1038 3163 
Q 1038 2656 1286 2365 
Q 1534 2075 1959 2075 
z
" transform="scale(0.015625)"/>
       </defs>
       <use xlink:href="#DejaVuSans-39"/>
       <use xlink:href="#DejaVuSans-30" transform="translate(63.623047 0)"/>
       <use xlink:href="#DejaVuSans-30" transform="translate(127.246094 0)"/>
      </g>
     </g>
    </g>
    <g id="ytick_5">
     <g id="line2d_44">
      <g>
       <use xlink:href="#ma2e1c59fff" x="53.328125" y="174.561794" style="stroke: #000000; stroke-width: 0.8"/>
      </g>
     </g>
     <g id="text_6">
      <!-- 950 -->
      <g transform="translate(27.240625 178.361013) scale(0.1 -0.1)">
       <defs>
        <path id="DejaVuSans-35" d="M 691 4666 
L 3169 4666 
L 3169 4134 
L 1269 4134 
L 1269 2991 
Q 1406 3038 1543 3061 
Q 1681 3084 1819 3084 
Q 2600 3084 3056 2656 
Q 3513 2228 3513 1497 
Q 3513 744 3044 326 
Q 2575 -91 1722 -91 
Q 1428 -91 1123 -41 
Q 819 9 494 109 
L 494 744 
Q 775 591 1075 516 
Q 1375 441 1709 441 
Q 2250 441 2565 725 
Q 2881 1009 2881 1497 
Q 2881 1984 2565 2268 
Q 2250 2553 1709 2553 
Q 1456 2553 1204 2497 
Q 953 2441 691 2322 
L 691 4666 
z
" transform="scale(0.015625)"/>
       </defs>
       <use xlink:href="#DejaVuSans-39"/>
       <use xlink:href="#DejaVuSans-35" transform="translate(63.623047 0)"/>
       <use xlink:href="#DejaVuSans-30" transform="translate(127.246094 0)"/>
      </g>
     </g>
    </g>
    <g id="ytick_6">
     <g id="line2d_45">
      <g>
       <use xlink:href="#ma2e1c59fff" x="53.328125" y="149.945782" style="stroke: #000000; stroke-width: 0.8"/>
      </g>
     </g>
     <g id="text_7">
      <!-- 1000 -->
      <g transform="translate(20.878125 153.745) scale(0.1 -0.1)">
       <use xlink:href="#DejaVuSans-31"/>
       <use xlink:href="#DejaVuSans-30" transform="translate(63.623047 0)"/>
       <use xlink:href="#DejaVuSans-30" transform="translate(127.246094 0)"/>
       <use xlink:href="#DejaVuSans-30" transform="translate(190.869141 0)"/>
      </g>
     </g>
    </g>
    <g id="ytick_7">
     <g id="line2d_46">
      <g>
       <use xlink:href="#ma2e1c59fff" x="53.328125" y="125.329769" style="stroke: #000000; stroke-width: 0.8"/>
      </g>
     </g>
     <g id="text_8">
      <!-- 1050 -->
      <g transform="translate(20.878125 129.128988) scale(0.1 -0.1)">
       <use xlink:href="#DejaVuSans-31"/>
       <use xlink:href="#DejaVuSans-30" transform="translate(63.623047 0)"/>
       <use xlink:href="#DejaVuSans-35" transform="translate(127.246094 0)"/>
       <use xlink:href="#DejaVuSans-30" transform="translate(190.869141 0)"/>
      </g>
     </g>
    </g>
    <g id="text_9">
     <!-- Equity -->
     <g transform="translate(14.798438 184.832572) rotate(-90) scale(0.1 -0.1)">
      <defs>
       <path id="DejaVuSans-45" d="M 628 4666 
L 3578 4666 
L 3578 4134 
L 1259 4134 
L 1259 2753 
L 3481 2753 
L 3481 2222 
L 1259 2222 
L 1259 531 
L 3634 531 
L 3634 0 
L 628 0 
L 628 4666 
z
" transform="scale(0.015625)"/>
       <path id="DejaVuSans-71" d="M 947 1747 
Q 947 1113 1208 752 
Q 1469 391 1925 391 
Q 2381 391 2643 752 
Q 2906 1113 2906 1747 
Q 2906 2381 2643 2742 
Q 2381 3103 1925 3103 
Q 1469 3103 1208 2742 
Q 947 2381 947 1747 
z
M 2906 525 
Q 2725 213 2448 61 
Q 2172 -91 1784 -91 
Q 1150 -91 751 415 
Q 353 922 353 1747 
Q 353 2572 751 3078 
Q 1150 3584 1784 3584 
Q 2172 3584 2448 3432 
Q 2725 3281 2906 2969 
L 2906 3500 
L 3481 3500 
L 3481 -1331 
L 2906 -1331 
L 2906 525 
z
" transform="scale(0.015625)"/>
       <path id="DejaVuSans-75" d="M 544 1381 
L 544 3500 
L 1119 3500 
L 1119 1403 
Q 1119 906 1312 657 
Q 1506 409 1894 409 
Q 2359 409 2629 706 
Q 2900 1003 2900 1516 
L 2900 3500 
L 3475 3500 
L 3475 0 
L 2900 0 
L 2900 538 
Q 2691 219 2414 64 
Q 2138 -91 1772 -91 
Q 1169 -91 856 284 
Q 544 659 544 1381 
z
M 1991 3584 
L 1991 3584 
z
" transform="scale(0.015625)"/>
       <path id="DejaVuSans-74" d="M 1172 4494 
L 1172 3500 
L 2356 3500 
L 2356 3053 
L 1172 3053 
L 1172 1153 
Q 1172 725 1289 603 
Q 1406 481 1766 481 
L 2356 481 
L 2356 0 
L 1766 0 
Q 1100 0 847 248 
Q 594 497 594 1153 
L 594 3053 
L 172 3053 
L 172 3500 
L 594 3500 
L 594 4494 
L 1172 4494 
z
" transform="scale(0.015625)"/>
       <path id="DejaVuSans-79" d="M 2059 -325 
Q 1816 -950 1584 -1140 
Q 1353 -1331 966 -1331 
L 506 -1331 
L 506 -850 
L 844 -850 
Q 1081 -850 1212 -737 
Q 1344 -625 1503 -206 
L 1606 56 
L 191 3500 
L 800 3500 
L 1894 763 
L 2988 3500 
L 3597 3500 
L 2059 -325 
z
" transform="scale(0.015625)"/>
      </defs>
      <use xlink:href="#DejaVuSans-45"/>
      <use xlink:href="#DejaVuSans-71" transform="translate(63.183594 0)"/>
      <use xlink:href="#DejaVuSans-75" transform="translate(126.660156 0)"/>
      <use xlink:href="#DejaVuSans-69" transform="translate(190.039062 0)"/>
      <use xlink:href="#DejaVuSans-74" transform="translate(217.822266 0)"/>
      <use xlink:href="#DejaVuSans-79" transform="translate(257.03125 0)"/>
     </g>
    </g>
   </g>
   <g id="line2d_47">
    <path d="M 58.464119 149.945782 
L 132.546979 149.945782 
L 134.07546 150.266864 
L 134.127652 151.405683 
L 134.7465 143.317146 
L 135.700869 146.266396 
L 136.849093 154.646938 
L 137.445574 151.639287 
L 138.690726 159.202215 
L 138.944231 165.071514 
L 139.943335 157.245782 
L 140.562183 157.391784 
L 140.800776 162.647873 
L 143.074857 162.618673 
L 143.283625 154.325732 
L 143.775721 157.771391 
L 144.43185 151.084478 
L 145.237098 150.704871 
L 146.124363 156.924576 
L 146.773035 151.405683 
L 147.973452 160.07823 
L 148.532652 159.143814 
L 149.427373 182.329006 
L 149.844909 171.32042 
L 150.978222 182.533409 
L 151.63435 187.497493 
L 152.543983 174.240469 
L 152.916783 179.087751 
L 153.833871 174.269669 
L 155.16104 175.379288 
L 155.489104 170.386004 
L 156.614961 168.225167 
L 156.987761 172.576041 
L 158.232914 173.481256 
L 158.411858 167.78716 
L 159.589907 176.810112 
L 160.059635 160.779042 
L 160.514451 160.311834 
L 161.647764 175.145684 
L 161.893812 172.838845 
L 162.676693 195.498428 
L 164.197717 197.630064 
L 164.69727 183.993434 
L 165.174454 183.497025 
L 166.203383 207.237027 
L 166.688023 190.592745 
L 167.702039 215.179561 
L 168.052472 208.959856 
L 169.446745 187.409892 
L 170.266905 187.497493 
L 171.124346 193.950802 
L 171.26601 193.483594 
L 172.473882 212.025907 
L 172.675194 205.07619 
L 174.129115 185.57026 
L 174.375163 189.424726 
L 175.344444 182.942216 
L 175.769436 187.263889 
L 176.619421 179.438157 
L 177.842205 184.752647 
L 178.625086 180.752179 
L 178.856222 182.825414 
L 180.325055 193.045587 
L 180.444351 191.527161 
L 181.197407 183.672228 
L 182.099584 183.234221 
L 183.247809 190.417542 
L 183.546049 188.373508 
L 185.014882 179.730162 
L 185.536802 182.037001 
L 186.737219 175.437689 
L 187.527555 183.643028 
L 188.4521 180.460174 
L 189.16042 173.68566 
L 189.667428 178.503741 
L 190.920037 168.020764 
L 191.546342 169.918796 
L 192.523078 163.786692 
L 192.925702 168.546373 
L 194.282695 163.728291 
L 195.758984 171.992031 
L 196.459848 171.232818 
L 197.354569 166.765143 
L 197.980873 166.297935 
L 198.644458 172.079632 
L 199.583914 170.73641 
L 200.210219 175.904897 
L 201.127307 174.561674 
L 201.790892 168.429571 
L 201.99966 170.006397 
L 215.88274 170.006397 
L 217.038421 170.757884 
L 217.314293 166.997948 
L 218.037525 175.670058 
L 218.92479 167.816644 
L 219.864246 170.788206 
L 220.490551 161.72191 
L 220.520375 162.843826 
L 221.526935 168.726306 
L 222.101048 164.299285 
L 222.764632 173.33526 
L 224.047065 166.937304 
L 224.934329 174.396532 
L 225.776858 177.034551 
L 226.679034 168.574696 
L 227.089115 172.516564 
L 228.170235 165.724422 
L 228.386459 174.426854 
L 229.0575 164.845082 
L 230.198268 161.964486 
L 231.316669 168.877916 
L 231.965341 171.606902 
L 232.561822 163.6322 
L 232.867518 165.724422 
L 233.993375 162.540605 
L 235.395103 168.028899 
L 235.991584 163.086402 
L 237.497697 163.419945 
L 242.120419 163.419945 
L 242.75418 160.285892 
L 243.626532 169.207946 
L 243.671268 167.158711 
L 245.125189 150.291931 
L 245.483077 155.809102 
L 246.69095 139.352169 
L 246.758054 140.613237 
L 248.107591 130.177902 
L 248.808455 133.299044 
L 249.598792 124.440044 
L 249.9194 124.503097 
L 250.284744 131.375916 
L 252.446985 125.827218 
L 252.484265 129.042941 
L 253.311882 127.214393 
L 254.407915 132.794617 
L 255.295179 135.82118 
L 255.503947 130.304009 
L 256.793836 133.551258 
L 257.554348 126.142485 
L 258.143373 122.863709 
L 259.053005 129.578895 
L 259.515278 126.962179 
L 260.641134 131.407443 
L 260.678414 131.092176 
L 261.826639 137.271407 
L 262.288911 132.19561 
L 263.198544 138.910795 
L 264.21256 136.893087 
L 264.809041 131.880343 
L 265.793233 131.029122 
L 266.501554 136.231027 
L 266.88181 134.465532 
L 268.320819 140.140336 
L 268.380467 138.942322 
L 269.8493 142.883159 
L 270.527796 140.234916 
L 271.258485 147.927429 
L 271.690933 144.144226 
L 272.898806 150.449565 
L 273.390902 150.701778 
L 273.912822 146.382621 
L 274.554038 150.291931 
L 275.814103 145.0585 
L 276.656632 143.828959 
L 277.178552 149.692924 
L 277.640824 146.981628 
L 278.774137 143.482166 
L 280.011834 143.702853 
L 280.54121 145.373767 
L 280.981114 145.34224 
L 282.196443 143.040792 
L 282.263547 143.135372 
L 283.642908 148.557963 
L 284.358684 147.927429 
L 284.873149 143.513692 
L 285.372701 144.081173 
L 286.573118 153.06628 
L 286.96083 152.025899 
L 287.579678 146.130408 
L 288.459487 146.950102 
L 289.495871 143.324532 
L 291.19584 144.68018 
L 291.49408 139.91965 
L 292.329153 141.495984 
L 292.515553 139.352169 
L 293.514658 138.532475 
L 294.178242 143.387586 
L 359.418281 143.387586 
L 359.612137 142.699525 
L 360.902025 148.922217 
L 361.297194 146.326823 
L 362.080074 152.017928 
L 363.541451 150.454438 
L 364.048459 155.238718 
L 364.272139 155.864115 
L 364.726956 151.64269 
L 365.599308 151.830309 
L 385.65596 151.830309 
L 386.789273 153.038325 
L 387.169529 145.848521 
L 387.221721 146.073202 
L 388.742746 151.850723 
L 389.398874 157.178882 
L 389.59273 149.379228 
L 390.554555 146.362078 
L 391.605852 150.021175 
L 392.2247 147.645972 
L 392.52294 151.979113 
L 393.395293 148.480502 
L 393.522045 151.52975 
L 395.989982 147.06822 
L 396.303134 153.102519 
L 396.60883 148.865671 
L 396.787775 152.942033 
L 398.38336 158.173899 
L 399.046944 142.446203 
L 399.72544 145.142379 
L 400.262273 149.122449 
L 401.097345 145.720131 
L 402.05917 138.337743 
L 403.341602 137.856283 
L 403.863523 145.110282 
L 404.542019 140.327778 
L 405.317444 148.255821 
L 406.159972 145.912715 
L 406.674436 141.451185 
L 407.330565 144.40414 
L 407.606437 142.157326 
L 413.444488 142.157326 
L 414.950601 150.962216 
L 415.040073 149.356112 
L 416.344874 168.465466 
L 416.859338 162.926048 
L 418.037387 178.298753 
L 418.372907 179.773746 
L 419.267628 171.907117 
L 419.632972 178.921528 
L 421.101805 167.842692 
L 421.474605 170.694345 
L 422.168014 163.089936 
L 422.868878 167.44936 
L 423.763598 174.234328 
L 424.307887 172.595447 
L 425.560496 165.220482 
L 426.11224 165.449925 
L 426.96968 171.481008 
L 427.335025 170.694345 
L 428.028433 186.952046 
L 429.400338 171.907117 
L 430.53365 183.346507 
L 430.787155 169.284907 
L 432.86738 178.823195 
L 433.344564 173.545998 
L 434.149813 181.707626 
L 434.992341 174.496549 
L 435.066901 175.152102 
L 436.476086 183.805394 
L 436.595382 181.347072 
L 437.415543 197.24422 
L 438.474295 196.818111 
L 439.674712 179.773746 
L 440.5918 182.822065 
L 441.031705 171.907117 
L 441.404505 178.200421 
L 442.000985 170.366569 
L 442.768954 172.169338 
L 443.439994 181.347072 
L 444.521115 181.215962 
L 445.214523 172.169338 
L 446.034684 173.349332 
L 446.832476 185.477053 
L 448.577181 184.788723 
L 448.905245 178.200421 
L 449.166205 178.987084 
L 449.598654 192.032578 
L 450.567934 188.492594 
L 451.082399 179.577081 
L 452.260447 181.412628 
L 453.289376 175.31599 
L 453.595072 176.758205 
L 454.527073 172.956001 
L 455.645473 173.775441 
L 456.13757 177.413758 
L 457.718243 175.840432 
L 458.091043 172.562669 
L 458.337091 171.972672 
L 458.859011 175.938765 
L 459.746276 174.299883 
L 498.323642 174.299883 
L 499.770107 175.936399 
L 499.911771 169.094207 
L 500.538076 179.289073 
L 502.484093 170.154747 
L 502.946365 174.499539 
L 502.961277 173.952163 
L 504.482302 180.418035 
L 505.511231 180.486456 
L 505.928767 170.599489 
L 507.039712 176.928517 
L 507.382688 165.502056 
L 507.740576 165.570478 
L 509.008097 170.154747 
L 509.142305 170.188958 
L 510.417282 161.636218 
L 511.640066 164.475727 
L 512.132163 161.123053 
L 512.900131 163.996774 
L 513.683012 161.054631 
L 513.876868 163.107289 
L 515.241316 157.80459 
L 515.696133 157.736168 
L 516.844357 159.994092 
L 516.918917 158.591442 
L 517.08295 160.233568 
L 518.395206 158.899341 
L 524.561322 158.899341 
L 525.977963 159.785261 
L 526.089803 155.417948 
L 526.432779 155.632734 
L 527.528812 170.45296 
L 527.819596 166.407826 
L 529.169133 177.970467 
L 529.482285 173.96113 
L 530.026573 181.26385 
L 530.749806 179.330777 
L 531.361198 174.175916 
L 532.345391 176.287977 
L 533.299759 170.417163 
L 534.813328 172.314438 
L 535.514192 180.368909 
L 536.244881 168.985257 
L 537.303633 175.285643 
L 537.601874 161.360358 
L 538.720274 170.846735 
L 539.070706 159.391487 
L 540.211475 165.763469 
L 541.411892 153.878649 
L 541.903988 152.267755 
L 542.44082 159.463082 
L 543.171509 156.026508 
L 544.140789 149.511336 
L 544.752182 148.007835 
L 545.63199 154.093435 
L 546.921879 144.857642 
L 547.6302 150.155694 
L 547.913528 148.115228 
L 548.905176 152.303553 
L 549.568761 146.754917 
L 550.329273 152.840517 
L 551.701178 141.922234 
L 552.215642 151.408611 
L 552.759931 134.583717 
L 553.930523 134.655312 
L 555.108572 143.712117 
L 555.623036 141.063091 
L 556.637053 135.120681 
L 557.569053 133.939359 
L 557.867294 138.056088 
L 558.54579 134.154145 
L 560.283039 142.459199 
L 561.013727 135.013288 
L 561.610208 135.979825 
L 563.004481 143.533129 
L 563.317633 142.065425 
L 564.219809 135.478658 
L 564.935586 141.779044 
L 566.053986 131.684107 
L 566.240386 133.473989 
L 567.373699 142.960366 
L 567.783779 141.922234 
L 569.394276 151.408611 
L 570.855653 143.425736 
L 571.42231 143.926903 
L 571.728006 137.519124 
L 572.063526 139.022625 
L 572.063526 139.022625 
" clip-path="url(#pc35d4cc647)" style="fill: none; stroke: #2e8b57; stroke-width: 1.5; stroke-linecap: square"/>
   </g>
   <g id="patch_8">
    <path d="M 53.328125 219.795353 
L 53.328125 118.247917 
" style="fill: none; stroke: #000000; stroke-width: 0.8; stroke-linejoin: miter; stroke-linecap: square"/>
   </g>
   <g id="patch_9">
    <path d="M 577.19952 219.795353 
L 577.19952 118.247917 
" style="fill: none; stroke: #000000; stroke-width: 0.8; stroke-linejoin: miter; stroke-linecap: square"/>
   </g>
   <g id="patch_10">
    <path d="M 53.328125 219.795353 
L 577.19952 219.795353 
" style="fill: none; stroke: #000000; stroke-width: 0.8; stroke-linejoin: miter; stroke-linecap: square"/>
   </g>
   <g id="patch_11">
    <path d="M 53.328125 118.247917 
L 577.19952 118.247917 
" style="fill: none; stroke: #000000; stroke-width: 0.8; stroke-linejoin: miter; stroke-linecap: square"/>
   </g>
  </g>
  <g id="axes_3">
   <g id="patch_12">
    <path d="M 53.328125 330.84327 
L 577.19952 330.84327 
L 577.19952 229.295833 
L 53.328125 229.295833 
z
" style="fill: #ffffff"/>
   </g>
   <g id="matplotlib.axis_5">
    <g id="xtick_39">
     <g id="line2d_48">
      <g>
       <use xlink:href="#m46b746a61d" x="58.462822" y="330.84327" style="stroke: #000000; stroke-width: 0.8"/>
      </g>
     </g>
     <g id="text_10">
      <!-- Nov -->
      <g transform="translate(48.703447 345.441707) scale(0.1 -0.1)">
       <defs>
        <path id="DejaVuSans-4e" d="M 628 4666 
L 1478 4666 
L 3547 763 
L 3547 4666 
L 4159 4666 
L 4159 0 
L 3309 0 
L 1241 3903 
L 1241 0 
L 628 0 
L 628 4666 
z
" transform="scale(0.015625)"/>
        <path id="DejaVuSans-6f" d="M 1959 3097 
Q 1497 3097 1228 2736 
Q 959 2375 959 1747 
Q 959 1119 1226 758 
Q 1494 397 1959 397 
Q 2419 397 2687 759 
Q 2956 1122 2956 1747 
Q 2956 2369 2687 2733 
Q 2419 3097 1959 3097 
z
M 1959 3584 
Q 2709 3584 3137 3096 
Q 3566 2609 3566 1747 
Q 3566 888 3137 398 
Q 2709 -91 1959 -91 
Q 1206 -91 779 398 
Q 353 888 353 1747 
Q 353 2609 779 3096 
Q 1206 3584 1959 3584 
z
" transform="scale(0.015625)"/>
        <path id="DejaVuSans-76" d="M 191 3500 
L 800 3500 
L 1894 563 
L 2988 3500 
L 3597 3500 
L 2284 0 
L 1503 0 
L 191 3500 
z
" transform="scale(0.015625)"/>
       </defs>
       <use xlink:href="#DejaVuSans-4e"/>
       <use xlink:href="#DejaVuSans-6f" transform="translate(74.804688 0)"/>
       <use xlink:href="#DejaVuSans-76" transform="translate(135.986328 0)"/>
      </g>
     </g>
    </g>
    <g id="xtick_40">
     <g id="line2d_49">
      <g>
       <use xlink:href="#m46b746a61d" x="86.471465" y="330.84327" style="stroke: #000000; stroke-width: 0.8"/>
      </g>
     </g>
     <g id="text_11">
      <!-- 02 -->
      <g transform="translate(80.108965 345.441707) scale(0.1 -0.1)">
       <defs>
        <path id="DejaVuSans-32" d="M 1228 531 
L 3431 531 
L 3431 0 
L 469 0 
L 469 531 
Q 828 903 1448 1529 
Q 2069 2156 2228 2338 
Q 2531 2678 2651 2914 
Q 2772 3150 2772 3378 
Q 2772 3750 2511 3984 
Q 2250 4219 1831 4219 
Q 1534 4219 1204 4116 
Q 875 4013 500 3803 
L 500 4441 
Q 881 4594 1212 4672 
Q 1544 4750 1819 4750 
Q 2544 4750 2975 4387 
Q 3406 4025 3406 3419 
Q 3406 3131 3298 2873 
Q 3191 2616 2906 2266 
Q 2828 2175 2409 1742 
Q 1991 1309 1228 531 
z
" transform="scale(0.015625)"/>
       </defs>
       <use xlink:href="#DejaVuSans-30"/>
       <use xlink:href="#DejaVuSans-32" transform="translate(63.623047 0)"/>
      </g>
     </g>
    </g>
    <g id="xtick_41">
     <g id="line2d_50">
      <g>
       <use xlink:href="#m46b746a61d" x="114.480108" y="330.84327" style="stroke: #000000; stroke-width: 0.8"/>
      </g>
     </g>
     <g id="text_12">
      <!-- 03 -->
      <g transform="translate(108.117608 345.441707) scale(0.1 -0.1)">
       <defs>
        <path id="DejaVuSans-33" d="M 2597 2516 
Q 3050 2419 3304 2112 
Q 3559 1806 3559 1356 
Q 3559 666 3084 287 
Q 2609 -91 1734 -91 
Q 1441 -91 1130 -33 
Q 819 25 488 141 
L 488 750 
Q 750 597 1062 519 
Q 1375 441 1716 441 
Q 2309 441 2620 675 
Q 2931 909 2931 1356 
Q 2931 1769 2642 2001 
Q 2353 2234 1838 2234 
L 1294 2234 
L 1294 2753 
L 1863 2753 
Q 2328 2753 2575 2939 
Q 2822 3125 2822 3475 
Q 2822 3834 2567 4026 
Q 2313 4219 1838 4219 
Q 1578 4219 1281 4162 
Q 984 4106 628 3988 
L 628 4550 
Q 988 4650 1302 4700 
Q 1616 4750 1894 4750 
Q 2613 4750 3031 4423 
Q 3450 4097 3450 3541 
Q 3450 3153 3228 2886 
Q 3006 2619 2597 2516 
z
" transform="scale(0.015625)"/>
       </defs>
       <use xlink:href="#DejaVuSans-30"/>
       <use xlink:href="#DejaVuSans-33" transform="translate(63.623047 0)"/>
      </g>
     </g>
    </g>
    <g id="xtick_42">
     <g id="line2d_51">
      <g>
       <use xlink:href="#m46b746a61d" x="142.48875" y="330.84327" style="stroke: #000000; stroke-width: 0.8"/>
      </g>
     </g>
     <g id="text_13">
      <!-- 04 -->
      <g transform="translate(136.12625 345.441707) scale(0.1 -0.1)">
       <use xlink:href="#DejaVuSans-30"/>
       <use xlink:href="#DejaVuSans-34" transform="translate(63.623047 0)"/>
      </g>
     </g>
    </g>
    <g id="xtick_43">
     <g id="line2d_52">
      <g>
       <use xlink:href="#m46b746a61d" x="170.497393" y="330.84327" style="stroke: #000000; stroke-width: 0.8"/>
      </g>
     </g>
     <g id="text_14">
      <!-- 05 -->
      <g transform="translate(164.134893 345.441707) scale(0.1 -0.1)">
       <use xlink:href="#DejaVuSans-30"/>
       <use xlink:href="#DejaVuSans-35" transform="translate(63.623047 0)"/>
      </g>
     </g>
    </g>
    <g id="xtick_44">
     <g id="line2d_53">
      <g>
       <use xlink:href="#m46b746a61d" x="198.506035" y="330.84327" style="stroke: #000000; stroke-width: 0.8"/>
      </g>
     </g>
     <g id="text_15">
      <!-- 06 -->
      <g transform="translate(192.143535 345.441707) scale(0.1 -0.1)">
       <use xlink:href="#DejaVuSans-30"/>
       <use xlink:href="#DejaVuSans-36" transform="translate(63.623047 0)"/>
      </g>
     </g>
    </g>
    <g id="xtick_45">
     <g id="line2d_54">
      <g>
       <use xlink:href="#m46b746a61d" x="226.514678" y="330.84327" style="stroke: #000000; stroke-width: 0.8"/>
      </g>
     </g>
     <g id="text_16">
      <!-- 07 -->
      <g transform="translate(220.152178 345.441707) scale(0.1 -0.1)">
       <defs>
        <path id="DejaVuSans-37" d="M 525 4666 
L 3525 4666 
L 3525 4397 
L 1831 0 
L 1172 0 
L 2766 4134 
L 525 4134 
L 525 4666 
z
" transform="scale(0.015625)"/>
       </defs>
       <use xlink:href="#DejaVuSans-30"/>
       <use xlink:href="#DejaVuSans-37" transform="translate(63.623047 0)"/>
      </g>
     </g>
    </g>
    <g id="xtick_46">
     <g id="line2d_55">
      <g>
       <use xlink:href="#m46b746a61d" x="254.523321" y="330.84327" style="stroke: #000000; stroke-width: 0.8"/>
      </g>
     </g>
     <g id="text_17">
      <!-- 08 -->
      <g transform="translate(248.160821 345.441707) scale(0.1 -0.1)">
       <use xlink:href="#DejaVuSans-30"/>
       <use xlink:href="#DejaVuSans-38" transform="translate(63.623047 0)"/>
      </g>
     </g>
    </g>
    <g id="xtick_47">
     <g id="line2d_56">
      <g>
       <use xlink:href="#m46b746a61d" x="282.531963" y="330.84327" style="stroke: #000000; stroke-width: 0.8"/>
      </g>
     </g>
     <g id="text_18">
      <!-- 09 -->
      <g transform="translate(276.169463 345.441707) scale(0.1 -0.1)">
       <use xlink:href="#DejaVuSans-30"/>
       <use xlink:href="#DejaVuSans-39" transform="translate(63.623047 0)"/>
      </g>
     </g>
    </g>
    <g id="xtick_48">
     <g id="line2d_57">
      <g>
       <use xlink:href="#m46b746a61d" x="310.540606" y="330.84327" style="stroke: #000000; stroke-width: 0.8"/>
      </g>
     </g>
     <g id="text_19">
      <!-- 10 -->
      <g transform="translate(304.178106 345.441707) scale(0.1 -0.1)">
       <use xlink:href="#DejaVuSans-31"/>
       <use xlink:href="#DejaVuSans-30" transform="translate(63.623047 0)"/>
      </g>
     </g>
    </g>
    <g id="xtick_49">
     <g id="line2d_58">
      <g>
       <use xlink:href="#m46b746a61d" x="338.549248" y="330.84327" style="stroke: #000000; stroke-width: 0.8"/>
      </g>
     </g>
     <g id="text_20">
      <!-- 11 -->
      <g transform="translate(332.186748 345.441707) scale(0.1 -0.1)">
       <use xlink:href="#DejaVuSans-31"/>
       <use xlink:href="#DejaVuSans-31" transform="translate(63.623047 0)"/>
      </g>
     </g>
    </g>
    <g id="xtick_50">
     <g id="line2d_59">
      <g>
       <use xlink:href="#m46b746a61d" x="366.557891" y="330.84327" style="stroke: #000000; stroke-width: 0.8"/>
      </g>
     </g>
     <g id="text_21">
      <!-- 12 -->
      <g transform="translate(360.195391 345.441707) scale(0.1 -0.1)">
       <use xlink:href="#DejaVuSans-31"/>
       <use xlink:href="#DejaVuSans-32" transform="translate(63.623047 0)"/>
      </g>
     </g>
    </g>
    <g id="xtick_51">
     <g id="line2d_60">
      <g>
       <use xlink:href="#m46b746a61d" x="394.566534" y="330.84327" style="stroke: #000000; stroke-width: 0.8"/>
      </g>
     </g>
     <g id="text_22">
      <!-- 13 -->
      <g transform="translate(388.204034 345.441707) scale(0.1 -0.1)">
       <use xlink:href="#DejaVuSans-31"/>
       <use xlink:href="#DejaVuSans-33" transform="translate(63.623047 0)"/>
      </g>
     </g>
    </g>
    <g id="xtick_52">
     <g id="line2d_61">
      <g>
       <use xlink:href="#m46b746a61d" x="422.575176" y="330.84327" style="stroke: #000000; stroke-width: 0.8"/>
      </g>
     </g>
     <g id="text_23">
      <!-- 14 -->
      <g transform="translate(416.212676 345.441707) scale(0.1 -0.1)">
       <use xlink:href="#DejaVuSans-31"/>
       <use xlink:href="#DejaVuSans-34" transform="translate(63.623047 0)"/>
      </g>
     </g>
    </g>
    <g id="xtick_53">
     <g id="line2d_62">
      <g>
       <use xlink:href="#m46b746a61d" x="450.583819" y="330.84327" style="stroke: #000000; stroke-width: 0.8"/>
      </g>
     </g>
     <g id="text_24">
      <!-- 15 -->
      <g transform="translate(444.221319 345.441707) scale(0.1 -0.1)">
       <use xlink:href="#DejaVuSans-31"/>
       <use xlink:href="#DejaVuSans-35" transform="translate(63.623047 0)"/>
      </g>
     </g>
    </g>
    <g id="xtick_54">
     <g id="line2d_63">
      <g>
       <use xlink:href="#m46b746a61d" x="478.592461" y="330.84327" style="stroke: #000000; stroke-width: 0.8"/>
      </g>
     </g>
     <g id="text_25">
      <!-- 16 -->
      <g transform="translate(472.229961 345.441707) scale(0.1 -0.1)">
       <use xlink:href="#DejaVuSans-31"/>
       <use xlink:href="#DejaVuSans-36" transform="translate(63.623047 0)"/>
      </g>
     </g>
    </g>
    <g id="xtick_55">
     <g id="line2d_64">
      <g>
       <use xlink:href="#m46b746a61d" x="506.601104" y="330.84327" style="stroke: #000000; stroke-width: 0.8"/>
      </g>
     </g>
     <g id="text_26">
      <!-- 17 -->
      <g transform="translate(500.238604 345.441707) scale(0.1 -0.1)">
       <use xlink:href="#DejaVuSans-31"/>
       <use xlink:href="#DejaVuSans-37" transform="translate(63.623047 0)"/>
      </g>
     </g>
    </g>
    <g id="xtick_56">
     <g id="line2d_65">
      <g>
       <use xlink:href="#m46b746a61d" x="534.609747" y="330.84327" style="stroke: #000000; stroke-width: 0.8"/>
      </g>
     </g>
     <g id="text_27">
      <!-- 18 -->
      <g transform="translate(528.247247 345.441707) scale(0.1 -0.1)">
       <use xlink:href="#DejaVuSans-31"/>
       <use xlink:href="#DejaVuSans-38" transform="translate(63.623047 0)"/>
      </g>
     </g>
    </g>
    <g id="xtick_57">
     <g id="line2d_66">
      <g>
       <use xlink:href="#m46b746a61d" x="562.618389" y="330.84327" style="stroke: #000000; stroke-width: 0.8"/>
      </g>
     </g>
     <g id="text_28">
      <!-- 19 -->
      <g transform="translate(556.255889 345.441707) scale(0.1 -0.1)">
       <use xlink:href="#DejaVuSans-31"/>
       <use xlink:href="#DejaVuSans-39" transform="translate(63.623047 0)"/>
      </g>
     </g>
    </g>
    <g id="text_29">
     <!-- Time -->
     <g transform="translate(303.030229 359.119832) scale(0.1 -0.1)">
      <defs>
       <path id="DejaVuSans-54" d="M -19 4666 
L 3928 4666 
L 3928 4134 
L 2272 4134 
L 2272 0 
L 1638 0 
L 1638 4134 
L -19 4134 
L -19 4666 
z
" transform="scale(0.015625)"/>
       <path id="DejaVuSans-6d" d="M 3328 2828 
Q 3544 3216 3844 3400 
Q 4144 3584 4550 3584 
Q 5097 3584 5394 3201 
Q 5691 2819 5691 2113 
L 5691 0 
L 5113 0 
L 5113 2094 
Q 5113 2597 4934 2840 
Q 4756 3084 4391 3084 
Q 3944 3084 3684 2787 
Q 3425 2491 3425 1978 
L 3425 0 
L 2847 0 
L 2847 2094 
Q 2847 2600 2669 2842 
Q 2491 3084 2119 3084 
Q 1678 3084 1418 2786 
Q 1159 2488 1159 1978 
L 1159 0 
L 581 0 
L 581 3500 
L 1159 3500 
L 1159 2956 
Q 1356 3278 1631 3431 
Q 1906 3584 2284 3584 
Q 2666 3584 2933 3390 
Q 3200 3197 3328 2828 
z
" transform="scale(0.015625)"/>
      </defs>
      <use xlink:href="#DejaVuSans-54"/>
      <use xlink:href="#DejaVuSans-69" transform="translate(57.958984 0)"/>
      <use xlink:href="#DejaVuSans-6d" transform="translate(85.742188 0)"/>
      <use xlink:href="#DejaVuSans-65" transform="translate(183.154297 0)"/>
     </g>
    </g>
    <g id="text_30">
     <!-- 2025-Nov -->
     <g transform="translate(528.622957 358.119832) scale(0.1 -0.1)">
      <defs>
       <path id="DejaVuSans-2d" d="M 313 2009 
L 1997 2009 
L 1997 1497 
L 313 1497 
L 313 2009 
z
" transform="scale(0.015625)"/>
      </defs>
      <use xlink:href="#DejaVuSans-32"/>
      <use xlink:href="#DejaVuSans-30" transform="translate(63.623047 0)"/>
      <use xlink:href="#DejaVuSans-32" transform="translate(127.246094 0)"/>
      <use xlink:href="#DejaVuSans-35" transform="translate(190.869141 0)"/>
      <use xlink:href="#DejaVuSans-2d" transform="translate(254.492188 0)"/>
      <use xlink:href="#DejaVuSans-4e" transform="translate(290.576172 0)"/>
      <use xlink:href="#DejaVuSans-6f" transform="translate(365.380859 0)"/>
      <use xlink:href="#DejaVuSans-76" transform="translate(426.5625 0)"/>
     </g>
    </g>
   </g>
   <g id="matplotlib.axis_6">
    <g id="ytick_8">
     <g id="line2d_67">
      <g>
       <use xlink:href="#ma2e1c59fff" x="53.328125" y="330.055537" style="stroke: #000000; stroke-width: 0.8"/>
      </g>
     </g>
     <g id="text_31">
      <!-- 15 -->
      <g transform="translate(25.223438 333.854756) scale(0.1 -0.1)">
       <defs>
        <path id="DejaVuSans-2212" d="M 678 2272 
L 4684 2272 
L 4684 1741 
L 678 1741 
L 678 2272 
z
" transform="scale(0.015625)"/>
       </defs>
       <use xlink:href="#DejaVuSans-2212"/>
       <use xlink:href="#DejaVuSans-31" transform="translate(83.789062 0)"/>
       <use xlink:href="#DejaVuSans-35" transform="translate(147.412109 0)"/>
      </g>
     </g>
    </g>
    <g id="ytick_9">
     <g id="line2d_68">
      <g>
       <use xlink:href="#ma2e1c59fff" x="53.328125" y="298.007567" style="stroke: #000000; stroke-width: 0.8"/>
      </g>
     </g>
     <g id="text_32">
      <!-- 10 -->
      <g transform="translate(25.223438 301.806786) scale(0.1 -0.1)">
       <use xlink:href="#DejaVuSans-2212"/>
       <use xlink:href="#DejaVuSans-31" transform="translate(83.789062 0)"/>
       <use xlink:href="#DejaVuSans-30" transform="translate(147.412109 0)"/>
      </g>
     </g>
    </g>
    <g id="ytick_10">
     <g id="line2d_69">
      <g>
       <use xlink:href="#ma2e1c59fff" x="53.328125" y="265.959596" style="stroke: #000000; stroke-width: 0.8"/>
      </g>
     </g>
     <g id="text_33">
      <!-- 5 -->
      <g transform="translate(31.585938 269.758815) scale(0.1 -0.1)">
       <use xlink:href="#DejaVuSans-2212"/>
       <use xlink:href="#DejaVuSans-35" transform="translate(83.789062 0)"/>
      </g>
     </g>
    </g>
    <g id="ytick_11">
     <g id="line2d_70">
      <g>
       <use xlink:href="#ma2e1c59fff" x="53.328125" y="233.911626" style="stroke: #000000; stroke-width: 0.8"/>
      </g>
     </g>
     <g id="text_34">
      <!-- 0 -->
      <g transform="translate(39.965625 237.710845) scale(0.1 -0.1)">
       <use xlink:href="#DejaVuSans-30"/>
      </g>
     </g>
    </g>
    <g id="text_35">
     <!-- Drawdown, % -->
     <g transform="translate(14.798438 314.548458) rotate(-90) scale(0.1 -0.1)">
      <defs>
       <path id="DejaVuSans-44" d="M 1259 4147 
L 1259 519 
L 2022 519 
Q 2988 519 3436 956 
Q 3884 1394 3884 2338 
Q 3884 3275 3436 3711 
Q 2988 4147 2022 4147 
L 1259 4147 
z
M 628 4666 
L 1925 4666 
Q 3281 4666 3915 4102 
Q 4550 3538 4550 2338 
Q 4550 1131 3912 565 
Q 3275 0 1925 0 
L 628 0 
L 628 4666 
z
" transform="scale(0.015625)"/>
       <path id="DejaVuSans-61" d="M 2194 1759 
Q 1497 1759 1228 1600 
Q 959 1441 959 1056 
Q 959 750 1161 570 
Q 1363 391 1709 391 
Q 2188 391 2477 730 
Q 2766 1069 2766 1631 
L 2766 1759 
L 2194 1759 
z
M 3341 1997 
L 3341 0 
L 2766 0 
L 2766 531 
Q 2569 213 2275 61 
Q 1981 -91 1556 -91 
Q 1019 -91 701 211 
Q 384 513 384 1019 
Q 384 1609 779 1909 
Q 1175 2209 1959 2209 
L 2766 2209 
L 2766 2266 
Q 2766 2663 2505 2880 
Q 2244 3097 1772 3097 
Q 1472 3097 1187 3025 
Q 903 2953 641 2809 
L 641 3341 
Q 956 3463 1253 3523 
Q 1550 3584 1831 3584 
Q 2591 3584 2966 3190 
Q 3341 2797 3341 1997 
z
" transform="scale(0.015625)"/>
       <path id="DejaVuSans-77" d="M 269 3500 
L 844 3500 
L 1563 769 
L 2278 3500 
L 2956 3500 
L 3675 769 
L 4391 3500 
L 4966 3500 
L 4050 0 
L 3372 0 
L 2619 2869 
L 1863 0 
L 1184 0 
L 269 3500 
z
" transform="scale(0.015625)"/>
       <path id="DejaVuSans-64" d="M 2906 2969 
L 2906 4863 
L 3481 4863 
L 3481 0 
L 2906 0 
L 2906 525 
Q 2725 213 2448 61 
Q 2172 -91 1784 -91 
Q 1150 -91 751 415 
Q 353 922 353 1747 
Q 353 2572 751 3078 
Q 1150 3584 1784 3584 
Q 2172 3584 2448 3432 
Q 2725 3281 2906 2969 
z
M 947 1747 
Q 947 1113 1208 752 
Q 1469 391 1925 391 
Q 2381 391 2643 752 
Q 2906 1113 2906 1747 
Q 2906 2381 2643 2742 
Q 2381 3103 1925 3103 
Q 1469 3103 1208 2742 
Q 947 2381 947 1747 
z
" transform="scale(0.015625)"/>
       <path id="DejaVuSans-6e" d="M 3513 2113 
L 3513 0 
L 2938 0 
L 2938 2094 
Q 2938 2591 2744 2837 
Q 2550 3084 2163 3084 
Q 1697 3084 1428 2787 
Q 1159 2491 1159 1978 
L 1159 0 
L 581 0 
L 581 3500 
L 1159 3500 
L 1159 2956 
Q 1366 3272 1645 3428 
Q 1925 3584 2291 3584 
Q 2894 3584 3203 3211 
Q 3513 2838 3513 2113 
z
" transform="scale(0.015625)"/>
       <path id="DejaVuSans-2c" d="M 750 794 
L 1409 794 
L 1409 256 
L 897 -744 
L 494 -744 
L 750 256 
L 750 794 
z
" transform="scale(0.015625)"/>
       <path id="DejaVuSans-20" transform="scale(0.015625)"/>
       <path id="DejaVuSans-25" d="M 4653 2053 
Q 4381 2053 4226 1822 
Q 4072 1591 4072 1178 
Q 4072 772 4226 539 
Q 4381 306 4653 306 
Q 4919 306 5073 539 
Q 5228 772 5228 1178 
Q 5228 1588 5073 1820 
Q 4919 2053 4653 2053 
z
M 4653 2450 
Q 5147 2450 5437 2106 
Q 5728 1763 5728 1178 
Q 5728 594 5436 251 
Q 5144 -91 4653 -91 
Q 4153 -91 3862 251 
Q 3572 594 3572 1178 
Q 3572 1766 3864 2108 
Q 4156 2450 4653 2450 
z
M 1428 4353 
Q 1159 4353 1004 4120 
Q 850 3888 850 3481 
Q 850 3069 1003 2837 
Q 1156 2606 1428 2606 
Q 1700 2606 1854 2837 
Q 2009 3069 2009 3481 
Q 2009 3884 1853 4118 
Q 1697 4353 1428 4353 
z
M 4250 4750 
L 4750 4750 
L 1831 -91 
L 1331 -91 
L 4250 4750 
z
M 1428 4750 
Q 1922 4750 2215 4408 
Q 2509 4066 2509 3481 
Q 2509 2891 2217 2550 
Q 1925 2209 1428 2209 
Q 931 2209 642 2551 
Q 353 2894 353 3481 
Q 353 4063 643 4406 
Q 934 4750 1428 4750 
z
" transform="scale(0.015625)"/>
      </defs>
      <use xlink:href="#DejaVuSans-44"/>
      <use xlink:href="#DejaVuSans-72" transform="translate(77.001953 0)"/>
      <use xlink:href="#DejaVuSans-61" transform="translate(118.115234 0)"/>
      <use xlink:href="#DejaVuSans-77" transform="translate(179.394531 0)"/>
      <use xlink:href="#DejaVuSans-64" transform="translate(261.181641 0)"/>
      <use xlink:href="#DejaVuSans-6f" transform="translate(324.658203 0)"/>
      <use xlink:href="#DejaVuSans-77" transform="translate(385.839844 0)"/>
      <use xlink:href="#DejaVuSans-6e" transform="translate(467.626953 0)"/>
      <use xlink:href="#DejaVuSans-2c" transform="translate(531.005859 0)"/>
      <use xlink:href="#DejaVuSans-20" transform="translate(562.792969 0)"/>
      <use xlink:href="#DejaVuSans-25" transform="translate(594.580078 0)"/>
     </g>
    </g>
   </g>
   <g id="line2d_71">
    <path d="M 58.464119 233.911626 
L 132.546979 233.911626 
L 134.07546 234.329648 
L 134.157476 233.911626 
L 134.910532 240.213561 
L 135.700869 237.700289 
L 136.849093 248.466096 
L 137.445574 244.602409 
L 138.690726 254.317893 
L 138.944231 261.857709 
L 139.943335 251.804621 
L 140.562183 251.992179 
L 140.800776 258.744252 
L 143.074857 258.706741 
L 143.283625 248.053469 
L 143.775721 252.479828 
L 144.43185 243.88969 
L 145.237098 243.402041 
L 146.124363 251.391994 
L 146.773035 244.302317 
L 147.973452 255.443239 
L 148.532652 254.24287 
L 149.427373 284.027017 
L 149.844909 269.885174 
L 150.978222 284.289598 
L 151.63435 290.666556 
L 152.543983 273.636326 
L 152.916783 279.863238 
L 153.833871 273.673837 
L 155.16104 275.099275 
L 155.489104 268.684805 
L 156.614961 265.908953 
L 156.987761 271.498169 
L 158.232914 272.661026 
L 158.411858 265.34628 
L 159.589907 276.93734 
L 160.059635 256.343515 
L 160.514451 255.743331 
L 161.647764 274.799183 
L 161.893812 271.835773 
L 162.676693 300.944713 
L 164.197717 303.683054 
L 164.69727 286.165174 
L 165.174454 285.527478 
L 166.203383 316.024344 
L 166.688023 294.642777 
L 167.702039 326.227477 
L 168.052472 318.237524 
L 169.446745 290.554022 
L 170.266905 290.666556 
L 171.124346 298.956602 
L 171.26601 298.356418 
L 172.473882 322.176233 
L 172.675194 313.248491 
L 174.129115 288.190796 
L 174.375163 293.142316 
L 175.344444 284.814759 
L 175.769436 290.366464 
L 176.619421 280.313377 
L 177.842205 287.140473 
L 178.625086 282.001395 
L 178.856222 284.664713 
L 180.325055 297.793745 
L 180.444351 295.843146 
L 181.197407 285.752547 
L 182.099584 285.189874 
L 183.247809 294.417708 
L 183.546049 291.791902 
L 185.014882 280.688492 
L 185.536802 283.651902 
L 186.737219 275.174298 
L 187.527555 285.715035 
L 188.4521 281.62628 
L 189.16042 272.923607 
L 189.667428 279.113008 
L 190.920037 265.646372 
L 191.546342 268.084621 
L 192.523078 260.207202 
L 192.925702 266.321579 
L 194.282695 260.132179 
L 195.758984 270.747939 
L 196.459848 269.772639 
L 197.354569 264.033377 
L 197.980873 263.433192 
L 198.644458 270.860473 
L 199.583914 269.134943 
L 200.210219 275.774483 
L 201.127307 274.048953 
L 201.790892 266.171533 
L 201.99966 268.197155 
L 215.88274 268.197155 
L 217.038421 269.16253 
L 217.314293 264.332444 
L 218.037525 275.472804 
L 218.92479 265.384156 
L 219.864246 269.201482 
L 220.490551 257.554742 
L 220.520375 258.995977 
L 221.526935 266.552725 
L 222.101048 260.865688 
L 222.764632 272.473476 
L 224.047065 264.254539 
L 224.934329 273.836807 
L 225.776858 277.225658 
L 226.679034 266.357964 
L 227.089115 271.421764 
L 228.170235 262.696447 
L 228.386459 273.87576 
L 229.0575 261.56683 
L 230.198268 257.86636 
L 231.316669 266.747487 
L 231.965341 270.253195 
L 232.561822 260.008737 
L 232.867518 262.696447 
L 233.993375 258.606454 
L 235.395103 265.656822 
L 235.991584 259.307596 
L 237.497697 259.736071 
L 242.120419 259.736071 
L 242.75418 255.710006 
L 243.626532 267.171449 
L 243.671268 264.538962 
L 245.125189 242.87157 
L 245.483077 249.959035 
L 246.631302 233.911626 
L 246.772966 233.911626 
L 247.36199 239.351561 
L 248.316359 233.911626 
L 248.808455 239.266077 
L 249.9194 233.989673 
L 250.284744 242.496774 
L 252.446985 235.628655 
L 252.484265 239.609042 
L 253.311882 237.345685 
L 254.407915 244.252827 
L 255.295179 247.999073 
L 255.503947 241.169978 
L 256.793836 245.189388 
L 257.666189 233.911626 
L 259.053005 242.198384 
L 259.515278 238.969272 
L 260.641134 244.454872 
L 260.678414 244.065822 
L 261.826639 251.691196 
L 262.288911 245.427496 
L 263.198544 253.714254 
L 264.21256 251.224336 
L 264.809041 245.038446 
L 265.793233 243.988012 
L 266.501554 250.407332 
L 266.88181 248.228654 
L 268.320819 255.231548 
L 268.380467 253.753159 
L 269.8493 258.61628 
L 270.527796 255.348262 
L 271.258485 264.841074 
L 271.690933 260.172478 
L 272.898806 267.953472 
L 273.390902 268.264711 
L 273.912822 262.934731 
L 274.554038 267.758947 
L 275.814103 261.300722 
L 276.656632 259.783429 
L 277.178552 267.019752 
L 277.640824 263.673925 
L 278.774137 259.355474 
L 280.011834 259.627809 
L 280.54121 261.689772 
L 280.981114 261.650867 
L 282.196443 258.810805 
L 282.263547 258.927519 
L 283.642908 265.619174 
L 284.358684 264.841074 
L 284.873149 259.394379 
L 285.372701 260.094668 
L 286.573118 271.182584 
L 286.96083 269.89872 
L 287.579678 262.623491 
L 288.459487 263.63502 
L 289.495871 259.160949 
L 291.19584 260.833863 
L 291.49408 254.959213 
L 292.329153 256.904461 
L 292.515553 254.258923 
L 293.514658 253.247394 
L 294.178242 259.238759 
L 359.418281 259.238759 
L 359.612137 258.38967 
L 360.902025 266.068675 
L 361.297194 262.865874 
L 362.080074 269.888884 
L 363.541451 267.959485 
L 364.048459 273.863444 
L 364.272139 274.635203 
L 364.726956 269.425828 
L 365.599308 269.657356 
L 385.65596 269.657356 
L 386.789273 271.148086 
L 387.169529 262.275633 
L 387.221721 262.552897 
L 388.742746 269.682547 
L 389.398874 276.257669 
L 389.59273 266.632641 
L 390.554555 262.90938 
L 391.605852 267.424825 
L 392.2247 264.493747 
L 392.52294 269.840984 
L 393.395293 265.523585 
L 393.522045 269.286456 
L 395.989982 263.780782 
L 396.303134 271.227305 
L 396.60883 265.998895 
L 396.787775 271.029259 
L 398.38336 277.485553 
L 399.046944 258.077062 
L 399.72544 261.404232 
L 400.262273 266.315768 
L 401.097345 262.117197 
L 402.05917 253.007089 
L 403.341602 252.412951 
L 403.863523 261.364622 
L 404.542019 255.462857 
L 405.317444 265.246321 
L 406.159972 262.354852 
L 406.674436 256.849178 
L 407.330565 260.493221 
L 407.606437 257.720579 
L 413.444488 257.720579 
L 414.950601 268.5861 
L 415.040073 266.604116 
L 416.344874 290.185683 
L 416.859338 283.34986 
L 418.037387 302.32028 
L 418.372907 304.140469 
L 419.267628 294.432792 
L 419.632972 303.088804 
L 421.101805 289.417158 
L 421.474605 292.936191 
L 422.168014 283.552103 
L 422.868878 288.931774 
L 423.763598 297.304646 
L 424.307887 295.282213 
L 425.560496 286.181266 
L 426.11224 286.464406 
L 426.96968 293.906959 
L 427.335025 292.936191 
L 428.028433 312.998725 
L 429.400338 294.432792 
L 430.53365 308.549373 
L 430.787155 291.196899 
L 432.86738 302.967458 
L 433.344564 296.455224 
L 434.149813 306.52694 
L 434.992341 297.628235 
L 435.066901 298.437209 
L 436.476086 309.115654 
L 436.595382 306.082005 
L 437.415543 325.699603 
L 438.474295 325.173771 
L 439.674712 304.140469 
L 440.5918 307.902194 
L 441.031705 294.432792 
L 441.404505 302.198934 
L 442.000985 292.531705 
L 442.768954 294.756381 
L 443.439994 306.082005 
L 444.521115 305.92021 
L 445.214523 294.756381 
L 446.034684 296.212532 
L 446.832476 311.178536 
L 448.577181 310.329114 
L 448.905245 302.198934 
L 449.166205 303.169701 
L 449.598654 319.268267 
L 450.567934 314.899812 
L 451.082399 303.897777 
L 452.260447 306.162902 
L 453.289376 298.639452 
L 453.595072 300.419193 
L 454.527073 295.727149 
L 455.645473 296.738365 
L 456.13757 301.228166 
L 457.718243 299.28663 
L 458.091043 295.241765 
L 458.337091 294.513689 
L 458.859011 299.407976 
L 459.746276 297.385543 
L 498.323642 297.385543 
L 499.770107 299.405057 
L 499.911771 290.961569 
L 500.538076 303.542366 
L 502.484093 292.27031 
L 502.946365 297.631924 
L 502.961277 296.956445 
L 504.482302 304.935542 
L 505.511231 305.019977 
L 505.928767 292.819136 
L 507.039712 300.629363 
L 507.382688 286.528738 
L 507.740576 286.613172 
L 509.008097 292.27031 
L 509.142305 292.312527 
L 510.417282 281.758167 
L 511.640066 285.262214 
L 512.132163 281.124905 
L 512.900131 284.67117 
L 513.683012 281.04047 
L 513.876868 283.573517 
L 515.241316 277.029813 
L 515.696133 276.945379 
L 516.844357 279.73173 
L 516.918917 278.000815 
L 517.08295 280.027252 
L 518.395206 278.380772 
L 524.561322 278.380772 
L 525.977963 279.474026 
L 526.089803 274.084619 
L 526.432779 274.349672 
L 527.528812 292.638315 
L 527.819596 287.646487 
L 529.169133 301.915163 
L 529.482285 296.967511 
L 530.026573 305.979306 
L 530.749806 303.593831 
L 531.361198 297.232564 
L 532.345391 299.838916 
L 533.299759 292.59414 
L 534.813328 294.935439 
L 535.514192 304.874919 
L 536.244881 290.827121 
L 537.303633 298.602003 
L 537.601874 281.417747 
L 538.720274 293.124245 
L 539.070706 278.988096 
L 540.211475 286.851329 
L 541.411892 272.185074 
L 541.903988 270.197178 
L 542.44082 279.076447 
L 543.171509 274.835602 
L 544.140789 266.795667 
L 544.752182 264.940297 
L 545.63199 272.450127 
L 546.921879 261.052856 
L 547.6302 267.590825 
L 547.913528 265.072824 
L 548.905176 270.241353 
L 549.568761 263.394156 
L 550.329273 270.903985 
L 551.701178 257.430468 
L 552.215642 269.136967 
L 552.759931 248.374497 
L 553.930523 248.462848 
L 555.108572 259.639241 
L 555.623036 256.370257 
L 556.637053 249.037129 
L 557.569053 247.579339 
L 557.867294 252.659518 
L 558.54579 247.844392 
L 560.283039 258.0931 
L 561.013727 248.904603 
L 561.610208 250.097341 
L 563.004481 259.418364 
L 563.317633 257.60717 
L 564.219809 249.478884 
L 564.935586 257.253766 
L 566.053986 244.796285 
L 566.240386 247.005058 
L 567.373699 258.711557 
L 567.783779 257.430468 
L 569.394276 269.136967 
L 570.855653 259.285838 
L 571.42231 259.904294 
L 571.728006 251.996886 
L 572.063526 253.852255 
L 572.063526 253.852255 
" clip-path="url(#p702c05ddce)" style="fill: none; stroke: #7a738c; stroke-width: 1.5; stroke-linecap: square"/>
   </g>
   <g id="patch_13">
    <path d="M 53.328125 330.84327 
L 53.328125 229.295833 
" style="fill: none; stroke: #000000; stroke-width: 0.8; stroke-linejoin: miter; stroke-linecap: square"/>
   </g>
   <g id="patch_14">
    <path d="M 577.19952 330.84327 
L 577.19952 229.295833 
" style="fill: none; stroke: #000000; stroke-width: 0.8; stroke-linejoin: miter; stroke-linecap: square"/>
   </g>
   <g id="patch_15">
    <path d="M 53.328125 330.84327 
L 577.19952 330.84327 
" style="fill: none; stroke: #000000; stroke-width: 0.8; stroke-linejoin: miter; stroke-linecap: square"/>
   </g>
   <g id="patch_16">
    <path d="M 53.328125 229.295833 
L 577.19952 229.295833 
" style="fill: none; stroke: #000000; stroke-width: 0.8; stroke-linejoin: miter; stroke-linecap: square"/>
   </g>
  </g>
 </g>
 <defs>
  <clipPath id="pc0d06aef0c">
   <rect x="53.328125" y="7.2" width="523.871395" height="101.547437"/>
  </clipPath>
  <clipPath id="pc35d4cc647">
   <rect x="53.328125" y="118.247917" width="523.871395" height="101.547437"/>
  </clipPath>
  <clipPath id="p702c05ddce">
   <rect x="53.328125" y="229.295833" width="523.871395" height="101.547437"/>
  </clipPath>
 </defs>
</svg>
