<?xml version="1.0" encoding="utf-8" standalone="no"?>
<!DOCTYPE svg PUBLIC "-//W3C//DTD SVG 1.1//EN"
  "http://www.w3.org/Graphics/SVG/1.1/DTD/svg11.dtd">
<svg xmlns:xlink="http://www.w3.org/1999/xlink"   viewBox="0 0 584.399521 368.39952" xmlns="http://www.w3.org/2000/svg" version="1.1" preserveAspectRatio="xMidYMid meet" style="width:100%;height:auto;aspect-ratio:8 / 5;display:block;">
 <metadata>
  <rdf:RDF xmlns:dc="http://purl.org/dc/elements/1.1/" xmlns:cc="http://creativecommons.org/ns#" xmlns:rdf="http://www.w3.org/1999/02/22-rdf-syntax-ns#">
   <cc:Work>
    <dc:type rdf:resource="http://purl.org/dc/dcmitype/StillImage"/>
    <dc:date>2025-12-03T00:18:42.750515</dc:date>
    <dc:format>image/svg+xml</dc:format>
    <dc:creator>
     <cc:Agent>
      <dc:title>Matplotlib v3.10.7, https://matplotlib.org/</dc:title>
     </cc:Agent>
    </dc:creator>
   </cc:Work>
  </rdf:RDF>
 </metadata>
 <defs>
  <style type="text/css">*{stroke-linejoin: round; stroke-linecap: butt}</style>
 </defs>
 <g id="figure_1">
  <g id="patch_1">
   <path d="M 0 368.39952 
L 584.399521 368.39952 
L 584.399521 0 
L 0 0 
z
" style="fill: #ffffff"/>
  </g>
  <g id="axes_1">
   <g id="patch_2">
    <path d="M 53.328125 106.740336 
L 574.210871 106.740336 
L 574.210871 7.2 
L 53.328125 7.2 
z
" style="fill: #ffffff"/>
   </g>
   <g id="matplotlib.axis_1">
    <g id="xtick_1">
     <g id="line2d_1">
      <defs>
       <path id="mf351f5711f" d="M 0 0 
L 0 3.5 
" style="stroke: #000000; stroke-width: 0.8"/>
      </defs>
      <g>
       <use xlink:href="#mf351f5711f" x="58.434077" y="106.740336" style="stroke: #000000; stroke-width: 0.8"/>
      </g>
     </g>
    </g>
    <g id="xtick_2">
     <g id="line2d_2">
      <g>
       <use xlink:href="#mf351f5711f" x="90.459261" y="106.740336" style="stroke: #000000; stroke-width: 0.8"/>
      </g>
     </g>
    </g>
    <g id="xtick_3">
     <g id="line2d_3">
      <g>
       <use xlink:href="#mf351f5711f" x="122.484445" y="106.740336" style="stroke: #000000; stroke-width: 0.8"/>
      </g>
     </g>
    </g>
    <g id="xtick_4">
     <g id="line2d_4">
      <g>
       <use xlink:href="#mf351f5711f" x="154.509629" y="106.740336" style="stroke: #000000; stroke-width: 0.8"/>
      </g>
     </g>
    </g>
    <g id="xtick_5">
     <g id="line2d_5">
      <g>
       <use xlink:href="#mf351f5711f" x="186.534813" y="106.740336" style="stroke: #000000; stroke-width: 0.8"/>
      </g>
     </g>
    </g>
    <g id="xtick_6">
     <g id="line2d_6">
      <g>
       <use xlink:href="#mf351f5711f" x="218.559997" y="106.740336" style="stroke: #000000; stroke-width: 0.8"/>
      </g>
     </g>
    </g>
    <g id="xtick_7">
     <g id="line2d_7">
      <g>
       <use xlink:href="#mf351f5711f" x="250.585181" y="106.740336" style="stroke: #000000; stroke-width: 0.8"/>
      </g>
     </g>
    </g>
    <g id="xtick_8">
     <g id="line2d_8">
      <g>
       <use xlink:href="#mf351f5711f" x="282.610365" y="106.740336" style="stroke: #000000; stroke-width: 0.8"/>
      </g>
     </g>
    </g>
    <g id="xtick_9">
     <g id="line2d_9">
      <g>
       <use xlink:href="#mf351f5711f" x="314.635549" y="106.740336" style="stroke: #000000; stroke-width: 0.8"/>
      </g>
     </g>
    </g>
    <g id="xtick_10">
     <g id="line2d_10">
      <g>
       <use xlink:href="#mf351f5711f" x="346.660733" y="106.740336" style="stroke: #000000; stroke-width: 0.8"/>
      </g>
     </g>
    </g>
    <g id="xtick_11">
     <g id="line2d_11">
      <g>
       <use xlink:href="#mf351f5711f" x="378.685917" y="106.740336" style="stroke: #000000; stroke-width: 0.8"/>
      </g>
     </g>
    </g>
    <g id="xtick_12">
     <g id="line2d_12">
      <g>
       <use xlink:href="#mf351f5711f" x="410.711101" y="106.740336" style="stroke: #000000; stroke-width: 0.8"/>
      </g>
     </g>
    </g>
    <g id="xtick_13">
     <g id="line2d_13">
      <g>
       <use xlink:href="#mf351f5711f" x="442.736285" y="106.740336" style="stroke: #000000; stroke-width: 0.8"/>
      </g>
     </g>
    </g>
    <g id="xtick_14">
     <g id="line2d_14">
      <g>
       <use xlink:href="#mf351f5711f" x="474.761469" y="106.740336" style="stroke: #000000; stroke-width: 0.8"/>
      </g>
     </g>
    </g>
    <g id="xtick_15">
     <g id="line2d_15">
      <g>
       <use xlink:href="#mf351f5711f" x="506.786653" y="106.740336" style="stroke: #000000; stroke-width: 0.8"/>
      </g>
     </g>
    </g>
    <g id="xtick_16">
     <g id="line2d_16">
      <g>
       <use xlink:href="#mf351f5711f" x="538.811837" y="106.740336" style="stroke: #000000; stroke-width: 0.8"/>
      </g>
     </g>
    </g>
    <g id="xtick_17">
     <g id="line2d_17">
      <g>
       <use xlink:href="#mf351f5711f" x="570.837021" y="106.740336" style="stroke: #000000; stroke-width: 0.8"/>
      </g>
     </g>
    </g>
   </g>
   <g id="matplotlib.axis_2">
    <g id="ytick_1">
     <g id="line2d_18">
      <defs>
       <path id="mfcffef8afe" d="M 0 0 
L -3.5 0 
" style="stroke: #000000; stroke-width: 0.8"/>
      </defs>
      <g>
       <use xlink:href="#mfcffef8afe" x="53.328125" y="80.960059" style="stroke: #000000; stroke-width: 0.8"/>
      </g>
     </g>
     <g id="text_1">
      <!-- 2.00 -->
      <g transform="translate(24.0625 84.759278) scale(0.1 -0.1)">
       <defs>
        <path id="DejaVuSans-32" d="M 1228 531 
L 3431 531 
L 3431 0 
L 469 0 
L 469 531 
Q 828 903 1448 1529 
Q 2069 2156 2228 2338 
Q 2531 2678 2651 2914 
Q 2772 3150 2772 3378 
Q 2772 3750 2511 3984 
Q 2250 4219 1831 4219 
Q 1534 4219 1204 4116 
Q 875 4013 500 3803 
L 500 4441 
Q 881 4594 1212 4672 
Q 1544 4750 1819 4750 
Q 2544 4750 2975 4387 
Q 3406 4025 3406 3419 
Q 3406 3131 3298 2873 
Q 3191 2616 2906 2266 
Q 2828 2175 2409 1742 
Q 1991 1309 1228 531 
z
" transform="scale(0.015625)"/>
        <path id="DejaVuSans-2e" d="M 684 794 
L 1344 794 
L 1344 0 
L 684 0 
L 684 794 
z
" transform="scale(0.015625)"/>
        <path id="DejaVuSans-30" d="M 2034 4250 
Q 1547 4250 1301 3770 
Q 1056 3291 1056 2328 
Q 1056 1369 1301 889 
Q 1547 409 2034 409 
Q 2525 409 2770 889 
Q 3016 1369 3016 2328 
Q 3016 3291 2770 3770 
Q 2525 4250 2034 4250 
z
M 2034 4750 
Q 2819 4750 3233 4129 
Q 3647 3509 3647 2328 
Q 3647 1150 3233 529 
Q 2819 -91 2034 -91 
Q 1250 -91 836 529 
Q 422 1150 422 2328 
Q 422 3509 836 4129 
Q 1250 4750 2034 4750 
z
" transform="scale(0.015625)"/>
       </defs>
       <use xlink:href="#DejaVuSans-32"/>
       <use xlink:href="#DejaVuSans-2e" transform="translate(63.623047 0)"/>
       <use xlink:href="#DejaVuSans-30" transform="translate(95.410156 0)"/>
       <use xlink:href="#DejaVuSans-30" transform="translate(159.033203 0)"/>
      </g>
     </g>
    </g>
    <g id="ytick_2">
     <g id="line2d_19">
      <g>
       <use xlink:href="#mfcffef8afe" x="53.328125" y="51.091423" style="stroke: #000000; stroke-width: 0.8"/>
      </g>
     </g>
     <g id="text_2">
      <!-- 2.25 -->
      <g transform="translate(24.0625 54.890642) scale(0.1 -0.1)">
       <defs>
        <path id="DejaVuSans-35" d="M 691 4666 
L 3169 4666 
L 3169 4134 
L 1269 4134 
L 1269 2991 
Q 1406 3038 1543 3061 
Q 1681 3084 1819 3084 
Q 2600 3084 3056 2656 
Q 3513 2228 3513 1497 
Q 3513 744 3044 326 
Q 2575 -91 1722 -91 
Q 1428 -91 1123 -41 
Q 819 9 494 109 
L 494 744 
Q 775 591 1075 516 
Q 1375 441 1709 441 
Q 2250 441 2565 725 
Q 2881 1009 2881 1497 
Q 2881 1984 2565 2268 
Q 2250 2553 1709 2553 
Q 1456 2553 1204 2497 
Q 953 2441 691 2322 
L 691 4666 
z
" transform="scale(0.015625)"/>
       </defs>
       <use xlink:href="#DejaVuSans-32"/>
       <use xlink:href="#DejaVuSans-2e" transform="translate(63.623047 0)"/>
       <use xlink:href="#DejaVuSans-32" transform="translate(95.410156 0)"/>
       <use xlink:href="#DejaVuSans-35" transform="translate(159.033203 0)"/>
      </g>
     </g>
    </g>
    <g id="ytick_3">
     <g id="line2d_20">
      <g>
       <use xlink:href="#mfcffef8afe" x="53.328125" y="21.222787" style="stroke: #000000; stroke-width: 0.8"/>
      </g>
     </g>
     <g id="text_3">
      <!-- 2.50 -->
      <g transform="translate(24.0625 25.022006) scale(0.1 -0.1)">
       <use xlink:href="#DejaVuSans-32"/>
       <use xlink:href="#DejaVuSans-2e" transform="translate(63.623047 0)"/>
       <use xlink:href="#DejaVuSans-35" transform="translate(95.410156 0)"/>
       <use xlink:href="#DejaVuSans-30" transform="translate(159.033203 0)"/>
      </g>
     </g>
    </g>
    <g id="text_4">
     <!-- Price -->
     <g transform="translate(14.798438 69.167824) rotate(-90) scale(0.1 -0.1)">
      <defs>
       <path id="DejaVuSans-50" d="M 1259 4147 
L 1259 2394 
L 2053 2394 
Q 2494 2394 2734 2622 
Q 2975 2850 2975 3272 
Q 2975 3691 2734 3919 
Q 2494 4147 2053 4147 
L 1259 4147 
z
M 628 4666 
L 2053 4666 
Q 2838 4666 3239 4311 
Q 3641 3956 3641 3272 
Q 3641 2581 3239 2228 
Q 2838 1875 2053 1875 
L 1259 1875 
L 1259 0 
L 628 0 
L 628 4666 
z
" transform="scale(0.015625)"/>
       <path id="DejaVuSans-72" d="M 2631 2963 
Q 2534 3019 2420 3045 
Q 2306 3072 2169 3072 
Q 1681 3072 1420 2755 
Q 1159 2438 1159 1844 
L 1159 0 
L 581 0 
L 581 3500 
L 1159 3500 
L 1159 2956 
Q 1341 3275 1631 3429 
Q 1922 3584 2338 3584 
Q 2397 3584 2469 3576 
Q 2541 3569 2628 3553 
L 2631 2963 
z
" transform="scale(0.015625)"/>
       <path id="DejaVuSans-69" d="M 603 3500 
L 1178 3500 
L 1178 0 
L 603 0 
L 603 3500 
z
M 603 4863 
L 1178 4863 
L 1178 4134 
L 603 4134 
L 603 4863 
z
" transform="scale(0.015625)"/>
       <path id="DejaVuSans-63" d="M 3122 3366 
L 3122 2828 
Q 2878 2963 2633 3030 
Q 2388 3097 2138 3097 
Q 1578 3097 1268 2742 
Q 959 2388 959 1747 
Q 959 1106 1268 751 
Q 1578 397 2138 397 
Q 2388 397 2633 464 
Q 2878 531 3122 666 
L 3122 134 
Q 2881 22 2623 -34 
Q 2366 -91 2075 -91 
Q 1284 -91 818 406 
Q 353 903 353 1747 
Q 353 2603 823 3093 
Q 1294 3584 2113 3584 
Q 2378 3584 2631 3529 
Q 2884 3475 3122 3366 
z
" transform="scale(0.015625)"/>
       <path id="DejaVuSans-65" d="M 3597 1894 
L 3597 1613 
L 953 1613 
Q 991 1019 1311 708 
Q 1631 397 2203 397 
Q 2534 397 2845 478 
Q 3156 559 3463 722 
L 3463 178 
Q 3153 47 2828 -22 
Q 2503 -91 2169 -91 
Q 1331 -91 842 396 
Q 353 884 353 1716 
Q 353 2575 817 3079 
Q 1281 3584 2069 3584 
Q 2775 3584 3186 3129 
Q 3597 2675 3597 1894 
z
M 3022 2063 
Q 3016 2534 2758 2815 
Q 2500 3097 2075 3097 
Q 1594 3097 1305 2825 
Q 1016 2553 972 2059 
L 3022 2063 
z
" transform="scale(0.015625)"/>
      </defs>
      <use xlink:href="#DejaVuSans-50"/>
      <use xlink:href="#DejaVuSans-72" transform="translate(58.552734 0)"/>
      <use xlink:href="#DejaVuSans-69" transform="translate(99.666016 0)"/>
      <use xlink:href="#DejaVuSans-63" transform="translate(127.449219 0)"/>
      <use xlink:href="#DejaVuSans-65" transform="translate(182.429688 0)"/>
     </g>
    </g>
   </g>
   <g id="line2d_21">
    <path d="M 58.434819 20.209643 
L 58.456132 20.091363 
L 59.845743 22.537007 
L 60.173964 21.945608 
L 61.209779 18.639747 
L 61.725555 19.220394 
L 63.051227 21.522668 
L 64.572979 19.661255 
L 64.935301 21.261019 
L 66.107519 20.540587 
L 67.599433 23.22757 
L 67.735836 22.392443 
L 67.974543 24.209651 
L 69.176599 23.358992 
L 72.245679 23.358992 
L 72.983111 20.218006 
L 74.006138 21.588379 
L 74.236319 20.48085 
L 75.664293 21.95875 
L 76.175807 19.793871 
L 76.908976 20.625414 
L 77.697559 18.235923 
L 78.388102 19.66006 
L 80.01642 16.730544 
L 81.448657 19.545364 
L 81.474233 20.084195 
L 82.279866 14.9444 
L 83.013035 15.975465 
L 84.32592 20.648114 
L 84.794807 18.942018 
L 85.319108 23.008931 
L 86.103429 20.857195 
L 87.556979 23.674405 
L 87.595342 23.538204 
L 88.993479 19.183357 
L 89.573194 22.554928 
L 90.434242 17.485623 
L 90.668685 17.69112 
L 92.143549 26.413956 
L 92.416356 24.54179 
L 93.217727 31.078242 
L 93.912532 26.897828 
L 95.008023 34.237149 
L 96.346483 33.543002 
L 96.572402 30.05793 
L 96.823896 31.507156 
L 97.795771 35.004176 
L 99.313261 33.300469 
L 99.863138 30.999389 
L 100.476954 29.630211 
L 100.822225 43.443858 
L 102.045595 34.364987 
L 102.936481 37.912186 
L 104.407081 49.564539 
L 105.067786 43.633822 
L 105.506835 48.768838 
L 106.964648 40.024496 
L 107.723393 41.122467 
L 108.908399 37.748506 
L 109.206782 37.551373 
L 110.447202 51.293335 
L 110.664595 44.338722 
L 111.91354 53.479719 
L 112.182084 47.743746 
L 112.889678 51.273025 
L 114.556359 46.388905 
L 114.918681 49.896678 
L 116.248616 51.933719 
L 116.777179 42.181012 
L 118.013337 57.463001 
L 118.281881 51.945666 
L 118.929798 62.359068 
L 120.886337 72.416435 
L 121.346699 58.35667 
L 121.883788 53.752121 
L 122.881239 60.68284 
L 123.614408 68.863262 
L 124.326264 54.116519 
L 124.420041 55.570524 
L 125.98442 49.968363 
L 126.679225 53.355466 
L 127.791767 50.852474 
L 128.094412 56.468972 
L 129.773881 55.873989 
L 130.413273 51.987482 
L 130.622141 53.312455 
L 131.768783 46.79034 
L 132.22062 52.017351 
L 133.18397 47.805873 
L 133.946978 49.100977 
L 135.127721 44.15951 
L 135.264125 45.862022 
L 136.402242 35.99462 
L 136.760301 37.038827 
L 137.246239 41.60395 
L 138.648638 38.835724 
L 139.471322 43.724623 
L 139.995623 42.271812 
L 140.353682 31.975496 
L 141.837071 37.461767 
L 142.676806 41.973126 
L 143.388662 43.539437 
L 144.053629 41.214463 
L 144.518254 42.241944 
L 145.886552 46.158319 
L 147.028932 47.864416 
L 147.365678 44.648161 
L 147.681111 44.042425 
L 148.917269 52.764067 
L 149.24549 51.393694 
L 149.663226 55.826199 
L 151.065625 51.907434 
L 151.726329 56.721064 
L 152.11849 54.326794 
L 152.438185 59.212108 
L 154.288159 57.201351 
L 155.059691 54.078287 
L 155.575467 57.789166 
L 156.636858 53.182228 
L 157.630046 55.771241 
L 157.958267 52.943279 
L 158.776688 52.632645 
L 159.582322 55.184621 
L 159.919068 53.121296 
L 160.997509 57.960015 
L 161.249003 55.956427 
L 162.020536 61.12848 
L 163.064875 62.69957 
L 163.43146 57.662523 
L 164.318083 60.968384 
L 165.801472 48.120091 
L 165.942138 50.882343 
L 166.977953 39.37097 
L 167.497991 41.149946 
L 168.512493 37.048385 
L 169.2755 39.44385 
L 170.451981 43.607538 
L 170.712 42.19057 
L 171.197938 45.363814 
L 171.990783 44.210884 
L 172.847568 41.103351 
L 173.725666 41.061535 
L 174.637865 45.670863 
L 175.486125 44.931316 
L 176.172405 41.276589 
L 176.858686 42.130832 
L 177.122967 44.220442 
L 178.128944 43.330357 
L 179.578232 47.985085 
L 179.676272 46.523911 
L 181.027519 51.513168 
L 181.304589 50.882343 
L 181.649861 48.581263 
L 183.201451 47.724631 
L 183.482784 50.494051 
L 184.275629 48.161907 
L 185.025849 46.550196 
L 185.805907 46.633828 
L 186.769257 48.606353 
L 187.843435 46.909814 
L 188.943189 52.148773 
L 190.213447 48.562147 
L 190.405264 49.044824 
L 191.586008 45.603957 
L 192.037844 45.795117 
L 193.606485 50.850085 
L 194.774441 47.208501 
L 195.946659 48.881144 
L 196.223729 41.90622 
L 196.577525 46.515548 
L 197.14019 41.517928 
L 198.704568 44.851268 
L 199.91515 38.474911 
L 200.690945 41.326769 
L 201.632982 42.314823 
L 201.910052 34.109311 
L 202.698635 37.339903 
L 203.248512 29.885886 
L 204.382367 32.814207 
L 205.051597 24.001765 
L 206.300542 28.319575 
L 207.27668 23.915743 
L 207.47276 25.001767 
L 208.781382 21.222787 
L 208.819745 21.53581 
L 210.034589 12.801026 
L 210.823172 18.516689 
L 211.633069 12.944396 
L 212.106218 13.983824 
L 212.489853 21.425894 
L 213.751586 19.596738 
L 214.403766 13.815365 
L 215.230712 16.688728 
L 216.437031 11.724561 
L 217.15315 19.839272 
L 219.067063 19.470095 
L 219.480536 13.038781 
L 219.970736 19.459343 
L 220.32027 14.411543 
L 221.100328 17.116447 
L 222.626343 24.922914 
L 223.299836 23.679184 
L 223.990379 28.043589 
L 224.365488 28.39126 
L 224.642558 25.183368 
L 225.989543 24.840476 
L 227.131923 27.312405 
L 227.315215 24.91694 
L 228.065435 29.201297 
L 228.781554 26.660074 
L 230.230842 30.394848 
L 230.601689 28.637377 
L 231.334858 31.797479 
L 231.837846 30.516712 
L 233.274346 35.559732 
L 233.461901 34.96236 
L 233.824223 31.852437 
L 235.294824 35.4307 
L 235.71256 31.652915 
L 236.880515 32.89784 
L 237.754351 34.606326 
L 238.197662 32.37932 
L 239.267578 35.559732 
L 239.885656 36.766425 
L 240.729653 30.043593 
L 241.045086 31.325555 
L 242.558313 28.546577 
L 243.470512 29.658885 
L 243.815784 27.280146 
L 244.122692 27.37931 
L 245.567717 41.76524 
L 246.138907 41.844093 
L 246.377613 38.397253 
L 247.622296 43.063929 
L 249.259138 33.943242 
L 249.629986 37.461767 
L 250.444144 35.640975 
L 251.752766 31.210859 
L 252.767268 33.986253 
L 253.150903 20.26938 
L 253.34272 27.013718 
L 254.838897 19.680371 
L 255.491076 18.994587 
L 255.891762 23.189338 
L 256.727233 24.343462 
L 257.485978 18.545363 
L 258.091269 19.662449 
L 258.89264 24.449795 
L 260.52522 19.258626 
L 260.977057 27.833314 
L 261.002633 26.731758 
L 262.511597 38.557349 
L 262.852606 36.517918 
L 264.003511 44.809452 
L 264.255005 47.901453 
L 265.555101 42.743737 
L 266.428937 39.760457 
L 266.795521 44.854852 
L 267.277196 46.406826 
L 268.304486 40.73537 
L 268.709434 43.194156 
L 269.736723 51.449847 
L 271.147647 48.909818 
L 271.296839 42.375755 
L 271.799827 42.630236 
L 273.193701 48.155934 
L 273.696689 45.21686 
L 275.06925 53.976733 
L 275.307956 45.644579 
L 276.339508 48.468957 
L 277.660918 40.937282 
L 278.078653 40.638595 
L 279.357437 48.10456 
L 279.540729 43.063929 
L 280.435877 51.055581 
L 281.365127 46.989862 
L 282.047145 53.54543 
L 282.597021 52.284974 
L 283.897118 47.387712 
L 284.042047 48.660116 
L 284.638812 45.117696 
L 286.369432 48.362625 
L 287.047188 46.017339 
L 287.575751 46.688786 
L 288.551889 52.111736 
L 288.637142 51.687601 
L 289.988389 49.118899 
L 290.836649 51.821413 
L 291.535717 48.044822 
L 292.12822 48.448646 
L 293.654235 53.626673 
L 294.229688 48.955218 
L 294.779564 49.247931 
L 296.199014 51.609943 
L 296.842668 50.862032 
L 297.102688 55.362638 
L 298.266381 52.286169 
L 298.91856 56.578889 
L 299.809446 58.154758 
L 300.866573 50.66012 
L 301.672207 52.489275 
L 302.149619 49.597991 
L 302.652608 50.687599 
L 303.014929 48.891897 
L 304.54947 50.797516 
L 305.308214 47.869195 
L 305.500032 47.807068 
L 307.026047 53.828585 
L 307.128349 52.189394 
L 307.835943 56.106965 
L 308.573375 54.108155 
L 309.835108 61.488098 
L 310.598115 62.418805 
L 310.772882 53.825001 
L 312.286109 53.752121 
L 312.912713 59.163123 
L 314.012467 61.023342 
L 314.387576 53.965981 
L 314.877777 57.268257 
L 315.039756 51.398473 
L 316.506094 53.305287 
L 317.631424 49.246736 
L 318.232452 52.331569 
L 319.242691 49.513165 
L 319.690265 50.12129 
L 320.836907 48.257487 
L 321.015937 47.417581 
L 321.638278 49.359042 
L 322.37571 48.078275 
L 323.897462 56.466583 
L 324.40045 44.72343 
L 325.410689 59.259898 
L 325.973354 54.827392 
L 326.906866 63.682846 
L 327.192461 60.838157 
L 328.027933 67.443904 
L 328.522395 65.23243 
L 329.711664 60.649387 
L 330.056936 60.793951 
L 331.165214 66.721083 
L 332.341695 61.545446 
L 332.686967 67.976761 
L 333.85066 64.830996 
L 334.238557 60.304105 
L 335.338311 66.1034 
L 336.088531 59.535884 
L 336.280348 61.373403 
L 336.489216 57.814256 
L 338.121796 57.230025 
L 338.825127 60.621908 
L 339.750114 63.188221 
L 340.419344 57.367421 
L 340.794453 59.185824 
L 341.706652 52.626671 
L 342.324731 56.026917 
L 343.556626 52.581271 
L 344.332421 52.386527 
L 345.27872 56.793943 
L 345.713507 53.338739 
L 346.889988 58.019752 
L 347.512329 57.582475 
L 348.185821 55.149974 
L 348.629133 55.304096 
L 349.694786 59.992277 
L 349.997431 59.992277 
L 350.525995 65.875203 
L 351.911344 60.687619 
L 353.21144 65.589659 
L 353.462934 63.194195 
L 355.329958 64.023348 
L 356.118541 68.013798 
L 356.864498 63.281411 
L 357.30781 71.311295 
L 357.81506 69.792774 
L 359.166308 76.747387 
L 360.065719 77.901511 
L 360.675272 74.95049 
L 360.811676 75.06877 
L 362.209813 67.618337 
L 362.772477 69.626704 
L 363.578111 65.177472 
L 364.537198 66.324428 
L 365.074287 64.467793 
L 365.56875 66.796352 
L 366.110102 63.337564 
L 367.261007 66.954059 
L 367.981388 64.261102 
L 368.420437 65.016181 
L 369.230333 67.768875 
L 370.411077 68.146415 
L 371.702648 64.428367 
L 372.205636 69.911054 
L 373.015532 67.870428 
L 374.217589 82.943337 
L 374.861243 79.534728 
L 375.402595 84.069982 
L 376.17839 82.752178 
L 377.717192 74.991111 
L 378.680543 81.559822 
L 379.656681 77.854916 
L 380.68397 85.069984 
L 381.17417 81.136882 
L 381.817825 86.194239 
L 382.41459 82.182284 
L 383.744525 97.896771 
L 383.765838 93.242043 
L 384.302927 86.636295 
L 386.127325 91.408108 
L 386.82213 97.909913 
L 387.026736 102.215776 
L 387.943197 88.128532 
L 388.65079 85.477392 
L 389.58004 94.696048 
L 389.895473 91.049685 
L 390.317471 81.558627 
L 391.481164 84.723508 
L 392.363525 90.276684 
L 393.284249 85.280259 
L 394.119721 92.906319 
L 395.027657 89.163182 
L 396.063471 85.538324 
L 397.563911 89.860913 
L 398.497423 91.357929 
L 399.098451 86.673332 
L 399.614227 86.301766 
L 400.483799 92.01026 
L 401.118928 90.003088 
L 402.099329 93.503692 
L 402.448863 89.930208 
L 403.433526 93.790431 
L 403.791586 94.224123 
L 405.083157 88.53594 
L 405.240874 90.311332 
L 405.880265 87.061624 
L 407.099372 90.332837 
L 407.483007 88.311328 
L 408.650963 90.562229 
L 409.80613 87.138088 
L 409.848756 87.638686 
L 409.980897 85.165563 
L 411.40461 85.999496 
L 412.512888 75.271876 
L 413.088341 77.785621 
L 413.774621 72.091464 
L 414.601568 73.901503 
L 415.697059 79.080725 
L 416.012492 78.614774 
L 417.223074 74.822652 
L 418.246101 78.234845 
L 418.949432 75.13687 
L 419.639975 77.075942 
L 420.104599 73.583701 
L 420.769567 76.539501 
L 421.792593 71.520376 
L 422.628065 76.061603 
L 423.651092 72.129696 
L 424.290483 71.038893 
L 424.84036 74.255148 
L 425.407288 71.317269 
L 426.656233 75.822654 
L 426.971666 78.080723 
L 428.348489 68.367442 
L 429.695475 75.532331 
L 429.934181 74.928984 
L 430.37323 68.790382 
L 432.142213 74.292185 
L 432.79013 71.811894 
L 433.033099 76.381795 
L 434.87881 75.256345 
L 435.910362 69.36386 
L 436.630743 74.937348 
L 437.440639 68.680466 
L 437.551467 70.531126 
L 438.753524 55.805889 
L 439.043381 57.144004 
L 440.424467 46.809456 
L 440.594972 48.368598 
L 441.954745 53.080674 
L 442.679389 54.637428 
L 443.365669 49.423559 
L 443.826031 49.896678 
L 444.495261 53.213291 
L 445.710105 52.927747 
L 446.66493 50.26227 
L 446.694768 50.28497 
L 448.127006 55.905053 
L 448.344399 55.037667 
L 449.039205 58.908643 
L 450.69736 57.805893 
L 450.910491 55.256306 
L 451.784326 53.057974 
L 452.798828 61.673284 
L 453.011958 61.716295 
L 453.783491 56.112938 
L 454.503872 56.286176 
L 455.710191 63.277827 
L 456.660754 55.546629 
L 457.56869 60.724656 
L 458.250708 55.172674 
L 459.47834 58.49765 
L 459.891813 55.638624 
L 460.586619 57.474948 
L 461.618171 60.529912 
L 462.048694 59.962408 
L 463.370104 56.681637 
L 464.077697 56.467778 
L 465.02826 59.446278 
L 465.522723 58.873995 
L 466.40082 60.649387 
L 466.784455 59.976745 
L 467.457948 63.59324 
L 468.753782 63.262295 
L 469.606304 57.925367 
L 470.032565 59.085465 
L 470.953289 50.717468 
L 472.598657 55.599198 
L 473.007868 54.994657 
L 473.09312 52.856062 
L 474.88768 55.453439 
L 475.305415 53.324402 
L 476.588461 52.95881 
L 477.296055 56.167897 
L 477.611488 54.638622 
L 478.736818 57.393705 
L 479.205705 55.273032 
L 480.301196 58.310075 
L 481.187819 56.044838 
L 481.869837 58.856074 
L 482.522016 57.937315 
L 483.417165 60.192994 
L 483.847688 60.192994 
L 485.032694 57.693587 
L 485.036957 57.926562 
L 486.10261 54.93014 
L 486.695113 56.866823 
L 487.389918 53.560962 
L 488.242441 53.164307 
L 489.461548 55.723451 
L 489.789769 54.856066 
L 490.991825 57.991078 
L 491.183643 56.615926 
L 492.32176 61.00781 
L 492.709657 59.586063 
L 494.227147 57.06515 
L 494.653408 54.67566 
L 495.199022 57.506012 
L 496.094171 57.669692 
L 496.899804 51.414005 
L 497.31754 52.883541 
L 498.289416 58.525129 
L 499.555411 58.244364 
L 499.985935 54.079482 
L 500.633852 56.766464 
L 501.094214 48.114118 
L 502.85041 62.129676 
L 503.451438 60.649387 
L 503.924588 57.819035 
L 505.271573 58.008999 
L 505.629632 59.887139 
L 506.908416 60.052014 
L 507.55207 58.595619 
L 508.523945 60.245563 
L 509.031196 58.47495 
L 510.122425 58.284986 
L 511.19234 60.733019 
L 511.328743 58.40446 
L 512.901647 59.76647 
L 514.090916 58.498845 
L 514.223057 58.92059 
L 514.888024 54.437905 
L 516.358625 57.920588 
L 517.002279 54.523927 
L 518.089245 54.492864 
L 518.694536 57.241973 
L 519.581159 55.586056 
L 520.2035 58.259896 
L 520.344166 58.247948 
L 521.064548 55.350691 
L 521.976747 55.921779 
L 522.279392 57.292152 
L 524.210355 55.535876 
L 525.028776 58.259896 
L 525.297321 55.868016 
L 526.908588 58.035284 
L 527.888988 56.882354 
L 528.41329 55.979127 
L 528.669046 58.120111 
L 529.802901 57.574112 
L 530.510494 58.946875 
L 531.887318 56.197765 
L 532.599174 58.258701 
L 532.897557 58.635046 
L 534.06125 55.296927 
L 534.142239 55.814252 
L 534.922297 57.464195 
L 536.273545 56.675663 
L 537.070653 59.267066 
L 537.675944 57.517959 
L 538.571092 61.429556 
L 538.758647 61.428361 
L 539.483291 73.925398 
L 540.301712 70.72348 
L 541.810677 76.907483 
L 542.590735 78.919434 
L 543.332429 75.480957 
L 543.750165 77.006647 
L 544.240365 73.901503 
L 544.88402 74.240811 
L 546.294944 76.477375 
L 546.444135 75.480957 
L 547.373385 80.621946 
L 548.575441 75.086691 
L 549.351236 82.802357 
L 550.118506 82.512034 
L 551.005129 79.701992 
L 551.87044 82.368664 
L 552.27965 78.439147 
L 552.560983 79.85253 
L 553.238738 75.869249 
L 554.197825 75.868054 
L 555.186751 79.464238 
L 555.630063 77.22409 
L 557.211491 80.598052 
L 557.531187 77.680483 
L 558.937849 79.764119 
L 559.46215 77.882395 
L 560.519278 81.396142 
L 561.137356 78.618358 
L 561.92594 79.422422 
L 562.88929 76.061603 
L 563.366702 77.459455 
L 564.83304 70.144029 
L 565.344554 61.570536 
L 566.367581 62.441505 
L 567.642101 59.454641 
L 567.98311 59.054402 
L 568.626765 63.227647 
L 569.104177 60.988695 
L 569.104177 60.988695 
" clip-path="url(#p58810cdf67)" style="fill: none; stroke: #4169e1; stroke-width: 1.5; stroke-linecap: square"/>
   </g>
   <g id="patch_3">
    <path d="M 53.328125 106.740336 
L 53.328125 7.2 
" style="fill: none; stroke: #000000; stroke-width: 0.8; stroke-linejoin: miter; stroke-linecap: square"/>
   </g>
   <g id="patch_4">
    <path d="M 574.210871 106.740336 
L 574.210871 7.2 
" style="fill: none; stroke: #000000; stroke-width: 0.8; stroke-linejoin: miter; stroke-linecap: square"/>
   </g>
   <g id="patch_5">
    <path d="M 53.328125 106.740336 
L 574.210871 106.740336 
" style="fill: none; stroke: #000000; stroke-width: 0.8; stroke-linejoin: miter; stroke-linecap: square"/>
   </g>
   <g id="patch_6">
    <path d="M 53.328125 7.2 
L 574.210871 7.2 
" style="fill: none; stroke: #000000; stroke-width: 0.8; stroke-linejoin: miter; stroke-linecap: square"/>
   </g>
  </g>
  <g id="axes_2">
   <g id="patch_7">
    <path d="M 53.328125 219.380807 
L 574.210871 219.380807 
L 574.210871 119.840471 
L 53.328125 119.840471 
z
" style="fill: #ffffff"/>
   </g>
   <g id="matplotlib.axis_3">
    <g id="xtick_18">
     <g id="line2d_22">
      <g>
       <use xlink:href="#mf351f5711f" x="58.434077" y="219.380807" style="stroke: #000000; stroke-width: 0.8"/>
      </g>
     </g>
    </g>
    <g id="xtick_19">
     <g id="line2d_23">
      <g>
       <use xlink:href="#mf351f5711f" x="90.459261" y="219.380807" style="stroke: #000000; stroke-width: 0.8"/>
      </g>
     </g>
    </g>
    <g id="xtick_20">
     <g id="line2d_24">
      <g>
       <use xlink:href="#mf351f5711f" x="122.484445" y="219.380807" style="stroke: #000000; stroke-width: 0.8"/>
      </g>
     </g>
    </g>
    <g id="xtick_21">
     <g id="line2d_25">
      <g>
       <use xlink:href="#mf351f5711f" x="154.509629" y="219.380807" style="stroke: #000000; stroke-width: 0.8"/>
      </g>
     </g>
    </g>
    <g id="xtick_22">
     <g id="line2d_26">
      <g>
       <use xlink:href="#mf351f5711f" x="186.534813" y="219.380807" style="stroke: #000000; stroke-width: 0.8"/>
      </g>
     </g>
    </g>
    <g id="xtick_23">
     <g id="line2d_27">
      <g>
       <use xlink:href="#mf351f5711f" x="218.559997" y="219.380807" style="stroke: #000000; stroke-width: 0.8"/>
      </g>
     </g>
    </g>
    <g id="xtick_24">
     <g id="line2d_28">
      <g>
       <use xlink:href="#mf351f5711f" x="250.585181" y="219.380807" style="stroke: #000000; stroke-width: 0.8"/>
      </g>
     </g>
    </g>
    <g id="xtick_25">
     <g id="line2d_29">
      <g>
       <use xlink:href="#mf351f5711f" x="282.610365" y="219.380807" style="stroke: #000000; stroke-width: 0.8"/>
      </g>
     </g>
    </g>
    <g id="xtick_26">
     <g id="line2d_30">
      <g>
       <use xlink:href="#mf351f5711f" x="314.635549" y="219.380807" style="stroke: #000000; stroke-width: 0.8"/>
      </g>
     </g>
    </g>
    <g id="xtick_27">
     <g id="line2d_31">
      <g>
       <use xlink:href="#mf351f5711f" x="346.660733" y="219.380807" style="stroke: #000000; stroke-width: 0.8"/>
      </g>
     </g>
    </g>
    <g id="xtick_28">
     <g id="line2d_32">
      <g>
       <use xlink:href="#mf351f5711f" x="378.685917" y="219.380807" style="stroke: #000000; stroke-width: 0.8"/>
      </g>
     </g>
    </g>
    <g id="xtick_29">
     <g id="line2d_33">
      <g>
       <use xlink:href="#mf351f5711f" x="410.711101" y="219.380807" style="stroke: #000000; stroke-width: 0.8"/>
      </g>
     </g>
    </g>
    <g id="xtick_30">
     <g id="line2d_34">
      <g>
       <use xlink:href="#mf351f5711f" x="442.736285" y="219.380807" style="stroke: #000000; stroke-width: 0.8"/>
      </g>
     </g>
    </g>
    <g id="xtick_31">
     <g id="line2d_35">
      <g>
       <use xlink:href="#mf351f5711f" x="474.761469" y="219.380807" style="stroke: #000000; stroke-width: 0.8"/>
      </g>
     </g>
    </g>
    <g id="xtick_32">
     <g id="line2d_36">
      <g>
       <use xlink:href="#mf351f5711f" x="506.786653" y="219.380807" style="stroke: #000000; stroke-width: 0.8"/>
      </g>
     </g>
    </g>
    <g id="xtick_33">
     <g id="line2d_37">
      <g>
       <use xlink:href="#mf351f5711f" x="538.811837" y="219.380807" style="stroke: #000000; stroke-width: 0.8"/>
      </g>
     </g>
    </g>
    <g id="xtick_34">
     <g id="line2d_38">
      <g>
       <use xlink:href="#mf351f5711f" x="570.837021" y="219.380807" style="stroke: #000000; stroke-width: 0.8"/>
      </g>
     </g>
    </g>
   </g>
   <g id="matplotlib.axis_4">
    <g id="ytick_4">
     <g id="line2d_39">
      <g>
       <use xlink:href="#mfcffef8afe" x="53.328125" y="210.788824" style="stroke: #000000; stroke-width: 0.8"/>
      </g>
     </g>
     <g id="text_5">
      <!-- 1000 -->
      <g transform="translate(20.878125 214.588043) scale(0.1 -0.1)">
       <defs>
        <path id="DejaVuSans-31" d="M 794 531 
L 1825 531 
L 1825 4091 
L 703 3866 
L 703 4441 
L 1819 4666 
L 2450 4666 
L 2450 531 
L 3481 531 
L 3481 0 
L 794 0 
L 794 531 
z
" transform="scale(0.015625)"/>
       </defs>
       <use xlink:href="#DejaVuSans-31"/>
       <use xlink:href="#DejaVuSans-30" transform="translate(63.623047 0)"/>
       <use xlink:href="#DejaVuSans-30" transform="translate(127.246094 0)"/>
       <use xlink:href="#DejaVuSans-30" transform="translate(190.869141 0)"/>
      </g>
     </g>
    </g>
    <g id="ytick_5">
     <g id="line2d_40">
      <g>
       <use xlink:href="#mfcffef8afe" x="53.328125" y="180.539228" style="stroke: #000000; stroke-width: 0.8"/>
      </g>
     </g>
     <g id="text_6">
      <!-- 1200 -->
      <g transform="translate(20.878125 184.338446) scale(0.1 -0.1)">
       <use xlink:href="#DejaVuSans-31"/>
       <use xlink:href="#DejaVuSans-32" transform="translate(63.623047 0)"/>
       <use xlink:href="#DejaVuSans-30" transform="translate(127.246094 0)"/>
       <use xlink:href="#DejaVuSans-30" transform="translate(190.869141 0)"/>
      </g>
     </g>
    </g>
    <g id="ytick_6">
     <g id="line2d_41">
      <g>
       <use xlink:href="#mfcffef8afe" x="53.328125" y="150.289631" style="stroke: #000000; stroke-width: 0.8"/>
      </g>
     </g>
     <g id="text_7">
      <!-- 1400 -->
      <g transform="translate(20.878125 154.08885) scale(0.1 -0.1)">
       <defs>
        <path id="DejaVuSans-34" d="M 2419 4116 
L 825 1625 
L 2419 1625 
L 2419 4116 
z
M 2253 4666 
L 3047 4666 
L 3047 1625 
L 3713 1625 
L 3713 1100 
L 3047 1100 
L 3047 0 
L 2419 0 
L 2419 1100 
L 313 1100 
L 313 1709 
L 2253 4666 
z
" transform="scale(0.015625)"/>
       </defs>
       <use xlink:href="#DejaVuSans-31"/>
       <use xlink:href="#DejaVuSans-34" transform="translate(63.623047 0)"/>
       <use xlink:href="#DejaVuSans-30" transform="translate(127.246094 0)"/>
       <use xlink:href="#DejaVuSans-30" transform="translate(190.869141 0)"/>
      </g>
     </g>
    </g>
    <g id="ytick_7">
     <g id="line2d_42">
      <g>
       <use xlink:href="#mfcffef8afe" x="53.328125" y="120.040035" style="stroke: #000000; stroke-width: 0.8"/>
      </g>
     </g>
     <g id="text_8">
      <!-- 1600 -->
      <g transform="translate(20.878125 123.839254) scale(0.1 -0.1)">
       <defs>
        <path id="DejaVuSans-36" d="M 2113 2584 
Q 1688 2584 1439 2293 
Q 1191 2003 1191 1497 
Q 1191 994 1439 701 
Q 1688 409 2113 409 
Q 2538 409 2786 701 
Q 3034 994 3034 1497 
Q 3034 2003 2786 2293 
Q 2538 2584 2113 2584 
z
M 3366 4563 
L 3366 3988 
Q 3128 4100 2886 4159 
Q 2644 4219 2406 4219 
Q 1781 4219 1451 3797 
Q 1122 3375 1075 2522 
Q 1259 2794 1537 2939 
Q 1816 3084 2150 3084 
Q 2853 3084 3261 2657 
Q 3669 2231 3669 1497 
Q 3669 778 3244 343 
Q 2819 -91 2113 -91 
Q 1303 -91 875 529 
Q 447 1150 447 2328 
Q 447 3434 972 4092 
Q 1497 4750 2381 4750 
Q 2619 4750 2861 4703 
Q 3103 4656 3366 4563 
z
" transform="scale(0.015625)"/>
       </defs>
       <use xlink:href="#DejaVuSans-31"/>
       <use xlink:href="#DejaVuSans-36" transform="translate(63.623047 0)"/>
       <use xlink:href="#DejaVuSans-30" transform="translate(127.246094 0)"/>
       <use xlink:href="#DejaVuSans-30" transform="translate(190.869141 0)"/>
      </g>
     </g>
    </g>
    <g id="text_9">
     <!-- Equity -->
     <g transform="translate(14.798438 185.421576) rotate(-90) scale(0.1 -0.1)">
      <defs>
       <path id="DejaVuSans-45" d="M 628 4666 
L 3578 4666 
L 3578 4134 
L 1259 4134 
L 1259 2753 
L 3481 2753 
L 3481 2222 
L 1259 2222 
L 1259 531 
L 3634 531 
L 3634 0 
L 628 0 
L 628 4666 
z
" transform="scale(0.015625)"/>
       <path id="DejaVuSans-71" d="M 947 1747 
Q 947 1113 1208 752 
Q 1469 391 1925 391 
Q 2381 391 2643 752 
Q 2906 1113 2906 1747 
Q 2906 2381 2643 2742 
Q 2381 3103 1925 3103 
Q 1469 3103 1208 2742 
Q 947 2381 947 1747 
z
M 2906 525 
Q 2725 213 2448 61 
Q 2172 -91 1784 -91 
Q 1150 -91 751 415 
Q 353 922 353 1747 
Q 353 2572 751 3078 
Q 1150 3584 1784 3584 
Q 2172 3584 2448 3432 
Q 2725 3281 2906 2969 
L 2906 3500 
L 3481 3500 
L 3481 -1331 
L 2906 -1331 
L 2906 525 
z
" transform="scale(0.015625)"/>
       <path id="DejaVuSans-75" d="M 544 1381 
L 544 3500 
L 1119 3500 
L 1119 1403 
Q 1119 906 1312 657 
Q 1506 409 1894 409 
Q 2359 409 2629 706 
Q 2900 1003 2900 1516 
L 2900 3500 
L 3475 3500 
L 3475 0 
L 2900 0 
L 2900 538 
Q 2691 219 2414 64 
Q 2138 -91 1772 -91 
Q 1169 -91 856 284 
Q 544 659 544 1381 
z
M 1991 3584 
L 1991 3584 
z
" transform="scale(0.015625)"/>
       <path id="DejaVuSans-74" d="M 1172 4494 
L 1172 3500 
L 2356 3500 
L 2356 3053 
L 1172 3053 
L 1172 1153 
Q 1172 725 1289 603 
Q 1406 481 1766 481 
L 2356 481 
L 2356 0 
L 1766 0 
Q 1100 0 847 248 
Q 594 497 594 1153 
L 594 3053 
L 172 3053 
L 172 3500 
L 594 3500 
L 594 4494 
L 1172 4494 
z
" transform="scale(0.015625)"/>
       <path id="DejaVuSans-79" d="M 2059 -325 
Q 1816 -950 1584 -1140 
Q 1353 -1331 966 -1331 
L 506 -1331 
L 506 -850 
L 844 -850 
Q 1081 -850 1212 -737 
Q 1344 -625 1503 -206 
L 1606 56 
L 191 3500 
L 800 3500 
L 1894 763 
L 2988 3500 
L 3597 3500 
L 2059 -325 
z
" transform="scale(0.015625)"/>
      </defs>
      <use xlink:href="#DejaVuSans-45"/>
      <use xlink:href="#DejaVuSans-71" transform="translate(63.183594 0)"/>
      <use xlink:href="#DejaVuSans-75" transform="translate(126.660156 0)"/>
      <use xlink:href="#DejaVuSans-69" transform="translate(190.039062 0)"/>
      <use xlink:href="#DejaVuSans-74" transform="translate(217.822266 0)"/>
      <use xlink:href="#DejaVuSans-79" transform="translate(257.03125 0)"/>
     </g>
    </g>
   </g>
   <g id="line2d_43">
    <path d="M 58.434819 210.788824 
L 67.642059 210.788824 
L 67.974543 211.696296 
L 69.176599 211.263802 
L 72.245679 211.263802 
L 73.162141 209.573951 
L 74.006138 210.01495 
L 74.236319 210.578044 
L 75.664293 209.826645 
L 76.175807 210.92732 
L 76.908976 210.504544 
L 77.697559 211.719417 
L 78.388102 210.995353 
L 80.01642 212.484787 
L 81.448657 211.053667 
L 81.474233 210.779713 
L 82.279866 213.392905 
L 83.013035 212.868687 
L 83.388145 211.559661 
L 86.013914 212.36794 
L 86.985789 212.879852 
L 87.556979 211.750141 
L 87.595342 211.818499 
L 88.993479 214.004166 
L 89.573194 212.311998 
L 90.434242 214.856246 
L 90.668685 214.753109 
L 92.143549 210.37518 
L 92.416356 211.314807 
L 93.217727 208.034208 
L 93.912532 210.132328 
L 95.008023 206.448775 
L 96.346483 206.797163 
L 96.572402 208.546296 
L 96.823896 207.81894 
L 97.795771 206.06381 
L 99.313261 206.918889 
L 99.863138 208.073784 
L 100.476954 208.760965 
L 101.20586 201.423215 
L 101.46588 203.392389 
L 102.045595 205.600724 
L 102.936481 203.559458 
L 104.407081 196.854012 
L 105.067786 200.266893 
L 105.506835 197.311904 
L 106.964648 202.343911 
L 107.723393 201.712074 
L 108.908399 203.653649 
L 109.206782 203.767091 
L 110.332111 197.571789 
L 110.664595 200.11821 
L 111.91354 194.609274 
L 112.182084 198.066129 
L 112.889678 195.939166 
L 114.556359 198.882641 
L 114.918681 196.768638 
L 116.248616 195.54099 
L 116.777179 201.418581 
L 118.175316 191.710338 
L 118.362871 191.398944 
L 119.189817 198.115153 
L 120.072178 200.057494 
L 121.342436 187.207164 
L 121.883788 190.365519 
L 122.881239 185.730719 
L 123.50358 181.975745 
L 124.002306 188.834216 
L 124.420041 186.692048 
L 125.98442 182.975945 
L 126.679225 185.222725 
L 127.791767 184.757962 
L 128.094412 181.037203 
L 129.773881 181.431361 
L 130.413273 184.006054 
L 131.206119 184.719971 
L 131.768783 181.237885 
L 132.22062 184.698056 
L 133.18397 181.910147 
L 133.946978 182.767478 
L 135.127721 179.496331 
L 135.264125 180.623358 
L 136.397979 174.711407 
L 136.696362 174.711407 
L 138.188276 175.262711 
L 138.648638 174.595035 
L 139.471322 177.855335 
L 139.995623 176.886488 
L 140.353682 170.020098 
L 141.837071 173.528433 
L 142.676806 176.539361 
L 143.388662 177.584734 
L 144.053629 176.033021 
L 144.518254 176.718773 
L 145.886552 179.332604 
L 147.028932 180.471271 
L 147.365678 178.324708 
L 147.681111 177.920433 
L 148.942844 181.912809 
L 149.24549 182.425387 
L 150.080961 178.069666 
L 151.065625 180.382511 
L 151.726329 177.073402 
L 152.11849 178.719332 
L 152.438185 175.360944 
L 154.288159 176.74323 
L 155.059691 178.890168 
L 155.575467 176.33914 
L 156.636858 179.50616 
L 157.630046 177.726353 
L 157.958267 179.670424 
L 158.776688 179.883968 
L 159.582322 178.129623 
L 159.919068 179.548047 
L 160.997509 176.22169 
L 161.249003 177.599048 
L 162.020536 174.043543 
L 163.064875 175.392795 
L 163.43146 171.737665 
L 164.318083 174.136561 
L 165.801472 164.813204 
L 165.942138 166.81763 
L 166.977953 158.464408 
L 167.497991 158.785715 
L 168.512493 161.765042 
L 169.2755 160.025004 
L 170.451981 157.000549 
L 170.712 158.029818 
L 171.197938 155.72481 
L 171.990783 156.562285 
L 172.847568 158.819561 
L 173.563687 157.541219 
L 174.637865 159.596752 
L 175.486125 159.050825 
L 176.172405 156.352942 
L 176.858686 156.983536 
L 177.122967 158.526065 
L 178.128944 157.869013 
L 179.578232 161.305088 
L 179.676272 160.226464 
L 181.027519 163.909485 
L 181.304589 163.443816 
L 181.649861 161.745181 
L 182.843392 162.580388 
L 183.482784 160.114506 
L 184.275629 161.836072 
L 185.025849 163.025822 
L 185.805907 162.964086 
L 186.769257 161.507987 
L 187.843435 162.760356 
L 188.943189 158.893006 
L 190.213447 161.540619 
L 190.405264 161.184311 
L 191.586008 163.724327 
L 192.037844 163.583215 
L 193.606485 159.851685 
L 194.774441 162.539868 
L 195.946659 161.305138 
L 196.223729 166.453961 
L 196.577525 163.051399 
L 197.14019 166.740595 
L 198.704568 164.279955 
L 199.91515 168.986921 
L 200.690945 166.881707 
L 201.632982 166.152334 
L 201.910052 172.209565 
L 202.681585 170.169616 
L 204.211862 170.169616 
L 205.328666 170.025871 
L 205.746402 171.579345 
L 206.300542 172.466379 
L 207.27668 169.603326 
L 207.47276 170.30938 
L 208.781382 167.852561 
L 208.819745 168.056066 
L 210.034589 162.377342 
L 210.823172 166.093252 
L 211.633069 162.470551 
L 212.106218 163.146312 
L 212.489853 167.984607 
L 213.751586 166.795422 
L 214.403766 163.036792 
L 215.230712 164.904844 
L 216.437031 161.677502 
L 217.15315 166.9531 
L 219.067063 166.713088 
L 219.480536 162.531913 
L 219.561526 163.850036 
L 219.970736 166.706097 
L 221.100328 164.80934 
L 222.626343 159.733719 
L 223.299836 160.54237 
L 223.990379 157.704714 
L 224.365488 157.478665 
L 224.642558 159.564377 
L 225.989543 159.787319 
L 227.131923 158.149679 
L 227.315215 159.806532 
L 228.065435 156.843202 
L 228.781554 158.600872 
L 230.230842 156.017667 
L 230.601689 157.233244 
L 231.334858 155.047519 
L 231.837846 155.933378 
L 233.274346 152.445308 
L 233.461901 152.858489 
L 233.824223 155.009507 
L 235.294824 152.534555 
L 235.71256 155.147509 
L 236.880515 154.286441 
L 237.754351 153.104745 
L 238.197662 154.645081 
L 239.267578 152.445308 
L 239.885656 151.610684 
L 240.729653 156.260617 
L 241.045086 155.373932 
L 242.558313 157.296048 
L 243.470512 156.526706 
L 243.815784 158.17199 
L 244.122692 158.103402 
L 245.128668 152.274902 
L 246.138907 156.080721 
L 246.377613 153.527729 
L 247.622296 156.984223 
L 249.259138 150.22875 
L 250.661538 150.536014 
L 251.752766 153.471475 
L 252.767268 151.418773 
L 253.150903 161.563874 
L 253.34272 156.575711 
L 254.838897 161.99951 
L 255.491076 162.506721 
L 255.891762 159.404251 
L 256.727233 158.550653 
L 257.485978 162.83897 
L 257.980441 160.730599 
L 258.89264 164.20901 
L 260.52522 160.73321 
L 260.977057 166.474479 
L 261.002633 165.736921 
L 262.511597 173.654865 
L 262.852606 172.289344 
L 264.003511 177.841024 
L 264.255005 179.911304 
L 265.555101 176.457903 
L 266.428937 174.460419 
L 266.995864 178.191566 
L 267.277196 174.949658 
L 268.304486 178.750433 
L 268.709434 177.102657 
L 269.736723 171.73384 
L 271.147647 177.038654 
L 271.296839 172.578165 
L 271.799827 174.658025 
L 273.193701 170.887311 
L 273.696689 172.892923 
L 274.79218 168.231142 
L 274.804968 168.480766 
L 276.313932 159.495731 
L 276.339508 160.098664 
L 277.660918 165.735319 
L 278.078653 165.958854 
L 279.357437 160.371377 
L 279.540729 164.143751 
L 280.435877 158.162852 
L 281.365127 161.205609 
L 282.047145 156.299466 
L 282.597021 157.242783 
L 283.897118 160.90786 
L 284.042047 159.955602 
L 284.638812 162.606725 
L 286.369432 160.178243 
L 287.047188 161.933438 
L 287.575751 161.430932 
L 288.551889 157.372433 
L 288.637142 157.689853 
L 289.988389 159.612252 
L 290.836649 157.589709 
L 291.535717 160.416084 
L 292.12822 160.113865 
L 292.985005 157.988495 
L 293.249287 158.78875 
L 293.389953 157.158734 
L 294.753989 157.570038 
L 302.422427 157.570038 
L 303.014929 156.563517 
L 303.637271 158.457603 
L 304.54947 157.173174 
L 305.308214 159.393298 
L 305.500032 159.4404 
L 307.026047 154.875151 
L 307.128349 156.117913 
L 307.835943 153.147784 
L 308.816343 153.17224 
L 309.835108 158.847352 
L 310.598115 159.579142 
L 310.772882 152.822067 
L 312.286109 158.843398 
L 312.912713 154.590272 
L 314.012467 153.128113 
L 314.387576 158.675301 
L 314.877777 156.079664 
L 315.039756 160.693399 
L 316.506094 159.194616 
L 317.631424 162.384695 
L 318.232452 159.959972 
L 319.242691 162.175279 
L 319.690265 161.697283 
L 320.836907 163.162259 
L 321.015937 163.822438 
L 321.638278 162.296421 
L 322.37571 163.303123 
L 323.905987 156.652807 
L 324.40045 148.239401 
L 325.410689 159.53308 
L 325.973354 156.089376 
L 326.906866 162.969358 
L 327.192461 160.759261 
L 328.027933 165.891401 
L 328.522395 164.173262 
L 329.562473 161.12034 
L 330.056936 162.700224 
L 331.165214 158.095313 
L 332.341695 162.116372 
L 333.066339 156.584538 
L 333.202743 160.513541 
L 334.029689 156.072768 
L 335.338311 153.726903 
L 336.088531 159.040179 
L 336.280348 157.553583 
L 336.489216 160.433017 
L 338.121796 160.905673 
L 338.825127 158.16156 
L 339.750114 156.085352 
L 340.419344 160.794517 
L 340.794453 159.935248 
L 341.706652 154.850874 
L 342.324731 157.486599 
L 343.556626 154.815682 
L 344.332421 154.664725 
L 345.27872 158.081165 
L 345.393811 157.416214 
L 349.993169 157.416214 
L 350.525995 157.652086 
L 351.446719 154.577077 
L 351.911344 153.47838 
L 353.21144 157.422349 
L 353.462934 155.495062 
L 354.895172 157.859714 
L 356.118541 154.600283 
L 356.864498 158.413484 
L 357.30781 151.943268 
L 357.81506 153.166843 
L 359.166308 147.563045 
L 360.065719 146.63309 
L 360.675272 149.010926 
L 360.811676 148.91562 
L 362.209813 154.918932 
L 362.772477 153.300656 
L 363.578111 156.8857 
L 364.537198 155.961521 
L 365.074287 157.457536 
L 365.56875 155.58126 
L 366.110102 158.368237 
L 367.261007 155.454186 
L 367.981388 157.624081 
L 368.420437 157.015663 
L 369.694958 154.655772 
L 370.411077 156.355104 
L 371.702648 153.317584 
L 372.205636 157.796755 
L 373.015532 156.129633 
L 374.217589 168.443693 
L 374.861243 165.658974 
L 375.402595 169.364124 
L 376.17839 168.287522 
L 377.538163 162.844973 
L 377.657516 163.119248 
L 378.680543 157.22797 
L 379.656681 160.249766 
L 380.611506 155.025238 
L 380.688233 157.292824 
L 381.890289 150.132732 
L 383.727474 147.233578 
L 383.744525 155.609184 
L 383.765838 151.281207 
L 384.302927 145.139167 
L 386.127325 149.57601 
L 386.82213 155.621403 
L 387.026736 159.625004 
L 387.943197 146.526653 
L 388.65079 144.061617 
L 389.58004 152.633144 
L 389.895473 149.242747 
L 390.317471 140.41794 
L 391.481164 144.536552 
L 392.363525 139.369089 
L 393.284249 144.018471 
L 394.119721 136.922105 
L 395.027657 140.40525 
L 395.492282 143.494556 
L 396.063471 140.780852 
L 397.563911 144.861558 
L 398.497423 146.274805 
L 399.098451 141.852348 
L 399.614227 141.501574 
L 400.483799 146.890633 
L 401.118928 144.995777 
L 402.099329 148.300495 
L 402.31246 146.99891 
L 402.355086 145.155938 
L 403.706334 145.455957 
L 406.771151 145.455957 
L 407.099372 145.210578 
L 407.483007 147.115496 
L 408.650963 144.994417 
L 409.80613 148.22107 
L 409.848756 147.749343 
L 409.980897 150.079829 
L 411.40461 149.293994 
L 412.512888 159.402896 
L 413.088341 158.563467 
L 413.774621 153.778269 
L 414.601568 155.299372 
L 415.697059 159.651834 
L 416.012492 159.260263 
L 417.223074 156.073478 
L 418.246101 158.940982 
L 418.949432 156.337537 
L 419.639975 157.967075 
L 420.104599 155.0323 
L 420.769567 157.516266 
L 421.792593 153.298344 
L 422.628065 157.114655 
L 423.651092 153.810398 
L 424.290483 152.89372 
L 424.84036 155.596564 
L 425.407288 153.127659 
L 426.656233 156.913849 
L 426.971666 158.811462 
L 428.348489 150.648713 
L 428.906891 153.607584 
L 429.934181 152.427238 
L 430.37323 147.174936 
L 432.142213 151.88238 
L 432.79013 149.760197 
L 433.033099 153.670289 
L 434.87881 152.707333 
L 435.910362 147.665614 
L 436.630743 152.434394 
L 437.440639 147.080889 
L 437.551467 148.664349 
L 438.753524 136.065163 
L 439.043381 137.210079 
L 439.985418 133.360299 
L 440.535295 133.726263 
L 442.065573 133.726263 
L 442.679389 132.715187 
L 443.365669 137.154722 
L 443.826031 136.751868 
L 444.827745 132.81069 
L 445.710105 135.191187 
L 446.66493 132.926416 
L 446.694768 132.945703 
L 448.127006 137.720909 
L 448.344399 136.983919 
L 449.039205 140.272964 
L 450.69736 139.335992 
L 450.910491 137.169689 
L 451.784326 135.301837 
L 452.798828 142.621992 
L 453.011958 142.658537 
L 453.783491 137.897543 
L 454.431408 140.107497 
L 455.710191 134.032685 
L 456.660754 140.599185 
L 457.56869 136.201224 
L 458.250708 140.916805 
L 459.47834 138.092733 
L 459.891813 140.521049 
L 460.586619 138.961366 
L 461.618171 136.366629 
L 462.048694 136.848639 
L 462.994994 139.453917 
L 464.077697 137.451492 
L 465.02826 139.990681 
L 465.522723 139.502807 
L 466.40082 141.016339 
L 466.784455 140.442908 
L 467.457948 143.52599 
L 468.753782 143.243858 
L 469.606304 138.694096 
L 470.032565 139.683086 
L 471.191996 132.574314 
L 471.430702 133.602697 
L 472.598657 130.592894 
L 473.007868 131.108104 
L 473.09312 132.930684 
L 474.88768 130.717115 
L 475.305415 132.531549 
L 476.588461 132.843119 
L 477.296055 130.10823 
L 478.736818 130.753105 
L 478.890272 129.674184 
L 479.205705 128.88473 
L 480.301196 131.560453 
L 481.187819 129.564713 
L 481.869837 132.041493 
L 482.522016 131.23204 
L 483.417165 133.219359 
L 483.847688 133.219359 
L 485.032694 131.017309 
L 485.036957 131.222567 
L 486.10261 128.582632 
L 486.622648 129.953125 
L 487.389918 133.07005 
L 488.242441 133.419379 
L 489.461548 131.165577 
L 489.789769 131.929471 
L 490.991825 129.16851 
L 491.183643 130.379587 
L 492.32176 126.511717 
L 492.709657 127.76383 
L 494.227147 129.983962 
L 494.653408 132.088352 
L 495.199022 129.595702 
L 496.094171 129.451551 
L 496.899804 134.960845 
L 497.31754 133.666645 
L 498.289416 128.698179 
L 499.555411 128.945445 
L 499.985935 132.613398 
L 501.094214 137.867009 
L 501.90411 129.591877 
L 501.993625 129.963653 
L 502.85041 124.365031 
L 503.451438 125.662579 
L 503.924588 128.143525 
L 505.271573 127.977011 
L 505.629632 126.330728 
L 506.908416 126.186206 
L 507.55207 127.462809 
L 508.523945 126.016551 
L 509.031196 127.568582 
L 510.122425 127.735095 
L 511.19234 125.589271 
L 511.328743 127.63037 
L 512.901647 126.4365 
L 514.090916 127.547637 
L 514.223057 127.177956 
L 514.888024 131.107254 
L 515.727758 129.836935 
L 517.258036 129.836935 
L 518.089245 131.076403 
L 518.694536 128.658502 
L 519.581159 130.114917 
L 520.2035 127.763217 
L 520.344166 127.773725 
L 521.064548 130.321925 
L 521.976747 129.819641 
L 522.279392 128.614368 
L 524.210355 130.15905 
L 525.028776 127.763217 
L 525.297321 129.866927 
L 526.908588 127.960768 
L 527.888988 128.974794 
L 528.41329 129.769202 
L 528.669046 127.886161 
L 529.802901 128.366378 
L 530.510494 127.159004 
L 531.887318 129.576905 
L 532.599174 127.764267 
L 532.897557 127.433264 
L 533.511373 128.727855 
L 537.211319 128.70894 
L 538.745859 128.70894 
L 539.483291 137.037041 
L 540.301712 134.108267 
L 541.810677 139.764735 
L 542.590735 141.605054 
L 543.332429 138.4599 
L 543.750165 139.855439 
L 544.530223 138.071387 
L 544.88402 138.999149 
L 546.294944 136.953483 
L 547.373385 139.017785 
L 547.535364 135.617097 
L 548.05114 138.287316 
L 549.423701 133.225371 
L 550.54903 134.403582 
L 551.005129 136.87591 
L 551.87044 134.327071 
L 552.27965 138.082954 
L 552.560983 136.732024 
L 553.238738 140.539295 
L 554.197825 140.540437 
L 555.186751 137.103159 
L 555.630063 139.24432 
L 557.211491 136.019445 
L 557.531187 138.808094 
L 558.937849 136.816528 
L 559.46215 138.615104 
L 560.519278 135.256621 
L 561.137356 137.911661 
L 561.92594 137.143127 
L 562.88929 140.35544 
L 563.2985 139.33796 
L 564.828778 139.33796 
L 564.905505 139.710264 
L 565.344554 133.543245 
L 566.367581 134.313594 
L 567.642101 131.671793 
L 567.98311 131.317792 
L 568.626765 135.008916 
L 569.104177 133.827502 
L 569.104177 133.827502 
" clip-path="url(#p16a4b82cbf)" style="fill: none; stroke: #2e8b57; stroke-width: 1.5; stroke-linecap: square"/>
   </g>
   <g id="patch_8">
    <path d="M 53.328125 219.380807 
L 53.328125 119.840471 
" style="fill: none; stroke: #000000; stroke-width: 0.8; stroke-linejoin: miter; stroke-linecap: square"/>
   </g>
   <g id="patch_9">
    <path d="M 574.210871 219.380807 
L 574.210871 119.840471 
" style="fill: none; stroke: #000000; stroke-width: 0.8; stroke-linejoin: miter; stroke-linecap: square"/>
   </g>
   <g id="patch_10">
    <path d="M 53.328125 219.380807 
L 574.210871 219.380807 
" style="fill: none; stroke: #000000; stroke-width: 0.8; stroke-linejoin: miter; stroke-linecap: square"/>
   </g>
   <g id="patch_11">
    <path d="M 53.328125 119.840471 
L 574.210871 119.840471 
" style="fill: none; stroke: #000000; stroke-width: 0.8; stroke-linejoin: miter; stroke-linecap: square"/>
   </g>
  </g>
  <g id="axes_3">
   <g id="patch_12">
    <path d="M 53.328125 330.84327 
L 574.210871 330.84327 
L 574.210871 231.302934 
L 53.328125 231.302934 
z
" style="fill: #ffffff"/>
   </g>
   <g id="matplotlib.axis_5">
    <g id="xtick_35">
     <g id="line2d_44">
      <g>
       <use xlink:href="#mf351f5711f" x="58.434077" y="330.84327" style="stroke: #000000; stroke-width: 0.8"/>
      </g>
     </g>
     <g id="text_10">
      <!-- Nov -->
      <g transform="translate(48.674702 345.441707) scale(0.1 -0.1)">
       <defs>
        <path id="DejaVuSans-4e" d="M 628 4666 
L 1478 4666 
L 3547 763 
L 3547 4666 
L 4159 4666 
L 4159 0 
L 3309 0 
L 1241 3903 
L 1241 0 
L 628 0 
L 628 4666 
z
" transform="scale(0.015625)"/>
        <path id="DejaVuSans-6f" d="M 1959 3097 
Q 1497 3097 1228 2736 
Q 959 2375 959 1747 
Q 959 1119 1226 758 
Q 1494 397 1959 397 
Q 2419 397 2687 759 
Q 2956 1122 2956 1747 
Q 2956 2369 2687 2733 
Q 2419 3097 1959 3097 
z
M 1959 3584 
Q 2709 3584 3137 3096 
Q 3566 2609 3566 1747 
Q 3566 888 3137 398 
Q 2709 -91 1959 -91 
Q 1206 -91 779 398 
Q 353 888 353 1747 
Q 353 2609 779 3096 
Q 1206 3584 1959 3584 
z
" transform="scale(0.015625)"/>
        <path id="DejaVuSans-76" d="M 191 3500 
L 800 3500 
L 1894 563 
L 2988 3500 
L 3597 3500 
L 2284 0 
L 1503 0 
L 191 3500 
z
" transform="scale(0.015625)"/>
       </defs>
       <use xlink:href="#DejaVuSans-4e"/>
       <use xlink:href="#DejaVuSans-6f" transform="translate(74.804688 0)"/>
       <use xlink:href="#DejaVuSans-76" transform="translate(135.986328 0)"/>
      </g>
     </g>
    </g>
    <g id="xtick_36">
     <g id="line2d_45">
      <g>
       <use xlink:href="#mf351f5711f" x="90.459261" y="330.84327" style="stroke: #000000; stroke-width: 0.8"/>
      </g>
     </g>
     <g id="text_11">
      <!-- 03 -->
      <g transform="translate(84.096761 345.441707) scale(0.1 -0.1)">
       <defs>
        <path id="DejaVuSans-33" d="M 2597 2516 
Q 3050 2419 3304 2112 
Q 3559 1806 3559 1356 
Q 3559 666 3084 287 
Q 2609 -91 1734 -91 
Q 1441 -91 1130 -33 
Q 819 25 488 141 
L 488 750 
Q 750 597 1062 519 
Q 1375 441 1716 441 
Q 2309 441 2620 675 
Q 2931 909 2931 1356 
Q 2931 1769 2642 2001 
Q 2353 2234 1838 2234 
L 1294 2234 
L 1294 2753 
L 1863 2753 
Q 2328 2753 2575 2939 
Q 2822 3125 2822 3475 
Q 2822 3834 2567 4026 
Q 2313 4219 1838 4219 
Q 1578 4219 1281 4162 
Q 984 4106 628 3988 
L 628 4550 
Q 988 4650 1302 4700 
Q 1616 4750 1894 4750 
Q 2613 4750 3031 4423 
Q 3450 4097 3450 3541 
Q 3450 3153 3228 2886 
Q 3006 2619 2597 2516 
z
" transform="scale(0.015625)"/>
       </defs>
       <use xlink:href="#DejaVuSans-30"/>
       <use xlink:href="#DejaVuSans-33" transform="translate(63.623047 0)"/>
      </g>
     </g>
    </g>
    <g id="xtick_37">
     <g id="line2d_46">
      <g>
       <use xlink:href="#mf351f5711f" x="122.484445" y="330.84327" style="stroke: #000000; stroke-width: 0.8"/>
      </g>
     </g>
     <g id="text_12">
      <!-- 05 -->
      <g transform="translate(116.121945 345.441707) scale(0.1 -0.1)">
       <use xlink:href="#DejaVuSans-30"/>
       <use xlink:href="#DejaVuSans-35" transform="translate(63.623047 0)"/>
      </g>
     </g>
    </g>
    <g id="xtick_38">
     <g id="line2d_47">
      <g>
       <use xlink:href="#mf351f5711f" x="154.509629" y="330.84327" style="stroke: #000000; stroke-width: 0.8"/>
      </g>
     </g>
     <g id="text_13">
      <!-- 07 -->
      <g transform="translate(148.147129 345.441707) scale(0.1 -0.1)">
       <defs>
        <path id="DejaVuSans-37" d="M 525 4666 
L 3525 4666 
L 3525 4397 
L 1831 0 
L 1172 0 
L 2766 4134 
L 525 4134 
L 525 4666 
z
" transform="scale(0.015625)"/>
       </defs>
       <use xlink:href="#DejaVuSans-30"/>
       <use xlink:href="#DejaVuSans-37" transform="translate(63.623047 0)"/>
      </g>
     </g>
    </g>
    <g id="xtick_39">
     <g id="line2d_48">
      <g>
       <use xlink:href="#mf351f5711f" x="186.534813" y="330.84327" style="stroke: #000000; stroke-width: 0.8"/>
      </g>
     </g>
     <g id="text_14">
      <!-- 09 -->
      <g transform="translate(180.172313 345.441707) scale(0.1 -0.1)">
       <defs>
        <path id="DejaVuSans-39" d="M 703 97 
L 703 672 
Q 941 559 1184 500 
Q 1428 441 1663 441 
Q 2288 441 2617 861 
Q 2947 1281 2994 2138 
Q 2813 1869 2534 1725 
Q 2256 1581 1919 1581 
Q 1219 1581 811 2004 
Q 403 2428 403 3163 
Q 403 3881 828 4315 
Q 1253 4750 1959 4750 
Q 2769 4750 3195 4129 
Q 3622 3509 3622 2328 
Q 3622 1225 3098 567 
Q 2575 -91 1691 -91 
Q 1453 -91 1209 -44 
Q 966 3 703 97 
z
M 1959 2075 
Q 2384 2075 2632 2365 
Q 2881 2656 2881 3163 
Q 2881 3666 2632 3958 
Q 2384 4250 1959 4250 
Q 1534 4250 1286 3958 
Q 1038 3666 1038 3163 
Q 1038 2656 1286 2365 
Q 1534 2075 1959 2075 
z
" transform="scale(0.015625)"/>
       </defs>
       <use xlink:href="#DejaVuSans-30"/>
       <use xlink:href="#DejaVuSans-39" transform="translate(63.623047 0)"/>
      </g>
     </g>
    </g>
    <g id="xtick_40">
     <g id="line2d_49">
      <g>
       <use xlink:href="#mf351f5711f" x="218.559997" y="330.84327" style="stroke: #000000; stroke-width: 0.8"/>
      </g>
     </g>
     <g id="text_15">
      <!-- 11 -->
      <g transform="translate(212.197497 345.441707) scale(0.1 -0.1)">
       <use xlink:href="#DejaVuSans-31"/>
       <use xlink:href="#DejaVuSans-31" transform="translate(63.623047 0)"/>
      </g>
     </g>
    </g>
    <g id="xtick_41">
     <g id="line2d_50">
      <g>
       <use xlink:href="#mf351f5711f" x="250.585181" y="330.84327" style="stroke: #000000; stroke-width: 0.8"/>
      </g>
     </g>
     <g id="text_16">
      <!-- 13 -->
      <g transform="translate(244.222681 345.441707) scale(0.1 -0.1)">
       <use xlink:href="#DejaVuSans-31"/>
       <use xlink:href="#DejaVuSans-33" transform="translate(63.623047 0)"/>
      </g>
     </g>
    </g>
    <g id="xtick_42">
     <g id="line2d_51">
      <g>
       <use xlink:href="#mf351f5711f" x="282.610365" y="330.84327" style="stroke: #000000; stroke-width: 0.8"/>
      </g>
     </g>
     <g id="text_17">
      <!-- 15 -->
      <g transform="translate(276.247865 345.441707) scale(0.1 -0.1)">
       <use xlink:href="#DejaVuSans-31"/>
       <use xlink:href="#DejaVuSans-35" transform="translate(63.623047 0)"/>
      </g>
     </g>
    </g>
    <g id="xtick_43">
     <g id="line2d_52">
      <g>
       <use xlink:href="#mf351f5711f" x="314.635549" y="330.84327" style="stroke: #000000; stroke-width: 0.8"/>
      </g>
     </g>
     <g id="text_18">
      <!-- 17 -->
      <g transform="translate(308.273049 345.441707) scale(0.1 -0.1)">
       <use xlink:href="#DejaVuSans-31"/>
       <use xlink:href="#DejaVuSans-37" transform="translate(63.623047 0)"/>
      </g>
     </g>
    </g>
    <g id="xtick_44">
     <g id="line2d_53">
      <g>
       <use xlink:href="#mf351f5711f" x="346.660733" y="330.84327" style="stroke: #000000; stroke-width: 0.8"/>
      </g>
     </g>
     <g id="text_19">
      <!-- 19 -->
      <g transform="translate(340.298233 345.441707) scale(0.1 -0.1)">
       <use xlink:href="#DejaVuSans-31"/>
       <use xlink:href="#DejaVuSans-39" transform="translate(63.623047 0)"/>
      </g>
     </g>
    </g>
    <g id="xtick_45">
     <g id="line2d_54">
      <g>
       <use xlink:href="#mf351f5711f" x="378.685917" y="330.84327" style="stroke: #000000; stroke-width: 0.8"/>
      </g>
     </g>
     <g id="text_20">
      <!-- 21 -->
      <g transform="translate(372.323417 345.441707) scale(0.1 -0.1)">
       <use xlink:href="#DejaVuSans-32"/>
       <use xlink:href="#DejaVuSans-31" transform="translate(63.623047 0)"/>
      </g>
     </g>
    </g>
    <g id="xtick_46">
     <g id="line2d_55">
      <g>
       <use xlink:href="#mf351f5711f" x="410.711101" y="330.84327" style="stroke: #000000; stroke-width: 0.8"/>
      </g>
     </g>
     <g id="text_21">
      <!-- 23 -->
      <g transform="translate(404.348601 345.441707) scale(0.1 -0.1)">
       <use xlink:href="#DejaVuSans-32"/>
       <use xlink:href="#DejaVuSans-33" transform="translate(63.623047 0)"/>
      </g>
     </g>
    </g>
    <g id="xtick_47">
     <g id="line2d_56">
      <g>
       <use xlink:href="#mf351f5711f" x="442.736285" y="330.84327" style="stroke: #000000; stroke-width: 0.8"/>
      </g>
     </g>
     <g id="text_22">
      <!-- 25 -->
      <g transform="translate(436.373785 345.441707) scale(0.1 -0.1)">
       <use xlink:href="#DejaVuSans-32"/>
       <use xlink:href="#DejaVuSans-35" transform="translate(63.623047 0)"/>
      </g>
     </g>
    </g>
    <g id="xtick_48">
     <g id="line2d_57">
      <g>
       <use xlink:href="#mf351f5711f" x="474.761469" y="330.84327" style="stroke: #000000; stroke-width: 0.8"/>
      </g>
     </g>
     <g id="text_23">
      <!-- 27 -->
      <g transform="translate(468.398969 345.441707) scale(0.1 -0.1)">
       <use xlink:href="#DejaVuSans-32"/>
       <use xlink:href="#DejaVuSans-37" transform="translate(63.623047 0)"/>
      </g>
     </g>
    </g>
    <g id="xtick_49">
     <g id="line2d_58">
      <g>
       <use xlink:href="#mf351f5711f" x="506.786653" y="330.84327" style="stroke: #000000; stroke-width: 0.8"/>
      </g>
     </g>
     <g id="text_24">
      <!-- 29 -->
      <g transform="translate(500.424153 345.441707) scale(0.1 -0.1)">
       <use xlink:href="#DejaVuSans-32"/>
       <use xlink:href="#DejaVuSans-39" transform="translate(63.623047 0)"/>
      </g>
     </g>
    </g>
    <g id="xtick_50">
     <g id="line2d_59">
      <g>
       <use xlink:href="#mf351f5711f" x="538.811837" y="330.84327" style="stroke: #000000; stroke-width: 0.8"/>
      </g>
     </g>
     <g id="text_25">
      <!-- Dec -->
      <g transform="translate(529.136056 345.441707) scale(0.1 -0.1)">
       <defs>
        <path id="DejaVuSans-44" d="M 1259 4147 
L 1259 519 
L 2022 519 
Q 2988 519 3436 956 
Q 3884 1394 3884 2338 
Q 3884 3275 3436 3711 
Q 2988 4147 2022 4147 
L 1259 4147 
z
M 628 4666 
L 1925 4666 
Q 3281 4666 3915 4102 
Q 4550 3538 4550 2338 
Q 4550 1131 3912 565 
Q 3275 0 1925 0 
L 628 0 
L 628 4666 
z
" transform="scale(0.015625)"/>
       </defs>
       <use xlink:href="#DejaVuSans-44"/>
       <use xlink:href="#DejaVuSans-65" transform="translate(77.001953 0)"/>
       <use xlink:href="#DejaVuSans-63" transform="translate(138.525391 0)"/>
      </g>
     </g>
    </g>
    <g id="xtick_51">
     <g id="line2d_60">
      <g>
       <use xlink:href="#mf351f5711f" x="570.837021" y="330.84327" style="stroke: #000000; stroke-width: 0.8"/>
      </g>
     </g>
     <g id="text_26">
      <!-- 03 -->
      <g transform="translate(564.474521 345.441707) scale(0.1 -0.1)">
       <use xlink:href="#DejaVuSans-30"/>
       <use xlink:href="#DejaVuSans-33" transform="translate(63.623047 0)"/>
      </g>
     </g>
    </g>
    <g id="text_27">
     <!-- Time -->
     <g transform="translate(301.535904 359.119832) scale(0.1 -0.1)">
      <defs>
       <path id="DejaVuSans-54" d="M -19 4666 
L 3928 4666 
L 3928 4134 
L 2272 4134 
L 2272 0 
L 1638 0 
L 1638 4134 
L -19 4134 
L -19 4666 
z
" transform="scale(0.015625)"/>
       <path id="DejaVuSans-6d" d="M 3328 2828 
Q 3544 3216 3844 3400 
Q 4144 3584 4550 3584 
Q 5097 3584 5394 3201 
Q 5691 2819 5691 2113 
L 5691 0 
L 5113 0 
L 5113 2094 
Q 5113 2597 4934 2840 
Q 4756 3084 4391 3084 
Q 3944 3084 3684 2787 
Q 3425 2491 3425 1978 
L 3425 0 
L 2847 0 
L 2847 2094 
Q 2847 2600 2669 2842 
Q 2491 3084 2119 3084 
Q 1678 3084 1418 2786 
Q 1159 2488 1159 1978 
L 1159 0 
L 581 0 
L 581 3500 
L 1159 3500 
L 1159 2956 
Q 1356 3278 1631 3431 
Q 1906 3584 2284 3584 
Q 2666 3584 2933 3390 
Q 3200 3197 3328 2828 
z
" transform="scale(0.015625)"/>
      </defs>
      <use xlink:href="#DejaVuSans-54"/>
      <use xlink:href="#DejaVuSans-69" transform="translate(57.958984 0)"/>
      <use xlink:href="#DejaVuSans-6d" transform="translate(85.742188 0)"/>
      <use xlink:href="#DejaVuSans-65" transform="translate(183.154297 0)"/>
     </g>
    </g>
    <g id="text_28">
     <!-- 2025-Dec -->
     <g transform="translate(525.801496 358.119832) scale(0.1 -0.1)">
      <defs>
       <path id="DejaVuSans-2d" d="M 313 2009 
L 1997 2009 
L 1997 1497 
L 313 1497 
L 313 2009 
z
" transform="scale(0.015625)"/>
      </defs>
      <use xlink:href="#DejaVuSans-32"/>
      <use xlink:href="#DejaVuSans-30" transform="translate(63.623047 0)"/>
      <use xlink:href="#DejaVuSans-32" transform="translate(127.246094 0)"/>
      <use xlink:href="#DejaVuSans-35" transform="translate(190.869141 0)"/>
      <use xlink:href="#DejaVuSans-2d" transform="translate(254.492188 0)"/>
      <use xlink:href="#DejaVuSans-44" transform="translate(290.576172 0)"/>
      <use xlink:href="#DejaVuSans-65" transform="translate(367.578125 0)"/>
      <use xlink:href="#DejaVuSans-63" transform="translate(429.101562 0)"/>
     </g>
    </g>
   </g>
   <g id="matplotlib.axis_6">
    <g id="ytick_8">
     <g id="line2d_61">
      <g>
       <use xlink:href="#mfcffef8afe" x="53.328125" y="307.632642" style="stroke: #000000; stroke-width: 0.8"/>
      </g>
     </g>
     <g id="text_29">
      <!-- 0.00 -->
      <g transform="translate(24.0625 311.43186) scale(0.1 -0.1)">
       <use xlink:href="#DejaVuSans-30"/>
       <use xlink:href="#DejaVuSans-2e" transform="translate(63.623047 0)"/>
       <use xlink:href="#DejaVuSans-30" transform="translate(95.410156 0)"/>
       <use xlink:href="#DejaVuSans-30" transform="translate(159.033203 0)"/>
      </g>
     </g>
    </g>
    <g id="ytick_9">
     <g id="line2d_62">
      <g>
       <use xlink:href="#mfcffef8afe" x="53.328125" y="282.648596" style="stroke: #000000; stroke-width: 0.8"/>
      </g>
     </g>
     <g id="text_30">
      <!-- 0.25 -->
      <g transform="translate(24.0625 286.447814) scale(0.1 -0.1)">
       <use xlink:href="#DejaVuSans-30"/>
       <use xlink:href="#DejaVuSans-2e" transform="translate(63.623047 0)"/>
       <use xlink:href="#DejaVuSans-32" transform="translate(95.410156 0)"/>
       <use xlink:href="#DejaVuSans-35" transform="translate(159.033203 0)"/>
      </g>
     </g>
    </g>
    <g id="ytick_10">
     <g id="line2d_63">
      <g>
       <use xlink:href="#mfcffef8afe" x="53.328125" y="257.66455" style="stroke: #000000; stroke-width: 0.8"/>
      </g>
     </g>
     <g id="text_31">
      <!-- 0.50 -->
      <g transform="translate(24.0625 261.463769) scale(0.1 -0.1)">
       <use xlink:href="#DejaVuSans-30"/>
       <use xlink:href="#DejaVuSans-2e" transform="translate(63.623047 0)"/>
       <use xlink:href="#DejaVuSans-35" transform="translate(95.410156 0)"/>
       <use xlink:href="#DejaVuSans-30" transform="translate(159.033203 0)"/>
      </g>
     </g>
    </g>
    <g id="ytick_11">
     <g id="line2d_64">
      <g>
       <use xlink:href="#mfcffef8afe" x="53.328125" y="232.680504" style="stroke: #000000; stroke-width: 0.8"/>
      </g>
     </g>
     <g id="text_32">
      <!-- 0.75 -->
      <g transform="translate(24.0625 236.479723) scale(0.1 -0.1)">
       <use xlink:href="#DejaVuSans-30"/>
       <use xlink:href="#DejaVuSans-2e" transform="translate(63.623047 0)"/>
       <use xlink:href="#DejaVuSans-37" transform="translate(95.410156 0)"/>
       <use xlink:href="#DejaVuSans-35" transform="translate(159.033203 0)"/>
      </g>
     </g>
    </g>
    <g id="text_33">
     <!-- Score -->
     <g transform="translate(14.798438 295.075446) rotate(-90) scale(0.1 -0.1)">
      <defs>
       <path id="DejaVuSans-53" d="M 3425 4513 
L 3425 3897 
Q 3066 4069 2747 4153 
Q 2428 4238 2131 4238 
Q 1616 4238 1336 4038 
Q 1056 3838 1056 3469 
Q 1056 3159 1242 3001 
Q 1428 2844 1947 2747 
L 2328 2669 
Q 3034 2534 3370 2195 
Q 3706 1856 3706 1288 
Q 3706 609 3251 259 
Q 2797 -91 1919 -91 
Q 1588 -91 1214 -16 
Q 841 59 441 206 
L 441 856 
Q 825 641 1194 531 
Q 1563 422 1919 422 
Q 2459 422 2753 634 
Q 3047 847 3047 1241 
Q 3047 1584 2836 1778 
Q 2625 1972 2144 2069 
L 1759 2144 
Q 1053 2284 737 2584 
Q 422 2884 422 3419 
Q 422 4038 858 4394 
Q 1294 4750 2059 4750 
Q 2388 4750 2728 4690 
Q 3069 4631 3425 4513 
z
" transform="scale(0.015625)"/>
      </defs>
      <use xlink:href="#DejaVuSans-53"/>
      <use xlink:href="#DejaVuSans-63" transform="translate(63.476562 0)"/>
      <use xlink:href="#DejaVuSans-6f" transform="translate(118.457031 0)"/>
      <use xlink:href="#DejaVuSans-72" transform="translate(179.638672 0)"/>
      <use xlink:href="#DejaVuSans-65" transform="translate(218.501953 0)"/>
     </g>
    </g>
   </g>
   <g id="line2d_65">
    <path d="M 58.434819 306.263116 
L 58.728939 308.500617 
L 61.503899 308.500617 
L 62.309532 305.982295 
L 67.642059 305.982295 
L 67.79125 303.744824 
L 72.245679 303.744824 
L 72.96606 314.200548 
L 76.849299 314.200548 
L 78.383839 311.682256 
L 79.91838 311.682256 
L 80.847629 305.982295 
L 84.522 305.982295 
L 85.749632 303.744824 
L 86.05654 303.744824 
L 86.666093 311.962976 
L 93.72924 311.962976 
L 94.334531 309.444685 
L 95.26378 309.444685 
L 96.79832 311.682256 
L 97.446237 314.476771 
L 98.33286 314.476771 
L 98.712233 318.030002 
L 100.805175 326.318709 
L 100.817963 299.769263 
L 101.40194 318.030002 
L 102.603997 320.548394 
L 102.936481 320.548394 
L 104.390031 312.139963 
L 104.471021 320.548394 
L 109.074641 320.548394 
L 110.344899 299.769263 
L 110.609181 318.030002 
L 110.617706 308.177494 
L 112.143721 318.030002 
L 113.396929 314.476771 
L 115.212801 314.476771 
L 116.538473 318.030002 
L 116.747341 318.030002 
L 117.928084 291.068219 
L 118.281881 318.030002 
L 118.80192 286.301263 
L 119.837734 313.263646 
L 120.843711 273.07371 
L 121.350961 309.710515 
L 122.55728 313.263646 
L 122.885501 313.263646 
L 124.125921 279.193802 
L 124.420041 279.193802 
L 124.85909 286.47815 
L 126.35953 283.959758 
L 127.037285 318.030002 
L 129.023662 318.030002 
L 129.91881 305.982295 
L 130.558202 305.982295 
L 131.389411 303.744824 
L 133.627282 303.744824 
L 134.628995 306.263116 
L 135.161822 306.263116 
L 136.389454 314.551523 
L 136.696362 306.263116 
L 138.230902 303.001399 
L 139.765442 303.001399 
L 140.353682 311.289906 
L 141.299982 303.001399 
L 142.369898 300.483107 
L 144.369062 300.483107 
L 145.903602 306.182967 
L 146.031481 309.444685 
L 147.438142 309.444685 
L 148.972682 311.682256 
L 149.63765 301.829847 
L 150.507223 311.682256 
L 150.856757 316.995063 
L 152.041763 316.995063 
L 153.030688 320.548394 
L 158.179923 320.548394 
L 158.384528 318.030002 
L 159.714463 318.030002 
L 160.895206 308.776811 
L 161.249003 308.776811 
L 162.463847 305.982295 
L 162.783543 305.982295 
L 162.830432 303.744824 
L 164.318083 303.744824 
L 165.387999 305.982295 
L 165.852623 305.982295 
L 166.653994 308.500617 
L 167.387163 308.500617 
L 167.429789 311.295203 
L 169.245662 306.263116 
L 170.14081 316.983071 
L 170.456243 316.983071 
L 171.385493 306.263116 
L 173.525324 306.263116 
L 174.394896 303.744824 
L 181.198024 303.744824 
L 182.732564 308.500617 
L 183.32933 314.200548 
L 184.267104 314.200548 
L 184.76583 316.995063 
L 188.870724 316.995063 
L 189.974741 314.200548 
L 190.405264 314.200548 
L 190.41379 311.682256 
L 198.073702 311.682256 
L 198.678993 314.200548 
L 199.484626 308.500617 
L 201.147045 308.500617 
L 201.654295 306.263116 
L 204.216125 306.263116 
L 205.294566 303.001399 
L 205.750665 303.001399 
L 206.419895 300.483107 
L 211.888825 300.483107 
L 212.528217 292.074577 
L 213.423365 300.483107 
L 214.689361 303.001399 
L 216.492445 303.001399 
L 217.732865 308.701359 
L 219.561526 308.701359 
L 220.22223 311.962976 
L 221.778083 314.200548 
L 222.434526 311.682256 
L 224.165146 311.682256 
L 224.182196 305.982295 
L 225.699686 305.982295 
L 227.234226 314.476771 
L 228.581211 318.030002 
L 230.303306 318.030002 
L 230.703991 320.548394 
L 233.372386 320.548394 
L 233.376649 316.995063 
L 237.976006 316.995063 
L 238.261601 320.548394 
L 239.510546 318.030002 
L 239.787616 314.476771 
L 242.579627 314.476771 
L 243.116716 311.682256 
L 244.114167 311.682256 
L 245.384425 293.421716 
L 245.648707 311.682256 
L 245.951352 296.129987 
L 247.183247 306.263116 
L 250.252327 306.263116 
L 251.181576 316.995063 
L 251.786867 313.733346 
L 253.138115 325.575184 
L 253.321407 317.286477 
L 254.459524 311.215054 
L 254.855947 311.215054 
L 256.390487 306.182967 
L 257.925027 306.182967 
L 258.035855 300.483107 
L 260.989845 300.483107 
L 261.023946 292.074577 
L 261.433156 303.744824 
L 262.528647 303.744824 
L 263.018848 271.219894 
L 264.152702 271.219894 
L 264.996699 285.750615 
L 265.597728 285.750615 
L 267.370974 320.548394 
L 268.666808 320.548394 
L 269.736723 293.586611 
L 271.13486 282.146916 
L 271.475869 310.745254 
L 273.270428 310.745254 
L 274.766604 302.04401 
L 274.809231 310.745254 
L 275.052199 292.191502 
L 276.339508 310.745254 
L 276.923486 307.192163 
L 277.874048 307.192163 
L 278.099966 314.476771 
L 280.128969 316.995063 
L 280.431615 308.586852 
L 280.943128 316.995063 
L 281.296925 314.200548 
L 285.546748 314.200548 
L 286.488786 311.682256 
L 290.150369 311.682256 
L 290.832386 305.982295 
L 294.749726 305.982295 
L 294.753989 308.500617 
L 296.288529 308.500617 
L 296.808567 306.263116 
L 302.422427 306.263116 
L 302.499154 303.744824 
L 303.607432 312.2392 
L 304.502581 314.476771 
L 304.997044 311.682256 
L 307.030309 311.682256 
L 307.938246 305.982295 
L 308.564849 305.982295 
L 308.871757 303.744824 
L 310.099389 303.744824 
L 310.9988 311.962976 
L 311.63393 311.962976 
L 312.512027 308.701359 
L 313.16847 308.701359 
L 313.679983 313.733346 
L 314.70301 313.733346 
L 315.325351 317.286477 
L 316.23755 317.286477 
L 316.893992 313.733346 
L 317.77209 316.995063 
L 319.178752 311.682256 
L 320.84117 311.682256 
L 321.599915 305.982295 
L 322.37571 305.982295 
L 323.91025 287.721356 
L 323.952876 305.982295 
L 325.44479 295.336494 
L 326.778987 306.263116 
L 326.97933 306.263116 
L 327.84464 296.410808 
L 328.51387 306.263116 
L 329.609361 314.200548 
L 330.04841 314.200548 
L 330.986185 320.548394 
L 331.58295 320.548394 
L 332.998137 301.994542 
L 333.11749 320.548394 
L 333.85066 294.709894 
L 334.652031 310.745254 
L 335.150756 302.04401 
L 337.098769 318.030002 
L 337.721111 318.030002 
L 338.292301 312.2392 
L 339.255651 312.2392 
L 340.790191 303.744824 
L 342.324731 303.744824 
L 343.181516 308.500617 
L 349.997431 308.500617 
L 350.53452 287.721356 
L 351.531971 303.744824 
L 354.601051 303.744824 
L 355.061413 312.2392 
L 356.135591 312.2392 
L 356.314621 315.792431 
L 357.738333 305.939923 
L 358.803986 320.548394 
L 365.342832 320.548394 
L 366.544888 315.792431 
L 366.877372 315.792431 
L 367.776783 309.444685 
L 368.411912 309.444685 
L 369.029991 303.744824 
L 373.015532 303.744824 
L 374.281528 271.963419 
L 374.848455 293.034963 
L 375.440958 267.196463 
L 376.084612 277.049171 
L 376.361682 301.216039 
L 377.619152 301.216039 
L 378.450362 313.263646 
L 379.153692 313.263646 
L 380.688233 294.709894 
L 380.756434 311.026075 
L 382.222773 311.026075 
L 383.757313 235.827494 
L 384.332765 293.551633 
L 385.291853 280.438007 
L 385.739427 290.289716 
L 386.932958 272.029377 
L 387.210028 298.99146 
L 388.360933 298.99146 
L 389.413798 290.289716 
L 390.85456 295.339492 
L 391.199832 311.031871 
L 394.499093 311.031871 
L 395.185374 304.684224 
L 397.568173 304.684224 
L 398.872532 299.928361 
L 399.102713 299.928361 
L 399.776206 306.182967 
L 400.637253 306.182967 
L 401.272382 309.444685 
L 406.775414 309.444685 
L 406.997069 314.757592 
L 408.309954 314.757592 
L 409.31593 311.962976 
L 409.844494 314.200548 
L 411.212792 308.500617 
L 411.379034 308.500617 
L 412.772908 305.23897 
L 412.913574 305.23897 
L 413.467713 303.001399 
L 414.448114 303.001399 
L 414.584518 300.483107 
L 422.120814 300.483107 
L 422.853983 303.001399 
L 425.189894 303.001399 
L 425.211207 305.23897 
L 426.724435 305.23897 
L 426.801162 308.500617 
L 428.258975 308.500617 
L 429.682687 300.092357 
L 429.793515 308.500617 
L 430.599148 305.982295 
L 431.328055 305.982295 
L 432.346819 303.744824 
L 435.927412 303.744824 
L 436.421875 300.483107 
L 437.466215 309.444685 
L 438.190859 306.182967 
L 439.000755 308.701359 
L 440.535295 308.701359 
L 442.069835 303.001399 
L 442.206239 313.721354 
L 443.604375 313.721354 
L 444.405746 303.001399 
L 445.138915 303.001399 
L 446.673455 300.483107 
L 451.272813 300.483107 
L 452.274527 306.182967 
L 452.811616 297.774737 
L 454.346156 308.420539 
L 455.654777 316.995063 
L 457.415236 316.995063 
L 458.519252 314.757592 
L 458.949776 314.757592 
L 460.484316 309.057632 
L 462.018856 309.057632 
L 462.628409 303.744824 
L 468.157016 303.744824 
L 468.459662 309.444685 
L 469.691556 309.444685 
L 470.893613 311.962976 
L 474.295177 311.962976 
L 474.717175 306.263116 
L 477.364257 306.263116 
L 478.634515 303.744824 
L 483.502417 303.744824 
L 484.282475 309.444685 
L 486.571497 309.444685 
L 486.903981 314.200548 
L 494.244197 314.200548 
L 494.649146 311.682256 
L 500.378095 311.682256 
L 501.094214 319.970763 
L 501.767706 303.274025 
L 501.916898 311.682256 
L 502.918611 314.200548 
L 503.451438 314.200548 
L 503.63473 311.962976 
L 504.985978 311.962976 
L 505.399451 306.263116 
L 506.520518 306.263116 
L 506.972355 311.962976 
L 509.589598 311.962976 
L 509.627962 314.757592 
L 511.124138 312.2392 
L 512.658678 312.2392 
L 512.957061 309.444685 
L 517.262298 309.444685 
L 517.842014 311.682256 
L 518.796838 311.682256 
L 518.928979 314.200548 
L 526.469539 314.200548 
L 526.678407 311.682256 
L 528.004079 311.682256 
L 528.131957 309.444685 
L 529.538619 311.682256 
L 530.936755 305.982295 
L 534.142239 305.982295 
L 534.94361 308.500617 
L 538.745859 308.500617 
L 539.790199 276.718383 
L 540.293187 285.419826 
L 541.158497 269.434034 
L 541.814939 272.896823 
L 543.259965 307.192163 
L 543.583923 298.490879 
L 543.946245 310.745254 
L 546.41856 310.745254 
L 547.369122 282.146916 
L 548.91645 310.745254 
L 549.206307 292.191502 
L 549.58568 292.191502 
L 551.02218 313.263646 
L 552.55672 313.263646 
L 553.294152 320.548394 
L 555.6258 320.548394 
L 556.614726 316.995063 
L 557.16034 316.995063 
L 558.298457 314.200548 
L 558.69488 314.200548 
L 558.699143 311.682256 
L 560.22942 311.682256 
L 560.608793 305.982295 
L 564.83304 305.982295 
L 564.867141 303.744824 
L 566.367581 303.744824 
L 566.968609 306.263116 
L 569.104177 306.263116 
L 569.104177 306.263116 
" clip-path="url(#pd7aa320f78)" style="fill: none; stroke: #7a738c; stroke-width: 1.5; stroke-linecap: square"/>
   </g>
   <g id="patch_13">
    <path d="M 53.328125 330.84327 
L 53.328125 231.302934 
" style="fill: none; stroke: #000000; stroke-width: 0.8; stroke-linejoin: miter; stroke-linecap: square"/>
   </g>
   <g id="patch_14">
    <path d="M 574.210871 330.84327 
L 574.210871 231.302934 
" style="fill: none; stroke: #000000; stroke-width: 0.8; stroke-linejoin: miter; stroke-linecap: square"/>
   </g>
   <g id="patch_15">
    <path d="M 53.328125 330.84327 
L 574.210871 330.84327 
" style="fill: none; stroke: #000000; stroke-width: 0.8; stroke-linejoin: miter; stroke-linecap: square"/>
   </g>
   <g id="patch_16">
    <path d="M 53.328125 231.302934 
L 574.210871 231.302934 
" style="fill: none; stroke: #000000; stroke-width: 0.8; stroke-linejoin: miter; stroke-linecap: square"/>
   </g>
  </g>
 </g>
 <defs>
  <clipPath id="p58810cdf67">
   <rect x="53.328125" y="7.2" width="520.882746" height="99.540336"/>
  </clipPath>
  <clipPath id="p16a4b82cbf">
   <rect x="53.328125" y="119.840471" width="520.882746" height="99.540336"/>
  </clipPath>
  <clipPath id="pd7aa320f78">
   <rect x="53.328125" y="231.302934" width="520.882746" height="99.540336"/>
  </clipPath>
 </defs>
</svg>
