<?xml version="1.0" encoding="utf-8" standalone="no"?>
<!DOCTYPE svg PUBLIC "-//W3C//DTD SVG 1.1//EN"
  "http://www.w3.org/Graphics/SVG/1.1/DTD/svg11.dtd">
<svg xmlns:xlink="http://www.w3.org/1999/xlink"   viewBox="0 0 584.399524 368.399541" xmlns="http://www.w3.org/2000/svg" version="1.1" preserveAspectRatio="xMidYMid meet" style="width:100%;height:auto;aspect-ratio:8 / 5;display:block;">
 <metadata>
  <rdf:RDF xmlns:dc="http://purl.org/dc/elements/1.1/" xmlns:cc="http://creativecommons.org/ns#" xmlns:rdf="http://www.w3.org/1999/02/22-rdf-syntax-ns#">
   <cc:Work>
    <dc:type rdf:resource="http://purl.org/dc/dcmitype/StillImage"/>
    <dc:date>2025-12-03T00:19:11.470067</dc:date>
    <dc:format>image/svg+xml</dc:format>
    <dc:creator>
     <cc:Agent>
      <dc:title>Matplotlib v3.10.7, https://matplotlib.org/</dc:title>
     </cc:Agent>
    </dc:creator>
   </cc:Work>
  </rdf:RDF>
 </metadata>
 <defs>
  <style type="text/css">*{stroke-linejoin: round; stroke-linecap: butt}</style>
 </defs>
 <g id="figure_1">
  <g id="patch_1">
   <path d="M 0 368.399541 
L 584.399524 368.399541 
L 584.399524 0 
L 0 0 
z
" style="fill: #ffffff"/>
  </g>
  <g id="axes_1">
   <g id="patch_2">
    <path d="M 53.328125 109.722447 
L 574.210873 109.722447 
L 574.210873 8.897095 
L 53.328125 8.897095 
z
" style="fill: #ffffff"/>
   </g>
   <g id="matplotlib.axis_1">
    <g id="xtick_1">
     <g id="line2d_1">
      <defs>
       <path id="m277d82f318" d="M 0 0 
L 0 3.5 
" style="stroke: #000000; stroke-width: 0.8"/>
      </defs>
      <g>
       <use xlink:href="#m277d82f318" x="58.434077" y="109.722447" style="stroke: #000000; stroke-width: 0.8"/>
      </g>
     </g>
    </g>
    <g id="xtick_2">
     <g id="line2d_2">
      <g>
       <use xlink:href="#m277d82f318" x="90.459261" y="109.722447" style="stroke: #000000; stroke-width: 0.8"/>
      </g>
     </g>
    </g>
    <g id="xtick_3">
     <g id="line2d_3">
      <g>
       <use xlink:href="#m277d82f318" x="122.484446" y="109.722447" style="stroke: #000000; stroke-width: 0.8"/>
      </g>
     </g>
    </g>
    <g id="xtick_4">
     <g id="line2d_4">
      <g>
       <use xlink:href="#m277d82f318" x="154.50963" y="109.722447" style="stroke: #000000; stroke-width: 0.8"/>
      </g>
     </g>
    </g>
    <g id="xtick_5">
     <g id="line2d_5">
      <g>
       <use xlink:href="#m277d82f318" x="186.534814" y="109.722447" style="stroke: #000000; stroke-width: 0.8"/>
      </g>
     </g>
    </g>
    <g id="xtick_6">
     <g id="line2d_6">
      <g>
       <use xlink:href="#m277d82f318" x="218.559998" y="109.722447" style="stroke: #000000; stroke-width: 0.8"/>
      </g>
     </g>
    </g>
    <g id="xtick_7">
     <g id="line2d_7">
      <g>
       <use xlink:href="#m277d82f318" x="250.585182" y="109.722447" style="stroke: #000000; stroke-width: 0.8"/>
      </g>
     </g>
    </g>
    <g id="xtick_8">
     <g id="line2d_8">
      <g>
       <use xlink:href="#m277d82f318" x="282.610366" y="109.722447" style="stroke: #000000; stroke-width: 0.8"/>
      </g>
     </g>
    </g>
    <g id="xtick_9">
     <g id="line2d_9">
      <g>
       <use xlink:href="#m277d82f318" x="314.63555" y="109.722447" style="stroke: #000000; stroke-width: 0.8"/>
      </g>
     </g>
    </g>
    <g id="xtick_10">
     <g id="line2d_10">
      <g>
       <use xlink:href="#m277d82f318" x="346.660735" y="109.722447" style="stroke: #000000; stroke-width: 0.8"/>
      </g>
     </g>
    </g>
    <g id="xtick_11">
     <g id="line2d_11">
      <g>
       <use xlink:href="#m277d82f318" x="378.685919" y="109.722447" style="stroke: #000000; stroke-width: 0.8"/>
      </g>
     </g>
    </g>
    <g id="xtick_12">
     <g id="line2d_12">
      <g>
       <use xlink:href="#m277d82f318" x="410.711103" y="109.722447" style="stroke: #000000; stroke-width: 0.8"/>
      </g>
     </g>
    </g>
    <g id="xtick_13">
     <g id="line2d_13">
      <g>
       <use xlink:href="#m277d82f318" x="442.736287" y="109.722447" style="stroke: #000000; stroke-width: 0.8"/>
      </g>
     </g>
    </g>
    <g id="xtick_14">
     <g id="line2d_14">
      <g>
       <use xlink:href="#m277d82f318" x="474.761471" y="109.722447" style="stroke: #000000; stroke-width: 0.8"/>
      </g>
     </g>
    </g>
    <g id="xtick_15">
     <g id="line2d_15">
      <g>
       <use xlink:href="#m277d82f318" x="506.786655" y="109.722447" style="stroke: #000000; stroke-width: 0.8"/>
      </g>
     </g>
    </g>
    <g id="xtick_16">
     <g id="line2d_16">
      <g>
       <use xlink:href="#m277d82f318" x="538.81184" y="109.722447" style="stroke: #000000; stroke-width: 0.8"/>
      </g>
     </g>
    </g>
    <g id="xtick_17">
     <g id="line2d_17">
      <g>
       <use xlink:href="#m277d82f318" x="570.837024" y="109.722447" style="stroke: #000000; stroke-width: 0.8"/>
      </g>
     </g>
    </g>
   </g>
   <g id="matplotlib.axis_2">
    <g id="ytick_1">
     <g id="line2d_18">
      <defs>
       <path id="m35578da06b" d="M 0 0 
L -3.5 0 
" style="stroke: #000000; stroke-width: 0.8"/>
      </defs>
      <g>
       <use xlink:href="#m35578da06b" x="53.328125" y="107.812739" style="stroke: #000000; stroke-width: 0.8"/>
      </g>
     </g>
     <g id="text_1">
      <!-- 1.8 -->
      <g transform="translate(30.425 111.611958) scale(0.1 -0.1)">
       <defs>
        <path id="DejaVuSans-31" d="M 794 531 
L 1825 531 
L 1825 4091 
L 703 3866 
L 703 4441 
L 1819 4666 
L 2450 4666 
L 2450 531 
L 3481 531 
L 3481 0 
L 794 0 
L 794 531 
z
" transform="scale(0.015625)"/>
        <path id="DejaVuSans-2e" d="M 684 794 
L 1344 794 
L 1344 0 
L 684 0 
L 684 794 
z
" transform="scale(0.015625)"/>
        <path id="DejaVuSans-38" d="M 2034 2216 
Q 1584 2216 1326 1975 
Q 1069 1734 1069 1313 
Q 1069 891 1326 650 
Q 1584 409 2034 409 
Q 2484 409 2743 651 
Q 3003 894 3003 1313 
Q 3003 1734 2745 1975 
Q 2488 2216 2034 2216 
z
M 1403 2484 
Q 997 2584 770 2862 
Q 544 3141 544 3541 
Q 544 4100 942 4425 
Q 1341 4750 2034 4750 
Q 2731 4750 3128 4425 
Q 3525 4100 3525 3541 
Q 3525 3141 3298 2862 
Q 3072 2584 2669 2484 
Q 3125 2378 3379 2068 
Q 3634 1759 3634 1313 
Q 3634 634 3220 271 
Q 2806 -91 2034 -91 
Q 1263 -91 848 271 
Q 434 634 434 1313 
Q 434 1759 690 2068 
Q 947 2378 1403 2484 
z
M 1172 3481 
Q 1172 3119 1398 2916 
Q 1625 2713 2034 2713 
Q 2441 2713 2670 2916 
Q 2900 3119 2900 3481 
Q 2900 3844 2670 4047 
Q 2441 4250 2034 4250 
Q 1625 4250 1398 4047 
Q 1172 3844 1172 3481 
z
" transform="scale(0.015625)"/>
       </defs>
       <use xlink:href="#DejaVuSans-31"/>
       <use xlink:href="#DejaVuSans-2e" transform="translate(63.623047 0)"/>
       <use xlink:href="#DejaVuSans-38" transform="translate(95.410156 0)"/>
      </g>
     </g>
    </g>
    <g id="ytick_2">
     <g id="line2d_19">
      <g>
       <use xlink:href="#m35578da06b" x="53.328125" y="83.609359" style="stroke: #000000; stroke-width: 0.8"/>
      </g>
     </g>
     <g id="text_2">
      <!-- 2.0 -->
      <g transform="translate(30.425 87.408578) scale(0.1 -0.1)">
       <defs>
        <path id="DejaVuSans-32" d="M 1228 531 
L 3431 531 
L 3431 0 
L 469 0 
L 469 531 
Q 828 903 1448 1529 
Q 2069 2156 2228 2338 
Q 2531 2678 2651 2914 
Q 2772 3150 2772 3378 
Q 2772 3750 2511 3984 
Q 2250 4219 1831 4219 
Q 1534 4219 1204 4116 
Q 875 4013 500 3803 
L 500 4441 
Q 881 4594 1212 4672 
Q 1544 4750 1819 4750 
Q 2544 4750 2975 4387 
Q 3406 4025 3406 3419 
Q 3406 3131 3298 2873 
Q 3191 2616 2906 2266 
Q 2828 2175 2409 1742 
Q 1991 1309 1228 531 
z
" transform="scale(0.015625)"/>
        <path id="DejaVuSans-30" d="M 2034 4250 
Q 1547 4250 1301 3770 
Q 1056 3291 1056 2328 
Q 1056 1369 1301 889 
Q 1547 409 2034 409 
Q 2525 409 2770 889 
Q 3016 1369 3016 2328 
Q 3016 3291 2770 3770 
Q 2525 4250 2034 4250 
z
M 2034 4750 
Q 2819 4750 3233 4129 
Q 3647 3509 3647 2328 
Q 3647 1150 3233 529 
Q 2819 -91 2034 -91 
Q 1250 -91 836 529 
Q 422 1150 422 2328 
Q 422 3509 836 4129 
Q 1250 4750 2034 4750 
z
" transform="scale(0.015625)"/>
       </defs>
       <use xlink:href="#DejaVuSans-32"/>
       <use xlink:href="#DejaVuSans-2e" transform="translate(63.623047 0)"/>
       <use xlink:href="#DejaVuSans-30" transform="translate(95.410156 0)"/>
      </g>
     </g>
    </g>
    <g id="ytick_3">
     <g id="line2d_20">
      <g>
       <use xlink:href="#m35578da06b" x="53.328125" y="59.405979" style="stroke: #000000; stroke-width: 0.8"/>
      </g>
     </g>
     <g id="text_3">
      <!-- 2.2 -->
      <g transform="translate(30.425 63.205198) scale(0.1 -0.1)">
       <use xlink:href="#DejaVuSans-32"/>
       <use xlink:href="#DejaVuSans-2e" transform="translate(63.623047 0)"/>
       <use xlink:href="#DejaVuSans-32" transform="translate(95.410156 0)"/>
      </g>
     </g>
    </g>
    <g id="ytick_4">
     <g id="line2d_21">
      <g>
       <use xlink:href="#m35578da06b" x="53.328125" y="35.202599" style="stroke: #000000; stroke-width: 0.8"/>
      </g>
     </g>
     <g id="text_4">
      <!-- 2.4 -->
      <g transform="translate(30.425 39.001818) scale(0.1 -0.1)">
       <defs>
        <path id="DejaVuSans-34" d="M 2419 4116 
L 825 1625 
L 2419 1625 
L 2419 4116 
z
M 2253 4666 
L 3047 4666 
L 3047 1625 
L 3713 1625 
L 3713 1100 
L 3047 1100 
L 3047 0 
L 2419 0 
L 2419 1100 
L 313 1100 
L 313 1709 
L 2253 4666 
z
" transform="scale(0.015625)"/>
       </defs>
       <use xlink:href="#DejaVuSans-32"/>
       <use xlink:href="#DejaVuSans-2e" transform="translate(63.623047 0)"/>
       <use xlink:href="#DejaVuSans-34" transform="translate(95.410156 0)"/>
      </g>
     </g>
    </g>
    <g id="ytick_5">
     <g id="line2d_22">
      <g>
       <use xlink:href="#m35578da06b" x="53.328125" y="10.999219" style="stroke: #000000; stroke-width: 0.8"/>
      </g>
     </g>
     <g id="text_5">
      <!-- 2.6 -->
      <g transform="translate(30.425 14.798437) scale(0.1 -0.1)">
       <defs>
        <path id="DejaVuSans-36" d="M 2113 2584 
Q 1688 2584 1439 2293 
Q 1191 2003 1191 1497 
Q 1191 994 1439 701 
Q 1688 409 2113 409 
Q 2538 409 2786 701 
Q 3034 994 3034 1497 
Q 3034 2003 2786 2293 
Q 2538 2584 2113 2584 
z
M 3366 4563 
L 3366 3988 
Q 3128 4100 2886 4159 
Q 2644 4219 2406 4219 
Q 1781 4219 1451 3797 
Q 1122 3375 1075 2522 
Q 1259 2794 1537 2939 
Q 1816 3084 2150 3084 
Q 2853 3084 3261 2657 
Q 3669 2231 3669 1497 
Q 3669 778 3244 343 
Q 2819 -91 2113 -91 
Q 1303 -91 875 529 
Q 447 1150 447 2328 
Q 447 3434 972 4092 
Q 1497 4750 2381 4750 
Q 2619 4750 2861 4703 
Q 3103 4656 3366 4563 
z
" transform="scale(0.015625)"/>
       </defs>
       <use xlink:href="#DejaVuSans-32"/>
       <use xlink:href="#DejaVuSans-2e" transform="translate(63.623047 0)"/>
       <use xlink:href="#DejaVuSans-36" transform="translate(95.410156 0)"/>
      </g>
     </g>
    </g>
    <g id="text_6">
     <!-- Price -->
     <g transform="translate(14.798438 71.507427) rotate(-90) scale(0.1 -0.1)">
      <defs>
       <path id="DejaVuSans-50" d="M 1259 4147 
L 1259 2394 
L 2053 2394 
Q 2494 2394 2734 2622 
Q 2975 2850 2975 3272 
Q 2975 3691 2734 3919 
Q 2494 4147 2053 4147 
L 1259 4147 
z
M 628 4666 
L 2053 4666 
Q 2838 4666 3239 4311 
Q 3641 3956 3641 3272 
Q 3641 2581 3239 2228 
Q 2838 1875 2053 1875 
L 1259 1875 
L 1259 0 
L 628 0 
L 628 4666 
z
" transform="scale(0.015625)"/>
       <path id="DejaVuSans-72" d="M 2631 2963 
Q 2534 3019 2420 3045 
Q 2306 3072 2169 3072 
Q 1681 3072 1420 2755 
Q 1159 2438 1159 1844 
L 1159 0 
L 581 0 
L 581 3500 
L 1159 3500 
L 1159 2956 
Q 1341 3275 1631 3429 
Q 1922 3584 2338 3584 
Q 2397 3584 2469 3576 
Q 2541 3569 2628 3553 
L 2631 2963 
z
" transform="scale(0.015625)"/>
       <path id="DejaVuSans-69" d="M 603 3500 
L 1178 3500 
L 1178 0 
L 603 0 
L 603 3500 
z
M 603 4863 
L 1178 4863 
L 1178 4134 
L 603 4134 
L 603 4863 
z
" transform="scale(0.015625)"/>
       <path id="DejaVuSans-63" d="M 3122 3366 
L 3122 2828 
Q 2878 2963 2633 3030 
Q 2388 3097 2138 3097 
Q 1578 3097 1268 2742 
Q 959 2388 959 1747 
Q 959 1106 1268 751 
Q 1578 397 2138 397 
Q 2388 397 2633 464 
Q 2878 531 3122 666 
L 3122 134 
Q 2881 22 2623 -34 
Q 2366 -91 2075 -91 
Q 1284 -91 818 406 
Q 353 903 353 1747 
Q 353 2603 823 3093 
Q 1294 3584 2113 3584 
Q 2378 3584 2631 3529 
Q 2884 3475 3122 3366 
z
" transform="scale(0.015625)"/>
       <path id="DejaVuSans-65" d="M 3597 1894 
L 3597 1613 
L 953 1613 
Q 991 1019 1311 708 
Q 1631 397 2203 397 
Q 2534 397 2845 478 
Q 3156 559 3463 722 
L 3463 178 
Q 3153 47 2828 -22 
Q 2503 -91 2169 -91 
Q 1331 -91 842 396 
Q 353 884 353 1716 
Q 353 2575 817 3079 
Q 1281 3584 2069 3584 
Q 2775 3584 3186 3129 
Q 3597 2675 3597 1894 
z
M 3022 2063 
Q 3016 2534 2758 2815 
Q 2500 3097 2075 3097 
Q 1594 3097 1305 2825 
Q 1016 2553 972 2059 
L 3022 2063 
z
" transform="scale(0.015625)"/>
      </defs>
      <use xlink:href="#DejaVuSans-50"/>
      <use xlink:href="#DejaVuSans-72" transform="translate(58.552734 0)"/>
      <use xlink:href="#DejaVuSans-69" transform="translate(99.666016 0)"/>
      <use xlink:href="#DejaVuSans-63" transform="translate(127.449219 0)"/>
      <use xlink:href="#DejaVuSans-65" transform="translate(182.429688 0)"/>
     </g>
    </g>
   </g>
   <g id="line2d_23">
    <path d="M 58.434819 22.074686 
L 58.456132 21.954879 
L 59.845743 24.432095 
L 60.173964 23.833061 
L 61.209779 20.484523 
L 61.725555 21.072666 
L 63.051227 23.404661 
L 64.572979 21.519218 
L 64.935301 23.139634 
L 66.107519 22.409902 
L 67.599433 25.131572 
L 67.735837 24.285664 
L 67.974543 26.126331 
L 69.176599 25.264691 
L 72.245679 25.264691 
L 72.983111 22.083157 
L 74.006138 23.471221 
L 74.236319 22.349394 
L 75.664294 23.846373 
L 76.175807 21.653547 
L 76.908976 22.495824 
L 77.697559 20.075486 
L 78.388102 21.518008 
L 80.01642 18.550673 
L 81.448657 21.401832 
L 81.474233 21.947618 
L 82.279866 16.741471 
L 83.013035 17.785847 
L 84.32592 22.518818 
L 84.794807 20.790696 
L 85.319108 24.910112 
L 86.103429 22.730597 
L 87.556979 25.584176 
L 87.595343 25.446216 
L 88.993479 21.03515 
L 89.573194 24.450247 
L 90.434242 19.3155 
L 90.668685 19.523649 
L 92.143549 28.359093 
L 92.416356 26.462758 
L 93.217727 33.083593 
L 93.912533 28.849212 
L 95.008024 36.28328 
L 96.346484 35.580172 
L 96.572402 32.050109 
L 96.823896 33.518044 
L 97.795772 37.060208 
L 99.313261 35.334507 
L 99.863138 33.003722 
L 100.476954 31.616868 
L 100.822226 45.608842 
L 102.045595 36.412768 
L 102.936481 40.00576 
L 104.407082 51.808538 
L 105.067786 45.801259 
L 105.506835 51.002566 
L 106.964648 42.145339 
L 107.723393 43.257484 
L 108.908399 39.839967 
L 109.206782 39.640289 
L 110.447202 53.559653 
L 110.664595 46.515259 
L 111.91354 55.774262 
L 112.182085 49.964241 
L 112.889678 53.53908 
L 114.556359 48.591909 
L 114.918681 52.144965 
L 116.248616 54.208303 
L 116.77718 44.329694 
L 118.013337 59.808965 
L 118.281881 54.220405 
L 118.929798 64.768238 
L 120.886337 74.955441 
L 121.346699 60.714172 
L 121.883788 56.05018 
L 122.881239 63.070371 
L 123.614408 71.356398 
L 124.326264 56.419282 
L 124.420042 57.892058 
L 125.98442 52.217575 
L 126.679226 55.648404 
L 127.791767 53.1131 
L 128.094413 58.802105 
L 129.773882 58.199441 
L 130.413273 54.262761 
L 130.622141 55.604838 
L 131.768784 48.998526 
L 132.22062 54.293015 
L 133.183971 50.027169 
L 133.946978 51.338992 
L 135.127721 46.333733 
L 135.264125 48.058224 
L 136.402242 38.063438 
L 136.760302 39.121126 
L 137.246239 43.745182 
L 138.648638 40.94122 
L 139.471322 45.893232 
L 139.995624 44.421666 
L 140.353683 33.99243 
L 141.837072 39.549526 
L 142.676806 44.119124 
L 143.388662 45.705656 
L 144.05363 43.350667 
L 144.518254 44.391412 
L 145.886552 48.358346 
L 147.028932 50.086468 
L 147.365678 46.828693 
L 147.681112 46.215137 
L 148.917269 55.049371 
L 149.24549 53.661307 
L 149.663226 58.151034 
L 151.065625 54.181679 
L 151.72633 59.05745 
L 152.11849 56.632272 
L 152.438186 61.580653 
L 154.288159 59.543938 
L 155.059692 56.380557 
L 155.575468 60.139342 
L 156.636858 55.47293 
L 157.630047 58.095366 
L 157.958268 55.230896 
L 158.776689 54.916252 
L 159.582323 57.501173 
L 159.919069 55.411211 
L 160.997509 60.312396 
L 161.249004 58.282942 
L 162.020536 63.521764 
L 163.064876 65.113136 
L 163.431461 60.011064 
L 164.318084 63.359601 
L 165.801472 50.345444 
L 165.942139 53.143354 
L 166.977953 41.483376 
L 167.497992 43.285318 
L 168.512493 39.130808 
L 169.275501 41.557196 
L 170.451981 45.774635 
L 170.712001 44.339375 
L 171.197938 47.553584 
L 171.990784 46.385771 
L 172.847569 43.238121 
L 173.725667 43.195765 
L 174.637866 47.864597 
L 175.486125 47.115503 
L 176.172406 43.413596 
L 176.858686 44.278866 
L 177.122968 46.395452 
L 178.128944 45.493876 
L 179.578232 50.208695 
L 179.676272 48.728658 
L 181.02752 53.782324 
L 181.30459 53.143354 
L 181.649861 50.812569 
L 183.201452 49.944878 
L 183.482784 52.75005 
L 184.27563 50.3878 
L 185.025849 48.755282 
L 185.805907 48.839993 
L 186.769258 50.837983 
L 187.843436 49.119543 
L 188.943189 54.426134 
L 190.213447 50.793206 
L 190.405265 51.282115 
L 191.586008 47.796828 
L 192.037845 47.990455 
L 193.606486 53.11068 
L 194.774442 49.422085 
L 195.94666 51.116321 
L 196.223729 44.051355 
L 196.577526 48.720187 
L 197.140191 43.65805 
L 198.704569 47.034421 
L 199.915151 40.575749 
L 200.690946 43.464423 
L 201.632983 44.465233 
L 201.910053 36.153792 
L 202.698636 39.426089 
L 203.248513 31.875844 
L 204.382367 34.841969 
L 205.051597 25.915762 
L 206.300543 30.289313 
L 207.276681 25.82863 
L 207.472761 26.928673 
L 208.781382 23.100909 
L 208.819746 23.417973 
L 210.03459 14.570427 
L 210.823173 20.359876 
L 211.633069 14.715648 
L 212.106219 15.768495 
L 212.489854 23.306638 
L 213.751587 21.453869 
L 214.403767 15.597861 
L 215.230713 18.508317 
L 216.437032 13.480065 
L 217.153151 21.699533 
L 219.067063 21.325591 
L 219.480537 14.811251 
L 219.970737 21.314699 
L 220.320271 16.201735 
L 221.100329 18.941558 
L 222.626344 26.848802 
L 223.299836 25.589016 
L 223.99038 30.009764 
L 224.365489 30.361923 
L 224.642559 27.112619 
L 225.989544 26.765301 
L 227.131924 29.26914 
L 227.315216 26.842751 
L 228.065436 31.182417 
L 228.781555 28.608388 
L 230.230842 32.391376 
L 230.60169 30.611218 
L 231.334859 33.812115 
L 231.837847 32.514814 
L 233.274347 37.622937 
L 233.461902 37.017852 
L 233.824224 33.867783 
L 235.294825 37.492239 
L 235.712561 33.665684 
L 236.880516 34.92668 
L 237.754351 36.657222 
L 238.197663 34.401467 
L 239.267578 37.622937 
L 239.885657 38.845208 
L 240.729654 32.035587 
L 241.045087 33.334098 
L 242.558314 30.519245 
L 243.470513 31.645912 
L 243.815785 29.236466 
L 244.122693 29.33691 
L 245.567718 43.908555 
L 246.138908 43.988426 
L 246.377614 40.497088 
L 247.622297 45.224008 
L 249.259139 35.985578 
L 249.629987 39.549526 
L 250.444145 37.705228 
L 251.752767 33.217922 
L 252.767269 36.029144 
L 253.150904 22.135194 
L 253.342721 28.966598 
L 254.838898 21.538581 
L 255.491077 20.843944 
L 255.891763 25.092847 
L 256.727234 26.26187 
L 257.485979 20.38892 
L 258.09127 21.520428 
L 258.892641 26.369575 
L 260.525221 21.111391 
L 260.977058 29.796774 
L 261.002634 28.680998 
L 262.511598 40.659251 
L 262.852607 38.593492 
L 264.003512 46.992065 
L 264.255006 50.123983 
L 265.555102 44.899683 
L 266.428938 41.877891 
L 266.795522 47.038052 
L 267.277197 48.610061 
L 268.304487 42.865389 
L 268.709435 45.355917 
L 269.736724 53.718185 
L 271.147649 51.145365 
L 271.29684 44.526951 
L 271.799828 44.784717 
L 273.193702 50.381749 
L 273.69669 47.404733 
L 275.069251 56.277692 
L 275.307957 47.837974 
L 276.339509 50.698813 
L 277.660919 43.069908 
L 278.078655 42.767365 
L 279.357438 50.329712 
L 279.54073 45.224008 
L 280.435879 53.318829 
L 281.365128 49.200624 
L 282.047146 55.840821 
L 282.597023 54.564093 
L 283.897119 49.60361 
L 284.042048 50.89244 
L 284.638813 47.304289 
L 286.369434 50.591108 
L 287.047189 48.215546 
L 287.575753 48.895661 
L 288.551891 54.388618 
L 288.637143 53.959008 
L 289.988391 51.357145 
L 290.83665 54.094547 
L 291.535718 50.269203 
L 292.128221 50.67824 
L 293.654236 55.923113 
L 294.229689 51.191352 
L 294.779566 51.487843 
L 296.199015 53.880347 
L 296.84267 53.122782 
L 297.102689 57.681488 
L 298.266382 54.565303 
L 298.918561 58.91344 
L 299.809447 60.509653 
L 300.866575 52.918263 
L 301.672208 54.771032 
L 302.149621 51.842423 
L 302.652609 52.946097 
L 303.014931 51.127213 
L 304.549471 53.057432 
L 305.308216 50.091308 
L 305.500033 50.028379 
L 307.026048 56.127631 
L 307.128351 54.467279 
L 307.835944 58.435424 
L 308.573376 56.410811 
L 309.835109 63.886025 
L 310.598116 64.828746 
L 310.772883 56.124001 
L 312.28611 56.05018 
L 312.912714 61.531036 
L 314.012468 63.415269 
L 314.387578 56.266801 
L 314.877778 59.611708 
L 315.039757 53.666148 
L 316.506096 55.597577 
L 317.631425 51.486633 
L 318.232453 54.611289 
L 319.242692 51.756501 
L 319.690266 52.372477 
L 320.836909 50.484613 
L 321.015938 49.633864 
L 321.63828 51.600389 
L 322.375711 50.303088 
L 323.897464 58.799684 
L 324.400452 46.904933 
L 325.410691 61.62906 
L 325.973355 57.139333 
L 326.906867 66.109105 
L 327.192462 63.227693 
L 328.027934 69.918717 
L 328.522397 67.678694 
L 329.711665 63.036486 
L 330.056937 63.182917 
L 331.165216 69.186565 
L 332.341697 63.944113 
L 332.686968 70.458453 
L 333.850661 67.272078 
L 334.238559 62.686747 
L 335.338312 68.560908 
L 336.088532 61.908609 
L 336.280349 63.769849 
L 336.489217 60.164755 
L 338.121798 59.572982 
L 338.825128 63.008652 
L 339.750115 65.608095 
L 340.419345 59.712152 
L 340.794455 61.554029 
L 341.706654 54.910201 
L 342.324732 58.354342 
L 343.556627 54.864215 
L 344.332422 54.666957 
L 345.278722 59.131271 
L 345.713508 55.631462 
L 346.889989 60.372904 
L 347.51233 59.929982 
L 348.185823 57.466078 
L 348.629134 57.62219 
L 349.694787 62.370893 
L 349.997433 62.370893 
L 350.525996 68.329765 
L 351.911345 63.075212 
L 353.211442 68.040535 
L 353.462936 65.614146 
L 355.329959 66.454003 
L 356.118542 70.495968 
L 356.864499 65.702488 
L 357.307811 73.836034 
L 357.815062 72.29791 
L 359.16631 79.342303 
L 360.065721 80.511327 
L 360.675274 77.522209 
L 360.811678 77.642016 
L 362.209814 70.095402 
L 362.772479 72.129696 
L 363.578112 67.623027 
L 364.5372 68.784789 
L 365.074289 66.904186 
L 365.568752 69.262806 
L 366.110103 65.759366 
L 367.261008 69.422548 
L 367.98139 66.694827 
L 368.420439 67.459654 
L 369.230335 70.247883 
L 370.411078 70.630297 
L 371.702649 66.864251 
L 372.205638 72.417716 
L 373.015534 70.350748 
L 374.21759 85.61824 
L 374.861244 82.165628 
L 375.402596 86.759429 
L 376.178391 85.424613 
L 377.717194 77.563355 
L 378.680544 84.216864 
L 379.656682 80.46413 
L 380.683971 87.772341 
L 381.174172 83.788464 
L 381.817826 88.91111 
L 382.414592 84.847362 
L 383.744526 100.764715 
L 383.765839 96.049897 
L 384.302929 89.358872 
L 386.127326 94.192287 
L 386.822132 100.778027 
L 387.026737 105.139476 
L 387.943199 90.870373 
L 388.650792 88.185008 
L 389.580041 97.522672 
L 389.895475 93.829237 
L 390.317473 84.215654 
L 391.481166 87.421392 
L 392.363527 93.046257 
L 393.284251 87.98533 
L 394.119722 95.709839 
L 395.027659 91.91838 
L 396.063473 88.246727 
L 397.563912 92.625118 
L 398.497424 94.14146 
L 399.098452 89.396387 
L 399.614228 89.020025 
L 400.483801 94.802212 
L 401.11893 92.769129 
L 402.099331 96.314924 
L 402.448865 92.695308 
L 403.433528 96.605364 
L 403.791587 97.044656 
L 405.083159 91.283041 
L 405.240875 93.081352 
L 405.880267 89.789692 
L 407.099374 93.103135 
L 407.483009 91.055529 
L 408.650964 93.335488 
L 409.806132 89.867143 
L 409.848758 90.374204 
L 409.980899 87.869154 
L 411.404611 88.713852 
L 412.51289 77.847745 
L 413.088343 80.39394 
L 413.774623 74.626275 
L 414.60157 76.459681 
L 415.697061 81.705763 
L 416.012494 81.233798 
L 417.223076 77.392721 
L 418.246102 80.848964 
L 418.949433 77.710996 
L 419.639976 79.6751 
L 420.104601 76.137776 
L 420.769568 79.131734 
L 421.792595 74.047814 
L 422.628067 78.647666 
L 423.651094 74.665 
L 424.290485 73.560116 
L 424.840362 76.817891 
L 425.407289 73.842085 
L 426.656235 78.405633 
L 426.971668 80.692852 
L 428.348491 70.854178 
L 429.695476 78.111561 
L 429.934183 77.500426 
L 430.373232 71.282578 
L 432.142215 76.855406 
L 432.790132 74.343095 
L 433.033101 78.971992 
L 434.878812 77.832012 
L 435.910364 71.863459 
L 436.630745 77.508897 
L 437.440641 71.171242 
L 437.551469 73.045794 
L 438.753525 58.130461 
L 439.043383 59.48585 
L 440.424469 49.017888 
L 440.594974 50.597159 
L 441.954747 55.370065 
L 442.67939 56.946916 
L 443.365671 51.665738 
L 443.826033 52.144965 
L 444.495263 55.504394 
L 445.710107 55.215164 
L 446.664932 52.515277 
L 446.69477 52.53827 
L 448.127008 58.230905 
L 448.344401 57.352322 
L 449.039207 61.27327 
L 450.697362 60.156284 
L 450.910493 57.573783 
L 451.784328 55.347072 
L 452.79883 64.073601 
L 453.01196 64.117167 
L 453.783493 58.441474 
L 454.503874 58.616949 
L 455.710193 65.698858 
L 456.660756 57.867854 
L 457.568692 63.112727 
L 458.25071 57.489071 
L 459.478342 60.856972 
L 459.891815 57.961037 
L 460.586621 59.821067 
L 461.618173 62.915469 
L 462.048696 62.340639 
L 463.370106 59.017515 
L 464.077699 58.800895 
L 465.028262 61.817846 
L 465.522725 61.238175 
L 466.400822 63.036486 
L 466.784457 62.355161 
L 467.45795 66.018343 
L 468.753784 65.683126 
L 469.606306 60.277301 
L 470.032567 61.452375 
L 470.953291 52.976351 
L 472.598659 57.921102 
L 473.00787 57.308756 
L 473.093122 55.142554 
L 474.887682 57.773461 
L 475.305417 55.61694 
L 476.588464 55.246628 
L 477.296057 58.497142 
L 477.61149 56.948126 
L 478.73682 59.738776 
L 479.205707 57.590726 
L 480.301198 60.666975 
L 481.187821 58.372495 
L 481.869839 61.220022 
L 482.522018 60.289402 
L 483.417167 62.574202 
L 483.847691 62.574202 
L 485.032697 60.042528 
L 485.036959 60.278511 
L 486.102612 57.243407 
L 486.695115 59.205091 
L 487.389921 55.856553 
L 488.242443 55.454777 
L 489.46155 58.046959 
L 489.789771 57.168377 
L 490.991827 60.34386 
L 491.183645 58.950956 
L 492.321762 63.399537 
L 492.709659 61.959436 
L 494.227149 59.405979 
L 494.65341 56.985641 
L 495.199025 59.852531 
L 496.094173 60.018325 
L 496.899806 53.68188 
L 497.317542 55.170388 
L 498.289418 60.884806 
L 499.555413 60.600416 
L 499.985937 56.381767 
L 500.633854 59.103437 
L 501.094216 50.339393 
L 502.850412 64.535886 
L 503.45144 63.036486 
L 503.92459 60.169596 
L 505.271575 60.362013 
L 505.629634 62.264398 
L 506.908418 62.431402 
L 507.552072 60.956206 
L 508.523947 62.627449 
L 509.031198 60.833979 
L 510.122427 60.641562 
L 511.192342 63.121198 
L 511.328746 60.762579 
L 512.901649 62.142171 
L 514.090918 60.858182 
L 514.223059 61.285372 
L 514.888026 56.744817 
L 516.358627 60.27246 
L 517.002281 56.83195 
L 518.089247 56.800485 
L 518.694538 59.585084 
L 519.581161 57.90779 
L 520.203502 60.616148 
L 520.344169 60.604046 
L 521.06455 57.669387 
L 521.976749 58.247847 
L 522.279394 59.635911 
L 524.210357 57.856963 
L 525.028778 60.616148 
L 525.297323 58.19339 
L 526.90859 60.388636 
L 527.888991 59.220823 
L 528.413292 58.305935 
L 528.669049 60.474558 
L 529.802903 59.921511 
L 530.510497 61.311995 
L 531.88732 58.527396 
L 532.599176 60.614938 
L 532.897559 60.996141 
L 534.061252 57.614929 
L 534.142241 58.138932 
L 534.922299 59.810176 
L 536.273547 59.011464 
L 537.070655 61.636321 
L 537.675946 59.864633 
L 538.571095 63.826727 
L 538.75865 63.825516 
L 539.483293 76.483884 
L 540.301715 73.240631 
L 541.810679 79.504466 
L 542.590737 81.542391 
L 543.332431 78.059524 
L 543.750167 79.60491 
L 544.240368 76.459681 
L 544.884022 76.803369 
L 546.294946 79.068805 
L 546.444138 78.059524 
L 547.373387 83.266881 
L 548.575443 77.660168 
L 549.351239 85.47544 
L 550.118509 85.181369 
L 551.005132 82.335051 
L 551.870442 85.036149 
L 552.279653 81.055903 
L 552.560985 82.487533 
L 553.23874 78.452829 
L 554.197828 78.451619 
L 555.186754 82.094228 
L 555.630065 79.825161 
L 557.211494 83.242678 
L 557.53119 80.287445 
L 558.937852 82.39798 
L 559.462153 80.491964 
L 560.51928 84.051071 
L 561.137359 81.237428 
L 561.925942 82.051872 
L 562.889292 78.647666 
L 563.366705 80.063564 
L 564.833043 72.653699 
L 565.344556 63.969526 
L 566.367583 64.85174 
L 567.642104 61.826317 
L 567.983113 61.420911 
L 568.626767 65.648031 
L 569.10418 63.380174 
L 569.10418 63.380174 
" clip-path="url(#pac15bb0d62)" style="fill: none; stroke: #4169e1; stroke-width: 1.5; stroke-linecap: square"/>
   </g>
   <g id="patch_3">
    <path d="M 53.328125 109.722447 
L 53.328125 8.897095 
" style="fill: none; stroke: #000000; stroke-width: 0.8; stroke-linejoin: miter; stroke-linecap: square"/>
   </g>
   <g id="patch_4">
    <path d="M 574.210873 109.722447 
L 574.210873 8.897095 
" style="fill: none; stroke: #000000; stroke-width: 0.8; stroke-linejoin: miter; stroke-linecap: square"/>
   </g>
   <g id="patch_5">
    <path d="M 53.328125 109.722447 
L 574.210873 109.722447 
" style="fill: none; stroke: #000000; stroke-width: 0.8; stroke-linejoin: miter; stroke-linecap: square"/>
   </g>
   <g id="patch_6">
    <path d="M 53.328125 8.897095 
L 574.210873 8.897095 
" style="fill: none; stroke: #000000; stroke-width: 0.8; stroke-linejoin: miter; stroke-linecap: square"/>
   </g>
  </g>
  <g id="axes_2">
   <g id="patch_7">
    <path d="M 53.328125 220.517459 
L 574.210873 220.517459 
L 574.210873 119.692107 
L 53.328125 119.692107 
z
" style="fill: #ffffff"/>
   </g>
   <g id="matplotlib.axis_3">
    <g id="xtick_18">
     <g id="line2d_24">
      <g>
       <use xlink:href="#m277d82f318" x="58.434077" y="220.517459" style="stroke: #000000; stroke-width: 0.8"/>
      </g>
     </g>
    </g>
    <g id="xtick_19">
     <g id="line2d_25">
      <g>
       <use xlink:href="#m277d82f318" x="90.459261" y="220.517459" style="stroke: #000000; stroke-width: 0.8"/>
      </g>
     </g>
    </g>
    <g id="xtick_20">
     <g id="line2d_26">
      <g>
       <use xlink:href="#m277d82f318" x="122.484446" y="220.517459" style="stroke: #000000; stroke-width: 0.8"/>
      </g>
     </g>
    </g>
    <g id="xtick_21">
     <g id="line2d_27">
      <g>
       <use xlink:href="#m277d82f318" x="154.50963" y="220.517459" style="stroke: #000000; stroke-width: 0.8"/>
      </g>
     </g>
    </g>
    <g id="xtick_22">
     <g id="line2d_28">
      <g>
       <use xlink:href="#m277d82f318" x="186.534814" y="220.517459" style="stroke: #000000; stroke-width: 0.8"/>
      </g>
     </g>
    </g>
    <g id="xtick_23">
     <g id="line2d_29">
      <g>
       <use xlink:href="#m277d82f318" x="218.559998" y="220.517459" style="stroke: #000000; stroke-width: 0.8"/>
      </g>
     </g>
    </g>
    <g id="xtick_24">
     <g id="line2d_30">
      <g>
       <use xlink:href="#m277d82f318" x="250.585182" y="220.517459" style="stroke: #000000; stroke-width: 0.8"/>
      </g>
     </g>
    </g>
    <g id="xtick_25">
     <g id="line2d_31">
      <g>
       <use xlink:href="#m277d82f318" x="282.610366" y="220.517459" style="stroke: #000000; stroke-width: 0.8"/>
      </g>
     </g>
    </g>
    <g id="xtick_26">
     <g id="line2d_32">
      <g>
       <use xlink:href="#m277d82f318" x="314.63555" y="220.517459" style="stroke: #000000; stroke-width: 0.8"/>
      </g>
     </g>
    </g>
    <g id="xtick_27">
     <g id="line2d_33">
      <g>
       <use xlink:href="#m277d82f318" x="346.660735" y="220.517459" style="stroke: #000000; stroke-width: 0.8"/>
      </g>
     </g>
    </g>
    <g id="xtick_28">
     <g id="line2d_34">
      <g>
       <use xlink:href="#m277d82f318" x="378.685919" y="220.517459" style="stroke: #000000; stroke-width: 0.8"/>
      </g>
     </g>
    </g>
    <g id="xtick_29">
     <g id="line2d_35">
      <g>
       <use xlink:href="#m277d82f318" x="410.711103" y="220.517459" style="stroke: #000000; stroke-width: 0.8"/>
      </g>
     </g>
    </g>
    <g id="xtick_30">
     <g id="line2d_36">
      <g>
       <use xlink:href="#m277d82f318" x="442.736287" y="220.517459" style="stroke: #000000; stroke-width: 0.8"/>
      </g>
     </g>
    </g>
    <g id="xtick_31">
     <g id="line2d_37">
      <g>
       <use xlink:href="#m277d82f318" x="474.761471" y="220.517459" style="stroke: #000000; stroke-width: 0.8"/>
      </g>
     </g>
    </g>
    <g id="xtick_32">
     <g id="line2d_38">
      <g>
       <use xlink:href="#m277d82f318" x="506.786655" y="220.517459" style="stroke: #000000; stroke-width: 0.8"/>
      </g>
     </g>
    </g>
    <g id="xtick_33">
     <g id="line2d_39">
      <g>
       <use xlink:href="#m277d82f318" x="538.81184" y="220.517459" style="stroke: #000000; stroke-width: 0.8"/>
      </g>
     </g>
    </g>
    <g id="xtick_34">
     <g id="line2d_40">
      <g>
       <use xlink:href="#m277d82f318" x="570.837024" y="220.517459" style="stroke: #000000; stroke-width: 0.8"/>
      </g>
     </g>
    </g>
   </g>
   <g id="matplotlib.axis_4">
    <g id="ytick_6">
     <g id="line2d_41">
      <g>
       <use xlink:href="#m35578da06b" x="53.328125" y="202.062062" style="stroke: #000000; stroke-width: 0.8"/>
      </g>
     </g>
     <g id="text_7">
      <!-- 1000 -->
      <g transform="translate(20.878125 205.861281) scale(0.1 -0.1)">
       <use xlink:href="#DejaVuSans-31"/>
       <use xlink:href="#DejaVuSans-30" transform="translate(63.623047 0)"/>
       <use xlink:href="#DejaVuSans-30" transform="translate(127.246094 0)"/>
       <use xlink:href="#DejaVuSans-30" transform="translate(190.869141 0)"/>
      </g>
     </g>
    </g>
    <g id="ytick_7">
     <g id="line2d_42">
      <g>
       <use xlink:href="#m35578da06b" x="53.328125" y="163.236742" style="stroke: #000000; stroke-width: 0.8"/>
      </g>
     </g>
     <g id="text_8">
      <!-- 1100 -->
      <g transform="translate(20.878125 167.035961) scale(0.1 -0.1)">
       <use xlink:href="#DejaVuSans-31"/>
       <use xlink:href="#DejaVuSans-31" transform="translate(63.623047 0)"/>
       <use xlink:href="#DejaVuSans-30" transform="translate(127.246094 0)"/>
       <use xlink:href="#DejaVuSans-30" transform="translate(190.869141 0)"/>
      </g>
     </g>
    </g>
    <g id="ytick_8">
     <g id="line2d_43">
      <g>
       <use xlink:href="#m35578da06b" x="53.328125" y="124.411421" style="stroke: #000000; stroke-width: 0.8"/>
      </g>
     </g>
     <g id="text_9">
      <!-- 1200 -->
      <g transform="translate(20.878125 128.21064) scale(0.1 -0.1)">
       <use xlink:href="#DejaVuSans-31"/>
       <use xlink:href="#DejaVuSans-32" transform="translate(63.623047 0)"/>
       <use xlink:href="#DejaVuSans-30" transform="translate(127.246094 0)"/>
       <use xlink:href="#DejaVuSans-30" transform="translate(190.869141 0)"/>
      </g>
     </g>
    </g>
    <g id="text_10">
     <!-- Equity -->
     <g transform="translate(14.798438 185.91572) rotate(-90) scale(0.1 -0.1)">
      <defs>
       <path id="DejaVuSans-45" d="M 628 4666 
L 3578 4666 
L 3578 4134 
L 1259 4134 
L 1259 2753 
L 3481 2753 
L 3481 2222 
L 1259 2222 
L 1259 531 
L 3634 531 
L 3634 0 
L 628 0 
L 628 4666 
z
" transform="scale(0.015625)"/>
       <path id="DejaVuSans-71" d="M 947 1747 
Q 947 1113 1208 752 
Q 1469 391 1925 391 
Q 2381 391 2643 752 
Q 2906 1113 2906 1747 
Q 2906 2381 2643 2742 
Q 2381 3103 1925 3103 
Q 1469 3103 1208 2742 
Q 947 2381 947 1747 
z
M 2906 525 
Q 2725 213 2448 61 
Q 2172 -91 1784 -91 
Q 1150 -91 751 415 
Q 353 922 353 1747 
Q 353 2572 751 3078 
Q 1150 3584 1784 3584 
Q 2172 3584 2448 3432 
Q 2725 3281 2906 2969 
L 2906 3500 
L 3481 3500 
L 3481 -1331 
L 2906 -1331 
L 2906 525 
z
" transform="scale(0.015625)"/>
       <path id="DejaVuSans-75" d="M 544 1381 
L 544 3500 
L 1119 3500 
L 1119 1403 
Q 1119 906 1312 657 
Q 1506 409 1894 409 
Q 2359 409 2629 706 
Q 2900 1003 2900 1516 
L 2900 3500 
L 3475 3500 
L 3475 0 
L 2900 0 
L 2900 538 
Q 2691 219 2414 64 
Q 2138 -91 1772 -91 
Q 1169 -91 856 284 
Q 544 659 544 1381 
z
M 1991 3584 
L 1991 3584 
z
" transform="scale(0.015625)"/>
       <path id="DejaVuSans-74" d="M 1172 4494 
L 1172 3500 
L 2356 3500 
L 2356 3053 
L 1172 3053 
L 1172 1153 
Q 1172 725 1289 603 
Q 1406 481 1766 481 
L 2356 481 
L 2356 0 
L 1766 0 
Q 1100 0 847 248 
Q 594 497 594 1153 
L 594 3053 
L 172 3053 
L 172 3500 
L 594 3500 
L 594 4494 
L 1172 4494 
z
" transform="scale(0.015625)"/>
       <path id="DejaVuSans-79" d="M 2059 -325 
Q 1816 -950 1584 -1140 
Q 1353 -1331 966 -1331 
L 506 -1331 
L 506 -850 
L 844 -850 
Q 1081 -850 1212 -737 
Q 1344 -625 1503 -206 
L 1606 56 
L 191 3500 
L 800 3500 
L 1894 763 
L 2988 3500 
L 3597 3500 
L 2059 -325 
z
" transform="scale(0.015625)"/>
      </defs>
      <use xlink:href="#DejaVuSans-45"/>
      <use xlink:href="#DejaVuSans-71" transform="translate(63.183594 0)"/>
      <use xlink:href="#DejaVuSans-75" transform="translate(126.660156 0)"/>
      <use xlink:href="#DejaVuSans-69" transform="translate(190.039062 0)"/>
      <use xlink:href="#DejaVuSans-74" transform="translate(217.822266 0)"/>
      <use xlink:href="#DejaVuSans-79" transform="translate(257.03125 0)"/>
     </g>
    </g>
   </g>
   <g id="line2d_44">
    <path d="M 58.434819 202.062062 
L 67.642059 202.062062 
L 67.974543 204.391541 
L 69.176599 203.281328 
L 72.245679 203.281328 
L 72.974586 200.522948 
L 84.522 200.522948 
L 86.013914 201.796447 
L 86.103429 200.697512 
L 86.661831 202.72883 
L 87.59108 202.280539 
L 99.867401 202.280539 
L 101.205861 197.204155 
L 101.401941 197.782101 
L 109.070378 197.782101 
L 110.336374 196.640655 
L 110.447202 201.798979 
L 110.613444 198.396474 
L 112.143721 198.541629 
L 116.743079 198.541629 
L 118.013337 201.23661 
L 118.175316 192.538147 
L 118.379922 192.918035 
L 118.929798 207.625226 
L 120.072178 215.934488 
L 121.350962 193.189951 
L 122.881239 193.189951 
L 123.614408 198.517002 
L 124.326264 188.316815 
L 124.420042 190.515927 
L 125.98442 182.04293 
L 126.679226 187.165759 
L 127.489122 185.008208 
L 130.553939 185.008208 
L 131.555653 186.324448 
L 131.768784 178.665897 
L 132.22062 186.544139 
L 133.183971 180.196527 
L 133.946978 182.14853 
L 135.127721 174.700666 
L 135.264125 177.266721 
L 136.39798 163.806183 
L 136.696362 163.806183 
L 138.188276 165.061412 
L 138.648638 163.541223 
L 139.471322 170.964389 
L 139.995624 168.758483 
L 140.353683 153.124843 
L 141.837072 161.112745 
L 142.676806 167.968133 
L 143.388662 170.348275 
L 144.05363 166.815281 
L 144.518254 168.376624 
L 145.886552 174.327886 
L 147.028932 176.920443 
L 147.365678 172.033074 
L 147.681112 171.112607 
L 148.427069 179.313293 
L 149.663226 181.202936 
L 149.765529 177.633232 
L 162.779281 177.633232 
L 163.064876 180.647352 
L 163.431461 172.624647 
L 164.318084 177.890023 
L 165.801472 157.426037 
L 165.942139 161.825585 
L 166.977953 143.490964 
L 167.391426 145.863904 
L 167.399952 144.91625 
L 168.921704 145.034231 
L 173.521062 145.034231 
L 174.637866 148.234307 
L 175.012975 143.97214 
L 175.486125 147.042133 
L 176.172406 141.150596 
L 176.858686 142.527664 
L 177.122968 145.896182 
L 178.128944 144.461336 
L 179.578232 151.964908 
L 179.676272 149.609449 
L 181.02752 157.652292 
L 181.30459 156.635381 
L 181.649861 152.925966 
L 182.843392 154.749858 
L 183.201452 151.545047 
L 184.267105 152.687146 
L 204.211863 152.687146 
L 205.328667 152.359281 
L 205.746403 155.902585 
L 206.300543 157.925812 
L 207.276681 151.395502 
L 207.472761 153.005934 
L 208.781382 147.402198 
L 208.819746 147.866371 
L 210.03459 134.913821 
L 210.823173 143.389405 
L 211.633069 135.126419 
L 212.106219 136.667757 
L 212.489854 147.703379 
L 213.751587 144.990979 
L 214.403767 136.417954 
L 215.230713 140.678777 
L 216.437032 133.317562 
L 217.153151 145.350624 
L 219.067063 144.803184 
L 219.480537 135.26638 
L 219.561526 138.272874 
L 219.970737 144.787239 
L 221.096066 140.868344 
L 244.114168 140.868344 
L 245.567718 150.391034 
L 246.138908 149.66313 
L 246.377614 144.200891 
L 247.622297 151.596213 
L 249.259139 137.142581 
L 250.252328 138.776519 
L 257.920766 138.776519 
L 258.09127 136.941929 
L 258.892641 144.170833 
L 260.525221 136.332154 
L 260.977058 149.279956 
L 261.002634 147.616605 
L 262.511598 165.473279 
L 262.852607 162.393733 
L 264.003512 174.913971 
L 264.255006 179.582901 
L 265.555102 171.794736 
L 265.619042 174.342081 
L 266.428938 167.289976 
L 267.132269 172.675122 
L 268.662546 172.675122 
L 269.749512 173.102847 
L 269.7623 168.548082 
L 271.147649 176.082394 
L 271.29684 166.094828 
L 271.735889 168.697184 
L 273.266166 168.697184 
L 274.779393 169.201685 
L 274.792181 167.959866 
L 275.069251 169.750432 
L 275.307957 156.11329 
L 276.339509 156.502497 
L 302.422428 156.502497 
L 302.652609 157.255484 
L 303.014931 154.366984 
L 303.96123 156.546331 
L 308.564851 156.546331 
L 309.835109 167.115552 
L 310.598116 168.639711 
L 310.772883 154.566185 
L 311.633931 160.848695 
L 322.371449 160.848695 
L 323.897464 161.601021 
L 323.905989 160.113652 
L 324.400452 142.490757 
L 325.410691 166.146733 
L 325.973355 158.933478 
L 326.906867 173.344433 
L 327.192462 168.715118 
L 328.027934 179.465006 
L 328.522397 175.866156 
L 329.562474 169.47144 
L 330.048412 170.711887 
L 331.578689 170.711887 
L 333.036502 171.173309 
L 333.06634 167.892955 
L 333.9146 169.033937 
L 333.944438 166.918703 
L 334.652032 167.119031 
L 339.255652 167.119031 
L 340.78593 167.417549 
L 340.794455 168.289738 
L 341.706654 157.672622 
L 342.324732 163.176504 
L 343.556627 157.599134 
L 344.332422 157.283908 
L 345.278722 164.418069 
L 345.393812 163.029528 
L 349.99317 163.029528 
L 350.525996 163.522072 
L 351.44672 157.100884 
L 351.911345 154.806599 
L 353.211442 163.042339 
L 353.462936 159.017806 
L 354.895173 163.955637 
L 355.048627 161.32012 
L 356.135593 161.813903 
L 368.407651 161.813903 
L 369.230335 162.905403 
L 369.69496 160.019428 
L 370.411078 163.545381 
L 371.702649 157.242817 
L 372.205638 166.536669 
L 373.015534 163.077549 
L 374.21759 188.628048 
L 374.861244 182.850022 
L 375.402596 190.537855 
L 376.178391 188.304009 
L 377.538164 177.011239 
L 377.657517 177.580333 
L 377.708669 176.152535 
L 380.63282 175.06228 
L 380.688234 179.516455 
L 381.843402 170.715308 
L 382.222774 170.715308 
L 383.744526 190.460076 
L 383.765839 182.076682 
L 384.302929 170.179406 
L 386.127326 178.773677 
L 386.822132 190.483746 
L 387.026737 198.238816 
L 387.943199 172.866999 
L 388.650792 168.092165 
L 389.580041 184.695417 
L 389.895475 178.128138 
L 390.317473 161.034277 
L 391.430015 167.704842 
L 394.494832 167.704842 
L 395.492283 170.215423 
L 396.063473 164.998919 
L 397.563912 172.843188 
L 398.497424 175.559846 
L 399.098452 167.058636 
L 399.614228 166.384349 
L 400.483801 176.743641 
L 401.11893 173.101194 
L 402.099331 179.453795 
L 402.312461 176.951781 
L 402.355087 173.409068 
L 403.706335 173.985789 
L 411.379036 173.985789 
L 412.900788 176.633457 
L 413.088343 177.554067 
L 413.774623 167.846927 
L 414.60157 170.9326 
L 415.697061 179.761901 
L 416.012494 178.96757 
L 417.223076 172.502932 
L 418.246102 178.319884 
L 418.949433 173.038597 
L 419.639976 176.344239 
L 420.104601 170.390825 
L 420.769568 175.429739 
L 421.792595 166.873361 
L 422.628067 174.61504 
L 423.651094 167.912103 
L 424.290485 166.052552 
L 424.840362 171.535477 
L 425.407289 166.527114 
L 426.656235 174.20769 
L 426.971668 178.057143 
L 428.348491 161.498384 
L 428.906893 167.50068 
L 429.934183 165.106256 
L 430.373232 154.451561 
L 432.142215 164.000972 
L 432.790132 159.695961 
L 433.033101 167.627881 
L 434.878812 165.674452 
L 435.910364 155.44694 
L 436.630745 165.120772 
L 437.440641 154.260781 
L 437.551469 157.472949 
L 438.753525 131.914538 
L 439.043383 134.237088 
L 439.98542 126.427515 
L 440.535297 127.169902 
L 442.069837 127.169902 
L 442.197715 128.917614 
L 444.495263 130.142075 
L 444.827747 124.815195 
L 445.710107 129.64938 
L 446.664932 125.050204 
L 446.69477 125.089373 
L 448.127008 134.786604 
L 448.344401 133.289965 
L 449.039207 139.96918 
L 450.697362 138.066428 
L 450.910493 133.667217 
L 451.784328 129.874082 
L 452.79883 144.739459 
L 453.01196 144.813672 
L 453.783493 135.145302 
L 454.43141 139.633158 
L 454.503874 135.444218 
L 455.880698 137.485089 
L 462.014595 137.485089 
L 462.994996 139.397724 
L 463.370106 135.710474 
L 464.077699 135.341129 
L 465.028262 140.485123 
L 465.522725 139.496766 
L 466.400822 142.562941 
L 466.784457 141.401261 
L 467.45795 147.647097 
L 468.753784 147.075542 
L 469.606306 137.858447 
L 470.032567 139.861984 
L 470.863777 126.631624 
L 471.226098 127.71696 
L 477.359996 127.71696 
L 478.73682 128.60795 
L 478.890274 126.454122 
L 479.205707 124.878149 
L 480.301198 130.219644 
L 481.187821 126.235587 
L 481.869839 131.179937 
L 482.522018 129.56404 
L 483.417167 133.531287 
L 483.847691 133.531287 
L 485.032697 129.135376 
L 485.036959 129.545128 
L 486.102612 124.275077 
L 486.695115 127.681279 
L 491.175119 127.641354 
L 500.378097 127.641354 
L 501.793284 128.61993 
L 501.814597 126.685599 
L 501.9169 126.693982 
L 538.745862 126.693982 
L 539.483293 143.241875 
L 540.301715 137.422416 
L 541.810679 148.661789 
L 542.590737 152.318493 
L 543.332431 146.06909 
L 543.750167 148.842018 
L 543.95051 145.339486 
L 544.884022 145.489315 
L 546.414299 145.489315 
L 547.373387 151.593139 
L 547.535366 144.903318 
L 548.575443 141.444501 
L 549.351239 151.601756 
L 549.491905 146.366806 
L 549.67946 150.650973 
L 551.022182 149.264566 
L 564.82878 149.264566 
L 564.905507 150.001906 
L 565.344556 137.788245 
L 566.367583 139.313907 
L 567.642104 134.081872 
L 567.983113 133.38078 
L 568.626767 140.690978 
L 569.10418 138.351212 
L 569.10418 138.351212 
" clip-path="url(#p5f6289cefc)" style="fill: none; stroke: #2e8b57; stroke-width: 1.5; stroke-linecap: square"/>
   </g>
   <g id="patch_8">
    <path d="M 53.328125 220.517459 
L 53.328125 119.692107 
" style="fill: none; stroke: #000000; stroke-width: 0.8; stroke-linejoin: miter; stroke-linecap: square"/>
   </g>
   <g id="patch_9">
    <path d="M 574.210873 220.517459 
L 574.210873 119.692107 
" style="fill: none; stroke: #000000; stroke-width: 0.8; stroke-linejoin: miter; stroke-linecap: square"/>
   </g>
   <g id="patch_10">
    <path d="M 53.328125 220.517459 
L 574.210873 220.517459 
" style="fill: none; stroke: #000000; stroke-width: 0.8; stroke-linejoin: miter; stroke-linecap: square"/>
   </g>
   <g id="patch_11">
    <path d="M 53.328125 119.692107 
L 574.210873 119.692107 
" style="fill: none; stroke: #000000; stroke-width: 0.8; stroke-linejoin: miter; stroke-linecap: square"/>
   </g>
  </g>
  <g id="axes_3">
   <g id="patch_12">
    <path d="M 53.328125 330.843291 
L 574.210873 330.843291 
L 574.210873 230.017939 
L 53.328125 230.017939 
z
" style="fill: #ffffff"/>
   </g>
   <g id="matplotlib.axis_5">
    <g id="xtick_35">
     <g id="line2d_45">
      <g>
       <use xlink:href="#m277d82f318" x="58.434077" y="330.843291" style="stroke: #000000; stroke-width: 0.8"/>
      </g>
     </g>
     <g id="text_11">
      <!-- Nov -->
      <g transform="translate(48.674702 345.441728) scale(0.1 -0.1)">
       <defs>
        <path id="DejaVuSans-4e" d="M 628 4666 
L 1478 4666 
L 3547 763 
L 3547 4666 
L 4159 4666 
L 4159 0 
L 3309 0 
L 1241 3903 
L 1241 0 
L 628 0 
L 628 4666 
z
" transform="scale(0.015625)"/>
        <path id="DejaVuSans-6f" d="M 1959 3097 
Q 1497 3097 1228 2736 
Q 959 2375 959 1747 
Q 959 1119 1226 758 
Q 1494 397 1959 397 
Q 2419 397 2687 759 
Q 2956 1122 2956 1747 
Q 2956 2369 2687 2733 
Q 2419 3097 1959 3097 
z
M 1959 3584 
Q 2709 3584 3137 3096 
Q 3566 2609 3566 1747 
Q 3566 888 3137 398 
Q 2709 -91 1959 -91 
Q 1206 -91 779 398 
Q 353 888 353 1747 
Q 353 2609 779 3096 
Q 1206 3584 1959 3584 
z
" transform="scale(0.015625)"/>
        <path id="DejaVuSans-76" d="M 191 3500 
L 800 3500 
L 1894 563 
L 2988 3500 
L 3597 3500 
L 2284 0 
L 1503 0 
L 191 3500 
z
" transform="scale(0.015625)"/>
       </defs>
       <use xlink:href="#DejaVuSans-4e"/>
       <use xlink:href="#DejaVuSans-6f" transform="translate(74.804688 0)"/>
       <use xlink:href="#DejaVuSans-76" transform="translate(135.986328 0)"/>
      </g>
     </g>
    </g>
    <g id="xtick_36">
     <g id="line2d_46">
      <g>
       <use xlink:href="#m277d82f318" x="90.459261" y="330.843291" style="stroke: #000000; stroke-width: 0.8"/>
      </g>
     </g>
     <g id="text_12">
      <!-- 03 -->
      <g transform="translate(84.096761 345.441728) scale(0.1 -0.1)">
       <defs>
        <path id="DejaVuSans-33" d="M 2597 2516 
Q 3050 2419 3304 2112 
Q 3559 1806 3559 1356 
Q 3559 666 3084 287 
Q 2609 -91 1734 -91 
Q 1441 -91 1130 -33 
Q 819 25 488 141 
L 488 750 
Q 750 597 1062 519 
Q 1375 441 1716 441 
Q 2309 441 2620 675 
Q 2931 909 2931 1356 
Q 2931 1769 2642 2001 
Q 2353 2234 1838 2234 
L 1294 2234 
L 1294 2753 
L 1863 2753 
Q 2328 2753 2575 2939 
Q 2822 3125 2822 3475 
Q 2822 3834 2567 4026 
Q 2313 4219 1838 4219 
Q 1578 4219 1281 4162 
Q 984 4106 628 3988 
L 628 4550 
Q 988 4650 1302 4700 
Q 1616 4750 1894 4750 
Q 2613 4750 3031 4423 
Q 3450 4097 3450 3541 
Q 3450 3153 3228 2886 
Q 3006 2619 2597 2516 
z
" transform="scale(0.015625)"/>
       </defs>
       <use xlink:href="#DejaVuSans-30"/>
       <use xlink:href="#DejaVuSans-33" transform="translate(63.623047 0)"/>
      </g>
     </g>
    </g>
    <g id="xtick_37">
     <g id="line2d_47">
      <g>
       <use xlink:href="#m277d82f318" x="122.484446" y="330.843291" style="stroke: #000000; stroke-width: 0.8"/>
      </g>
     </g>
     <g id="text_13">
      <!-- 05 -->
      <g transform="translate(116.121946 345.441728) scale(0.1 -0.1)">
       <defs>
        <path id="DejaVuSans-35" d="M 691 4666 
L 3169 4666 
L 3169 4134 
L 1269 4134 
L 1269 2991 
Q 1406 3038 1543 3061 
Q 1681 3084 1819 3084 
Q 2600 3084 3056 2656 
Q 3513 2228 3513 1497 
Q 3513 744 3044 326 
Q 2575 -91 1722 -91 
Q 1428 -91 1123 -41 
Q 819 9 494 109 
L 494 744 
Q 775 591 1075 516 
Q 1375 441 1709 441 
Q 2250 441 2565 725 
Q 2881 1009 2881 1497 
Q 2881 1984 2565 2268 
Q 2250 2553 1709 2553 
Q 1456 2553 1204 2497 
Q 953 2441 691 2322 
L 691 4666 
z
" transform="scale(0.015625)"/>
       </defs>
       <use xlink:href="#DejaVuSans-30"/>
       <use xlink:href="#DejaVuSans-35" transform="translate(63.623047 0)"/>
      </g>
     </g>
    </g>
    <g id="xtick_38">
     <g id="line2d_48">
      <g>
       <use xlink:href="#m277d82f318" x="154.50963" y="330.843291" style="stroke: #000000; stroke-width: 0.8"/>
      </g>
     </g>
     <g id="text_14">
      <!-- 07 -->
      <g transform="translate(148.14713 345.441728) scale(0.1 -0.1)">
       <defs>
        <path id="DejaVuSans-37" d="M 525 4666 
L 3525 4666 
L 3525 4397 
L 1831 0 
L 1172 0 
L 2766 4134 
L 525 4134 
L 525 4666 
z
" transform="scale(0.015625)"/>
       </defs>
       <use xlink:href="#DejaVuSans-30"/>
       <use xlink:href="#DejaVuSans-37" transform="translate(63.623047 0)"/>
      </g>
     </g>
    </g>
    <g id="xtick_39">
     <g id="line2d_49">
      <g>
       <use xlink:href="#m277d82f318" x="186.534814" y="330.843291" style="stroke: #000000; stroke-width: 0.8"/>
      </g>
     </g>
     <g id="text_15">
      <!-- 09 -->
      <g transform="translate(180.172314 345.441728) scale(0.1 -0.1)">
       <defs>
        <path id="DejaVuSans-39" d="M 703 97 
L 703 672 
Q 941 559 1184 500 
Q 1428 441 1663 441 
Q 2288 441 2617 861 
Q 2947 1281 2994 2138 
Q 2813 1869 2534 1725 
Q 2256 1581 1919 1581 
Q 1219 1581 811 2004 
Q 403 2428 403 3163 
Q 403 3881 828 4315 
Q 1253 4750 1959 4750 
Q 2769 4750 3195 4129 
Q 3622 3509 3622 2328 
Q 3622 1225 3098 567 
Q 2575 -91 1691 -91 
Q 1453 -91 1209 -44 
Q 966 3 703 97 
z
M 1959 2075 
Q 2384 2075 2632 2365 
Q 2881 2656 2881 3163 
Q 2881 3666 2632 3958 
Q 2384 4250 1959 4250 
Q 1534 4250 1286 3958 
Q 1038 3666 1038 3163 
Q 1038 2656 1286 2365 
Q 1534 2075 1959 2075 
z
" transform="scale(0.015625)"/>
       </defs>
       <use xlink:href="#DejaVuSans-30"/>
       <use xlink:href="#DejaVuSans-39" transform="translate(63.623047 0)"/>
      </g>
     </g>
    </g>
    <g id="xtick_40">
     <g id="line2d_50">
      <g>
       <use xlink:href="#m277d82f318" x="218.559998" y="330.843291" style="stroke: #000000; stroke-width: 0.8"/>
      </g>
     </g>
     <g id="text_16">
      <!-- 11 -->
      <g transform="translate(212.197498 345.441728) scale(0.1 -0.1)">
       <use xlink:href="#DejaVuSans-31"/>
       <use xlink:href="#DejaVuSans-31" transform="translate(63.623047 0)"/>
      </g>
     </g>
    </g>
    <g id="xtick_41">
     <g id="line2d_51">
      <g>
       <use xlink:href="#m277d82f318" x="250.585182" y="330.843291" style="stroke: #000000; stroke-width: 0.8"/>
      </g>
     </g>
     <g id="text_17">
      <!-- 13 -->
      <g transform="translate(244.222682 345.441728) scale(0.1 -0.1)">
       <use xlink:href="#DejaVuSans-31"/>
       <use xlink:href="#DejaVuSans-33" transform="translate(63.623047 0)"/>
      </g>
     </g>
    </g>
    <g id="xtick_42">
     <g id="line2d_52">
      <g>
       <use xlink:href="#m277d82f318" x="282.610366" y="330.843291" style="stroke: #000000; stroke-width: 0.8"/>
      </g>
     </g>
     <g id="text_18">
      <!-- 15 -->
      <g transform="translate(276.247866 345.441728) scale(0.1 -0.1)">
       <use xlink:href="#DejaVuSans-31"/>
       <use xlink:href="#DejaVuSans-35" transform="translate(63.623047 0)"/>
      </g>
     </g>
    </g>
    <g id="xtick_43">
     <g id="line2d_53">
      <g>
       <use xlink:href="#m277d82f318" x="314.63555" y="330.843291" style="stroke: #000000; stroke-width: 0.8"/>
      </g>
     </g>
     <g id="text_19">
      <!-- 17 -->
      <g transform="translate(308.27305 345.441728) scale(0.1 -0.1)">
       <use xlink:href="#DejaVuSans-31"/>
       <use xlink:href="#DejaVuSans-37" transform="translate(63.623047 0)"/>
      </g>
     </g>
    </g>
    <g id="xtick_44">
     <g id="line2d_54">
      <g>
       <use xlink:href="#m277d82f318" x="346.660735" y="330.843291" style="stroke: #000000; stroke-width: 0.8"/>
      </g>
     </g>
     <g id="text_20">
      <!-- 19 -->
      <g transform="translate(340.298235 345.441728) scale(0.1 -0.1)">
       <use xlink:href="#DejaVuSans-31"/>
       <use xlink:href="#DejaVuSans-39" transform="translate(63.623047 0)"/>
      </g>
     </g>
    </g>
    <g id="xtick_45">
     <g id="line2d_55">
      <g>
       <use xlink:href="#m277d82f318" x="378.685919" y="330.843291" style="stroke: #000000; stroke-width: 0.8"/>
      </g>
     </g>
     <g id="text_21">
      <!-- 21 -->
      <g transform="translate(372.323419 345.441728) scale(0.1 -0.1)">
       <use xlink:href="#DejaVuSans-32"/>
       <use xlink:href="#DejaVuSans-31" transform="translate(63.623047 0)"/>
      </g>
     </g>
    </g>
    <g id="xtick_46">
     <g id="line2d_56">
      <g>
       <use xlink:href="#m277d82f318" x="410.711103" y="330.843291" style="stroke: #000000; stroke-width: 0.8"/>
      </g>
     </g>
     <g id="text_22">
      <!-- 23 -->
      <g transform="translate(404.348603 345.441728) scale(0.1 -0.1)">
       <use xlink:href="#DejaVuSans-32"/>
       <use xlink:href="#DejaVuSans-33" transform="translate(63.623047 0)"/>
      </g>
     </g>
    </g>
    <g id="xtick_47">
     <g id="line2d_57">
      <g>
       <use xlink:href="#m277d82f318" x="442.736287" y="330.843291" style="stroke: #000000; stroke-width: 0.8"/>
      </g>
     </g>
     <g id="text_23">
      <!-- 25 -->
      <g transform="translate(436.373787 345.441728) scale(0.1 -0.1)">
       <use xlink:href="#DejaVuSans-32"/>
       <use xlink:href="#DejaVuSans-35" transform="translate(63.623047 0)"/>
      </g>
     </g>
    </g>
    <g id="xtick_48">
     <g id="line2d_58">
      <g>
       <use xlink:href="#m277d82f318" x="474.761471" y="330.843291" style="stroke: #000000; stroke-width: 0.8"/>
      </g>
     </g>
     <g id="text_24">
      <!-- 27 -->
      <g transform="translate(468.398971 345.441728) scale(0.1 -0.1)">
       <use xlink:href="#DejaVuSans-32"/>
       <use xlink:href="#DejaVuSans-37" transform="translate(63.623047 0)"/>
      </g>
     </g>
    </g>
    <g id="xtick_49">
     <g id="line2d_59">
      <g>
       <use xlink:href="#m277d82f318" x="506.786655" y="330.843291" style="stroke: #000000; stroke-width: 0.8"/>
      </g>
     </g>
     <g id="text_25">
      <!-- 29 -->
      <g transform="translate(500.424155 345.441728) scale(0.1 -0.1)">
       <use xlink:href="#DejaVuSans-32"/>
       <use xlink:href="#DejaVuSans-39" transform="translate(63.623047 0)"/>
      </g>
     </g>
    </g>
    <g id="xtick_50">
     <g id="line2d_60">
      <g>
       <use xlink:href="#m277d82f318" x="538.81184" y="330.843291" style="stroke: #000000; stroke-width: 0.8"/>
      </g>
     </g>
     <g id="text_26">
      <!-- Dec -->
      <g transform="translate(529.136058 345.441728) scale(0.1 -0.1)">
       <defs>
        <path id="DejaVuSans-44" d="M 1259 4147 
L 1259 519 
L 2022 519 
Q 2988 519 3436 956 
Q 3884 1394 3884 2338 
Q 3884 3275 3436 3711 
Q 2988 4147 2022 4147 
L 1259 4147 
z
M 628 4666 
L 1925 4666 
Q 3281 4666 3915 4102 
Q 4550 3538 4550 2338 
Q 4550 1131 3912 565 
Q 3275 0 1925 0 
L 628 0 
L 628 4666 
z
" transform="scale(0.015625)"/>
       </defs>
       <use xlink:href="#DejaVuSans-44"/>
       <use xlink:href="#DejaVuSans-65" transform="translate(77.001953 0)"/>
       <use xlink:href="#DejaVuSans-63" transform="translate(138.525391 0)"/>
      </g>
     </g>
    </g>
    <g id="xtick_51">
     <g id="line2d_61">
      <g>
       <use xlink:href="#m277d82f318" x="570.837024" y="330.843291" style="stroke: #000000; stroke-width: 0.8"/>
      </g>
     </g>
     <g id="text_27">
      <!-- 03 -->
      <g transform="translate(564.474524 345.441728) scale(0.1 -0.1)">
       <use xlink:href="#DejaVuSans-30"/>
       <use xlink:href="#DejaVuSans-33" transform="translate(63.623047 0)"/>
      </g>
     </g>
    </g>
    <g id="text_28">
     <!-- Time -->
     <g transform="translate(301.535905 359.119853) scale(0.1 -0.1)">
      <defs>
       <path id="DejaVuSans-54" d="M -19 4666 
L 3928 4666 
L 3928 4134 
L 2272 4134 
L 2272 0 
L 1638 0 
L 1638 4134 
L -19 4134 
L -19 4666 
z
" transform="scale(0.015625)"/>
       <path id="DejaVuSans-6d" d="M 3328 2828 
Q 3544 3216 3844 3400 
Q 4144 3584 4550 3584 
Q 5097 3584 5394 3201 
Q 5691 2819 5691 2113 
L 5691 0 
L 5113 0 
L 5113 2094 
Q 5113 2597 4934 2840 
Q 4756 3084 4391 3084 
Q 3944 3084 3684 2787 
Q 3425 2491 3425 1978 
L 3425 0 
L 2847 0 
L 2847 2094 
Q 2847 2600 2669 2842 
Q 2491 3084 2119 3084 
Q 1678 3084 1418 2786 
Q 1159 2488 1159 1978 
L 1159 0 
L 581 0 
L 581 3500 
L 1159 3500 
L 1159 2956 
Q 1356 3278 1631 3431 
Q 1906 3584 2284 3584 
Q 2666 3584 2933 3390 
Q 3200 3197 3328 2828 
z
" transform="scale(0.015625)"/>
      </defs>
      <use xlink:href="#DejaVuSans-54"/>
      <use xlink:href="#DejaVuSans-69" transform="translate(57.958984 0)"/>
      <use xlink:href="#DejaVuSans-6d" transform="translate(85.742188 0)"/>
      <use xlink:href="#DejaVuSans-65" transform="translate(183.154297 0)"/>
     </g>
    </g>
    <g id="text_29">
     <!-- 2025-Dec -->
     <g transform="translate(525.801498 358.119853) scale(0.1 -0.1)">
      <defs>
       <path id="DejaVuSans-2d" d="M 313 2009 
L 1997 2009 
L 1997 1497 
L 313 1497 
L 313 2009 
z
" transform="scale(0.015625)"/>
      </defs>
      <use xlink:href="#DejaVuSans-32"/>
      <use xlink:href="#DejaVuSans-30" transform="translate(63.623047 0)"/>
      <use xlink:href="#DejaVuSans-32" transform="translate(127.246094 0)"/>
      <use xlink:href="#DejaVuSans-35" transform="translate(190.869141 0)"/>
      <use xlink:href="#DejaVuSans-2d" transform="translate(254.492188 0)"/>
      <use xlink:href="#DejaVuSans-44" transform="translate(290.576172 0)"/>
      <use xlink:href="#DejaVuSans-65" transform="translate(367.578125 0)"/>
      <use xlink:href="#DejaVuSans-63" transform="translate(429.101562 0)"/>
     </g>
    </g>
   </g>
   <g id="matplotlib.axis_6">
    <g id="ytick_9">
     <g id="line2d_62">
      <g>
       <use xlink:href="#m35578da06b" x="53.328125" y="327.578287" style="stroke: #000000; stroke-width: 0.8"/>
      </g>
     </g>
     <g id="text_30">
      <!-- 0.2 -->
      <g transform="translate(22.045313 331.377506) scale(0.1 -0.1)">
       <defs>
        <path id="DejaVuSans-2212" d="M 678 2272 
L 4684 2272 
L 4684 1741 
L 678 1741 
L 678 2272 
z
" transform="scale(0.015625)"/>
       </defs>
       <use xlink:href="#DejaVuSans-2212"/>
       <use xlink:href="#DejaVuSans-30" transform="translate(83.789062 0)"/>
       <use xlink:href="#DejaVuSans-2e" transform="translate(147.412109 0)"/>
       <use xlink:href="#DejaVuSans-32" transform="translate(179.199219 0)"/>
      </g>
     </g>
    </g>
    <g id="ytick_10">
     <g id="line2d_63">
      <g>
       <use xlink:href="#m35578da06b" x="53.328125" y="307.333025" style="stroke: #000000; stroke-width: 0.8"/>
      </g>
     </g>
     <g id="text_31">
      <!-- 0.0 -->
      <g transform="translate(30.425 311.132244) scale(0.1 -0.1)">
       <use xlink:href="#DejaVuSans-30"/>
       <use xlink:href="#DejaVuSans-2e" transform="translate(63.623047 0)"/>
       <use xlink:href="#DejaVuSans-30" transform="translate(95.410156 0)"/>
      </g>
     </g>
    </g>
    <g id="ytick_11">
     <g id="line2d_64">
      <g>
       <use xlink:href="#m35578da06b" x="53.328125" y="287.087763" style="stroke: #000000; stroke-width: 0.8"/>
      </g>
     </g>
     <g id="text_32">
      <!-- 0.2 -->
      <g transform="translate(30.425 290.886982) scale(0.1 -0.1)">
       <use xlink:href="#DejaVuSans-30"/>
       <use xlink:href="#DejaVuSans-2e" transform="translate(63.623047 0)"/>
       <use xlink:href="#DejaVuSans-32" transform="translate(95.410156 0)"/>
      </g>
     </g>
    </g>
    <g id="ytick_12">
     <g id="line2d_65">
      <g>
       <use xlink:href="#m35578da06b" x="53.328125" y="266.842501" style="stroke: #000000; stroke-width: 0.8"/>
      </g>
     </g>
     <g id="text_33">
      <!-- 0.4 -->
      <g transform="translate(30.425 270.64172) scale(0.1 -0.1)">
       <use xlink:href="#DejaVuSans-30"/>
       <use xlink:href="#DejaVuSans-2e" transform="translate(63.623047 0)"/>
       <use xlink:href="#DejaVuSans-34" transform="translate(95.410156 0)"/>
      </g>
     </g>
    </g>
    <g id="ytick_13">
     <g id="line2d_66">
      <g>
       <use xlink:href="#m35578da06b" x="53.328125" y="246.597239" style="stroke: #000000; stroke-width: 0.8"/>
      </g>
     </g>
     <g id="text_34">
      <!-- 0.6 -->
      <g transform="translate(30.425 250.396458) scale(0.1 -0.1)">
       <use xlink:href="#DejaVuSans-30"/>
       <use xlink:href="#DejaVuSans-2e" transform="translate(63.623047 0)"/>
       <use xlink:href="#DejaVuSans-36" transform="translate(95.410156 0)"/>
      </g>
     </g>
    </g>
    <g id="text_35">
     <!-- Score -->
     <g transform="translate(14.798438 294.432959) rotate(-90) scale(0.1 -0.1)">
      <defs>
       <path id="DejaVuSans-53" d="M 3425 4513 
L 3425 3897 
Q 3066 4069 2747 4153 
Q 2428 4238 2131 4238 
Q 1616 4238 1336 4038 
Q 1056 3838 1056 3469 
Q 1056 3159 1242 3001 
Q 1428 2844 1947 2747 
L 2328 2669 
Q 3034 2534 3370 2195 
Q 3706 1856 3706 1288 
Q 3706 609 3251 259 
Q 2797 -91 1919 -91 
Q 1588 -91 1214 -16 
Q 841 59 441 206 
L 441 856 
Q 825 641 1194 531 
Q 1563 422 1919 422 
Q 2459 422 2753 634 
Q 3047 847 3047 1241 
Q 3047 1584 2836 1778 
Q 2625 1972 2144 2069 
L 1759 2144 
Q 1053 2284 737 2584 
Q 422 2884 422 3419 
Q 422 4038 858 4394 
Q 1294 4750 2059 4750 
Q 2388 4750 2728 4690 
Q 3069 4631 3425 4513 
z
" transform="scale(0.015625)"/>
      </defs>
      <use xlink:href="#DejaVuSans-53"/>
      <use xlink:href="#DejaVuSans-63" transform="translate(63.476562 0)"/>
      <use xlink:href="#DejaVuSans-6f" transform="translate(118.457031 0)"/>
      <use xlink:href="#DejaVuSans-72" transform="translate(179.638672 0)"/>
      <use xlink:href="#DejaVuSans-65" transform="translate(218.501953 0)"/>
     </g>
    </g>
   </g>
   <g id="line2d_67">
    <path d="M 58.434819 305.94582 
L 58.728939 308.212206 
L 61.503899 308.212206 
L 62.309532 305.661374 
L 67.642059 305.661374 
L 67.79125 303.395018 
L 72.245679 303.395018 
L 72.966061 313.985719 
L 76.849299 313.985719 
L 78.38384 311.434917 
L 79.91838 311.434917 
L 80.847629 305.661374 
L 84.522 305.661374 
L 85.749632 303.395018 
L 86.05654 303.395018 
L 86.666093 311.719262 
L 93.72924 311.719262 
L 94.334531 309.16846 
L 95.26378 309.16846 
L 96.79832 311.434917 
L 97.446237 314.265509 
L 98.332861 314.265509 
L 98.712233 317.86461 
L 100.805175 326.26032 
L 100.817963 299.368134 
L 101.401941 317.86461 
L 102.603997 320.415513 
L 102.936481 320.415513 
L 104.390031 311.898534 
L 104.471021 320.415513 
L 109.074641 320.415513 
L 110.344899 299.368134 
L 110.609181 317.86461 
L 110.617706 307.884911 
L 112.143721 317.86461 
L 113.396929 314.265509 
L 115.212801 314.265509 
L 116.538473 317.86461 
L 116.747341 317.86461 
L 117.928085 290.554764 
L 118.281881 317.86461 
L 118.80192 285.726269 
L 119.837735 313.036723 
L 120.843711 272.327955 
L 121.350962 309.437722 
L 122.557281 313.036723 
L 122.885502 313.036723 
L 124.125922 278.527054 
L 124.420042 278.527054 
L 124.859091 285.90544 
L 126.35953 283.354537 
L 127.037285 317.86461 
L 129.023662 317.86461 
L 129.91881 305.661374 
L 130.558202 305.661374 
L 131.389411 303.395018 
L 133.627282 303.395018 
L 134.628996 305.94582 
L 135.161822 305.94582 
L 136.389454 314.341226 
L 136.696362 305.94582 
L 138.230902 302.641995 
L 139.765443 302.641995 
L 140.353683 311.037503 
L 141.299983 302.641995 
L 142.369898 300.091194 
L 144.369063 300.091194 
L 145.903603 305.864636 
L 146.031481 309.16846 
L 147.438143 309.16846 
L 148.972683 311.434917 
L 149.63765 301.455319 
L 150.507223 311.434917 
L 150.856757 316.816311 
L 152.041763 316.816311 
L 153.030689 320.415513 
L 158.179923 320.415513 
L 158.384529 317.86461 
L 159.714463 317.86461 
L 160.895207 308.491965 
L 161.249004 308.491965 
L 162.463848 305.661374 
L 162.783544 305.661374 
L 162.830432 303.395018 
L 164.318084 303.395018 
L 165.387999 305.661374 
L 165.852624 305.661374 
L 166.653995 308.212206 
L 167.387164 308.212206 
L 167.42979 311.042868 
L 169.245662 305.94582 
L 170.140811 316.804163 
L 170.456244 316.804163 
L 171.385493 305.94582 
L 173.525324 305.94582 
L 174.394897 303.395018 
L 181.198025 303.395018 
L 182.732565 308.212206 
L 183.32933 313.985719 
L 184.267105 313.985719 
L 184.76583 316.816311 
L 188.870725 316.816311 
L 189.974741 313.985719 
L 190.405265 313.985719 
L 190.41379 311.434917 
L 198.073703 311.434917 
L 198.678994 313.985719 
L 199.484627 308.212206 
L 201.147045 308.212206 
L 201.654296 305.94582 
L 204.216126 305.94582 
L 205.294566 302.641995 
L 205.750666 302.641995 
L 206.419896 300.091194 
L 211.888826 300.091194 
L 212.528218 291.574113 
L 213.423366 300.091194 
L 214.689362 302.641995 
L 216.492446 302.641995 
L 217.732866 308.415539 
L 219.561526 308.415539 
L 220.222231 311.719262 
L 221.778084 313.985719 
L 222.434526 311.434917 
L 224.165147 311.434917 
L 224.182197 305.661374 
L 225.699687 305.661374 
L 227.234227 314.265509 
L 228.581212 317.86461 
L 230.303307 317.86461 
L 230.703992 320.415513 
L 233.372387 320.415513 
L 233.37665 316.816311 
L 237.976007 316.816311 
L 238.261602 320.415513 
L 239.510547 317.86461 
L 239.787617 314.265509 
L 242.579627 314.265509 
L 243.116716 311.434917 
L 244.114168 311.434917 
L 245.384426 292.938644 
L 245.648708 311.434917 
L 245.951353 295.681877 
L 247.183248 305.94582 
L 250.252328 305.94582 
L 251.181577 316.816311 
L 251.786868 313.512486 
L 253.138116 325.507197 
L 253.321408 317.111486 
L 254.459525 310.961684 
L 254.855948 310.961684 
L 256.390488 305.864636 
L 257.925028 305.864636 
L 258.035856 300.091194 
L 260.989846 300.091194 
L 261.023947 291.574113 
L 261.433157 303.395018 
L 262.528648 303.395018 
L 263.018849 270.450207 
L 264.152703 270.450207 
L 264.9967 285.168512 
L 265.597729 285.168512 
L 267.370975 320.415513 
L 268.666809 320.415513 
L 269.736724 293.105667 
L 271.134861 281.518292 
L 271.47587 310.48582 
L 273.270429 310.48582 
L 274.766606 301.672247 
L 274.809232 310.48582 
L 275.0522 291.692548 
L 276.339509 310.48582 
L 276.923487 306.88686 
L 277.874049 306.88686 
L 278.099968 314.265509 
L 280.128971 316.816311 
L 280.431616 308.299554 
L 280.943129 316.816311 
L 281.296926 313.985719 
L 285.54675 313.985719 
L 286.488787 311.434917 
L 290.15037 311.434917 
L 290.832388 305.661374 
L 294.749727 305.661374 
L 294.75399 308.212206 
L 296.28853 308.212206 
L 296.808569 305.94582 
L 302.422428 305.94582 
L 302.499155 303.395018 
L 303.607434 311.999052 
L 304.502582 314.265509 
L 304.997045 311.434917 
L 307.030311 311.434917 
L 307.938247 305.661374 
L 308.564851 305.661374 
L 308.871759 303.395018 
L 310.099391 303.395018 
L 310.998802 311.719262 
L 311.633931 311.719262 
L 312.512029 308.415539 
L 313.168471 308.415539 
L 313.679984 313.512486 
L 314.703011 313.512486 
L 315.325352 317.111486 
L 316.237551 317.111486 
L 316.893993 313.512486 
L 317.772091 316.816311 
L 319.178753 311.434917 
L 320.841171 311.434917 
L 321.599916 305.661374 
L 322.375711 305.661374 
L 323.910251 287.164695 
L 323.952877 305.661374 
L 325.444791 294.87814 
L 326.778989 305.94582 
L 326.979332 305.94582 
L 327.844642 295.966323 
L 328.513872 305.94582 
L 329.609363 313.985719 
L 330.048412 313.985719 
L 330.986186 320.415513 
L 331.582952 320.415513 
L 332.998139 301.62214 
L 333.117492 320.415513 
L 333.850661 294.243451 
L 334.652032 310.48582 
L 335.150757 301.672247 
L 337.098771 317.86461 
L 337.721112 317.86461 
L 338.292302 311.999052 
L 339.255652 311.999052 
L 340.790192 303.395018 
L 342.324732 303.395018 
L 343.181517 308.212206 
L 349.997433 308.212206 
L 350.534522 287.164695 
L 351.531973 303.395018 
L 354.601053 303.395018 
L 355.061415 311.999052 
L 356.135593 311.999052 
L 356.314623 315.598153 
L 357.738335 305.618454 
L 358.803988 320.415513 
L 365.342833 320.415513 
L 366.54489 315.598153 
L 366.877373 315.598153 
L 367.776784 309.16846 
L 368.411914 309.16846 
L 369.029992 303.395018 
L 373.015534 303.395018 
L 374.281529 271.203331 
L 374.848457 292.546898 
L 375.44096 266.374836 
L 376.084614 276.354737 
L 376.361684 300.833587 
L 377.619154 300.833587 
L 378.450363 313.036723 
L 379.153694 313.036723 
L 380.688234 294.243451 
L 380.756436 310.770266 
L 382.222774 310.770266 
L 383.757314 234.600909 
L 384.332767 293.070238 
L 385.291854 279.787322 
L 385.739429 289.766211 
L 386.93296 271.27014 
L 387.210029 298.58029 
L 388.360934 298.58029 
L 389.413799 289.766211 
L 390.854562 294.881177 
L 391.199834 310.776137 
L 394.499095 310.776137 
L 395.185375 304.346545 
L 397.568175 304.346545 
L 398.872534 299.529286 
L 399.102715 299.529286 
L 399.776208 305.864636 
L 400.637255 305.864636 
L 401.272384 309.16846 
L 406.775415 309.16846 
L 406.997071 314.549955 
L 408.309955 314.549955 
L 409.315932 311.719262 
L 409.844496 313.985719 
L 411.212794 308.212206 
L 411.379036 308.212206 
L 412.772909 304.908452 
L 412.913576 304.908452 
L 413.467715 302.641995 
L 414.448116 302.641995 
L 414.584519 300.091194 
L 422.120816 300.091194 
L 422.853985 302.641995 
L 425.189896 302.641995 
L 425.211209 304.908452 
L 426.724436 304.908452 
L 426.801163 308.212206 
L 428.258976 308.212206 
L 429.682689 299.695399 
L 429.793516 308.212206 
L 430.59915 305.661374 
L 431.328057 305.661374 
L 432.346821 303.395018 
L 435.927414 303.395018 
L 436.421877 300.091194 
L 437.466217 309.16846 
L 438.190861 305.864636 
L 439.000757 308.415539 
L 440.535297 308.415539 
L 442.069837 302.641995 
L 442.206241 313.500339 
L 443.604377 313.500339 
L 444.405748 302.641995 
L 445.138917 302.641995 
L 446.673457 300.091194 
L 451.272815 300.091194 
L 452.274529 305.864636 
L 452.811618 297.347859 
L 454.346158 308.131093 
L 455.654779 316.816311 
L 457.415238 316.816311 
L 458.519254 314.549955 
L 458.949778 314.549955 
L 460.484318 308.776411 
L 462.018858 308.776411 
L 462.628411 303.395018 
L 468.157018 303.395018 
L 468.459664 309.16846 
L 469.691558 309.16846 
L 470.893615 311.719262 
L 474.295179 311.719262 
L 474.717177 305.94582 
L 477.364259 305.94582 
L 478.634517 303.395018 
L 483.502419 303.395018 
L 484.282477 309.16846 
L 486.571499 309.16846 
L 486.903983 313.985719 
L 494.2442 313.985719 
L 494.649148 311.434917 
L 500.378097 311.434917 
L 501.094216 319.830425 
L 501.767709 302.918141 
L 501.9169 311.434917 
L 502.918614 313.985719 
L 503.45144 313.985719 
L 503.634732 311.719262 
L 504.98598 311.719262 
L 505.399453 305.94582 
L 506.52052 305.94582 
L 506.972357 311.719262 
L 509.5896 311.719262 
L 509.627964 314.549955 
L 511.12414 311.999052 
L 512.65868 311.999052 
L 512.957063 309.16846 
L 517.262301 309.16846 
L 517.842016 311.434917 
L 518.796841 311.434917 
L 518.928982 313.985719 
L 526.469541 313.985719 
L 526.678409 311.434917 
L 528.004081 311.434917 
L 528.13196 309.16846 
L 529.538621 311.434917 
L 530.936758 305.661374 
L 534.142241 305.661374 
L 534.943612 308.212206 
L 538.745862 308.212206 
L 539.790201 276.019678 
L 540.29319 284.833453 
L 541.1585 268.641293 
L 541.814942 272.148784 
L 543.259967 306.88686 
L 543.583926 298.073247 
L 543.946248 310.48582 
L 546.418562 310.48582 
L 547.369124 281.518292 
L 548.916452 310.48582 
L 549.20631 291.692548 
L 549.585682 291.692548 
L 551.022182 313.036723 
L 552.556722 313.036723 
L 553.294154 320.415513 
L 555.625803 320.415513 
L 556.614728 316.816311 
L 557.160343 316.816311 
L 558.29846 313.985719 
L 558.694883 313.985719 
L 558.699145 311.434917 
L 560.229423 311.434917 
L 560.608795 305.661374 
L 564.833043 305.661374 
L 564.867144 303.395018 
L 566.367583 303.395018 
L 566.968611 305.94582 
L 569.10418 305.94582 
L 569.10418 305.94582 
" clip-path="url(#p37c4faeb92)" style="fill: none; stroke: #7a738c; stroke-width: 1.5; stroke-linecap: square"/>
   </g>
   <g id="patch_13">
    <path d="M 53.328125 330.843291 
L 53.328125 230.017939 
" style="fill: none; stroke: #000000; stroke-width: 0.8; stroke-linejoin: miter; stroke-linecap: square"/>
   </g>
   <g id="patch_14">
    <path d="M 574.210873 330.843291 
L 574.210873 230.017939 
" style="fill: none; stroke: #000000; stroke-width: 0.8; stroke-linejoin: miter; stroke-linecap: square"/>
   </g>
   <g id="patch_15">
    <path d="M 53.328125 330.843291 
L 574.210873 330.843291 
" style="fill: none; stroke: #000000; stroke-width: 0.8; stroke-linejoin: miter; stroke-linecap: square"/>
   </g>
   <g id="patch_16">
    <path d="M 53.328125 230.017939 
L 574.210873 230.017939 
" style="fill: none; stroke: #000000; stroke-width: 0.8; stroke-linejoin: miter; stroke-linecap: square"/>
   </g>
  </g>
 </g>
 <defs>
  <clipPath id="pac15bb0d62">
   <rect x="53.328125" y="8.897095" width="520.882748" height="100.825352"/>
  </clipPath>
  <clipPath id="p5f6289cefc">
   <rect x="53.328125" y="119.692107" width="520.882748" height="100.825352"/>
  </clipPath>
  <clipPath id="p37c4faeb92">
   <rect x="53.328125" y="230.017939" width="520.882748" height="100.825352"/>
  </clipPath>
 </defs>
</svg>
