<?xml version="1.0" encoding="utf-8" standalone="no"?>
<!DOCTYPE svg PUBLIC "-//W3C//DTD SVG 1.1//EN"
  "http://www.w3.org/Graphics/SVG/1.1/DTD/svg11.dtd">
<svg xmlns:xlink="http://www.w3.org/1999/xlink"   viewBox="0 0 584.399524 368.39952" xmlns="http://www.w3.org/2000/svg" version="1.1" preserveAspectRatio="xMidYMid meet" style="width:100%;height:auto;aspect-ratio:8 / 5;display:block;">
 <metadata>
  <rdf:RDF xmlns:dc="http://purl.org/dc/elements/1.1/" xmlns:cc="http://creativecommons.org/ns#" xmlns:rdf="http://www.w3.org/1999/02/22-rdf-syntax-ns#">
   <cc:Work>
    <dc:type rdf:resource="http://purl.org/dc/dcmitype/StillImage"/>
    <dc:date>2025-12-03T00:19:21.640602</dc:date>
    <dc:format>image/svg+xml</dc:format>
    <dc:creator>
     <cc:Agent>
      <dc:title>Matplotlib v3.10.7, https://matplotlib.org/</dc:title>
     </cc:Agent>
    </dc:creator>
   </cc:Work>
  </rdf:RDF>
 </metadata>
 <defs>
  <style type="text/css">*{stroke-linejoin: round; stroke-linecap: butt}</style>
 </defs>
 <g id="figure_1">
  <g id="patch_1">
   <path d="M 0 368.39952 
L 584.399524 368.39952 
L 584.399524 0 
L 0 0 
z
" style="fill: #ffffff"/>
  </g>
  <g id="axes_1">
   <g id="patch_2">
    <path d="M 53.328125 107.053834 
L 574.210873 107.053834 
L 574.210873 7.2 
L 53.328125 7.2 
z
" style="fill: #ffffff"/>
   </g>
   <g id="matplotlib.axis_1">
    <g id="xtick_1">
     <g id="line2d_1">
      <defs>
       <path id="m97ef727d6b" d="M 0 0 
L 0 3.5 
" style="stroke: #000000; stroke-width: 0.8"/>
      </defs>
      <g>
       <use xlink:href="#m97ef727d6b" x="58.434077" y="107.053834" style="stroke: #000000; stroke-width: 0.8"/>
      </g>
     </g>
    </g>
    <g id="xtick_2">
     <g id="line2d_2">
      <g>
       <use xlink:href="#m97ef727d6b" x="90.459261" y="107.053834" style="stroke: #000000; stroke-width: 0.8"/>
      </g>
     </g>
    </g>
    <g id="xtick_3">
     <g id="line2d_3">
      <g>
       <use xlink:href="#m97ef727d6b" x="122.484446" y="107.053834" style="stroke: #000000; stroke-width: 0.8"/>
      </g>
     </g>
    </g>
    <g id="xtick_4">
     <g id="line2d_4">
      <g>
       <use xlink:href="#m97ef727d6b" x="154.50963" y="107.053834" style="stroke: #000000; stroke-width: 0.8"/>
      </g>
     </g>
    </g>
    <g id="xtick_5">
     <g id="line2d_5">
      <g>
       <use xlink:href="#m97ef727d6b" x="186.534814" y="107.053834" style="stroke: #000000; stroke-width: 0.8"/>
      </g>
     </g>
    </g>
    <g id="xtick_6">
     <g id="line2d_6">
      <g>
       <use xlink:href="#m97ef727d6b" x="218.559998" y="107.053834" style="stroke: #000000; stroke-width: 0.8"/>
      </g>
     </g>
    </g>
    <g id="xtick_7">
     <g id="line2d_7">
      <g>
       <use xlink:href="#m97ef727d6b" x="250.585182" y="107.053834" style="stroke: #000000; stroke-width: 0.8"/>
      </g>
     </g>
    </g>
    <g id="xtick_8">
     <g id="line2d_8">
      <g>
       <use xlink:href="#m97ef727d6b" x="282.610366" y="107.053834" style="stroke: #000000; stroke-width: 0.8"/>
      </g>
     </g>
    </g>
    <g id="xtick_9">
     <g id="line2d_9">
      <g>
       <use xlink:href="#m97ef727d6b" x="314.63555" y="107.053834" style="stroke: #000000; stroke-width: 0.8"/>
      </g>
     </g>
    </g>
    <g id="xtick_10">
     <g id="line2d_10">
      <g>
       <use xlink:href="#m97ef727d6b" x="346.660735" y="107.053834" style="stroke: #000000; stroke-width: 0.8"/>
      </g>
     </g>
    </g>
    <g id="xtick_11">
     <g id="line2d_11">
      <g>
       <use xlink:href="#m97ef727d6b" x="378.685919" y="107.053834" style="stroke: #000000; stroke-width: 0.8"/>
      </g>
     </g>
    </g>
    <g id="xtick_12">
     <g id="line2d_12">
      <g>
       <use xlink:href="#m97ef727d6b" x="410.711103" y="107.053834" style="stroke: #000000; stroke-width: 0.8"/>
      </g>
     </g>
    </g>
    <g id="xtick_13">
     <g id="line2d_13">
      <g>
       <use xlink:href="#m97ef727d6b" x="442.736287" y="107.053834" style="stroke: #000000; stroke-width: 0.8"/>
      </g>
     </g>
    </g>
    <g id="xtick_14">
     <g id="line2d_14">
      <g>
       <use xlink:href="#m97ef727d6b" x="474.761471" y="107.053834" style="stroke: #000000; stroke-width: 0.8"/>
      </g>
     </g>
    </g>
    <g id="xtick_15">
     <g id="line2d_15">
      <g>
       <use xlink:href="#m97ef727d6b" x="506.786655" y="107.053834" style="stroke: #000000; stroke-width: 0.8"/>
      </g>
     </g>
    </g>
    <g id="xtick_16">
     <g id="line2d_16">
      <g>
       <use xlink:href="#m97ef727d6b" x="538.81184" y="107.053834" style="stroke: #000000; stroke-width: 0.8"/>
      </g>
     </g>
    </g>
    <g id="xtick_17">
     <g id="line2d_17">
      <g>
       <use xlink:href="#m97ef727d6b" x="570.837024" y="107.053834" style="stroke: #000000; stroke-width: 0.8"/>
      </g>
     </g>
    </g>
   </g>
   <g id="matplotlib.axis_2">
    <g id="ytick_1">
     <g id="line2d_18">
      <defs>
       <path id="mc07d8e51ce" d="M 0 0 
L -3.5 0 
" style="stroke: #000000; stroke-width: 0.8"/>
      </defs>
      <g>
       <use xlink:href="#mc07d8e51ce" x="53.328125" y="81.192363" style="stroke: #000000; stroke-width: 0.8"/>
      </g>
     </g>
     <g id="text_1">
      <!-- 2.00 -->
      <g transform="translate(24.0625 84.991582) scale(0.1 -0.1)">
       <defs>
        <path id="DejaVuSans-32" d="M 1228 531 
L 3431 531 
L 3431 0 
L 469 0 
L 469 531 
Q 828 903 1448 1529 
Q 2069 2156 2228 2338 
Q 2531 2678 2651 2914 
Q 2772 3150 2772 3378 
Q 2772 3750 2511 3984 
Q 2250 4219 1831 4219 
Q 1534 4219 1204 4116 
Q 875 4013 500 3803 
L 500 4441 
Q 881 4594 1212 4672 
Q 1544 4750 1819 4750 
Q 2544 4750 2975 4387 
Q 3406 4025 3406 3419 
Q 3406 3131 3298 2873 
Q 3191 2616 2906 2266 
Q 2828 2175 2409 1742 
Q 1991 1309 1228 531 
z
" transform="scale(0.015625)"/>
        <path id="DejaVuSans-2e" d="M 684 794 
L 1344 794 
L 1344 0 
L 684 0 
L 684 794 
z
" transform="scale(0.015625)"/>
        <path id="DejaVuSans-30" d="M 2034 4250 
Q 1547 4250 1301 3770 
Q 1056 3291 1056 2328 
Q 1056 1369 1301 889 
Q 1547 409 2034 409 
Q 2525 409 2770 889 
Q 3016 1369 3016 2328 
Q 3016 3291 2770 3770 
Q 2525 4250 2034 4250 
z
M 2034 4750 
Q 2819 4750 3233 4129 
Q 3647 3509 3647 2328 
Q 3647 1150 3233 529 
Q 2819 -91 2034 -91 
Q 1250 -91 836 529 
Q 422 1150 422 2328 
Q 422 3509 836 4129 
Q 1250 4750 2034 4750 
z
" transform="scale(0.015625)"/>
       </defs>
       <use xlink:href="#DejaVuSans-32"/>
       <use xlink:href="#DejaVuSans-2e" transform="translate(63.623047 0)"/>
       <use xlink:href="#DejaVuSans-30" transform="translate(95.410156 0)"/>
       <use xlink:href="#DejaVuSans-30" transform="translate(159.033203 0)"/>
      </g>
     </g>
    </g>
    <g id="ytick_2">
     <g id="line2d_19">
      <g>
       <use xlink:href="#mc07d8e51ce" x="53.328125" y="51.229657" style="stroke: #000000; stroke-width: 0.8"/>
      </g>
     </g>
     <g id="text_2">
      <!-- 2.25 -->
      <g transform="translate(24.0625 55.028876) scale(0.1 -0.1)">
       <defs>
        <path id="DejaVuSans-35" d="M 691 4666 
L 3169 4666 
L 3169 4134 
L 1269 4134 
L 1269 2991 
Q 1406 3038 1543 3061 
Q 1681 3084 1819 3084 
Q 2600 3084 3056 2656 
Q 3513 2228 3513 1497 
Q 3513 744 3044 326 
Q 2575 -91 1722 -91 
Q 1428 -91 1123 -41 
Q 819 9 494 109 
L 494 744 
Q 775 591 1075 516 
Q 1375 441 1709 441 
Q 2250 441 2565 725 
Q 2881 1009 2881 1497 
Q 2881 1984 2565 2268 
Q 2250 2553 1709 2553 
Q 1456 2553 1204 2497 
Q 953 2441 691 2322 
L 691 4666 
z
" transform="scale(0.015625)"/>
       </defs>
       <use xlink:href="#DejaVuSans-32"/>
       <use xlink:href="#DejaVuSans-2e" transform="translate(63.623047 0)"/>
       <use xlink:href="#DejaVuSans-32" transform="translate(95.410156 0)"/>
       <use xlink:href="#DejaVuSans-35" transform="translate(159.033203 0)"/>
      </g>
     </g>
    </g>
    <g id="ytick_3">
     <g id="line2d_20">
      <g>
       <use xlink:href="#mc07d8e51ce" x="53.328125" y="21.266951" style="stroke: #000000; stroke-width: 0.8"/>
      </g>
     </g>
     <g id="text_3">
      <!-- 2.50 -->
      <g transform="translate(24.0625 25.06617) scale(0.1 -0.1)">
       <use xlink:href="#DejaVuSans-32"/>
       <use xlink:href="#DejaVuSans-2e" transform="translate(63.623047 0)"/>
       <use xlink:href="#DejaVuSans-35" transform="translate(95.410156 0)"/>
       <use xlink:href="#DejaVuSans-30" transform="translate(159.033203 0)"/>
      </g>
     </g>
    </g>
    <g id="text_4">
     <!-- Price -->
     <g transform="translate(14.798438 69.324573) rotate(-90) scale(0.1 -0.1)">
      <defs>
       <path id="DejaVuSans-50" d="M 1259 4147 
L 1259 2394 
L 2053 2394 
Q 2494 2394 2734 2622 
Q 2975 2850 2975 3272 
Q 2975 3691 2734 3919 
Q 2494 4147 2053 4147 
L 1259 4147 
z
M 628 4666 
L 2053 4666 
Q 2838 4666 3239 4311 
Q 3641 3956 3641 3272 
Q 3641 2581 3239 2228 
Q 2838 1875 2053 1875 
L 1259 1875 
L 1259 0 
L 628 0 
L 628 4666 
z
" transform="scale(0.015625)"/>
       <path id="DejaVuSans-72" d="M 2631 2963 
Q 2534 3019 2420 3045 
Q 2306 3072 2169 3072 
Q 1681 3072 1420 2755 
Q 1159 2438 1159 1844 
L 1159 0 
L 581 0 
L 581 3500 
L 1159 3500 
L 1159 2956 
Q 1341 3275 1631 3429 
Q 1922 3584 2338 3584 
Q 2397 3584 2469 3576 
Q 2541 3569 2628 3553 
L 2631 2963 
z
" transform="scale(0.015625)"/>
       <path id="DejaVuSans-69" d="M 603 3500 
L 1178 3500 
L 1178 0 
L 603 0 
L 603 3500 
z
M 603 4863 
L 1178 4863 
L 1178 4134 
L 603 4134 
L 603 4863 
z
" transform="scale(0.015625)"/>
       <path id="DejaVuSans-63" d="M 3122 3366 
L 3122 2828 
Q 2878 2963 2633 3030 
Q 2388 3097 2138 3097 
Q 1578 3097 1268 2742 
Q 959 2388 959 1747 
Q 959 1106 1268 751 
Q 1578 397 2138 397 
Q 2388 397 2633 464 
Q 2878 531 3122 666 
L 3122 134 
Q 2881 22 2623 -34 
Q 2366 -91 2075 -91 
Q 1284 -91 818 406 
Q 353 903 353 1747 
Q 353 2603 823 3093 
Q 1294 3584 2113 3584 
Q 2378 3584 2631 3529 
Q 2884 3475 3122 3366 
z
" transform="scale(0.015625)"/>
       <path id="DejaVuSans-65" d="M 3597 1894 
L 3597 1613 
L 953 1613 
Q 991 1019 1311 708 
Q 1631 397 2203 397 
Q 2534 397 2845 478 
Q 3156 559 3463 722 
L 3463 178 
Q 3153 47 2828 -22 
Q 2503 -91 2169 -91 
Q 1331 -91 842 396 
Q 353 884 353 1716 
Q 353 2575 817 3079 
Q 1281 3584 2069 3584 
Q 2775 3584 3186 3129 
Q 3597 2675 3597 1894 
z
M 3022 2063 
Q 3016 2534 2758 2815 
Q 2500 3097 2075 3097 
Q 1594 3097 1305 2825 
Q 1016 2553 972 2059 
L 3022 2063 
z
" transform="scale(0.015625)"/>
      </defs>
      <use xlink:href="#DejaVuSans-50"/>
      <use xlink:href="#DejaVuSans-72" transform="translate(58.552734 0)"/>
      <use xlink:href="#DejaVuSans-69" transform="translate(99.666016 0)"/>
      <use xlink:href="#DejaVuSans-63" transform="translate(127.449219 0)"/>
      <use xlink:href="#DejaVuSans-65" transform="translate(182.429688 0)"/>
     </g>
    </g>
   </g>
   <g id="line2d_21">
    <path d="M 58.434819 20.250616 
L 58.456132 20.131964 
L 59.845743 22.58531 
L 60.173964 21.992049 
L 61.209779 18.675776 
L 61.725555 19.258251 
L 63.051227 21.567777 
L 64.572979 19.700501 
L 64.935301 21.305303 
L 66.107519 20.582603 
L 67.599433 23.278048 
L 67.735837 22.440291 
L 67.974543 24.263222 
L 69.176599 23.409884 
L 72.245679 23.409884 
L 72.983111 20.259006 
L 74.006138 21.633695 
L 74.236319 20.522677 
L 75.664294 22.005232 
L 76.175807 19.833535 
L 76.908976 20.667697 
L 77.697559 18.270681 
L 78.388102 19.699302 
L 80.01642 16.76056 
L 81.448657 19.584246 
L 81.474233 20.124773 
L 82.279866 14.96879 
L 83.013035 16.003103 
L 84.32592 20.690469 
L 84.794807 18.978999 
L 85.319108 23.058721 
L 86.103429 20.900208 
L 87.556979 23.72629 
L 87.595343 23.58966 
L 88.993479 19.221098 
L 89.573194 22.603288 
L 90.434242 17.518017 
L 90.668685 17.724161 
L 92.143549 26.474469 
L 92.416356 24.596407 
L 93.217727 31.153446 
L 93.912533 26.959865 
L 95.008024 34.322301 
L 96.346484 33.625968 
L 96.572402 30.12992 
L 96.823896 31.58371 
L 97.795772 35.091744 
L 99.313261 33.382671 
L 99.863138 31.074344 
L 100.476954 29.700854 
L 100.822226 43.558006 
L 102.045595 34.450542 
L 102.936481 38.008913 
L 104.407082 49.697964 
L 105.067786 43.748569 
L 105.506835 48.899757 
L 106.964648 40.127875 
L 107.723393 41.229304 
L 108.908399 37.844717 
L 109.206782 37.646963 
L 110.447202 51.432205 
L 110.664595 44.455688 
L 111.91354 53.625475 
L 112.182085 47.871437 
L 112.889678 51.41183 
L 114.556359 46.512329 
L 114.918681 50.031149 
L 116.248616 52.074605 
L 116.77718 42.291183 
L 118.013337 57.621301 
L 118.281881 52.08659 
L 118.929798 62.532788 
L 120.886337 72.621831 
L 121.346699 58.517786 
L 121.883788 53.898735 
L 122.881239 60.851281 
L 123.614408 69.057467 
L 124.326264 54.26428 
L 124.420042 55.722864 
L 125.98442 50.103059 
L 126.679226 53.50083 
L 127.791767 50.989955 
L 128.094413 56.624143 
L 129.773882 56.027286 
L 130.413273 52.128538 
L 130.622141 53.457684 
L 131.768784 46.915027 
L 132.22062 52.158501 
L 133.183971 47.933759 
L 133.946978 49.232942 
L 135.127721 44.275912 
L 135.264125 45.983786 
L 136.402242 36.085307 
L 136.760302 37.132803 
L 137.246239 41.712303 
L 138.648638 38.93536 
L 139.471322 43.839655 
L 139.995624 42.382269 
L 140.353683 32.053525 
L 141.837072 37.557075 
L 142.676806 42.082642 
L 143.388662 43.653886 
L 144.05363 41.321589 
L 144.518254 42.352307 
L 145.886552 46.281017 
L 147.028932 47.992486 
L 147.365678 44.766102 
L 147.681112 44.158458 
L 148.917269 52.907569 
L 149.24549 51.53288 
L 149.663226 55.979345 
L 151.065625 52.048238 
L 151.72633 56.877028 
L 152.11849 54.475217 
L 152.438186 59.375918 
L 154.288159 57.358828 
L 155.059692 54.225928 
L 155.575468 57.948494 
L 156.636858 53.327046 
L 157.630047 55.924214 
L 157.958268 53.087345 
L 158.776689 52.775733 
L 159.582323 55.335746 
L 159.919069 53.265923 
L 160.997509 58.119881 
L 161.249004 56.109983 
L 162.020536 61.298325 
L 163.064876 62.874363 
L 163.431461 57.821452 
L 164.318084 61.137725 
L 165.801472 48.248967 
L 165.942139 51.019918 
L 166.977953 39.472291 
L 167.497992 41.25687 
L 168.512493 37.142391 
L 169.275501 39.5454 
L 170.451981 43.722201 
L 170.712001 42.300771 
L 171.197938 45.484009 
L 171.990784 44.327448 
L 172.847569 41.210128 
L 173.725667 41.16818 
L 174.637866 45.792025 
L 175.486125 45.050149 
L 176.172406 41.383912 
L 176.858686 42.240845 
L 177.122968 44.337036 
L 178.128944 43.444148 
L 179.578232 48.113536 
L 179.676272 46.64776 
L 181.02752 51.65273 
L 181.30459 51.019918 
L 181.649861 48.711591 
L 183.201452 47.852261 
L 183.482784 50.630403 
L 184.27563 48.290915 
L 185.025849 46.674127 
L 185.805907 46.758023 
L 186.769258 48.73676 
L 187.843436 47.034878 
L 188.943189 52.290337 
L 190.213447 48.692415 
L 190.405265 49.176612 
L 191.586008 45.724909 
L 192.037845 45.91667 
L 193.606486 50.987558 
L 194.774442 47.334505 
L 195.94666 49.012417 
L 196.223729 42.015526 
L 196.577526 46.63937 
L 197.140191 41.626011 
L 198.704569 44.969849 
L 199.915151 38.57341 
L 200.690946 41.434249 
L 201.632983 42.425416 
L 201.910053 34.194061 
L 202.698636 37.434827 
L 203.248513 29.957334 
L 204.382367 32.894878 
L 205.051597 24.054681 
L 206.300543 28.38609 
L 207.276681 23.968389 
L 207.472761 25.057833 
L 208.781382 21.266951 
L 208.819746 21.58096 
L 210.03459 12.818667 
L 210.823173 18.55233 
L 211.633069 12.962488 
L 212.106219 14.00519 
L 212.489854 21.470698 
L 213.751587 19.635781 
L 214.403767 13.8362 
L 215.230713 16.718612 
L 216.437032 11.738811 
L 217.153151 19.879079 
L 219.067063 19.50874 
L 219.480537 13.05717 
L 219.970737 19.497953 
L 220.320271 14.434256 
L 221.100329 17.147678 
L 222.626344 24.978731 
L 223.299836 23.731084 
L 223.99038 28.109235 
L 224.365489 28.458001 
L 224.642559 25.240006 
L 225.989544 24.896034 
L 227.131924 27.375748 
L 227.315216 24.972739 
L 228.065436 29.270589 
L 228.781555 26.721362 
L 230.230842 30.467899 
L 230.60169 28.704893 
L 231.334859 31.874948 
L 231.837847 30.590147 
L 233.274347 35.64905 
L 233.461902 35.049796 
L 233.824224 31.930079 
L 235.294825 35.519611 
L 235.712561 31.729928 
L 236.880516 32.978774 
L 237.754351 34.69264 
L 238.197663 32.458621 
L 239.267578 35.64905 
L 239.885657 36.859543 
L 240.729654 30.115537 
L 241.045087 31.401537 
L 242.558314 28.613807 
L 243.470513 29.729618 
L 243.815785 27.343388 
L 244.122693 27.442864 
L 245.567718 41.874102 
L 246.138908 41.953203 
L 246.377614 38.495507 
L 247.622297 43.17688 
L 249.259139 34.027468 
L 249.629987 37.557075 
L 250.444145 35.730549 
L 251.752767 31.28648 
L 252.767269 34.070615 
L 253.150904 20.310542 
L 253.342721 27.076121 
L 254.838898 19.719677 
L 255.491077 19.031733 
L 255.891763 23.239696 
L 256.727234 24.397455 
L 257.485979 18.581094 
L 258.09127 19.701699 
L 258.892641 24.504122 
L 260.525221 19.296604 
L 260.977058 27.898297 
L 261.002634 26.793273 
L 262.511598 38.656107 
L 262.852607 36.610254 
L 264.003512 44.927901 
L 264.255006 48.02964 
L 265.555102 42.85568 
L 266.428938 39.863005 
L 266.795522 44.973444 
L 267.277197 46.530306 
L 268.304487 40.840988 
L 268.709435 43.307518 
L 269.736724 51.58921 
L 271.147649 49.041181 
L 271.29684 42.486539 
L 271.799828 42.741822 
L 273.193702 48.284922 
L 273.69669 45.336592 
L 275.069251 54.124054 
L 275.307957 45.765658 
L 276.339509 48.598931 
L 277.660919 41.043536 
L 278.078655 40.743908 
L 279.357438 48.233386 
L 279.54073 43.17688 
L 280.435879 51.193702 
L 281.365128 47.115178 
L 282.047146 53.691393 
L 282.597023 52.426967 
L 283.897119 47.514281 
L 284.042048 48.790693 
L 284.638813 45.237116 
L 286.369434 48.492264 
L 287.047189 46.139593 
L 287.575753 46.813154 
L 288.551891 52.253183 
L 288.637143 51.827713 
L 289.988391 49.25092 
L 290.83665 51.961946 
L 291.535718 48.173461 
L 292.128221 48.578557 
L 293.654236 53.772892 
L 294.229689 49.086724 
L 294.779566 49.380359 
L 296.199015 51.74981 
L 296.84267 50.999543 
L 297.102689 55.514324 
L 298.266382 52.428165 
L 298.918561 56.734405 
L 299.809447 58.315238 
L 300.866575 50.796996 
L 301.672208 52.631912 
L 302.149621 49.731522 
L 302.652609 50.824561 
L 303.014931 49.023203 
L 304.549471 50.934824 
L 305.308216 47.99728 
L 305.500033 47.934958 
L 307.026048 53.975439 
L 307.128351 52.331086 
L 307.835944 56.260995 
L 308.573376 54.25589 
L 309.835109 61.659076 
L 310.598116 62.592714 
L 310.772883 53.971844 
L 312.28611 53.898735 
L 312.912714 59.326779 
L 314.012468 61.192856 
L 314.387578 54.113268 
L 314.877778 57.425945 
L 315.039757 51.537674 
L 316.506096 53.450493 
L 317.631425 49.37916 
L 318.232453 52.473709 
L 319.242692 49.646428 
L 319.690266 50.256468 
L 320.836909 48.386795 
L 321.015938 47.544244 
L 321.63828 49.49182 
L 322.375711 48.207019 
L 323.897464 56.621746 
L 324.400452 44.841608 
L 325.410691 59.423858 
L 325.973355 54.977392 
L 326.906867 63.860735 
L 327.192462 61.007087 
L 328.027934 67.633639 
L 328.522397 65.415201 
L 329.711665 60.817723 
L 330.056937 60.962742 
L 331.165216 66.908542 
L 332.341697 61.716604 
L 332.686968 68.168174 
L 333.850661 65.012502 
L 334.238559 60.471354 
L 335.338312 66.288913 
L 336.088532 59.700713 
L 336.280349 61.544019 
L 336.489217 57.973663 
L 338.121798 57.387592 
L 338.825128 60.790157 
L 339.750115 63.364553 
L 340.419345 57.525421 
L 340.794455 59.34955 
L 341.706654 52.76974 
L 342.324732 56.180695 
L 343.556627 52.724197 
L 344.332422 52.52884 
L 345.278722 56.950137 
L 345.713508 53.484051 
L 346.889989 58.179806 
L 347.51233 57.741152 
L 348.185823 55.30099 
L 348.629134 55.455597 
L 349.694787 60.158543 
L 349.997433 60.158543 
L 350.525996 66.059998 
L 351.911345 60.856075 
L 353.211442 65.773554 
L 353.462936 63.370545 
L 355.329959 64.20231 
L 356.118542 68.205328 
L 356.864499 63.458037 
L 357.307811 71.51321 
L 357.815062 69.989906 
L 359.16631 76.966423 
L 360.065721 78.124182 
L 360.675274 75.163867 
L 360.811678 75.282519 
L 362.209814 67.808621 
L 362.772479 69.823314 
L 363.578112 65.360069 
L 364.5372 66.510637 
L 365.074289 64.648155 
L 365.568752 66.984048 
L 366.110103 63.514366 
L 367.261008 67.142251 
L 367.98139 64.440813 
L 368.420439 65.198271 
L 369.230335 67.959634 
L 370.411078 68.338362 
L 371.702649 64.608604 
L 372.205638 70.108559 
L 373.015534 68.061507 
L 374.21759 83.181887 
L 374.861244 79.762543 
L 375.402596 84.31208 
L 376.178391 82.990125 
L 377.717194 75.204616 
L 378.680544 81.794014 
L 379.656682 78.07744 
L 380.683971 85.315231 
L 381.174172 81.369742 
L 381.817826 86.443028 
L 382.414592 82.418437 
L 383.744526 98.182416 
L 383.765839 93.513028 
L 384.302929 86.886476 
L 386.127326 91.673317 
L 386.822132 98.195599 
L 387.026737 102.515023 
L 387.943199 88.383412 
L 388.650792 85.723923 
L 389.580041 94.971612 
L 389.895475 91.313765 
L 390.317473 81.792816 
L 391.481166 84.967664 
L 392.363527 90.53833 
L 393.284251 85.526169 
L 394.119722 93.176247 
L 395.027659 89.421321 
L 396.063473 85.785047 
L 397.563912 90.121249 
L 398.497424 91.62298 
L 399.098452 86.923629 
L 399.614228 86.550893 
L 400.483801 92.277366 
L 401.11893 90.263872 
L 402.099331 93.775501 
L 402.448865 90.190763 
L 403.433528 94.063143 
L 403.791587 94.498201 
L 405.083159 88.792104 
L 405.240875 90.573087 
L 405.880267 87.313145 
L 407.099374 90.59466 
L 407.483009 88.566784 
L 408.650964 90.824774 
L 409.806132 87.389849 
L 409.848758 87.892024 
L 409.980899 85.411112 
L 411.404611 86.247671 
L 412.51289 75.486265 
L 413.088343 78.007927 
L 413.774623 72.295836 
L 414.60157 74.111576 
L 415.697061 79.307109 
L 416.012494 78.839691 
L 417.223076 75.035626 
L 418.246102 78.458566 
L 418.949433 75.350834 
L 419.639976 77.296013 
L 420.104601 73.792773 
L 420.769568 76.757882 
L 421.792595 71.722949 
L 422.628067 76.278479 
L 423.651094 72.334189 
L 424.290485 71.239951 
L 424.840362 74.466335 
L 425.407289 71.519203 
L 426.656235 76.038778 
L 426.971668 78.303958 
L 428.348491 68.560086 
L 429.695476 75.74754 
L 429.934183 75.142293 
L 430.373232 68.984358 
L 432.142215 74.503488 
L 432.790132 72.015385 
L 433.033101 76.599679 
L 434.878812 75.470685 
L 435.910364 69.559642 
L 436.630745 75.150683 
L 437.440641 68.874095 
L 437.551469 70.730585 
L 438.753525 55.958971 
L 439.043383 57.3013 
L 440.424469 46.934204 
L 440.594974 48.498257 
L 441.954747 53.225173 
L 442.67939 54.786829 
L 443.365671 49.55654 
L 443.826033 50.031149 
L 444.495263 53.358208 
L 445.710107 53.071764 
L 446.664932 50.397892 
L 446.69477 50.420664 
L 448.127008 56.058447 
L 448.344401 55.18833 
L 449.039207 59.071496 
L 450.697362 57.965273 
L 450.910493 55.407657 
L 451.784328 53.202402 
L 452.79883 61.844844 
L 453.01196 61.887991 
L 453.783493 56.266987 
L 454.503874 56.440771 
L 455.710193 63.454441 
L 456.660756 55.698894 
L 457.568692 60.893229 
L 458.25071 55.323761 
L 459.478342 58.65921 
L 459.891815 55.791179 
L 460.586621 57.633287 
L 461.618173 60.697872 
L 462.048696 60.128581 
L 463.370106 56.837477 
L 464.077699 56.622944 
L 465.028262 59.610825 
L 465.522725 59.03674 
L 466.400822 60.817723 
L 466.784457 60.142963 
L 467.45795 63.770847 
L 468.753784 63.43886 
L 469.606306 58.085124 
L 470.032567 59.248876 
L 470.953291 50.854524 
L 472.598659 55.751629 
L 473.00787 55.145183 
L 473.093122 52.999854 
L 474.887682 55.605411 
L 475.305417 53.469669 
L 476.588464 53.102925 
L 477.296057 56.322119 
L 477.61149 54.788028 
L 478.73682 57.551788 
L 479.205707 55.424436 
L 480.301198 58.471044 
L 481.187821 56.198672 
L 481.869839 59.018762 
L 482.522018 58.097109 
L 483.417167 60.359893 
L 483.847691 60.359893 
L 485.032697 57.852614 
L 485.036959 58.086323 
L 486.102612 55.080464 
L 486.695115 57.023246 
L 487.389921 53.706974 
L 488.242443 53.309069 
L 489.46155 55.876273 
L 489.789771 55.006156 
L 490.991827 58.151042 
L 491.183645 56.771559 
L 492.321762 61.177275 
L 492.709659 59.751051 
L 494.227149 57.222198 
L 494.65341 54.825182 
L 495.199025 57.664448 
L 496.094173 57.828643 
L 496.899806 51.553254 
L 497.317542 53.027419 
L 498.289418 58.686775 
L 499.555413 58.405126 
L 499.985937 54.227126 
L 500.633854 56.922571 
L 501.094216 48.242975 
L 502.850412 62.302675 
L 503.45144 60.817723 
L 503.92459 57.978457 
L 505.271575 58.16902 
L 505.629634 60.053075 
L 506.908418 60.218469 
L 507.552072 58.757487 
L 508.523947 60.412627 
L 509.031198 58.636438 
L 510.122427 58.445875 
L 511.192342 60.901619 
L 511.328746 58.565726 
L 512.901649 59.932025 
L 514.090918 58.660408 
L 514.223059 59.083482 
L 514.888026 54.586679 
L 516.358627 58.08033 
L 517.002281 54.672971 
L 518.089247 54.64181 
L 518.694538 57.399577 
L 519.581161 55.738445 
L 520.203502 58.420706 
L 520.344169 58.408721 
L 521.06455 55.502339 
L 521.976749 56.075226 
L 522.279394 57.449915 
L 524.210357 55.688108 
L 525.028778 58.420706 
L 525.297323 56.021293 
L 526.90859 58.195387 
L 527.888991 57.038826 
L 528.413292 56.132754 
L 528.669049 58.280481 
L 529.802903 57.732763 
L 530.510497 59.109849 
L 531.88732 56.352081 
L 532.599176 58.419508 
L 532.897559 58.797038 
L 534.061252 55.448406 
L 534.142241 55.96736 
L 534.922299 57.6225 
L 536.273547 56.831485 
L 537.070655 59.431049 
L 537.675946 57.676433 
L 538.571095 61.600349 
L 538.75865 61.59915 
L 539.483293 74.135546 
L 540.301715 70.923544 
L 541.810679 77.127023 
L 542.590737 79.145311 
L 543.332431 75.696004 
L 543.750167 77.226499 
L 544.240368 74.111576 
L 544.884022 74.451953 
L 546.294946 76.69556 
L 546.444138 75.696004 
L 547.373387 80.853185 
L 548.575443 75.300496 
L 549.351239 83.040463 
L 550.118509 82.749225 
L 551.005132 79.930334 
L 551.870442 82.605404 
L 552.279653 78.663511 
L 552.560985 80.081346 
L 553.23874 76.085519 
L 554.197828 76.084321 
L 555.186754 79.691831 
L 555.630065 77.444628 
L 557.211494 80.829215 
L 557.53119 77.902458 
L 558.937852 79.992656 
L 559.462153 78.105006 
L 560.51928 81.629818 
L 561.137359 78.843287 
L 561.925942 79.649883 
L 562.889292 76.278479 
L 563.366705 77.680734 
L 564.833043 70.342268 
L 565.344556 61.741773 
L 566.367583 62.615485 
L 567.642104 59.619215 
L 567.983113 59.217714 
L 568.626767 63.404104 
L 569.10418 61.158099 
L 569.10418 61.158099 
" clip-path="url(#p463579d6a6)" style="fill: none; stroke: #4169e1; stroke-width: 1.5; stroke-linecap: square"/>
   </g>
   <g id="patch_3">
    <path d="M 53.328125 107.053834 
L 53.328125 7.2 
" style="fill: none; stroke: #000000; stroke-width: 0.8; stroke-linejoin: miter; stroke-linecap: square"/>
   </g>
   <g id="patch_4">
    <path d="M 574.210873 107.053834 
L 574.210873 7.2 
" style="fill: none; stroke: #000000; stroke-width: 0.8; stroke-linejoin: miter; stroke-linecap: square"/>
   </g>
   <g id="patch_5">
    <path d="M 53.328125 107.053834 
L 574.210873 107.053834 
" style="fill: none; stroke: #000000; stroke-width: 0.8; stroke-linejoin: miter; stroke-linecap: square"/>
   </g>
   <g id="patch_6">
    <path d="M 53.328125 7.2 
L 574.210873 7.2 
" style="fill: none; stroke: #000000; stroke-width: 0.8; stroke-linejoin: miter; stroke-linecap: square"/>
   </g>
  </g>
  <g id="axes_2">
   <g id="patch_7">
    <path d="M 53.328125 219.071649 
L 574.210873 219.071649 
L 574.210873 119.217816 
L 53.328125 119.217816 
z
" style="fill: #ffffff"/>
   </g>
   <g id="matplotlib.axis_3">
    <g id="xtick_18">
     <g id="line2d_22">
      <g>
       <use xlink:href="#m97ef727d6b" x="58.434077" y="219.071649" style="stroke: #000000; stroke-width: 0.8"/>
      </g>
     </g>
    </g>
    <g id="xtick_19">
     <g id="line2d_23">
      <g>
       <use xlink:href="#m97ef727d6b" x="90.459261" y="219.071649" style="stroke: #000000; stroke-width: 0.8"/>
      </g>
     </g>
    </g>
    <g id="xtick_20">
     <g id="line2d_24">
      <g>
       <use xlink:href="#m97ef727d6b" x="122.484446" y="219.071649" style="stroke: #000000; stroke-width: 0.8"/>
      </g>
     </g>
    </g>
    <g id="xtick_21">
     <g id="line2d_25">
      <g>
       <use xlink:href="#m97ef727d6b" x="154.50963" y="219.071649" style="stroke: #000000; stroke-width: 0.8"/>
      </g>
     </g>
    </g>
    <g id="xtick_22">
     <g id="line2d_26">
      <g>
       <use xlink:href="#m97ef727d6b" x="186.534814" y="219.071649" style="stroke: #000000; stroke-width: 0.8"/>
      </g>
     </g>
    </g>
    <g id="xtick_23">
     <g id="line2d_27">
      <g>
       <use xlink:href="#m97ef727d6b" x="218.559998" y="219.071649" style="stroke: #000000; stroke-width: 0.8"/>
      </g>
     </g>
    </g>
    <g id="xtick_24">
     <g id="line2d_28">
      <g>
       <use xlink:href="#m97ef727d6b" x="250.585182" y="219.071649" style="stroke: #000000; stroke-width: 0.8"/>
      </g>
     </g>
    </g>
    <g id="xtick_25">
     <g id="line2d_29">
      <g>
       <use xlink:href="#m97ef727d6b" x="282.610366" y="219.071649" style="stroke: #000000; stroke-width: 0.8"/>
      </g>
     </g>
    </g>
    <g id="xtick_26">
     <g id="line2d_30">
      <g>
       <use xlink:href="#m97ef727d6b" x="314.63555" y="219.071649" style="stroke: #000000; stroke-width: 0.8"/>
      </g>
     </g>
    </g>
    <g id="xtick_27">
     <g id="line2d_31">
      <g>
       <use xlink:href="#m97ef727d6b" x="346.660735" y="219.071649" style="stroke: #000000; stroke-width: 0.8"/>
      </g>
     </g>
    </g>
    <g id="xtick_28">
     <g id="line2d_32">
      <g>
       <use xlink:href="#m97ef727d6b" x="378.685919" y="219.071649" style="stroke: #000000; stroke-width: 0.8"/>
      </g>
     </g>
    </g>
    <g id="xtick_29">
     <g id="line2d_33">
      <g>
       <use xlink:href="#m97ef727d6b" x="410.711103" y="219.071649" style="stroke: #000000; stroke-width: 0.8"/>
      </g>
     </g>
    </g>
    <g id="xtick_30">
     <g id="line2d_34">
      <g>
       <use xlink:href="#m97ef727d6b" x="442.736287" y="219.071649" style="stroke: #000000; stroke-width: 0.8"/>
      </g>
     </g>
    </g>
    <g id="xtick_31">
     <g id="line2d_35">
      <g>
       <use xlink:href="#m97ef727d6b" x="474.761471" y="219.071649" style="stroke: #000000; stroke-width: 0.8"/>
      </g>
     </g>
    </g>
    <g id="xtick_32">
     <g id="line2d_36">
      <g>
       <use xlink:href="#m97ef727d6b" x="506.786655" y="219.071649" style="stroke: #000000; stroke-width: 0.8"/>
      </g>
     </g>
    </g>
    <g id="xtick_33">
     <g id="line2d_37">
      <g>
       <use xlink:href="#m97ef727d6b" x="538.81184" y="219.071649" style="stroke: #000000; stroke-width: 0.8"/>
      </g>
     </g>
    </g>
    <g id="xtick_34">
     <g id="line2d_38">
      <g>
       <use xlink:href="#m97ef727d6b" x="570.837024" y="219.071649" style="stroke: #000000; stroke-width: 0.8"/>
      </g>
     </g>
    </g>
   </g>
   <g id="matplotlib.axis_4">
    <g id="ytick_4">
     <g id="line2d_39">
      <g>
       <use xlink:href="#mc07d8e51ce" x="53.328125" y="208.623339" style="stroke: #000000; stroke-width: 0.8"/>
      </g>
     </g>
     <g id="text_5">
      <!-- 1000 -->
      <g transform="translate(20.878125 212.422558) scale(0.1 -0.1)">
       <defs>
        <path id="DejaVuSans-31" d="M 794 531 
L 1825 531 
L 1825 4091 
L 703 3866 
L 703 4441 
L 1819 4666 
L 2450 4666 
L 2450 531 
L 3481 531 
L 3481 0 
L 794 0 
L 794 531 
z
" transform="scale(0.015625)"/>
       </defs>
       <use xlink:href="#DejaVuSans-31"/>
       <use xlink:href="#DejaVuSans-30" transform="translate(63.623047 0)"/>
       <use xlink:href="#DejaVuSans-30" transform="translate(127.246094 0)"/>
       <use xlink:href="#DejaVuSans-30" transform="translate(190.869141 0)"/>
      </g>
     </g>
    </g>
    <g id="ytick_5">
     <g id="line2d_40">
      <g>
       <use xlink:href="#mc07d8e51ce" x="53.328125" y="164.488435" style="stroke: #000000; stroke-width: 0.8"/>
      </g>
     </g>
     <g id="text_6">
      <!-- 1200 -->
      <g transform="translate(20.878125 168.287654) scale(0.1 -0.1)">
       <use xlink:href="#DejaVuSans-31"/>
       <use xlink:href="#DejaVuSans-32" transform="translate(63.623047 0)"/>
       <use xlink:href="#DejaVuSans-30" transform="translate(127.246094 0)"/>
       <use xlink:href="#DejaVuSans-30" transform="translate(190.869141 0)"/>
      </g>
     </g>
    </g>
    <g id="ytick_6">
     <g id="line2d_41">
      <g>
       <use xlink:href="#mc07d8e51ce" x="53.328125" y="120.35353" style="stroke: #000000; stroke-width: 0.8"/>
      </g>
     </g>
     <g id="text_7">
      <!-- 1400 -->
      <g transform="translate(20.878125 124.152749) scale(0.1 -0.1)">
       <defs>
        <path id="DejaVuSans-34" d="M 2419 4116 
L 825 1625 
L 2419 1625 
L 2419 4116 
z
M 2253 4666 
L 3047 4666 
L 3047 1625 
L 3713 1625 
L 3713 1100 
L 3047 1100 
L 3047 0 
L 2419 0 
L 2419 1100 
L 313 1100 
L 313 1709 
L 2253 4666 
z
" transform="scale(0.015625)"/>
       </defs>
       <use xlink:href="#DejaVuSans-31"/>
       <use xlink:href="#DejaVuSans-34" transform="translate(63.623047 0)"/>
       <use xlink:href="#DejaVuSans-30" transform="translate(127.246094 0)"/>
       <use xlink:href="#DejaVuSans-30" transform="translate(190.869141 0)"/>
      </g>
     </g>
    </g>
    <g id="text_8">
     <!-- Equity -->
     <g transform="translate(14.798438 184.95567) rotate(-90) scale(0.1 -0.1)">
      <defs>
       <path id="DejaVuSans-45" d="M 628 4666 
L 3578 4666 
L 3578 4134 
L 1259 4134 
L 1259 2753 
L 3481 2753 
L 3481 2222 
L 1259 2222 
L 1259 531 
L 3634 531 
L 3634 0 
L 628 0 
L 628 4666 
z
" transform="scale(0.015625)"/>
       <path id="DejaVuSans-71" d="M 947 1747 
Q 947 1113 1208 752 
Q 1469 391 1925 391 
Q 2381 391 2643 752 
Q 2906 1113 2906 1747 
Q 2906 2381 2643 2742 
Q 2381 3103 1925 3103 
Q 1469 3103 1208 2742 
Q 947 2381 947 1747 
z
M 2906 525 
Q 2725 213 2448 61 
Q 2172 -91 1784 -91 
Q 1150 -91 751 415 
Q 353 922 353 1747 
Q 353 2572 751 3078 
Q 1150 3584 1784 3584 
Q 2172 3584 2448 3432 
Q 2725 3281 2906 2969 
L 2906 3500 
L 3481 3500 
L 3481 -1331 
L 2906 -1331 
L 2906 525 
z
" transform="scale(0.015625)"/>
       <path id="DejaVuSans-75" d="M 544 1381 
L 544 3500 
L 1119 3500 
L 1119 1403 
Q 1119 906 1312 657 
Q 1506 409 1894 409 
Q 2359 409 2629 706 
Q 2900 1003 2900 1516 
L 2900 3500 
L 3475 3500 
L 3475 0 
L 2900 0 
L 2900 538 
Q 2691 219 2414 64 
Q 2138 -91 1772 -91 
Q 1169 -91 856 284 
Q 544 659 544 1381 
z
M 1991 3584 
L 1991 3584 
z
" transform="scale(0.015625)"/>
       <path id="DejaVuSans-74" d="M 1172 4494 
L 1172 3500 
L 2356 3500 
L 2356 3053 
L 1172 3053 
L 1172 1153 
Q 1172 725 1289 603 
Q 1406 481 1766 481 
L 2356 481 
L 2356 0 
L 1766 0 
Q 1100 0 847 248 
Q 594 497 594 1153 
L 594 3053 
L 172 3053 
L 172 3500 
L 594 3500 
L 594 4494 
L 1172 4494 
z
" transform="scale(0.015625)"/>
       <path id="DejaVuSans-79" d="M 2059 -325 
Q 1816 -950 1584 -1140 
Q 1353 -1331 966 -1331 
L 506 -1331 
L 506 -850 
L 844 -850 
Q 1081 -850 1212 -737 
Q 1344 -625 1503 -206 
L 1606 56 
L 191 3500 
L 800 3500 
L 1894 763 
L 2988 3500 
L 3597 3500 
L 2059 -325 
z
" transform="scale(0.015625)"/>
      </defs>
      <use xlink:href="#DejaVuSans-45"/>
      <use xlink:href="#DejaVuSans-71" transform="translate(63.183594 0)"/>
      <use xlink:href="#DejaVuSans-75" transform="translate(126.660156 0)"/>
      <use xlink:href="#DejaVuSans-69" transform="translate(190.039062 0)"/>
      <use xlink:href="#DejaVuSans-74" transform="translate(217.822266 0)"/>
      <use xlink:href="#DejaVuSans-79" transform="translate(257.03125 0)"/>
     </g>
    </g>
   </g>
   <g id="line2d_42">
    <path d="M 58.434819 208.623339 
L 72.241417 208.623339 
L 72.983111 209.387002 
L 73.162141 207.733549 
L 74.006138 208.37445 
L 74.236319 209.19279 
L 75.664294 208.100787 
L 76.175807 209.70039 
L 76.908976 209.085973 
L 77.697559 210.851539 
L 78.388102 209.799262 
L 80.01642 211.963846 
L 81.448657 209.884009 
L 81.474233 209.485874 
L 82.279866 213.283606 
L 83.013035 212.521765 
L 83.388145 210.619367 
L 84.522 211.081063 
L 86.052277 211.081063 
L 86.985789 211.646474 
L 87.556979 209.996623 
L 87.595343 210.096455 
L 88.993479 213.288444 
L 89.573194 210.81717 
L 90.434242 214.532839 
L 90.668685 214.382215 
L 92.143549 207.988603 
L 92.416356 209.360852 
L 93.217727 204.569803 
L 93.912533 207.633938 
L 95.008024 202.254406 
L 96.346484 202.763198 
L 96.572402 205.317665 
L 96.823896 204.25542 
L 97.795772 201.692195 
L 99.313261 202.940968 
L 99.863138 204.6276 
L 100.476954 205.631172 
L 100.822226 195.506128 
L 102.045595 203.005207 
L 102.936481 200.040259 
L 104.407082 190.300568 
L 105.067786 195.257794 
L 105.506835 190.965659 
L 106.964648 198.274671 
L 107.723393 197.356925 
L 108.908399 200.177072 
L 109.206782 200.341846 
L 110.332111 191.343143 
L 110.664595 194.359237 
L 111.91354 186.36595 
L 112.182085 191.381735 
L 112.889678 188.29558 
L 114.556359 192.566468 
L 114.918681 189.499118 
L 116.248616 187.717841 
L 116.77718 196.246033 
L 118.188104 184.147368 
L 119.189818 186.938632 
L 119.705594 182.138225 
L 120.315147 184.764565 
L 120.660419 178.290416 
L 121.883788 182.903656 
L 123.691135 171.341449 
L 123.853114 179.554641 
L 125.950319 179.554641 
L 127.071386 180.567974 
L 127.416658 178.553682 
L 127.791767 180.567974 
L 128.094413 175.333487 
L 129.773882 175.888002 
L 130.413273 179.510165 
L 130.622141 178.275311 
L 131.206119 180.514527 
L 132.092742 179.534661 
L 135.15756 179.534661 
L 136.402242 180.372487 
L 136.581272 176.968372 
L 136.760302 179.450803 
L 137.246239 175.421335 
L 138.230902 177.489324 
L 148.925794 177.458775 
L 148.942845 178.034169 
L 149.24549 178.749188 
L 150.080962 174.392487 
L 151.065625 177.602509 
L 151.72633 173.00976 
L 152.11849 175.294166 
L 152.438186 170.633021 
L 154.288159 172.551511 
L 155.059692 175.53127 
L 155.575468 171.990669 
L 156.636858 176.386212 
L 157.630047 173.915999 
L 157.958268 176.614196 
L 158.776689 176.910576 
L 159.582323 174.475701 
L 159.919069 176.444348 
L 160.997509 171.82766 
L 161.249004 173.739311 
L 162.020536 168.804585 
L 162.783544 169.665226 
L 162.800594 168.691732 
L 164.318084 168.977853 
L 167.382901 168.977853 
L 167.497992 168.424484 
L 168.512493 172.246596 
L 169.275501 170.01434 
L 170.451981 166.134335 
L 170.712001 167.454761 
L 171.197938 164.497719 
L 171.990784 165.572096 
L 172.847569 168.467905 
L 173.563688 166.827948 
L 173.725667 168.506872 
L 175.059864 167.585023 
L 182.728302 167.585023 
L 183.482784 165.59827 
L 184.0966 168.135638 
L 184.27563 167.846542 
L 185.025849 169.400291 
L 185.805907 169.319667 
L 186.769258 167.41808 
L 187.843436 169.053606 
L 188.943189 164.003056 
L 190.213447 167.460696 
L 190.405265 166.995377 
L 191.586008 170.3125 
L 192.037845 170.128215 
L 193.606486 165.25504 
L 194.774442 168.765661 
L 195.94666 167.153171 
L 196.223729 173.877255 
L 196.577526 169.433693 
L 197.140191 174.251583 
L 198.704569 171.038121 
L 199.915151 177.185163 
L 200.690946 174.435868 
L 201.632983 173.483347 
L 201.910053 181.393762 
L 202.681586 178.729698 
L 219.557264 178.729698 
L 220.320271 180.774764 
L 220.529139 178.2684 
L 221.100329 178.538104 
L 222.626344 172.083006 
L 223.299836 173.111436 
L 223.99038 169.502548 
L 224.365489 169.215062 
L 224.642559 171.867639 
L 225.989544 172.151173 
L 227.131924 170.068712 
L 227.315216 172.175293 
L 228.065436 168.407612 
L 228.781555 170.642374 
L 230.230842 167.357998 
L 230.60169 168.903525 
L 231.334859 166.124519 
L 231.837847 167.250831 
L 233.274347 162.815978 
L 233.461902 163.34131 
L 233.824224 166.076188 
L 235.294825 162.92945 
L 235.712561 166.251649 
L 236.880516 165.156857 
L 237.754351 163.654408 
L 238.197663 165.612846 
L 239.267578 162.815978 
L 239.885657 161.754807 
L 240.729654 167.666894 
L 241.045087 166.539531 
L 242.558314 168.983376 
L 243.470513 168.005207 
L 243.815785 170.09708 
L 244.122693 170.009874 
L 245.111619 162.635264 
L 245.648708 162.680257 
L 245.665758 163.400278 
L 247.183248 162.743754 
L 250.248065 162.743754 
L 250.661539 162.167283 
L 251.752767 165.87484 
L 252.767269 163.282229 
L 253.150904 176.095735 
L 253.342721 169.795566 
L 254.838898 176.645954 
L 255.491077 177.286573 
L 255.891763 173.36808 
L 256.727234 172.289964 
L 257.485979 177.706212 
L 257.980442 175.043289 
L 258.031593 176.046628 
L 259.459568 175.388152 
L 265.593466 175.388152 
L 266.795522 174.066917 
L 266.995865 177.084111 
L 267.277197 172.641705 
L 268.304487 177.84993 
L 268.709435 175.591972 
L 269.736724 168.124798 
L 270.499732 172.810018 
L 271.710313 170.00498 
L 271.799828 172.770151 
L 273.193702 167.604999 
L 273.69669 170.352301 
L 274.766606 164.480221 
L 274.817757 164.612096 
L 276.313933 158.386513 
L 276.339509 159.192974 
L 277.660919 166.732352 
L 278.078655 167.031344 
L 279.357438 159.557744 
L 279.54073 164.60353 
L 280.435879 156.603704 
L 281.365128 160.673581 
L 282.047146 154.111308 
L 282.597023 155.373054 
L 283.897119 160.275324 
L 284.042048 159.001619 
L 284.638813 162.547662 
L 286.369434 159.299415 
L 287.047189 161.647099 
L 287.575753 160.974965 
L 288.551891 155.546469 
L 288.637143 155.971038 
L 289.988391 158.542367 
L 290.83665 155.837089 
L 291.535718 159.617542 
L 292.128221 159.213305 
L 292.985006 156.370491 
L 293.249288 157.440881 
L 293.389954 155.260633 
L 294.75399 155.810778 
L 302.42669 155.810778 
L 303.637272 156.987471 
L 304.549471 155.269187 
L 305.308216 158.239226 
L 305.500033 158.302238 
L 307.026048 152.194936 
L 307.128351 153.857479 
L 307.835944 149.884098 
L 308.573376 151.911383 
L 308.816345 149.916815 
L 311.165044 148.431205 
L 311.476214 153.777679 
L 312.28611 154.783791 
L 312.912714 149.037663 
L 314.012468 147.062233 
L 314.387578 154.556686 
L 314.877778 151.049886 
L 315.039757 157.28321 
L 316.506096 155.2583 
L 317.631425 159.568213 
L 318.232453 156.292323 
L 319.242692 159.285283 
L 319.690266 158.639494 
L 320.836909 160.61873 
L 321.015938 161.510655 
L 321.63828 159.448951 
L 322.375711 160.809041 
L 323.87615 152.200634 
L 323.910251 152.298327 
L 328.509609 152.298327 
L 329.711665 153.81935 
L 329.865119 152.12384 
L 330.056937 153.664046 
L 331.165216 147.296578 
L 332.341697 152.856721 
L 332.686968 145.947614 
L 333.202744 153.511444 
L 334.029691 148.249479 
L 335.338312 145.048079 
L 336.088532 152.298322 
L 336.280349 150.269784 
L 336.489217 154.198923 
L 338.121798 154.843887 
L 338.825128 151.099401 
L 339.750115 148.266306 
L 340.419345 154.692208 
L 340.790192 152.754677 
L 354.59679 152.754677 
L 355.329959 154.077519 
L 356.118542 149.744295 
L 356.864499 154.883187 
L 357.307811 146.163547 
L 357.815062 147.812508 
L 359.16631 140.260503 
L 360.065721 139.007241 
L 360.675274 142.211751 
L 360.811678 142.083311 
L 362.209814 150.173726 
L 362.772479 147.992843 
L 363.578112 152.824257 
L 364.5372 151.57878 
L 365.074289 153.594896 
L 365.568752 151.066318 
L 366.110103 154.822211 
L 367.261008 150.895065 
L 367.98139 153.819342 
L 368.420439 152.999403 
L 369.008679 150.491582 
L 369.946454 150.599264 
L 377.614891 150.599264 
L 377.717194 151.547423 
L 378.680544 144.047287 
L 379.656682 148.277538 
L 380.611507 141.835158 
L 381.174172 142.993756 
L 381.724049 137.147229 
L 382.414592 140.90906 
L 383.757314 133.544075 
L 389.891212 133.544075 
L 391.225409 133.151324 
L 391.246722 136.430889 
L 391.481166 134.064906 
L 392.363527 127.069303 
L 393.284251 133.36354 
L 394.119722 123.756626 
L 394.797478 132.182053 
L 395.027659 128.472036 
L 396.033635 130.886181 
L 406.771153 130.886181 
L 407.099374 130.548091 
L 407.483009 133.172746 
L 408.650964 130.250258 
L 409.806132 134.696038 
L 409.848758 134.046079 
L 409.980899 137.257093 
L 411.404611 136.174345 
L 412.51289 150.102699 
L 412.913576 146.522496 
L 442.065574 146.522496 
L 442.67939 144.381459 
L 443.365671 149.897277 
L 443.826033 149.396758 
L 444.388698 146.463162 
L 445.138917 146.824648 
L 454.341895 146.824648 
L 454.972762 147.69703 
L 455.710193 140.712104 
L 456.660756 149.037662 
L 457.568692 143.461558 
L 458.25071 149.440367 
L 459.478342 145.859772 
L 459.891815 148.938594 
L 460.586621 146.961097 
L 461.618173 143.671273 
L 462.048696 144.282406 
L 462.513321 147.165666 
L 463.553398 146.388563 
L 469.687296 146.388563 
L 470.953291 147.842653 
L 471.191998 145.141798 
L 471.430704 146.416501 
L 472.598659 142.685787 
L 473.00787 143.324401 
L 473.093122 145.583527 
L 474.887682 142.839761 
L 475.305417 145.088791 
L 476.588464 145.474988 
L 477.296057 142.085037 
L 477.364259 142.331142 
L 486.571499 142.331142 
L 487.389921 145.8917 
L 488.242443 146.324364 
L 489.46155 143.5329 
L 489.789771 144.479026 
L 490.991827 141.059418 
L 491.183645 142.559406 
L 492.321762 137.768826 
L 492.709659 139.31964 
L 494.227149 142.069401 
L 494.65341 144.67581 
L 495.199025 141.588519 
L 496.094173 141.40998 
L 496.899806 148.233558 
L 497.317542 146.630617 
L 498.289418 140.476885 
L 499.555413 140.783138 
L 499.985937 145.326109 
L 501.094216 151.833009 
L 501.904112 142.344673 
L 501.993627 142.804182 
L 502.850412 135.884372 
L 503.45144 137.488122 
L 503.92459 140.554532 
L 505.271575 140.348724 
L 505.629634 138.313942 
L 506.908418 138.135317 
L 507.552072 139.713178 
L 508.523947 137.925625 
L 509.031198 139.843912 
L 510.122427 140.04972 
L 511.192342 137.397514 
L 511.328746 139.920281 
L 512.901649 138.444676 
L 514.090918 139.818024 
L 514.223059 139.361104 
L 514.888026 144.217656 
L 515.727761 142.64756 
L 517.258038 142.64756 
L 518.089247 144.177681 
L 518.694538 141.192787 
L 519.581161 142.990728 
L 520.203502 140.087559 
L 520.344169 140.100531 
L 521.06455 143.24628 
L 521.976749 142.626211 
L 522.279394 141.138304 
L 524.210357 143.045212 
L 525.028778 140.087559 
L 525.297323 142.684586 
L 526.90859 140.331436 
L 527.888991 141.583249 
L 528.413292 142.563944 
L 528.669049 140.239333 
L 529.802903 140.832161 
L 530.510497 139.34166 
L 531.88732 142.326554 
L 532.599176 140.088856 
L 532.897559 139.680233 
L 533.511375 141.278403 
L 535.676782 141.255054 
L 543.345219 141.255054 
L 544.240368 142.823942 
L 544.530225 141.230366 
L 544.884022 142.424493 
L 546.294946 139.791506 
L 546.444138 140.964535 
L 546.861874 138.577688 
L 548.971866 138.895549 
L 549.133845 136.195574 
L 550.549032 134.550281 
L 551.005132 137.751539 
L 551.870442 134.451212 
L 552.279653 139.314463 
L 552.560985 137.56523 
L 553.23874 142.49502 
L 554.197828 142.496499 
L 555.186754 138.045789 
L 555.630065 140.818241 
L 557.211494 136.642558 
L 557.53119 140.2534 
L 558.937852 137.67465 
L 559.462153 140.00351 
L 560.51928 135.654826 
L 561.137359 139.092667 
L 561.925942 138.097541 
L 562.889292 142.256959 
L 563.298503 140.93949 
L 569.10418 140.93949 
L 569.10418 140.93949 
" clip-path="url(#pb4160e0652)" style="fill: none; stroke: #2e8b57; stroke-width: 1.5; stroke-linecap: square"/>
   </g>
   <g id="patch_8">
    <path d="M 53.328125 219.071649 
L 53.328125 119.217816 
" style="fill: none; stroke: #000000; stroke-width: 0.8; stroke-linejoin: miter; stroke-linecap: square"/>
   </g>
   <g id="patch_9">
    <path d="M 574.210873 219.071649 
L 574.210873 119.217816 
" style="fill: none; stroke: #000000; stroke-width: 0.8; stroke-linejoin: miter; stroke-linecap: square"/>
   </g>
   <g id="patch_10">
    <path d="M 53.328125 219.071649 
L 574.210873 219.071649 
" style="fill: none; stroke: #000000; stroke-width: 0.8; stroke-linejoin: miter; stroke-linecap: square"/>
   </g>
   <g id="patch_11">
    <path d="M 53.328125 119.217816 
L 574.210873 119.217816 
" style="fill: none; stroke: #000000; stroke-width: 0.8; stroke-linejoin: miter; stroke-linecap: square"/>
   </g>
  </g>
  <g id="axes_3">
   <g id="patch_12">
    <path d="M 53.328125 330.84327 
L 574.210873 330.84327 
L 574.210873 230.989436 
L 53.328125 230.989436 
z
" style="fill: #ffffff"/>
   </g>
   <g id="matplotlib.axis_5">
    <g id="xtick_35">
     <g id="line2d_43">
      <g>
       <use xlink:href="#m97ef727d6b" x="58.434077" y="330.84327" style="stroke: #000000; stroke-width: 0.8"/>
      </g>
     </g>
     <g id="text_9">
      <!-- Nov -->
      <g transform="translate(48.674702 345.441707) scale(0.1 -0.1)">
       <defs>
        <path id="DejaVuSans-4e" d="M 628 4666 
L 1478 4666 
L 3547 763 
L 3547 4666 
L 4159 4666 
L 4159 0 
L 3309 0 
L 1241 3903 
L 1241 0 
L 628 0 
L 628 4666 
z
" transform="scale(0.015625)"/>
        <path id="DejaVuSans-6f" d="M 1959 3097 
Q 1497 3097 1228 2736 
Q 959 2375 959 1747 
Q 959 1119 1226 758 
Q 1494 397 1959 397 
Q 2419 397 2687 759 
Q 2956 1122 2956 1747 
Q 2956 2369 2687 2733 
Q 2419 3097 1959 3097 
z
M 1959 3584 
Q 2709 3584 3137 3096 
Q 3566 2609 3566 1747 
Q 3566 888 3137 398 
Q 2709 -91 1959 -91 
Q 1206 -91 779 398 
Q 353 888 353 1747 
Q 353 2609 779 3096 
Q 1206 3584 1959 3584 
z
" transform="scale(0.015625)"/>
        <path id="DejaVuSans-76" d="M 191 3500 
L 800 3500 
L 1894 563 
L 2988 3500 
L 3597 3500 
L 2284 0 
L 1503 0 
L 191 3500 
z
" transform="scale(0.015625)"/>
       </defs>
       <use xlink:href="#DejaVuSans-4e"/>
       <use xlink:href="#DejaVuSans-6f" transform="translate(74.804688 0)"/>
       <use xlink:href="#DejaVuSans-76" transform="translate(135.986328 0)"/>
      </g>
     </g>
    </g>
    <g id="xtick_36">
     <g id="line2d_44">
      <g>
       <use xlink:href="#m97ef727d6b" x="90.459261" y="330.84327" style="stroke: #000000; stroke-width: 0.8"/>
      </g>
     </g>
     <g id="text_10">
      <!-- 03 -->
      <g transform="translate(84.096761 345.441707) scale(0.1 -0.1)">
       <defs>
        <path id="DejaVuSans-33" d="M 2597 2516 
Q 3050 2419 3304 2112 
Q 3559 1806 3559 1356 
Q 3559 666 3084 287 
Q 2609 -91 1734 -91 
Q 1441 -91 1130 -33 
Q 819 25 488 141 
L 488 750 
Q 750 597 1062 519 
Q 1375 441 1716 441 
Q 2309 441 2620 675 
Q 2931 909 2931 1356 
Q 2931 1769 2642 2001 
Q 2353 2234 1838 2234 
L 1294 2234 
L 1294 2753 
L 1863 2753 
Q 2328 2753 2575 2939 
Q 2822 3125 2822 3475 
Q 2822 3834 2567 4026 
Q 2313 4219 1838 4219 
Q 1578 4219 1281 4162 
Q 984 4106 628 3988 
L 628 4550 
Q 988 4650 1302 4700 
Q 1616 4750 1894 4750 
Q 2613 4750 3031 4423 
Q 3450 4097 3450 3541 
Q 3450 3153 3228 2886 
Q 3006 2619 2597 2516 
z
" transform="scale(0.015625)"/>
       </defs>
       <use xlink:href="#DejaVuSans-30"/>
       <use xlink:href="#DejaVuSans-33" transform="translate(63.623047 0)"/>
      </g>
     </g>
    </g>
    <g id="xtick_37">
     <g id="line2d_45">
      <g>
       <use xlink:href="#m97ef727d6b" x="122.484446" y="330.84327" style="stroke: #000000; stroke-width: 0.8"/>
      </g>
     </g>
     <g id="text_11">
      <!-- 05 -->
      <g transform="translate(116.121946 345.441707) scale(0.1 -0.1)">
       <use xlink:href="#DejaVuSans-30"/>
       <use xlink:href="#DejaVuSans-35" transform="translate(63.623047 0)"/>
      </g>
     </g>
    </g>
    <g id="xtick_38">
     <g id="line2d_46">
      <g>
       <use xlink:href="#m97ef727d6b" x="154.50963" y="330.84327" style="stroke: #000000; stroke-width: 0.8"/>
      </g>
     </g>
     <g id="text_12">
      <!-- 07 -->
      <g transform="translate(148.14713 345.441707) scale(0.1 -0.1)">
       <defs>
        <path id="DejaVuSans-37" d="M 525 4666 
L 3525 4666 
L 3525 4397 
L 1831 0 
L 1172 0 
L 2766 4134 
L 525 4134 
L 525 4666 
z
" transform="scale(0.015625)"/>
       </defs>
       <use xlink:href="#DejaVuSans-30"/>
       <use xlink:href="#DejaVuSans-37" transform="translate(63.623047 0)"/>
      </g>
     </g>
    </g>
    <g id="xtick_39">
     <g id="line2d_47">
      <g>
       <use xlink:href="#m97ef727d6b" x="186.534814" y="330.84327" style="stroke: #000000; stroke-width: 0.8"/>
      </g>
     </g>
     <g id="text_13">
      <!-- 09 -->
      <g transform="translate(180.172314 345.441707) scale(0.1 -0.1)">
       <defs>
        <path id="DejaVuSans-39" d="M 703 97 
L 703 672 
Q 941 559 1184 500 
Q 1428 441 1663 441 
Q 2288 441 2617 861 
Q 2947 1281 2994 2138 
Q 2813 1869 2534 1725 
Q 2256 1581 1919 1581 
Q 1219 1581 811 2004 
Q 403 2428 403 3163 
Q 403 3881 828 4315 
Q 1253 4750 1959 4750 
Q 2769 4750 3195 4129 
Q 3622 3509 3622 2328 
Q 3622 1225 3098 567 
Q 2575 -91 1691 -91 
Q 1453 -91 1209 -44 
Q 966 3 703 97 
z
M 1959 2075 
Q 2384 2075 2632 2365 
Q 2881 2656 2881 3163 
Q 2881 3666 2632 3958 
Q 2384 4250 1959 4250 
Q 1534 4250 1286 3958 
Q 1038 3666 1038 3163 
Q 1038 2656 1286 2365 
Q 1534 2075 1959 2075 
z
" transform="scale(0.015625)"/>
       </defs>
       <use xlink:href="#DejaVuSans-30"/>
       <use xlink:href="#DejaVuSans-39" transform="translate(63.623047 0)"/>
      </g>
     </g>
    </g>
    <g id="xtick_40">
     <g id="line2d_48">
      <g>
       <use xlink:href="#m97ef727d6b" x="218.559998" y="330.84327" style="stroke: #000000; stroke-width: 0.8"/>
      </g>
     </g>
     <g id="text_14">
      <!-- 11 -->
      <g transform="translate(212.197498 345.441707) scale(0.1 -0.1)">
       <use xlink:href="#DejaVuSans-31"/>
       <use xlink:href="#DejaVuSans-31" transform="translate(63.623047 0)"/>
      </g>
     </g>
    </g>
    <g id="xtick_41">
     <g id="line2d_49">
      <g>
       <use xlink:href="#m97ef727d6b" x="250.585182" y="330.84327" style="stroke: #000000; stroke-width: 0.8"/>
      </g>
     </g>
     <g id="text_15">
      <!-- 13 -->
      <g transform="translate(244.222682 345.441707) scale(0.1 -0.1)">
       <use xlink:href="#DejaVuSans-31"/>
       <use xlink:href="#DejaVuSans-33" transform="translate(63.623047 0)"/>
      </g>
     </g>
    </g>
    <g id="xtick_42">
     <g id="line2d_50">
      <g>
       <use xlink:href="#m97ef727d6b" x="282.610366" y="330.84327" style="stroke: #000000; stroke-width: 0.8"/>
      </g>
     </g>
     <g id="text_16">
      <!-- 15 -->
      <g transform="translate(276.247866 345.441707) scale(0.1 -0.1)">
       <use xlink:href="#DejaVuSans-31"/>
       <use xlink:href="#DejaVuSans-35" transform="translate(63.623047 0)"/>
      </g>
     </g>
    </g>
    <g id="xtick_43">
     <g id="line2d_51">
      <g>
       <use xlink:href="#m97ef727d6b" x="314.63555" y="330.84327" style="stroke: #000000; stroke-width: 0.8"/>
      </g>
     </g>
     <g id="text_17">
      <!-- 17 -->
      <g transform="translate(308.27305 345.441707) scale(0.1 -0.1)">
       <use xlink:href="#DejaVuSans-31"/>
       <use xlink:href="#DejaVuSans-37" transform="translate(63.623047 0)"/>
      </g>
     </g>
    </g>
    <g id="xtick_44">
     <g id="line2d_52">
      <g>
       <use xlink:href="#m97ef727d6b" x="346.660735" y="330.84327" style="stroke: #000000; stroke-width: 0.8"/>
      </g>
     </g>
     <g id="text_18">
      <!-- 19 -->
      <g transform="translate(340.298235 345.441707) scale(0.1 -0.1)">
       <use xlink:href="#DejaVuSans-31"/>
       <use xlink:href="#DejaVuSans-39" transform="translate(63.623047 0)"/>
      </g>
     </g>
    </g>
    <g id="xtick_45">
     <g id="line2d_53">
      <g>
       <use xlink:href="#m97ef727d6b" x="378.685919" y="330.84327" style="stroke: #000000; stroke-width: 0.8"/>
      </g>
     </g>
     <g id="text_19">
      <!-- 21 -->
      <g transform="translate(372.323419 345.441707) scale(0.1 -0.1)">
       <use xlink:href="#DejaVuSans-32"/>
       <use xlink:href="#DejaVuSans-31" transform="translate(63.623047 0)"/>
      </g>
     </g>
    </g>
    <g id="xtick_46">
     <g id="line2d_54">
      <g>
       <use xlink:href="#m97ef727d6b" x="410.711103" y="330.84327" style="stroke: #000000; stroke-width: 0.8"/>
      </g>
     </g>
     <g id="text_20">
      <!-- 23 -->
      <g transform="translate(404.348603 345.441707) scale(0.1 -0.1)">
       <use xlink:href="#DejaVuSans-32"/>
       <use xlink:href="#DejaVuSans-33" transform="translate(63.623047 0)"/>
      </g>
     </g>
    </g>
    <g id="xtick_47">
     <g id="line2d_55">
      <g>
       <use xlink:href="#m97ef727d6b" x="442.736287" y="330.84327" style="stroke: #000000; stroke-width: 0.8"/>
      </g>
     </g>
     <g id="text_21">
      <!-- 25 -->
      <g transform="translate(436.373787 345.441707) scale(0.1 -0.1)">
       <use xlink:href="#DejaVuSans-32"/>
       <use xlink:href="#DejaVuSans-35" transform="translate(63.623047 0)"/>
      </g>
     </g>
    </g>
    <g id="xtick_48">
     <g id="line2d_56">
      <g>
       <use xlink:href="#m97ef727d6b" x="474.761471" y="330.84327" style="stroke: #000000; stroke-width: 0.8"/>
      </g>
     </g>
     <g id="text_22">
      <!-- 27 -->
      <g transform="translate(468.398971 345.441707) scale(0.1 -0.1)">
       <use xlink:href="#DejaVuSans-32"/>
       <use xlink:href="#DejaVuSans-37" transform="translate(63.623047 0)"/>
      </g>
     </g>
    </g>
    <g id="xtick_49">
     <g id="line2d_57">
      <g>
       <use xlink:href="#m97ef727d6b" x="506.786655" y="330.84327" style="stroke: #000000; stroke-width: 0.8"/>
      </g>
     </g>
     <g id="text_23">
      <!-- 29 -->
      <g transform="translate(500.424155 345.441707) scale(0.1 -0.1)">
       <use xlink:href="#DejaVuSans-32"/>
       <use xlink:href="#DejaVuSans-39" transform="translate(63.623047 0)"/>
      </g>
     </g>
    </g>
    <g id="xtick_50">
     <g id="line2d_58">
      <g>
       <use xlink:href="#m97ef727d6b" x="538.81184" y="330.84327" style="stroke: #000000; stroke-width: 0.8"/>
      </g>
     </g>
     <g id="text_24">
      <!-- Dec -->
      <g transform="translate(529.136058 345.441707) scale(0.1 -0.1)">
       <defs>
        <path id="DejaVuSans-44" d="M 1259 4147 
L 1259 519 
L 2022 519 
Q 2988 519 3436 956 
Q 3884 1394 3884 2338 
Q 3884 3275 3436 3711 
Q 2988 4147 2022 4147 
L 1259 4147 
z
M 628 4666 
L 1925 4666 
Q 3281 4666 3915 4102 
Q 4550 3538 4550 2338 
Q 4550 1131 3912 565 
Q 3275 0 1925 0 
L 628 0 
L 628 4666 
z
" transform="scale(0.015625)"/>
       </defs>
       <use xlink:href="#DejaVuSans-44"/>
       <use xlink:href="#DejaVuSans-65" transform="translate(77.001953 0)"/>
       <use xlink:href="#DejaVuSans-63" transform="translate(138.525391 0)"/>
      </g>
     </g>
    </g>
    <g id="xtick_51">
     <g id="line2d_59">
      <g>
       <use xlink:href="#m97ef727d6b" x="570.837024" y="330.84327" style="stroke: #000000; stroke-width: 0.8"/>
      </g>
     </g>
     <g id="text_25">
      <!-- 03 -->
      <g transform="translate(564.474524 345.441707) scale(0.1 -0.1)">
       <use xlink:href="#DejaVuSans-30"/>
       <use xlink:href="#DejaVuSans-33" transform="translate(63.623047 0)"/>
      </g>
     </g>
    </g>
    <g id="text_26">
     <!-- Time -->
     <g transform="translate(301.535905 359.119832) scale(0.1 -0.1)">
      <defs>
       <path id="DejaVuSans-54" d="M -19 4666 
L 3928 4666 
L 3928 4134 
L 2272 4134 
L 2272 0 
L 1638 0 
L 1638 4134 
L -19 4134 
L -19 4666 
z
" transform="scale(0.015625)"/>
       <path id="DejaVuSans-6d" d="M 3328 2828 
Q 3544 3216 3844 3400 
Q 4144 3584 4550 3584 
Q 5097 3584 5394 3201 
Q 5691 2819 5691 2113 
L 5691 0 
L 5113 0 
L 5113 2094 
Q 5113 2597 4934 2840 
Q 4756 3084 4391 3084 
Q 3944 3084 3684 2787 
Q 3425 2491 3425 1978 
L 3425 0 
L 2847 0 
L 2847 2094 
Q 2847 2600 2669 2842 
Q 2491 3084 2119 3084 
Q 1678 3084 1418 2786 
Q 1159 2488 1159 1978 
L 1159 0 
L 581 0 
L 581 3500 
L 1159 3500 
L 1159 2956 
Q 1356 3278 1631 3431 
Q 1906 3584 2284 3584 
Q 2666 3584 2933 3390 
Q 3200 3197 3328 2828 
z
" transform="scale(0.015625)"/>
      </defs>
      <use xlink:href="#DejaVuSans-54"/>
      <use xlink:href="#DejaVuSans-69" transform="translate(57.958984 0)"/>
      <use xlink:href="#DejaVuSans-6d" transform="translate(85.742188 0)"/>
      <use xlink:href="#DejaVuSans-65" transform="translate(183.154297 0)"/>
     </g>
    </g>
    <g id="text_27">
     <!-- 2025-Dec -->
     <g transform="translate(525.801498 358.119832) scale(0.1 -0.1)">
      <defs>
       <path id="DejaVuSans-2d" d="M 313 2009 
L 1997 2009 
L 1997 1497 
L 313 1497 
L 313 2009 
z
" transform="scale(0.015625)"/>
      </defs>
      <use xlink:href="#DejaVuSans-32"/>
      <use xlink:href="#DejaVuSans-30" transform="translate(63.623047 0)"/>
      <use xlink:href="#DejaVuSans-32" transform="translate(127.246094 0)"/>
      <use xlink:href="#DejaVuSans-35" transform="translate(190.869141 0)"/>
      <use xlink:href="#DejaVuSans-2d" transform="translate(254.492188 0)"/>
      <use xlink:href="#DejaVuSans-44" transform="translate(290.576172 0)"/>
      <use xlink:href="#DejaVuSans-65" transform="translate(367.578125 0)"/>
      <use xlink:href="#DejaVuSans-63" transform="translate(429.101562 0)"/>
     </g>
    </g>
   </g>
   <g id="matplotlib.axis_6">
    <g id="ytick_7">
     <g id="line2d_60">
      <g>
       <use xlink:href="#mc07d8e51ce" x="53.328125" y="307.559541" style="stroke: #000000; stroke-width: 0.8"/>
      </g>
     </g>
     <g id="text_28">
      <!-- 0.00 -->
      <g transform="translate(24.0625 311.35876) scale(0.1 -0.1)">
       <use xlink:href="#DejaVuSans-30"/>
       <use xlink:href="#DejaVuSans-2e" transform="translate(63.623047 0)"/>
       <use xlink:href="#DejaVuSans-30" transform="translate(95.410156 0)"/>
       <use xlink:href="#DejaVuSans-30" transform="translate(159.033203 0)"/>
      </g>
     </g>
    </g>
    <g id="ytick_8">
     <g id="line2d_61">
      <g>
       <use xlink:href="#mc07d8e51ce" x="53.328125" y="282.496809" style="stroke: #000000; stroke-width: 0.8"/>
      </g>
     </g>
     <g id="text_29">
      <!-- 0.25 -->
      <g transform="translate(24.0625 286.296028) scale(0.1 -0.1)">
       <use xlink:href="#DejaVuSans-30"/>
       <use xlink:href="#DejaVuSans-2e" transform="translate(63.623047 0)"/>
       <use xlink:href="#DejaVuSans-32" transform="translate(95.410156 0)"/>
       <use xlink:href="#DejaVuSans-35" transform="translate(159.033203 0)"/>
      </g>
     </g>
    </g>
    <g id="ytick_9">
     <g id="line2d_62">
      <g>
       <use xlink:href="#mc07d8e51ce" x="53.328125" y="257.434077" style="stroke: #000000; stroke-width: 0.8"/>
      </g>
     </g>
     <g id="text_30">
      <!-- 0.50 -->
      <g transform="translate(24.0625 261.233296) scale(0.1 -0.1)">
       <use xlink:href="#DejaVuSans-30"/>
       <use xlink:href="#DejaVuSans-2e" transform="translate(63.623047 0)"/>
       <use xlink:href="#DejaVuSans-35" transform="translate(95.410156 0)"/>
       <use xlink:href="#DejaVuSans-30" transform="translate(159.033203 0)"/>
      </g>
     </g>
    </g>
    <g id="ytick_10">
     <g id="line2d_63">
      <g>
       <use xlink:href="#mc07d8e51ce" x="53.328125" y="232.371345" style="stroke: #000000; stroke-width: 0.8"/>
      </g>
     </g>
     <g id="text_31">
      <!-- 0.75 -->
      <g transform="translate(24.0625 236.170564) scale(0.1 -0.1)">
       <use xlink:href="#DejaVuSans-30"/>
       <use xlink:href="#DejaVuSans-2e" transform="translate(63.623047 0)"/>
       <use xlink:href="#DejaVuSans-37" transform="translate(95.410156 0)"/>
       <use xlink:href="#DejaVuSans-35" transform="translate(159.033203 0)"/>
      </g>
     </g>
    </g>
    <g id="text_32">
     <!-- Score -->
     <g transform="translate(14.798438 294.918697) rotate(-90) scale(0.1 -0.1)">
      <defs>
       <path id="DejaVuSans-53" d="M 3425 4513 
L 3425 3897 
Q 3066 4069 2747 4153 
Q 2428 4238 2131 4238 
Q 1616 4238 1336 4038 
Q 1056 3838 1056 3469 
Q 1056 3159 1242 3001 
Q 1428 2844 1947 2747 
L 2328 2669 
Q 3034 2534 3370 2195 
Q 3706 1856 3706 1288 
Q 3706 609 3251 259 
Q 2797 -91 1919 -91 
Q 1588 -91 1214 -16 
Q 841 59 441 206 
L 441 856 
Q 825 641 1194 531 
Q 1563 422 1919 422 
Q 2459 422 2753 634 
Q 3047 847 3047 1241 
Q 3047 1584 2836 1778 
Q 2625 1972 2144 2069 
L 1759 2144 
Q 1053 2284 737 2584 
Q 422 2884 422 3419 
Q 422 4038 858 4394 
Q 1294 4750 2059 4750 
Q 2388 4750 2728 4690 
Q 3069 4631 3425 4513 
z
" transform="scale(0.015625)"/>
      </defs>
      <use xlink:href="#DejaVuSans-53"/>
      <use xlink:href="#DejaVuSans-63" transform="translate(63.476562 0)"/>
      <use xlink:href="#DejaVuSans-6f" transform="translate(118.457031 0)"/>
      <use xlink:href="#DejaVuSans-72" transform="translate(179.638672 0)"/>
      <use xlink:href="#DejaVuSans-65" transform="translate(218.501953 0)"/>
     </g>
    </g>
   </g>
   <g id="line2d_64">
    <path d="M 58.434819 306.185702 
L 58.728939 308.43025 
L 61.503899 308.43025 
L 62.309532 305.903997 
L 67.642059 305.903997 
L 67.79125 303.659479 
L 72.245679 303.659479 
L 72.966061 314.148132 
L 76.849299 314.148132 
L 78.38384 311.621909 
L 79.91838 311.621909 
L 80.847629 305.903997 
L 84.522 305.903997 
L 85.749632 303.659479 
L 86.05654 303.659479 
L 86.666093 311.903514 
L 93.72924 311.903514 
L 94.334531 309.377291 
L 95.26378 309.377291 
L 96.79832 311.621909 
L 97.446237 314.425226 
L 98.332861 314.425226 
L 98.712233 317.989647 
L 100.805175 326.304459 
L 100.817963 299.671397 
L 101.401941 317.989647 
L 102.603997 320.515971 
L 102.936481 320.515971 
L 104.390031 312.081058 
L 104.471021 320.515971 
L 109.074641 320.515971 
L 110.344899 299.671397 
L 110.609181 317.989647 
L 110.617706 308.106109 
L 112.143721 317.989647 
L 113.396929 314.425226 
L 115.212801 314.425226 
L 116.538473 317.989647 
L 116.747341 317.989647 
L 117.928085 290.94295 
L 118.281881 317.989647 
L 118.80192 286.16098 
L 119.837735 313.20828 
L 120.843711 272.891768 
L 121.350962 309.643958 
L 122.557281 313.20828 
L 122.885502 313.20828 
L 124.125922 279.031134 
L 124.420042 279.031134 
L 124.859091 286.338425 
L 126.35953 283.812101 
L 127.037285 317.989647 
L 129.023662 317.989647 
L 129.91881 305.903997 
L 130.558202 305.903997 
L 131.389411 303.659479 
L 133.627282 303.659479 
L 134.628996 306.185702 
L 135.161822 306.185702 
L 136.389454 314.500213 
L 136.696362 306.185702 
L 138.230902 302.913712 
L 139.765443 302.913712 
L 140.353683 311.228324 
L 141.299983 302.913712 
L 142.369898 300.387489 
L 144.369063 300.387489 
L 145.903603 306.105301 
L 146.031481 309.377291 
L 147.438143 309.377291 
L 148.972683 311.621909 
L 149.63765 301.738471 
L 150.507223 311.621909 
L 150.856757 316.951449 
L 152.041763 316.951449 
L 153.030689 320.515971 
L 158.179923 320.515971 
L 158.384529 317.989647 
L 159.714463 317.989647 
L 160.895207 308.707314 
L 161.249004 308.707314 
L 162.463848 305.903997 
L 162.783544 305.903997 
L 162.830432 303.659479 
L 164.318084 303.659479 
L 165.387999 305.903997 
L 165.852624 305.903997 
L 166.653995 308.43025 
L 167.387164 308.43025 
L 167.42979 311.233637 
L 169.245662 306.185702 
L 170.140811 316.939419 
L 170.456244 316.939419 
L 171.385493 306.185702 
L 173.525324 306.185702 
L 174.394897 303.659479 
L 181.198025 303.659479 
L 182.732565 308.43025 
L 183.32933 314.148132 
L 184.267105 314.148132 
L 184.76583 316.951449 
L 188.870725 316.951449 
L 189.974741 314.148132 
L 190.405265 314.148132 
L 190.41379 311.621909 
L 198.073703 311.621909 
L 198.678994 314.148132 
L 199.484627 308.43025 
L 201.147045 308.43025 
L 201.654296 306.185702 
L 204.216126 306.185702 
L 205.294566 302.913712 
L 205.750666 302.913712 
L 206.419896 300.387489 
L 211.888826 300.387489 
L 212.528218 291.952477 
L 213.423366 300.387489 
L 214.689362 302.913712 
L 216.492446 302.913712 
L 217.732866 308.631624 
L 219.561526 308.631624 
L 220.222231 311.903514 
L 221.778084 314.148132 
L 222.434526 311.621909 
L 224.165147 311.621909 
L 224.182197 305.903997 
L 225.699687 305.903997 
L 227.234227 314.425226 
L 228.581212 317.989647 
L 230.303307 317.989647 
L 230.703992 320.515971 
L 233.372387 320.515971 
L 233.37665 316.951449 
L 237.976007 316.951449 
L 238.261602 320.515971 
L 239.510547 317.989647 
L 239.787617 314.425226 
L 242.579627 314.425226 
L 243.116716 311.621909 
L 244.114168 311.621909 
L 245.384426 293.303859 
L 245.648708 311.621909 
L 245.951353 296.020659 
L 247.183248 306.185702 
L 250.252328 306.185702 
L 251.181577 316.951449 
L 251.786868 313.679459 
L 253.138116 325.558592 
L 253.321408 317.243781 
L 254.459525 311.153236 
L 254.855948 311.153236 
L 256.390488 306.105301 
L 257.925028 306.105301 
L 258.035856 300.387489 
L 260.989846 300.387489 
L 261.023947 291.952477 
L 261.433157 303.659479 
L 262.528648 303.659479 
L 263.018849 271.032113 
L 264.152703 271.032113 
L 264.9967 285.608598 
L 265.597729 285.608598 
L 267.370975 320.515971 
L 268.666809 320.515971 
L 269.736724 293.469273 
L 271.134861 281.993549 
L 271.47587 310.681956 
L 273.270429 310.681956 
L 274.766606 301.953309 
L 274.809232 310.681956 
L 275.0522 292.06977 
L 276.339509 310.681956 
L 276.923487 307.117675 
L 277.874049 307.117675 
L 278.099968 314.425226 
L 280.128971 316.951449 
L 280.431616 308.516757 
L 280.943129 316.951449 
L 281.296926 314.148132 
L 285.54675 314.148132 
L 286.488787 311.621909 
L 290.15037 311.621909 
L 290.832388 305.903997 
L 294.749727 305.903997 
L 294.75399 308.43025 
L 296.28853 308.43025 
L 296.808569 306.185702 
L 302.422428 306.185702 
L 302.499155 303.659479 
L 303.607434 312.180607 
L 304.502582 314.425226 
L 304.997045 311.621909 
L 307.030311 311.621909 
L 307.938247 305.903997 
L 308.564851 305.903997 
L 308.871759 303.659479 
L 310.099391 303.659479 
L 310.998802 311.903514 
L 311.633931 311.903514 
L 312.512029 308.631624 
L 313.168471 308.631624 
L 313.679984 313.679459 
L 314.703011 313.679459 
L 315.325352 317.243781 
L 316.237551 317.243781 
L 316.893993 313.679459 
L 317.772091 316.951449 
L 319.178753 311.621909 
L 320.841171 311.621909 
L 321.599916 305.903997 
L 322.375711 305.903997 
L 323.910251 287.585546 
L 323.952877 305.903997 
L 325.444791 295.224667 
L 326.778989 306.185702 
L 326.979332 306.185702 
L 327.844642 296.302364 
L 328.513872 306.185702 
L 329.609363 314.148132 
L 330.048412 314.148132 
L 330.986186 320.515971 
L 331.582952 320.515971 
L 332.998139 301.903684 
L 333.117492 320.515971 
L 333.850661 294.596094 
L 334.652032 310.681956 
L 335.150757 301.953309 
L 337.098771 317.989647 
L 337.721112 317.989647 
L 338.292302 312.180607 
L 339.255652 312.180607 
L 340.790192 303.659479 
L 342.324732 303.659479 
L 343.181517 308.43025 
L 349.997433 308.43025 
L 350.534522 287.585546 
L 351.531973 303.659479 
L 354.601053 303.659479 
L 355.061415 312.180607 
L 356.135593 312.180607 
L 356.314623 315.745029 
L 357.738335 305.861491 
L 358.803988 320.515971 
L 365.342833 320.515971 
L 366.54489 315.745029 
L 366.877373 315.745029 
L 367.776784 309.377291 
L 368.411914 309.377291 
L 369.029992 303.659479 
L 373.015534 303.659479 
L 374.281529 271.77798 
L 374.848457 292.915888 
L 375.44096 266.996011 
L 376.084614 276.87975 
L 376.361684 301.12273 
L 377.619154 301.12273 
L 378.450363 313.20828 
L 379.153694 313.20828 
L 380.688234 294.596094 
L 380.756436 310.963661 
L 382.222774 310.963661 
L 383.757314 235.528247 
L 384.332767 293.434185 
L 385.291854 280.279259 
L 385.739429 290.161995 
L 386.93296 271.844146 
L 387.210029 298.891144 
L 388.360934 298.891144 
L 389.413799 290.161995 
L 390.854562 295.227674 
L 391.199834 310.969476 
L 394.499095 310.969476 
L 395.185375 304.601838 
L 397.568175 304.601838 
L 398.872534 299.830996 
L 399.102715 299.830996 
L 399.776208 306.105301 
L 400.637255 306.105301 
L 401.272384 309.377291 
L 406.775415 309.377291 
L 406.997071 314.706931 
L 408.309955 314.706931 
L 409.315932 311.903514 
L 409.844496 314.148132 
L 411.212794 308.43025 
L 411.379036 308.43025 
L 412.772909 305.158331 
L 412.913576 305.158331 
L 413.467715 302.913712 
L 414.448116 302.913712 
L 414.584519 300.387489 
L 422.120816 300.387489 
L 422.853985 302.913712 
L 425.189896 302.913712 
L 425.211209 305.158331 
L 426.724436 305.158331 
L 426.801163 308.43025 
L 428.258976 308.43025 
L 429.682689 299.995508 
L 429.793516 308.43025 
L 430.59915 305.903997 
L 431.328057 305.903997 
L 432.346821 303.659479 
L 435.927414 303.659479 
L 436.421877 300.387489 
L 437.466217 309.377291 
L 438.190861 306.105301 
L 439.000757 308.631624 
L 440.535297 308.631624 
L 442.069837 302.913712 
L 442.206241 313.667429 
L 443.604377 313.667429 
L 444.405748 302.913712 
L 445.138917 302.913712 
L 446.673457 300.387489 
L 451.272815 300.387489 
L 452.274529 306.105301 
L 452.811618 297.670589 
L 454.346158 308.349919 
L 455.654779 316.951449 
L 457.415238 316.951449 
L 458.519254 314.706931 
L 458.949778 314.706931 
L 460.484318 308.989019 
L 462.018858 308.989019 
L 462.628411 303.659479 
L 468.157018 303.659479 
L 468.459664 309.377291 
L 469.691558 309.377291 
L 470.893615 311.903514 
L 474.295179 311.903514 
L 474.717177 306.185702 
L 477.364259 306.185702 
L 478.634517 303.659479 
L 483.502419 303.659479 
L 484.282477 309.377291 
L 486.571499 309.377291 
L 486.903983 314.148132 
L 494.2442 314.148132 
L 494.649148 311.621909 
L 500.378097 311.621909 
L 501.094216 319.93652 
L 501.767709 303.187197 
L 501.9169 311.621909 
L 502.918614 314.148132 
L 503.45144 314.148132 
L 503.634732 311.903514 
L 504.98598 311.903514 
L 505.399453 306.185702 
L 506.52052 306.185702 
L 506.972357 311.903514 
L 509.5896 311.903514 
L 509.627964 314.706931 
L 511.12414 312.180607 
L 512.65868 312.180607 
L 512.957063 309.377291 
L 517.262301 309.377291 
L 517.842016 311.621909 
L 518.796841 311.621909 
L 518.928982 314.148132 
L 526.469541 314.148132 
L 526.678409 311.621909 
L 528.004081 311.621909 
L 528.13196 309.377291 
L 529.538621 311.621909 
L 530.936758 305.903997 
L 534.142241 305.903997 
L 534.943612 308.43025 
L 538.745862 308.43025 
L 539.790201 276.547919 
L 540.29319 285.276767 
L 541.1585 269.240629 
L 541.814942 272.714324 
L 543.259967 307.117675 
L 543.583926 298.388987 
L 543.946248 310.681956 
L 546.418562 310.681956 
L 547.369124 281.993549 
L 548.916452 310.681956 
L 549.20631 292.06977 
L 549.585682 292.06977 
L 551.022182 313.20828 
L 552.556722 313.20828 
L 553.294154 320.515971 
L 555.625803 320.515971 
L 556.614728 316.951449 
L 557.160343 316.951449 
L 558.29846 314.148132 
L 558.694883 314.148132 
L 558.699145 311.621909 
L 560.229423 311.621909 
L 560.608795 305.903997 
L 564.833043 305.903997 
L 564.867144 303.659479 
L 566.367583 303.659479 
L 566.968611 306.185702 
L 569.10418 306.185702 
L 569.10418 306.185702 
" clip-path="url(#p9306fc2fc2)" style="fill: none; stroke: #7a738c; stroke-width: 1.5; stroke-linecap: square"/>
   </g>
   <g id="patch_13">
    <path d="M 53.328125 330.84327 
L 53.328125 230.989436 
" style="fill: none; stroke: #000000; stroke-width: 0.8; stroke-linejoin: miter; stroke-linecap: square"/>
   </g>
   <g id="patch_14">
    <path d="M 574.210873 330.84327 
L 574.210873 230.989436 
" style="fill: none; stroke: #000000; stroke-width: 0.8; stroke-linejoin: miter; stroke-linecap: square"/>
   </g>
   <g id="patch_15">
    <path d="M 53.328125 330.84327 
L 574.210873 330.84327 
" style="fill: none; stroke: #000000; stroke-width: 0.8; stroke-linejoin: miter; stroke-linecap: square"/>
   </g>
   <g id="patch_16">
    <path d="M 53.328125 230.989436 
L 574.210873 230.989436 
" style="fill: none; stroke: #000000; stroke-width: 0.8; stroke-linejoin: miter; stroke-linecap: square"/>
   </g>
  </g>
 </g>
 <defs>
  <clipPath id="p463579d6a6">
   <rect x="53.328125" y="7.2" width="520.882748" height="99.853834"/>
  </clipPath>
  <clipPath id="pb4160e0652">
   <rect x="53.328125" y="119.217816" width="520.882748" height="99.853834"/>
  </clipPath>
  <clipPath id="p9306fc2fc2">
   <rect x="53.328125" y="230.989436" width="520.882748" height="99.853834"/>
  </clipPath>
 </defs>
</svg>
